<svg width="836" height="740" viewBox="0 0 836 740" fill="none" xmlns="http://www.w3.org/2000/svg">
<rect width="836" height="740" fill="#F9F9F9"/>
<path d="M143.828 98C142.734 98 142.078 97.3125 142.078 96.1875V77.2656C142.078 76.1406 142.734 75.4531 143.828 75.4531H151.078C155.078 75.4531 157.703 77.6719 157.703 81.0781C157.703 83.4688 155.938 85.6094 153.688 85.9844V86.1094C156.75 86.4531 158.812 88.625 158.812 91.625C158.812 95.5938 155.922 98 151.125 98H143.828ZM145.578 85.0469H149.5C152.531 85.0469 154.203 83.7969 154.203 81.5625C154.203 79.4688 152.766 78.3125 150.234 78.3125H145.578V85.0469ZM145.578 95.1406H150.406C153.562 95.1406 155.234 93.8438 155.234 91.4062C155.234 88.9688 153.516 87.7188 150.203 87.7188H145.578V95.1406ZM167.109 98.2969C163.531 98.2969 161.344 95.9688 161.344 92.2031V83.0625C161.344 81.9375 162.031 81.2656 163.031 81.2656C164.016 81.2656 164.719 81.9375 164.719 83.0625V91.5469C164.719 94.0469 165.906 95.3906 168.234 95.3906C170.672 95.3906 172.141 93.7031 172.141 91.1406V83.0625C172.141 81.9375 172.844 81.2656 173.828 81.2656C174.828 81.2656 175.516 81.9375 175.516 83.0625V96.5781C175.516 97.625 174.875 98.2969 173.906 98.2969C172.938 98.2969 172.281 97.625 172.281 96.5938V95.2188H172.203C171.297 97.1875 169.625 98.2969 167.109 98.2969ZM179.844 94.0625V84.2344H178.656C177.781 84.2344 177.25 83.7344 177.25 82.9062C177.25 82.0625 177.781 81.5625 178.656 81.5625H179.844V79.125C179.844 78.0469 180.516 77.3281 181.547 77.3281C182.562 77.3281 183.234 78.0469 183.234 79.125V81.5625H185.156C186.031 81.5625 186.562 82.0781 186.562 82.9062C186.562 83.7344 186.031 84.2344 185.156 84.2344H183.234V93.3125C183.234 94.625 183.688 95.2188 184.906 95.3125L185.172 95.3281C186.141 95.4219 186.625 95.8125 186.625 96.6094C186.625 97.625 185.844 98.1406 184.188 98.1406H184.016C181.25 98.1406 179.844 96.7812 179.844 94.0625ZM190.125 94.0625V84.2344H188.938C188.062 84.2344 187.531 83.7344 187.531 82.9062C187.531 82.0625 188.062 81.5625 188.938 81.5625H190.125V79.125C190.125 78.0469 190.797 77.3281 191.828 77.3281C192.844 77.3281 193.516 78.0469 193.516 79.125V81.5625H195.438C196.312 81.5625 196.844 82.0781 196.844 82.9062C196.844 83.7344 196.312 84.2344 195.438 84.2344H193.516V93.3125C193.516 94.625 193.969 95.2188 195.188 95.3125L195.453 95.3281C196.422 95.4219 196.906 95.8125 196.906 96.6094C196.906 97.625 196.125 98.1406 194.469 98.1406H194.297C191.531 98.1406 190.125 96.7812 190.125 94.0625ZM206.078 98.3125C201.375 98.3125 198.281 95.0781 198.281 89.7812C198.281 84.5 201.391 81.2656 206.078 81.2656C210.766 81.2656 213.875 84.5 213.875 89.7812C213.875 95.0781 210.781 98.3125 206.078 98.3125ZM206.078 95.5312C208.734 95.5312 210.438 93.4375 210.438 89.7812C210.438 86.1406 208.719 84.0469 206.078 84.0469C203.438 84.0469 201.719 86.1406 201.719 89.7812C201.719 93.4375 203.438 95.5312 206.078 95.5312ZM218.172 98.2969C217.172 98.2969 216.484 97.625 216.484 96.5156V82.9688C216.484 81.9375 217.109 81.2656 218.094 81.2656C219.062 81.2656 219.734 81.9375 219.734 82.9844V84.2812H219.812C220.703 82.4062 222.422 81.2812 224.953 81.2812C228.578 81.2812 230.656 83.5938 230.656 87.3594V96.5156C230.656 97.625 229.953 98.2969 228.953 98.2969C227.969 98.2969 227.266 97.625 227.266 96.5156V88.0156C227.266 85.5469 226.109 84.1875 223.766 84.1875C221.391 84.1875 219.859 85.875 219.859 88.4219V96.5156C219.859 97.625 219.156 98.2969 218.172 98.2969ZM239.984 98.3125C236.75 98.3125 234.375 96.9844 233.594 94.9688C233.484 94.7188 233.453 94.4844 233.453 94.2656C233.453 93.4219 234.062 92.9219 234.906 92.9219C235.469 92.9219 235.953 93.1875 236.375 93.8125C237.219 95.1406 238.203 95.7344 240.156 95.7344C242.078 95.7344 243.375 94.9062 243.375 93.5469C243.375 92.4688 242.734 91.8906 240.969 91.4688L238.375 90.8594C235.188 90.1094 233.625 88.5469 233.625 86.2031C233.625 83.2344 236.203 81.2656 240.109 81.2656C243.078 81.2656 245.516 82.7812 245.984 84.7188C246.016 84.9062 246.047 85.0625 246.047 85.2188C246.047 85.9688 245.578 86.4688 244.734 86.4688C244.188 86.4688 243.703 86.2812 243.375 85.75C242.641 84.5 241.641 83.8438 239.984 83.8438C238.172 83.8438 236.922 84.7344 236.922 86.0156C236.922 87.0469 237.719 87.7656 239.453 88.1719L242 88.7656C245.453 89.5625 246.781 90.7969 246.781 93.2344C246.781 96.2812 244.047 98.3125 239.984 98.3125ZM273.25 98.2969C272.656 98.2969 272.328 98.1406 271.844 97.625L270.219 95.875C268.391 97.4688 265.781 98.3906 263.094 98.3906C258.516 98.3906 255.422 95.8125 255.422 92.0312C255.422 89.4219 256.812 87.4531 259.75 85.875C260.125 85.6875 260.562 85.4375 260.672 85.4062C258.641 83.2656 257.875 81.8438 257.875 80.1875C257.875 77.2812 260.406 75.1094 263.812 75.1094C267.266 75.1094 269.719 77.2188 269.719 80.1875C269.719 82.4844 268.312 84.2188 264.984 85.9844L270.109 91.5C270.734 90.4062 271.172 88.9219 271.172 86.5312C271.188 85.5312 271.688 84.9062 272.641 84.9062C273.594 84.9062 274.109 85.5625 274.109 86.5312C274.109 89.5312 273.5 91.8906 272.234 93.7344L274.078 95.6562C274.531 96.1406 274.672 96.4219 274.672 96.9219C274.672 97.7031 274.078 98.2969 273.25 98.2969ZM263.266 84.2188C265.734 82.9531 266.672 81.875 266.672 80.3594C266.672 78.7344 265.531 77.6094 263.828 77.6094C262.172 77.6094 260.984 78.7656 260.984 80.375C260.984 81.5469 261.594 82.5625 263.266 84.2188ZM263.422 95.6875C265.297 95.6875 267.219 94.9531 268.297 93.7969L262.375 87.3281C262.188 87.4219 261.812 87.625 261.672 87.7031C259.578 89 258.734 90.1719 258.734 91.7812C258.734 94.125 260.625 95.6875 263.422 95.6875ZM286.328 98C285.234 98 284.578 97.3125 284.578 96.1875V77.2656C284.578 76.1406 285.234 75.4531 286.328 75.4531H297.516C298.484 75.4531 299.141 76.0469 299.141 76.9688C299.141 77.8906 298.484 78.4844 297.516 78.4844H288.078V85.0625H297C297.922 85.0625 298.562 85.625 298.562 86.5156C298.562 87.3906 297.938 87.9688 297 87.9688H288.078V94.9688H297.516C298.484 94.9688 299.141 95.5625 299.141 96.4844C299.141 97.4062 298.484 98 297.516 98H286.328ZM303.891 98.2969C302.906 98.2969 302.203 97.625 302.203 96.5156V76.9375C302.203 75.8281 302.906 75.1562 303.891 75.1562C304.875 75.1562 305.578 75.8281 305.578 76.9375V96.5156C305.578 97.625 304.875 98.2969 303.891 98.2969ZM316.172 98.3125C311.219 98.3125 308.312 95.1719 308.312 89.8594C308.312 84.6406 311.281 81.2656 315.938 81.2656C320.312 81.2656 323.328 84.4219 323.328 88.9062C323.328 90 322.703 90.625 321.656 90.625H311.719V90.7031C311.719 93.7031 313.406 95.5781 316.094 95.5781C317.938 95.5781 319.094 94.9375 320.344 93.2344C320.703 92.8125 321.047 92.6406 321.531 92.6406C322.344 92.6406 322.938 93.1719 322.938 94.0156C322.938 94.2812 322.844 94.5938 322.703 94.9219C321.625 97.0781 319.234 98.3125 316.172 98.3125ZM311.734 88.2656H319.953C319.875 85.6875 318.266 83.9844 315.922 83.9844C313.594 83.9844 311.906 85.7031 311.734 88.2656ZM327.641 98.2969C326.625 98.2969 325.953 97.5938 325.953 96.5156V82.9844C325.953 81.9219 326.609 81.2656 327.562 81.2656C328.5 81.2656 329.172 81.9062 329.172 82.9844V84.3281H329.25C329.984 82.5 331.703 81.2812 333.922 81.2812C336.203 81.2812 337.859 82.4531 338.516 84.5H338.594C339.438 82.5 341.375 81.2812 343.719 81.2812C346.969 81.2812 349.094 83.4375 349.094 86.7031V96.5156C349.094 97.5938 348.406 98.2969 347.391 98.2969C346.375 98.2969 345.703 97.5938 345.703 96.5156V87.5156C345.703 85.3906 344.562 84.1719 342.562 84.1719C340.562 84.1719 339.172 85.6562 339.172 87.7344V96.5156C339.172 97.5938 338.531 98.2969 337.516 98.2969C336.5 98.2969 335.859 97.5938 335.859 96.5156V87.2656C335.859 85.375 334.656 84.1719 332.75 84.1719C330.75 84.1719 329.328 85.7344 329.328 87.8438V96.5156C329.328 97.5938 328.656 98.2969 327.641 98.2969ZM359.484 98.3125C354.531 98.3125 351.625 95.1719 351.625 89.8594C351.625 84.6406 354.594 81.2656 359.25 81.2656C363.625 81.2656 366.641 84.4219 366.641 88.9062C366.641 90 366.016 90.625 364.969 90.625H355.031V90.7031C355.031 93.7031 356.719 95.5781 359.406 95.5781C361.25 95.5781 362.406 94.9375 363.656 93.2344C364.016 92.8125 364.359 92.6406 364.844 92.6406C365.656 92.6406 366.25 93.1719 366.25 94.0156C366.25 94.2812 366.156 94.5938 366.016 94.9219C364.938 97.0781 362.547 98.3125 359.484 98.3125ZM355.047 88.2656H363.266C363.188 85.6875 361.578 83.9844 359.234 83.9844C356.906 83.9844 355.219 85.7031 355.047 88.2656ZM370.953 98.2969C369.953 98.2969 369.266 97.625 369.266 96.5156V82.9688C369.266 81.9375 369.891 81.2656 370.875 81.2656C371.844 81.2656 372.516 81.9375 372.516 82.9844V84.2812H372.594C373.484 82.4062 375.203 81.2812 377.734 81.2812C381.359 81.2812 383.438 83.5938 383.438 87.3594V96.5156C383.438 97.625 382.734 98.2969 381.734 98.2969C380.75 98.2969 380.047 97.625 380.047 96.5156V88.0156C380.047 85.5469 378.891 84.1875 376.547 84.1875C374.172 84.1875 372.641 85.875 372.641 88.4219V96.5156C372.641 97.625 371.938 98.2969 370.953 98.2969ZM387.688 94.0625V84.2344H386.5C385.625 84.2344 385.094 83.7344 385.094 82.9062C385.094 82.0625 385.625 81.5625 386.5 81.5625H387.688V79.125C387.688 78.0469 388.359 77.3281 389.391 77.3281C390.406 77.3281 391.078 78.0469 391.078 79.125V81.5625H393C393.875 81.5625 394.406 82.0781 394.406 82.9062C394.406 83.7344 393.875 84.2344 393 84.2344H391.078V93.3125C391.078 94.625 391.531 95.2188 392.75 95.3125L393.016 95.3281C393.984 95.4219 394.469 95.8125 394.469 96.6094C394.469 97.625 393.688 98.1406 392.031 98.1406H391.859C389.094 98.1406 387.688 96.7812 387.688 94.0625ZM403.047 98.3125C399.812 98.3125 397.438 96.9844 396.656 94.9688C396.547 94.7188 396.516 94.4844 396.516 94.2656C396.516 93.4219 397.125 92.9219 397.969 92.9219C398.531 92.9219 399.016 93.1875 399.438 93.8125C400.281 95.1406 401.266 95.7344 403.219 95.7344C405.141 95.7344 406.438 94.9062 406.438 93.5469C406.438 92.4688 405.797 91.8906 404.031 91.4688L401.438 90.8594C398.25 90.1094 396.688 88.5469 396.688 86.2031C396.688 83.2344 399.266 81.2656 403.172 81.2656C406.141 81.2656 408.578 82.7812 409.047 84.7188C409.078 84.9062 409.109 85.0625 409.109 85.2188C409.109 85.9688 408.641 86.4688 407.797 86.4688C407.25 86.4688 406.766 86.2812 406.438 85.75C405.703 84.5 404.703 83.8438 403.047 83.8438C401.234 83.8438 399.984 84.7344 399.984 86.0156C399.984 87.0469 400.781 87.7656 402.516 88.1719L405.062 88.7656C408.516 89.5625 409.844 90.7969 409.844 93.2344C409.844 96.2812 407.109 98.3125 403.047 98.3125Z" fill="black"/>
<path d="M140 143H568V206H140V143Z" fill="#486247" fill-opacity="0.82"/>
<path d="M337.135 184.191C336.383 184.191 335.904 183.699 335.904 182.92V166.486H330.654C329.957 166.486 329.479 166.035 329.479 165.379C329.479 164.723 329.957 164.271 330.654 164.271H343.615C344.312 164.271 344.791 164.723 344.791 165.379C344.791 166.035 344.312 166.486 343.615 166.486H338.365V182.92C338.365 183.699 337.887 184.191 337.135 184.191ZM347.443 167.389C346.637 167.389 345.967 166.719 345.967 165.912C345.967 165.092 346.637 164.436 347.443 164.436C348.264 164.436 348.934 165.092 348.934 165.912C348.934 166.719 348.264 167.389 347.443 167.389ZM347.443 184.246C346.746 184.246 346.254 183.727 346.254 182.975V170.807C346.254 170.055 346.746 169.535 347.443 169.535C348.141 169.535 348.633 170.055 348.633 170.807V182.975C348.633 183.727 348.141 184.246 347.443 184.246ZM352.611 180.719V171.736H351.422C350.738 171.736 350.355 171.381 350.355 170.752C350.355 170.137 350.738 169.781 351.422 169.781H352.611V167.348C352.611 166.596 353.104 166.076 353.801 166.076C354.498 166.076 354.99 166.596 354.99 167.348V169.781H356.822C357.506 169.781 357.889 170.137 357.889 170.752C357.889 171.381 357.506 171.736 356.822 171.736H354.99V180.199C354.99 181.402 355.414 181.977 356.604 182.059L356.809 182.072C357.588 182.127 357.943 182.441 357.943 183.002C357.943 183.727 357.533 184.109 356.207 184.109H356.057C353.76 184.109 352.611 182.988 352.611 180.719ZM361.607 184.246C360.91 184.246 360.418 183.727 360.418 182.975V165.297C360.418 164.545 360.91 164.025 361.607 164.025C362.305 164.025 362.797 164.545 362.797 165.297V182.975C362.797 183.727 362.305 184.246 361.607 184.246ZM371.971 184.246C367.773 184.246 365.312 181.539 365.312 176.945C365.312 172.461 367.842 169.535 371.766 169.535C375.402 169.535 377.959 172.256 377.959 176.152C377.959 177.014 377.467 177.533 376.646 177.533H367.76C367.76 180.404 369.332 182.182 371.875 182.182C373.57 182.182 374.609 181.58 375.717 179.967C375.963 179.625 376.236 179.488 376.605 179.488C377.234 179.488 377.658 179.898 377.658 180.527C377.658 180.719 377.59 180.965 377.48 181.225C376.564 183.152 374.568 184.246 371.971 184.246ZM367.773 175.674H375.498C375.443 173.213 373.926 171.6 371.725 171.6C369.51 171.6 367.924 173.227 367.773 175.674Z" fill="white"/>
<g filter="url(#filter0_d_225_1667)">
<rect x="140" y="236" width="428" height="47" fill="#627193"/>
</g>
<path d="M337.135 269.191C336.383 269.191 335.904 268.699 335.904 267.92V251.486H330.654C329.957 251.486 329.479 251.035 329.479 250.379C329.479 249.723 329.957 249.271 330.654 249.271H343.615C344.312 249.271 344.791 249.723 344.791 250.379C344.791 251.035 344.312 251.486 343.615 251.486H338.365V267.92C338.365 268.699 337.887 269.191 337.135 269.191ZM347.443 252.389C346.637 252.389 345.967 251.719 345.967 250.912C345.967 250.092 346.637 249.436 347.443 249.436C348.264 249.436 348.934 250.092 348.934 250.912C348.934 251.719 348.264 252.389 347.443 252.389ZM347.443 269.246C346.746 269.246 346.254 268.727 346.254 267.975V255.807C346.254 255.055 346.746 254.535 347.443 254.535C348.141 254.535 348.633 255.055 348.633 255.807V267.975C348.633 268.727 348.141 269.246 347.443 269.246ZM352.611 265.719V256.736H351.422C350.738 256.736 350.355 256.381 350.355 255.752C350.355 255.137 350.738 254.781 351.422 254.781H352.611V252.348C352.611 251.596 353.104 251.076 353.801 251.076C354.498 251.076 354.99 251.596 354.99 252.348V254.781H356.822C357.506 254.781 357.889 255.137 357.889 255.752C357.889 256.381 357.506 256.736 356.822 256.736H354.99V265.199C354.99 266.402 355.414 266.977 356.604 267.059L356.809 267.072C357.588 267.127 357.943 267.441 357.943 268.002C357.943 268.727 357.533 269.109 356.207 269.109H356.057C353.76 269.109 352.611 267.988 352.611 265.719ZM361.607 269.246C360.91 269.246 360.418 268.727 360.418 267.975V250.297C360.418 249.545 360.91 249.025 361.607 249.025C362.305 249.025 362.797 249.545 362.797 250.297V267.975C362.797 268.727 362.305 269.246 361.607 269.246ZM371.971 269.246C367.773 269.246 365.312 266.539 365.312 261.945C365.312 257.461 367.842 254.535 371.766 254.535C375.402 254.535 377.959 257.256 377.959 261.152C377.959 262.014 377.467 262.533 376.646 262.533H367.76C367.76 265.404 369.332 267.182 371.875 267.182C373.57 267.182 374.609 266.58 375.717 264.967C375.963 264.625 376.236 264.488 376.605 264.488C377.234 264.488 377.658 264.898 377.658 265.527C377.658 265.719 377.59 265.965 377.48 266.225C376.564 268.152 374.568 269.246 371.971 269.246ZM367.773 260.674H375.498C375.443 258.213 373.926 256.6 371.725 256.6C369.51 256.6 367.924 258.227 367.773 260.674Z" fill="white"/>
<g filter="url(#filter1_d_225_1667)">
<rect x="140" y="313" width="428" height="47" fill="#DE6B5E"/>
</g>
<path d="M327.982 346.191C327.271 346.191 326.752 345.74 326.752 345.111C326.752 344.934 326.793 344.729 326.902 344.428L333.246 327.27C333.547 326.463 334.053 326.08 334.859 326.08C335.611 326.08 336.104 326.449 336.404 327.256L342.762 344.428C342.871 344.729 342.912 344.934 342.912 345.111C342.912 345.74 342.393 346.191 341.682 346.191C341.066 346.191 340.711 345.904 340.479 345.248L338.729 340.354H330.922L329.186 345.248C328.953 345.904 328.598 346.191 327.982 346.191ZM331.633 338.262H338.031L334.873 329.266H334.791L331.633 338.262ZM346.521 346.246C345.824 346.246 345.332 345.727 345.332 344.975V327.297C345.332 326.545 345.824 326.025 346.521 326.025C347.219 326.025 347.711 326.545 347.711 327.297V344.975C347.711 345.727 347.219 346.246 346.521 346.246ZM356.885 346.246C352.688 346.246 350.227 343.539 350.227 338.945C350.227 334.461 352.756 331.535 356.68 331.535C360.316 331.535 362.873 334.256 362.873 338.152C362.873 339.014 362.381 339.533 361.561 339.533H352.674C352.674 342.404 354.246 344.182 356.789 344.182C358.484 344.182 359.523 343.58 360.631 341.967C360.877 341.625 361.15 341.488 361.52 341.488C362.148 341.488 362.572 341.898 362.572 342.527C362.572 342.719 362.504 342.965 362.395 343.225C361.479 345.152 359.482 346.246 356.885 346.246ZM352.688 337.674H360.412C360.357 335.213 358.84 333.6 356.639 333.6C354.424 333.6 352.838 335.227 352.688 337.674ZM366.469 346.246C365.771 346.246 365.279 345.727 365.279 344.975V332.738C365.279 332.027 365.744 331.535 366.4 331.535C367.057 331.535 367.521 332.027 367.521 332.738V334.105H367.576C367.986 332.629 369.381 331.535 370.803 331.535C371.322 331.535 371.691 331.658 371.924 331.877C372.129 332.068 372.225 332.342 372.225 332.67C372.225 333.039 372.102 333.312 371.855 333.504C371.609 333.709 371.24 333.805 370.721 333.805C368.574 333.805 367.658 335.35 367.658 337.168V344.975C367.658 345.727 367.166 346.246 366.469 346.246ZM374.686 342.719V333.736H373.496C372.812 333.736 372.43 333.381 372.43 332.752C372.43 332.137 372.812 331.781 373.496 331.781H374.686V329.348C374.686 328.596 375.178 328.076 375.875 328.076C376.572 328.076 377.064 328.596 377.064 329.348V331.781H378.896C379.58 331.781 379.963 332.137 379.963 332.752C379.963 333.381 379.58 333.736 378.896 333.736H377.064V342.199C377.064 343.402 377.488 343.977 378.678 344.059L378.883 344.072C379.662 344.127 380.018 344.441 380.018 345.002C380.018 345.727 379.607 346.109 378.281 346.109H378.131C375.834 346.109 374.686 344.988 374.686 342.719Z" fill="black"/>
<g filter="url(#filter2_d_225_1667)">
<rect x="140" y="390" width="328" height="47" rx="15" fill="#486247"/>
</g>
<path d="M268.145 423C267.393 423 266.914 422.508 266.914 421.729V404.543C266.914 403.764 267.393 403.271 268.145 403.271H274.393C277.77 403.271 280.053 405.24 280.053 408.193C280.053 410.244 278.549 412.158 276.648 412.5V412.609C279.328 412.951 281.051 414.838 281.051 417.463C281.051 420.936 278.562 423 274.365 423H268.145ZM269.375 411.775H273.066C275.979 411.775 277.564 410.613 277.564 408.48C277.564 406.525 276.225 405.445 273.832 405.445H269.375V411.775ZM269.375 420.826H273.996C276.963 420.826 278.521 419.623 278.521 417.34C278.521 415.057 276.908 413.895 273.764 413.895H269.375V420.826ZM288.324 423.246C285.221 423.246 283.402 421.236 283.402 418.01V409.807C283.402 409.055 283.895 408.535 284.592 408.535C285.289 408.535 285.781 409.055 285.781 409.807V417.586C285.781 419.896 286.861 421.141 289.062 421.141C291.373 421.141 292.768 419.555 292.768 417.135V409.807C292.768 409.055 293.26 408.535 293.957 408.535C294.654 408.535 295.146 409.055 295.146 409.807V422.043C295.146 422.727 294.709 423.246 294.025 423.246C293.342 423.246 292.891 422.727 292.891 422.043V420.689H292.836C291.988 422.33 290.512 423.246 288.324 423.246ZM299.002 419.719V410.736H297.812C297.129 410.736 296.746 410.381 296.746 409.752C296.746 409.137 297.129 408.781 297.812 408.781H299.002V406.348C299.002 405.596 299.494 405.076 300.191 405.076C300.889 405.076 301.381 405.596 301.381 406.348V408.781H303.213C303.896 408.781 304.279 409.137 304.279 409.752C304.279 410.381 303.896 410.736 303.213 410.736H301.381V419.199C301.381 420.402 301.805 420.977 302.994 421.059L303.199 421.072C303.979 421.127 304.334 421.441 304.334 422.002C304.334 422.727 303.924 423.109 302.598 423.109H302.447C300.15 423.109 299.002 421.988 299.002 419.719ZM307.451 419.719V410.736H306.262C305.578 410.736 305.195 410.381 305.195 409.752C305.195 409.137 305.578 408.781 306.262 408.781H307.451V406.348C307.451 405.596 307.943 405.076 308.641 405.076C309.338 405.076 309.83 405.596 309.83 406.348V408.781H311.662C312.346 408.781 312.729 409.137 312.729 409.752C312.729 410.381 312.346 410.736 311.662 410.736H309.83V419.199C309.83 420.402 310.254 420.977 311.443 421.059L311.648 421.072C312.428 421.127 312.783 421.441 312.783 422.002C312.783 422.727 312.373 423.109 311.047 423.109H310.896C308.6 423.109 307.451 421.988 307.451 419.719ZM320.617 423.246C316.68 423.246 314.027 420.416 314.027 415.891C314.027 411.352 316.68 408.535 320.617 408.535C324.541 408.535 327.193 411.352 327.193 415.891C327.193 420.416 324.541 423.246 320.617 423.246ZM320.617 421.154C323.133 421.154 324.773 419.24 324.773 415.891C324.773 412.541 323.133 410.627 320.617 410.627C318.102 410.627 316.447 412.541 316.447 415.891C316.447 419.24 318.102 421.154 320.617 421.154ZM330.789 423.246C330.092 423.246 329.6 422.727 329.6 421.975V409.738C329.6 409.027 330.064 408.535 330.721 408.535C331.377 408.535 331.842 409.027 331.842 409.738V411.051H331.896C332.689 409.52 334.207 408.535 336.408 408.535C339.525 408.535 341.33 410.545 341.33 413.771V421.975C341.33 422.727 340.838 423.246 340.141 423.246C339.443 423.246 338.951 422.727 338.951 421.975V414.195C338.951 411.898 337.871 410.641 335.684 410.641C333.441 410.641 331.979 412.227 331.979 414.633V421.975C331.979 422.727 331.486 423.246 330.789 423.246Z" fill="white"/>
<g filter="url(#filter3_d_225_1667)">
<rect x="140" y="467" width="328" height="47" rx="15" fill="#627193"/>
</g>
<path d="M245.24 500.328C239.648 500.328 236.148 496.404 236.148 490.143C236.148 483.881 239.648 479.943 245.24 479.943C250.832 479.943 254.332 483.881 254.332 490.143C254.332 493.957 253.033 496.91 250.75 498.633L252.254 500.697C252.459 500.984 252.527 501.162 252.527 501.477C252.527 502.105 252.049 502.543 251.406 502.543C251.01 502.543 250.709 502.379 250.449 502.023L248.768 499.713C247.715 500.123 246.539 500.328 245.24 500.328ZM245.24 498.059C245.992 498.059 246.689 497.949 247.332 497.744L245.979 495.885C245.773 495.611 245.705 495.365 245.705 495.105C245.705 494.49 246.17 494.039 246.812 494.039C247.25 494.039 247.496 494.176 247.797 494.572L249.314 496.65C250.9 495.311 251.803 493.041 251.803 490.143C251.803 485.275 249.273 482.213 245.24 482.213C241.207 482.213 238.678 485.275 238.678 490.143C238.678 494.996 241.207 498.059 245.24 498.059ZM261.879 500.246C258.775 500.246 256.957 498.236 256.957 495.01V486.807C256.957 486.055 257.449 485.535 258.146 485.535C258.844 485.535 259.336 486.055 259.336 486.807V494.586C259.336 496.896 260.416 498.141 262.617 498.141C264.928 498.141 266.322 496.555 266.322 494.135V486.807C266.322 486.055 266.814 485.535 267.512 485.535C268.209 485.535 268.701 486.055 268.701 486.807V499.043C268.701 499.727 268.264 500.246 267.58 500.246C266.896 500.246 266.445 499.727 266.445 499.043V497.689H266.391C265.543 499.33 264.066 500.246 261.879 500.246ZM273.104 483.389C272.297 483.389 271.627 482.719 271.627 481.912C271.627 481.092 272.297 480.436 273.104 480.436C273.924 480.436 274.594 481.092 274.594 481.912C274.594 482.719 273.924 483.389 273.104 483.389ZM273.104 500.246C272.406 500.246 271.914 499.727 271.914 498.975V486.807C271.914 486.055 272.406 485.535 273.104 485.535C273.801 485.535 274.293 486.055 274.293 486.807V498.975C274.293 499.727 273.801 500.246 273.104 500.246ZM278.463 500C277.697 500 277.191 499.535 277.191 498.824C277.191 498.414 277.287 498.168 277.588 497.771L285.08 487.777V487.736H278.148C277.465 487.736 277.082 487.381 277.082 486.752C277.082 486.137 277.465 485.781 278.148 485.781H286.379C287.281 485.781 287.801 486.232 287.801 486.998C287.801 487.408 287.65 487.723 287.24 488.27L279.953 498.004V498.045H286.898C287.582 498.045 287.965 498.4 287.965 499.016C287.965 499.645 287.582 500 286.898 500H278.463ZM297.945 500C297.193 500 296.715 499.508 296.715 498.729V481.543C296.715 480.764 297.193 480.271 297.945 480.271H304.193C307.57 480.271 309.854 482.24 309.854 485.193C309.854 487.244 308.35 489.158 306.449 489.5V489.609C309.129 489.951 310.852 491.838 310.852 494.463C310.852 497.936 308.363 500 304.166 500H297.945ZM299.176 488.775H302.867C305.779 488.775 307.365 487.613 307.365 485.48C307.365 483.525 306.025 482.445 303.633 482.445H299.176V488.775ZM299.176 497.826H303.797C306.764 497.826 308.322 496.623 308.322 494.34C308.322 492.057 306.709 490.895 303.564 490.895H299.176V497.826ZM318.125 500.246C315.021 500.246 313.203 498.236 313.203 495.01V486.807C313.203 486.055 313.695 485.535 314.393 485.535C315.09 485.535 315.582 486.055 315.582 486.807V494.586C315.582 496.896 316.662 498.141 318.863 498.141C321.174 498.141 322.568 496.555 322.568 494.135V486.807C322.568 486.055 323.061 485.535 323.758 485.535C324.455 485.535 324.947 486.055 324.947 486.807V499.043C324.947 499.727 324.51 500.246 323.826 500.246C323.143 500.246 322.691 499.727 322.691 499.043V497.689H322.637C321.789 499.33 320.312 500.246 318.125 500.246ZM328.803 496.719V487.736H327.613C326.93 487.736 326.547 487.381 326.547 486.752C326.547 486.137 326.93 485.781 327.613 485.781H328.803V483.348C328.803 482.596 329.295 482.076 329.992 482.076C330.689 482.076 331.182 482.596 331.182 483.348V485.781H333.014C333.697 485.781 334.08 486.137 334.08 486.752C334.08 487.381 333.697 487.736 333.014 487.736H331.182V496.199C331.182 497.402 331.605 497.977 332.795 498.059L333 498.072C333.779 498.127 334.135 498.441 334.135 499.002C334.135 499.727 333.725 500.109 332.398 500.109H332.248C329.951 500.109 328.803 498.988 328.803 496.719ZM337.252 496.719V487.736H336.062C335.379 487.736 334.996 487.381 334.996 486.752C334.996 486.137 335.379 485.781 336.062 485.781H337.252V483.348C337.252 482.596 337.744 482.076 338.441 482.076C339.139 482.076 339.631 482.596 339.631 483.348V485.781H341.463C342.146 485.781 342.529 486.137 342.529 486.752C342.529 487.381 342.146 487.736 341.463 487.736H339.631V496.199C339.631 497.402 340.055 497.977 341.244 498.059L341.449 498.072C342.229 498.127 342.584 498.441 342.584 499.002C342.584 499.727 342.174 500.109 340.848 500.109H340.697C338.4 500.109 337.252 498.988 337.252 496.719ZM350.418 500.246C346.48 500.246 343.828 497.416 343.828 492.891C343.828 488.352 346.48 485.535 350.418 485.535C354.342 485.535 356.994 488.352 356.994 492.891C356.994 497.416 354.342 500.246 350.418 500.246ZM350.418 498.154C352.934 498.154 354.574 496.24 354.574 492.891C354.574 489.541 352.934 487.627 350.418 487.627C347.902 487.627 346.248 489.541 346.248 492.891C346.248 496.24 347.902 498.154 350.418 498.154ZM360.59 500.246C359.893 500.246 359.4 499.727 359.4 498.975V486.738C359.4 486.027 359.865 485.535 360.521 485.535C361.178 485.535 361.643 486.027 361.643 486.738V488.051H361.697C362.49 486.52 364.008 485.535 366.209 485.535C369.326 485.535 371.131 487.545 371.131 490.771V498.975C371.131 499.727 370.639 500.246 369.941 500.246C369.244 500.246 368.752 499.727 368.752 498.975V491.195C368.752 488.898 367.672 487.641 365.484 487.641C363.242 487.641 361.779 489.227 361.779 491.633V498.975C361.779 499.727 361.287 500.246 360.59 500.246Z" fill="white"/>
<g filter="url(#filter4_d_225_1667)">
<rect x="140" y="544" width="221" height="35" rx="15" fill="#486247" fill-opacity="0.24" shape-rendering="crispEdges"/>
<rect x="140.5" y="544.5" width="220" height="34" rx="14.5" stroke="#486247" shape-rendering="crispEdges"/>
</g>
<path d="M215.145 571C214.393 571 213.914 570.508 213.914 569.729V552.543C213.914 551.764 214.393 551.271 215.145 551.271H221.393C224.77 551.271 227.053 553.24 227.053 556.193C227.053 558.244 225.549 560.158 223.648 560.5V560.609C226.328 560.951 228.051 562.838 228.051 565.463C228.051 568.936 225.562 571 221.365 571H215.145ZM216.375 559.775H220.066C222.979 559.775 224.564 558.613 224.564 556.48C224.564 554.525 223.225 553.445 220.832 553.445H216.375V559.775ZM216.375 568.826H220.996C223.963 568.826 225.521 567.623 225.521 565.34C225.521 563.057 223.908 561.895 220.764 561.895H216.375V568.826ZM235.324 571.246C232.221 571.246 230.402 569.236 230.402 566.01V557.807C230.402 557.055 230.895 556.535 231.592 556.535C232.289 556.535 232.781 557.055 232.781 557.807V565.586C232.781 567.896 233.861 569.141 236.062 569.141C238.373 569.141 239.768 567.555 239.768 565.135V557.807C239.768 557.055 240.26 556.535 240.957 556.535C241.654 556.535 242.146 557.055 242.146 557.807V570.043C242.146 570.727 241.709 571.246 241.025 571.246C240.342 571.246 239.891 570.727 239.891 570.043V568.689H239.836C238.988 570.33 237.512 571.246 235.324 571.246ZM246.002 567.719V558.736H244.812C244.129 558.736 243.746 558.381 243.746 557.752C243.746 557.137 244.129 556.781 244.812 556.781H246.002V554.348C246.002 553.596 246.494 553.076 247.191 553.076C247.889 553.076 248.381 553.596 248.381 554.348V556.781H250.213C250.896 556.781 251.279 557.137 251.279 557.752C251.279 558.381 250.896 558.736 250.213 558.736H248.381V567.199C248.381 568.402 248.805 568.977 249.994 569.059L250.199 569.072C250.979 569.127 251.334 569.441 251.334 570.002C251.334 570.727 250.924 571.109 249.598 571.109H249.447C247.15 571.109 246.002 569.988 246.002 567.719ZM254.451 567.719V558.736H253.262C252.578 558.736 252.195 558.381 252.195 557.752C252.195 557.137 252.578 556.781 253.262 556.781H254.451V554.348C254.451 553.596 254.943 553.076 255.641 553.076C256.338 553.076 256.83 553.596 256.83 554.348V556.781H258.662C259.346 556.781 259.729 557.137 259.729 557.752C259.729 558.381 259.346 558.736 258.662 558.736H256.83V567.199C256.83 568.402 257.254 568.977 258.443 569.059L258.648 569.072C259.428 569.127 259.783 569.441 259.783 570.002C259.783 570.727 259.373 571.109 258.047 571.109H257.896C255.6 571.109 254.451 569.988 254.451 567.719ZM267.617 571.246C263.68 571.246 261.027 568.416 261.027 563.891C261.027 559.352 263.68 556.535 267.617 556.535C271.541 556.535 274.193 559.352 274.193 563.891C274.193 568.416 271.541 571.246 267.617 571.246ZM267.617 569.154C270.133 569.154 271.773 567.24 271.773 563.891C271.773 560.541 270.133 558.627 267.617 558.627C265.102 558.627 263.447 560.541 263.447 563.891C263.447 567.24 265.102 569.154 267.617 569.154ZM277.789 571.246C277.092 571.246 276.6 570.727 276.6 569.975V557.738C276.6 557.027 277.064 556.535 277.721 556.535C278.377 556.535 278.842 557.027 278.842 557.738V559.051H278.896C279.689 557.52 281.207 556.535 283.408 556.535C286.525 556.535 288.33 558.545 288.33 561.771V569.975C288.33 570.727 287.838 571.246 287.141 571.246C286.443 571.246 285.951 570.727 285.951 569.975V562.195C285.951 559.898 284.871 558.641 282.684 558.641C280.441 558.641 278.979 560.227 278.979 562.633V569.975C278.979 570.727 278.486 571.246 277.789 571.246Z" fill="black"/>
<defs>
<filter id="filter0_d_225_1667" x="136" y="236" width="436" height="55" filterUnits="userSpaceOnUse" color-interpolation-filters="sRGB">
<feFlood flood-opacity="0" result="BackgroundImageFix"/>
<feColorMatrix in="SourceAlpha" type="matrix" values="0 0 0 0 0 0 0 0 0 0 0 0 0 0 0 0 0 0 127 0" result="hardAlpha"/>
<feOffset dy="4"/>
<feGaussianBlur stdDeviation="2"/>
<feComposite in2="hardAlpha" operator="out"/>
<feColorMatrix type="matrix" values="0 0 0 0 0 0 0 0 0 0 0 0 0 0 0 0 0 0 0.25 0"/>
<feBlend mode="normal" in2="BackgroundImageFix" result="effect1_dropShadow_225_1667"/>
<feBlend mode="normal" in="SourceGraphic" in2="effect1_dropShadow_225_1667" result="shape"/>
</filter>
<filter id="filter1_d_225_1667" x="136" y="313" width="436" height="55" filterUnits="userSpaceOnUse" color-interpolation-filters="sRGB">
<feFlood flood-opacity="0" result="BackgroundImageFix"/>
<feColorMatrix in="SourceAlpha" type="matrix" values="0 0 0 0 0 0 0 0 0 0 0 0 0 0 0 0 0 0 127 0" result="hardAlpha"/>
<feOffset dy="4"/>
<feGaussianBlur stdDeviation="2"/>
<feComposite in2="hardAlpha" operator="out"/>
<feColorMatrix type="matrix" values="0 0 0 0 0 0 0 0 0 0 0 0 0 0 0 0 0 0 0.25 0"/>
<feBlend mode="normal" in2="BackgroundImageFix" result="effect1_dropShadow_225_1667"/>
<feBlend mode="normal" in="SourceGraphic" in2="effect1_dropShadow_225_1667" result="shape"/>
</filter>
<filter id="filter2_d_225_1667" x="131" y="383" width="346" height="65" filterUnits="userSpaceOnUse" color-interpolation-filters="sRGB">
<feFlood flood-opacity="0" result="BackgroundImageFix"/>
<feColorMatrix in="SourceAlpha" type="matrix" values="0 0 0 0 0 0 0 0 0 0 0 0 0 0 0 0 0 0 127 0" result="hardAlpha"/>
<feOffset dy="2"/>
<feGaussianBlur stdDeviation="4.5"/>
<feComposite in2="hardAlpha" operator="out"/>
<feColorMatrix type="matrix" values="0 0 0 0 0 0 0 0 0 0 0 0 0 0 0 0 0 0 0.25 0"/>
<feBlend mode="normal" in2="BackgroundImageFix" result="effect1_dropShadow_225_1667"/>
<feBlend mode="normal" in="SourceGraphic" in2="effect1_dropShadow_225_1667" result="shape"/>
</filter>
<filter id="filter3_d_225_1667" x="136" y="467" width="336" height="55" filterUnits="userSpaceOnUse" color-interpolation-filters="sRGB">
<feFlood flood-opacity="0" result="BackgroundImageFix"/>
<feColorMatrix in="SourceAlpha" type="matrix" values="0 0 0 0 0 0 0 0 0 0 0 0 0 0 0 0 0 0 127 0" result="hardAlpha"/>
<feOffset dy="4"/>
<feGaussianBlur stdDeviation="2"/>
<feComposite in2="hardAlpha" operator="out"/>
<feColorMatrix type="matrix" values="0 0 0 0 0 0 0 0 0 0 0 0 0 0 0 0 0 0 0.25 0"/>
<feBlend mode="normal" in2="BackgroundImageFix" result="effect1_dropShadow_225_1667"/>
<feBlend mode="normal" in="SourceGraphic" in2="effect1_dropShadow_225_1667" result="shape"/>
</filter>
<filter id="filter4_d_225_1667" x="136" y="544" width="229" height="43" filterUnits="userSpaceOnUse" color-interpolation-filters="sRGB">
<feFlood flood-opacity="0" result="BackgroundImageFix"/>
<feColorMatrix in="SourceAlpha" type="matrix" values="0 0 0 0 0 0 0 0 0 0 0 0 0 0 0 0 0 0 127 0" result="hardAlpha"/>
<feOffset dy="4"/>
<feGaussianBlur stdDeviation="2"/>
<feComposite in2="hardAlpha" operator="out"/>
<feColorMatrix type="matrix" values="0 0 0 0 0 0 0 0 0 0 0 0 0 0 0 0 0 0 0.25 0"/>
<feBlend mode="normal" in2="BackgroundImageFix" result="effect1_dropShadow_225_1667"/>
<feBlend mode="normal" in="SourceGraphic" in2="effect1_dropShadow_225_1667" result="shape"/>
</filter>
</defs>
</svg>
