<svg width="836" height="740" viewBox="0 0 836 740" fill="none" xmlns="http://www.w3.org/2000/svg">
<rect width="836" height="740" fill="#F9F9F9"/>
<path d="M143.828 98C142.734 98 142.078 97.3125 142.078 96.1875V77.2656C142.078 76.1406 142.734 75.4531 143.828 75.4531H151.078C155.078 75.4531 157.703 77.6719 157.703 81.0781C157.703 83.4688 155.938 85.6094 153.688 85.9844V86.1094C156.75 86.4531 158.812 88.625 158.812 91.625C158.812 95.5938 155.922 98 151.125 98H143.828ZM145.578 85.0469H149.5C152.531 85.0469 154.203 83.7969 154.203 81.5625C154.203 79.4688 152.766 78.3125 150.234 78.3125H145.578V85.0469ZM145.578 95.1406H150.406C153.562 95.1406 155.234 93.8438 155.234 91.4062C155.234 88.9688 153.516 87.7188 150.203 87.7188H145.578V95.1406ZM167.109 98.2969C163.531 98.2969 161.344 95.9688 161.344 92.2031V83.0625C161.344 81.9375 162.031 81.2656 163.031 81.2656C164.016 81.2656 164.719 81.9375 164.719 83.0625V91.5469C164.719 94.0469 165.906 95.3906 168.234 95.3906C170.672 95.3906 172.141 93.7031 172.141 91.1406V83.0625C172.141 81.9375 172.844 81.2656 173.828 81.2656C174.828 81.2656 175.516 81.9375 175.516 83.0625V96.5781C175.516 97.625 174.875 98.2969 173.906 98.2969C172.938 98.2969 172.281 97.625 172.281 96.5938V95.2188H172.203C171.297 97.1875 169.625 98.2969 167.109 98.2969ZM179.844 94.0625V84.2344H178.656C177.781 84.2344 177.25 83.7344 177.25 82.9062C177.25 82.0625 177.781 81.5625 178.656 81.5625H179.844V79.125C179.844 78.0469 180.516 77.3281 181.547 77.3281C182.562 77.3281 183.234 78.0469 183.234 79.125V81.5625H185.156C186.031 81.5625 186.562 82.0781 186.562 82.9062C186.562 83.7344 186.031 84.2344 185.156 84.2344H183.234V93.3125C183.234 94.625 183.688 95.2188 184.906 95.3125L185.172 95.3281C186.141 95.4219 186.625 95.8125 186.625 96.6094C186.625 97.625 185.844 98.1406 184.188 98.1406H184.016C181.25 98.1406 179.844 96.7812 179.844 94.0625ZM190.125 94.0625V84.2344H188.938C188.062 84.2344 187.531 83.7344 187.531 82.9062C187.531 82.0625 188.062 81.5625 188.938 81.5625H190.125V79.125C190.125 78.0469 190.797 77.3281 191.828 77.3281C192.844 77.3281 193.516 78.0469 193.516 79.125V81.5625H195.438C196.312 81.5625 196.844 82.0781 196.844 82.9062C196.844 83.7344 196.312 84.2344 195.438 84.2344H193.516V93.3125C193.516 94.625 193.969 95.2188 195.188 95.3125L195.453 95.3281C196.422 95.4219 196.906 95.8125 196.906 96.6094C196.906 97.625 196.125 98.1406 194.469 98.1406H194.297C191.531 98.1406 190.125 96.7812 190.125 94.0625ZM206.078 98.3125C201.375 98.3125 198.281 95.0781 198.281 89.7812C198.281 84.5 201.391 81.2656 206.078 81.2656C210.766 81.2656 213.875 84.5 213.875 89.7812C213.875 95.0781 210.781 98.3125 206.078 98.3125ZM206.078 95.5312C208.734 95.5312 210.438 93.4375 210.438 89.7812C210.438 86.1406 208.719 84.0469 206.078 84.0469C203.438 84.0469 201.719 86.1406 201.719 89.7812C201.719 93.4375 203.438 95.5312 206.078 95.5312ZM218.172 98.2969C217.172 98.2969 216.484 97.625 216.484 96.5156V82.9688C216.484 81.9375 217.109 81.2656 218.094 81.2656C219.062 81.2656 219.734 81.9375 219.734 82.9844V84.2812H219.812C220.703 82.4062 222.422 81.2812 224.953 81.2812C228.578 81.2812 230.656 83.5938 230.656 87.3594V96.5156C230.656 97.625 229.953 98.2969 228.953 98.2969C227.969 98.2969 227.266 97.625 227.266 96.5156V88.0156C227.266 85.5469 226.109 84.1875 223.766 84.1875C221.391 84.1875 219.859 85.875 219.859 88.4219V96.5156C219.859 97.625 219.156 98.2969 218.172 98.2969ZM239.984 98.3125C236.75 98.3125 234.375 96.9844 233.594 94.9688C233.484 94.7188 233.453 94.4844 233.453 94.2656C233.453 93.4219 234.062 92.9219 234.906 92.9219C235.469 92.9219 235.953 93.1875 236.375 93.8125C237.219 95.1406 238.203 95.7344 240.156 95.7344C242.078 95.7344 243.375 94.9062 243.375 93.5469C243.375 92.4688 242.734 91.8906 240.969 91.4688L238.375 90.8594C235.188 90.1094 233.625 88.5469 233.625 86.2031C233.625 83.2344 236.203 81.2656 240.109 81.2656C243.078 81.2656 245.516 82.7812 245.984 84.7188C246.016 84.9062 246.047 85.0625 246.047 85.2188C246.047 85.9688 245.578 86.4688 244.734 86.4688C244.188 86.4688 243.703 86.2812 243.375 85.75C242.641 84.5 241.641 83.8438 239.984 83.8438C238.172 83.8438 236.922 84.7344 236.922 86.0156C236.922 87.0469 237.719 87.7656 239.453 88.1719L242 88.7656C245.453 89.5625 246.781 90.7969 246.781 93.2344C246.781 96.2812 244.047 98.3125 239.984 98.3125ZM273.25 98.2969C272.656 98.2969 272.328 98.1406 271.844 97.625L270.219 95.875C268.391 97.4688 265.781 98.3906 263.094 98.3906C258.516 98.3906 255.422 95.8125 255.422 92.0312C255.422 89.4219 256.812 87.4531 259.75 85.875C260.125 85.6875 260.562 85.4375 260.672 85.4062C258.641 83.2656 257.875 81.8438 257.875 80.1875C257.875 77.2812 260.406 75.1094 263.812 75.1094C267.266 75.1094 269.719 77.2188 269.719 80.1875C269.719 82.4844 268.312 84.2188 264.984 85.9844L270.109 91.5C270.734 90.4062 271.172 88.9219 271.172 86.5312C271.188 85.5312 271.688 84.9062 272.641 84.9062C273.594 84.9062 274.109 85.5625 274.109 86.5312C274.109 89.5312 273.5 91.8906 272.234 93.7344L274.078 95.6562C274.531 96.1406 274.672 96.4219 274.672 96.9219C274.672 97.7031 274.078 98.2969 273.25 98.2969ZM263.266 84.2188C265.734 82.9531 266.672 81.875 266.672 80.3594C266.672 78.7344 265.531 77.6094 263.828 77.6094C262.172 77.6094 260.984 78.7656 260.984 80.375C260.984 81.5469 261.594 82.5625 263.266 84.2188ZM263.422 95.6875C265.297 95.6875 267.219 94.9531 268.297 93.7969L262.375 87.3281C262.188 87.4219 261.812 87.625 261.672 87.7031C259.578 89 258.734 90.1719 258.734 91.7812C258.734 94.125 260.625 95.6875 263.422 95.6875ZM286.328 98C285.234 98 284.578 97.3125 284.578 96.1875V77.2656C284.578 76.1406 285.234 75.4531 286.328 75.4531H297.516C298.484 75.4531 299.141 76.0469 299.141 76.9688C299.141 77.8906 298.484 78.4844 297.516 78.4844H288.078V85.0625H297C297.922 85.0625 298.562 85.625 298.562 86.5156C298.562 87.3906 297.938 87.9688 297 87.9688H288.078V94.9688H297.516C298.484 94.9688 299.141 95.5625 299.141 96.4844C299.141 97.4062 298.484 98 297.516 98H286.328ZM303.891 98.2969C302.906 98.2969 302.203 97.625 302.203 96.5156V76.9375C302.203 75.8281 302.906 75.1562 303.891 75.1562C304.875 75.1562 305.578 75.8281 305.578 76.9375V96.5156C305.578 97.625 304.875 98.2969 303.891 98.2969ZM316.172 98.3125C311.219 98.3125 308.312 95.1719 308.312 89.8594C308.312 84.6406 311.281 81.2656 315.938 81.2656C320.312 81.2656 323.328 84.4219 323.328 88.9062C323.328 90 322.703 90.625 321.656 90.625H311.719V90.7031C311.719 93.7031 313.406 95.5781 316.094 95.5781C317.938 95.5781 319.094 94.9375 320.344 93.2344C320.703 92.8125 321.047 92.6406 321.531 92.6406C322.344 92.6406 322.938 93.1719 322.938 94.0156C322.938 94.2812 322.844 94.5938 322.703 94.9219C321.625 97.0781 319.234 98.3125 316.172 98.3125ZM311.734 88.2656H319.953C319.875 85.6875 318.266 83.9844 315.922 83.9844C313.594 83.9844 311.906 85.7031 311.734 88.2656ZM327.641 98.2969C326.625 98.2969 325.953 97.5938 325.953 96.5156V82.9844C325.953 81.9219 326.609 81.2656 327.562 81.2656C328.5 81.2656 329.172 81.9062 329.172 82.9844V84.3281H329.25C329.984 82.5 331.703 81.2812 333.922 81.2812C336.203 81.2812 337.859 82.4531 338.516 84.5H338.594C339.438 82.5 341.375 81.2812 343.719 81.2812C346.969 81.2812 349.094 83.4375 349.094 86.7031V96.5156C349.094 97.5938 348.406 98.2969 347.391 98.2969C346.375 98.2969 345.703 97.5938 345.703 96.5156V87.5156C345.703 85.3906 344.562 84.1719 342.562 84.1719C340.562 84.1719 339.172 85.6562 339.172 87.7344V96.5156C339.172 97.5938 338.531 98.2969 337.516 98.2969C336.5 98.2969 335.859 97.5938 335.859 96.5156V87.2656C335.859 85.375 334.656 84.1719 332.75 84.1719C330.75 84.1719 329.328 85.7344 329.328 87.8438V96.5156C329.328 97.5938 328.656 98.2969 327.641 98.2969ZM359.484 98.3125C354.531 98.3125 351.625 95.1719 351.625 89.8594C351.625 84.6406 354.594 81.2656 359.25 81.2656C363.625 81.2656 366.641 84.4219 366.641 88.9062C366.641 90 366.016 90.625 364.969 90.625H355.031V90.7031C355.031 93.7031 356.719 95.5781 359.406 95.5781C361.25 95.5781 362.406 94.9375 363.656 93.2344C364.016 92.8125 364.359 92.6406 364.844 92.6406C365.656 92.6406 366.25 93.1719 366.25 94.0156C366.25 94.2812 366.156 94.5938 366.016 94.9219C364.938 97.0781 362.547 98.3125 359.484 98.3125ZM355.047 88.2656H363.266C363.188 85.6875 361.578 83.9844 359.234 83.9844C356.906 83.9844 355.219 85.7031 355.047 88.2656ZM370.953 98.2969C369.953 98.2969 369.266 97.625 369.266 96.5156V82.9688C369.266 81.9375 369.891 81.2656 370.875 81.2656C371.844 81.2656 372.516 81.9375 372.516 82.9844V84.2812H372.594C373.484 82.4062 375.203 81.2812 377.734 81.2812C381.359 81.2812 383.438 83.5938 383.438 87.3594V96.5156C383.438 97.625 382.734 98.2969 381.734 98.2969C380.75 98.2969 380.047 97.625 380.047 96.5156V88.0156C380.047 85.5469 378.891 84.1875 376.547 84.1875C374.172 84.1875 372.641 85.875 372.641 88.4219V96.5156C372.641 97.625 371.938 98.2969 370.953 98.2969ZM387.688 94.0625V84.2344H386.5C385.625 84.2344 385.094 83.7344 385.094 82.9062C385.094 82.0625 385.625 81.5625 386.5 81.5625H387.688V79.125C387.688 78.0469 388.359 77.3281 389.391 77.3281C390.406 77.3281 391.078 78.0469 391.078 79.125V81.5625H393C393.875 81.5625 394.406 82.0781 394.406 82.9062C394.406 83.7344 393.875 84.2344 393 84.2344H391.078V93.3125C391.078 94.625 391.531 95.2188 392.75 95.3125L393.016 95.3281C393.984 95.4219 394.469 95.8125 394.469 96.6094C394.469 97.625 393.688 98.1406 392.031 98.1406H391.859C389.094 98.1406 387.688 96.7812 387.688 94.0625ZM403.047 98.3125C399.812 98.3125 397.438 96.9844 396.656 94.9688C396.547 94.7188 396.516 94.4844 396.516 94.2656C396.516 93.4219 397.125 92.9219 397.969 92.9219C398.531 92.9219 399.016 93.1875 399.438 93.8125C400.281 95.1406 401.266 95.7344 403.219 95.7344C405.141 95.7344 406.438 94.9062 406.438 93.5469C406.438 92.4688 405.797 91.8906 404.031 91.4688L401.438 90.8594C398.25 90.1094 396.688 88.5469 396.688 86.2031C396.688 83.2344 399.266 81.2656 403.172 81.2656C406.141 81.2656 408.578 82.7812 409.047 84.7188C409.078 84.9062 409.109 85.0625 409.109 85.2188C409.109 85.9688 408.641 86.4688 407.797 86.4688C407.25 86.4688 406.766 86.2812 406.438 85.75C405.703 84.5 404.703 83.8438 403.047 83.8438C401.234 83.8438 399.984 84.7344 399.984 86.0156C399.984 87.0469 400.781 87.7656 402.516 88.1719L405.062 88.7656C408.516 89.5625 409.844 90.7969 409.844 93.2344C409.844 96.2812 407.109 98.3125 403.047 98.3125Z" fill="black"/>
<g filter="url(#filter0_d_225_1666)">
<path d="M140 158C140 149.716 146.716 143 155 143H453C461.284 143 468 149.716 468 158V398C468 406.284 461.284 413 453 413H155C146.716 413 140 406.284 140 398V158Z" fill="url(#paint0_linear_225_1666)" shape-rendering="crispEdges"/>
<path d="M140 158C140 149.716 146.716 143 155 143H453C461.284 143 468 149.716 468 158V398C468 406.284 461.284 413 453 413H155C146.716 413 140 406.284 140 398V158Z" stroke="#272827" shape-rendering="crispEdges"/>
</g>
<path d="M238.145 287.191C237.393 287.191 236.914 286.699 236.914 285.92V268.352C236.914 267.572 237.393 267.08 238.145 267.08C238.896 267.08 239.375 267.572 239.375 268.352V275.803H250.203V268.352C250.203 267.572 250.682 267.08 251.434 267.08C252.186 267.08 252.664 267.572 252.664 268.352V285.92C252.664 286.699 252.186 287.191 251.434 287.191C250.682 287.191 250.203 286.699 250.203 285.92V278.018H239.375V285.92C239.375 286.699 238.896 287.191 238.145 287.191ZM262.016 287.246C258.078 287.246 255.426 284.416 255.426 279.891C255.426 275.352 258.078 272.535 262.016 272.535C265.939 272.535 268.592 275.352 268.592 279.891C268.592 284.416 265.939 287.246 262.016 287.246ZM262.016 285.154C264.531 285.154 266.172 283.24 266.172 279.891C266.172 276.541 264.531 274.627 262.016 274.627C259.5 274.627 257.846 276.541 257.846 279.891C257.846 283.24 259.5 285.154 262.016 285.154ZM272.188 287.246C271.463 287.246 270.998 286.699 270.998 285.975V273.738C270.998 273.027 271.463 272.535 272.119 272.535C272.775 272.535 273.24 273.027 273.24 273.738V275.051H273.295C273.965 273.547 275.414 272.535 277.328 272.535C279.27 272.535 280.705 273.52 281.32 275.242H281.375C282.168 273.547 283.836 272.535 285.832 272.535C288.648 272.535 290.467 274.367 290.467 277.184V285.975C290.467 286.699 290.002 287.246 289.277 287.246C288.553 287.246 288.088 286.699 288.088 285.975V277.73C288.088 275.789 287.008 274.641 285.135 274.641C283.248 274.641 281.922 276.035 281.922 277.963V285.975C281.922 286.699 281.457 287.246 280.732 287.246C280.008 287.246 279.543 286.699 279.543 285.975V277.471C279.543 275.762 278.395 274.641 276.631 274.641C274.744 274.641 273.377 276.117 273.377 278.086V285.975C273.377 286.699 272.912 287.246 272.188 287.246ZM299.463 287.246C295.266 287.246 292.805 284.539 292.805 279.945C292.805 275.461 295.334 272.535 299.258 272.535C302.895 272.535 305.451 275.256 305.451 279.152C305.451 280.014 304.959 280.533 304.139 280.533H295.252C295.252 283.404 296.824 285.182 299.367 285.182C301.062 285.182 302.102 284.58 303.209 282.967C303.455 282.625 303.729 282.488 304.098 282.488C304.727 282.488 305.15 282.898 305.15 283.527C305.15 283.719 305.082 283.965 304.973 284.225C304.057 286.152 302.061 287.246 299.463 287.246ZM295.266 278.674H302.99C302.936 276.213 301.418 274.6 299.217 274.6C297.002 274.6 295.416 276.227 295.266 278.674ZM315.199 287C314.447 287 313.969 286.508 313.969 285.729V268.352C313.969 267.572 314.447 267.08 315.199 267.08C315.951 267.08 316.43 267.572 316.43 268.352V284.785H324.975C325.672 284.785 326.15 285.236 326.15 285.893C326.15 286.549 325.672 287 324.975 287H315.199ZM333.766 287.246C329.828 287.246 327.176 284.416 327.176 279.891C327.176 275.352 329.828 272.535 333.766 272.535C337.689 272.535 340.342 275.352 340.342 279.891C340.342 284.416 337.689 287.246 333.766 287.246ZM333.766 285.154C336.281 285.154 337.922 283.24 337.922 279.891C337.922 276.541 336.281 274.627 333.766 274.627C331.25 274.627 329.596 276.541 329.596 279.891C329.596 283.24 331.25 285.154 333.766 285.154ZM348.49 292.359C346.111 292.332 344.129 291.389 343.131 289.816C342.939 289.516 342.857 289.242 342.857 288.928C342.857 288.326 343.295 287.902 343.924 287.902C344.32 287.902 344.553 288.039 344.922 288.449C346.139 289.789 347.137 290.309 348.586 290.336C351.129 290.377 352.674 288.914 352.674 286.795V284.553H352.619C351.744 286.098 350.049 287.109 348.053 287.109C344.43 287.109 342.051 284.252 342.051 279.836C342.051 275.379 344.43 272.535 348.107 272.535C350.117 272.535 351.689 273.52 352.633 275.119H352.674V273.766C352.674 273.027 353.18 272.535 353.863 272.535C354.547 272.535 355.053 273.027 355.053 273.766V286.713C355.053 290.104 352.537 292.4 348.49 292.359ZM348.531 285.018C351.006 285.018 352.674 282.967 352.674 279.836C352.674 276.705 351.006 274.627 348.531 274.627C346.084 274.627 344.484 276.65 344.484 279.836C344.484 283.021 346.084 285.018 348.531 285.018ZM364.035 287.246C360.098 287.246 357.445 284.416 357.445 279.891C357.445 275.352 360.098 272.535 364.035 272.535C367.959 272.535 370.611 275.352 370.611 279.891C370.611 284.416 367.959 287.246 364.035 287.246ZM364.035 285.154C366.551 285.154 368.191 283.24 368.191 279.891C368.191 276.541 366.551 274.627 364.035 274.627C361.52 274.627 359.865 276.541 359.865 279.891C359.865 283.24 361.52 285.154 364.035 285.154Z" fill="white"/>
<g filter="url(#filter1_d_225_1666)">
<rect x="140" y="443" width="400" height="70" rx="15" fill="white"/>
<rect x="140.5" y="443.5" width="399" height="69" rx="14.5" stroke="#486247"/>
</g>
<path d="M269.381 487.328C265.676 487.328 263.037 485.66 262.299 483.281C262.217 483.008 262.162 482.707 262.162 482.42C262.162 481.641 262.6 481.148 263.297 481.148C263.912 481.148 264.295 481.463 264.486 482.119C265.088 484.156 267.029 485.113 269.518 485.113C272.197 485.113 274.139 483.705 274.139 481.764C274.139 480.109 273.045 479.016 270.311 478.414L268.123 477.936C264.172 477.074 262.463 475.283 262.463 472.48C262.463 469.227 265.334 466.943 269.422 466.943C272.717 466.943 275.369 468.598 276.08 471.264C276.121 471.414 276.148 471.619 276.148 471.879C276.148 472.549 275.684 472.986 275.027 472.986C274.398 472.986 274.016 472.658 273.797 472.029C273.113 470.033 271.486 469.158 269.354 469.158C266.893 469.158 264.992 470.361 264.992 472.371C264.992 473.93 266.045 474.996 268.738 475.584L270.926 476.062C275.041 476.965 276.668 478.605 276.668 481.395C276.668 485.045 273.797 487.328 269.381 487.328ZM285.131 487.246C280.934 487.246 278.473 484.539 278.473 479.945C278.473 475.461 281.002 472.535 284.926 472.535C288.562 472.535 291.119 475.256 291.119 479.152C291.119 480.014 290.627 480.533 289.807 480.533H280.92C280.92 483.404 282.492 485.182 285.035 485.182C286.73 485.182 287.77 484.58 288.877 482.967C289.123 482.625 289.396 482.488 289.766 482.488C290.395 482.488 290.818 482.898 290.818 483.527C290.818 483.719 290.75 483.965 290.641 484.225C289.725 486.152 287.729 487.246 285.131 487.246ZM280.934 478.674H288.658C288.604 476.213 287.086 474.6 284.885 474.6C282.67 474.6 281.084 476.227 280.934 478.674ZM294.838 487.246C294.141 487.246 293.648 486.727 293.648 485.975V468.297C293.648 467.545 294.141 467.025 294.838 467.025C295.535 467.025 296.027 467.545 296.027 468.297V485.975C296.027 486.727 295.535 487.246 294.838 487.246ZM305.201 487.246C301.004 487.246 298.543 484.539 298.543 479.945C298.543 475.461 301.072 472.535 304.996 472.535C308.633 472.535 311.189 475.256 311.189 479.152C311.189 480.014 310.697 480.533 309.877 480.533H300.99C300.99 483.404 302.562 485.182 305.105 485.182C306.801 485.182 307.84 484.58 308.947 482.967C309.193 482.625 309.467 482.488 309.836 482.488C310.465 482.488 310.889 482.898 310.889 483.527C310.889 483.719 310.82 483.965 310.711 484.225C309.795 486.152 307.799 487.246 305.201 487.246ZM301.004 478.674H308.729C308.674 476.213 307.156 474.6 304.955 474.6C302.74 474.6 301.154 476.227 301.004 478.674ZM319.461 487.246C315.523 487.246 312.898 484.416 312.898 479.918C312.898 475.447 315.496 472.535 319.434 472.535C322.113 472.535 324.451 474.053 324.998 476.021C325.053 476.199 325.08 476.377 325.08 476.527C325.08 477.156 324.684 477.566 324.068 477.566C323.549 477.566 323.262 477.348 322.934 476.732C322.182 475.324 321.102 474.627 319.461 474.627C316.986 474.627 315.318 476.705 315.318 479.891C315.318 483.158 317.014 485.154 319.461 485.154C321.17 485.154 322.209 484.416 322.947 483.049C323.289 482.406 323.549 482.215 324.068 482.215C324.684 482.215 325.094 482.639 325.094 483.254C325.094 483.432 325.053 483.637 324.984 483.855C324.301 485.824 322.045 487.246 319.461 487.246ZM328.389 483.719V474.736H327.199C326.516 474.736 326.133 474.381 326.133 473.752C326.133 473.137 326.516 472.781 327.199 472.781H328.389V470.348C328.389 469.596 328.881 469.076 329.578 469.076C330.275 469.076 330.768 469.596 330.768 470.348V472.781H332.6C333.283 472.781 333.666 473.137 333.666 473.752C333.666 474.381 333.283 474.736 332.6 474.736H330.768V483.199C330.768 484.402 331.191 484.977 332.381 485.059L332.586 485.072C333.365 485.127 333.721 485.441 333.721 486.002C333.721 486.727 333.311 487.109 331.984 487.109H331.834C329.537 487.109 328.389 485.988 328.389 483.719ZM343.414 487C342.662 487 342.184 486.508 342.184 485.729V468.543C342.184 467.764 342.662 467.271 343.414 467.271H349.662C353.039 467.271 355.322 469.24 355.322 472.193C355.322 474.244 353.818 476.158 351.918 476.5V476.609C354.598 476.951 356.32 478.838 356.32 481.463C356.32 484.936 353.832 487 349.635 487H343.414ZM344.645 475.775H348.336C351.248 475.775 352.834 474.613 352.834 472.48C352.834 470.525 351.494 469.445 349.102 469.445H344.645V475.775ZM344.645 484.826H349.266C352.232 484.826 353.791 483.623 353.791 481.34C353.791 479.057 352.178 477.895 349.033 477.895H344.645V484.826ZM363.594 487.246C360.49 487.246 358.672 485.236 358.672 482.01V473.807C358.672 473.055 359.164 472.535 359.861 472.535C360.559 472.535 361.051 473.055 361.051 473.807V481.586C361.051 483.896 362.131 485.141 364.332 485.141C366.643 485.141 368.037 483.555 368.037 481.135V473.807C368.037 473.055 368.529 472.535 369.227 472.535C369.924 472.535 370.416 473.055 370.416 473.807V486.043C370.416 486.727 369.979 487.246 369.295 487.246C368.611 487.246 368.16 486.727 368.16 486.043V484.689H368.105C367.258 486.33 365.781 487.246 363.594 487.246ZM374.271 483.719V474.736H373.082C372.398 474.736 372.016 474.381 372.016 473.752C372.016 473.137 372.398 472.781 373.082 472.781H374.271V470.348C374.271 469.596 374.764 469.076 375.461 469.076C376.158 469.076 376.65 469.596 376.65 470.348V472.781H378.482C379.166 472.781 379.549 473.137 379.549 473.752C379.549 474.381 379.166 474.736 378.482 474.736H376.65V483.199C376.65 484.402 377.074 484.977 378.264 485.059L378.469 485.072C379.248 485.127 379.604 485.441 379.604 486.002C379.604 486.727 379.193 487.109 377.867 487.109H377.717C375.42 487.109 374.271 485.988 374.271 483.719ZM382.721 483.719V474.736H381.531C380.848 474.736 380.465 474.381 380.465 473.752C380.465 473.137 380.848 472.781 381.531 472.781H382.721V470.348C382.721 469.596 383.213 469.076 383.91 469.076C384.607 469.076 385.1 469.596 385.1 470.348V472.781H386.932C387.615 472.781 387.998 473.137 387.998 473.752C387.998 474.381 387.615 474.736 386.932 474.736H385.1V483.199C385.1 484.402 385.523 484.977 386.713 485.059L386.918 485.072C387.697 485.127 388.053 485.441 388.053 486.002C388.053 486.727 387.643 487.109 386.316 487.109H386.166C383.869 487.109 382.721 485.988 382.721 483.719ZM395.887 487.246C391.949 487.246 389.297 484.416 389.297 479.891C389.297 475.352 391.949 472.535 395.887 472.535C399.811 472.535 402.463 475.352 402.463 479.891C402.463 484.416 399.811 487.246 395.887 487.246ZM395.887 485.154C398.402 485.154 400.043 483.24 400.043 479.891C400.043 476.541 398.402 474.627 395.887 474.627C393.371 474.627 391.717 476.541 391.717 479.891C391.717 483.24 393.371 485.154 395.887 485.154ZM406.059 487.246C405.361 487.246 404.869 486.727 404.869 485.975V473.738C404.869 473.027 405.334 472.535 405.99 472.535C406.646 472.535 407.111 473.027 407.111 473.738V475.051H407.166C407.959 473.52 409.477 472.535 411.678 472.535C414.795 472.535 416.6 474.545 416.6 477.771V485.975C416.6 486.727 416.107 487.246 415.41 487.246C414.713 487.246 414.221 486.727 414.221 485.975V478.195C414.221 475.898 413.141 474.641 410.953 474.641C408.711 474.641 407.248 476.227 407.248 478.633V485.975C407.248 486.727 406.756 487.246 406.059 487.246Z" fill="black"/>
<g filter="url(#filter2_d_225_1666)">
<rect x="140" y="611" width="328" height="53" rx="15" fill="#FFFFFE"/>
<rect x="140.5" y="611.5" width="327" height="52" rx="14.5" stroke="#486247"/>
</g>
<path d="M268.145 647C267.393 647 266.914 646.508 266.914 645.729V628.543C266.914 627.764 267.393 627.271 268.145 627.271H274.393C277.77 627.271 280.053 629.24 280.053 632.193C280.053 634.244 278.549 636.158 276.648 636.5V636.609C279.328 636.951 281.051 638.838 281.051 641.463C281.051 644.936 278.562 647 274.365 647H268.145ZM269.375 635.775H273.066C275.979 635.775 277.564 634.613 277.564 632.48C277.564 630.525 276.225 629.445 273.832 629.445H269.375V635.775ZM269.375 644.826H273.996C276.963 644.826 278.521 643.623 278.521 641.34C278.521 639.057 276.908 637.895 273.764 637.895H269.375V644.826ZM288.324 647.246C285.221 647.246 283.402 645.236 283.402 642.01V633.807C283.402 633.055 283.895 632.535 284.592 632.535C285.289 632.535 285.781 633.055 285.781 633.807V641.586C285.781 643.896 286.861 645.141 289.062 645.141C291.373 645.141 292.768 643.555 292.768 641.135V633.807C292.768 633.055 293.26 632.535 293.957 632.535C294.654 632.535 295.146 633.055 295.146 633.807V646.043C295.146 646.727 294.709 647.246 294.025 647.246C293.342 647.246 292.891 646.727 292.891 646.043V644.689H292.836C291.988 646.33 290.512 647.246 288.324 647.246ZM299.002 643.719V634.736H297.812C297.129 634.736 296.746 634.381 296.746 633.752C296.746 633.137 297.129 632.781 297.812 632.781H299.002V630.348C299.002 629.596 299.494 629.076 300.191 629.076C300.889 629.076 301.381 629.596 301.381 630.348V632.781H303.213C303.896 632.781 304.279 633.137 304.279 633.752C304.279 634.381 303.896 634.736 303.213 634.736H301.381V643.199C301.381 644.402 301.805 644.977 302.994 645.059L303.199 645.072C303.979 645.127 304.334 645.441 304.334 646.002C304.334 646.727 303.924 647.109 302.598 647.109H302.447C300.15 647.109 299.002 645.988 299.002 643.719ZM307.451 643.719V634.736H306.262C305.578 634.736 305.195 634.381 305.195 633.752C305.195 633.137 305.578 632.781 306.262 632.781H307.451V630.348C307.451 629.596 307.943 629.076 308.641 629.076C309.338 629.076 309.83 629.596 309.83 630.348V632.781H311.662C312.346 632.781 312.729 633.137 312.729 633.752C312.729 634.381 312.346 634.736 311.662 634.736H309.83V643.199C309.83 644.402 310.254 644.977 311.443 645.059L311.648 645.072C312.428 645.127 312.783 645.441 312.783 646.002C312.783 646.727 312.373 647.109 311.047 647.109H310.896C308.6 647.109 307.451 645.988 307.451 643.719ZM320.617 647.246C316.68 647.246 314.027 644.416 314.027 639.891C314.027 635.352 316.68 632.535 320.617 632.535C324.541 632.535 327.193 635.352 327.193 639.891C327.193 644.416 324.541 647.246 320.617 647.246ZM320.617 645.154C323.133 645.154 324.773 643.24 324.773 639.891C324.773 636.541 323.133 634.627 320.617 634.627C318.102 634.627 316.447 636.541 316.447 639.891C316.447 643.24 318.102 645.154 320.617 645.154ZM330.789 647.246C330.092 647.246 329.6 646.727 329.6 645.975V633.738C329.6 633.027 330.064 632.535 330.721 632.535C331.377 632.535 331.842 633.027 331.842 633.738V635.051H331.896C332.689 633.52 334.207 632.535 336.408 632.535C339.525 632.535 341.33 634.545 341.33 637.771V645.975C341.33 646.727 340.838 647.246 340.141 647.246C339.443 647.246 338.951 646.727 338.951 645.975V638.195C338.951 635.898 337.871 634.641 335.684 634.641C333.441 634.641 331.979 636.227 331.979 638.633V645.975C331.979 646.727 331.486 647.246 330.789 647.246Z" fill="black"/>
<g filter="url(#filter3_d_225_1666)">
<path d="M506 284C506 275.716 512.716 269 521 269H690C698.284 269 705 275.716 705 284V301C705 309.284 698.284 316 690 316H521C512.716 316 506 309.284 506 301V284Z" fill="#FFFFFE"/>
<path d="M506.5 284C506.5 275.992 512.992 269.5 521 269.5H690C698.008 269.5 704.5 275.992 704.5 284V301C704.5 309.008 698.008 315.5 690 315.5H521C512.992 315.5 506.5 309.008 506.5 301V284Z" stroke="#486247"/>
</g>
<path d="M569.145 302C568.393 302 567.914 301.508 567.914 300.729V283.543C567.914 282.764 568.393 282.271 569.145 282.271H575.393C578.77 282.271 581.053 284.24 581.053 287.193C581.053 289.244 579.549 291.158 577.648 291.5V291.609C580.328 291.951 582.051 293.838 582.051 296.463C582.051 299.936 579.562 302 575.365 302H569.145ZM570.375 290.775H574.066C576.979 290.775 578.564 289.613 578.564 287.48C578.564 285.525 577.225 284.445 574.832 284.445H570.375V290.775ZM570.375 299.826H574.996C577.963 299.826 579.521 298.623 579.521 296.34C579.521 294.057 577.908 292.895 574.764 292.895H570.375V299.826ZM589.324 302.246C586.221 302.246 584.402 300.236 584.402 297.01V288.807C584.402 288.055 584.895 287.535 585.592 287.535C586.289 287.535 586.781 288.055 586.781 288.807V296.586C586.781 298.896 587.861 300.141 590.062 300.141C592.373 300.141 593.768 298.555 593.768 296.135V288.807C593.768 288.055 594.26 287.535 594.957 287.535C595.654 287.535 596.146 288.055 596.146 288.807V301.043C596.146 301.727 595.709 302.246 595.025 302.246C594.342 302.246 593.891 301.727 593.891 301.043V299.689H593.836C592.988 301.33 591.512 302.246 589.324 302.246ZM600.002 298.719V289.736H598.812C598.129 289.736 597.746 289.381 597.746 288.752C597.746 288.137 598.129 287.781 598.812 287.781H600.002V285.348C600.002 284.596 600.494 284.076 601.191 284.076C601.889 284.076 602.381 284.596 602.381 285.348V287.781H604.213C604.896 287.781 605.279 288.137 605.279 288.752C605.279 289.381 604.896 289.736 604.213 289.736H602.381V298.199C602.381 299.402 602.805 299.977 603.994 300.059L604.199 300.072C604.979 300.127 605.334 300.441 605.334 301.002C605.334 301.727 604.924 302.109 603.598 302.109H603.447C601.15 302.109 600.002 300.988 600.002 298.719ZM608.451 298.719V289.736H607.262C606.578 289.736 606.195 289.381 606.195 288.752C606.195 288.137 606.578 287.781 607.262 287.781H608.451V285.348C608.451 284.596 608.943 284.076 609.641 284.076C610.338 284.076 610.83 284.596 610.83 285.348V287.781H612.662C613.346 287.781 613.729 288.137 613.729 288.752C613.729 289.381 613.346 289.736 612.662 289.736H610.83V298.199C610.83 299.402 611.254 299.977 612.443 300.059L612.648 300.072C613.428 300.127 613.783 300.441 613.783 301.002C613.783 301.727 613.373 302.109 612.047 302.109H611.896C609.6 302.109 608.451 300.988 608.451 298.719ZM621.617 302.246C617.68 302.246 615.027 299.416 615.027 294.891C615.027 290.352 617.68 287.535 621.617 287.535C625.541 287.535 628.193 290.352 628.193 294.891C628.193 299.416 625.541 302.246 621.617 302.246ZM621.617 300.154C624.133 300.154 625.773 298.24 625.773 294.891C625.773 291.541 624.133 289.627 621.617 289.627C619.102 289.627 617.447 291.541 617.447 294.891C617.447 298.24 619.102 300.154 621.617 300.154ZM631.789 302.246C631.092 302.246 630.6 301.727 630.6 300.975V288.738C630.6 288.027 631.064 287.535 631.721 287.535C632.377 287.535 632.842 288.027 632.842 288.738V290.051H632.896C633.689 288.52 635.207 287.535 637.408 287.535C640.525 287.535 642.33 289.545 642.33 292.771V300.975C642.33 301.727 641.838 302.246 641.141 302.246C640.443 302.246 639.951 301.727 639.951 300.975V293.195C639.951 290.898 638.871 289.641 636.684 289.641C634.441 289.641 632.979 291.227 632.979 293.633V300.975C632.979 301.727 632.486 302.246 631.789 302.246Z" fill="black"/>
<g filter="url(#filter4_d_225_1666)">
<rect x="140" y="543" width="400" height="38" rx="15" fill="white"/>
<rect x="140.5" y="543.5" width="399" height="37" rx="14.5" stroke="#D9D9D9"/>
</g>
<path d="M296.131 571.191C295.379 571.191 294.914 570.699 294.914 569.92V552.516C294.914 551.654 295.475 551.08 296.322 551.08C296.979 551.08 297.307 551.271 297.744 551.9L308.107 566.762H308.23V552.352C308.23 551.572 308.695 551.08 309.447 551.08C310.199 551.08 310.664 551.572 310.664 552.352V569.852C310.664 570.686 310.145 571.191 309.27 571.191C308.6 571.191 308.285 571.014 307.848 570.385L297.471 555.564H297.348V569.92C297.348 570.699 296.883 571.191 296.131 571.191ZM317.855 571.246C315.025 571.246 313.125 569.537 313.125 566.98C313.125 564.547 314.998 563.016 318.279 562.824L322.367 562.592V561.402C322.367 559.666 321.219 558.627 319.25 558.627C317.705 558.627 316.652 559.188 315.859 560.596C315.641 560.992 315.326 561.17 314.875 561.17C314.26 561.17 313.822 560.746 313.822 560.104C313.822 559.803 313.918 559.461 314.109 559.119C314.916 557.561 316.994 556.535 319.305 556.535C322.641 556.535 324.746 558.34 324.746 561.17V570.043C324.746 570.754 324.281 571.246 323.625 571.246C322.955 571.246 322.49 570.754 322.49 570.043V568.553H322.436C321.588 570.18 319.77 571.246 317.855 571.246ZM318.389 569.223C320.631 569.223 322.367 567.65 322.367 565.6V564.438L318.553 564.67C316.639 564.793 315.545 565.641 315.545 566.98C315.545 568.334 316.68 569.223 318.389 569.223ZM332.977 571.246C332.197 571.246 331.76 570.904 331.418 570.043L326.893 558.244C326.811 558.039 326.77 557.834 326.77 557.629C326.77 556.973 327.248 556.535 327.959 556.535C328.492 556.535 328.848 556.822 329.066 557.438L332.963 568.471H333.018L336.928 557.438C337.146 556.822 337.502 556.535 338.021 556.535C338.732 556.535 339.197 556.973 339.197 557.629C339.197 557.834 339.156 558.039 339.074 558.244L334.562 570.043C334.248 570.863 333.742 571.246 332.977 571.246ZM348.645 571C347.893 571 347.414 570.508 347.414 569.729V552.543C347.414 551.764 347.893 551.271 348.645 551.271H354.893C358.27 551.271 360.553 553.24 360.553 556.193C360.553 558.244 359.049 560.158 357.148 560.5V560.609C359.828 560.951 361.551 562.838 361.551 565.463C361.551 568.936 359.062 571 354.865 571H348.645ZM349.875 559.775H353.566C356.479 559.775 358.064 558.613 358.064 556.48C358.064 554.525 356.725 553.445 354.332 553.445H349.875V559.775ZM349.875 568.826H354.496C357.463 568.826 359.021 567.623 359.021 565.34C359.021 563.057 357.408 561.895 354.264 561.895H349.875V568.826ZM368.113 571.246C365.283 571.246 363.383 569.537 363.383 566.98C363.383 564.547 365.256 563.016 368.537 562.824L372.625 562.592V561.402C372.625 559.666 371.477 558.627 369.508 558.627C367.963 558.627 366.91 559.188 366.117 560.596C365.898 560.992 365.584 561.17 365.133 561.17C364.518 561.17 364.08 560.746 364.08 560.104C364.08 559.803 364.176 559.461 364.367 559.119C365.174 557.561 367.252 556.535 369.562 556.535C372.898 556.535 375.004 558.34 375.004 561.17V570.043C375.004 570.754 374.539 571.246 373.883 571.246C373.213 571.246 372.748 570.754 372.748 570.043V568.553H372.693C371.846 570.18 370.027 571.246 368.113 571.246ZM368.646 569.223C370.889 569.223 372.625 567.65 372.625 565.6V564.438L368.811 564.67C366.896 564.793 365.803 565.641 365.803 566.98C365.803 568.334 366.938 569.223 368.646 569.223ZM379.215 571.246C378.518 571.246 378.025 570.727 378.025 569.975V557.738C378.025 557.027 378.49 556.535 379.146 556.535C379.803 556.535 380.268 557.027 380.268 557.738V559.105H380.322C380.732 557.629 382.127 556.535 383.549 556.535C384.068 556.535 384.438 556.658 384.67 556.877C384.875 557.068 384.971 557.342 384.971 557.67C384.971 558.039 384.848 558.312 384.602 558.504C384.355 558.709 383.986 558.805 383.467 558.805C381.32 558.805 380.404 560.35 380.404 562.168V569.975C380.404 570.727 379.912 571.246 379.215 571.246Z" fill="black"/>
<g filter="url(#filter5_d_225_1666)">
<rect x="506" y="143" width="108" height="96" rx="15" fill="#B3BDB3"/>
<rect x="506.5" y="143.5" width="107" height="95" rx="14.5" stroke="#486247"/>
</g>
<path d="M526.145 200.191C525.393 200.191 524.914 199.699 524.914 198.92V181.543C524.914 180.764 525.393 180.271 526.145 180.271H531.955C535.66 180.271 538.271 182.869 538.271 186.602C538.271 190.348 535.633 192.959 531.928 192.959H527.375V198.92C527.375 199.699 526.896 200.191 526.145 200.191ZM527.375 190.771H531.312C534.129 190.771 535.742 189.227 535.742 186.602C535.742 183.99 534.143 182.459 531.312 182.459H527.375V190.771ZM541.922 200.246C541.225 200.246 540.732 199.727 540.732 198.975V186.738C540.732 186.027 541.197 185.535 541.854 185.535C542.51 185.535 542.975 186.027 542.975 186.738V188.105H543.029C543.439 186.629 544.834 185.535 546.256 185.535C546.775 185.535 547.145 185.658 547.377 185.877C547.582 186.068 547.678 186.342 547.678 186.67C547.678 187.039 547.555 187.312 547.309 187.504C547.062 187.709 546.693 187.805 546.174 187.805C544.027 187.805 543.111 189.35 543.111 191.168V198.975C543.111 199.727 542.619 200.246 541.922 200.246ZM554.582 200.246C550.645 200.246 547.992 197.416 547.992 192.891C547.992 188.352 550.645 185.535 554.582 185.535C558.506 185.535 561.158 188.352 561.158 192.891C561.158 197.416 558.506 200.246 554.582 200.246ZM554.582 198.154C557.098 198.154 558.738 196.24 558.738 192.891C558.738 189.541 557.098 187.627 554.582 187.627C552.066 187.627 550.412 189.541 550.412 192.891C550.412 196.24 552.066 198.154 554.582 198.154ZM565.52 200.246C564.795 200.246 564.33 199.754 564.33 198.988V187.736H563.154C562.539 187.736 562.143 187.381 562.143 186.766C562.143 186.178 562.539 185.781 563.154 185.781H564.33V184.195C564.33 181.475 565.629 180.162 567.953 180.162C569.211 180.162 569.881 180.572 569.881 181.27C569.881 181.707 569.676 181.98 569.238 182.104C569.033 182.158 568.801 182.186 568.5 182.186C567.242 182.186 566.695 182.814 566.695 184.277V185.781H568.801C569.416 185.781 569.812 186.178 569.812 186.766C569.812 187.381 569.416 187.736 568.801 187.736H566.709V198.988C566.709 199.754 566.244 200.246 565.52 200.246ZM573.381 183.389C572.574 183.389 571.904 182.719 571.904 181.912C571.904 181.092 572.574 180.436 573.381 180.436C574.201 180.436 574.871 181.092 574.871 181.912C574.871 182.719 574.201 183.389 573.381 183.389ZM573.381 200.246C572.684 200.246 572.191 199.727 572.191 198.975V186.807C572.191 186.055 572.684 185.535 573.381 185.535C574.078 185.535 574.57 186.055 574.57 186.807V198.975C574.57 199.727 574.078 200.246 573.381 200.246ZM579.096 200.246C578.398 200.246 577.906 199.727 577.906 198.975V181.297C577.906 180.545 578.398 180.025 579.096 180.025C579.793 180.025 580.285 180.545 580.285 181.297V198.975C580.285 199.727 579.793 200.246 579.096 200.246ZM589.459 200.246C585.262 200.246 582.801 197.539 582.801 192.945C582.801 188.461 585.33 185.535 589.254 185.535C592.891 185.535 595.447 188.256 595.447 192.152C595.447 193.014 594.955 193.533 594.135 193.533H585.248C585.248 196.404 586.82 198.182 589.363 198.182C591.059 198.182 592.098 197.58 593.205 195.967C593.451 195.625 593.725 195.488 594.094 195.488C594.723 195.488 595.146 195.898 595.146 196.527C595.146 196.719 595.078 196.965 594.969 197.225C594.053 199.152 592.057 200.246 589.459 200.246ZM585.262 191.674H592.986C592.932 189.213 591.414 187.6 589.213 187.6C586.998 187.6 585.412 189.227 585.262 191.674Z" fill="black"/>
<rect x="644" y="143" width="99.7354" height="59.8677" rx="11" fill="#DE6B5E"/>
<path d="M668.982 182.191C668.271 182.191 667.752 181.74 667.752 181.111C667.752 180.934 667.793 180.729 667.902 180.428L674.246 163.27C674.547 162.463 675.053 162.08 675.859 162.08C676.611 162.08 677.104 162.449 677.404 163.256L683.762 180.428C683.871 180.729 683.912 180.934 683.912 181.111C683.912 181.74 683.393 182.191 682.682 182.191C682.066 182.191 681.711 181.904 681.479 181.248L679.729 176.354H671.922L670.186 181.248C669.953 181.904 669.598 182.191 668.982 182.191ZM672.633 174.262H679.031L675.873 165.266H675.791L672.633 174.262ZM687.521 182.246C686.824 182.246 686.332 181.727 686.332 180.975V163.297C686.332 162.545 686.824 162.025 687.521 162.025C688.219 162.025 688.711 162.545 688.711 163.297V180.975C688.711 181.727 688.219 182.246 687.521 182.246ZM697.885 182.246C693.688 182.246 691.227 179.539 691.227 174.945C691.227 170.461 693.756 167.535 697.68 167.535C701.316 167.535 703.873 170.256 703.873 174.152C703.873 175.014 703.381 175.533 702.561 175.533H693.674C693.674 178.404 695.246 180.182 697.789 180.182C699.484 180.182 700.523 179.58 701.631 177.967C701.877 177.625 702.15 177.488 702.52 177.488C703.148 177.488 703.572 177.898 703.572 178.527C703.572 178.719 703.504 178.965 703.395 179.225C702.479 181.152 700.482 182.246 697.885 182.246ZM693.688 173.674H701.412C701.357 171.213 699.84 169.6 697.639 169.6C695.424 169.6 693.838 171.227 693.688 173.674ZM707.469 182.246C706.771 182.246 706.279 181.727 706.279 180.975V168.738C706.279 168.027 706.744 167.535 707.4 167.535C708.057 167.535 708.521 168.027 708.521 168.738V170.105H708.576C708.986 168.629 710.381 167.535 711.803 167.535C712.322 167.535 712.691 167.658 712.924 167.877C713.129 168.068 713.225 168.342 713.225 168.67C713.225 169.039 713.102 169.312 712.855 169.504C712.609 169.709 712.24 169.805 711.721 169.805C709.574 169.805 708.658 171.35 708.658 173.168V180.975C708.658 181.727 708.166 182.246 707.469 182.246ZM715.686 178.719V169.736H714.496C713.812 169.736 713.43 169.381 713.43 168.752C713.43 168.137 713.812 167.781 714.496 167.781H715.686V165.348C715.686 164.596 716.178 164.076 716.875 164.076C717.572 164.076 718.064 164.596 718.064 165.348V167.781H719.896C720.58 167.781 720.963 168.137 720.963 168.752C720.963 169.381 720.58 169.736 719.896 169.736H718.064V178.199C718.064 179.402 718.488 179.977 719.678 180.059L719.883 180.072C720.662 180.127 721.018 180.441 721.018 181.002C721.018 181.727 720.607 182.109 719.281 182.109H719.131C716.834 182.109 715.686 180.988 715.686 178.719Z" fill="black"/>
<defs>
<filter id="filter0_d_225_1666" x="130.5" y="135.5" width="347" height="289" filterUnits="userSpaceOnUse" color-interpolation-filters="sRGB">
<feFlood flood-opacity="0" result="BackgroundImageFix"/>
<feColorMatrix in="SourceAlpha" type="matrix" values="0 0 0 0 0 0 0 0 0 0 0 0 0 0 0 0 0 0 127 0" result="hardAlpha"/>
<feOffset dy="2"/>
<feGaussianBlur stdDeviation="4.5"/>
<feComposite in2="hardAlpha" operator="out"/>
<feColorMatrix type="matrix" values="0 0 0 0 0 0 0 0 0 0 0 0 0 0 0 0 0 0 0.25 0"/>
<feBlend mode="normal" in2="BackgroundImageFix" result="effect1_dropShadow_225_1666"/>
<feBlend mode="normal" in="SourceGraphic" in2="effect1_dropShadow_225_1666" result="shape"/>
</filter>
<filter id="filter1_d_225_1666" x="136" y="443" width="408" height="78" filterUnits="userSpaceOnUse" color-interpolation-filters="sRGB">
<feFlood flood-opacity="0" result="BackgroundImageFix"/>
<feColorMatrix in="SourceAlpha" type="matrix" values="0 0 0 0 0 0 0 0 0 0 0 0 0 0 0 0 0 0 127 0" result="hardAlpha"/>
<feOffset dy="4"/>
<feGaussianBlur stdDeviation="2"/>
<feComposite in2="hardAlpha" operator="out"/>
<feColorMatrix type="matrix" values="0 0 0 0 0 0 0 0 0 0 0 0 0 0 0 0 0 0 0.25 0"/>
<feBlend mode="normal" in2="BackgroundImageFix" result="effect1_dropShadow_225_1666"/>
<feBlend mode="normal" in="SourceGraphic" in2="effect1_dropShadow_225_1666" result="shape"/>
</filter>
<filter id="filter2_d_225_1666" x="131" y="604" width="346" height="71" filterUnits="userSpaceOnUse" color-interpolation-filters="sRGB">
<feFlood flood-opacity="0" result="BackgroundImageFix"/>
<feColorMatrix in="SourceAlpha" type="matrix" values="0 0 0 0 0 0 0 0 0 0 0 0 0 0 0 0 0 0 127 0" result="hardAlpha"/>
<feOffset dy="2"/>
<feGaussianBlur stdDeviation="4.5"/>
<feComposite in2="hardAlpha" operator="out"/>
<feColorMatrix type="matrix" values="0 0 0 0 0 0 0 0 0 0 0 0 0 0 0 0 0 0 0.25 0"/>
<feBlend mode="normal" in2="BackgroundImageFix" result="effect1_dropShadow_225_1666"/>
<feBlend mode="normal" in="SourceGraphic" in2="effect1_dropShadow_225_1666" result="shape"/>
</filter>
<filter id="filter3_d_225_1666" x="502" y="269" width="207" height="55" filterUnits="userSpaceOnUse" color-interpolation-filters="sRGB">
<feFlood flood-opacity="0" result="BackgroundImageFix"/>
<feColorMatrix in="SourceAlpha" type="matrix" values="0 0 0 0 0 0 0 0 0 0 0 0 0 0 0 0 0 0 127 0" result="hardAlpha"/>
<feOffset dy="4"/>
<feGaussianBlur stdDeviation="2"/>
<feComposite in2="hardAlpha" operator="out"/>
<feColorMatrix type="matrix" values="0 0 0 0 0 0 0 0 0 0 0 0 0 0 0 0 0 0 0.25 0"/>
<feBlend mode="normal" in2="BackgroundImageFix" result="effect1_dropShadow_225_1666"/>
<feBlend mode="normal" in="SourceGraphic" in2="effect1_dropShadow_225_1666" result="shape"/>
</filter>
<filter id="filter4_d_225_1666" x="136" y="543" width="408" height="46" filterUnits="userSpaceOnUse" color-interpolation-filters="sRGB">
<feFlood flood-opacity="0" result="BackgroundImageFix"/>
<feColorMatrix in="SourceAlpha" type="matrix" values="0 0 0 0 0 0 0 0 0 0 0 0 0 0 0 0 0 0 127 0" result="hardAlpha"/>
<feOffset dy="4"/>
<feGaussianBlur stdDeviation="2"/>
<feComposite in2="hardAlpha" operator="out"/>
<feColorMatrix type="matrix" values="0 0 0 0 0 0 0 0 0 0 0 0 0 0 0 0 0 0 0.25 0"/>
<feBlend mode="normal" in2="BackgroundImageFix" result="effect1_dropShadow_225_1666"/>
<feBlend mode="normal" in="SourceGraphic" in2="effect1_dropShadow_225_1666" result="shape"/>
</filter>
<filter id="filter5_d_225_1666" x="497" y="136" width="126" height="114" filterUnits="userSpaceOnUse" color-interpolation-filters="sRGB">
<feFlood flood-opacity="0" result="BackgroundImageFix"/>
<feColorMatrix in="SourceAlpha" type="matrix" values="0 0 0 0 0 0 0 0 0 0 0 0 0 0 0 0 0 0 127 0" result="hardAlpha"/>
<feOffset dy="2"/>
<feGaussianBlur stdDeviation="4.5"/>
<feComposite in2="hardAlpha" operator="out"/>
<feColorMatrix type="matrix" values="0 0 0 0 0 0 0 0 0 0 0 0 0 0 0 0 0 0 0.25 0"/>
<feBlend mode="normal" in2="BackgroundImageFix" result="effect1_dropShadow_225_1666"/>
<feBlend mode="normal" in="SourceGraphic" in2="effect1_dropShadow_225_1666" result="shape"/>
</filter>
<linearGradient id="paint0_linear_225_1666" x1="304" y1="143" x2="304" y2="413" gradientUnits="userSpaceOnUse">
<stop stop-color="#486247" stop-opacity="0"/>
<stop offset="0.640625" stop-color="#486247"/>
</linearGradient>
</defs>
</svg>
