<svg width="836" height="740" viewBox="0 0 836 740" fill="none" xmlns="http://www.w3.org/2000/svg">
<path d="M0 0H836V740H0V0Z" fill="#F9F9F9"/>
<path d="M44 133C44 130.239 46.2386 128 49 128H254C256.761 128 259 130.239 259 133V345C259 347.761 256.761 350 254 350H49C46.2386 350 44 347.761 44 345V133Z" fill="#486247"/>
<path d="M501 484C501 481.239 503.239 479 506 479H626C628.761 479 631 481.239 631 484V593C631 595.761 628.761 598 626 598H506C503.239 598 501 595.761 501 593V484Z" fill="#DE6B5E"/>
<path d="M47.9219 102.156C47.0781 102.156 46.5625 101.578 46.5625 100.656V83.0312C46.5625 81.3281 47.2656 80.6719 49.1094 80.6719H54.3125C58.3906 80.6719 61.1094 83.3281 61.1094 87.2969C61.1094 91.2969 58.3906 93.9062 54.2812 93.9062H49.2812V100.656C49.2812 101.578 48.7656 102.156 47.9219 102.156ZM49.2969 91.5156H52.5469C56.7812 91.5156 58.3125 90.4062 58.3125 87.2969C58.3125 84.625 56.7969 83.0781 54.1562 83.0781H49.2969V91.5156ZM67.3594 100.656C67.3594 101.594 66.875 102.156 66.0156 102.156C65.1719 102.156 64.6719 101.594 64.6719 100.656V86.9219C64.6719 86 65.2031 85.4219 66.0312 85.4219C66.8594 85.4219 67.3438 85.9844 67.3438 86.8906V87.5156H67.4219C68.2812 86.0469 69.5469 85.3125 71.0469 85.3125C71.5156 85.3125 71.9062 85.4062 72.2031 85.5938C72.5469 85.7969 72.7344 86.1562 72.7344 86.5781C72.7344 87.0625 72.5625 87.3906 72.2031 87.5938C71.9219 87.75 71.5312 87.8125 71.0156 87.8125C68.6094 87.8281 67.3594 89.125 67.3594 91.8281V100.656ZM75.8906 81.4688C75.8906 80.4844 76.6562 79.7812 77.5938 79.7812C78.6094 79.7812 79.3594 80.4844 79.3594 81.4688C79.3594 82.4531 78.6094 83.1875 77.5938 83.1875C76.6562 83.1875 75.8906 82.4531 75.8906 81.4688ZM78.9531 100.656C78.9531 101.672 78.375 102.156 77.6094 102.156C76.8438 102.156 76.2656 101.656 76.2656 100.656V86.9219C76.2656 85.9062 76.8594 85.4219 77.625 85.4219C78.3906 85.4219 78.9531 85.9219 78.9531 86.9219V100.656ZM106.297 100.656C106.297 101.594 105.797 102.156 104.953 102.156C104.109 102.156 103.609 101.594 103.609 100.656V91.1406C103.609 88.9375 102.312 87.6719 100.141 87.6719C98.0156 87.6719 96.4531 89.2656 96.4531 91.5V100.656C96.4531 101.594 95.9531 102.156 95.1094 102.156C94.2656 102.156 93.7812 101.594 93.7812 100.656V91.25C93.7812 89.0469 92.375 87.6719 90.2344 87.6719C88.125 87.6719 86.6094 89.2188 86.6094 91.4688V100.656C86.6094 101.594 86.1094 102.156 85.2656 102.156C84.4219 102.156 83.9219 101.594 83.9219 100.656V86.9219C83.9219 85.9844 84.4375 85.4219 85.2656 85.4219C86.0938 85.4219 86.5938 85.9844 86.5938 86.9062V88.1875H86.7344C87.3438 86.3594 88.9688 85.3125 91.1875 85.3125C93.4688 85.3125 95.1875 86.4844 95.7656 88.4062H95.875C96.6875 86.4375 98.5156 85.3125 100.875 85.3125C104.312 85.3125 106.297 87.1875 106.297 90.4375V100.656ZM120.172 99.8125C119.188 101.406 117.516 102.266 115.438 102.266C112.234 102.266 110.078 100.234 110.078 97.2188C110.078 94.2344 112.25 92.375 115.859 92.375H120.203V90.7812C120.203 88.6719 118.938 87.5938 116.578 87.5938C115.188 87.5938 114.25 88.0781 113.266 89.2031C112.891 89.6406 112.531 89.7969 112.047 89.7969C111.422 89.7969 111 89.375 111 88.7344C111 87.8125 111.641 86.9062 112.953 86.1562C113.906 85.6094 115.141 85.3125 116.75 85.3125C120.703 85.3125 122.891 87.25 122.891 90.7656V100.672C122.891 101.609 122.406 102.156 121.578 102.156C120.781 102.156 120.312 101.625 120.281 100.734V99.8125H120.172ZM112.828 97.1562C112.828 98.8594 114.172 100.016 116.172 100.016C118.438 100.016 120.203 98.4531 120.203 96.4062V94.5469H116C113.984 94.5469 112.828 95.4844 112.828 97.1562ZM130.172 100.656C130.172 101.594 129.688 102.156 128.828 102.156C127.984 102.156 127.484 101.594 127.484 100.656V86.9219C127.484 86 128.016 85.4219 128.844 85.4219C129.672 85.4219 130.156 85.9844 130.156 86.8906V87.5156H130.234C131.094 86.0469 132.359 85.3125 133.859 85.3125C134.328 85.3125 134.719 85.4062 135.016 85.5938C135.359 85.7969 135.547 86.1562 135.547 86.5781C135.547 87.0625 135.375 87.3906 135.016 87.5938C134.734 87.75 134.344 87.8125 133.828 87.8125C131.422 87.8281 130.172 89.125 130.172 91.8281V100.656ZM138.188 106.656C138.188 106.031 138.688 105.625 139.438 105.625C139.656 105.625 139.953 105.656 140.297 105.656C141.375 105.656 142.359 104.688 142.781 103.203C142.781 103.188 143.047 102.266 143.047 102.25L137.766 87.7812C137.625 87.4062 137.562 87.0781 137.562 86.8281C137.562 86.0938 138.141 85.5312 138.938 85.5312C139.594 85.5312 140.062 85.9688 140.344 86.8906L144.391 99.3281H144.516L148.562 86.8906C148.844 85.9688 149.312 85.5312 149.953 85.5312C150.719 85.5312 151.281 86.0781 151.281 86.8125C151.281 87.0625 151.219 87.375 151.062 87.7812L145.531 103.219C144.328 106.594 142.703 107.922 140.156 107.922C139.422 107.922 138.812 107.734 138.484 107.422C138.281 107.219 138.188 106.969 138.188 106.656ZM160.031 93.0312V89.6406C160.031 83.7188 163.094 80.2188 168.375 80.2188C170.969 80.2188 173 81.0469 174.5 82.5781C175.547 83.6719 176.219 85.0469 176.219 85.9531C176.219 86.7188 175.75 87.1719 175.031 87.1719C174.422 87.1719 174.031 86.9219 173.594 86.0938C172.344 83.7656 170.734 82.6875 168.484 82.6875C164.812 82.6875 162.766 85.2188 162.766 89.6562V93.0156C162.766 97.5 164.812 100 168.484 100C170.766 100 172.484 98.9375 173.656 96.6562C174.094 95.875 174.422 95.5781 175 95.5781C175.781 95.5781 176.219 96.0625 176.219 96.7969C176.219 97.75 175.516 99.1406 174.453 100.203C172.984 101.672 170.938 102.453 168.375 102.453C163.078 102.453 160.031 99.0156 160.031 93.0312ZM186.609 85.2969C190.641 85.2969 193.656 87.9375 193.656 92.5312V95.0312C193.656 99.6406 190.641 102.281 186.609 102.281C182.562 102.281 179.547 99.6406 179.547 95.0312V92.5312C179.547 87.9375 182.562 85.2969 186.609 85.2969ZM186.609 87.6406C183.953 87.6406 182.266 89.6719 182.266 92.7656V94.7969C182.266 97.9688 183.953 99.9531 186.609 99.9531C189.266 99.9531 190.922 97.9688 190.922 94.7969V92.7656C190.922 89.6719 189.266 87.6406 186.609 87.6406ZM199.234 102.156C198.469 102.156 197.906 101.672 197.906 100.656V80.9531C197.906 79.9375 198.469 79.4531 199.234 79.4531C200 79.4531 200.578 79.9375 200.578 80.9531V100.656C200.578 101.672 200 102.156 199.234 102.156ZM211.891 85.2969C215.922 85.2969 218.938 87.9375 218.938 92.5312V95.0312C218.938 99.6406 215.922 102.281 211.891 102.281C207.844 102.281 204.828 99.6406 204.828 95.0312V92.5312C204.828 87.9375 207.844 85.2969 211.891 85.2969ZM211.891 87.6406C209.234 87.6406 207.547 89.6719 207.547 92.7656V94.7969C207.547 97.9688 209.234 99.9531 211.891 99.9531C214.547 99.9531 216.203 97.9688 216.203 94.7969V92.7656C216.203 89.6719 214.547 87.6406 211.891 87.6406ZM225.766 100.656C225.766 101.594 225.281 102.156 224.422 102.156C223.578 102.156 223.078 101.594 223.078 100.656V86.9219C223.078 86 223.609 85.4219 224.438 85.4219C225.266 85.4219 225.75 85.9844 225.75 86.8906V87.5156H225.828C226.688 86.0469 227.953 85.3125 229.453 85.3125C229.922 85.3125 230.312 85.4062 230.609 85.5938C230.953 85.7969 231.141 86.1562 231.141 86.5781C231.141 87.0625 230.969 87.3906 230.609 87.5938C230.328 87.75 229.938 87.8125 229.422 87.8125C227.016 87.8281 225.766 89.125 225.766 91.8281V100.656Z" fill="black"/>
<path d="M503.109 454.203C502.328 454.203 501.812 453.75 501.812 453.031C501.812 452.719 501.891 452.422 502.016 452.047L508.438 434.094C508.828 433 509.375 432.5 510.375 432.5C511.375 432.5 511.922 433 512.312 434.094L518.734 452.047C518.859 452.391 518.938 452.719 518.938 453.016C518.938 453.75 518.422 454.203 517.625 454.203C516.875 454.203 516.453 453.844 516.156 452.922L514.359 447.594H506.375L504.578 452.922C504.281 453.859 503.859 454.203 503.109 454.203ZM507.109 445.391H513.625L510.422 435.891H510.312L507.109 445.391ZM521.484 447.203V444.359C521.484 440.109 523.984 437.297 528.281 437.297C529.5 437.297 530.953 437.531 532.203 438.281C533.25 438.906 534.25 439.953 534.25 441.062C534.25 441.766 533.844 442.312 533.094 442.312C532.359 442.312 532.016 441.828 531.703 441.391C530.891 440.25 529.766 439.688 528.312 439.688C525.594 439.688 524.219 441.672 524.219 444.5V447.062C524.219 449.859 525.547 451.891 528.328 451.891C529.578 451.891 530.797 451.484 531.766 450.188C532.047 449.812 532.438 449.266 533.141 449.266C533.719 449.266 534.297 449.625 534.297 450.5C534.297 451.578 533.406 452.625 532.203 453.312C530.922 454.062 529.516 454.281 528.328 454.281C523.984 454.281 521.484 451.5 521.484 447.203ZM537.766 447.203V444.359C537.766 440.109 540.266 437.297 544.562 437.297C545.781 437.297 547.234 437.531 548.484 438.281C549.531 438.906 550.531 439.953 550.531 441.062C550.531 441.766 550.125 442.312 549.375 442.312C548.641 442.312 548.297 441.828 547.984 441.391C547.172 440.25 546.047 439.688 544.594 439.688C541.875 439.688 540.5 441.672 540.5 444.5V447.062C540.5 449.859 541.828 451.891 544.609 451.891C545.859 451.891 547.078 451.484 548.047 450.188C548.328 449.812 548.719 449.266 549.422 449.266C550 449.266 550.578 449.625 550.578 450.5C550.578 451.578 549.688 452.625 548.484 453.312C547.203 454.062 545.797 454.281 544.609 454.281C540.266 454.281 537.766 451.5 537.766 447.203ZM554.047 447.109V444.516C554.047 440.266 556.859 437.297 560.906 437.297C564.828 437.297 567.578 440.156 567.578 444.188C567.578 445.969 567.266 446.469 566.109 446.469H556.766V447.328C556.781 450.172 558.484 451.953 561.297 451.953C562.688 451.953 563.766 451.531 564.641 450.688C565.484 449.906 565.672 449.781 566.125 449.781C566.719 449.781 567.172 450.266 567.172 450.922C567.172 451.406 566.875 452 566.406 452.484C565.375 453.594 563.375 454.281 561.172 454.281C556.766 454.281 554.047 451.547 554.047 447.109ZM556.766 444.281H564.906V444.234C564.906 441.406 563.359 439.609 560.938 439.609C558.453 439.609 556.766 441.484 556.766 444.234V444.281ZM585.031 452.656C585.031 453.594 584.516 454.156 583.672 454.156C582.828 454.156 582.328 453.594 582.328 452.656V443.578C582.328 441.031 581.047 439.688 578.734 439.688C576.031 439.688 574.328 441.609 574.328 444.812V452.656C574.328 453.594 573.828 454.156 572.984 454.156C572.141 454.156 571.641 453.594 571.641 452.656V438.922C571.641 437.984 572.156 437.422 572.984 437.422C573.812 437.422 574.312 437.969 574.312 438.891V440.578H574.453C575.141 438.5 576.922 437.312 579.438 437.312C582.984 437.312 585.031 439.312 585.031 442.766V452.656ZM590.594 449.641V439.859H589.406C588.641 439.859 588.156 439.438 588.156 438.734C588.156 438.031 588.625 437.594 589.406 437.594H590.609V434.891C590.609 433.953 591.109 433.406 591.938 433.406C592.781 433.406 593.281 433.953 593.281 434.891V437.594H595.484C596.266 437.594 596.734 438.031 596.734 438.734C596.734 439.438 596.25 439.859 595.484 439.859H593.297V449.672C593.297 451.422 593.734 451.938 595.25 451.938C595.688 451.938 596 451.891 596.297 451.891C596.906 451.891 597.328 452.281 597.328 452.891C597.328 453.328 597.125 453.688 596.641 453.922C596.203 454.141 595.594 454.25 594.703 454.25C591.734 454.25 590.594 453.062 590.594 449.641Z" fill="black"/>
<path d="M353.344 98.5938C353.344 97.8125 353.828 97.2812 354.531 97.2812C355.172 97.2812 355.609 97.6094 356.203 98.5C357.297 100.203 358.938 101.016 361.25 101.016C364.188 101.016 365.969 99.7188 365.969 97.5312C365.969 95.7344 364.844 94.5938 362.453 93.9531L358.859 92.9844C355.438 92.0625 353.719 90.1875 353.719 87.3594C353.719 83.6875 356.672 81.2188 361.047 81.2188C363.266 81.2188 365.25 81.875 366.594 83.0625C367.641 84 368.219 85.0938 368.219 86.125C368.219 86.875 367.75 87.375 367.031 87.375C366.406 87.375 366 87.0938 365.734 86.4688C365.031 84.7344 363.281 83.6562 361.109 83.6562C358.344 83.6562 356.562 85.0312 356.562 87.1562C356.562 88.75 357.625 89.8906 359.625 90.4219L363.172 91.3906C367 92.4219 368.703 94.2188 368.703 97.2344C368.703 101.062 365.766 103.453 361.078 103.453C358.562 103.453 356.375 102.766 355.047 101.562C353.922 100.547 353.344 99.5312 353.344 98.5938ZM371.797 96.1094V93.5156C371.797 89.2656 374.609 86.2969 378.656 86.2969C382.578 86.2969 385.328 89.1562 385.328 93.1875C385.328 94.9688 385.016 95.4688 383.859 95.4688H374.516V96.3281C374.531 99.1719 376.234 100.953 379.047 100.953C380.438 100.953 381.516 100.531 382.391 99.6875C383.234 98.9062 383.422 98.7812 383.875 98.7812C384.469 98.7812 384.922 99.2656 384.922 99.9219C384.922 100.406 384.625 101 384.156 101.484C383.125 102.594 381.125 103.281 378.922 103.281C374.516 103.281 371.797 100.547 371.797 96.1094ZM374.516 93.2812H382.656V93.2344C382.656 90.4062 381.109 88.6094 378.688 88.6094C376.203 88.6094 374.516 90.4844 374.516 93.2344V93.2812ZM388.734 96.2031V93.3594C388.734 89.1094 391.234 86.2969 395.531 86.2969C396.75 86.2969 398.203 86.5312 399.453 87.2812C400.5 87.9062 401.5 88.9531 401.5 90.0625C401.5 90.7656 401.094 91.3125 400.344 91.3125C399.609 91.3125 399.266 90.8281 398.953 90.3906C398.141 89.25 397.016 88.6875 395.562 88.6875C392.844 88.6875 391.469 90.6719 391.469 93.5V96.0625C391.469 98.8594 392.797 100.891 395.578 100.891C396.828 100.891 398.047 100.484 399.016 99.1875C399.297 98.8125 399.688 98.2656 400.391 98.2656C400.969 98.2656 401.547 98.625 401.547 99.5C401.547 100.578 400.656 101.625 399.453 102.312C398.172 103.062 396.766 103.281 395.578 103.281C391.234 103.281 388.734 100.5 388.734 96.2031ZM412.078 86.2969C416.109 86.2969 419.125 88.9375 419.125 93.5312V96.0312C419.125 100.641 416.109 103.281 412.078 103.281C408.031 103.281 405.016 100.641 405.016 96.0312V93.5312C405.016 88.9375 408.031 86.2969 412.078 86.2969ZM412.078 88.6406C409.422 88.6406 407.734 90.6719 407.734 93.7656V95.7969C407.734 98.9688 409.422 100.953 412.078 100.953C414.734 100.953 416.391 98.9688 416.391 95.7969V93.7656C416.391 90.6719 414.734 88.6406 412.078 88.6406ZM436.656 101.656C436.656 102.594 436.141 103.156 435.297 103.156C434.453 103.156 433.953 102.594 433.953 101.656V92.5781C433.953 90.0312 432.672 88.6875 430.359 88.6875C427.656 88.6875 425.953 90.6094 425.953 93.8125V101.656C425.953 102.594 425.453 103.156 424.609 103.156C423.766 103.156 423.266 102.594 423.266 101.656V87.9219C423.266 86.9844 423.781 86.4219 424.609 86.4219C425.438 86.4219 425.938 86.9688 425.938 87.8906V89.5781H426.078C426.766 87.5 428.547 86.3125 431.062 86.3125C434.609 86.3125 436.656 88.3125 436.656 91.7656V101.656ZM451.859 100.406C451.391 102.062 449.328 103.266 446.906 103.266C443.062 103.266 440.578 100.562 440.578 96.4375V93.1562C440.578 89.0156 443.125 86.3125 446.984 86.3125C449.281 86.3125 451.094 87.3281 451.75 89H451.875V81.9531C451.875 81 452.375 80.4531 453.219 80.4531C454.062 80.4531 454.562 81 454.562 81.9531V101.656C454.562 102.609 454.109 103.156 453.281 103.156C452.469 103.156 452.016 102.625 452 101.688V100.406H451.859ZM443.312 95.8281C443.312 99.0312 444.875 100.922 447.547 100.922C450.188 100.922 451.875 99.0625 451.875 96.1094V93.1562C451.875 90.5469 450.016 88.6562 447.453 88.6562C444.844 88.6562 443.312 90.5781 443.312 93.75V95.8281ZM468.609 100.812C467.625 102.406 465.953 103.266 463.875 103.266C460.672 103.266 458.516 101.234 458.516 98.2188C458.516 95.2344 460.688 93.375 464.297 93.375H468.641V91.7812C468.641 89.6719 467.375 88.5938 465.016 88.5938C463.625 88.5938 462.688 89.0781 461.703 90.2031C461.328 90.6406 460.969 90.7969 460.484 90.7969C459.859 90.7969 459.438 90.375 459.438 89.7344C459.438 88.8125 460.078 87.9062 461.391 87.1562C462.344 86.6094 463.578 86.3125 465.188 86.3125C469.141 86.3125 471.328 88.25 471.328 91.7656V101.672C471.328 102.609 470.844 103.156 470.016 103.156C469.219 103.156 468.75 102.625 468.719 101.734V100.812H468.609ZM461.266 98.1562C461.266 99.8594 462.609 101.016 464.609 101.016C466.875 101.016 468.641 99.4531 468.641 97.4062V95.5469H464.438C462.422 95.5469 461.266 96.4844 461.266 98.1562ZM478.609 101.656C478.609 102.594 478.125 103.156 477.266 103.156C476.422 103.156 475.922 102.594 475.922 101.656V87.9219C475.922 87 476.453 86.4219 477.281 86.4219C478.109 86.4219 478.594 86.9844 478.594 87.8906V88.5156H478.672C479.531 87.0469 480.797 86.3125 482.297 86.3125C482.766 86.3125 483.156 86.4062 483.453 86.5938C483.797 86.7969 483.984 87.1562 483.984 87.5781C483.984 88.0625 483.812 88.3906 483.453 88.5938C483.172 88.75 482.781 88.8125 482.266 88.8125C479.859 88.8281 478.609 90.125 478.609 92.8281V101.656ZM486.625 107.656C486.625 107.031 487.125 106.625 487.875 106.625C488.094 106.625 488.391 106.656 488.734 106.656C489.812 106.656 490.797 105.688 491.219 104.203C491.219 104.188 491.484 103.266 491.484 103.25L486.203 88.7812C486.062 88.4062 486 88.0781 486 87.8281C486 87.0938 486.578 86.5312 487.375 86.5312C488.031 86.5312 488.5 86.9688 488.781 87.8906L492.828 100.328H492.953L497 87.8906C497.281 86.9688 497.75 86.5312 498.391 86.5312C499.156 86.5312 499.719 87.0781 499.719 87.8125C499.719 88.0625 499.656 88.375 499.5 88.7812L493.969 104.219C492.766 107.594 491.141 108.922 488.594 108.922C487.859 108.922 487.25 108.734 486.922 108.422C486.719 108.219 486.625 107.969 486.625 107.656Z" fill="black"/>
<path d="M44 483C44 480.239 46.2386 478 49 478H169C171.761 478 174 480.239 174 483V592C174 594.761 171.761 597 169 597H49C46.2386 597 44 594.761 44 592V483Z" fill="#272827"/>
<path d="M193 483C193 480.239 195.239 478 198 478H318C320.761 478 323 480.239 323 483V592C323 594.761 320.761 597 318 597H198C195.239 597 193 594.761 193 592V483Z" fill="#949494"/>
<path d="M342 483C342 480.239 344.239 478 347 478H467C469.761 478 472 480.239 472 483V592C472 594.761 469.761 597 467 597H347C344.239 597 342 594.761 342 592V483Z" fill="#E0E0E0"/>
<path d="M45.7188 444.062V440.609C45.7188 434.719 48.7812 431.219 54.0625 431.219C56.625 431.219 58.6719 432.016 60.125 433.531C61.1875 434.641 61.9062 436.016 61.9062 436.938C61.9062 437.703 61.4375 438.172 60.7188 438.172C60.125 438.172 59.7656 437.906 59.3438 437.125C58.0938 434.828 56.5156 433.688 54.2031 433.688C50.5469 433.688 48.4531 436.203 48.4531 440.641V444.062C48.4531 448.438 50.6562 451.016 54.375 451.016C57.5 451.016 59.5312 449.141 59.5312 446.344V444.281H55.25C54.3906 444.281 53.8594 443.844 53.8594 443.094C53.8594 442.344 54.3906 441.891 55.25 441.891H60.1875C61.5625 441.891 62.1875 442.531 62.1875 443.891V446.297C62.1875 450.406 58.8438 453.453 54.3281 453.453C48.9375 453.453 45.7188 449.938 45.7188 444.062ZM68.9844 451.656C68.9844 452.594 68.5 453.156 67.6406 453.156C66.7969 453.156 66.2969 452.594 66.2969 451.656V437.922C66.2969 437 66.8281 436.422 67.6562 436.422C68.4844 436.422 68.9688 436.984 68.9688 437.891V438.516H69.0469C69.9062 437.047 71.1719 436.312 72.6719 436.312C73.1406 436.312 73.5312 436.406 73.8281 436.594C74.1719 436.797 74.3594 437.156 74.3594 437.578C74.3594 438.062 74.1875 438.391 73.8281 438.594C73.5469 438.75 73.1562 438.812 72.6406 438.812C70.2344 438.828 68.9844 440.125 68.9844 442.828V451.656ZM76.4531 446.109V443.516C76.4531 439.266 79.2656 436.297 83.3125 436.297C87.2344 436.297 89.9844 439.156 89.9844 443.188C89.9844 444.969 89.6719 445.469 88.5156 445.469H79.1719V446.328C79.1875 449.172 80.8906 450.953 83.7031 450.953C85.0938 450.953 86.1719 450.531 87.0469 449.688C87.8906 448.906 88.0781 448.781 88.5312 448.781C89.125 448.781 89.5781 449.266 89.5781 449.922C89.5781 450.406 89.2812 451 88.8125 451.484C87.7812 452.594 85.7812 453.281 83.5781 453.281C79.1719 453.281 76.4531 450.547 76.4531 446.109ZM79.1719 443.281H87.3125V443.234C87.3125 440.406 85.7656 438.609 83.3438 438.609C80.8594 438.609 79.1719 440.484 79.1719 443.234V443.281ZM92.9375 457.656C92.9375 457.031 93.4375 456.625 94.1875 456.625C94.4062 456.625 94.7031 456.656 95.0469 456.656C96.125 456.656 97.1094 455.688 97.5312 454.203C97.5312 454.188 97.7969 453.266 97.7969 453.25L92.5156 438.781C92.375 438.406 92.3125 438.078 92.3125 437.828C92.3125 437.094 92.8906 436.531 93.6875 436.531C94.3438 436.531 94.8125 436.969 95.0938 437.891L99.1406 450.328H99.2656L103.312 437.891C103.594 436.969 104.062 436.531 104.703 436.531C105.469 436.531 106.031 437.078 106.031 437.812C106.031 438.062 105.969 438.375 105.812 438.781L100.281 454.219C99.0781 457.594 97.4531 458.922 94.9062 458.922C94.1719 458.922 93.5625 458.734 93.2344 458.422C93.0312 458.219 92.9375 457.969 92.9375 457.656ZM108.109 449.656C108.109 448.906 108.562 448.453 109.281 448.453C109.719 448.453 110.047 448.672 110.594 449.344C111.594 450.5 112.875 451.078 114.547 451.078C116.656 451.078 117.984 450.125 117.984 448.609C117.984 447.453 117.141 446.578 115.703 446.234L112.578 445.516C109.719 444.859 108.344 443.422 108.344 441.109C108.344 438.188 110.688 436.297 114.344 436.297C115.984 436.297 117.5 436.719 118.656 437.484C119.641 438.141 120.25 439.031 120.25 439.844C120.25 440.531 119.797 440.953 119.109 440.953C118.625 440.953 118.375 440.797 117.719 440.125C116.625 438.953 115.672 438.5 114.234 438.5C112.219 438.5 110.984 439.422 110.984 440.938C110.984 442.125 111.75 442.844 113.391 443.25L116.438 443.984C119.297 444.672 120.625 446.062 120.625 448.391C120.625 451.391 118.25 453.281 114.406 453.281C112.734 453.281 111.156 452.891 109.938 452.203C108.766 451.531 108.109 450.609 108.109 449.656Z" fill="black"/>
<path d="M114.055 388.316L114.699 385.201H111.896L111.203 388.58C111.125 388.961 110.842 389.176 110.51 389.176C110.148 389.176 109.885 388.922 109.885 388.541C109.885 388.473 109.895 388.365 109.904 388.316L110.549 385.201H109.328C108.801 385.201 108.566 384.908 108.566 384.518C108.566 384.127 108.801 383.854 109.328 383.854H110.822L111.467 380.699H110.334C109.797 380.699 109.562 380.416 109.562 380.025C109.562 379.635 109.797 379.361 110.334 379.361H111.73L112.385 376.168C112.463 375.826 112.746 375.631 113.049 375.631C113.43 375.631 113.703 375.924 113.703 376.275C113.703 376.334 113.693 376.432 113.684 376.48L113.088 379.361H115.881L116.535 376.168C116.613 375.826 116.896 375.631 117.209 375.631C117.58 375.631 117.854 375.924 117.854 376.275C117.854 376.334 117.844 376.432 117.834 376.48L117.238 379.361H118.547C119.084 379.361 119.318 379.625 119.318 380.016C119.318 380.416 119.084 380.699 118.547 380.699H116.965L116.32 383.854H117.551C118.088 383.854 118.322 384.127 118.322 384.518C118.322 384.908 118.078 385.201 117.551 385.201H116.047L115.354 388.58C115.275 388.961 114.992 389.176 114.66 389.176C114.299 389.176 114.035 388.922 114.035 388.541C114.035 388.473 114.045 388.365 114.055 388.316ZM112.805 380.68L112.141 383.883H114.992L115.637 380.68H112.805ZM126.994 388.209V386.227H121.857C121.096 386.227 120.588 385.826 120.588 385.182C120.588 384.82 120.705 384.479 121.047 383.854C122.443 381.383 123.322 379.977 125.539 376.656C126.115 375.807 126.564 375.514 127.238 375.514C128.127 375.514 128.625 376.021 128.625 376.93V384.732H129.641C130.188 384.732 130.51 385.006 130.51 385.484C130.51 385.953 130.197 386.227 129.641 386.227H128.625V388.209C128.625 388.775 128.332 389.098 127.805 389.098C127.287 389.098 126.994 388.775 126.994 388.209ZM122.229 384.732H126.994V377.174H126.906C125.246 379.625 123.508 382.418 122.229 384.635V384.732ZM136.691 389.283C133.938 389.283 132.023 387.682 132.023 385.377C132.023 383.766 133.107 382.408 134.719 382.018V381.92C133.41 381.49 132.551 380.309 132.551 378.951C132.551 376.9 134.309 375.387 136.73 375.387C139.152 375.387 140.92 376.9 140.92 378.951C140.92 380.289 140.031 381.49 138.742 381.92V382.018C140.334 382.398 141.428 383.766 141.428 385.357C141.428 387.652 139.455 389.283 136.691 389.283ZM136.73 381.344C138.215 381.344 139.26 380.396 139.26 379.068C139.26 377.75 138.225 376.832 136.73 376.832C135.246 376.832 134.201 377.76 134.201 379.068C134.201 380.387 135.256 381.344 136.73 381.344ZM136.73 387.857C138.498 387.857 139.768 386.793 139.768 385.309C139.768 383.824 138.498 382.74 136.73 382.74C134.963 382.74 133.693 383.814 133.693 385.309C133.693 386.793 134.963 387.857 136.73 387.857ZM143.391 382.721C143.391 378.023 145.197 375.416 148.439 375.416C149.484 375.416 150.49 375.699 151.232 376.207C151.877 376.627 152.268 377.164 152.268 377.613C152.268 378.033 151.965 378.346 151.545 378.346C151.271 378.346 151.066 378.238 150.715 377.896C150.012 377.203 149.279 376.891 148.41 376.891C146.232 376.891 145.08 378.805 145.051 382.457H145.129C145.578 381.266 146.975 380.426 148.498 380.426C150.979 380.426 152.717 382.213 152.717 384.762C152.717 387.447 150.881 389.273 148.166 389.273C146.516 389.273 145.197 388.59 144.396 387.33C143.723 386.256 143.391 384.742 143.391 382.721ZM145.295 384.82C145.295 386.568 146.506 387.809 148.234 387.809C149.914 387.809 151.037 386.627 151.037 384.83C151.037 383.053 149.904 381.881 148.166 381.881C146.477 381.881 145.295 383.092 145.295 384.82ZM154.924 388.092C154.924 387.74 155.09 387.467 155.666 386.812L159.729 382.164C160.832 380.904 161.252 380.084 161.252 379.166C161.252 377.789 160.266 376.871 158.781 376.871C157.521 376.871 156.594 377.623 156.301 378.893C156.164 379.41 155.891 379.674 155.49 379.674C155.012 379.674 154.699 379.312 154.699 378.785C154.699 377.125 156.311 375.387 158.889 375.387C161.291 375.387 162.98 376.91 162.98 379.059C162.98 380.328 162.482 381.256 160.725 383.258L157.111 387.389V387.506H162.531C163.049 387.506 163.381 387.789 163.381 388.258C163.381 388.717 163.068 389 162.531 389H156.086C155.373 389 154.924 388.658 154.924 388.092ZM170.998 388.209V386.227H165.861C165.1 386.227 164.592 385.826 164.592 385.182C164.592 384.82 164.709 384.479 165.051 383.854C166.447 381.383 167.326 379.977 169.543 376.656C170.119 375.807 170.568 375.514 171.242 375.514C172.131 375.514 172.629 376.021 172.629 376.93V384.732H173.645C174.191 384.732 174.514 385.006 174.514 385.484C174.514 385.953 174.201 386.227 173.645 386.227H172.629V388.209C172.629 388.775 172.336 389.098 171.809 389.098C171.291 389.098 170.998 388.775 170.998 388.209ZM166.232 384.732H170.998V377.174H170.91C169.25 379.625 167.512 382.418 166.232 384.635V384.732ZM177.57 388.395C177.57 388.18 177.639 387.994 177.746 387.779L182.678 377.262V377.164H176.623C176.018 377.164 175.725 376.852 175.725 376.422C175.725 375.982 176.018 375.67 176.623 375.67H183.576C184.084 375.67 184.504 376.021 184.504 376.598C184.504 376.871 184.367 377.32 184.152 377.779L179.172 388.531C178.986 388.922 178.752 389.156 178.342 389.156C177.941 389.156 177.57 388.854 177.57 388.395Z" fill="black"/>
<path d="M531.055 630.316L531.699 627.201H528.896L528.203 630.58C528.125 630.961 527.842 631.176 527.51 631.176C527.148 631.176 526.885 630.922 526.885 630.541C526.885 630.473 526.895 630.365 526.904 630.316L527.549 627.201H526.328C525.801 627.201 525.566 626.908 525.566 626.518C525.566 626.127 525.801 625.854 526.328 625.854H527.822L528.467 622.699H527.334C526.797 622.699 526.562 622.416 526.562 622.025C526.562 621.635 526.797 621.361 527.334 621.361H528.73L529.385 618.168C529.463 617.826 529.746 617.631 530.049 617.631C530.43 617.631 530.703 617.924 530.703 618.275C530.703 618.334 530.693 618.432 530.684 618.48L530.088 621.361H532.881L533.535 618.168C533.613 617.826 533.896 617.631 534.209 617.631C534.58 617.631 534.854 617.924 534.854 618.275C534.854 618.334 534.844 618.432 534.834 618.48L534.238 621.361H535.547C536.084 621.361 536.318 621.625 536.318 622.016C536.318 622.416 536.084 622.699 535.547 622.699H533.965L533.32 625.854H534.551C535.088 625.854 535.322 626.127 535.322 626.518C535.322 626.908 535.078 627.201 534.551 627.201H533.047L532.354 630.58C532.275 630.961 531.992 631.176 531.66 631.176C531.299 631.176 531.035 630.922 531.035 630.541C531.035 630.473 531.045 630.365 531.055 630.316ZM529.805 622.68L529.141 625.883H531.992L532.637 622.68H529.805ZM538.203 629.555V619.115C538.203 618.08 538.652 617.67 539.775 617.67H542.48C546.328 617.67 548.33 619.945 548.33 624.34C548.33 628.725 546.328 631 542.48 631H539.775C538.652 631 538.203 630.59 538.203 629.555ZM539.912 629.477H542.402C545.215 629.477 546.592 627.787 546.592 624.34C546.592 620.883 545.205 619.184 542.402 619.184H539.912V629.477ZM550.82 629.555V619.115C550.82 618.08 551.27 617.67 552.393 617.67H558.057C558.584 617.67 558.926 617.963 558.926 618.432C558.926 618.9 558.584 619.193 558.057 619.193H552.52V623.451H557.715C558.242 623.451 558.574 623.734 558.574 624.203C558.574 624.672 558.242 624.945 557.715 624.945H552.52V629.477H558.057C558.584 629.477 558.926 629.779 558.926 630.248C558.926 630.717 558.584 631 558.047 631H552.393C551.27 631 550.82 630.59 550.82 629.555ZM560.859 624.721C560.859 620.023 562.666 617.416 565.908 617.416C566.953 617.416 567.959 617.699 568.701 618.207C569.346 618.627 569.736 619.164 569.736 619.613C569.736 620.033 569.434 620.346 569.014 620.346C568.74 620.346 568.535 620.238 568.184 619.896C567.48 619.203 566.748 618.891 565.879 618.891C563.701 618.891 562.549 620.805 562.52 624.457H562.598C563.047 623.266 564.443 622.426 565.967 622.426C568.447 622.426 570.186 624.213 570.186 626.762C570.186 629.447 568.35 631.273 565.635 631.273C563.984 631.273 562.666 630.59 561.865 629.33C561.191 628.256 560.859 626.742 560.859 624.721ZM562.764 626.82C562.764 628.568 563.975 629.809 565.703 629.809C567.383 629.809 568.506 628.627 568.506 626.83C568.506 625.053 567.373 623.881 565.635 623.881C563.945 623.881 562.764 625.092 562.764 626.82ZM572.617 629.555V619.115C572.617 618.08 573.066 617.67 574.189 617.67H577.617C579.893 617.67 581.318 618.939 581.318 620.951C581.318 622.436 580.566 623.471 579.189 623.9V623.969C580.996 624.213 582.08 625.434 582.08 627.27C582.08 629.584 580.312 631 577.422 631H574.189C573.066 631 572.617 630.59 572.617 629.555ZM574.316 623.412H576.357C578.594 623.412 579.6 622.729 579.6 621.244C579.6 619.926 578.77 619.164 577.344 619.164H574.316V623.412ZM574.316 629.506H576.631C579.268 629.506 580.332 628.852 580.332 627.279C580.332 625.756 579.307 624.877 577.529 624.877H574.316V629.506ZM584.414 628.344C584.414 627.855 584.697 627.523 585.127 627.523C585.459 627.523 585.674 627.699 585.928 628.197C586.465 629.242 587.363 629.809 588.535 629.809C590.312 629.809 591.553 628.559 591.553 626.762C591.553 625.043 590.352 623.832 588.662 623.832C587.9 623.832 587.227 624.086 586.66 624.594C585.947 625.258 585.752 625.375 585.439 625.375C584.883 625.375 584.6 624.936 584.648 624.184L585.078 618.715C585.137 617.992 585.557 617.65 586.396 617.65H591.875C592.441 617.65 592.773 617.934 592.773 618.412C592.773 618.881 592.451 619.145 591.875 619.145H586.611L586.24 623.49H586.338C586.777 622.836 587.92 622.367 589.043 622.367C591.523 622.367 593.271 624.145 593.271 626.674C593.271 629.369 591.328 631.283 588.604 631.283C586.025 631.283 584.414 629.711 584.414 628.344ZM596.152 629.555V619.115C596.152 618.08 596.602 617.67 597.725 617.67H603.389C603.916 617.67 604.258 617.963 604.258 618.432C604.258 618.9 603.916 619.193 603.389 619.193H597.852V623.451H603.047C603.574 623.451 603.906 623.734 603.906 624.203C603.906 624.672 603.574 624.945 603.047 624.945H597.852V629.477H603.389C603.916 629.477 604.258 629.779 604.258 630.248C604.258 630.717 603.916 631 603.379 631H597.725C596.602 631 596.152 630.59 596.152 629.555Z" fill="black"/>
<path d="M535.055 279.316L535.699 276.201H532.896L532.203 279.58C532.125 279.961 531.842 280.176 531.51 280.176C531.148 280.176 530.885 279.922 530.885 279.541C530.885 279.473 530.895 279.365 530.904 279.316L531.549 276.201H530.328C529.801 276.201 529.566 275.908 529.566 275.518C529.566 275.127 529.801 274.854 530.328 274.854H531.822L532.467 271.699H531.334C530.797 271.699 530.562 271.416 530.562 271.025C530.562 270.635 530.797 270.361 531.334 270.361H532.73L533.385 267.168C533.463 266.826 533.746 266.631 534.049 266.631C534.43 266.631 534.703 266.924 534.703 267.275C534.703 267.334 534.693 267.432 534.684 267.48L534.088 270.361H536.881L537.535 267.168C537.613 266.826 537.896 266.631 538.209 266.631C538.58 266.631 538.854 266.924 538.854 267.275C538.854 267.334 538.844 267.432 538.834 267.48L538.238 270.361H539.547C540.084 270.361 540.318 270.625 540.318 271.016C540.318 271.416 540.084 271.699 539.547 271.699H537.965L537.32 274.854H538.551C539.088 274.854 539.322 275.127 539.322 275.518C539.322 275.908 539.078 276.201 538.551 276.201H537.047L536.354 279.58C536.275 279.961 535.992 280.176 535.66 280.176C535.299 280.176 535.035 279.922 535.035 279.541C535.035 279.473 535.045 279.365 535.055 279.316ZM533.805 271.68L533.141 274.883H535.992L536.637 271.68H533.805ZM541.539 273.721C541.539 269.023 543.346 266.416 546.588 266.416C547.633 266.416 548.639 266.699 549.381 267.207C550.025 267.627 550.416 268.164 550.416 268.613C550.416 269.033 550.113 269.346 549.693 269.346C549.42 269.346 549.215 269.238 548.863 268.896C548.16 268.203 547.428 267.891 546.559 267.891C544.381 267.891 543.229 269.805 543.199 273.457H543.277C543.727 272.266 545.123 271.426 546.646 271.426C549.127 271.426 550.865 273.213 550.865 275.762C550.865 278.447 549.029 280.273 546.314 280.273C544.664 280.273 543.346 279.59 542.545 278.33C541.871 277.256 541.539 275.742 541.539 273.721ZM543.443 275.82C543.443 277.568 544.654 278.809 546.383 278.809C548.062 278.809 549.186 277.627 549.186 275.83C549.186 274.053 548.053 272.881 546.314 272.881C544.625 272.881 543.443 274.092 543.443 275.82ZM553.072 279.092C553.072 278.74 553.238 278.467 553.814 277.812L557.877 273.164C558.98 271.904 559.4 271.084 559.4 270.166C559.4 268.789 558.414 267.871 556.93 267.871C555.67 267.871 554.742 268.623 554.449 269.893C554.312 270.41 554.039 270.674 553.639 270.674C553.16 270.674 552.848 270.312 552.848 269.785C552.848 268.125 554.459 266.387 557.037 266.387C559.439 266.387 561.129 267.91 561.129 270.059C561.129 271.328 560.631 272.256 558.873 274.258L555.26 278.389V278.506H560.68C561.197 278.506 561.529 278.789 561.529 279.258C561.529 279.717 561.217 280 560.68 280H554.234C553.521 280 553.072 279.658 553.072 279.092ZM564.84 279.395C564.84 279.18 564.908 278.994 565.016 278.779L569.947 268.262V268.164H563.893C563.287 268.164 562.994 267.852 562.994 267.422C562.994 266.982 563.287 266.67 563.893 266.67H570.846C571.354 266.67 571.773 267.021 571.773 267.598C571.773 267.871 571.637 268.32 571.422 268.779L566.441 279.531C566.256 279.922 566.021 280.156 565.611 280.156C565.211 280.156 564.84 279.854 564.84 279.395ZM577.057 279.16V268.545H576.979L575.143 269.883C574.859 270.088 574.654 270.166 574.439 270.166C574.078 270.166 573.785 269.863 573.785 269.492C573.785 269.209 573.971 268.945 574.361 268.662L576.334 267.197C576.949 266.738 577.291 266.592 577.672 266.592C578.297 266.592 578.736 267.051 578.736 267.715V279.16C578.736 279.756 578.424 280.098 577.896 280.098C577.379 280.098 577.057 279.746 577.057 279.16ZM582.027 278.018C582.027 277.578 582.33 277.295 582.75 277.295C583.014 277.295 583.219 277.412 583.58 277.764C584.293 278.467 585.016 278.789 585.914 278.789C588.121 278.789 589.244 276.768 589.244 273.252H589.156C588.668 274.57 587.418 275.361 585.826 275.361C583.326 275.361 581.588 273.525 581.588 270.889C581.588 268.174 583.434 266.367 586.207 266.367C589.264 266.367 590.895 268.75 590.895 273.174C590.895 277.832 589.205 280.254 585.943 280.254C584.869 280.254 583.854 279.98 583.092 279.482C582.438 279.053 582.027 278.506 582.027 278.018ZM588.951 270.928C588.951 269.102 587.799 267.852 586.109 267.852C584.43 267.852 583.277 269.102 583.277 270.918C583.277 272.695 584.41 273.887 586.109 273.887C587.818 273.887 588.951 272.705 588.951 270.928ZM592.74 277.266C592.74 276.826 593.043 276.514 593.473 276.514C593.814 276.514 594.029 276.689 594.283 277.188C594.791 278.232 595.807 278.818 597.135 278.818C598.883 278.818 599.996 277.861 599.996 276.367C599.996 274.873 598.854 273.867 597.154 273.867H595.934C595.484 273.867 595.152 273.545 595.152 273.125C595.152 272.695 595.465 272.393 595.934 272.393H597.086C598.512 272.393 599.547 271.426 599.547 270.088C599.547 268.75 598.541 267.852 597.047 267.852C595.885 267.852 595.006 268.428 594.615 269.434C594.42 269.971 594.176 270.176 593.795 270.176C593.346 270.176 593.053 269.854 593.053 269.365C593.053 267.852 594.684 266.387 597.086 266.387C599.527 266.387 601.266 267.842 601.266 269.873C601.266 271.348 600.162 272.754 598.805 272.988V273.086C600.455 273.271 601.715 274.717 601.715 276.396C601.715 278.682 599.82 280.283 597.105 280.283C594.586 280.283 592.74 278.76 592.74 277.266Z" fill="black"/>
<path d="M76.0547 635.316L76.6992 632.201H73.8965L73.2031 635.58C73.125 635.961 72.8418 636.176 72.5098 636.176C72.1484 636.176 71.8848 635.922 71.8848 635.541C71.8848 635.473 71.8945 635.365 71.9043 635.316L72.5488 632.201H71.3281C70.8008 632.201 70.5664 631.908 70.5664 631.518C70.5664 631.127 70.8008 630.854 71.3281 630.854H72.8223L73.4668 627.699H72.334C71.7969 627.699 71.5625 627.416 71.5625 627.025C71.5625 626.635 71.7969 626.361 72.334 626.361H73.7305L74.3848 623.168C74.4629 622.826 74.7461 622.631 75.0488 622.631C75.4297 622.631 75.7031 622.924 75.7031 623.275C75.7031 623.334 75.6934 623.432 75.6836 623.48L75.0879 626.361H77.8809L78.5352 623.168C78.6133 622.826 78.8965 622.631 79.209 622.631C79.5801 622.631 79.8535 622.924 79.8535 623.275C79.8535 623.334 79.8438 623.432 79.834 623.48L79.2383 626.361H80.5469C81.084 626.361 81.3184 626.625 81.3184 627.016C81.3184 627.416 81.084 627.699 80.5469 627.699H78.9648L78.3203 630.854H79.5508C80.0879 630.854 80.3223 631.127 80.3223 631.518C80.3223 631.908 80.0781 632.201 79.5508 632.201H78.0469L77.3535 635.58C77.2754 635.961 76.9922 636.176 76.6602 636.176C76.2988 636.176 76.0352 635.922 76.0352 635.541C76.0352 635.473 76.0449 635.365 76.0547 635.316ZM74.8047 627.68L74.1406 630.883H76.9922L77.6367 627.68H74.8047ZM82.998 635.092C82.998 634.74 83.1641 634.467 83.7402 633.812L87.8027 629.164C88.9062 627.904 89.3262 627.084 89.3262 626.166C89.3262 624.789 88.3398 623.871 86.8555 623.871C85.5957 623.871 84.668 624.623 84.375 625.893C84.2383 626.41 83.9648 626.674 83.5645 626.674C83.0859 626.674 82.7734 626.312 82.7734 625.785C82.7734 624.125 84.3848 622.387 86.9629 622.387C89.3652 622.387 91.0547 623.91 91.0547 626.059C91.0547 627.328 90.5566 628.256 88.7988 630.258L85.1855 634.389V634.506H90.6055C91.123 634.506 91.4551 634.789 91.4551 635.258C91.4551 635.717 91.1426 636 90.6055 636H84.1602C83.4473 636 82.998 635.658 82.998 635.092ZM94.7656 635.395C94.7656 635.18 94.834 634.994 94.9414 634.779L99.873 624.262V624.164H93.8184C93.2129 624.164 92.9199 623.852 92.9199 623.422C92.9199 622.982 93.2129 622.67 93.8184 622.67H100.771C101.279 622.67 101.699 623.021 101.699 623.598C101.699 623.871 101.562 624.32 101.348 624.779L96.3672 635.531C96.1816 635.922 95.9473 636.156 95.5371 636.156C95.1367 636.156 94.7656 635.854 94.7656 635.395ZM103.604 635.092C103.604 634.74 103.77 634.467 104.346 633.812L108.408 629.164C109.512 627.904 109.932 627.084 109.932 626.166C109.932 624.789 108.945 623.871 107.461 623.871C106.201 623.871 105.273 624.623 104.98 625.893C104.844 626.41 104.57 626.674 104.17 626.674C103.691 626.674 103.379 626.312 103.379 625.785C103.379 624.125 104.99 622.387 107.568 622.387C109.971 622.387 111.66 623.91 111.66 626.059C111.66 627.328 111.162 628.256 109.404 630.258L105.791 634.389V634.506H111.211C111.729 634.506 112.061 634.789 112.061 635.258C112.061 635.717 111.748 636 111.211 636H104.766C104.053 636 103.604 635.658 103.604 635.092ZM118.379 636.283C115.625 636.283 113.711 634.682 113.711 632.377C113.711 630.766 114.795 629.408 116.406 629.018V628.92C115.098 628.49 114.238 627.309 114.238 625.951C114.238 623.9 115.996 622.387 118.418 622.387C120.84 622.387 122.607 623.9 122.607 625.951C122.607 627.289 121.719 628.49 120.43 628.92V629.018C122.021 629.398 123.115 630.766 123.115 632.357C123.115 634.652 121.143 636.283 118.379 636.283ZM118.418 628.344C119.902 628.344 120.947 627.396 120.947 626.068C120.947 624.75 119.912 623.832 118.418 623.832C116.934 623.832 115.889 624.76 115.889 626.068C115.889 627.387 116.943 628.344 118.418 628.344ZM118.418 634.857C120.186 634.857 121.455 633.793 121.455 632.309C121.455 630.824 120.186 629.74 118.418 629.74C116.65 629.74 115.381 630.814 115.381 632.309C115.381 633.793 116.65 634.857 118.418 634.857ZM125.264 635.092C125.264 634.74 125.43 634.467 126.006 633.812L130.068 629.164C131.172 627.904 131.592 627.084 131.592 626.166C131.592 624.789 130.605 623.871 129.121 623.871C127.861 623.871 126.934 624.623 126.641 625.893C126.504 626.41 126.23 626.674 125.83 626.674C125.352 626.674 125.039 626.312 125.039 625.785C125.039 624.125 126.65 622.387 129.229 622.387C131.631 622.387 133.32 623.91 133.32 626.059C133.32 627.328 132.822 628.256 131.064 630.258L127.451 634.389V634.506H132.871C133.389 634.506 133.721 634.789 133.721 635.258C133.721 635.717 133.408 636 132.871 636H126.426C125.713 636 125.264 635.658 125.264 635.092ZM137.031 635.395C137.031 635.18 137.1 634.994 137.207 634.779L142.139 624.262V624.164H136.084C135.479 624.164 135.186 623.852 135.186 623.422C135.186 622.982 135.479 622.67 136.084 622.67H143.037C143.545 622.67 143.965 623.021 143.965 623.598C143.965 623.871 143.828 624.32 143.613 624.779L138.633 635.531C138.447 635.922 138.213 636.156 137.803 636.156C137.402 636.156 137.031 635.854 137.031 635.395Z" fill="black"/>
<path d="M222.055 635.316L222.699 632.201H219.896L219.203 635.58C219.125 635.961 218.842 636.176 218.51 636.176C218.148 636.176 217.885 635.922 217.885 635.541C217.885 635.473 217.895 635.365 217.904 635.316L218.549 632.201H217.328C216.801 632.201 216.566 631.908 216.566 631.518C216.566 631.127 216.801 630.854 217.328 630.854H218.822L219.467 627.699H218.334C217.797 627.699 217.562 627.416 217.562 627.025C217.562 626.635 217.797 626.361 218.334 626.361H219.73L220.385 623.168C220.463 622.826 220.746 622.631 221.049 622.631C221.43 622.631 221.703 622.924 221.703 623.275C221.703 623.334 221.693 623.432 221.684 623.48L221.088 626.361H223.881L224.535 623.168C224.613 622.826 224.896 622.631 225.209 622.631C225.58 622.631 225.854 622.924 225.854 623.275C225.854 623.334 225.844 623.432 225.834 623.48L225.238 626.361H226.547C227.084 626.361 227.318 626.625 227.318 627.016C227.318 627.416 227.084 627.699 226.547 627.699H224.965L224.32 630.854H225.551C226.088 630.854 226.322 631.127 226.322 631.518C226.322 631.908 226.078 632.201 225.551 632.201H224.047L223.354 635.58C223.275 635.961 222.992 636.176 222.66 636.176C222.299 636.176 222.035 635.922 222.035 635.541C222.035 635.473 222.045 635.365 222.055 635.316ZM220.805 627.68L220.141 630.883H222.992L223.637 627.68H220.805ZM228.988 634.018C228.988 633.578 229.291 633.295 229.711 633.295C229.975 633.295 230.18 633.412 230.541 633.764C231.254 634.467 231.977 634.789 232.875 634.789C235.082 634.789 236.205 632.768 236.205 629.252H236.117C235.629 630.57 234.379 631.361 232.787 631.361C230.287 631.361 228.549 629.525 228.549 626.889C228.549 624.174 230.395 622.367 233.168 622.367C236.225 622.367 237.855 624.75 237.855 629.174C237.855 633.832 236.166 636.254 232.904 636.254C231.83 636.254 230.814 635.98 230.053 635.482C229.398 635.053 228.988 634.506 228.988 634.018ZM235.912 626.928C235.912 625.102 234.76 623.852 233.07 623.852C231.391 623.852 230.238 625.102 230.238 626.918C230.238 628.695 231.371 629.887 233.07 629.887C234.779 629.887 235.912 628.705 235.912 626.928ZM246.068 635.209V633.227H240.932C240.17 633.227 239.662 632.826 239.662 632.182C239.662 631.82 239.779 631.479 240.121 630.854C241.518 628.383 242.396 626.977 244.613 623.656C245.189 622.807 245.639 622.514 246.312 622.514C247.201 622.514 247.699 623.021 247.699 623.93V631.732H248.715C249.262 631.732 249.584 632.006 249.584 632.484C249.584 632.953 249.271 633.227 248.715 633.227H247.699V635.209C247.699 635.775 247.406 636.098 246.879 636.098C246.361 636.098 246.068 635.775 246.068 635.209ZM241.303 631.732H246.068V624.174H245.98C244.32 626.625 242.582 629.418 241.303 631.635V631.732ZM251.43 634.018C251.43 633.578 251.732 633.295 252.152 633.295C252.416 633.295 252.621 633.412 252.982 633.764C253.695 634.467 254.418 634.789 255.316 634.789C257.523 634.789 258.646 632.768 258.646 629.252H258.559C258.07 630.57 256.82 631.361 255.229 631.361C252.729 631.361 250.99 629.525 250.99 626.889C250.99 624.174 252.836 622.367 255.609 622.367C258.666 622.367 260.297 624.75 260.297 629.174C260.297 633.832 258.607 636.254 255.346 636.254C254.271 636.254 253.256 635.98 252.494 635.482C251.84 635.053 251.43 634.506 251.43 634.018ZM258.354 626.928C258.354 625.102 257.201 623.852 255.512 623.852C253.832 623.852 252.68 625.102 252.68 626.918C252.68 628.695 253.812 629.887 255.512 629.887C257.221 629.887 258.354 628.705 258.354 626.928ZM268.51 635.209V633.227H263.373C262.611 633.227 262.104 632.826 262.104 632.182C262.104 631.82 262.221 631.479 262.562 630.854C263.959 628.383 264.838 626.977 267.055 623.656C267.631 622.807 268.08 622.514 268.754 622.514C269.643 622.514 270.141 623.021 270.141 623.93V631.732H271.156C271.703 631.732 272.025 632.006 272.025 632.484C272.025 632.953 271.713 633.227 271.156 633.227H270.141V635.209C270.141 635.775 269.848 636.098 269.32 636.098C268.803 636.098 268.51 635.775 268.51 635.209ZM263.744 631.732H268.51V624.174H268.422C266.762 626.625 265.023 629.418 263.744 631.635V631.732ZM273.871 634.018C273.871 633.578 274.174 633.295 274.594 633.295C274.857 633.295 275.062 633.412 275.424 633.764C276.137 634.467 276.859 634.789 277.758 634.789C279.965 634.789 281.088 632.768 281.088 629.252H281C280.512 630.57 279.262 631.361 277.67 631.361C275.17 631.361 273.432 629.525 273.432 626.889C273.432 624.174 275.277 622.367 278.051 622.367C281.107 622.367 282.738 624.75 282.738 629.174C282.738 633.832 281.049 636.254 277.787 636.254C276.713 636.254 275.697 635.98 274.936 635.482C274.281 635.053 273.871 634.506 273.871 634.018ZM280.795 626.928C280.795 625.102 279.643 623.852 277.953 623.852C276.273 623.852 275.121 625.102 275.121 626.918C275.121 628.695 276.254 629.887 277.953 629.887C279.662 629.887 280.795 628.705 280.795 626.928ZM290.951 635.209V633.227H285.814C285.053 633.227 284.545 632.826 284.545 632.182C284.545 631.82 284.662 631.479 285.004 630.854C286.4 628.383 287.279 626.977 289.496 623.656C290.072 622.807 290.521 622.514 291.195 622.514C292.084 622.514 292.582 623.021 292.582 623.93V631.732H293.598C294.145 631.732 294.467 632.006 294.467 632.484C294.467 632.953 294.154 633.227 293.598 633.227H292.582V635.209C292.582 635.775 292.289 636.098 291.762 636.098C291.244 636.098 290.951 635.775 290.951 635.209ZM286.186 631.732H290.951V624.174H290.863C289.203 626.625 287.465 629.418 286.186 631.635V631.732Z" fill="black"/>
<path d="M372.055 635.316L372.699 632.201H369.896L369.203 635.58C369.125 635.961 368.842 636.176 368.51 636.176C368.148 636.176 367.885 635.922 367.885 635.541C367.885 635.473 367.895 635.365 367.904 635.316L368.549 632.201H367.328C366.801 632.201 366.566 631.908 366.566 631.518C366.566 631.127 366.801 630.854 367.328 630.854H368.822L369.467 627.699H368.334C367.797 627.699 367.562 627.416 367.562 627.025C367.562 626.635 367.797 626.361 368.334 626.361H369.73L370.385 623.168C370.463 622.826 370.746 622.631 371.049 622.631C371.43 622.631 371.703 622.924 371.703 623.275C371.703 623.334 371.693 623.432 371.684 623.48L371.088 626.361H373.881L374.535 623.168C374.613 622.826 374.896 622.631 375.209 622.631C375.58 622.631 375.854 622.924 375.854 623.275C375.854 623.334 375.844 623.432 375.834 623.48L375.238 626.361H376.547C377.084 626.361 377.318 626.625 377.318 627.016C377.318 627.416 377.084 627.699 376.547 627.699H374.965L374.32 630.854H375.551C376.088 630.854 376.322 631.127 376.322 631.518C376.322 631.908 376.078 632.201 375.551 632.201H374.047L373.354 635.58C373.275 635.961 372.992 636.176 372.66 636.176C372.299 636.176 372.035 635.922 372.035 635.541C372.035 635.473 372.045 635.365 372.055 635.316ZM370.805 627.68L370.141 630.883H372.992L373.637 627.68H370.805ZM379.203 634.555V624.115C379.203 623.08 379.652 622.67 380.775 622.67H386.439C386.967 622.67 387.309 622.963 387.309 623.432C387.309 623.9 386.967 624.193 386.439 624.193H380.902V628.451H386.098C386.625 628.451 386.957 628.734 386.957 629.203C386.957 629.672 386.625 629.945 386.098 629.945H380.902V634.477H386.439C386.967 634.477 387.309 634.779 387.309 635.248C387.309 635.717 386.967 636 386.43 636H380.775C379.652 636 379.203 635.59 379.203 634.555ZM389.223 629.594V629.105C389.223 625.062 390.951 622.387 393.969 622.387C396.986 622.387 398.705 625.062 398.705 629.105V629.594C398.705 633.627 396.977 636.283 393.959 636.283C390.951 636.283 389.223 633.637 389.223 629.594ZM390.932 629.115V629.574C390.932 632.826 392.094 634.809 393.969 634.809C395.844 634.809 397.006 632.826 397.006 629.574V629.115C397.006 625.863 395.834 623.871 393.959 623.871C392.094 623.871 390.932 625.863 390.932 629.115ZM401.215 634.555V624.115C401.215 623.08 401.664 622.67 402.787 622.67H408.451C408.979 622.67 409.32 622.963 409.32 623.432C409.32 623.9 408.979 624.193 408.451 624.193H402.914V628.451H408.109C408.637 628.451 408.969 628.734 408.969 629.203C408.969 629.672 408.637 629.945 408.109 629.945H402.914V634.477H408.451C408.979 634.477 409.32 634.779 409.32 635.248C409.32 635.717 408.979 636 408.441 636H402.787C401.664 636 401.215 635.59 401.215 634.555ZM411.234 629.594V629.105C411.234 625.062 412.963 622.387 415.98 622.387C418.998 622.387 420.717 625.062 420.717 629.105V629.594C420.717 633.627 418.988 636.283 415.971 636.283C412.963 636.283 411.234 633.637 411.234 629.594ZM412.943 629.115V629.574C412.943 632.826 414.105 634.809 415.98 634.809C417.855 634.809 419.018 632.826 419.018 629.574V629.115C419.018 625.863 417.846 623.871 415.971 623.871C414.105 623.871 412.943 625.863 412.943 629.115ZM423.227 634.555V624.115C423.227 623.08 423.676 622.67 424.799 622.67H430.463C430.99 622.67 431.332 622.963 431.332 623.432C431.332 623.9 430.99 624.193 430.463 624.193H424.926V628.451H430.121C430.648 628.451 430.98 628.734 430.98 629.203C430.98 629.672 430.648 629.945 430.121 629.945H424.926V634.477H430.463C430.99 634.477 431.332 634.779 431.332 635.248C431.332 635.717 430.99 636 430.453 636H424.799C423.676 636 423.227 635.59 423.227 634.555ZM433.246 629.594V629.105C433.246 625.062 434.975 622.387 437.992 622.387C441.01 622.387 442.729 625.062 442.729 629.105V629.594C442.729 633.627 441 636.283 437.982 636.283C434.975 636.283 433.246 633.637 433.246 629.594ZM434.955 629.115V629.574C434.955 632.826 436.117 634.809 437.992 634.809C439.867 634.809 441.029 632.826 441.029 629.574V629.115C441.029 625.863 439.857 623.871 437.982 623.871C436.117 623.871 434.955 625.863 434.955 629.115Z" fill="black"/>
<path d="M352 133C352 130.239 354.239 128 357 128H477C479.761 128 482 130.239 482 133V242C482 244.761 479.761 247 477 247H357C354.239 247 352 244.761 352 242V133Z" fill="#C6CAC0"/>
<path d="M501 133C501 130.239 503.239 128 506 128H626C628.761 128 631 130.239 631 133V242C631 244.761 628.761 247 626 247H506C503.239 247 501 244.761 501 242V133Z" fill="#627193"/>
<path d="M650 133C650 130.239 652.239 128 655 128H775C777.761 128 780 130.239 780 133V242C780 244.761 777.761 247 775 247H655C652.239 247 650 244.761 650 242V133Z" fill="#D1D7E3"/>
<path d="M382.055 279.316L382.699 276.201H379.896L379.203 279.58C379.125 279.961 378.842 280.176 378.51 280.176C378.148 280.176 377.885 279.922 377.885 279.541C377.885 279.473 377.895 279.365 377.904 279.316L378.549 276.201H377.328C376.801 276.201 376.566 275.908 376.566 275.518C376.566 275.127 376.801 274.854 377.328 274.854H378.822L379.467 271.699H378.334C377.797 271.699 377.562 271.416 377.562 271.025C377.562 270.635 377.797 270.361 378.334 270.361H379.73L380.385 267.168C380.463 266.826 380.746 266.631 381.049 266.631C381.43 266.631 381.703 266.924 381.703 267.275C381.703 267.334 381.693 267.432 381.684 267.48L381.088 270.361H383.881L384.535 267.168C384.613 266.826 384.896 266.631 385.209 266.631C385.58 266.631 385.854 266.924 385.854 267.275C385.854 267.334 385.844 267.432 385.834 267.48L385.238 270.361H386.547C387.084 270.361 387.318 270.625 387.318 271.016C387.318 271.416 387.084 271.699 386.547 271.699H384.965L384.32 274.854H385.551C386.088 274.854 386.322 275.127 386.322 275.518C386.322 275.908 386.078 276.201 385.551 276.201H384.047L383.354 279.58C383.275 279.961 382.992 280.176 382.66 280.176C382.299 280.176 382.035 279.922 382.035 279.541C382.035 279.473 382.045 279.365 382.055 279.316ZM380.805 271.68L380.141 274.883H382.992L383.637 271.68H380.805ZM388.695 274.395V272.275C388.695 268.574 390.609 266.387 393.91 266.387C395.531 266.387 396.801 266.904 397.738 267.861C398.393 268.545 398.812 269.404 398.812 269.971C398.812 270.449 398.52 270.732 398.07 270.732C397.689 270.732 397.445 270.576 397.172 270.059C396.391 268.604 395.385 267.93 393.979 267.93C391.684 267.93 390.404 269.512 390.404 272.285V274.385C390.404 277.188 391.684 278.75 393.979 278.75C395.404 278.75 396.479 278.086 397.211 276.66C397.484 276.172 397.689 275.986 398.051 275.986C398.539 275.986 398.812 276.289 398.812 276.748C398.812 277.344 398.373 278.213 397.709 278.877C396.791 279.795 395.512 280.283 393.91 280.283C390.6 280.283 388.695 278.135 388.695 274.395ZM400.727 273.721C400.727 269.023 402.533 266.416 405.775 266.416C406.82 266.416 407.826 266.699 408.568 267.207C409.213 267.627 409.604 268.164 409.604 268.613C409.604 269.033 409.301 269.346 408.881 269.346C408.607 269.346 408.402 269.238 408.051 268.896C407.348 268.203 406.615 267.891 405.746 267.891C403.568 267.891 402.416 269.805 402.387 273.457H402.465C402.914 272.266 404.311 271.426 405.834 271.426C408.314 271.426 410.053 273.213 410.053 275.762C410.053 278.447 408.217 280.273 405.502 280.273C403.852 280.273 402.533 279.59 401.732 278.33C401.059 277.256 400.727 275.742 400.727 273.721ZM402.631 275.82C402.631 277.568 403.842 278.809 405.57 278.809C407.25 278.809 408.373 277.627 408.373 275.83C408.373 274.053 407.24 272.881 405.502 272.881C403.812 272.881 402.631 274.092 402.631 275.82ZM411.957 274.395V272.275C411.957 268.574 413.871 266.387 417.172 266.387C418.793 266.387 420.062 266.904 421 267.861C421.654 268.545 422.074 269.404 422.074 269.971C422.074 270.449 421.781 270.732 421.332 270.732C420.951 270.732 420.707 270.576 420.434 270.059C419.652 268.604 418.646 267.93 417.24 267.93C414.945 267.93 413.666 269.512 413.666 272.285V274.385C413.666 277.188 414.945 278.75 417.24 278.75C418.666 278.75 419.74 278.086 420.473 276.66C420.746 276.172 420.951 275.986 421.312 275.986C421.801 275.986 422.074 276.289 422.074 276.748C422.074 277.344 421.635 278.213 420.971 278.877C420.053 279.795 418.773 280.283 417.172 280.283C413.861 280.283 411.957 278.135 411.957 274.395ZM424.389 280.127C423.9 280.127 423.578 279.844 423.578 279.395C423.578 279.199 423.627 279.014 423.705 278.779L427.719 267.559C427.963 266.875 428.305 266.562 428.93 266.562C429.555 266.562 429.896 266.875 430.141 267.559L434.154 278.779C434.232 278.994 434.281 279.199 434.281 279.385C434.281 279.844 433.959 280.127 433.461 280.127C432.992 280.127 432.729 279.902 432.543 279.326L431.42 275.996H426.43L425.307 279.326C425.121 279.912 424.857 280.127 424.389 280.127ZM426.889 274.619H430.961L428.959 268.682H428.891L426.889 274.619ZM435.648 274.395V272.275C435.648 268.574 437.562 266.387 440.863 266.387C442.484 266.387 443.754 266.904 444.691 267.861C445.346 268.545 445.766 269.404 445.766 269.971C445.766 270.449 445.473 270.732 445.023 270.732C444.643 270.732 444.398 270.576 444.125 270.059C443.344 268.604 442.338 267.93 440.932 267.93C438.637 267.93 437.357 269.512 437.357 272.285V274.385C437.357 277.188 438.637 278.75 440.932 278.75C442.357 278.75 443.432 278.086 444.164 276.66C444.438 276.172 444.643 275.986 445.004 275.986C445.492 275.986 445.766 276.289 445.766 276.748C445.766 277.344 445.326 278.213 444.662 278.877C443.744 279.795 442.465 280.283 440.863 280.283C437.553 280.283 435.648 278.135 435.648 274.395ZM447.66 273.594V273.105C447.66 269.062 449.389 266.387 452.406 266.387C455.424 266.387 457.143 269.062 457.143 273.105V273.594C457.143 277.627 455.414 280.283 452.396 280.283C449.389 280.283 447.66 277.637 447.66 273.594ZM449.369 273.115V273.574C449.369 276.826 450.531 278.809 452.406 278.809C454.281 278.809 455.443 276.826 455.443 273.574V273.115C455.443 269.863 454.271 267.871 452.396 267.871C450.531 267.871 449.369 269.863 449.369 273.115Z" fill="black"/>
<path d="M679.055 279.316L679.699 276.201H676.896L676.203 279.58C676.125 279.961 675.842 280.176 675.51 280.176C675.148 280.176 674.885 279.922 674.885 279.541C674.885 279.473 674.895 279.365 674.904 279.316L675.549 276.201H674.328C673.801 276.201 673.566 275.908 673.566 275.518C673.566 275.127 673.801 274.854 674.328 274.854H675.822L676.467 271.699H675.334C674.797 271.699 674.562 271.416 674.562 271.025C674.562 270.635 674.797 270.361 675.334 270.361H676.73L677.385 267.168C677.463 266.826 677.746 266.631 678.049 266.631C678.43 266.631 678.703 266.924 678.703 267.275C678.703 267.334 678.693 267.432 678.684 267.48L678.088 270.361H680.881L681.535 267.168C681.613 266.826 681.896 266.631 682.209 266.631C682.58 266.631 682.854 266.924 682.854 267.275C682.854 267.334 682.844 267.432 682.834 267.48L682.238 270.361H683.547C684.084 270.361 684.318 270.625 684.318 271.016C684.318 271.416 684.084 271.699 683.547 271.699H681.965L681.32 274.854H682.551C683.088 274.854 683.322 275.127 683.322 275.518C683.322 275.908 683.078 276.201 682.551 276.201H681.047L680.354 279.58C680.275 279.961 679.992 280.176 679.66 280.176C679.299 280.176 679.035 279.922 679.035 279.541C679.035 279.473 679.045 279.365 679.055 279.316ZM677.805 271.68L677.141 274.883H679.992L680.637 271.68H677.805ZM685.695 274.395V272.275C685.695 268.574 687.609 266.387 690.91 266.387C692.531 266.387 693.801 266.904 694.738 267.861C695.393 268.545 695.812 269.404 695.812 269.971C695.812 270.449 695.52 270.732 695.07 270.732C694.689 270.732 694.445 270.576 694.172 270.059C693.391 268.604 692.385 267.93 690.979 267.93C688.684 267.93 687.404 269.512 687.404 272.285V274.385C687.404 277.188 688.684 278.75 690.979 278.75C692.404 278.75 693.479 278.086 694.211 276.66C694.484 276.172 694.689 275.986 695.051 275.986C695.539 275.986 695.812 276.289 695.812 276.748C695.812 277.344 695.373 278.213 694.709 278.877C693.791 279.795 692.512 280.283 690.91 280.283C687.6 280.283 685.695 278.135 685.695 274.395ZM697.727 273.721C697.727 269.023 699.533 266.416 702.775 266.416C703.82 266.416 704.826 266.699 705.568 267.207C706.213 267.627 706.604 268.164 706.604 268.613C706.604 269.033 706.301 269.346 705.881 269.346C705.607 269.346 705.402 269.238 705.051 268.896C704.348 268.203 703.615 267.891 702.746 267.891C700.568 267.891 699.416 269.805 699.387 273.457H699.465C699.914 272.266 701.311 271.426 702.834 271.426C705.314 271.426 707.053 273.213 707.053 275.762C707.053 278.447 705.217 280.273 702.502 280.273C700.852 280.273 699.533 279.59 698.732 278.33C698.059 277.256 697.727 275.742 697.727 273.721ZM699.631 275.82C699.631 277.568 700.842 278.809 702.57 278.809C704.25 278.809 705.373 277.627 705.373 275.83C705.373 274.053 704.24 272.881 702.502 272.881C700.812 272.881 699.631 274.092 699.631 275.82ZM708.957 274.395V272.275C708.957 268.574 710.871 266.387 714.172 266.387C715.793 266.387 717.062 266.904 718 267.861C718.654 268.545 719.074 269.404 719.074 269.971C719.074 270.449 718.781 270.732 718.332 270.732C717.951 270.732 717.707 270.576 717.434 270.059C716.652 268.604 715.646 267.93 714.24 267.93C711.945 267.93 710.666 269.512 710.666 272.285V274.385C710.666 277.188 711.945 278.75 714.24 278.75C715.666 278.75 716.74 278.086 717.473 276.66C717.746 276.172 717.951 275.986 718.312 275.986C718.801 275.986 719.074 276.289 719.074 276.748C719.074 277.344 718.635 278.213 717.971 278.877C717.053 279.795 715.773 280.283 714.172 280.283C710.861 280.283 708.957 278.135 708.957 274.395ZM721.389 280.127C720.9 280.127 720.578 279.844 720.578 279.395C720.578 279.199 720.627 279.014 720.705 278.779L724.719 267.559C724.963 266.875 725.305 266.562 725.93 266.562C726.555 266.562 726.896 266.875 727.141 267.559L731.154 278.779C731.232 278.994 731.281 279.199 731.281 279.385C731.281 279.844 730.959 280.127 730.461 280.127C729.992 280.127 729.729 279.902 729.543 279.326L728.42 275.996H723.43L722.307 279.326C722.121 279.912 721.857 280.127 721.389 280.127ZM723.889 274.619H727.961L725.959 268.682H725.891L723.889 274.619ZM732.648 274.395V272.275C732.648 268.574 734.562 266.387 737.863 266.387C739.484 266.387 740.754 266.904 741.691 267.861C742.346 268.545 742.766 269.404 742.766 269.971C742.766 270.449 742.473 270.732 742.023 270.732C741.643 270.732 741.398 270.576 741.125 270.059C740.344 268.604 739.338 267.93 737.932 267.93C735.637 267.93 734.357 269.512 734.357 272.285V274.385C734.357 277.188 735.637 278.75 737.932 278.75C739.357 278.75 740.432 278.086 741.164 276.66C741.438 276.172 741.643 275.986 742.004 275.986C742.492 275.986 742.766 276.289 742.766 276.748C742.766 277.344 742.326 278.213 741.662 278.877C740.744 279.795 739.465 280.283 737.863 280.283C734.553 280.283 732.648 278.135 732.648 274.395ZM744.66 273.594V273.105C744.66 269.062 746.389 266.387 749.406 266.387C752.424 266.387 754.143 269.062 754.143 273.105V273.594C754.143 277.627 752.414 280.283 749.396 280.283C746.389 280.283 744.66 277.637 744.66 273.594ZM746.369 273.115V273.574C746.369 276.826 747.531 278.809 749.406 278.809C751.281 278.809 752.443 276.826 752.443 273.574V273.115C752.443 269.863 751.271 267.871 749.396 267.871C747.531 267.871 746.369 269.863 746.369 273.115Z" fill="black"/>
</svg>
