<svg width="836" height="740" viewBox="0 0 836 740" fill="none" xmlns="http://www.w3.org/2000/svg">
<rect width="836" height="740" fill="#F9F9F9"/>
<path d="M145.493 247.211C143.032 247.211 141.345 246.147 140.853 244.671C140.791 244.478 140.747 244.267 140.747 244.056C140.747 243.484 141.099 243.115 141.635 243.115C142.083 243.115 142.373 243.317 142.566 243.792C142.962 244.979 144.113 245.532 145.581 245.532C147.189 245.532 148.341 244.706 148.341 243.572C148.341 242.588 147.673 241.973 145.977 241.604L144.588 241.313C142.057 240.777 140.905 239.6 140.905 237.771C140.905 235.601 142.812 234.106 145.511 234.106C147.699 234.106 149.422 235.135 149.914 236.831C149.958 236.954 149.984 237.104 149.984 237.288C149.984 237.798 149.624 238.132 149.114 238.132C148.64 238.132 148.35 237.912 148.147 237.455C147.717 236.286 146.75 235.785 145.484 235.785C143.999 235.785 142.9 236.506 142.9 237.666C142.9 238.589 143.56 239.204 145.203 239.556L146.583 239.846C149.246 240.408 150.336 241.472 150.336 243.317C150.336 245.708 148.455 247.211 145.493 247.211ZM153.087 247.141C152.472 247.141 152.103 246.754 152.103 246.121V235.337C152.103 234.704 152.472 234.317 153.087 234.317H159.239C159.793 234.317 160.162 234.651 160.162 235.17C160.162 235.688 159.784 236.022 159.239 236.022H154.071V240.03H158.773C159.301 240.03 159.661 240.355 159.661 240.856C159.661 241.366 159.301 241.691 158.773 241.691H154.071V246.121C154.071 246.754 153.693 247.141 153.087 247.141ZM166.376 247.141C165.761 247.141 165.392 246.754 165.392 246.121V235.337C165.392 234.704 165.761 234.317 166.376 234.317H170.146C172.607 234.317 174.321 236.014 174.321 238.483C174.321 240.962 172.572 242.667 170.085 242.667H167.36V246.121C167.36 246.754 166.982 247.141 166.376 247.141ZM167.36 241.015H169.619C171.333 241.015 172.309 240.092 172.309 238.492C172.309 236.893 171.333 235.979 169.628 235.979H167.36V241.015ZM176.765 247.167C176.193 247.167 175.815 246.78 175.815 246.165V238.545C175.815 237.965 176.185 237.587 176.721 237.587C177.248 237.587 177.617 237.965 177.617 238.545V239.336H177.661C177.916 238.299 178.769 237.604 179.691 237.604C180.025 237.604 180.28 237.684 180.438 237.833C180.614 237.974 180.693 238.202 180.693 238.501C180.693 238.8 180.597 239.02 180.412 239.169C180.219 239.336 179.938 239.415 179.542 239.415C178.241 239.424 177.714 240.294 177.714 241.445V246.165C177.714 246.78 177.327 247.167 176.765 247.167ZM185.29 247.176C182.645 247.176 180.904 245.356 180.904 242.377C180.904 239.406 182.653 237.587 185.29 237.587C187.927 237.587 189.676 239.406 189.676 242.377C189.676 245.356 187.936 247.176 185.29 247.176ZM185.29 245.611C186.784 245.611 187.742 244.434 187.742 242.377C187.742 240.329 186.775 239.151 185.29 239.151C183.805 239.151 182.838 240.329 182.838 242.377C182.838 244.434 183.805 245.611 185.29 245.611ZM199.159 247.141C198.544 247.141 198.175 246.754 198.175 246.121V236.022H195.063C194.519 236.022 194.149 235.688 194.149 235.17C194.149 234.651 194.519 234.317 195.063 234.317H203.246C203.791 234.317 204.16 234.651 204.16 235.17C204.16 235.688 203.791 236.022 203.246 236.022H200.144V246.121C200.144 246.754 199.766 247.141 199.159 247.141ZM207.14 247.176C204.354 247.176 202.719 245.409 202.719 242.421C202.719 239.485 204.389 237.587 207.008 237.587C209.469 237.587 211.165 239.362 211.165 241.885C211.165 242.5 210.813 242.852 210.225 242.852H204.635V242.896C204.635 244.583 205.584 245.638 207.096 245.638C208.133 245.638 208.783 245.277 209.486 244.319C209.688 244.082 209.882 243.985 210.154 243.985C210.611 243.985 210.945 244.284 210.945 244.759C210.945 244.908 210.893 245.084 210.813 245.269C210.207 246.481 208.862 247.176 207.14 247.176ZM204.644 241.524H209.267C209.223 240.074 208.317 239.116 206.999 239.116C205.689 239.116 204.74 240.083 204.644 241.524ZM213.028 247.167C212.519 247.167 212.149 246.833 212.149 246.367C212.149 246.165 212.22 245.98 212.369 245.77L214.848 242.386L212.404 238.993C212.272 238.809 212.211 238.624 212.211 238.404C212.211 237.938 212.606 237.587 213.125 237.587C213.485 237.587 213.679 237.71 213.907 238.062L215.99 241.103H216.025L218.064 238.088C218.293 237.728 218.504 237.587 218.829 237.587C219.365 237.587 219.743 237.93 219.743 238.396C219.743 238.615 219.682 238.8 219.523 239.002L217.08 242.324L219.515 245.752C219.655 245.954 219.717 246.139 219.717 246.332C219.717 246.824 219.33 247.167 218.812 247.167C218.478 247.167 218.258 247.026 218.073 246.745L215.946 243.599H215.902L213.775 246.728C213.564 247.053 213.354 247.167 213.028 247.167ZM221.861 244.785V239.257H221.193C220.701 239.257 220.402 238.976 220.402 238.51C220.402 238.035 220.701 237.754 221.193 237.754H221.861V236.383C221.861 235.776 222.239 235.372 222.819 235.372C223.391 235.372 223.769 235.776 223.769 236.383V237.754H224.85C225.342 237.754 225.641 238.044 225.641 238.51C225.641 238.976 225.342 239.257 224.85 239.257H223.769V244.363C223.769 245.102 224.023 245.436 224.709 245.488L224.858 245.497C225.403 245.55 225.676 245.77 225.676 246.218C225.676 246.789 225.236 247.079 224.305 247.079H224.208C222.652 247.079 221.861 246.314 221.861 244.785ZM227.891 242.711C227.363 242.711 226.977 242.386 226.977 241.85C226.977 241.322 227.363 240.997 227.891 240.997H232.101C232.628 240.997 233.023 241.322 233.023 241.85C233.023 242.386 232.628 242.711 232.101 242.711H227.891ZM239.624 247.141C239.062 247.141 238.728 246.789 238.728 246.2V235.425C238.728 234.66 239.211 234.177 239.993 234.177C240.661 234.177 241.057 234.476 241.355 235.214L245.108 244.328H245.179L248.923 235.214C249.222 234.484 249.626 234.177 250.312 234.177C251.076 234.177 251.56 234.651 251.56 235.425V246.2C251.56 246.789 251.217 247.141 250.663 247.141C250.101 247.141 249.758 246.789 249.758 246.2V237.666H249.696L246.163 246.183C245.952 246.692 245.636 246.921 245.144 246.921C244.651 246.921 244.326 246.692 244.124 246.2L240.582 237.666H240.521V246.2C240.521 246.789 240.187 247.141 239.624 247.141ZM257.677 247.176C254.891 247.176 253.256 245.409 253.256 242.421C253.256 239.485 254.926 237.587 257.545 237.587C260.006 237.587 261.702 239.362 261.702 241.885C261.702 242.5 261.351 242.852 260.762 242.852H255.172V242.896C255.172 244.583 256.121 245.638 257.633 245.638C258.67 245.638 259.32 245.277 260.023 244.319C260.226 244.082 260.419 243.985 260.691 243.985C261.148 243.985 261.482 244.284 261.482 244.759C261.482 244.908 261.43 245.084 261.351 245.269C260.744 246.481 259.399 247.176 257.677 247.176ZM255.181 241.524H259.804C259.76 240.074 258.854 239.116 257.536 239.116C256.227 239.116 255.277 240.083 255.181 241.524ZM266.65 247.158C264.312 247.158 262.766 245.295 262.766 242.377C262.766 239.459 264.312 237.604 266.633 237.604C267.96 237.604 269.015 238.272 269.533 239.292H269.568V235.152C269.568 234.528 269.964 234.15 270.526 234.15C271.08 234.15 271.476 234.528 271.476 235.152V246.218C271.476 246.815 271.089 247.167 270.535 247.167C269.999 247.167 269.568 246.815 269.568 246.218V245.356H269.542C269.067 246.438 268.092 247.158 266.65 247.158ZM267.151 245.55C268.61 245.55 269.586 244.311 269.586 242.377C269.586 240.461 268.61 239.204 267.151 239.204C265.648 239.204 264.708 240.435 264.708 242.377C264.708 244.328 265.648 245.55 267.151 245.55ZM274.438 236.356C273.831 236.356 273.339 235.864 273.339 235.267C273.339 234.66 273.831 234.186 274.438 234.186C275.053 234.186 275.545 234.66 275.545 235.267C275.545 235.864 275.053 236.356 274.438 236.356ZM274.438 247.167C273.866 247.167 273.488 246.771 273.488 246.165V238.598C273.488 237.982 273.866 237.587 274.438 237.587C275.009 237.587 275.387 237.982 275.387 238.598V246.165C275.387 246.771 275.009 247.167 274.438 247.167ZM280.528 247.167C278.516 247.167 277.285 245.857 277.285 243.739V238.598C277.285 237.965 277.672 237.587 278.234 237.587C278.788 237.587 279.184 237.965 279.184 238.598V243.37C279.184 244.776 279.852 245.532 281.161 245.532C282.532 245.532 283.358 244.583 283.358 243.142V238.598C283.358 237.965 283.754 237.587 284.308 237.587C284.87 237.587 285.257 237.965 285.257 238.598V246.2C285.257 246.789 284.896 247.167 284.352 247.167C283.807 247.167 283.438 246.789 283.438 246.209V245.436H283.394C282.884 246.543 281.943 247.167 280.528 247.167ZM288.087 247.167C287.516 247.167 287.138 246.771 287.138 246.165V238.554C287.138 237.956 287.507 237.587 288.043 237.587C288.57 237.587 288.948 237.947 288.948 238.554V239.31H288.992C289.405 238.281 290.372 237.596 291.62 237.596C292.903 237.596 293.835 238.255 294.204 239.406H294.248C294.723 238.281 295.812 237.596 297.131 237.596C298.959 237.596 300.154 238.809 300.154 240.646V246.165C300.154 246.771 299.768 247.167 299.196 247.167C298.625 247.167 298.247 246.771 298.247 246.165V241.103C298.247 239.907 297.605 239.222 296.48 239.222C295.355 239.222 294.573 240.057 294.573 241.226V246.165C294.573 246.771 294.213 247.167 293.642 247.167C293.07 247.167 292.71 246.771 292.71 246.165V240.962C292.71 239.898 292.033 239.222 290.961 239.222C289.836 239.222 289.036 240.101 289.036 241.287V246.165C289.036 246.771 288.658 247.167 288.087 247.167ZM143.647 289.158C141.837 289.158 140.562 288.033 140.562 286.372C140.562 284.755 141.811 283.762 143.999 283.639L146.539 283.489V282.777C146.539 281.749 145.845 281.134 144.685 281.134C143.771 281.134 143.164 281.459 142.637 282.303C142.443 282.584 142.197 282.707 141.863 282.707C141.389 282.707 141.046 282.391 141.046 281.916C141.046 281.723 141.099 281.512 141.213 281.301C141.696 280.255 143.094 279.587 144.755 279.587C146.996 279.587 148.429 280.773 148.429 282.628V288.209C148.429 288.807 148.051 289.167 147.515 289.167C146.987 289.167 146.627 288.824 146.609 288.262V287.479H146.565C146.029 288.508 144.852 289.158 143.647 289.158ZM144.166 287.655C145.493 287.655 146.539 286.741 146.539 285.537V284.808L144.254 284.948C143.12 285.027 142.479 285.528 142.479 286.319C142.479 287.128 143.155 287.655 144.166 287.655ZM154.906 289.167C154.361 289.167 154.001 288.815 154.001 288.218V277.152C154.001 276.528 154.396 276.15 154.95 276.15C155.504 276.15 155.899 276.528 155.899 277.152V281.327H155.943C156.497 280.255 157.561 279.604 158.87 279.604C161.199 279.604 162.72 281.45 162.72 284.377C162.72 287.312 161.208 289.158 158.853 289.158C157.508 289.158 156.453 288.499 155.882 287.427H155.847V288.218C155.847 288.815 155.46 289.167 154.906 289.167ZM158.343 287.55C159.846 287.55 160.769 286.337 160.769 284.377C160.769 282.435 159.837 281.204 158.343 281.204C156.91 281.204 155.891 282.47 155.891 284.377C155.891 286.302 156.91 287.55 158.343 287.55ZM171.808 289.176C169.162 289.176 167.439 287.339 167.439 284.395C167.439 281.468 169.153 279.587 171.79 279.587C173.574 279.587 175.104 280.536 175.508 281.828C175.561 281.978 175.596 282.136 175.596 282.268C175.596 282.751 175.253 283.05 174.787 283.05C174.383 283.05 174.154 282.892 173.926 282.47C173.451 281.591 172.801 281.169 171.825 281.169C170.34 281.169 169.373 282.408 169.373 284.377C169.373 286.39 170.357 287.585 171.825 287.585C172.854 287.585 173.478 287.128 173.926 286.328C174.189 285.871 174.392 285.713 174.805 285.713C175.271 285.713 175.613 286.029 175.613 286.504C175.613 286.653 175.578 286.812 175.508 286.996C175.024 288.271 173.521 289.176 171.808 289.176ZM184.279 289.158C181.941 289.158 180.395 287.295 180.395 284.377C180.395 281.459 181.941 279.604 184.262 279.604C185.589 279.604 186.644 280.272 187.162 281.292H187.197V277.152C187.197 276.528 187.593 276.15 188.155 276.15C188.709 276.15 189.104 276.528 189.104 277.152V288.218C189.104 288.815 188.718 289.167 188.164 289.167C187.628 289.167 187.197 288.815 187.197 288.218V287.356H187.171C186.696 288.438 185.721 289.158 184.279 289.158ZM184.78 287.55C186.239 287.55 187.215 286.311 187.215 284.377C187.215 282.461 186.239 281.204 184.78 281.204C183.277 281.204 182.337 282.435 182.337 284.377C182.337 286.328 183.277 287.55 184.78 287.55ZM198.72 289.176C195.934 289.176 194.299 287.409 194.299 284.421C194.299 281.485 195.969 279.587 198.588 279.587C201.049 279.587 202.745 281.362 202.745 283.885C202.745 284.5 202.394 284.852 201.805 284.852H196.215V284.896C196.215 286.583 197.164 287.638 198.676 287.638C199.713 287.638 200.363 287.277 201.066 286.319C201.269 286.082 201.462 285.985 201.734 285.985C202.191 285.985 202.525 286.284 202.525 286.759C202.525 286.908 202.473 287.084 202.394 287.269C201.787 288.481 200.442 289.176 198.72 289.176ZM196.224 283.524H200.847C200.803 282.074 199.897 281.116 198.579 281.116C197.27 281.116 196.32 282.083 196.224 283.524ZM209.39 289.167C208.81 289.167 208.432 288.807 208.432 288.174V281.257H207.772C207.324 281.257 207.017 280.993 207.017 280.519C207.017 280.062 207.324 279.771 207.772 279.771H208.432V278.866C208.432 277.073 209.302 276.238 210.893 276.229C211.903 276.229 212.387 276.555 212.387 277.064C212.387 277.372 212.237 277.557 211.93 277.645C211.798 277.68 211.64 277.706 211.446 277.706C210.646 277.715 210.312 278.093 210.312 278.937V279.771H211.561C212.009 279.771 212.316 280.062 212.316 280.519C212.316 280.993 212.009 281.257 211.561 281.257H210.339V288.174C210.339 288.807 209.961 289.167 209.39 289.167ZM221.211 292.48C219.532 292.463 218.205 291.812 217.572 290.811C217.449 290.6 217.396 290.406 217.396 290.187C217.396 289.747 217.722 289.431 218.205 289.431C218.495 289.431 218.68 289.527 218.935 289.782C219.69 290.573 220.341 290.916 221.246 290.934C222.793 290.951 223.733 290.072 223.733 288.78V287.312H223.689C223.171 288.314 222.081 288.974 220.763 288.974C218.434 288.974 216.922 287.154 216.922 284.298C216.922 281.406 218.416 279.604 220.807 279.604C222.116 279.604 223.136 280.264 223.698 281.31H223.733V280.562C223.733 279.947 224.146 279.587 224.691 279.587C225.236 279.587 225.641 279.947 225.641 280.562V288.745C225.641 291.03 223.962 292.507 221.211 292.48ZM221.272 287.427C222.758 287.427 223.742 286.214 223.742 284.315C223.742 282.417 222.758 281.169 221.272 281.169C219.813 281.169 218.864 282.382 218.864 284.307C218.864 286.24 219.813 287.427 221.272 287.427ZM232.188 289.167C231.635 289.167 231.239 288.789 231.239 288.165V277.135C231.239 276.537 231.6 276.15 232.18 276.15C232.769 276.15 233.12 276.537 233.12 277.135V281.301H233.164C233.674 280.22 234.685 279.596 236.091 279.596C238.121 279.596 239.334 280.949 239.334 283.041V288.165C239.334 288.789 238.938 289.167 238.376 289.167C237.822 289.167 237.427 288.789 237.427 288.165V283.41C237.427 282.048 236.741 281.23 235.405 281.23C233.999 281.23 233.138 282.197 233.138 283.656V288.165C233.138 288.789 232.742 289.167 232.188 289.167ZM245.838 278.356C245.231 278.356 244.739 277.864 244.739 277.267C244.739 276.66 245.231 276.186 245.838 276.186C246.453 276.186 246.945 276.66 246.945 277.267C246.945 277.864 246.453 278.356 245.838 278.356ZM245.838 289.167C245.267 289.167 244.889 288.771 244.889 288.165V280.598C244.889 279.982 245.267 279.587 245.838 279.587C246.409 279.587 246.787 279.982 246.787 280.598V288.165C246.787 288.771 246.409 289.167 245.838 289.167ZM253.388 278.356C252.781 278.356 252.289 277.864 252.289 277.267C252.289 276.66 252.781 276.186 253.388 276.186C254.012 276.186 254.504 276.66 254.504 277.267C254.504 277.864 254.012 278.356 253.388 278.356ZM253.388 279.587C253.95 279.587 254.337 279.965 254.337 280.598V289.624C254.337 291.303 253.423 292.208 251.876 292.208H251.858C251.146 292.208 250.716 291.9 250.716 291.408C250.716 291.013 250.944 290.758 251.463 290.679L251.542 290.67C252.192 290.564 252.438 290.204 252.438 289.475V280.598C252.438 279.965 252.834 279.587 253.388 279.587ZM260.964 289.167C260.41 289.167 260.015 288.789 260.015 288.165V277.152C260.015 276.528 260.41 276.15 260.964 276.15C261.518 276.15 261.913 276.528 261.913 277.152V283.7H261.931L265.771 279.938C266.009 279.684 266.211 279.587 266.492 279.587C266.958 279.587 267.318 279.947 267.318 280.396C267.318 280.668 267.239 280.844 266.993 281.072L264.137 283.779L267.274 287.664C267.477 287.919 267.529 288.095 267.529 288.332C267.529 288.815 267.151 289.167 266.642 289.167C266.29 289.167 266.079 289.053 265.824 288.701L262.757 284.904L261.913 285.695V288.165C261.913 288.789 261.518 289.167 260.964 289.167ZM273.708 289.167C273.154 289.167 272.759 288.789 272.759 288.165V277.152C272.759 276.528 273.154 276.15 273.708 276.15C274.262 276.15 274.657 276.528 274.657 277.152V288.165C274.657 288.789 274.262 289.167 273.708 289.167ZM281.214 289.167C280.643 289.167 280.265 288.771 280.265 288.165V280.554C280.265 279.956 280.634 279.587 281.17 279.587C281.697 279.587 282.075 279.947 282.075 280.554V281.31H282.119C282.532 280.281 283.499 279.596 284.747 279.596C286.03 279.596 286.962 280.255 287.331 281.406H287.375C287.85 280.281 288.939 279.596 290.258 279.596C292.086 279.596 293.281 280.809 293.281 282.646V288.165C293.281 288.771 292.895 289.167 292.323 289.167C291.752 289.167 291.374 288.771 291.374 288.165V283.103C291.374 281.907 290.732 281.222 289.607 281.222C288.482 281.222 287.7 282.057 287.7 283.226V288.165C287.7 288.771 287.34 289.167 286.769 289.167C286.197 289.167 285.837 288.771 285.837 288.165V282.962C285.837 281.898 285.16 281.222 284.088 281.222C282.963 281.222 282.163 282.101 282.163 283.287V288.165C282.163 288.771 281.785 289.167 281.214 289.167ZM299.724 289.167C299.161 289.167 298.774 288.789 298.774 288.165V280.545C298.774 279.965 299.126 279.587 299.68 279.587C300.225 279.587 300.603 279.965 300.603 280.554V281.283H300.646C301.147 280.229 302.114 279.596 303.538 279.596C305.577 279.596 306.746 280.896 306.746 283.015V288.165C306.746 288.789 306.351 289.167 305.788 289.167C305.234 289.167 304.839 288.789 304.839 288.165V283.384C304.839 281.995 304.188 281.23 302.87 281.23C301.534 281.23 300.673 282.18 300.673 283.612V288.165C300.673 288.789 300.277 289.167 299.724 289.167ZM316.212 289.176C313.566 289.176 311.826 287.356 311.826 284.377C311.826 281.406 313.575 279.587 316.212 279.587C318.849 279.587 320.598 281.406 320.598 284.377C320.598 287.356 318.857 289.176 316.212 289.176ZM316.212 287.611C317.706 287.611 318.664 286.434 318.664 284.377C318.664 282.329 317.697 281.151 316.212 281.151C314.727 281.151 313.76 282.329 313.76 284.377C313.76 286.434 314.727 287.611 316.212 287.611ZM326.671 292.278C326.108 292.278 325.722 291.892 325.722 291.268V280.562C325.722 279.956 326.1 279.587 326.636 279.587C327.172 279.587 327.559 279.956 327.559 280.562V281.345H327.594C328.139 280.281 329.202 279.604 330.538 279.604C332.885 279.604 334.432 281.45 334.432 284.377C334.432 287.304 332.894 289.158 330.573 289.158C329.246 289.158 328.191 288.508 327.664 287.479H327.62V291.268C327.62 291.892 327.225 292.278 326.671 292.278ZM330.037 287.55C331.54 287.55 332.48 286.319 332.48 284.377C332.48 282.443 331.54 281.204 330.037 281.204C328.587 281.204 327.611 282.47 327.611 284.377C327.611 286.302 328.578 287.55 330.037 287.55ZM342.983 289.158C340.663 289.158 339.143 287.295 339.143 284.377C339.143 281.459 340.663 279.604 343.027 279.604C344.363 279.604 345.418 280.281 345.963 281.345H346.007V280.562C346.007 279.974 346.358 279.587 346.93 279.587C347.501 279.587 347.853 279.982 347.853 280.562V291.268C347.853 291.892 347.457 292.278 346.903 292.278C346.341 292.278 345.945 291.892 345.945 291.268V287.444H345.91C345.383 288.481 344.302 289.158 342.983 289.158ZM343.493 287.55C344.952 287.55 345.954 286.302 345.954 284.377C345.954 282.461 344.952 281.204 343.493 281.204C342.008 281.204 341.085 282.417 341.085 284.377C341.085 286.337 342.008 287.55 343.493 287.55ZM354.339 289.167C353.768 289.167 353.39 288.78 353.39 288.165V280.545C353.39 279.965 353.759 279.587 354.295 279.587C354.822 279.587 355.191 279.965 355.191 280.545V281.336H355.235C355.49 280.299 356.343 279.604 357.266 279.604C357.6 279.604 357.854 279.684 358.013 279.833C358.188 279.974 358.268 280.202 358.268 280.501C358.268 280.8 358.171 281.02 357.986 281.169C357.793 281.336 357.512 281.415 357.116 281.415C355.815 281.424 355.288 282.294 355.288 283.445V288.165C355.288 288.78 354.901 289.167 354.339 289.167ZM366.362 289.176C364.543 289.176 363.207 288.429 362.768 287.295C362.706 287.154 362.688 287.022 362.688 286.899C362.688 286.425 363.031 286.144 363.506 286.144C363.822 286.144 364.095 286.293 364.332 286.645C364.807 287.392 365.36 287.726 366.459 287.726C367.54 287.726 368.27 287.26 368.27 286.495C368.27 285.889 367.909 285.563 366.916 285.326L365.457 284.983C363.664 284.562 362.785 283.683 362.785 282.364C362.785 280.694 364.235 279.587 366.433 279.587C368.103 279.587 369.474 280.439 369.737 281.529C369.755 281.635 369.772 281.723 369.772 281.811C369.772 282.232 369.509 282.514 369.034 282.514C368.727 282.514 368.454 282.408 368.27 282.109C367.856 281.406 367.294 281.037 366.362 281.037C365.343 281.037 364.64 281.538 364.64 282.259C364.64 282.839 365.088 283.243 366.063 283.472L367.496 283.806C369.438 284.254 370.186 284.948 370.186 286.319C370.186 288.033 368.647 289.176 366.362 289.176ZM375.863 286.785V281.257H375.195C374.703 281.257 374.404 280.976 374.404 280.51C374.404 280.035 374.703 279.754 375.195 279.754H375.863V278.383C375.863 277.776 376.241 277.372 376.821 277.372C377.393 277.372 377.771 277.776 377.771 278.383V279.754H378.852C379.344 279.754 379.643 280.044 379.643 280.51C379.643 280.976 379.344 281.257 378.852 281.257H377.771V286.363C377.771 287.102 378.025 287.436 378.711 287.488L378.86 287.497C379.405 287.55 379.678 287.77 379.678 288.218C379.678 288.789 379.238 289.079 378.307 289.079H378.21C376.654 289.079 375.863 288.314 375.863 286.785ZM387.948 289.167C385.936 289.167 384.705 287.857 384.705 285.739V280.598C384.705 279.965 385.092 279.587 385.654 279.587C386.208 279.587 386.604 279.965 386.604 280.598V285.37C386.604 286.776 387.271 287.532 388.581 287.532C389.952 287.532 390.778 286.583 390.778 285.142V280.598C390.778 279.965 391.174 279.587 391.728 279.587C392.29 279.587 392.677 279.965 392.677 280.598V288.2C392.677 288.789 392.316 289.167 391.771 289.167C391.227 289.167 390.857 288.789 390.857 288.209V287.436H390.813C390.304 288.543 389.363 289.167 387.948 289.167ZM401.773 289.167C401.097 289.167 400.728 288.886 400.464 288.2L397.722 280.984C397.66 280.817 397.616 280.633 397.616 280.457C397.616 279.93 398.021 279.587 398.574 279.587C399.014 279.587 399.312 279.824 399.471 280.334L401.765 287.146H401.8L404.094 280.316C404.252 279.824 404.551 279.587 404.981 279.587C405.526 279.587 405.913 279.947 405.913 280.448C405.913 280.615 405.878 280.8 405.816 280.958L403.074 288.2C402.828 288.868 402.424 289.167 401.773 289.167ZM413.63 289.167C413.006 289.167 412.654 288.877 412.461 288.209L410.352 280.94C410.281 280.729 410.255 280.562 410.255 280.404C410.255 279.912 410.624 279.587 411.178 279.587C411.652 279.587 411.934 279.842 412.057 280.378L413.718 287.031H413.753L415.511 280.448C415.643 279.886 416.021 279.587 416.601 279.587C417.172 279.587 417.541 279.886 417.673 280.448L419.439 287.031H419.483L421.145 280.378C421.268 279.842 421.54 279.587 422.015 279.587C422.568 279.587 422.929 279.912 422.929 280.404C422.929 280.562 422.902 280.721 422.841 280.94L420.731 288.209C420.547 288.859 420.16 289.167 419.536 289.167C418.877 289.167 418.508 288.886 418.332 288.209L416.601 282.074H416.557L414.843 288.209C414.667 288.859 414.271 289.167 413.63 289.167ZM428.413 289.167C427.903 289.167 427.534 288.833 427.534 288.367C427.534 288.165 427.604 287.98 427.754 287.77L430.232 284.386L427.789 280.993C427.657 280.809 427.596 280.624 427.596 280.404C427.596 279.938 427.991 279.587 428.51 279.587C428.87 279.587 429.063 279.71 429.292 280.062L431.375 283.103H431.41L433.449 280.088C433.678 279.728 433.889 279.587 434.214 279.587C434.75 279.587 435.128 279.93 435.128 280.396C435.128 280.615 435.066 280.8 434.908 281.002L432.465 284.324L434.899 287.752C435.04 287.954 435.102 288.139 435.102 288.332C435.102 288.824 434.715 289.167 434.196 289.167C433.862 289.167 433.643 289.026 433.458 288.745L431.331 285.599H431.287L429.16 288.728C428.949 289.053 428.738 289.167 428.413 289.167ZM441.491 292.445C440.612 292.445 440.129 292.12 440.129 291.531C440.129 291.127 440.41 290.863 440.867 290.863C441.069 290.863 441.14 290.872 441.359 290.872C441.887 290.872 442.423 290.582 442.766 289.633L442.941 289.097L439.848 281.002C439.777 280.809 439.742 280.615 439.742 280.466C439.742 279.947 440.155 279.587 440.709 279.587C441.184 279.587 441.456 279.789 441.623 280.316L443.979 287.277H444.005L446.369 280.316C446.527 279.798 446.791 279.587 447.274 279.587C447.819 279.587 448.197 279.947 448.197 280.457C448.197 280.606 448.162 280.8 448.101 280.984L444.893 289.466C444.075 291.689 443.205 292.445 441.491 292.445ZM453.849 289C453.295 289 452.926 288.666 452.926 288.147C452.926 287.857 453.005 287.673 453.225 287.4L457.865 281.301V281.266H453.673C453.163 281.266 452.864 280.993 452.864 280.51C452.864 280.035 453.154 279.754 453.673 279.754H459.034C459.676 279.754 460.062 280.097 460.062 280.668C460.062 280.967 459.957 281.195 459.685 281.564L455.237 287.453V287.488H459.403C459.922 287.488 460.212 287.761 460.212 288.244C460.212 288.728 459.913 289 459.403 289H453.849ZM141.494 331.141C140.905 331.141 140.51 330.78 140.51 330.244C140.51 330.095 140.545 329.901 140.633 329.664L144.491 319.205C144.746 318.502 145.177 318.177 145.871 318.177C146.557 318.177 146.979 318.493 147.242 319.196L151.109 329.664C151.197 329.91 151.232 330.077 151.232 330.244C151.232 330.763 150.819 331.141 150.248 331.141C149.721 331.141 149.431 330.895 149.255 330.332L148.288 327.599H143.437L142.479 330.323C142.294 330.895 142.004 331.141 141.494 331.141ZM143.938 325.99H147.787L145.88 320.427H145.827L143.938 325.99ZM157.552 331C156.937 331 156.567 330.613 156.567 329.98V319.337C156.567 318.704 156.937 318.317 157.552 318.317H161.63C163.88 318.317 165.356 319.565 165.356 321.481C165.356 322.826 164.363 324.03 163.098 324.241V324.312C164.82 324.505 165.98 325.727 165.98 327.414C165.98 329.646 164.354 331 161.656 331H157.552ZM158.536 323.714H160.742C162.447 323.714 163.388 323.011 163.388 321.754C163.388 320.576 162.579 319.926 161.155 319.926H158.536V323.714ZM158.536 329.392H161.252C163.027 329.392 163.968 328.662 163.968 327.291C163.968 325.92 163.001 325.217 161.138 325.217H158.536V329.392ZM176.703 331.211C173.117 331.211 170.876 328.697 170.876 324.654C170.876 320.638 173.144 318.106 176.686 318.106C179.015 318.106 180.878 319.24 181.669 321.112C181.792 321.367 181.854 321.631 181.854 321.868C181.854 322.396 181.502 322.738 180.975 322.738C180.509 322.738 180.201 322.51 179.981 322C179.393 320.585 178.145 319.829 176.686 319.829C174.383 319.829 172.889 321.719 172.889 324.654C172.889 327.616 174.365 329.488 176.694 329.488C178.241 329.488 179.428 328.829 180.017 327.458C180.228 326.992 180.482 326.799 180.913 326.799C181.449 326.799 181.818 327.168 181.818 327.687C181.818 327.959 181.748 328.214 181.607 328.504C180.79 330.218 179.059 331.211 176.703 331.211ZM188.489 331C187.874 331 187.505 330.613 187.505 329.98V319.337C187.505 318.704 187.874 318.317 188.489 318.317H191.979C195.749 318.317 197.981 320.638 197.981 324.637C197.981 328.645 195.758 331 191.979 331H188.489ZM189.474 329.295H191.794C194.483 329.295 195.969 327.651 195.969 324.654C195.969 321.666 194.475 320.014 191.794 320.014H189.474V329.295ZM204.503 331C203.888 331 203.519 330.613 203.519 329.98V319.337C203.519 318.704 203.888 318.317 204.503 318.317H210.796C211.341 318.317 211.71 318.651 211.71 319.17C211.71 319.688 211.341 320.022 210.796 320.022H205.487V323.723H210.506C211.024 323.723 211.385 324.039 211.385 324.54C211.385 325.032 211.033 325.357 210.506 325.357H205.487V329.295H210.796C211.341 329.295 211.71 329.629 211.71 330.147C211.71 330.666 211.341 331 210.796 331H204.503ZM218.231 331.141C217.616 331.141 217.247 330.754 217.247 330.121V319.337C217.247 318.704 217.616 318.317 218.231 318.317H224.384C224.938 318.317 225.307 318.651 225.307 319.17C225.307 319.688 224.929 320.022 224.384 320.022H219.216V324.03H223.918C224.445 324.03 224.806 324.355 224.806 324.856C224.806 325.366 224.445 325.691 223.918 325.691H219.216V330.121C219.216 330.754 218.838 331.141 218.231 331.141ZM235.994 331.211C232.364 331.211 230.079 328.671 230.079 324.602C230.079 320.603 232.355 318.106 235.968 318.106C238.332 318.106 240.23 319.284 240.934 320.98C241.048 321.262 241.074 321.481 241.074 321.701C241.074 322.22 240.731 322.571 240.195 322.571C239.747 322.571 239.457 322.36 239.211 321.868C238.569 320.523 237.444 319.829 235.977 319.829C233.551 319.829 232.092 321.604 232.092 324.584C232.092 327.616 233.595 329.488 236.012 329.488C238.068 329.488 239.492 328.17 239.519 326.245V326.025H236.961C236.451 326.025 236.1 325.709 236.1 325.234C236.1 324.751 236.451 324.435 236.961 324.435H240.477C241.083 324.435 241.461 324.821 241.461 325.463V325.779C241.461 329.128 239.448 331.211 235.994 331.211ZM248.026 331.141C247.411 331.141 247.042 330.754 247.042 330.121V319.196C247.042 318.563 247.411 318.177 248.026 318.177C248.633 318.177 249.011 318.563 249.011 319.196V323.679H255.523V319.196C255.523 318.563 255.893 318.177 256.508 318.177C257.114 318.177 257.492 318.563 257.492 319.196V330.121C257.492 330.754 257.114 331.141 256.508 331.141C255.893 331.141 255.523 330.754 255.523 330.121V325.384H249.011V330.121C249.011 330.754 248.633 331.141 248.026 331.141ZM264.462 331.141C263.847 331.141 263.478 330.754 263.478 330.121V319.196C263.478 318.563 263.847 318.177 264.462 318.177C265.068 318.177 265.446 318.563 265.446 319.196V330.121C265.446 330.754 265.068 331.141 264.462 331.141ZM274.446 331.211C272.715 331.211 271.344 330.358 270.825 328.979C270.711 328.662 270.641 328.407 270.641 328.056C270.641 327.458 271.001 327.089 271.563 327.089C272.064 327.089 272.363 327.344 272.521 327.924C272.794 328.908 273.471 329.453 274.429 329.453C275.721 329.453 276.424 328.671 276.424 327.229V319.196C276.424 318.563 276.793 318.177 277.408 318.177C278.015 318.177 278.393 318.563 278.393 319.196V327.238C278.393 329.752 276.916 331.211 274.446 331.211ZM285.397 331.141C284.782 331.141 284.413 330.754 284.413 330.121V319.196C284.413 318.563 284.782 318.177 285.397 318.177C286.004 318.177 286.382 318.563 286.382 319.196V324.294H286.461L291.796 318.572C292.06 318.282 292.297 318.168 292.604 318.168C293.141 318.168 293.527 318.563 293.527 319.073C293.527 319.319 293.431 319.53 293.22 319.759L289.168 323.969L293.65 329.383C293.896 329.682 294.002 329.954 294.002 330.2C294.002 330.736 293.589 331.149 293.053 331.149C292.666 331.149 292.411 331.009 292.112 330.64L287.735 325.322L286.382 326.772V330.121C286.382 330.754 286.004 331.141 285.397 331.141ZM300.427 331C299.812 331 299.442 330.613 299.442 329.98V319.196C299.442 318.563 299.812 318.177 300.427 318.177C301.033 318.177 301.411 318.563 301.411 319.196V329.295H306.544C307.089 329.295 307.458 329.629 307.458 330.147C307.458 330.666 307.089 331 306.544 331H300.427ZM313.558 331.141C312.995 331.141 312.661 330.789 312.661 330.2V319.425C312.661 318.66 313.145 318.177 313.927 318.177C314.595 318.177 314.99 318.476 315.289 319.214L319.042 328.328H319.112L322.856 319.214C323.155 318.484 323.56 318.177 324.245 318.177C325.01 318.177 325.493 318.651 325.493 319.425V330.2C325.493 330.789 325.15 331.141 324.597 331.141C324.034 331.141 323.691 330.789 323.691 330.2V321.666H323.63L320.097 330.183C319.886 330.692 319.569 330.921 319.077 330.921C318.585 330.921 318.26 330.692 318.058 330.2L314.516 321.666H314.454V330.2C314.454 330.789 314.12 331.141 313.558 331.141ZM332.445 331.141C331.848 331.141 331.487 330.763 331.487 330.139V319.24C331.487 318.59 331.892 318.177 332.542 318.177C333.008 318.177 333.28 318.335 333.605 318.792L339.846 327.669H339.916V319.179C339.916 318.555 340.285 318.177 340.874 318.177C341.472 318.177 341.832 318.555 341.832 319.179V330.121C341.832 330.763 341.454 331.141 340.795 331.141C340.312 331.141 340.057 330.991 339.731 330.534L333.482 321.657H333.403V330.139C333.403 330.763 333.043 331.141 332.445 331.141ZM353.319 331.211C349.663 331.211 347.378 328.697 347.378 324.663C347.378 320.629 349.663 318.106 353.319 318.106C356.967 318.106 359.261 320.629 359.261 324.663C359.261 328.697 356.967 331.211 353.319 331.211ZM353.319 329.479C355.728 329.479 357.239 327.616 357.239 324.663C357.239 321.701 355.728 319.838 353.319 319.838C350.911 319.838 349.391 321.701 349.391 324.663C349.391 327.616 350.911 329.479 353.319 329.479ZM365.782 331.141C365.167 331.141 364.798 330.754 364.798 330.121V319.337C364.798 318.704 365.167 318.317 365.782 318.317H369.553C372.014 318.317 373.728 320.014 373.728 322.483C373.728 324.962 371.979 326.667 369.491 326.667H366.767V330.121C366.767 330.754 366.389 331.141 365.782 331.141ZM366.767 325.015H369.025C370.739 325.015 371.715 324.092 371.715 322.492C371.715 320.893 370.739 319.979 369.034 319.979H366.767V325.015ZM384.591 331.211C380.935 331.211 378.649 328.706 378.649 324.663C378.649 320.638 380.935 318.106 384.591 318.106C388.238 318.106 390.532 320.638 390.532 324.663C390.532 327.036 389.741 328.899 388.326 329.998L389.205 331.22C389.354 331.431 389.407 331.58 389.407 331.809C389.407 332.274 389.047 332.608 388.555 332.608C388.238 332.608 388.01 332.477 387.808 332.187L386.841 330.833C386.164 331.088 385.408 331.211 384.591 331.211ZM384.591 329.488C385.013 329.488 385.408 329.427 385.777 329.312L385.004 328.231C384.854 328.029 384.802 327.845 384.802 327.66C384.802 327.194 385.145 326.869 385.61 326.869C385.927 326.869 386.12 326.975 386.322 327.247L387.157 328.39C388.019 327.59 388.511 326.298 388.511 324.663C388.511 321.701 386.999 319.829 384.591 319.829C382.183 319.829 380.662 321.701 380.662 324.663C380.662 327.616 382.183 329.488 384.591 329.488ZM397.054 331.167C396.447 331.167 396.069 330.78 396.069 330.147V319.337C396.069 318.704 396.438 318.317 397.054 318.317H400.982C403.593 318.317 405.219 319.829 405.219 322.193C405.219 323.89 404.322 325.261 402.802 325.797L404.946 329.585C405.104 329.857 405.157 330.042 405.157 330.262C405.157 330.78 404.727 331.167 404.155 331.167C403.698 331.167 403.461 331 403.171 330.481L400.789 326.122H398.038V330.147C398.038 330.78 397.651 331.167 397.054 331.167ZM398.038 324.531H400.798C402.318 324.531 403.188 323.696 403.188 322.246C403.188 320.831 402.266 319.97 400.745 319.97H398.038V324.531ZM415.106 331.211C412.646 331.211 410.958 330.147 410.466 328.671C410.404 328.478 410.36 328.267 410.36 328.056C410.36 327.484 410.712 327.115 411.248 327.115C411.696 327.115 411.986 327.317 412.18 327.792C412.575 328.979 413.727 329.532 415.194 329.532C416.803 329.532 417.954 328.706 417.954 327.572C417.954 326.588 417.286 325.973 415.59 325.604L414.201 325.313C411.67 324.777 410.519 323.6 410.519 321.771C410.519 319.601 412.426 318.106 415.124 318.106C417.312 318.106 419.035 319.135 419.527 320.831C419.571 320.954 419.598 321.104 419.598 321.288C419.598 321.798 419.237 322.132 418.728 322.132C418.253 322.132 417.963 321.912 417.761 321.455C417.33 320.286 416.363 319.785 415.098 319.785C413.612 319.785 412.514 320.506 412.514 321.666C412.514 322.589 413.173 323.204 414.816 323.556L416.196 323.846C418.859 324.408 419.949 325.472 419.949 327.317C419.949 329.708 418.068 331.211 415.106 331.211ZM429.503 331.141C428.888 331.141 428.519 330.754 428.519 330.121V320.022H425.407C424.862 320.022 424.493 319.688 424.493 319.17C424.493 318.651 424.862 318.317 425.407 318.317H433.59C434.135 318.317 434.504 318.651 434.504 319.17C434.504 319.688 434.135 320.022 433.59 320.022H430.487V330.121C430.487 330.754 430.109 331.141 429.503 331.141ZM444.761 331.211C441.579 331.211 439.628 329.277 439.628 326.544V319.196C439.628 318.563 439.997 318.177 440.612 318.177C441.219 318.177 441.597 318.563 441.597 319.196V326.377C441.597 328.188 442.739 329.462 444.761 329.462C446.782 329.462 447.934 328.188 447.934 326.377V319.196C447.934 318.563 448.303 318.177 448.918 318.177C449.524 318.177 449.894 318.563 449.894 319.196V326.544C449.894 329.277 447.942 331.211 444.761 331.211ZM460.546 331.141C459.852 331.141 459.456 330.842 459.192 330.121L455.193 319.618C455.123 319.416 455.088 319.24 455.088 319.064C455.088 318.537 455.492 318.177 456.09 318.177C456.591 318.177 456.898 318.405 457.065 318.915L460.537 328.785H460.59L464.062 318.906C464.237 318.388 464.51 318.177 465.011 318.177C465.6 318.177 466.013 318.546 466.013 319.056C466.013 319.223 465.978 319.398 465.907 319.592L461.899 330.13C461.627 330.851 461.24 331.141 460.546 331.141ZM474.775 331.141C474.169 331.141 473.835 330.842 473.65 330.165L470.706 319.662C470.645 319.425 470.618 319.24 470.618 319.064C470.618 318.528 471.005 318.177 471.585 318.177C472.104 318.177 472.42 318.458 472.543 318.994L474.828 328.249H474.898L477.377 319.17C477.562 318.467 477.896 318.177 478.502 318.177C479.091 318.177 479.434 318.476 479.609 319.144L482.097 328.249H482.167L484.443 318.994C484.575 318.449 484.9 318.177 485.41 318.177C485.99 318.177 486.377 318.528 486.377 319.064C486.377 319.24 486.351 319.425 486.28 319.662L483.345 330.174C483.151 330.842 482.817 331.141 482.22 331.141C481.596 331.141 481.262 330.859 481.068 330.174L478.537 321.438H478.449L475.927 330.174C475.733 330.851 475.391 331.141 474.775 331.141ZM492.38 331.141C491.853 331.141 491.439 330.763 491.439 330.288C491.439 330.06 491.51 329.857 491.677 329.62L495.21 324.646V324.584L491.773 319.794C491.58 319.539 491.519 319.337 491.519 319.1C491.519 318.572 491.958 318.177 492.529 318.177C492.907 318.177 493.136 318.326 493.417 318.739L496.52 323.222H496.59L499.763 318.687C500.018 318.317 500.211 318.177 500.58 318.177C501.107 318.177 501.547 318.555 501.547 319.021C501.547 319.249 501.477 319.451 501.31 319.688L497.68 324.654V324.707L501.195 329.576C501.354 329.787 501.433 330.007 501.433 330.244C501.433 330.754 501.002 331.141 500.457 331.141C500.088 331.141 499.859 331 499.604 330.64L496.44 326.166H496.379L493.215 330.631C492.942 331.018 492.749 331.141 492.38 331.141ZM511.707 331.141C511.101 331.141 510.723 330.754 510.723 330.121V325.806L506.706 319.715C506.557 319.495 506.504 319.293 506.504 319.073C506.504 318.555 506.926 318.177 507.479 318.177C507.884 318.177 508.112 318.326 508.358 318.73L511.689 323.916H511.751L515.082 318.73C515.319 318.335 515.565 318.177 515.952 318.177C516.497 318.177 516.919 318.555 516.919 319.064C516.919 319.284 516.866 319.486 516.717 319.715L512.691 325.806V330.121C512.691 330.754 512.322 331.141 511.707 331.141ZM522.904 331C522.298 331 521.894 330.622 521.894 330.051C521.894 329.761 521.981 329.532 522.21 329.216L528.837 320.084V320.022H522.878C522.333 320.022 521.964 319.688 521.964 319.17C521.964 318.651 522.333 318.317 522.878 318.317H530.217C530.85 318.317 531.254 318.704 531.254 319.293C531.254 319.592 531.157 319.785 530.929 320.11L524.337 329.233V329.295H530.639C531.192 329.295 531.562 329.629 531.562 330.147C531.562 330.666 531.184 331 530.639 331H522.904ZM147.066 423.188C146.246 423.188 145.754 422.672 145.754 421.828V408.363H141.605C140.879 408.363 140.387 407.918 140.387 407.227C140.387 406.535 140.879 406.09 141.605 406.09H152.516C153.242 406.09 153.734 406.535 153.734 407.227C153.734 407.918 153.242 408.363 152.516 408.363H148.379V421.828C148.379 422.672 147.875 423.188 147.066 423.188ZM156.746 423.223C156.008 423.223 155.48 422.719 155.48 421.887V407.18C155.48 406.383 155.961 405.867 156.734 405.867C157.52 405.867 157.988 406.383 157.988 407.18V412.734H158.047C158.727 411.293 160.074 410.461 161.949 410.461C164.656 410.461 166.273 412.266 166.273 415.055V421.887C166.273 422.719 165.746 423.223 164.996 423.223C164.258 423.223 163.73 422.719 163.73 421.887V415.547C163.73 413.73 162.816 412.641 161.035 412.641C159.16 412.641 158.012 413.93 158.012 415.875V421.887C158.012 422.719 157.484 423.223 156.746 423.223ZM174.066 423.234C170.352 423.234 168.172 420.879 168.172 416.895C168.172 412.98 170.398 410.449 173.891 410.449C177.172 410.449 179.434 412.816 179.434 416.18C179.434 417 178.965 417.469 178.18 417.469H170.727V417.527C170.727 419.777 171.992 421.184 174.008 421.184C175.391 421.184 176.258 420.703 177.195 419.426C177.465 419.109 177.723 418.98 178.086 418.98C178.695 418.98 179.141 419.379 179.141 420.012C179.141 420.211 179.07 420.445 178.965 420.691C178.156 422.309 176.363 423.234 174.066 423.234ZM170.738 415.699H176.902C176.844 413.766 175.637 412.488 173.879 412.488C172.133 412.488 170.867 413.777 170.738 415.699ZM187.625 408.809C186.816 408.809 186.16 408.152 186.16 407.355C186.16 406.547 186.816 405.914 187.625 405.914C188.445 405.914 189.102 406.547 189.102 407.355C189.102 408.152 188.445 408.809 187.625 408.809ZM187.625 423.223C186.863 423.223 186.359 422.695 186.359 421.887V411.797C186.359 410.977 186.863 410.449 187.625 410.449C188.387 410.449 188.891 410.977 188.891 411.797V421.887C188.891 422.695 188.387 423.223 187.625 423.223ZM196.027 423.234C193.602 423.234 191.82 422.238 191.234 420.727C191.152 420.539 191.129 420.363 191.129 420.199C191.129 419.566 191.586 419.191 192.219 419.191C192.641 419.191 193.004 419.391 193.32 419.859C193.953 420.855 194.691 421.301 196.156 421.301C197.598 421.301 198.57 420.68 198.57 419.66C198.57 418.852 198.09 418.418 196.766 418.102L194.82 417.645C192.43 417.082 191.258 415.91 191.258 414.152C191.258 411.926 193.191 410.449 196.121 410.449C198.348 410.449 200.176 411.586 200.527 413.039C200.551 413.18 200.574 413.297 200.574 413.414C200.574 413.977 200.223 414.352 199.59 414.352C199.18 414.352 198.816 414.211 198.57 413.812C198.02 412.875 197.27 412.383 196.027 412.383C194.668 412.383 193.73 413.051 193.73 414.012C193.73 414.785 194.328 415.324 195.629 415.629L197.539 416.074C200.129 416.672 201.125 417.598 201.125 419.426C201.125 421.711 199.074 423.234 196.027 423.234ZM208.695 420.047V412.676H207.805C207.148 412.676 206.75 412.301 206.75 411.68C206.75 411.047 207.148 410.672 207.805 410.672H208.695V408.844C208.695 408.035 209.199 407.496 209.973 407.496C210.734 407.496 211.238 408.035 211.238 408.844V410.672H212.68C213.336 410.672 213.734 411.059 213.734 411.68C213.734 412.301 213.336 412.676 212.68 412.676H211.238V419.484C211.238 420.469 211.578 420.914 212.492 420.984L212.691 420.996C213.418 421.066 213.781 421.359 213.781 421.957C213.781 422.719 213.195 423.105 211.953 423.105H211.824C209.75 423.105 208.695 422.086 208.695 420.047ZM217.027 423.223C216.289 423.223 215.762 422.719 215.762 421.887V407.18C215.762 406.383 216.242 405.867 217.016 405.867C217.801 405.867 218.27 406.383 218.27 407.18V412.734H218.328C219.008 411.293 220.355 410.461 222.23 410.461C224.938 410.461 226.555 412.266 226.555 415.055V421.887C226.555 422.719 226.027 423.223 225.277 423.223C224.539 423.223 224.012 422.719 224.012 421.887V415.547C224.012 413.73 223.098 412.641 221.316 412.641C219.441 412.641 218.293 413.93 218.293 415.875V421.887C218.293 422.719 217.766 423.223 217.027 423.223ZM234.348 423.234C230.633 423.234 228.453 420.879 228.453 416.895C228.453 412.98 230.68 410.449 234.172 410.449C237.453 410.449 239.715 412.816 239.715 416.18C239.715 417 239.246 417.469 238.461 417.469H231.008V417.527C231.008 419.777 232.273 421.184 234.289 421.184C235.672 421.184 236.539 420.703 237.477 419.426C237.746 419.109 238.004 418.98 238.367 418.98C238.977 418.98 239.422 419.379 239.422 420.012C239.422 420.211 239.352 420.445 239.246 420.691C238.438 422.309 236.645 423.234 234.348 423.234ZM231.02 415.699H237.184C237.125 413.766 235.918 412.488 234.16 412.488C232.414 412.488 231.148 413.777 231.02 415.699ZM248.176 423.188C247.355 423.188 246.863 422.672 246.863 421.828V407.262C246.863 406.418 247.355 405.902 248.176 405.902C248.984 405.902 249.488 406.418 249.488 407.262V413.238H258.172V407.262C258.172 406.418 258.664 405.902 259.484 405.902C260.293 405.902 260.797 406.418 260.797 407.262V421.828C260.797 422.672 260.293 423.188 259.484 423.188C258.664 423.188 258.172 422.672 258.172 421.828V415.512H249.488V421.828C249.488 422.672 248.984 423.188 248.176 423.188ZM268.941 423.234C265.227 423.234 263.047 420.879 263.047 416.895C263.047 412.98 265.273 410.449 268.766 410.449C272.047 410.449 274.309 412.816 274.309 416.18C274.309 417 273.84 417.469 273.055 417.469H265.602V417.527C265.602 419.777 266.867 421.184 268.883 421.184C270.266 421.184 271.133 420.703 272.07 419.426C272.34 419.109 272.598 418.98 272.961 418.98C273.57 418.98 274.016 419.379 274.016 420.012C274.016 420.211 273.945 420.445 273.84 420.691C273.031 422.309 271.238 423.234 268.941 423.234ZM265.613 415.699H271.777C271.719 413.766 270.512 412.488 268.754 412.488C267.008 412.488 265.742 413.777 265.613 415.699ZM279.887 423.211C277.473 423.211 275.773 421.711 275.773 419.496C275.773 417.34 277.438 416.016 280.355 415.852L283.742 415.652V414.703C283.742 413.332 282.816 412.512 281.27 412.512C280.051 412.512 279.242 412.945 278.539 414.07C278.281 414.445 277.953 414.609 277.508 414.609C276.875 414.609 276.418 414.188 276.418 413.555C276.418 413.297 276.488 413.016 276.641 412.734C277.285 411.34 279.148 410.449 281.363 410.449C284.352 410.449 286.262 412.031 286.262 414.504V421.945C286.262 422.742 285.758 423.223 285.043 423.223C284.34 423.223 283.859 422.766 283.836 422.016V420.973H283.777C283.062 422.344 281.492 423.211 279.887 423.211ZM280.578 421.207C282.348 421.207 283.742 419.988 283.742 418.383V417.41L280.695 417.598C279.184 417.703 278.328 418.371 278.328 419.426C278.328 420.504 279.23 421.207 280.578 421.207ZM293.352 423.211C290.234 423.211 288.172 420.727 288.172 416.836C288.172 412.945 290.234 410.473 293.328 410.473C295.098 410.473 296.504 411.363 297.195 412.723H297.242V407.203C297.242 406.371 297.77 405.867 298.52 405.867C299.258 405.867 299.785 406.371 299.785 407.203V421.957C299.785 422.754 299.27 423.223 298.531 423.223C297.816 423.223 297.242 422.754 297.242 421.957V420.809H297.207C296.574 422.25 295.273 423.211 293.352 423.211ZM294.02 421.066C295.965 421.066 297.266 419.414 297.266 416.836C297.266 414.281 295.965 412.605 294.02 412.605C292.016 412.605 290.762 414.246 290.762 416.836C290.762 419.438 292.016 421.066 294.02 421.066ZM307.73 423.234C304.016 423.234 301.836 420.879 301.836 416.895C301.836 412.98 304.062 410.449 307.555 410.449C310.836 410.449 313.098 412.816 313.098 416.18C313.098 417 312.629 417.469 311.844 417.469H304.391V417.527C304.391 419.777 305.656 421.184 307.672 421.184C309.055 421.184 309.922 420.703 310.859 419.426C311.129 419.109 311.387 418.98 311.75 418.98C312.359 418.98 312.805 419.379 312.805 420.012C312.805 420.211 312.734 420.445 312.629 420.691C311.82 422.309 310.027 423.234 307.73 423.234ZM304.402 415.699H310.566C310.508 413.766 309.301 412.488 307.543 412.488C305.797 412.488 304.531 413.777 304.402 415.699ZM316.332 423.223C315.57 423.223 315.066 422.707 315.066 421.887V411.727C315.066 410.953 315.559 410.449 316.273 410.449C316.977 410.449 317.469 410.953 317.469 411.727V412.781H317.527C317.867 411.398 319.004 410.473 320.234 410.473C320.68 410.473 321.02 410.578 321.23 410.777C321.465 410.965 321.57 411.27 321.57 411.668C321.57 412.066 321.441 412.359 321.195 412.559C320.938 412.781 320.562 412.887 320.035 412.887C318.301 412.898 317.598 414.059 317.598 415.594V421.887C317.598 422.707 317.082 423.223 316.332 423.223ZM332.363 423.234C329.938 423.234 328.156 422.238 327.57 420.727C327.488 420.539 327.465 420.363 327.465 420.199C327.465 419.566 327.922 419.191 328.555 419.191C328.977 419.191 329.34 419.391 329.656 419.859C330.289 420.855 331.027 421.301 332.492 421.301C333.934 421.301 334.906 420.68 334.906 419.66C334.906 418.852 334.426 418.418 333.102 418.102L331.156 417.645C328.766 417.082 327.594 415.91 327.594 414.152C327.594 411.926 329.527 410.449 332.457 410.449C334.684 410.449 336.512 411.586 336.863 413.039C336.887 413.18 336.91 413.297 336.91 413.414C336.91 413.977 336.559 414.352 335.926 414.352C335.516 414.352 335.152 414.211 334.906 413.812C334.355 412.875 333.605 412.383 332.363 412.383C331.004 412.383 330.066 413.051 330.066 414.012C330.066 414.785 330.664 415.324 331.965 415.629L333.875 416.074C336.465 416.672 337.461 417.598 337.461 419.426C337.461 421.711 335.41 423.234 332.363 423.234ZM340.766 408.809C339.957 408.809 339.301 408.152 339.301 407.355C339.301 406.547 339.957 405.914 340.766 405.914C341.586 405.914 342.242 406.547 342.242 407.355C342.242 408.152 341.586 408.809 340.766 408.809ZM340.766 423.223C340.004 423.223 339.5 422.695 339.5 421.887V411.797C339.5 410.977 340.004 410.449 340.766 410.449C341.527 410.449 342.031 410.977 342.031 411.797V421.887C342.031 422.695 341.527 423.223 340.766 423.223ZM345.582 423C344.844 423 344.352 422.555 344.352 421.863C344.352 421.477 344.457 421.23 344.75 420.867L350.938 412.734V412.688H345.348C344.668 412.688 344.27 412.324 344.27 411.68C344.27 411.047 344.656 410.672 345.348 410.672H352.496C353.352 410.672 353.867 411.129 353.867 411.891C353.867 412.289 353.727 412.594 353.363 413.086L347.434 420.938V420.984H352.988C353.68 420.984 354.066 421.348 354.066 421.992C354.066 422.637 353.668 423 352.988 423H345.582ZM361.121 423.234C357.406 423.234 355.227 420.879 355.227 416.895C355.227 412.98 357.453 410.449 360.945 410.449C364.227 410.449 366.488 412.816 366.488 416.18C366.488 417 366.02 417.469 365.234 417.469H357.781V417.527C357.781 419.777 359.047 421.184 361.062 421.184C362.445 421.184 363.312 420.703 364.25 419.426C364.52 419.109 364.777 418.98 365.141 418.98C365.75 418.98 366.195 419.379 366.195 420.012C366.195 420.211 366.125 420.445 366.02 420.691C365.211 422.309 363.418 423.234 361.121 423.234ZM357.793 415.699H363.957C363.898 413.766 362.691 412.488 360.934 412.488C359.188 412.488 357.922 413.777 357.793 415.699ZM376.941 423.211C374.527 423.211 372.828 421.711 372.828 419.496C372.828 417.34 374.492 416.016 377.41 415.852L380.797 415.652V414.703C380.797 413.332 379.871 412.512 378.324 412.512C377.105 412.512 376.297 412.945 375.594 414.07C375.336 414.445 375.008 414.609 374.562 414.609C373.93 414.609 373.473 414.188 373.473 413.555C373.473 413.297 373.543 413.016 373.695 412.734C374.34 411.34 376.203 410.449 378.418 410.449C381.406 410.449 383.316 412.031 383.316 414.504V421.945C383.316 422.742 382.812 423.223 382.098 423.223C381.395 423.223 380.914 422.766 380.891 422.016V420.973H380.832C380.117 422.344 378.547 423.211 376.941 423.211ZM377.633 421.207C379.402 421.207 380.797 419.988 380.797 418.383V417.41L377.75 417.598C376.238 417.703 375.383 418.371 375.383 419.426C375.383 420.504 376.285 421.207 377.633 421.207ZM387.043 423.223C386.293 423.223 385.777 422.719 385.777 421.887V411.727C385.777 410.953 386.246 410.449 386.984 410.449C387.711 410.449 388.215 410.953 388.215 411.738V412.711H388.273C388.941 411.305 390.23 410.461 392.129 410.461C394.848 410.461 396.406 412.195 396.406 415.02V421.887C396.406 422.719 395.879 423.223 395.129 423.223C394.391 423.223 393.863 422.719 393.863 421.887V415.512C393.863 413.66 392.996 412.641 391.238 412.641C389.457 412.641 388.309 413.906 388.309 415.816V421.887C388.309 422.719 387.781 423.223 387.043 423.223ZM403.484 423.211C400.367 423.211 398.305 420.727 398.305 416.836C398.305 412.945 400.367 410.473 403.461 410.473C405.23 410.473 406.637 411.363 407.328 412.723H407.375V407.203C407.375 406.371 407.902 405.867 408.652 405.867C409.391 405.867 409.918 406.371 409.918 407.203V421.957C409.918 422.754 409.402 423.223 408.664 423.223C407.949 423.223 407.375 422.754 407.375 421.957V420.809H407.34C406.707 422.25 405.406 423.211 403.484 423.211ZM404.152 421.066C406.098 421.066 407.398 419.414 407.398 416.836C407.398 414.281 406.098 412.605 404.152 412.605C402.148 412.605 400.895 414.246 400.895 416.836C400.895 419.438 402.148 421.066 404.152 421.066ZM421.098 423.223C420.266 423.223 419.797 422.836 419.539 421.945L416.727 412.254C416.633 411.973 416.598 411.75 416.598 411.539C416.598 410.883 417.09 410.449 417.828 410.449C418.461 410.449 418.836 410.789 419 411.504L421.215 420.375H421.262L423.605 411.598C423.781 410.848 424.285 410.449 425.059 410.449C425.82 410.449 426.312 410.848 426.488 411.598L428.844 420.375H428.902L431.117 411.504C431.281 410.789 431.645 410.449 432.277 410.449C433.016 410.449 433.496 410.883 433.496 411.539C433.496 411.75 433.461 411.961 433.379 412.254L430.566 421.945C430.32 422.812 429.805 423.223 428.973 423.223C428.094 423.223 427.602 422.848 427.367 421.945L425.059 413.766H425L422.715 421.945C422.48 422.812 421.953 423.223 421.098 423.223ZM440.48 423.234C436.766 423.234 434.586 420.879 434.586 416.895C434.586 412.98 436.812 410.449 440.305 410.449C443.586 410.449 445.848 412.816 445.848 416.18C445.848 417 445.379 417.469 444.594 417.469H437.141V417.527C437.141 419.777 438.406 421.184 440.422 421.184C441.805 421.184 442.672 420.703 443.609 419.426C443.879 419.109 444.137 418.98 444.5 418.98C445.109 418.98 445.555 419.379 445.555 420.012C445.555 420.211 445.484 420.445 445.379 420.691C444.57 422.309 442.777 423.234 440.48 423.234ZM437.152 415.699H443.316C443.258 413.766 442.051 412.488 440.293 412.488C438.547 412.488 437.281 413.777 437.152 415.699ZM449.164 408.809C448.355 408.809 447.699 408.152 447.699 407.355C447.699 406.547 448.355 405.914 449.164 405.914C449.984 405.914 450.641 406.547 450.641 407.355C450.641 408.152 449.984 408.809 449.164 408.809ZM449.164 423.223C448.402 423.223 447.898 422.695 447.898 421.887V411.797C447.898 410.977 448.402 410.449 449.164 410.449C449.926 410.449 450.43 410.977 450.43 411.797V421.887C450.43 422.695 449.926 423.223 449.164 423.223ZM458.188 427.641C455.949 427.617 454.18 426.75 453.336 425.414C453.172 425.133 453.102 424.875 453.102 424.582C453.102 423.996 453.535 423.574 454.18 423.574C454.566 423.574 454.812 423.703 455.152 424.043C456.16 425.098 457.027 425.555 458.234 425.578C460.297 425.602 461.551 424.43 461.551 422.707V420.75H461.492C460.801 422.086 459.348 422.965 457.59 422.965C454.484 422.965 452.469 420.539 452.469 416.73C452.469 412.875 454.461 410.473 457.648 410.473C459.395 410.473 460.754 411.352 461.504 412.746H461.551V411.75C461.551 410.93 462.102 410.449 462.828 410.449C463.555 410.449 464.094 410.93 464.094 411.75V422.66C464.094 425.707 461.855 427.676 458.188 427.641ZM458.27 420.902C460.25 420.902 461.562 419.285 461.562 416.754C461.562 414.223 460.25 412.559 458.27 412.559C456.324 412.559 455.059 414.176 455.059 416.742C455.059 419.32 456.324 420.902 458.27 420.902ZM467.949 423.223C467.211 423.223 466.684 422.719 466.684 421.887V407.18C466.684 406.383 467.164 405.867 467.938 405.867C468.723 405.867 469.191 406.383 469.191 407.18V412.734H469.25C469.93 411.293 471.277 410.461 473.152 410.461C475.859 410.461 477.477 412.266 477.477 415.055V421.887C477.477 422.719 476.949 423.223 476.199 423.223C475.461 423.223 474.934 422.719 474.934 421.887V415.547C474.934 413.73 474.02 412.641 472.238 412.641C470.363 412.641 469.215 413.93 469.215 415.875V421.887C469.215 422.719 468.688 423.223 467.949 423.223ZM480.664 420.047V412.676H479.773C479.117 412.676 478.719 412.301 478.719 411.68C478.719 411.047 479.117 410.672 479.773 410.672H480.664V408.844C480.664 408.035 481.168 407.496 481.941 407.496C482.703 407.496 483.207 408.035 483.207 408.844V410.672H484.648C485.305 410.672 485.703 411.059 485.703 411.68C485.703 412.301 485.305 412.676 484.648 412.676H483.207V419.484C483.207 420.469 483.547 420.914 484.461 420.984L484.66 420.996C485.387 421.066 485.75 421.359 485.75 421.957C485.75 422.719 485.164 423.105 483.922 423.105H483.793C481.719 423.105 480.664 422.086 480.664 420.047ZM489.535 414.586C488.68 414.586 488 413.918 488 413.051C488 412.195 488.68 411.516 489.535 411.516C490.391 411.516 491.07 412.195 491.07 413.051C491.07 413.918 490.391 414.586 489.535 414.586ZM489.535 423.129C488.68 423.129 488 422.449 488 421.594C488 420.738 488.68 420.059 489.535 420.059C490.391 420.059 491.07 420.738 491.07 421.594C491.07 422.449 490.391 423.129 489.535 423.129ZM500.07 423C499.273 423 498.828 422.555 498.828 421.898C498.828 421.383 498.98 421.102 499.555 420.527L504.84 415.184C507.043 412.934 507.582 412.066 507.582 410.719C507.582 409.113 506.34 407.941 504.641 407.941C502.977 407.941 501.828 408.797 501.242 410.449C501.008 410.977 500.703 411.293 500.059 411.293C499.32 411.293 498.898 410.836 498.898 410.18C498.898 409.98 498.922 409.805 498.969 409.629C499.332 407.848 501.289 405.773 504.652 405.773C507.887 405.773 510.172 407.766 510.172 410.555C510.172 412.477 509.27 413.836 506.422 416.684L502.391 420.727V420.785H509.41C510.125 420.785 510.57 421.23 510.57 421.898C510.57 422.555 510.125 423 509.41 423H500.07ZM521.574 423.223C520.848 423.223 520.32 422.719 520.32 421.91V419.637H513.359C512.422 419.637 511.824 419.051 511.824 418.148C511.824 417.551 511.965 417.082 512.41 416.309C513.605 414.164 515.703 411.023 517.883 407.859C518.914 406.336 519.582 405.867 520.684 405.867C522.055 405.867 522.84 406.582 522.84 407.848V417.434H524.176C524.867 417.434 525.324 417.879 525.324 418.535C525.324 419.191 524.867 419.637 524.176 419.637H522.84V421.91C522.84 422.719 522.312 423.223 521.574 423.223ZM520.344 417.469V408.188H520.297C517.426 412.301 515.656 414.949 514.285 417.398V417.469H520.344ZM528.371 427.371C527.621 427.371 527.105 426.855 527.105 426.023V411.75C527.105 410.941 527.609 410.449 528.324 410.449C529.039 410.449 529.555 410.941 529.555 411.75V412.793H529.602C530.328 411.375 531.746 410.473 533.527 410.473C536.656 410.473 538.719 412.934 538.719 416.836C538.719 420.738 536.668 423.211 533.574 423.211C531.805 423.211 530.398 422.344 529.695 420.973H529.637V426.023C529.637 426.855 529.109 427.371 528.371 427.371ZM532.859 421.066C534.863 421.066 536.117 419.426 536.117 416.836C536.117 414.258 534.863 412.605 532.859 412.605C530.926 412.605 529.625 414.293 529.625 416.836C529.625 419.402 530.914 421.066 532.859 421.066ZM541.145 423.223C540.465 423.223 539.973 422.777 539.973 422.156C539.973 421.887 540.066 421.641 540.266 421.359L543.57 416.848L540.312 412.324C540.137 412.078 540.055 411.832 540.055 411.539C540.055 410.918 540.582 410.449 541.273 410.449C541.754 410.449 542.012 410.613 542.316 411.082L545.094 415.137H545.141L547.859 411.117C548.164 410.637 548.445 410.449 548.879 410.449C549.594 410.449 550.098 410.906 550.098 411.527C550.098 411.82 550.016 412.066 549.805 412.336L546.547 416.766L549.793 421.336C549.98 421.605 550.062 421.852 550.062 422.109C550.062 422.766 549.547 423.223 548.855 423.223C548.41 423.223 548.117 423.035 547.871 422.66L545.035 418.465H544.977L542.141 422.637C541.859 423.07 541.578 423.223 541.145 423.223ZM145.229 465.123C144.746 465.123 144.438 464.807 144.438 464.306V453.741H141.063C140.615 453.741 140.308 453.451 140.308 453.029C140.308 452.607 140.615 452.317 141.063 452.317H149.396C149.844 452.317 150.151 452.607 150.151 453.029C150.151 453.451 149.844 453.741 149.396 453.741H146.021V464.306C146.021 464.807 145.713 465.123 145.229 465.123ZM152.296 465.158C151.848 465.158 151.531 464.824 151.531 464.341V452.959C151.531 452.484 151.839 452.159 152.296 452.159C152.762 452.159 153.061 452.484 153.061 452.959V457.318H153.096C153.605 456.299 154.607 455.701 155.996 455.701C158 455.701 159.213 457.055 159.213 459.094V464.341C159.213 464.824 158.896 465.158 158.448 465.158C158 465.158 157.684 464.824 157.684 464.341V459.375C157.684 457.925 156.954 457.055 155.521 457.055C154.001 457.055 153.061 458.092 153.061 459.674V464.341C153.061 464.824 152.744 465.158 152.296 465.158ZM161.999 454.321C161.48 454.321 161.05 453.891 161.05 453.372C161.05 452.845 161.48 452.423 161.999 452.423C162.526 452.423 162.957 452.845 162.957 453.372C162.957 453.891 162.526 454.321 161.999 454.321ZM161.999 465.158C161.551 465.158 161.234 464.824 161.234 464.341V456.519C161.234 456.035 161.551 455.701 161.999 455.701C162.447 455.701 162.764 456.035 162.764 456.519V464.341C162.764 464.824 162.447 465.158 161.999 465.158ZM168.002 465.158C166.376 465.158 165.102 464.429 164.662 463.286C164.609 463.154 164.592 463.04 164.592 462.926C164.592 462.521 164.891 462.293 165.286 462.293C165.559 462.293 165.778 462.434 165.954 462.75C166.411 463.55 166.956 463.91 168.125 463.91C169.294 463.91 170.085 463.4 170.085 462.548C170.085 461.889 169.707 461.537 168.679 461.282L167.281 460.931C165.515 460.491 164.662 459.656 164.662 458.373C164.662 456.782 166.06 455.701 168.125 455.701C169.628 455.701 170.964 456.545 171.201 457.644C171.219 457.731 171.228 457.802 171.228 457.872C171.228 458.232 170.999 458.47 170.63 458.47C170.331 458.47 170.12 458.373 169.953 458.057C169.558 457.292 168.969 456.958 168.037 456.958C166.938 456.958 166.174 457.512 166.174 458.294C166.174 458.927 166.666 459.366 167.668 459.612L169.03 459.946C170.938 460.412 171.641 461.08 171.641 462.425C171.641 464.06 170.173 465.158 168.002 465.158ZM177.749 454.321C177.23 454.321 176.8 453.891 176.8 453.372C176.8 452.845 177.23 452.423 177.749 452.423C178.276 452.423 178.707 452.845 178.707 453.372C178.707 453.891 178.276 454.321 177.749 454.321ZM177.749 465.158C177.301 465.158 176.984 464.824 176.984 464.341V456.519C176.984 456.035 177.301 455.701 177.749 455.701C178.197 455.701 178.514 456.035 178.514 456.519V464.341C178.514 464.824 178.197 465.158 177.749 465.158ZM183.752 465.158C182.126 465.158 180.852 464.429 180.412 463.286C180.359 463.154 180.342 463.04 180.342 462.926C180.342 462.521 180.641 462.293 181.036 462.293C181.309 462.293 181.528 462.434 181.704 462.75C182.161 463.55 182.706 463.91 183.875 463.91C185.044 463.91 185.835 463.4 185.835 462.548C185.835 461.889 185.457 461.537 184.429 461.282L183.031 460.931C181.265 460.491 180.412 459.656 180.412 458.373C180.412 456.782 181.81 455.701 183.875 455.701C185.378 455.701 186.714 456.545 186.951 457.644C186.969 457.731 186.978 457.802 186.978 457.872C186.978 458.232 186.749 458.47 186.38 458.47C186.081 458.47 185.87 458.373 185.703 458.057C185.308 457.292 184.719 456.958 183.787 456.958C182.688 456.958 181.924 457.512 181.924 458.294C181.924 458.927 182.416 459.366 183.418 459.612L184.78 459.946C186.688 460.412 187.391 461.08 187.391 462.425C187.391 464.06 185.923 465.158 183.752 465.158ZM193.147 462.891V457.116H192.383C191.943 457.116 191.697 456.888 191.697 456.483C191.697 456.088 191.943 455.859 192.383 455.859H193.147V454.295C193.147 453.812 193.464 453.478 193.912 453.478C194.36 453.478 194.677 453.812 194.677 454.295V455.859H195.854C196.294 455.859 196.54 456.088 196.54 456.483C196.54 456.888 196.294 457.116 195.854 457.116H194.677V462.557C194.677 463.33 194.949 463.699 195.714 463.752L195.846 463.761C196.347 463.796 196.575 463.998 196.575 464.358C196.575 464.824 196.312 465.07 195.459 465.07H195.362C193.886 465.07 193.147 464.35 193.147 462.891ZM198.931 465.158C198.482 465.158 198.166 464.824 198.166 464.341V452.959C198.166 452.484 198.474 452.159 198.931 452.159C199.396 452.159 199.695 452.484 199.695 452.959V457.318H199.73C200.24 456.299 201.242 455.701 202.631 455.701C204.635 455.701 205.848 457.055 205.848 459.094V464.341C205.848 464.824 205.531 465.158 205.083 465.158C204.635 465.158 204.318 464.824 204.318 464.341V459.375C204.318 457.925 203.589 457.055 202.156 457.055C200.636 457.055 199.695 458.092 199.695 459.674V464.341C199.695 464.824 199.379 465.158 198.931 465.158ZM211.622 465.158C208.924 465.158 207.342 463.418 207.342 460.465C207.342 457.582 208.968 455.701 211.49 455.701C213.828 455.701 215.472 457.45 215.472 459.955C215.472 460.509 215.155 460.843 214.628 460.843H208.915C208.915 462.688 209.926 463.831 211.561 463.831C212.65 463.831 213.318 463.444 214.03 462.407C214.188 462.188 214.364 462.1 214.602 462.1C215.006 462.1 215.278 462.363 215.278 462.768C215.278 462.891 215.234 463.049 215.164 463.216C214.575 464.455 213.292 465.158 211.622 465.158ZM208.924 459.647H213.89C213.854 458.065 212.879 457.028 211.464 457.028C210.04 457.028 209.021 458.074 208.924 459.647ZM221.501 465.158C221.07 465.158 220.789 464.859 220.789 464.411V452.977C220.789 452.493 221.105 452.159 221.554 452.159C222.002 452.159 222.318 452.493 222.318 452.977V457.389H222.354C222.934 456.343 223.997 455.701 225.289 455.701C227.592 455.701 229.147 457.564 229.147 460.43C229.147 463.304 227.601 465.158 225.263 465.158C223.927 465.158 222.881 464.508 222.283 463.453H222.248V464.411C222.248 464.851 221.94 465.158 221.501 465.158ZM224.964 463.813C226.581 463.813 227.583 462.521 227.583 460.43C227.583 458.355 226.581 457.046 224.964 457.046C223.417 457.046 222.31 458.399 222.31 460.43C222.31 462.469 223.417 463.813 224.964 463.813ZM233.814 465.158C231.819 465.158 230.65 463.866 230.65 461.792V456.519C230.65 456.035 230.967 455.701 231.415 455.701C231.863 455.701 232.18 456.035 232.18 456.519V461.52C232.18 463.005 232.874 463.805 234.289 463.805C235.774 463.805 236.671 462.785 236.671 461.229V456.519C236.671 456.035 236.987 455.701 237.436 455.701C237.884 455.701 238.2 456.035 238.2 456.519V464.385C238.2 464.824 237.919 465.158 237.479 465.158C237.04 465.158 236.75 464.824 236.75 464.385V463.515H236.715C236.17 464.569 235.221 465.158 233.814 465.158ZM240.679 462.891V457.116H239.914C239.475 457.116 239.229 456.888 239.229 456.483C239.229 456.088 239.475 455.859 239.914 455.859H240.679V454.295C240.679 453.812 240.995 453.478 241.443 453.478C241.892 453.478 242.208 453.812 242.208 454.295V455.859H243.386C243.825 455.859 244.071 456.088 244.071 456.483C244.071 456.888 243.825 457.116 243.386 457.116H242.208V462.557C242.208 463.33 242.48 463.699 243.245 463.752L243.377 463.761C243.878 463.796 244.106 463.998 244.106 464.358C244.106 464.824 243.843 465.07 242.99 465.07H242.894C241.417 465.07 240.679 464.35 240.679 462.891ZM246.11 462.891V457.116H245.346C244.906 457.116 244.66 456.888 244.66 456.483C244.66 456.088 244.906 455.859 245.346 455.859H246.11V454.295C246.11 453.812 246.427 453.478 246.875 453.478C247.323 453.478 247.64 453.812 247.64 454.295V455.859H248.817C249.257 455.859 249.503 456.088 249.503 456.483C249.503 456.888 249.257 457.116 248.817 457.116H247.64V462.557C247.64 463.33 247.912 463.699 248.677 463.752L248.809 463.761C249.31 463.796 249.538 463.998 249.538 464.358C249.538 464.824 249.274 465.07 248.422 465.07H248.325C246.849 465.07 246.11 464.35 246.11 462.891ZM254.574 465.158C252.043 465.158 250.338 463.339 250.338 460.43C250.338 457.512 252.043 455.701 254.574 455.701C257.097 455.701 258.802 457.512 258.802 460.43C258.802 463.339 257.097 465.158 254.574 465.158ZM254.574 463.813C256.191 463.813 257.246 462.583 257.246 460.43C257.246 458.276 256.191 457.046 254.574 457.046C252.957 457.046 251.894 458.276 251.894 460.43C251.894 462.583 252.957 463.813 254.574 463.813ZM261.113 465.158C260.665 465.158 260.349 464.824 260.349 464.341V456.475C260.349 456.018 260.647 455.701 261.069 455.701C261.491 455.701 261.79 456.018 261.79 456.475V457.318H261.825C262.335 456.334 263.311 455.701 264.726 455.701C266.729 455.701 267.89 456.993 267.89 459.067V464.341C267.89 464.824 267.573 465.158 267.125 465.158C266.677 465.158 266.36 464.824 266.36 464.341V459.34C266.36 457.863 265.666 457.055 264.26 457.055C262.818 457.055 261.878 458.074 261.878 459.621V464.341C261.878 464.824 261.562 465.158 261.113 465.158ZM273.014 465.158C271.388 465.158 270.113 464.429 269.674 463.286C269.621 463.154 269.604 463.04 269.604 462.926C269.604 462.521 269.902 462.293 270.298 462.293C270.57 462.293 270.79 462.434 270.966 462.75C271.423 463.55 271.968 463.91 273.137 463.91C274.306 463.91 275.097 463.4 275.097 462.548C275.097 461.889 274.719 461.537 273.69 461.282L272.293 460.931C270.526 460.491 269.674 459.656 269.674 458.373C269.674 456.782 271.071 455.701 273.137 455.701C274.64 455.701 275.976 456.545 276.213 457.644C276.23 457.731 276.239 457.802 276.239 457.872C276.239 458.232 276.011 458.47 275.642 458.47C275.343 458.47 275.132 458.373 274.965 458.057C274.569 457.292 273.98 456.958 273.049 456.958C271.95 456.958 271.186 457.512 271.186 458.294C271.186 458.927 271.678 459.366 272.68 459.612L274.042 459.946C275.949 460.412 276.652 461.08 276.652 462.425C276.652 464.06 275.185 465.158 273.014 465.158ZM282.409 462.891V457.116H281.645C281.205 457.116 280.959 456.888 280.959 456.483C280.959 456.088 281.205 455.859 281.645 455.859H282.409V454.295C282.409 453.812 282.726 453.478 283.174 453.478C283.622 453.478 283.938 453.812 283.938 454.295V455.859H285.116C285.556 455.859 285.802 456.088 285.802 456.483C285.802 456.888 285.556 457.116 285.116 457.116H283.938V462.557C283.938 463.33 284.211 463.699 284.976 463.752L285.107 463.761C285.608 463.796 285.837 463.998 285.837 464.358C285.837 464.824 285.573 465.07 284.721 465.07H284.624C283.147 465.07 282.409 464.35 282.409 462.891ZM290.917 465.158C288.219 465.158 286.637 463.418 286.637 460.465C286.637 457.582 288.263 455.701 290.785 455.701C293.123 455.701 294.767 457.45 294.767 459.955C294.767 460.509 294.45 460.843 293.923 460.843H288.21C288.21 462.688 289.221 463.831 290.855 463.831C291.945 463.831 292.613 463.444 293.325 462.407C293.483 462.188 293.659 462.1 293.896 462.1C294.301 462.1 294.573 462.363 294.573 462.768C294.573 462.891 294.529 463.049 294.459 463.216C293.87 464.455 292.587 465.158 290.917 465.158ZM288.219 459.647H293.185C293.149 458.065 292.174 457.028 290.759 457.028C289.335 457.028 288.315 458.074 288.219 459.647ZM296.48 465.158C296.067 465.158 295.76 464.877 295.76 464.499C295.76 464.35 295.812 464.2 295.909 464.06L298.546 460.43L295.962 456.817C295.856 456.668 295.804 456.519 295.804 456.352C295.804 455.982 296.129 455.701 296.551 455.701C296.814 455.701 296.964 455.789 297.131 456.026L299.39 459.287H299.425L301.631 456.062C301.807 455.807 301.974 455.701 302.22 455.701C302.65 455.701 302.976 455.982 302.976 456.352C302.976 456.51 302.923 456.668 302.826 456.8L300.216 460.368L302.791 464.033C302.896 464.191 302.949 464.341 302.949 464.49C302.949 464.868 302.633 465.158 302.22 465.158C301.974 465.158 301.771 465.062 301.64 464.859L299.372 461.52H299.337L297.052 464.859C296.911 465.062 296.727 465.158 296.48 465.158ZM305.085 462.891V457.116H304.32C303.881 457.116 303.635 456.888 303.635 456.483C303.635 456.088 303.881 455.859 304.32 455.859H305.085V454.295C305.085 453.812 305.401 453.478 305.85 453.478C306.298 453.478 306.614 453.812 306.614 454.295V455.859H307.792C308.231 455.859 308.478 456.088 308.478 456.483C308.478 456.888 308.231 457.116 307.792 457.116H306.614V462.557C306.614 463.33 306.887 463.699 307.651 463.752L307.783 463.761C308.284 463.796 308.513 463.998 308.513 464.358C308.513 464.824 308.249 465.07 307.396 465.07H307.3C305.823 465.07 305.085 464.35 305.085 462.891ZM316.889 465.158C315.263 465.158 313.988 464.429 313.549 463.286C313.496 463.154 313.479 463.04 313.479 462.926C313.479 462.521 313.777 462.293 314.173 462.293C314.445 462.293 314.665 462.434 314.841 462.75C315.298 463.55 315.843 463.91 317.012 463.91C318.181 463.91 318.972 463.4 318.972 462.548C318.972 461.889 318.594 461.537 317.565 461.282L316.168 460.931C314.401 460.491 313.549 459.656 313.549 458.373C313.549 456.782 314.946 455.701 317.012 455.701C318.515 455.701 319.851 456.545 320.088 457.644C320.105 457.731 320.114 457.802 320.114 457.872C320.114 458.232 319.886 458.47 319.517 458.47C319.218 458.47 319.007 458.373 318.84 458.057C318.444 457.292 317.855 456.958 316.924 456.958C315.825 456.958 315.061 457.512 315.061 458.294C315.061 458.927 315.553 459.366 316.555 459.612L317.917 459.946C319.824 460.412 320.527 461.08 320.527 462.425C320.527 464.06 319.06 465.158 316.889 465.158ZM322.944 454.321C322.426 454.321 321.995 453.891 321.995 453.372C321.995 452.845 322.426 452.423 322.944 452.423C323.472 452.423 323.902 452.845 323.902 453.372C323.902 453.891 323.472 454.321 322.944 454.321ZM322.944 465.158C322.496 465.158 322.18 464.824 322.18 464.341V456.519C322.18 456.035 322.496 455.701 322.944 455.701C323.393 455.701 323.709 456.035 323.709 456.519V464.341C323.709 464.824 323.393 465.158 322.944 465.158ZM326.39 465C325.897 465 325.572 464.701 325.572 464.244C325.572 463.98 325.634 463.822 325.827 463.567L330.644 457.143V457.116H326.188C325.748 457.116 325.502 456.888 325.502 456.483C325.502 456.088 325.748 455.859 326.188 455.859H331.479C332.059 455.859 332.393 456.149 332.393 456.642C332.393 456.905 332.296 457.107 332.032 457.459L327.348 463.717V463.743H331.812C332.252 463.743 332.498 463.972 332.498 464.367C332.498 464.771 332.252 465 331.812 465H326.39ZM337.675 465.158C334.977 465.158 333.395 463.418 333.395 460.465C333.395 457.582 335.021 455.701 337.543 455.701C339.881 455.701 341.524 457.45 341.524 459.955C341.524 460.509 341.208 460.843 340.681 460.843H334.968C334.968 462.688 335.979 463.831 337.613 463.831C338.703 463.831 339.371 463.444 340.083 462.407C340.241 462.188 340.417 462.1 340.654 462.1C341.059 462.1 341.331 462.363 341.331 462.768C341.331 462.891 341.287 463.049 341.217 463.216C340.628 464.455 339.345 465.158 337.675 465.158ZM334.977 459.647H339.942C339.907 458.065 338.932 457.028 337.517 457.028C336.093 457.028 335.073 458.074 334.977 459.647ZM344.363 458.619C343.801 458.619 343.361 458.18 343.361 457.617C343.361 457.055 343.801 456.615 344.363 456.615C344.926 456.615 345.365 457.055 345.365 457.617C345.365 458.18 344.926 458.619 344.363 458.619ZM344.363 465.088C343.801 465.088 343.361 464.648 343.361 464.086C343.361 463.523 343.801 463.084 344.363 463.084C344.926 463.084 345.365 463.523 345.365 464.086C345.365 464.648 344.926 465.088 344.363 465.088ZM351.667 465.158C351.219 465.158 350.902 464.824 350.902 464.341V454.049H350.867L348.494 455.71C348.318 455.833 348.151 455.895 347.958 455.895C347.589 455.895 347.334 455.631 347.334 455.244C347.334 454.963 347.439 454.778 347.773 454.541L350.489 452.599C350.981 452.247 351.192 452.159 351.553 452.159C352.098 452.159 352.432 452.493 352.432 453.047V464.341C352.432 464.824 352.115 465.158 351.667 465.158ZM360.017 465.211C357.336 465.211 355.42 463.69 355.42 461.572C355.42 459.99 356.51 458.689 358.145 458.312V458.276C356.747 457.846 355.877 456.773 355.877 455.438C355.877 453.521 357.635 452.106 360.017 452.106C362.416 452.106 364.147 453.513 364.147 455.446C364.147 456.765 363.295 457.828 361.889 458.276V458.312C363.532 458.698 364.622 459.999 364.622 461.572C364.622 463.699 362.706 465.211 360.017 465.211ZM360.017 457.688C361.52 457.688 362.583 456.817 362.583 455.587C362.583 454.339 361.528 453.469 360.017 453.469C358.505 453.469 357.45 454.348 357.45 455.587C357.45 456.817 358.505 457.688 360.017 457.688ZM360.017 463.831C361.766 463.831 363.005 462.838 363.005 461.458C363.005 460.061 361.766 459.076 360.017 459.076C358.276 459.076 357.028 460.069 357.028 461.458C357.028 462.838 358.276 463.831 360.017 463.831ZM367.18 468.226C366.731 468.226 366.415 467.892 366.415 467.408V456.475C366.415 456.018 366.714 455.701 367.145 455.701C367.566 455.701 367.865 456.018 367.865 456.475V457.406H367.9C368.463 456.378 369.526 455.701 370.854 455.701C373.183 455.701 374.765 457.564 374.765 460.43C374.765 463.295 373.191 465.158 370.889 465.158C369.579 465.158 368.524 464.517 367.979 463.515H367.944V467.408C367.944 467.892 367.628 468.226 367.18 468.226ZM370.555 463.813C372.181 463.813 373.2 462.504 373.2 460.43C373.2 458.364 372.181 457.046 370.555 457.046C368.99 457.046 367.936 458.399 367.936 460.43C367.936 462.469 368.99 463.813 370.555 463.813ZM376.479 465.158C376.065 465.158 375.758 464.877 375.758 464.499C375.758 464.35 375.811 464.2 375.907 464.06L378.544 460.43L375.96 456.817C375.854 456.668 375.802 456.519 375.802 456.352C375.802 455.982 376.127 455.701 376.549 455.701C376.812 455.701 376.962 455.789 377.129 456.026L379.388 459.287H379.423L381.629 456.062C381.805 455.807 381.972 455.701 382.218 455.701C382.648 455.701 382.974 455.982 382.974 456.352C382.974 456.51 382.921 456.668 382.824 456.8L380.214 460.368L382.789 464.033C382.895 464.191 382.947 464.341 382.947 464.49C382.947 464.868 382.631 465.158 382.218 465.158C381.972 465.158 381.77 465.062 381.638 464.859L379.37 461.52H379.335L377.05 464.859C376.909 465.062 376.725 465.158 376.479 465.158ZM144.648 503.109C144.219 503.109 143.945 502.828 143.945 502.383V492.992H140.945C140.547 492.992 140.273 492.734 140.273 492.359C140.273 491.984 140.547 491.727 140.945 491.727H148.352C148.75 491.727 149.023 491.984 149.023 492.359C149.023 492.734 148.75 492.992 148.352 492.992H145.352V502.383C145.352 502.828 145.078 503.109 144.648 503.109ZM150.93 503.141C150.531 503.141 150.25 502.844 150.25 502.414V492.297C150.25 491.875 150.523 491.586 150.93 491.586C151.344 491.586 151.609 491.875 151.609 492.297V496.172H151.641C152.094 495.266 152.984 494.734 154.219 494.734C156 494.734 157.078 495.938 157.078 497.75V502.414C157.078 502.844 156.797 503.141 156.398 503.141C156 503.141 155.719 502.844 155.719 502.414V498C155.719 496.711 155.07 495.938 153.797 495.938C152.445 495.938 151.609 496.859 151.609 498.266V502.414C151.609 502.844 151.328 503.141 150.93 503.141ZM159.555 493.508C159.094 493.508 158.711 493.125 158.711 492.664C158.711 492.195 159.094 491.82 159.555 491.82C160.023 491.82 160.406 492.195 160.406 492.664C160.406 493.125 160.023 493.508 159.555 493.508ZM159.555 503.141C159.156 503.141 158.875 502.844 158.875 502.414V495.461C158.875 495.031 159.156 494.734 159.555 494.734C159.953 494.734 160.234 495.031 160.234 495.461V502.414C160.234 502.844 159.953 503.141 159.555 503.141ZM164.891 503.141C163.445 503.141 162.312 502.492 161.922 501.477C161.875 501.359 161.859 501.258 161.859 501.156C161.859 500.797 162.125 500.594 162.477 500.594C162.719 500.594 162.914 500.719 163.07 501C163.477 501.711 163.961 502.031 165 502.031C166.039 502.031 166.742 501.578 166.742 500.82C166.742 500.234 166.406 499.922 165.492 499.695L164.25 499.383C162.68 498.992 161.922 498.25 161.922 497.109C161.922 495.695 163.164 494.734 165 494.734C166.336 494.734 167.523 495.484 167.734 496.461C167.75 496.539 167.758 496.602 167.758 496.664C167.758 496.984 167.555 497.195 167.227 497.195C166.961 497.195 166.773 497.109 166.625 496.828C166.273 496.148 165.75 495.852 164.922 495.852C163.945 495.852 163.266 496.344 163.266 497.039C163.266 497.602 163.703 497.992 164.594 498.211L165.805 498.508C167.5 498.922 168.125 499.516 168.125 500.711C168.125 502.164 166.82 503.141 164.891 503.141ZM173.555 493.508C173.094 493.508 172.711 493.125 172.711 492.664C172.711 492.195 173.094 491.82 173.555 491.82C174.023 491.82 174.406 492.195 174.406 492.664C174.406 493.125 174.023 493.508 173.555 493.508ZM173.555 503.141C173.156 503.141 172.875 502.844 172.875 502.414V495.461C172.875 495.031 173.156 494.734 173.555 494.734C173.953 494.734 174.234 495.031 174.234 495.461V502.414C174.234 502.844 173.953 503.141 173.555 503.141ZM178.891 503.141C177.445 503.141 176.312 502.492 175.922 501.477C175.875 501.359 175.859 501.258 175.859 501.156C175.859 500.797 176.125 500.594 176.477 500.594C176.719 500.594 176.914 500.719 177.07 501C177.477 501.711 177.961 502.031 179 502.031C180.039 502.031 180.742 501.578 180.742 500.82C180.742 500.234 180.406 499.922 179.492 499.695L178.25 499.383C176.68 498.992 175.922 498.25 175.922 497.109C175.922 495.695 177.164 494.734 179 494.734C180.336 494.734 181.523 495.484 181.734 496.461C181.75 496.539 181.758 496.602 181.758 496.664C181.758 496.984 181.555 497.195 181.227 497.195C180.961 497.195 180.773 497.109 180.625 496.828C180.273 496.148 179.75 495.852 178.922 495.852C177.945 495.852 177.266 496.344 177.266 497.039C177.266 497.602 177.703 497.992 178.594 498.211L179.805 498.508C181.5 498.922 182.125 499.516 182.125 500.711C182.125 502.164 180.82 503.141 178.891 503.141ZM187.242 501.125V495.992H186.562C186.172 495.992 185.953 495.789 185.953 495.43C185.953 495.078 186.172 494.875 186.562 494.875H187.242V493.484C187.242 493.055 187.523 492.758 187.922 492.758C188.32 492.758 188.602 493.055 188.602 493.484V494.875H189.648C190.039 494.875 190.258 495.078 190.258 495.43C190.258 495.789 190.039 495.992 189.648 495.992H188.602V500.828C188.602 501.516 188.844 501.844 189.523 501.891L189.641 501.898C190.086 501.93 190.289 502.109 190.289 502.43C190.289 502.844 190.055 503.062 189.297 503.062H189.211C187.898 503.062 187.242 502.422 187.242 501.125ZM192.383 503.141C191.984 503.141 191.703 502.844 191.703 502.414V492.297C191.703 491.875 191.977 491.586 192.383 491.586C192.797 491.586 193.062 491.875 193.062 492.297V496.172H193.094C193.547 495.266 194.438 494.734 195.672 494.734C197.453 494.734 198.531 495.938 198.531 497.75V502.414C198.531 502.844 198.25 503.141 197.852 503.141C197.453 503.141 197.172 502.844 197.172 502.414V498C197.172 496.711 196.523 495.938 195.25 495.938C193.898 495.938 193.062 496.859 193.062 498.266V502.414C193.062 502.844 192.781 503.141 192.383 503.141ZM203.664 503.141C201.266 503.141 199.859 501.594 199.859 498.969C199.859 496.406 201.305 494.734 203.547 494.734C205.625 494.734 207.086 496.289 207.086 498.516C207.086 499.008 206.805 499.305 206.336 499.305H201.258C201.258 500.945 202.156 501.961 203.609 501.961C204.578 501.961 205.172 501.617 205.805 500.695C205.945 500.5 206.102 500.422 206.312 500.422C206.672 500.422 206.914 500.656 206.914 501.016C206.914 501.125 206.875 501.266 206.812 501.414C206.289 502.516 205.148 503.141 203.664 503.141ZM201.266 498.242H205.68C205.648 496.836 204.781 495.914 203.523 495.914C202.258 495.914 201.352 496.844 201.266 498.242ZM212.445 503.141C212.062 503.141 211.812 502.875 211.812 502.477V492.312C211.812 491.883 212.094 491.586 212.492 491.586C212.891 491.586 213.172 491.883 213.172 492.312V496.234H213.203C213.719 495.305 214.664 494.734 215.812 494.734C217.859 494.734 219.242 496.391 219.242 498.938C219.242 501.492 217.867 503.141 215.789 503.141C214.602 503.141 213.672 502.562 213.141 501.625H213.109V502.477C213.109 502.867 212.836 503.141 212.445 503.141ZM215.523 501.945C216.961 501.945 217.852 500.797 217.852 498.938C217.852 497.094 216.961 495.93 215.523 495.93C214.148 495.93 213.164 497.133 213.164 498.938C213.164 500.75 214.148 501.945 215.523 501.945ZM223.984 503.141C221.734 503.141 220.219 501.523 220.219 498.938C220.219 496.344 221.734 494.734 223.984 494.734C226.227 494.734 227.742 496.344 227.742 498.938C227.742 501.523 226.227 503.141 223.984 503.141ZM223.984 501.945C225.422 501.945 226.359 500.852 226.359 498.938C226.359 497.023 225.422 495.93 223.984 495.93C222.547 495.93 221.602 497.023 221.602 498.938C221.602 500.852 222.547 501.945 223.984 501.945ZM232.195 503.141C230.125 503.141 228.719 501.484 228.719 498.938C228.719 496.391 230.117 494.734 232.164 494.734C233.328 494.734 234.266 495.305 234.75 496.195H234.781V492.312C234.781 491.883 235.062 491.586 235.461 491.586C235.859 491.586 236.141 491.883 236.141 492.312V502.477C236.141 502.867 235.867 503.141 235.477 503.141C235.094 503.141 234.781 502.875 234.781 502.477V501.547H234.758C234.312 502.516 233.469 503.141 232.195 503.141ZM232.453 501.945C233.852 501.945 234.789 500.758 234.789 498.938C234.789 497.125 233.852 495.93 232.453 495.93C231.016 495.93 230.109 497.102 230.109 498.938C230.109 500.781 231.016 501.945 232.453 501.945ZM238.773 506.039C238.117 506.039 237.75 505.797 237.75 505.367C237.75 505.07 237.953 504.867 238.297 504.867C238.492 504.867 238.547 504.875 238.758 504.875C239.273 504.875 239.766 504.562 240.086 503.578L240.273 503.008L237.477 495.719C237.43 495.586 237.406 495.461 237.406 495.359C237.406 494.984 237.695 494.734 238.086 494.734C238.406 494.734 238.609 494.875 238.734 495.234L240.977 501.641H241L243.25 495.234C243.375 494.875 243.555 494.734 243.891 494.734C244.281 494.734 244.555 494.992 244.555 495.359C244.555 495.461 244.531 495.586 244.484 495.719L241.484 503.57C240.781 505.438 240.117 506.039 238.773 506.039ZM251.859 503.141C250.414 503.141 249.281 502.492 248.891 501.477C248.844 501.359 248.828 501.258 248.828 501.156C248.828 500.797 249.094 500.594 249.445 500.594C249.688 500.594 249.883 500.719 250.039 501C250.445 501.711 250.93 502.031 251.969 502.031C253.008 502.031 253.711 501.578 253.711 500.82C253.711 500.234 253.375 499.922 252.461 499.695L251.219 499.383C249.648 498.992 248.891 498.25 248.891 497.109C248.891 495.695 250.133 494.734 251.969 494.734C253.305 494.734 254.492 495.484 254.703 496.461C254.719 496.539 254.727 496.602 254.727 496.664C254.727 496.984 254.523 497.195 254.195 497.195C253.93 497.195 253.742 497.109 253.594 496.828C253.242 496.148 252.719 495.852 251.891 495.852C250.914 495.852 250.234 496.344 250.234 497.039C250.234 497.602 250.672 497.992 251.562 498.211L252.773 498.508C254.469 498.922 255.094 499.516 255.094 500.711C255.094 502.164 253.789 503.141 251.859 503.141ZM257.242 493.508C256.781 493.508 256.398 493.125 256.398 492.664C256.398 492.195 256.781 491.82 257.242 491.82C257.711 491.82 258.094 492.195 258.094 492.664C258.094 493.125 257.711 493.508 257.242 493.508ZM257.242 503.141C256.844 503.141 256.562 502.844 256.562 502.414V495.461C256.562 495.031 256.844 494.734 257.242 494.734C257.641 494.734 257.922 495.031 257.922 495.461V502.414C257.922 502.844 257.641 503.141 257.242 503.141ZM260.305 503C259.867 503 259.578 502.734 259.578 502.328C259.578 502.094 259.633 501.953 259.805 501.727L264.086 496.016V495.992H260.125C259.734 495.992 259.516 495.789 259.516 495.43C259.516 495.078 259.734 494.875 260.125 494.875H264.828C265.344 494.875 265.641 495.133 265.641 495.57C265.641 495.805 265.555 495.984 265.32 496.297L261.156 501.859V501.883H265.125C265.516 501.883 265.734 502.086 265.734 502.438C265.734 502.797 265.516 503 265.125 503H260.305ZM270.336 503.141C267.938 503.141 266.531 501.594 266.531 498.969C266.531 496.406 267.977 494.734 270.219 494.734C272.297 494.734 273.758 496.289 273.758 498.516C273.758 499.008 273.477 499.305 273.008 499.305H267.93C267.93 500.945 268.828 501.961 270.281 501.961C271.25 501.961 271.844 501.617 272.477 500.695C272.617 500.5 272.773 500.422 272.984 500.422C273.344 500.422 273.586 500.656 273.586 501.016C273.586 501.125 273.547 501.266 273.484 501.414C272.961 502.516 271.82 503.141 270.336 503.141ZM267.938 498.242H272.352C272.32 496.836 271.453 495.914 270.195 495.914C268.93 495.914 268.023 496.844 267.938 498.242ZM280.781 503.141C279.164 503.141 278.078 502.164 278.078 500.703C278.078 499.312 279.148 498.438 281.023 498.328L283.359 498.195V497.516C283.359 496.523 282.703 495.93 281.578 495.93C280.695 495.93 280.094 496.25 279.641 497.055C279.516 497.281 279.336 497.383 279.078 497.383C278.727 497.383 278.477 497.141 278.477 496.773C278.477 496.602 278.531 496.406 278.641 496.211C279.102 495.32 280.289 494.734 281.609 494.734C283.516 494.734 284.719 495.766 284.719 497.383V502.453C284.719 502.859 284.453 503.141 284.078 503.141C283.695 503.141 283.43 502.859 283.43 502.453V501.602H283.398C282.914 502.531 281.875 503.141 280.781 503.141ZM281.086 501.984C282.367 501.984 283.359 501.086 283.359 499.914V499.25L281.18 499.383C280.086 499.453 279.461 499.938 279.461 500.703C279.461 501.477 280.109 501.984 281.086 501.984ZM287.125 503.141C286.727 503.141 286.445 502.844 286.445 502.414V495.422C286.445 495.016 286.711 494.734 287.086 494.734C287.461 494.734 287.727 495.016 287.727 495.422V496.172H287.758C288.211 495.297 289.078 494.734 290.336 494.734C292.117 494.734 293.148 495.883 293.148 497.727V502.414C293.148 502.844 292.867 503.141 292.469 503.141C292.07 503.141 291.789 502.844 291.789 502.414V497.969C291.789 496.656 291.172 495.938 289.922 495.938C288.641 495.938 287.805 496.844 287.805 498.219V502.414C287.805 502.844 287.523 503.141 287.125 503.141ZM297.961 503.141C295.891 503.141 294.484 501.484 294.484 498.938C294.484 496.391 295.883 494.734 297.93 494.734C299.094 494.734 300.031 495.305 300.516 496.195H300.547V492.312C300.547 491.883 300.828 491.586 301.227 491.586C301.625 491.586 301.906 491.883 301.906 492.312V502.477C301.906 502.867 301.633 503.141 301.242 503.141C300.859 503.141 300.547 502.875 300.547 502.477V501.547H300.523C300.078 502.516 299.234 503.141 297.961 503.141ZM298.219 501.945C299.617 501.945 300.555 500.758 300.555 498.938C300.555 497.125 299.617 495.93 298.219 495.93C296.781 495.93 295.875 497.102 295.875 498.938C295.875 500.781 296.781 501.945 298.219 501.945ZM307.461 501.125V495.992H306.781C306.391 495.992 306.172 495.789 306.172 495.43C306.172 495.078 306.391 494.875 306.781 494.875H307.461V493.484C307.461 493.055 307.742 492.758 308.141 492.758C308.539 492.758 308.82 493.055 308.82 493.484V494.875H309.867C310.258 494.875 310.477 495.078 310.477 495.43C310.477 495.789 310.258 495.992 309.867 495.992H308.82V500.828C308.82 501.516 309.062 501.844 309.742 501.891L309.859 501.898C310.305 501.93 310.508 502.109 310.508 502.43C310.508 502.844 310.273 503.062 309.516 503.062H309.43C308.117 503.062 307.461 502.422 307.461 501.125ZM315.023 503.141C312.625 503.141 311.219 501.594 311.219 498.969C311.219 496.406 312.664 494.734 314.906 494.734C316.984 494.734 318.445 496.289 318.445 498.516C318.445 499.008 318.164 499.305 317.695 499.305H312.617C312.617 500.945 313.516 501.961 314.969 501.961C315.938 501.961 316.531 501.617 317.164 500.695C317.305 500.5 317.461 500.422 317.672 500.422C318.031 500.422 318.273 500.656 318.273 501.016C318.273 501.125 318.234 501.266 318.172 501.414C317.648 502.516 316.508 503.141 315.023 503.141ZM312.625 498.242H317.039C317.008 496.836 316.141 495.914 314.883 495.914C313.617 495.914 312.711 496.844 312.625 498.242ZM319.969 503.141C319.602 503.141 319.328 502.891 319.328 502.555C319.328 502.422 319.375 502.289 319.461 502.164L321.805 498.938L319.508 495.727C319.414 495.594 319.367 495.461 319.367 495.312C319.367 494.984 319.656 494.734 320.031 494.734C320.266 494.734 320.398 494.812 320.547 495.023L322.555 497.922H322.586L324.547 495.055C324.703 494.828 324.852 494.734 325.07 494.734C325.453 494.734 325.742 494.984 325.742 495.312C325.742 495.453 325.695 495.594 325.609 495.711L323.289 498.883L325.578 502.141C325.672 502.281 325.719 502.414 325.719 502.547C325.719 502.883 325.438 503.141 325.07 503.141C324.852 503.141 324.672 503.055 324.555 502.875L322.539 499.906H322.508L320.477 502.875C320.352 503.055 320.188 503.141 319.969 503.141ZM327.617 501.125V495.992H326.938C326.547 495.992 326.328 495.789 326.328 495.43C326.328 495.078 326.547 494.875 326.938 494.875H327.617V493.484C327.617 493.055 327.898 492.758 328.297 492.758C328.695 492.758 328.977 493.055 328.977 493.484V494.875H330.023C330.414 494.875 330.633 495.078 330.633 495.43C330.633 495.789 330.414 495.992 330.023 495.992H328.977V500.828C328.977 501.516 329.219 501.844 329.898 501.891L330.016 501.898C330.461 501.93 330.664 502.109 330.664 502.43C330.664 502.844 330.43 503.062 329.672 503.062H329.586C328.273 503.062 327.617 502.422 327.617 501.125ZM333.156 497.328C332.656 497.328 332.266 496.938 332.266 496.438C332.266 495.938 332.656 495.547 333.156 495.547C333.656 495.547 334.047 495.938 334.047 496.438C334.047 496.938 333.656 497.328 333.156 497.328ZM333.156 503.078C332.656 503.078 332.266 502.688 332.266 502.188C332.266 501.688 332.656 501.297 333.156 501.297C333.656 501.297 334.047 501.688 334.047 502.188C334.047 502.688 333.656 503.078 333.156 503.078ZM342.93 503.141C342.531 503.141 342.25 502.844 342.25 502.414V493.266H342.219L340.109 494.742C339.953 494.852 339.805 494.906 339.633 494.906C339.305 494.906 339.078 494.672 339.078 494.328C339.078 494.078 339.172 493.914 339.469 493.703L341.883 491.977C342.32 491.664 342.508 491.586 342.828 491.586C343.312 491.586 343.609 491.883 343.609 492.375V502.414C343.609 502.844 343.328 503.141 342.93 503.141ZM350.555 503.195C348.867 503.195 347.523 502.281 346.828 500.656C346.453 499.789 346.273 498.773 346.273 497.555C346.273 493.758 347.891 491.531 350.648 491.531C352.094 491.531 353.352 492.203 353.984 493.305C354.125 493.547 354.188 493.742 354.188 493.969C354.188 494.32 353.914 494.57 353.539 494.57C353.258 494.57 353.062 494.422 352.812 494.023C352.273 493.172 351.578 492.773 350.633 492.773C348.773 492.773 347.703 494.406 347.633 497.344V497.445H347.656C348.117 496.43 349.273 495.617 350.805 495.617C352.953 495.617 354.547 497.203 354.547 499.344C354.547 501.57 352.867 503.195 350.555 503.195ZM350.539 501.945C351.977 501.945 353.117 500.812 353.117 499.391C353.117 497.914 352.055 496.852 350.562 496.852C349.07 496.852 347.969 497.914 347.969 499.352C347.969 500.797 349.094 501.945 350.539 501.945ZM356.703 505.867C356.305 505.867 356.023 505.57 356.023 505.141V495.422C356.023 495.016 356.289 494.734 356.672 494.734C357.047 494.734 357.312 495.016 357.312 495.422V496.25H357.344C357.844 495.336 358.789 494.734 359.969 494.734C362.039 494.734 363.445 496.391 363.445 498.938C363.445 501.484 362.047 503.141 360 503.141C358.836 503.141 357.898 502.57 357.414 501.68H357.383V505.141C357.383 505.57 357.102 505.867 356.703 505.867ZM359.703 501.945C361.148 501.945 362.055 500.781 362.055 498.938C362.055 497.102 361.148 495.93 359.703 495.93C358.312 495.93 357.375 497.133 357.375 498.938C357.375 500.75 358.312 501.945 359.703 501.945ZM364.969 503.141C364.602 503.141 364.328 502.891 364.328 502.555C364.328 502.422 364.375 502.289 364.461 502.164L366.805 498.938L364.508 495.727C364.414 495.594 364.367 495.461 364.367 495.312C364.367 494.984 364.656 494.734 365.031 494.734C365.266 494.734 365.398 494.812 365.547 495.023L367.555 497.922H367.586L369.547 495.055C369.703 494.828 369.852 494.734 370.07 494.734C370.453 494.734 370.742 494.984 370.742 495.312C370.742 495.453 370.695 495.594 370.609 495.711L368.289 498.883L370.578 502.141C370.672 502.281 370.719 502.414 370.719 502.547C370.719 502.883 370.438 503.141 370.07 503.141C369.852 503.141 369.672 503.055 369.555 502.875L367.539 499.906H367.508L365.477 502.875C365.352 503.055 365.188 503.141 364.969 503.141Z" fill="#272827"/>
<path d="M143.828 98.25C142.734 98.25 142.078 97.5625 142.078 96.4375V77.2656C142.078 76.1406 142.734 75.4531 143.828 75.4531H154.766C155.75 75.4531 156.406 76.0469 156.406 76.9688C156.406 77.8906 155.734 78.4844 154.766 78.4844H145.578V85.6094H153.938C154.875 85.6094 155.516 86.1875 155.516 87.0781C155.516 87.9844 154.875 88.5625 153.938 88.5625H145.578V96.4375C145.578 97.5625 144.906 98.25 143.828 98.25ZM165.297 98.3125C160.594 98.3125 157.5 95.0781 157.5 89.7812C157.5 84.5 160.609 81.2656 165.297 81.2656C169.984 81.2656 173.094 84.5 173.094 89.7812C173.094 95.0781 170 98.3125 165.297 98.3125ZM165.297 95.5312C167.953 95.5312 169.656 93.4375 169.656 89.7812C169.656 86.1406 167.938 84.0469 165.297 84.0469C162.656 84.0469 160.938 86.1406 160.938 89.7812C160.938 93.4375 162.656 95.5312 165.297 95.5312ZM177.391 98.2969C176.391 98.2969 175.703 97.625 175.703 96.5156V82.9688C175.703 81.9375 176.328 81.2656 177.312 81.2656C178.281 81.2656 178.953 81.9375 178.953 82.9844V84.2812H179.031C179.922 82.4062 181.641 81.2812 184.172 81.2812C187.797 81.2812 189.875 83.5938 189.875 87.3594V96.5156C189.875 97.625 189.172 98.2969 188.172 98.2969C187.188 98.2969 186.484 97.625 186.484 96.5156V88.0156C186.484 85.5469 185.328 84.1875 182.984 84.1875C180.609 84.1875 179.078 85.875 179.078 88.4219V96.5156C179.078 97.625 178.375 98.2969 177.391 98.2969ZM194.125 94.0625V84.2344H192.938C192.062 84.2344 191.531 83.7344 191.531 82.9062C191.531 82.0625 192.062 81.5625 192.938 81.5625H194.125V79.125C194.125 78.0469 194.797 77.3281 195.828 77.3281C196.844 77.3281 197.516 78.0469 197.516 79.125V81.5625H199.438C200.312 81.5625 200.844 82.0781 200.844 82.9062C200.844 83.7344 200.312 84.2344 199.438 84.2344H197.516V93.3125C197.516 94.625 197.969 95.2188 199.188 95.3125L199.453 95.3281C200.422 95.4219 200.906 95.8125 200.906 96.6094C200.906 97.625 200.125 98.1406 198.469 98.1406H198.297C195.531 98.1406 194.125 96.7812 194.125 94.0625ZM212.078 98.25C210.984 98.25 210.328 97.5625 210.328 96.4375V77.2656C210.328 76.1406 210.984 75.4531 212.078 75.4531H223.016C224 75.4531 224.656 76.0469 224.656 76.9688C224.656 77.8906 223.984 78.4844 223.016 78.4844H213.828V85.6094H222.188C223.125 85.6094 223.766 86.1875 223.766 87.0781C223.766 87.9844 223.125 88.5625 222.188 88.5625H213.828V96.4375C213.828 97.5625 213.156 98.25 212.078 98.25ZM230.891 98.2812C227.672 98.2812 225.406 96.2812 225.406 93.3281C225.406 90.4531 227.625 88.6875 231.516 88.4688L236.031 88.2031V86.9375C236.031 85.1094 234.797 84.0156 232.734 84.0156C231.109 84.0156 230.031 84.5938 229.094 86.0938C228.75 86.5938 228.312 86.8125 227.719 86.8125C226.875 86.8125 226.266 86.25 226.266 85.4062C226.266 85.0625 226.359 84.6875 226.562 84.3125C227.422 82.4531 229.906 81.2656 232.859 81.2656C236.844 81.2656 239.391 83.375 239.391 86.6719V96.5938C239.391 97.6562 238.719 98.2969 237.766 98.2969C236.828 98.2969 236.188 97.6875 236.156 96.6875V95.2969H236.078C235.125 97.125 233.031 98.2812 230.891 98.2812ZM231.812 95.6094C234.172 95.6094 236.031 93.9844 236.031 91.8438V90.5469L231.969 90.7969C229.953 90.9375 228.812 91.8281 228.812 93.2344C228.812 94.6719 230.016 95.6094 231.812 95.6094ZM244.359 98.2969C243.344 98.2969 242.672 97.5938 242.672 96.5156V82.9844C242.672 81.9219 243.328 81.2656 244.281 81.2656C245.219 81.2656 245.891 81.9062 245.891 82.9844V84.3281H245.969C246.703 82.5 248.422 81.2812 250.641 81.2812C252.922 81.2812 254.578 82.4531 255.234 84.5H255.312C256.156 82.5 258.094 81.2812 260.438 81.2812C263.688 81.2812 265.812 83.4375 265.812 86.7031V96.5156C265.812 97.5938 265.125 98.2969 264.109 98.2969C263.094 98.2969 262.422 97.5938 262.422 96.5156V87.5156C262.422 85.3906 261.281 84.1719 259.281 84.1719C257.281 84.1719 255.891 85.6562 255.891 87.7344V96.5156C255.891 97.5938 255.25 98.2969 254.234 98.2969C253.219 98.2969 252.578 97.5938 252.578 96.5156V87.2656C252.578 85.375 251.375 84.1719 249.469 84.1719C247.469 84.1719 246.047 85.7344 246.047 87.8438V96.5156C246.047 97.5938 245.375 98.2969 244.359 98.2969ZM270.875 79.0781C269.797 79.0781 268.922 78.2031 268.922 77.1406C268.922 76.0625 269.797 75.2188 270.875 75.2188C271.969 75.2188 272.844 76.0625 272.844 77.1406C272.844 78.2031 271.969 79.0781 270.875 79.0781ZM270.875 98.2969C269.859 98.2969 269.188 97.5938 269.188 96.5156V83.0625C269.188 81.9688 269.859 81.2656 270.875 81.2656C271.891 81.2656 272.562 81.9688 272.562 83.0625V96.5156C272.562 97.5938 271.891 98.2969 270.875 98.2969ZM277.828 98.2969C276.844 98.2969 276.141 97.625 276.141 96.5156V76.9375C276.141 75.8281 276.844 75.1562 277.828 75.1562C278.812 75.1562 279.516 75.8281 279.516 76.9375V96.5156C279.516 97.625 278.812 98.2969 277.828 98.2969ZM285.016 104.125C283.453 104.125 282.594 103.547 282.594 102.5C282.594 101.781 283.094 101.312 283.906 101.312C284.266 101.312 284.391 101.328 284.781 101.328C285.719 101.328 286.672 100.812 287.281 99.125L287.594 98.1719L282.094 83.7812C281.969 83.4375 281.906 83.0938 281.906 82.8281C281.906 81.9062 282.641 81.2656 283.625 81.2656C284.469 81.2656 284.953 81.625 285.25 82.5625L289.438 94.9375H289.484L293.688 82.5625C293.969 81.6406 294.438 81.2656 295.297 81.2656C296.266 81.2656 296.938 81.9062 296.938 82.8125C296.938 83.0781 296.875 83.4219 296.766 83.75L291.062 98.8281C289.609 102.781 288.062 104.125 285.016 104.125Z" fill="black"/>
</svg>
