<svg width="836" height="740" viewBox="0 0 836 740" fill="none" xmlns="http://www.w3.org/2000/svg">
<rect width="836" height="740" fill="#F9F9F9"/>
<path d="M143.828 98.25C142.734 98.25 142.078 97.5625 142.078 96.4375V77.0156C142.078 75.8906 142.734 75.2031 143.828 75.2031C144.906 75.2031 145.578 75.8906 145.578 77.0156V96.4375C145.578 97.5625 144.906 98.25 143.828 98.25ZM156.359 98.3125C151.656 98.3125 148.594 95.0469 148.594 89.8125C148.594 84.6094 151.641 81.2656 156.328 81.2656C159.5 81.2656 162.219 82.9531 162.938 85.25C163.031 85.5156 163.094 85.7969 163.094 86.0312C163.094 86.8906 162.484 87.4219 161.656 87.4219C160.938 87.4219 160.531 87.1406 160.125 86.3906C159.281 84.8281 158.125 84.0781 156.391 84.0781C153.75 84.0781 152.031 86.2812 152.031 89.7812C152.031 93.3594 153.781 95.4844 156.391 95.4844C158.219 95.4844 159.328 94.6719 160.125 93.25C160.594 92.4375 160.953 92.1562 161.688 92.1562C162.516 92.1562 163.125 92.7188 163.125 93.5625C163.125 93.8281 163.062 94.1094 162.938 94.4375C162.078 96.7031 159.406 98.3125 156.359 98.3125ZM172.922 98.3125C168.219 98.3125 165.125 95.0781 165.125 89.7812C165.125 84.5 168.234 81.2656 172.922 81.2656C177.609 81.2656 180.719 84.5 180.719 89.7812C180.719 95.0781 177.625 98.3125 172.922 98.3125ZM172.922 95.5312C175.578 95.5312 177.281 93.4375 177.281 89.7812C177.281 86.1406 175.562 84.0469 172.922 84.0469C170.281 84.0469 168.562 86.1406 168.562 89.7812C168.562 93.4375 170.281 95.5312 172.922 95.5312ZM185.016 98.2969C184.016 98.2969 183.328 97.625 183.328 96.5156V82.9688C183.328 81.9375 183.953 81.2656 184.938 81.2656C185.906 81.2656 186.578 81.9375 186.578 82.9844V84.2812H186.656C187.547 82.4062 189.266 81.2812 191.797 81.2812C195.422 81.2812 197.5 83.5938 197.5 87.3594V96.5156C197.5 97.625 196.797 98.2969 195.797 98.2969C194.812 98.2969 194.109 97.625 194.109 96.5156V88.0156C194.109 85.5469 192.953 84.1875 190.609 84.1875C188.234 84.1875 186.703 85.875 186.703 88.4219V96.5156C186.703 97.625 186 98.2969 185.016 98.2969ZM206.828 98.3125C203.594 98.3125 201.219 96.9844 200.438 94.9688C200.328 94.7188 200.297 94.4844 200.297 94.2656C200.297 93.4219 200.906 92.9219 201.75 92.9219C202.312 92.9219 202.797 93.1875 203.219 93.8125C204.062 95.1406 205.047 95.7344 207 95.7344C208.922 95.7344 210.219 94.9062 210.219 93.5469C210.219 92.4688 209.578 91.8906 207.812 91.4688L205.219 90.8594C202.031 90.1094 200.469 88.5469 200.469 86.2031C200.469 83.2344 203.047 81.2656 206.953 81.2656C209.922 81.2656 212.359 82.7812 212.828 84.7188C212.859 84.9062 212.891 85.0625 212.891 85.2188C212.891 85.9688 212.422 86.4688 211.578 86.4688C211.031 86.4688 210.547 86.2812 210.219 85.75C209.484 84.5 208.484 83.8438 206.828 83.8438C205.016 83.8438 203.766 84.7344 203.766 86.0156C203.766 87.0469 204.562 87.7656 206.297 88.1719L208.844 88.7656C212.297 89.5625 213.625 90.7969 213.625 93.2344C213.625 96.2812 210.891 98.3125 206.828 98.3125Z" fill="black"/>
<path d="M141.617 166V153.317H143.199V164.576H149.316V166H141.617ZM155.108 166.167C152.41 166.167 150.74 164.304 150.74 161.271V161.254C150.74 158.213 152.41 156.358 155.108 156.358C157.807 156.358 159.477 158.213 159.477 161.254V161.271C159.477 164.304 157.807 166.167 155.108 166.167ZM155.108 164.813C156.901 164.813 157.912 163.504 157.912 161.271V161.254C157.912 159.013 156.901 157.712 155.108 157.712C153.315 157.712 152.305 159.013 152.305 161.254V161.271C152.305 163.504 153.315 164.813 155.108 164.813ZM165.726 166.167C163.071 166.167 161.375 164.242 161.375 161.236V161.219C161.375 158.274 163.062 156.358 165.717 156.358C168.02 156.358 169.399 157.686 169.681 159.373L169.689 159.426H168.169L168.16 159.399C167.923 158.468 167.079 157.712 165.717 157.712C164.012 157.712 162.939 159.083 162.939 161.219V161.236C162.939 163.416 164.029 164.813 165.717 164.813C166.991 164.813 167.8 164.251 168.151 163.196L168.169 163.144L169.681 163.135L169.663 163.231C169.276 164.945 168.002 166.167 165.726 166.167ZM172.01 166V152.764H173.539V160.665H173.68L177.775 156.525H179.63L175.499 160.507L179.902 166H177.978L174.427 161.544L173.539 162.405V166H172.01Z" fill="black"/>
<path d="M236.617 166V153.317H244.316V154.741H238.199V159.101H243.815V160.507H238.199V166H236.617ZM248.711 166.167C246.909 166.167 245.547 165.077 245.547 163.354V163.337C245.547 161.649 246.795 160.674 249.001 160.542L251.717 160.375V159.514C251.717 158.345 251.005 157.712 249.59 157.712C248.456 157.712 247.709 158.134 247.463 158.872L247.454 158.898H245.925L245.934 158.846C246.18 157.36 247.621 156.358 249.643 156.358C251.954 156.358 253.246 157.545 253.246 159.514V166H251.717V164.603H251.576C250.979 165.613 249.985 166.167 248.711 166.167ZM247.111 163.319C247.111 164.277 247.929 164.84 249.027 164.84C250.583 164.84 251.717 163.82 251.717 162.467V161.605L249.186 161.764C247.744 161.852 247.111 162.361 247.111 163.302V163.319ZM258.37 166L254.863 156.525H256.48L259.073 164.33H259.214L261.807 156.525H263.424L259.917 166H258.37ZM268.987 166.167C266.289 166.167 264.619 164.304 264.619 161.271V161.254C264.619 158.213 266.289 156.358 268.987 156.358C271.686 156.358 273.355 158.213 273.355 161.254V161.271C273.355 164.304 271.686 166.167 268.987 166.167ZM268.987 164.813C270.78 164.813 271.791 163.504 271.791 161.271V161.254C271.791 159.013 270.78 157.712 268.987 157.712C267.194 157.712 266.184 159.013 266.184 161.254V161.271C266.184 163.504 267.194 164.813 268.987 164.813ZM275.729 166V156.525H277.258V157.932H277.398C277.759 156.938 278.646 156.358 279.93 156.358C280.22 156.358 280.545 156.394 280.694 156.42V157.905C280.378 157.853 280.088 157.817 279.754 157.817C278.295 157.817 277.258 158.74 277.258 160.129V166H275.729ZM283.393 154.697C282.812 154.697 282.338 154.223 282.338 153.643C282.338 153.062 282.812 152.588 283.393 152.588C283.973 152.588 284.447 153.062 284.447 153.643C284.447 154.223 283.973 154.697 283.393 154.697ZM282.619 166V156.525H284.148V166H282.619ZM290.397 166.07C288.446 166.07 287.629 165.35 287.629 163.539V157.791H286.135V156.525H287.629V154.073H289.211V156.525H291.285V157.791H289.211V163.152C289.211 164.269 289.598 164.717 290.582 164.717C290.854 164.717 291.004 164.708 291.285 164.682V165.982C290.986 166.035 290.696 166.07 290.397 166.07ZM297.297 166.167C294.59 166.167 292.955 164.269 292.955 161.298V161.289C292.955 158.362 294.625 156.358 297.2 156.358C299.775 156.358 301.34 158.274 301.34 161.104V161.702H294.52C294.563 163.662 295.645 164.805 297.332 164.805C298.615 164.805 299.406 164.198 299.661 163.627L299.696 163.548H301.226L301.208 163.618C300.883 164.901 299.529 166.167 297.297 166.167ZM297.191 157.721C295.785 157.721 294.713 158.679 294.546 160.48H299.784C299.626 158.608 298.589 157.721 297.191 157.721Z" fill="black"/>
<path d="M353.912 164.576V166H346.661V154.003H353.912V155.427H348.27V159.18H353.596V160.577H348.27V164.576H353.912ZM356.619 166V156.754H358.192V158.23H358.28C358.491 157.571 359.08 156.604 360.785 156.604C362.183 156.604 363.062 157.352 363.352 158.345H363.422C363.8 157.439 364.679 156.604 366.243 156.604C368.133 156.604 369.284 157.642 369.284 159.496V166H367.693V159.944C367.693 158.758 367.025 157.984 365.777 157.984C364.626 157.984 363.738 158.872 363.738 160.138V166H362.165V160.006C362.165 158.802 361.418 157.984 360.205 157.984C359.045 157.984 358.21 158.854 358.21 160.12V166H356.619ZM374.865 166.149C373.072 166.149 371.842 165.024 371.842 163.311C371.842 161.693 372.967 160.595 375.094 160.595H377.511V159.681C377.511 158.494 376.764 157.949 375.577 157.949C374.408 157.949 373.916 158.406 373.731 159.048H372.193C372.334 157.483 373.564 156.604 375.63 156.604C377.537 156.604 379.11 157.422 379.11 159.689V166H377.581V164.77H377.511C377.062 165.517 376.228 166.149 374.865 166.149ZM375.305 164.813C376.553 164.813 377.511 163.97 377.511 162.836V161.808H375.226C373.978 161.808 373.468 162.432 373.468 163.258C373.468 164.33 374.347 164.813 375.305 164.813ZM382.081 153.906C382.081 153.265 382.564 152.808 383.197 152.808C383.865 152.808 384.349 153.265 384.349 153.906C384.349 154.539 383.865 154.996 383.197 154.996C382.564 154.996 382.081 154.539 382.081 153.906ZM382.415 166V156.754H384.006V166H382.415ZM387.416 166V153.37H389.007V166H387.416Z" fill="black"/>
<path d="M146.073 260.003C148.402 260.003 149.914 261.55 149.914 263.765C149.914 265.979 148.402 267.518 146.064 267.518H143.278V272H141.661V260.003H146.073ZM148.253 263.765C148.253 262.279 147.4 261.418 145.924 261.418H143.278V266.111H145.924C147.4 266.111 148.253 265.25 148.253 263.765ZM152.322 272V262.754H153.913V264.178H153.992C154.221 263.571 154.889 262.613 156.523 262.613C156.726 262.613 156.919 262.631 157.104 262.657V264.107C156.954 264.072 156.638 264.055 156.356 264.055C154.73 264.055 153.922 265.03 153.922 266.287V272H152.322ZM162.746 262.604C165.04 262.604 166.736 264.107 166.736 266.683V268.054C166.736 270.664 165.04 272.149 162.746 272.149C160.408 272.149 158.747 270.69 158.747 268.054V266.691C158.747 264.195 160.435 262.604 162.746 262.604ZM162.755 263.958C161.27 263.958 160.338 265.136 160.338 266.823V267.939C160.338 269.653 161.208 270.805 162.755 270.805C164.284 270.805 165.137 269.653 165.137 267.939V266.823C165.137 265.136 164.24 263.958 162.755 263.958ZM170.182 272V264.072H168.626V262.78H170.182V261.857C170.182 260.082 171.017 259.265 173.082 259.265C173.495 259.265 173.952 259.3 174.137 259.317V260.601C173.996 260.583 173.539 260.565 173.311 260.565C172.221 260.565 171.755 260.882 171.755 261.98V262.78H173.899V264.072H171.772V272H170.182ZM176.325 259.906C176.325 259.265 176.809 258.808 177.441 258.808C178.109 258.808 178.593 259.265 178.593 259.906C178.593 260.539 178.109 260.996 177.441 260.996C176.809 260.996 176.325 260.539 176.325 259.906ZM176.659 272V262.754H178.25V272H176.659ZM181.66 272V259.37H183.251V272H181.66ZM189.948 272.149C187.461 272.149 185.993 270.576 185.993 268.08V266.674C185.993 264.16 187.61 262.604 189.825 262.604C192.066 262.604 193.666 264.187 193.666 266.674V267.79H187.575V268.256C187.575 269.688 188.401 270.805 189.939 270.805C191.021 270.805 191.75 270.286 191.908 269.715H193.543C193.402 270.699 192.286 272.149 189.948 272.149ZM187.575 266.639H192.084V266.489C192.084 264.951 191.188 263.94 189.834 263.94C188.48 263.94 187.575 264.951 187.575 266.489V266.639Z" fill="black"/>
<path d="M237.164 272H235.696V260.003H237.287L241.198 269.196H241.251L245.153 260.003H246.735V272H245.268V263.281H245.18L241.875 270.945H240.557L237.243 263.281H237.164V272ZM253.521 272.149C251.033 272.149 249.565 270.576 249.565 268.08V266.674C249.565 264.16 251.183 262.604 253.397 262.604C255.639 262.604 257.238 264.187 257.238 266.674V267.79H251.147V268.256C251.147 269.688 251.974 270.805 253.512 270.805C254.593 270.805 255.322 270.286 255.48 269.715H257.115C256.975 270.699 255.858 272.149 253.521 272.149ZM251.147 266.639H255.656V266.489C255.656 264.951 254.76 263.94 253.406 263.94C252.053 263.94 251.147 264.951 251.147 266.489V266.639ZM259.436 265.408C259.436 263.448 261.079 262.604 262.881 262.604C264.876 262.604 266.194 263.633 266.194 265.188H264.718C264.665 264.547 264.067 263.853 262.828 263.853C261.747 263.853 260.974 264.354 260.974 265.25C260.974 266.349 262.222 266.489 263.268 266.683C264.999 266.981 266.432 267.465 266.432 269.267C266.432 271.104 264.955 272.149 262.74 272.149C260.684 272.149 259.269 271.227 259.269 269.574H260.824C260.947 270.392 261.519 270.91 262.811 270.91C264.27 270.91 264.867 270.251 264.867 269.451C264.867 268.423 263.839 268.229 262.556 267.975C260.833 267.623 259.436 267.228 259.436 265.408ZM268.594 265.408C268.594 263.448 270.237 262.604 272.039 262.604C274.034 262.604 275.353 263.633 275.353 265.188H273.876C273.823 264.547 273.226 263.853 271.986 263.853C270.905 263.853 270.132 264.354 270.132 265.25C270.132 266.349 271.38 266.489 272.426 266.683C274.157 266.981 275.59 267.465 275.59 269.267C275.59 271.104 274.113 272.149 271.898 272.149C269.842 272.149 268.427 271.227 268.427 269.574H269.982C270.105 270.392 270.677 270.91 271.969 270.91C273.428 270.91 274.025 270.251 274.025 269.451C274.025 268.423 272.997 268.229 271.714 267.975C269.991 267.623 268.594 267.228 268.594 265.408ZM280.688 272.149C278.895 272.149 277.664 271.024 277.664 269.311C277.664 267.693 278.789 266.595 280.916 266.595H283.333V265.681C283.333 264.494 282.586 263.949 281.399 263.949C280.23 263.949 279.738 264.406 279.554 265.048H278.016C278.156 263.483 279.387 262.604 281.452 262.604C283.359 262.604 284.933 263.422 284.933 265.689V272H283.403V270.77H283.333C282.885 271.517 282.05 272.149 280.688 272.149ZM281.127 270.813C282.375 270.813 283.333 269.97 283.333 268.836V267.808H281.048C279.8 267.808 279.29 268.432 279.29 269.258C279.29 270.33 280.169 270.813 281.127 270.813ZM291.357 274.048C292.983 274.048 293.783 273.178 293.783 271.728V270.383H293.695C293.335 271.183 292.386 271.833 291.103 271.833C289.055 271.833 287.455 270.383 287.455 267.948V266.516C287.455 264.081 289.046 262.613 291.094 262.613C292.482 262.613 293.467 263.396 293.774 264.151H293.854V262.754H295.374V271.719C295.374 274.268 293.669 275.384 291.305 275.384C288.94 275.384 287.78 274.197 287.657 272.853H289.274C289.397 273.503 290.145 274.048 291.357 274.048ZM291.489 263.976C289.986 263.976 289.055 265.118 289.055 266.806V267.676C289.055 269.363 290.074 270.497 291.507 270.497C292.983 270.497 293.783 269.275 293.783 267.957V266.56C293.783 265.206 292.939 263.976 291.489 263.976ZM302.019 272.149C299.531 272.149 298.063 270.576 298.063 268.08V266.674C298.063 264.16 299.681 262.604 301.896 262.604C304.137 262.604 305.736 264.187 305.736 266.674V267.79H299.646V268.256C299.646 269.688 300.472 270.805 302.01 270.805C303.091 270.805 303.82 270.286 303.979 269.715H305.613C305.473 270.699 304.356 272.149 302.019 272.149ZM299.646 266.639H304.154V266.489C304.154 264.951 303.258 263.94 301.904 263.94C300.551 263.94 299.646 264.951 299.646 266.489V266.639Z" fill="black"/>
<path d="M348.812 265.188V266.885C348.812 269.39 349.955 270.813 351.959 270.813C353.506 270.813 354.596 269.943 354.754 268.66H356.354V268.713C356.178 270.761 354.35 272.246 351.95 272.246C348.909 272.246 347.187 270.295 347.187 266.902V265.171C347.187 261.787 348.953 259.757 351.95 259.757C354.367 259.757 356.187 261.304 356.354 263.475V263.527H354.754C354.596 262.165 353.479 261.189 351.959 261.189C349.981 261.189 348.812 262.684 348.812 265.188ZM361.539 272.149C359.746 272.149 358.516 271.024 358.516 269.311C358.516 267.693 359.641 266.595 361.768 266.595H364.185V265.681C364.185 264.494 363.438 263.949 362.251 263.949C361.082 263.949 360.59 264.406 360.405 265.048H358.867C359.008 263.483 360.238 262.604 362.304 262.604C364.211 262.604 365.784 263.422 365.784 265.689V272H364.255V270.77H364.185C363.736 271.517 362.901 272.149 361.539 272.149ZM361.979 270.813C363.227 270.813 364.185 269.97 364.185 268.836V267.808H361.899C360.651 267.808 360.142 268.432 360.142 269.258C360.142 270.33 361.021 270.813 361.979 270.813ZM368.922 272V259.37H370.513V272H368.922ZM373.756 272V259.37H375.347V272H373.756Z" fill="black"/>
<path d="M146.073 366.003C148.402 366.003 149.914 367.55 149.914 369.765C149.914 371.979 148.402 373.518 146.064 373.518H143.278V378H141.661V366.003H146.073ZM148.253 369.765C148.253 368.279 147.4 367.418 145.924 367.418H143.278V372.111H145.924C147.4 372.111 148.253 371.25 148.253 369.765ZM154.572 378.149C152.779 378.149 151.549 377.024 151.549 375.311C151.549 373.693 152.674 372.595 154.801 372.595H157.218V371.681C157.218 370.494 156.471 369.949 155.284 369.949C154.115 369.949 153.623 370.406 153.438 371.048H151.9C152.041 369.483 153.271 368.604 155.337 368.604C157.244 368.604 158.817 369.422 158.817 371.689V378H157.288V376.77H157.218C156.77 377.517 155.935 378.149 154.572 378.149ZM155.012 376.813C156.26 376.813 157.218 375.97 157.218 374.836V373.808H154.933C153.685 373.808 153.175 374.432 153.175 375.258C153.175 376.33 154.054 376.813 155.012 376.813ZM169.408 368.754V378H167.835V376.462H167.747C167.483 377.218 166.613 378.149 164.996 378.149C163.142 378.149 161.832 377.314 161.832 375.17V368.754H163.423V374.739C163.423 376.277 164.337 376.761 165.436 376.761C166.789 376.761 167.817 375.768 167.817 374.581V368.754H169.408ZM172.098 371.408C172.098 369.448 173.741 368.604 175.543 368.604C177.538 368.604 178.856 369.633 178.856 371.188H177.38C177.327 370.547 176.729 369.853 175.49 369.853C174.409 369.853 173.636 370.354 173.636 371.25C173.636 372.349 174.884 372.489 175.93 372.683C177.661 372.981 179.094 373.465 179.094 375.267C179.094 377.104 177.617 378.149 175.402 378.149C173.346 378.149 171.931 377.227 171.931 375.574H173.486C173.609 376.392 174.181 376.91 175.473 376.91C176.932 376.91 177.529 376.251 177.529 375.451C177.529 374.423 176.501 374.229 175.218 373.975C173.495 373.623 172.098 373.228 172.098 371.408ZM185.202 378.149C182.715 378.149 181.247 376.576 181.247 374.08V372.674C181.247 370.16 182.864 368.604 185.079 368.604C187.32 368.604 188.92 370.187 188.92 372.674V373.79H182.829V374.256C182.829 375.688 183.655 376.805 185.193 376.805C186.274 376.805 187.004 376.286 187.162 375.715H188.797C188.656 376.699 187.54 378.149 185.202 378.149ZM182.829 372.639H187.338V372.489C187.338 370.951 186.441 369.94 185.088 369.94C183.734 369.94 182.829 370.951 182.829 372.489V372.639Z" fill="black"/>
<path d="M249.661 378V366.003H254.214C256.262 366.003 257.562 367.137 257.562 368.956C257.562 370.318 256.851 371.232 255.629 371.602V371.672C257.22 371.883 258.239 372.946 258.239 374.634C258.239 376.743 256.622 378 254.056 378H249.661ZM251.27 367.392V371.153H253.08C255.058 371.153 255.937 370.538 255.937 369.229C255.937 368.068 255.198 367.392 253.933 367.392H251.27ZM251.27 372.507V376.611H253.326C255.646 376.611 256.587 376.022 256.587 374.634C256.587 373.289 255.682 372.507 254.1 372.507H251.27ZM263.311 378.149C261.518 378.149 260.287 377.024 260.287 375.311C260.287 373.693 261.412 372.595 263.539 372.595H265.956V371.681C265.956 370.494 265.209 369.949 264.022 369.949C262.854 369.949 262.361 370.406 262.177 371.048H260.639C260.779 369.483 262.01 368.604 264.075 368.604C265.982 368.604 267.556 369.422 267.556 371.689V378H266.026V376.77H265.956C265.508 377.517 264.673 378.149 263.311 378.149ZM263.75 376.813C264.998 376.813 265.956 375.97 265.956 374.836V373.808H263.671C262.423 373.808 261.913 374.432 261.913 375.258C261.913 376.33 262.792 376.813 263.75 376.813ZM270.192 374.115V372.604C270.192 370.178 271.678 368.604 274.051 368.604C276.362 368.604 277.558 370.028 277.602 371.426H276.046C275.949 370.881 275.519 369.993 274.077 369.993C272.565 369.993 271.783 371.039 271.783 372.656V374.133C271.783 375.741 272.653 376.761 274.077 376.761C275.439 376.761 275.949 376.137 276.116 375.434H277.663C277.61 376.796 276.494 378.149 274.051 378.149C271.669 378.149 270.192 376.594 270.192 374.115ZM281.803 374.599V378H280.212V365.37H281.803V372.911H281.864L285.591 368.754H287.428L283.807 372.771L287.665 378H285.767L282.638 373.746L281.803 374.599ZM289.757 380.716H288.289L292.613 365.37H294.09L289.757 380.716ZM297.57 378H295.979V366.003H297.509L303.441 375.231H303.521V366.003H305.111V378H303.582L297.632 368.763H297.57V378ZM311.853 378.149C309.365 378.149 307.897 376.576 307.897 374.08V372.674C307.897 370.16 309.515 368.604 311.729 368.604C313.971 368.604 315.57 370.187 315.57 372.674V373.79H309.479V374.256C309.479 375.688 310.306 376.805 311.844 376.805C312.925 376.805 313.654 376.286 313.812 375.715H315.447C315.307 376.699 314.19 378.149 311.853 378.149ZM309.479 372.639H313.988V372.489C313.988 370.951 313.092 369.94 311.738 369.94C310.385 369.94 309.479 370.951 309.479 372.489V372.639ZM323.401 378L321.239 374.572H321.178L319.007 378H317.231L320.308 373.43L317.196 368.754H319.095L321.204 372.173H321.274L323.445 368.754H325.256L322.127 373.289L325.282 378H323.401ZM327.989 368.78V366.46H329.562V368.78H331.654V370.072H329.562V375.398C329.562 376.488 329.932 376.77 331.057 376.77C331.285 376.77 331.637 376.743 331.786 376.726V378C331.654 378.035 331.004 378.079 330.652 378.079C328.455 378.079 327.98 377.235 327.98 375.407V370.072H326.565V368.78H327.989Z" fill="black"/>
<path d="M141.661 484V472.003H146.214C148.262 472.003 149.562 473.137 149.562 474.956C149.562 476.318 148.851 477.232 147.629 477.602V477.672C149.22 477.883 150.239 478.946 150.239 480.634C150.239 482.743 148.622 484 146.056 484H141.661ZM143.27 473.392V477.153H145.08C147.058 477.153 147.937 476.538 147.937 475.229C147.937 474.068 147.198 473.392 145.933 473.392H143.27ZM143.27 478.507V482.611H145.326C147.646 482.611 148.587 482.022 148.587 480.634C148.587 479.289 147.682 478.507 146.1 478.507H143.27ZM152.7 471.906C152.7 471.265 153.184 470.808 153.816 470.808C154.484 470.808 154.968 471.265 154.968 471.906C154.968 472.539 154.484 472.996 153.816 472.996C153.184 472.996 152.7 472.539 152.7 471.906ZM153.034 484V474.754H154.625V484H153.034ZM158.035 484V471.37H159.626V484H158.035ZM162.869 484V471.37H164.46V484H162.869ZM167.211 477.408C167.211 475.448 168.854 474.604 170.656 474.604C172.651 474.604 173.97 475.633 173.97 477.188H172.493C172.44 476.547 171.843 475.853 170.604 475.853C169.522 475.853 168.749 476.354 168.749 477.25C168.749 478.349 169.997 478.489 171.043 478.683C172.774 478.981 174.207 479.465 174.207 481.267C174.207 483.104 172.73 484.149 170.516 484.149C168.459 484.149 167.044 483.227 167.044 481.574H168.6C168.723 482.392 169.294 482.91 170.586 482.91C172.045 482.91 172.643 482.251 172.643 481.451C172.643 480.423 171.614 480.229 170.331 479.975C168.608 479.623 167.211 479.228 167.211 477.408Z" fill="black"/>
<path d="M234.812 477.188V478.885C234.812 481.39 235.955 482.813 237.959 482.813C239.506 482.813 240.596 481.943 240.754 480.66H242.354V480.713C242.178 482.761 240.35 484.246 237.95 484.246C234.909 484.246 233.187 482.295 233.187 478.902V477.171C233.187 473.787 234.953 471.757 237.95 471.757C240.367 471.757 242.187 473.304 242.354 475.475V475.527H240.754C240.596 474.165 239.479 473.189 237.959 473.189C235.981 473.189 234.812 474.684 234.812 477.188ZM247.539 484.149C245.746 484.149 244.516 483.024 244.516 481.311C244.516 479.693 245.641 478.595 247.768 478.595H250.185V477.681C250.185 476.494 249.438 475.949 248.251 475.949C247.082 475.949 246.59 476.406 246.405 477.048H244.867C245.008 475.483 246.238 474.604 248.304 474.604C250.211 474.604 251.784 475.422 251.784 477.689V484H250.255V482.77H250.185C249.736 483.517 248.901 484.149 247.539 484.149ZM247.979 482.813C249.227 482.813 250.185 481.97 250.185 480.836V479.808H247.899C246.651 479.808 246.142 480.432 246.142 481.258C246.142 482.33 247.021 482.813 247.979 482.813ZM254.922 484V471.37H256.513V484H254.922ZM263.21 484.149C260.723 484.149 259.255 482.576 259.255 480.08V478.674C259.255 476.16 260.872 474.604 263.087 474.604C265.328 474.604 266.928 476.187 266.928 478.674V479.79H260.837V480.256C260.837 481.688 261.663 482.805 263.201 482.805C264.282 482.805 265.012 482.286 265.17 481.715H266.805C266.664 482.699 265.548 484.149 263.21 484.149ZM260.837 478.639H265.346V478.489C265.346 476.951 264.449 475.94 263.096 475.94C261.742 475.94 260.837 476.951 260.837 478.489V478.639ZM269.564 484V474.754H271.138V476.433H271.226C271.454 475.703 272.096 474.604 274.029 474.604C275.893 474.604 277.167 475.615 277.167 477.689V484H275.576V478.19C275.576 476.74 274.829 475.993 273.572 475.993C271.946 475.993 271.155 477.25 271.155 478.85V484H269.564ZM283.39 474.613C284.69 474.613 285.701 475.185 286.07 476.125H286.149V471.37H287.74V484H286.211V482.523H286.132C285.859 483.464 284.708 484.132 283.354 484.132C281.201 484.132 279.804 482.629 279.804 480.273V478.48C279.804 476.125 281.236 474.613 283.39 474.613ZM283.715 475.976C282.273 475.976 281.403 477.03 281.403 478.806V479.931C281.403 481.724 282.291 482.77 283.759 482.77C285.209 482.77 286.149 481.741 286.149 480.08V478.48C286.149 477.013 285.121 475.976 283.715 475.976ZM293.4 484.149C291.607 484.149 290.377 483.024 290.377 481.311C290.377 479.693 291.502 478.595 293.629 478.595H296.046V477.681C296.046 476.494 295.299 475.949 294.112 475.949C292.943 475.949 292.451 476.406 292.267 477.048H290.729C290.869 475.483 292.1 474.604 294.165 474.604C296.072 474.604 297.646 475.422 297.646 477.689V484H296.116V482.77H296.046C295.598 483.517 294.763 484.149 293.4 484.149ZM293.84 482.813C295.088 482.813 296.046 481.97 296.046 480.836V479.808H293.761C292.513 479.808 292.003 480.432 292.003 481.258C292.003 482.33 292.882 482.813 293.84 482.813ZM300.871 484V474.754H302.462V476.178H302.541C302.77 475.571 303.438 474.613 305.072 474.613C305.274 474.613 305.468 474.631 305.652 474.657V476.107C305.503 476.072 305.187 476.055 304.905 476.055C303.279 476.055 302.471 477.03 302.471 478.287V484H300.871Z" fill="black"/>
<path d="M361.912 482.576V484H354.661V472.003H361.912V473.427H356.27V477.18H361.596V478.577H356.27V482.576H361.912ZM364.76 484V474.754H366.351V476.178H366.43C366.658 475.571 367.326 474.613 368.961 474.613C369.163 474.613 369.356 474.631 369.541 474.657V476.107C369.392 476.072 369.075 476.055 368.794 476.055C367.168 476.055 366.359 477.03 366.359 478.287V484H364.76ZM371.809 484V474.754H373.399V476.178H373.479C373.707 475.571 374.375 474.613 376.01 474.613C376.212 474.613 376.405 474.631 376.59 474.657V476.107C376.44 476.072 376.124 476.055 375.843 476.055C374.217 476.055 373.408 477.03 373.408 478.287V484H371.809ZM382.232 474.604C384.526 474.604 386.223 476.107 386.223 478.683V480.054C386.223 482.664 384.526 484.149 382.232 484.149C379.895 484.149 378.233 482.69 378.233 480.054V478.691C378.233 476.195 379.921 474.604 382.232 474.604ZM382.241 475.958C380.756 475.958 379.824 477.136 379.824 478.823V479.939C379.824 481.653 380.694 482.805 382.241 482.805C383.771 482.805 384.623 481.653 384.623 479.939V478.823C384.623 477.136 383.727 475.958 382.241 475.958ZM389.035 484V474.754H390.626V476.178H390.705C390.934 475.571 391.602 474.613 393.236 474.613C393.438 474.613 393.632 474.631 393.816 474.657V476.107C393.667 476.072 393.351 476.055 393.069 476.055C391.443 476.055 390.635 477.03 390.635 478.287V484H389.035Z" fill="black"/>
<path d="M150.424 581.281H148.807C148.49 579.989 147.453 579.189 145.985 579.189C143.999 579.189 142.804 580.666 142.804 583.153V584.788C142.804 587.328 143.981 588.813 146.038 588.813C147.954 588.813 148.93 587.724 148.93 586.229V585.104H145.897V583.725H150.503V586.194C150.503 588.515 148.912 590.246 146.047 590.246C142.944 590.246 141.187 588.225 141.187 584.788V583.153C141.187 579.849 143.015 577.757 146.021 577.757C148.438 577.757 150.116 579.189 150.424 581.281ZM153.254 590V580.754H154.827V582.23H154.915C155.126 581.571 155.715 580.604 157.42 580.604C158.817 580.604 159.696 581.352 159.986 582.345H160.057C160.435 581.439 161.313 580.604 162.878 580.604C164.768 580.604 165.919 581.642 165.919 583.496V590H164.328V583.944C164.328 582.758 163.66 581.984 162.412 581.984C161.261 581.984 160.373 582.872 160.373 584.138V590H158.8V584.006C158.8 582.802 158.053 581.984 156.84 581.984C155.68 581.984 154.845 582.854 154.845 584.12V590H153.254ZM171.5 590.149C169.707 590.149 168.477 589.024 168.477 587.311C168.477 585.693 169.602 584.595 171.729 584.595H174.146V583.681C174.146 582.494 173.398 581.949 172.212 581.949C171.043 581.949 170.551 582.406 170.366 583.048H168.828C168.969 581.483 170.199 580.604 172.265 580.604C174.172 580.604 175.745 581.422 175.745 583.689V590H174.216V588.77H174.146C173.697 589.517 172.862 590.149 171.5 590.149ZM171.939 588.813C173.188 588.813 174.146 587.97 174.146 586.836V585.808H171.86C170.612 585.808 170.103 586.432 170.103 587.258C170.103 588.33 170.981 588.813 171.939 588.813ZM178.716 577.906C178.716 577.265 179.199 576.808 179.832 576.808C180.5 576.808 180.983 577.265 180.983 577.906C180.983 578.539 180.5 578.996 179.832 578.996C179.199 578.996 178.716 578.539 178.716 577.906ZM179.05 590V580.754H180.641V590H179.05ZM184.051 590V577.37H185.642V590H184.051Z" fill="black"/>
<path d="M158.5 196C158.5 195.172 159.172 194.5 160 194.5C160.828 194.5 161.5 195.172 161.5 196C161.5 196.829 160.828 197.5 160 197.5C159.172 197.5 158.5 196.829 158.5 196Z" fill="#486247"/>
<path fill-rule="evenodd" clip-rule="evenodd" d="M155.622 190.597L155.306 187.758C155.266 187.394 155.266 187.027 155.306 186.663L155.329 186.458C155.571 184.285 157.279 182.565 159.451 182.31C159.816 182.267 160.184 182.267 160.549 182.31C162.721 182.565 164.43 184.285 164.671 186.458L164.694 186.663C164.734 187.027 164.734 187.394 164.694 187.758L164.378 190.597L165.065 190.652C166.148 190.738 167.032 191.552 167.207 192.624C167.573 194.86 167.573 197.14 167.207 199.376C167.032 200.448 166.148 201.262 165.065 201.348L163.569 201.468C161.193 201.657 158.807 201.657 156.431 201.468L154.935 201.348C153.852 201.262 152.968 200.448 152.793 199.376C152.427 197.14 152.427 194.86 152.793 192.624C152.968 191.552 153.852 190.738 154.935 190.652L155.622 190.597ZM159.626 183.799C159.875 183.77 160.126 183.77 160.374 183.799C161.853 183.973 163.016 185.144 163.18 186.624L163.203 186.829C163.231 187.083 163.231 187.339 163.203 187.593L162.882 190.483C160.963 190.359 159.037 190.36 157.118 190.483L156.797 187.593C156.769 187.339 156.769 187.083 156.797 186.829L156.82 186.624C156.984 185.144 158.148 183.973 159.626 183.799ZM163.449 192.028C161.154 191.845 158.847 191.845 156.551 192.028L155.055 192.147C154.66 192.179 154.337 192.476 154.273 192.867C153.933 194.942 153.933 197.058 154.273 199.134C154.337 199.525 154.66 199.821 155.055 199.853L156.551 199.972C158.847 200.156 161.154 200.156 163.449 199.972L164.946 199.853C165.341 199.821 165.663 199.525 165.727 199.134C166.067 197.058 166.067 194.942 165.727 192.867C165.663 192.476 165.341 192.179 164.946 192.147L163.449 192.028Z" fill="#486247"/>
<path fill-rule="evenodd" clip-rule="evenodd" d="M255.25 190.03C255.25 187.329 257.619 185.25 260.4 185.25C261.833 185.25 263.095 185.922 264 186.792C264.905 185.922 266.167 185.25 267.6 185.25C270.381 185.25 272.75 187.329 272.75 190.03C272.75 191.88 271.961 193.506 270.868 194.882C269.777 196.254 268.35 197.419 266.983 198.366C266.462 198.728 265.934 199.061 265.45 199.307C264.997 199.538 264.475 199.75 264 199.75C263.525 199.75 263.003 199.538 262.55 199.307C262.066 199.061 261.538 198.728 261.017 198.366C259.65 197.419 258.223 196.254 257.132 194.882C256.039 193.506 255.25 191.88 255.25 190.03ZM260.4 186.75C258.321 186.75 256.75 188.279 256.75 190.03C256.75 191.433 257.346 192.74 258.306 193.948C259.268 195.159 260.563 196.227 261.871 197.133C262.366 197.476 262.832 197.768 263.23 197.971C263.659 198.189 263.907 198.25 264 198.25C264.093 198.25 264.341 198.189 264.77 197.971C265.168 197.768 265.634 197.476 266.129 197.133C267.437 196.227 268.732 195.159 269.694 193.948C270.654 192.74 271.25 191.433 271.25 190.03C271.25 188.279 269.679 186.75 267.6 186.75C266.406 186.75 265.291 187.463 264.595 188.369C264.453 188.554 264.233 188.662 264 188.662C263.767 188.662 263.547 188.554 263.405 188.369C262.709 187.463 261.594 186.75 260.4 186.75Z" fill="#DE6B5E"/>
<path fill-rule="evenodd" clip-rule="evenodd" d="M358.804 188.353C358.524 190.956 358.536 193.958 358.926 196.55C359.142 197.985 360.312 199.084 361.757 199.21L363.268 199.341C366.417 199.615 369.584 199.615 372.733 199.341L374.243 199.21C375.688 199.084 376.859 197.985 377.074 196.55C377.464 193.958 377.477 190.956 377.196 188.353C377.16 188.052 377.119 187.75 377.074 187.449C376.859 186.015 375.688 184.915 374.243 184.79L372.733 184.658C369.584 184.385 366.417 184.385 363.268 184.658L361.757 184.79C360.312 184.915 359.142 186.015 358.926 187.449C358.881 187.75 358.84 188.051 358.804 188.353ZM363.398 186.153C366.46 185.887 369.54 185.887 372.603 186.153L374.113 186.284C374.867 186.35 375.478 186.924 375.591 187.672C375.603 187.75 375.614 187.828 375.625 187.906L370.064 190.995C368.78 191.708 367.22 191.708 365.936 190.995L360.375 187.906C360.386 187.828 360.398 187.75 360.409 187.672C360.522 186.924 361.133 186.35 361.887 186.284L363.398 186.153ZM375.809 189.52C376.003 191.788 375.93 194.072 375.591 196.327C375.478 197.076 374.867 197.65 374.113 197.716L372.603 197.847C369.54 198.113 366.46 198.113 363.398 197.847L361.887 197.716C361.133 197.65 360.522 197.076 360.409 196.327C360.07 194.072 359.998 191.788 360.192 189.52L365.208 192.306C366.944 193.271 369.056 193.271 370.793 192.306L375.809 189.52Z" fill="#486247"/>
<path fill-rule="evenodd" clip-rule="evenodd" d="M155.75 291.5C155.75 289.153 157.653 287.25 160 287.25C162.347 287.25 164.25 289.153 164.25 291.5C164.25 293.847 162.347 295.75 160 295.75C157.653 295.75 155.75 293.847 155.75 291.5ZM160 288.75C158.481 288.75 157.25 289.981 157.25 291.5C157.25 293.019 158.481 294.25 160 294.25C161.519 294.25 162.75 293.019 162.75 291.5C162.75 289.981 161.519 288.75 160 288.75Z" fill="#486247"/>
<path fill-rule="evenodd" clip-rule="evenodd" d="M156 298.75C154.757 298.75 153.75 299.757 153.75 301V302.188C153.75 302.206 153.763 302.222 153.781 302.225C157.9 302.897 162.1 302.897 166.219 302.225C166.237 302.222 166.25 302.206 166.25 302.188V301C166.25 299.757 165.243 298.75 164 298.75H163.659C163.633 298.75 163.607 298.754 163.582 298.762L162.716 299.045C160.951 299.621 159.049 299.621 157.284 299.045L156.418 298.762C156.393 298.754 156.367 298.75 156.341 298.75H156ZM152.25 301C152.25 298.929 153.929 297.25 156 297.25H156.341C156.525 297.25 156.709 297.279 156.884 297.336L157.75 297.619C159.212 298.097 160.788 298.097 162.25 297.619L163.116 297.336C163.291 297.279 163.475 297.25 163.659 297.25H164C166.071 297.25 167.75 298.929 167.75 301V302.188C167.75 302.942 167.204 303.584 166.461 303.705C162.182 304.404 157.818 304.404 153.539 303.705C152.796 303.584 152.25 302.942 152.25 302.188V301Z" fill="#486247"/>
<path d="M260 293.5C259.31 293.5 258.75 294.06 258.75 294.75C258.75 295.441 259.31 296 260 296C260.69 296 261.25 295.441 261.25 294.75C261.25 294.06 260.69 293.5 260 293.5Z" fill="#486247"/>
<path d="M264 293.5C263.31 293.5 262.75 294.06 262.75 294.75C262.75 295.441 263.31 296 264 296C264.69 296 265.25 295.441 265.25 294.75C265.25 294.06 264.69 293.5 264 293.5Z" fill="#486247"/>
<path d="M266.75 294.75C266.75 294.06 267.31 293.5 268 293.5C268.69 293.5 269.25 294.06 269.25 294.75C269.25 295.441 268.69 296 268 296C267.31 296 266.75 295.441 266.75 294.75Z" fill="#486247"/>
<path fill-rule="evenodd" clip-rule="evenodd" d="M268.101 288.593C265.407 288.363 262.698 288.35 260.002 288.553L259.809 288.568C257.237 288.762 255.25 290.904 255.25 293.483V302C255.25 302.264 255.389 302.509 255.615 302.644C255.842 302.779 256.123 302.786 256.355 302.661L260.266 300.559C260.448 300.461 260.651 300.41 260.858 300.41H269.834C270.966 300.41 271.936 299.601 272.139 298.487C272.55 296.23 272.583 293.92 272.235 291.652L272.133 290.984C271.946 289.767 270.951 288.836 269.724 288.732L268.101 288.593ZM260.115 290.049C262.731 289.852 265.359 289.865 267.973 290.088L269.597 290.226C270.133 290.272 270.569 290.679 270.65 291.211L270.753 291.879C271.075 293.983 271.045 296.125 270.663 298.218C270.59 298.619 270.241 298.91 269.834 298.91H260.858C260.403 298.91 259.956 299.023 259.556 299.238L256.75 300.746V293.483C256.75 291.689 258.133 290.198 259.921 290.064L260.115 290.049Z" fill="#486247"/>
<path fill-rule="evenodd" clip-rule="evenodd" d="M361.84 293.856C363.628 297.748 366.808 300.842 370.762 302.519L370.774 302.524L371.538 302.865C372.511 303.298 373.654 302.99 374.278 302.127L375.552 300.363C375.63 300.256 375.61 300.106 375.506 300.022L373.282 298.228C373.171 298.138 373.008 298.159 372.924 298.273L372.058 299.442C371.848 299.725 371.468 299.824 371.146 299.678C368.19 298.34 365.814 295.965 364.476 293.008C364.33 292.687 364.429 292.307 364.713 292.097L365.881 291.231C365.995 291.146 366.016 290.983 365.927 290.873L364.132 288.648C364.048 288.544 363.899 288.524 363.791 288.602L362.018 289.882C361.149 290.509 360.843 291.662 361.286 292.638L361.84 293.855C361.84 293.855 361.84 293.856 361.84 293.856ZM370.17 303.897C365.874 302.074 362.418 298.711 360.476 294.481L360.475 294.478L359.921 293.258C359.182 291.633 359.692 289.711 361.14 288.666L362.913 287.386C363.667 286.841 364.715 286.982 365.299 287.706L367.094 289.931C367.719 290.705 367.573 291.844 366.774 292.436L366.105 292.932C367.236 295.126 369.028 296.919 371.222 298.05L371.719 297.38C372.311 296.581 373.449 296.436 374.223 297.06L376.448 298.855C377.172 299.439 377.313 300.488 376.768 301.242L375.493 303.006C374.454 304.444 372.549 304.957 370.928 304.235L370.17 303.897Z" fill="#486247"/>
<path fill-rule="evenodd" clip-rule="evenodd" d="M166.535 398.766C167.265 399.035 167.75 399.73 167.75 400.508V411.491C167.75 412.269 167.265 412.965 166.535 413.233C165.544 413.599 164.456 413.599 163.465 413.233C162.735 412.965 162.25 412.269 162.25 411.491L162.25 400.508C162.25 399.73 162.735 399.035 163.465 398.766C164.456 398.401 165.544 398.401 166.535 398.766ZM166.25 400.508C166.25 400.359 166.157 400.225 166.016 400.173C165.36 399.932 164.64 399.932 163.984 400.173C163.843 400.225 163.75 400.359 163.75 400.508L163.75 411.491C163.75 411.641 163.843 411.774 163.984 411.826C164.64 412.068 165.36 412.068 166.016 411.826C166.157 411.774 166.25 411.641 166.25 411.491V400.508Z" fill="#486247"/>
<path fill-rule="evenodd" clip-rule="evenodd" d="M156.535 398.766C157.265 399.035 157.75 399.73 157.75 400.508L157.75 411.491C157.75 412.269 157.265 412.965 156.535 413.233C155.544 413.599 154.456 413.599 153.465 413.233C152.735 412.965 152.25 412.269 152.25 411.491L152.25 400.508C152.25 399.73 152.735 399.035 153.465 398.766C154.456 398.401 155.544 398.401 156.535 398.766ZM156.25 400.508C156.25 400.359 156.157 400.225 156.016 400.173C155.36 399.932 154.64 399.932 153.984 400.173C153.843 400.225 153.75 400.359 153.75 400.508L153.75 411.491C153.75 411.641 153.843 411.774 153.984 411.826C154.64 412.068 155.36 412.068 156.016 411.826C156.157 411.774 156.25 411.641 156.25 411.491L156.25 400.508Z" fill="#486247"/>
<path d="M273.609 416.391C273.867 416.648 274.195 416.789 274.582 416.789C275.355 416.789 275.977 416.18 275.977 415.406C275.977 415.02 275.812 414.668 275.543 414.398L267.34 406.383L275.543 398.391C275.812 398.121 275.977 397.758 275.977 397.383C275.977 396.609 275.355 396 274.582 396C274.195 396 273.867 396.141 273.609 396.398L264.492 405.305C264.164 405.609 264.012 405.984 264 406.395C264 406.805 264.164 407.156 264.492 407.473L273.609 416.391Z" fill="#424242"/>
<path d="M305.367 415.996C305.109 416.254 304.781 416.395 304.395 416.395C303.621 416.395 303 415.785 303 415.012C303 414.625 303.164 414.273 303.434 414.004L311.637 405.988L303.434 397.996C303.164 397.727 303 397.363 303 396.988C303 396.215 303.621 395.605 304.395 395.605C304.781 395.605 305.109 395.746 305.367 396.004L314.484 404.91C314.812 405.215 314.965 405.59 314.977 406C314.977 406.41 314.812 406.762 314.484 407.078L305.367 415.996Z" fill="#424242"/>
<path fill-rule="evenodd" clip-rule="evenodd" d="M163.65 508.263L164.463 508.364C166.341 508.598 167.75 510.194 167.75 512.085V522.575C167.75 524.412 166.382 525.961 164.559 526.188C161.531 526.565 158.469 526.565 155.441 526.188C153.618 525.961 152.25 524.412 152.25 522.575V512.085C152.25 510.194 153.659 508.598 155.537 508.364L156.35 508.263C156.672 507.102 157.737 506.25 159 506.25H161C162.263 506.25 163.328 507.102 163.65 508.263ZM156.25 509.787L155.722 509.853C154.596 509.993 153.75 510.95 153.75 512.085V522.575C153.75 523.655 154.555 524.566 155.626 524.7C158.531 525.061 161.469 525.061 164.374 524.7C165.445 524.566 166.25 523.655 166.25 522.575V512.085C166.25 510.95 165.404 509.993 164.278 509.853L163.75 509.787V511C163.75 511.414 163.414 511.75 163 511.75H157C156.586 511.75 156.25 511.414 156.25 511V509.787ZM157.75 509C157.75 508.31 158.31 507.75 159 507.75H161C161.69 507.75 162.25 508.31 162.25 509V510.25H157.75V509Z" fill="#486247"/>
<path fill-rule="evenodd" clip-rule="evenodd" d="M259 507.25C259.414 507.25 259.75 507.586 259.75 508V509.668C262.578 509.416 265.422 509.416 268.25 509.668V508C268.25 507.586 268.586 507.25 269 507.25C269.414 507.25 269.75 507.586 269.75 508V509.816C271.243 510.028 272.423 511.208 272.622 512.715L272.709 513.368C273.073 516.114 273.041 518.898 272.615 521.636C272.404 522.992 271.303 524.033 269.937 524.168L268.744 524.286C265.589 524.597 262.411 524.597 259.256 524.286L258.063 524.168C256.697 524.033 255.596 522.992 255.385 521.636C254.959 518.898 254.927 516.114 255.291 513.368L255.378 512.715C255.577 511.208 256.757 510.028 258.25 509.816V508C258.25 507.586 258.586 507.25 259 507.25ZM259.445 511.203C262.474 510.904 265.526 510.904 268.555 511.203L269.46 511.292C270.327 511.378 271.021 512.049 271.135 512.912L271.222 513.565C271.252 513.793 271.279 514.021 271.304 514.25H256.696C256.721 514.021 256.748 513.793 256.778 513.565L256.865 512.912C256.979 512.049 257.673 511.378 258.54 511.292L259.445 511.203ZM256.577 515.75C256.479 517.638 256.575 519.533 256.867 521.405C256.973 522.085 257.525 522.608 258.21 522.675L259.403 522.793C262.46 523.095 265.54 523.095 268.597 522.793L269.79 522.675C270.475 522.608 271.027 522.085 271.133 521.405C271.425 519.533 271.521 517.638 271.423 515.75H256.577Z" fill="#486247"/>
<path d="M369 513C369 513.552 368.552 514 368 514C367.448 514 367 513.552 367 513C367 512.447 367.448 512 368 512C368.552 512 369 512.447 369 513Z" fill="#DE6B5E"/>
<path d="M368 515.75C368.414 515.75 368.75 516.085 368.75 516.5V521.5C368.75 521.914 368.414 522.25 368 522.25C367.586 522.25 367.25 521.914 367.25 521.5V516.5C367.25 516.085 367.586 515.75 368 515.75Z" fill="#DE6B5E"/>
<path fill-rule="evenodd" clip-rule="evenodd" d="M370.27 507.992C369.178 506.395 366.822 506.395 365.73 507.992L365.298 508.624C362.592 512.583 360.267 516.79 358.354 521.188L358.264 521.395C357.59 522.945 358.608 524.705 360.288 524.892C365.413 525.465 370.587 525.465 375.712 524.892C377.392 524.705 378.41 522.945 377.736 521.395L377.646 521.188C375.733 516.79 373.408 512.583 370.702 508.624L370.27 507.992ZM366.968 508.839C367.464 508.112 368.536 508.112 369.032 508.839L369.464 509.471C372.117 513.352 374.396 517.475 376.271 521.786L376.361 521.993C376.632 522.617 376.222 523.326 375.546 523.402C370.531 523.962 365.469 523.962 360.454 523.402C359.778 523.326 359.368 522.617 359.639 521.993L359.73 521.786C361.604 517.475 363.884 513.352 366.536 509.471L366.968 508.839Z" fill="#DE6B5E"/>
<path d="M153.856 614.84C153.623 614.715 153.342 614.721 153.116 614.857C152.889 614.992 152.75 615.236 152.75 615.5V625C152.75 625.415 153.086 625.75 153.5 625.75C153.914 625.75 154.25 625.415 154.25 625V616.756L159.645 619.661C159.867 619.78 160.134 619.78 160.356 619.661L165.75 616.756V625C165.75 625.415 166.086 625.75 166.5 625.75C166.914 625.75 167.25 625.415 167.25 625V615.5C167.25 615.236 167.111 614.992 166.885 614.857C166.658 614.721 166.377 614.715 166.145 614.84L160 618.149L153.856 614.84Z" fill="#486247"/>
<path fill-rule="evenodd" clip-rule="evenodd" d="M165.311 611.722C161.777 611.406 158.223 611.406 154.69 611.722L153.172 611.858C151.545 612.003 150.23 613.247 149.993 614.864C149.495 618.27 149.495 621.731 149.993 625.137C150.23 626.754 151.545 627.997 153.172 628.143L154.69 628.279C158.223 628.595 161.777 628.595 165.311 628.279L166.828 628.143C168.456 627.997 169.771 626.754 170.007 625.137C170.505 621.731 170.505 618.27 170.007 614.864C169.771 613.247 168.456 612.003 166.828 611.858L165.311 611.722ZM154.823 613.216C158.268 612.908 161.733 612.908 165.177 613.216L166.694 613.352C167.631 613.436 168.387 614.151 168.523 615.081C169 618.343 169 621.658 168.523 624.92C168.387 625.85 167.631 626.565 166.694 626.649L165.177 626.785C161.733 627.093 158.268 627.093 154.823 626.785L153.306 626.649C152.37 626.565 151.613 625.85 151.477 624.92C151 621.658 151 618.343 151.477 615.081C151.613 614.151 152.37 613.436 153.306 613.352L154.823 613.216Z" fill="#486247"/>
</svg>
