<svg width="1512" height="180" viewBox="0 0 1512 180" fill="none" xmlns="http://www.w3.org/2000/svg">
<rect width="1512" height="180" fill="#DDF0FD"/>
<rect x="355.5" y="40.5" width="130" height="98" rx="3.5" fill="#FDFDFD" stroke="#ABB9C2" stroke-width="3"/>
<rect x="699.5" y="40.5" width="119" height="98" rx="3.5" fill="#FDFDFD" stroke="#ABB9C2" stroke-width="3"/>
<rect x="1033.5" y="40.5" width="119" height="98" rx="3.5" fill="#FDFDFD" stroke="#ABB9C2" stroke-width="3"/>
<path d="M377.97 93.2383C377.97 96.9126 375.37 99.354 371.427 99.354C367.313 99.354 364.884 96.9004 364.884 93.2017V83.7046C364.884 82.7769 365.397 82.2153 366.264 82.2153C367.118 82.2153 367.655 82.7769 367.655 83.7046V93.0308C367.655 95.4478 369.108 96.937 371.427 96.937C373.734 96.937 375.199 95.4355 375.199 93.0308V83.7046C375.199 82.7769 375.712 82.2153 376.579 82.2153C377.433 82.2153 377.97 82.7769 377.97 83.7046V93.2383ZM380.705 96.3999C380.705 95.7407 381.132 95.3135 381.791 95.3135C382.169 95.3135 382.462 95.4844 382.963 95.9604C383.83 96.7783 384.745 97.1689 385.917 97.1689C387.394 97.1689 388.31 96.5342 388.31 95.4966C388.31 94.6787 387.699 94.0684 386.54 93.812L384.318 93.2993C381.986 92.7744 380.888 91.627 380.888 89.7715C380.888 87.4033 382.841 85.853 385.88 85.853C387.138 85.853 388.31 86.146 389.225 86.6953C390.092 87.1958 390.604 87.9038 390.604 88.5996C390.604 89.2222 390.177 89.6128 389.53 89.6128C389.152 89.6128 388.883 89.4907 388.322 89.0146C387.431 88.209 386.723 87.916 385.746 87.916C384.354 87.916 383.512 88.563 383.512 89.5884C383.512 90.4185 384.062 90.9189 385.258 91.1997L387.602 91.7368C389.884 92.2617 390.946 93.3848 390.946 95.2646C390.946 97.7183 388.981 99.2441 385.771 99.2441C384.416 99.2441 383.146 98.9512 382.194 98.4263C381.242 97.9014 380.705 97.1812 380.705 96.3999ZM393.229 93.4824V91.6514C393.229 88.209 395.512 85.853 398.844 85.853C402.03 85.853 404.289 88.1479 404.289 91.3218C404.289 92.75 403.947 93.1895 402.873 93.1895H395.988V93.7998C395.988 95.7896 397.233 97.0591 399.271 97.0591C400.309 97.0591 401.078 96.7661 401.701 96.2046C402.335 95.6675 402.531 95.5332 402.958 95.5332C403.544 95.5332 403.947 95.9604 403.947 96.583C403.947 97.0591 403.654 97.5718 403.153 97.9746C402.323 98.7681 400.81 99.2441 399.113 99.2441C395.475 99.2441 393.229 97.0713 393.229 93.4824ZM395.988 91.2974H401.664V91.2607C401.664 89.2954 400.578 88.0259 398.881 88.0259C397.135 88.0259 395.988 89.332 395.988 91.2607V91.2974ZM409.892 97.6206C409.892 98.5728 409.391 99.1221 408.524 99.1221C407.658 99.1221 407.182 98.5728 407.182 97.6206V87.4888C407.182 86.5366 407.682 85.9873 408.537 85.9873C409.342 85.9873 409.806 86.4878 409.843 87.3545V87.7451H409.94C410.526 86.5244 411.503 85.9019 412.699 85.9019C413.126 85.9019 413.48 85.9995 413.725 86.1948C414.018 86.3901 414.176 86.7197 414.176 87.1226C414.176 87.5498 414.03 87.855 413.737 88.0503C413.493 88.2212 413.139 88.2944 412.675 88.3066C410.832 88.3311 409.892 89.332 409.892 91.3584V97.6206ZM418.058 99.1221C417.179 99.1221 416.654 98.5605 416.654 97.6084V84.3149C416.654 82.96 417.313 82.3374 418.754 82.3374H425.846C426.603 82.3374 427.116 82.8135 427.116 83.5215C427.116 84.2295 426.603 84.6812 425.846 84.6812H419.425V89.7959H425.224C425.993 89.7959 426.481 90.2598 426.481 90.9556C426.481 91.6636 425.98 92.1152 425.224 92.1152H419.425V97.6084C419.425 98.5605 418.925 99.1221 418.058 99.1221ZM430.778 99.1221C429.972 99.1221 429.435 98.6216 429.435 97.6206V82.8745C429.435 81.8735 429.972 81.373 430.778 81.373C431.596 81.373 432.145 81.8735 432.145 82.8745V97.6206C432.145 98.6216 431.596 99.1221 430.778 99.1221ZM440.897 85.853C444.254 85.853 446.659 88.0015 446.659 91.6636V93.397C446.659 97.1201 444.254 99.2441 440.897 99.2441C437.528 99.2441 435.124 97.1201 435.124 93.397V91.6758C435.124 88.0015 437.528 85.853 440.897 85.853ZM440.897 88.0503C439.054 88.0503 437.895 89.5029 437.895 91.7979V93.2993C437.895 95.6309 439.054 97.0591 440.897 97.0591C442.753 97.0591 443.876 95.6309 443.876 93.2993V91.7979C443.876 89.5029 442.753 88.0503 440.897 88.0503ZM451.078 96.8271L448.673 88.1113C448.6 87.7817 448.563 87.562 448.563 87.3789C448.563 86.5854 449.125 86.0361 449.955 86.0361C450.663 86.0361 451.151 86.5244 451.322 87.4399L453.129 95.9971H453.251L455.363 88.0137C455.766 86.4756 456.181 86.0361 457.133 86.0361C458.073 86.0361 458.5 86.4756 458.915 88.0137L461.076 95.9971H461.198L463.09 87.4155C463.273 86.5366 463.749 86.0361 464.408 86.0361C465.202 86.0361 465.727 86.5488 465.727 87.2812C465.727 87.4644 465.69 87.6963 465.592 88.0259L463.212 96.8271C462.736 98.6216 462.248 99.1221 461.283 99.1221C460.258 99.1221 459.757 98.6338 459.269 96.8271L457.182 89.4541H457.084L455.045 96.8271C454.569 98.6338 454.118 99.1221 453.08 99.1221C452.042 99.1221 451.554 98.5972 451.078 96.8271ZM467.472 96.3999C467.472 95.7407 467.899 95.3135 468.559 95.3135C468.937 95.3135 469.23 95.4844 469.73 95.9604C470.597 96.7783 471.513 97.1689 472.685 97.1689C474.162 97.1689 475.077 96.5342 475.077 95.4966C475.077 94.6787 474.467 94.0684 473.307 93.812L471.085 93.2993C468.754 92.7744 467.655 91.627 467.655 89.7715C467.655 87.4033 469.608 85.853 472.648 85.853C473.905 85.853 475.077 86.146 475.993 86.6953C476.859 87.1958 477.372 87.9038 477.372 88.5996C477.372 89.2222 476.945 89.6128 476.298 89.6128C475.919 89.6128 475.651 89.4907 475.089 89.0146C474.198 88.209 473.49 87.916 472.514 87.916C471.122 87.916 470.28 88.563 470.28 89.5884C470.28 90.4185 470.829 90.9189 472.025 91.1997L474.369 91.7368C476.652 92.2617 477.714 93.3848 477.714 95.2646C477.714 97.7183 475.749 99.2441 472.538 99.2441C471.183 99.2441 469.914 98.9512 468.961 98.4263C468.009 97.9014 467.472 97.1812 467.472 96.3999Z" fill="black"/>
<path d="M721.891 96.0225V83.3149C721.891 81.9478 722.538 81.3374 723.979 81.3374H727.628C732.475 81.3374 735.026 84.2061 735.026 89.6748C735.026 95.1313 732.475 98 727.628 98H723.979C722.538 98 721.891 97.3896 721.891 96.0225ZM724.65 95.6562H727.36C730.631 95.6562 732.194 93.7153 732.194 89.6748C732.194 85.6221 730.619 83.6689 727.36 83.6689H724.65V95.6562ZM737.223 92.4824V90.6514C737.223 87.209 739.506 84.853 742.838 84.853C746.024 84.853 748.283 87.1479 748.283 90.3218C748.283 91.75 747.941 92.1895 746.867 92.1895H739.982V92.7998C739.982 94.7896 741.227 96.0591 743.266 96.0591C744.303 96.0591 745.072 95.7661 745.695 95.2046C746.33 94.6675 746.525 94.5332 746.952 94.5332C747.538 94.5332 747.941 94.9604 747.941 95.583C747.941 96.0591 747.648 96.5718 747.147 96.9746C746.317 97.7681 744.804 98.2441 743.107 98.2441C739.469 98.2441 737.223 96.0713 737.223 92.4824ZM739.982 90.2974H745.658V90.2607C745.658 88.2954 744.572 87.0259 742.875 87.0259C741.129 87.0259 739.982 88.332 739.982 90.2607V90.2974ZM750.504 95.3999C750.504 94.7407 750.932 94.3135 751.591 94.3135C751.969 94.3135 752.262 94.4844 752.763 94.9604C753.629 95.7783 754.545 96.1689 755.717 96.1689C757.194 96.1689 758.109 95.5342 758.109 94.4966C758.109 93.6787 757.499 93.0684 756.339 92.812L754.118 92.2993C751.786 91.7744 750.688 90.627 750.688 88.7715C750.688 86.4033 752.641 84.853 755.68 84.853C756.938 84.853 758.109 85.146 759.025 85.6953C759.892 86.1958 760.404 86.9038 760.404 87.5996C760.404 88.2222 759.977 88.6128 759.33 88.6128C758.952 88.6128 758.683 88.4907 758.122 88.0146C757.23 87.209 756.522 86.916 755.546 86.916C754.154 86.916 753.312 87.563 753.312 88.5884C753.312 89.4185 753.861 89.9189 755.058 90.1997L757.401 90.7368C759.684 91.2617 760.746 92.3848 760.746 94.2646C760.746 96.7183 758.781 98.2441 755.57 98.2441C754.215 98.2441 752.946 97.9512 751.994 97.4263C751.042 96.9014 750.504 96.1812 750.504 95.3999ZM763.419 81.8501C763.419 80.9712 764.115 80.3364 765.019 80.3364C765.958 80.3364 766.642 80.9712 766.642 81.8501C766.642 82.7412 765.958 83.3882 765.019 83.3882C764.115 83.3882 763.419 82.7412 763.419 81.8501ZM766.386 96.6206C766.386 97.6216 765.849 98.1221 765.031 98.1221C764.213 98.1221 763.676 97.6094 763.676 96.6206V86.4888C763.676 85.4878 764.225 84.9873 765.031 84.9873C765.849 84.9873 766.386 85.5 766.386 86.4888V96.6206ZM778.068 95.7905C777.567 96.9258 776.249 97.8169 774.418 97.8169C771.586 97.8169 769.45 95.7417 769.45 92.2505V90.4805C769.45 86.9893 771.586 84.9019 774.394 84.9019C776.347 84.9019 777.689 85.9272 778.141 87.0503H778.275V86.3301C778.3 85.4146 778.812 84.9629 779.569 84.9629C780.387 84.9629 780.9 85.4756 780.9 86.4644V97.6338C780.9 101.137 778.581 102.846 775.114 102.846C773.576 102.846 772.27 102.541 771.342 101.992C770.524 101.516 769.95 100.808 769.95 100.075C769.95 99.4282 770.39 98.9888 771.073 98.9888C771.586 98.9888 771.867 99.2817 772.27 99.6113C772.794 100.026 773.6 100.6 775.053 100.6C777.055 100.6 778.202 99.5259 778.202 97.5483V95.7905H778.068ZM772.221 92.0063C772.221 94.2158 773.466 95.6685 775.297 95.6685C777.177 95.6685 778.202 94.1182 778.202 92.3237V90.5415C778.202 88.7104 777.152 87.1357 775.236 87.1357C773.393 87.1357 772.221 88.6006 772.221 90.8223V92.0063ZM795.414 96.6328C795.414 97.585 794.914 98.1221 794.059 98.1221C793.192 98.1221 792.692 97.5728 792.692 96.6206V90.041C792.692 88.2222 791.789 87.2212 790.153 87.2212C788.285 87.2212 787.101 88.5762 787.101 90.8101V96.6206C787.101 97.5728 786.601 98.1221 785.746 98.1221C784.879 98.1221 784.391 97.5728 784.391 96.6206V86.4521C784.391 85.5366 784.904 84.9873 785.734 84.9873C786.552 84.9873 787.028 85.4878 787.052 86.3789V87.4165H787.187C787.711 85.8418 789.14 84.9019 791.068 84.9019C793.827 84.9019 795.414 86.501 795.414 89.2842V96.6328Z" fill="black"/>
<path d="M1059.74 99.1221C1058.87 99.1221 1058.34 98.5605 1058.34 97.6084V83.729C1058.34 82.7769 1058.86 82.2153 1059.74 82.2153C1060.6 82.2153 1061.12 82.7769 1061.12 83.729V97.6084C1061.12 98.5605 1060.6 99.1221 1059.74 99.1221ZM1065.6 95.5698V88.3433H1064.81C1064.07 88.3433 1063.62 87.9282 1063.62 87.2568C1063.62 86.5732 1064.06 86.1704 1064.81 86.1704H1065.64V84.2783C1065.64 83.3506 1066.12 82.8135 1066.96 82.8135C1067.8 82.8135 1068.29 83.3506 1068.29 84.2783V86.1704H1069.78C1070.54 86.1704 1070.97 86.5732 1070.97 87.2568C1070.97 87.9282 1070.53 88.3433 1069.78 88.3433H1068.32V95.3745C1068.32 96.644 1068.63 97.0347 1069.71 97.0347C1070.05 97.0347 1070.28 96.998 1070.55 96.998C1071.06 96.998 1071.43 97.3398 1071.43 97.877C1071.43 98.292 1071.23 98.646 1070.83 98.8779C1070.43 99.1099 1069.84 99.2319 1069.05 99.2319C1066.61 99.2319 1065.6 98.2188 1065.6 95.5698ZM1073.03 93.4824V91.6514C1073.03 88.209 1075.31 85.853 1078.64 85.853C1081.83 85.853 1084.09 88.1479 1084.09 91.3218C1084.09 92.75 1083.75 93.1895 1082.67 93.1895H1075.79V93.7998C1075.79 95.7896 1077.03 97.0591 1079.07 97.0591C1080.11 97.0591 1080.88 96.7661 1081.5 96.2046C1082.14 95.6675 1082.33 95.5332 1082.76 95.5332C1083.34 95.5332 1083.75 95.9604 1083.75 96.583C1083.75 97.0591 1083.45 97.5718 1082.95 97.9746C1082.12 98.7681 1080.61 99.2441 1078.91 99.2441C1075.28 99.2441 1073.03 97.0713 1073.03 93.4824ZM1075.79 91.2974H1081.46V91.2607C1081.46 89.2954 1080.38 88.0259 1078.68 88.0259C1076.94 88.0259 1075.79 89.332 1075.79 91.2607V91.2974ZM1089.69 97.6206C1089.69 98.5728 1089.19 99.1221 1088.32 99.1221C1087.46 99.1221 1086.98 98.5728 1086.98 97.6206V87.4888C1086.98 86.5366 1087.48 85.9873 1088.34 85.9873C1089.14 85.9873 1089.61 86.4878 1089.64 87.3545V87.7451H1089.74C1090.33 86.5244 1091.3 85.9019 1092.5 85.9019C1092.93 85.9019 1093.28 85.9995 1093.52 86.1948C1093.82 86.3901 1093.98 86.7197 1093.98 87.1226C1093.98 87.5498 1093.83 87.855 1093.54 88.0503C1093.29 88.2212 1092.94 88.2944 1092.48 88.3066C1090.63 88.3311 1089.69 89.332 1089.69 91.3584V97.6206ZM1103.01 97.3276C1102.3 98.5239 1101.01 99.1831 1099.41 99.1831C1096.89 99.1831 1095.2 97.5962 1095.2 95.2524C1095.2 92.8721 1096.93 91.4194 1099.81 91.4072H1103.03V90.2598C1103.03 88.8071 1102.14 88.0503 1100.5 88.0503C1099.47 88.0503 1098.76 88.4165 1098.02 89.1733C1097.69 89.4907 1097.37 89.6128 1096.91 89.6128C1096.31 89.6128 1095.92 89.21 1095.92 88.624C1095.92 87.8794 1096.43 87.147 1097.52 86.561C1098.3 86.1338 1099.32 85.9019 1100.67 85.9019C1103.93 85.9019 1105.74 87.4644 1105.74 90.272V97.6572C1105.74 98.585 1105.27 99.1221 1104.43 99.1221C1103.68 99.1221 1103.21 98.6704 1103.14 97.9014V97.3276H1103.01ZM1097.92 95.1182C1097.92 96.3145 1098.86 97.1201 1100.25 97.1201C1101.83 97.1201 1103.03 96.0459 1103.03 94.6543V93.2627H1100.19C1098.75 93.2627 1097.92 93.9341 1097.92 95.1182ZM1109.86 95.5698V88.3433H1109.08C1108.33 88.3433 1107.88 87.9282 1107.88 87.2568C1107.88 86.5732 1108.32 86.1704 1109.08 86.1704H1109.91V84.2783C1109.91 83.3506 1110.38 82.8135 1111.23 82.8135C1112.07 82.8135 1112.56 83.3506 1112.56 84.2783V86.1704H1114.04C1114.8 86.1704 1115.23 86.5732 1115.23 87.2568C1115.23 87.9282 1114.79 88.3433 1114.04 88.3433H1112.58V95.3745C1112.58 96.644 1112.9 97.0347 1113.97 97.0347C1114.31 97.0347 1114.55 96.998 1114.81 96.998C1115.33 96.998 1115.69 97.3398 1115.69 97.877C1115.69 98.292 1115.5 98.646 1115.09 98.8779C1114.69 99.1099 1114.11 99.2319 1113.31 99.2319C1110.87 99.2319 1109.86 98.2188 1109.86 95.5698ZM1117.29 93.4824V91.6514C1117.29 88.209 1119.57 85.853 1122.91 85.853C1126.09 85.853 1128.35 88.1479 1128.35 91.3218C1128.35 92.75 1128.01 93.1895 1126.94 93.1895H1120.05V93.7998C1120.05 95.7896 1121.3 97.0591 1123.33 97.0591C1124.37 97.0591 1125.14 96.7661 1125.76 96.2046C1126.4 95.6675 1126.59 95.5332 1127.02 95.5332C1127.61 95.5332 1128.01 95.9604 1128.01 96.583C1128.01 97.0591 1127.72 97.5718 1127.22 97.9746C1126.39 98.7681 1124.87 99.2441 1123.18 99.2441C1119.54 99.2441 1117.29 97.0713 1117.29 93.4824ZM1120.05 91.2974H1125.73V91.2607C1125.73 89.2954 1124.64 88.0259 1122.94 88.0259C1121.2 88.0259 1120.05 89.332 1120.05 91.2607V91.2974Z" fill="black"/>
<path d="M567 88.5C566.172 88.5 565.5 89.1716 565.5 90C565.5 90.8284 566.172 91.5 567 91.5V88.5ZM628.061 91.0607C628.646 90.4749 628.646 89.5251 628.061 88.9393L618.515 79.3934C617.929 78.8076 616.979 78.8076 616.393 79.3934C615.808 79.9792 615.808 80.9289 616.393 81.5147L624.879 90L616.393 98.4853C615.808 99.0711 615.808 100.021 616.393 100.607C616.979 101.192 617.929 101.192 618.515 100.607L628.061 91.0607ZM567 91.5H627V88.5H567V91.5Z" fill="black"/>
<path d="M898 73.5C897.172 73.5 896.5 74.1716 896.5 75C896.5 75.8284 897.172 76.5 898 76.5V73.5ZM959.061 76.0607C959.646 75.4749 959.646 74.5251 959.061 73.9393L949.515 64.3934C948.929 63.8076 947.979 63.8076 947.393 64.3934C946.808 64.9792 946.808 65.9289 947.393 66.5147L955.879 75L947.393 83.4853C946.808 84.0711 946.808 85.0208 947.393 85.6066C947.979 86.1924 948.929 86.1924 949.515 85.6066L959.061 76.0607ZM898 76.5H958V73.5H898V76.5Z" fill="black"/>
<path d="M958 105.5C958.828 105.5 959.5 104.828 959.5 104C959.5 103.172 958.828 102.5 958 102.5V105.5ZM896.939 102.939C896.354 103.525 896.354 104.475 896.939 105.061L906.485 114.607C907.071 115.192 908.021 115.192 908.607 114.607C909.192 114.021 909.192 113.071 908.607 112.485L900.121 104L908.607 95.5147C909.192 94.9289 909.192 93.9792 908.607 93.3934C908.021 92.8076 907.071 92.8076 906.485 93.3934L896.939 102.939ZM958 102.5L898 102.5V105.5L958 105.5V102.5Z" fill="black"/>
</svg>
