<svg width="546" height="152" viewBox="0 0 546 152" fill="none" xmlns="http://www.w3.org/2000/svg">
<path d="M0 12C0 5.37258 5.37258 0 12 0H534C540.627 0 546 5.37258 546 12V140C546 146.627 540.627 152 534 152H12C5.37258 152 0 146.627 0 140V12Z" fill="black" fill-opacity="0.0980392"/>
<path d="M0 76H273V152H12C5.37258 152 0 146.627 0 140V76Z" fill="#FFC2A3"/>
<path d="M0 76H273H0ZM274 153H12C4.8203 153 -1 147.18 -1 140H1C1 146.075 5.92487 151 12 151H272L274 153ZM12 153C4.8203 153 -1 147.18 -1 140V76H1V140C1 146.075 5.92487 151 12 151V153ZM274 76V153L272 151V76H274Z" fill="black" fill-opacity="0.2"/>
<path d="M21.9176 123V105.545H24.5511V113.131H33.2528V105.545H35.8949V123H33.2528V115.389H24.5511V123H21.9176ZM39.0696 123V109.909H41.6179V123H39.0696ZM40.3565 107.889C39.9133 107.889 39.5326 107.741 39.2145 107.446C38.902 107.145 38.7457 106.787 38.7457 106.372C38.7457 105.952 38.902 105.594 39.2145 105.298C39.5326 104.997 39.9133 104.847 40.3565 104.847C40.7997 104.847 41.1775 104.997 41.49 105.298C41.8082 105.594 41.9673 105.952 41.9673 106.372C41.9673 106.787 41.8082 107.145 41.49 107.446C41.1775 107.741 40.7997 107.889 40.3565 107.889ZM50.0788 128.182C49.039 128.182 48.1441 128.045 47.3941 127.773C46.6498 127.5 46.0418 127.139 45.5702 126.69C45.0987 126.241 44.7464 125.75 44.5134 125.216L46.7038 124.312C46.8572 124.562 47.0617 124.827 47.3174 125.105C47.5788 125.389 47.931 125.631 48.3742 125.83C48.8231 126.028 49.3998 126.128 50.1043 126.128C51.0702 126.128 51.8685 125.892 52.4992 125.42C53.1299 124.955 53.4452 124.21 53.4452 123.188V120.614H53.2833C53.1299 120.892 52.9083 121.202 52.6185 121.543C52.3344 121.884 51.9424 122.179 51.4424 122.429C50.9424 122.679 50.2918 122.804 49.4907 122.804C48.4566 122.804 47.5248 122.562 46.6952 122.08C45.8714 121.591 45.218 120.872 44.735 119.923C44.2577 118.969 44.0191 117.795 44.0191 116.403C44.0191 115.011 44.2549 113.818 44.7265 112.824C45.2038 111.83 45.8572 111.068 46.6867 110.54C47.5163 110.006 48.4566 109.739 49.5077 109.739C50.3202 109.739 50.9765 109.875 51.4765 110.148C51.9765 110.415 52.3657 110.727 52.6441 111.085C52.9282 111.443 53.1469 111.759 53.3004 112.031H53.4879V109.909H55.985V123.29C55.985 124.415 55.7237 125.338 55.2009 126.06C54.6782 126.781 53.9708 127.315 53.0788 127.662C52.1924 128.009 51.1924 128.182 50.0788 128.182ZM50.0532 120.69C50.7862 120.69 51.4055 120.52 51.9112 120.179C52.4225 119.832 52.8089 119.338 53.0702 118.696C53.3373 118.048 53.4708 117.273 53.4708 116.369C53.4708 115.489 53.3401 114.713 53.0788 114.043C52.8174 113.372 52.4339 112.849 51.9282 112.474C51.4225 112.094 50.7975 111.903 50.0532 111.903C49.2862 111.903 48.6469 112.102 48.1356 112.5C47.6242 112.892 47.2379 113.426 46.9765 114.102C46.7208 114.778 46.593 115.534 46.593 116.369C46.593 117.227 46.7237 117.98 46.985 118.628C47.2464 119.276 47.6327 119.781 48.1441 120.145C48.6612 120.509 49.2975 120.69 50.0532 120.69ZM61.4949 115.227V123H58.9466V105.545H61.4608V112.04H61.6228C61.9296 111.335 62.3983 110.776 63.029 110.361C63.6597 109.946 64.4836 109.739 65.5006 109.739C66.3983 109.739 67.1824 109.923 67.8529 110.293C68.529 110.662 69.0517 111.213 69.4211 111.946C69.7961 112.673 69.9836 113.582 69.9836 114.673V123H67.4353V114.98C67.4353 114.02 67.1881 113.276 66.6938 112.747C66.1995 112.213 65.512 111.946 64.6313 111.946C64.029 111.946 63.4892 112.074 63.012 112.33C62.5404 112.585 62.1682 112.96 61.8955 113.455C61.6284 113.943 61.4949 114.534 61.4949 115.227ZM79.0282 123V105.545H89.8521V107.812H81.6618V113.131H89.0765V115.389H81.6618V123H79.0282ZM92.4302 123V109.909H94.9785V123H92.4302ZM93.7171 107.889C93.2739 107.889 92.8933 107.741 92.5751 107.446C92.2626 107.145 92.1063 106.787 92.1063 106.372C92.1063 105.952 92.2626 105.594 92.5751 105.298C92.8933 104.997 93.2739 104.847 93.7171 104.847C94.1603 104.847 94.5381 104.997 94.8506 105.298C95.1688 105.594 95.3279 105.952 95.3279 106.372C95.3279 106.787 95.1688 107.145 94.8506 107.446C94.5381 107.741 94.1603 107.889 93.7171 107.889ZM102.851 123.256C101.795 123.256 100.851 122.986 100.022 122.446C99.1979 121.901 98.5502 121.125 98.0786 120.119C97.6127 119.108 97.3797 117.895 97.3797 116.48C97.3797 115.065 97.6155 113.855 98.0871 112.849C98.5644 111.844 99.2178 111.074 100.047 110.54C100.877 110.006 101.817 109.739 102.868 109.739C103.681 109.739 104.334 109.875 104.829 110.148C105.329 110.415 105.715 110.727 105.988 111.085C106.266 111.443 106.482 111.759 106.635 112.031H106.789V105.545H109.337V123H106.848V120.963H106.635C106.482 121.241 106.26 121.56 105.971 121.918C105.687 122.276 105.295 122.588 104.795 122.855C104.295 123.122 103.647 123.256 102.851 123.256ZM103.414 121.082C104.147 121.082 104.766 120.889 105.272 120.503C105.783 120.111 106.17 119.568 106.431 118.875C106.698 118.182 106.831 117.375 106.831 116.455C106.831 115.545 106.701 114.75 106.439 114.068C106.178 113.386 105.795 112.855 105.289 112.474C104.783 112.094 104.158 111.903 103.414 111.903C102.647 111.903 102.008 112.102 101.496 112.5C100.985 112.898 100.598 113.44 100.337 114.128C100.081 114.815 99.9536 115.591 99.9536 116.455C99.9536 117.33 100.084 118.116 100.346 118.815C100.607 119.514 100.993 120.068 101.505 120.477C102.022 120.881 102.658 121.082 103.414 121.082ZM118.16 123.264C116.87 123.264 115.76 122.989 114.828 122.438C113.902 121.881 113.186 121.099 112.68 120.094C112.18 119.082 111.93 117.898 111.93 116.54C111.93 115.199 112.18 114.017 112.68 112.994C113.186 111.972 113.89 111.173 114.794 110.599C115.703 110.026 116.765 109.739 117.981 109.739C118.72 109.739 119.436 109.861 120.129 110.105C120.822 110.349 121.444 110.733 121.995 111.256C122.547 111.778 122.981 112.457 123.299 113.293C123.618 114.122 123.777 115.131 123.777 116.318V117.222H113.37V115.312H121.28C121.28 114.642 121.143 114.048 120.87 113.531C120.598 113.009 120.214 112.597 119.72 112.295C119.231 111.994 118.657 111.844 117.998 111.844C117.282 111.844 116.657 112.02 116.123 112.372C115.595 112.719 115.186 113.173 114.896 113.736C114.612 114.293 114.47 114.898 114.47 115.551V117.043C114.47 117.918 114.623 118.662 114.93 119.276C115.243 119.889 115.677 120.358 116.234 120.682C116.791 121 117.441 121.159 118.186 121.159C118.669 121.159 119.109 121.091 119.507 120.955C119.905 120.812 120.248 120.602 120.538 120.324C120.828 120.045 121.049 119.702 121.203 119.293L123.615 119.727C123.422 120.437 123.075 121.06 122.575 121.594C122.081 122.122 121.459 122.534 120.709 122.83C119.964 123.119 119.115 123.264 118.16 123.264ZM128.696 105.545V123H126.148V105.545H128.696ZM131.669 123V109.909H134.217V123H131.669ZM132.956 107.889C132.512 107.889 132.132 107.741 131.814 107.446C131.501 107.145 131.345 106.787 131.345 106.372C131.345 105.952 131.501 105.594 131.814 105.298C132.132 104.997 132.512 104.847 132.956 104.847C133.399 104.847 133.777 104.997 134.089 105.298C134.407 105.594 134.566 105.952 134.566 106.372C134.566 106.787 134.407 107.145 134.089 107.446C133.777 107.741 133.399 107.889 132.956 107.889ZM143.3 109.909V111.955H136.149V109.909H143.3ZM138.067 106.773H140.615V119.156C140.615 119.651 140.689 120.023 140.837 120.273C140.985 120.517 141.175 120.685 141.408 120.776C141.647 120.861 141.905 120.903 142.184 120.903C142.388 120.903 142.567 120.889 142.721 120.861C142.874 120.832 142.993 120.81 143.078 120.793L143.539 122.898C143.391 122.955 143.181 123.011 142.908 123.068C142.635 123.131 142.294 123.165 141.885 123.17C141.215 123.182 140.59 123.062 140.01 122.812C139.431 122.562 138.962 122.176 138.604 121.653C138.246 121.131 138.067 120.474 138.067 119.685V106.773ZM147.274 127.909C146.893 127.909 146.546 127.878 146.234 127.815C145.921 127.759 145.689 127.696 145.535 127.628L146.149 125.54C146.615 125.665 147.029 125.719 147.393 125.702C147.757 125.685 148.078 125.548 148.356 125.293C148.64 125.037 148.89 124.619 149.106 124.04L149.421 123.17L144.632 109.909H147.359L150.674 120.068H150.811L154.126 109.909H156.862L151.467 124.747C151.217 125.429 150.899 126.006 150.512 126.477C150.126 126.955 149.666 127.313 149.132 127.551C148.598 127.79 147.978 127.909 147.274 127.909ZM164.901 105.545H168.097L173.654 119.114H173.858L179.415 105.545H182.611V123H180.105V110.369H179.943L174.796 122.974H172.716L167.568 110.361H167.406V123H164.901V105.545ZM191.294 123.264C190.066 123.264 188.995 122.983 188.08 122.42C187.166 121.858 186.455 121.071 185.95 120.06C185.444 119.048 185.191 117.866 185.191 116.514C185.191 115.156 185.444 113.969 185.95 112.952C186.455 111.935 187.166 111.145 188.08 110.582C188.995 110.02 190.066 109.739 191.294 109.739C192.521 109.739 193.592 110.02 194.507 110.582C195.421 111.145 196.132 111.935 196.637 112.952C197.143 113.969 197.396 115.156 197.396 116.514C197.396 117.866 197.143 119.048 196.637 120.06C196.132 121.071 195.421 121.858 194.507 122.42C193.592 122.983 192.521 123.264 191.294 123.264ZM191.302 121.125C192.098 121.125 192.757 120.915 193.279 120.494C193.802 120.074 194.188 119.514 194.438 118.815C194.694 118.116 194.822 117.347 194.822 116.506C194.822 115.67 194.694 114.903 194.438 114.205C194.188 113.5 193.802 112.935 193.279 112.509C192.757 112.082 192.098 111.869 191.302 111.869C190.501 111.869 189.836 112.082 189.308 112.509C188.785 112.935 188.396 113.5 188.14 114.205C187.89 114.903 187.765 115.67 187.765 116.506C187.765 117.347 187.89 118.116 188.14 118.815C188.396 119.514 188.785 120.074 189.308 120.494C189.836 120.915 190.501 121.125 191.302 121.125ZM205.298 123.264C204.031 123.264 202.941 122.977 202.026 122.403C201.117 121.824 200.418 121.026 199.929 120.009C199.441 118.991 199.196 117.827 199.196 116.514C199.196 115.185 199.446 114.011 199.946 112.994C200.446 111.972 201.151 111.173 202.06 110.599C202.969 110.026 204.04 109.739 205.273 109.739C206.267 109.739 207.154 109.923 207.932 110.293C208.71 110.656 209.338 111.168 209.816 111.827C210.298 112.486 210.585 113.256 210.676 114.136H208.196C208.06 113.523 207.747 112.994 207.259 112.551C206.776 112.108 206.128 111.886 205.316 111.886C204.605 111.886 203.983 112.074 203.449 112.449C202.921 112.818 202.509 113.347 202.213 114.034C201.918 114.716 201.77 115.523 201.77 116.455C201.77 117.409 201.915 118.233 202.205 118.926C202.494 119.619 202.904 120.156 203.432 120.537C203.966 120.918 204.594 121.108 205.316 121.108C205.798 121.108 206.236 121.02 206.628 120.844C207.026 120.662 207.358 120.403 207.625 120.068C207.898 119.733 208.088 119.33 208.196 118.858H210.676C210.585 119.705 210.31 120.46 209.85 121.125C209.389 121.79 208.773 122.312 208 122.693C207.233 123.074 206.333 123.264 205.298 123.264ZM215.289 118.56L215.272 115.449H215.715L220.931 109.909H223.982L218.034 116.216H217.633L215.289 118.56ZM212.945 123V105.545H215.494V123H212.945ZM221.212 123L216.525 116.778L218.281 114.997L224.34 123H221.212ZM234.141 117.571V109.909H236.698V123H234.193V120.733H234.056C233.755 121.432 233.272 122.014 232.607 122.48C231.948 122.94 231.127 123.17 230.144 123.17C229.303 123.17 228.559 122.986 227.911 122.616C227.269 122.241 226.764 121.688 226.394 120.955C226.031 120.222 225.849 119.315 225.849 118.236V109.909H228.397V117.929C228.397 118.821 228.644 119.531 229.139 120.06C229.633 120.588 230.275 120.852 231.065 120.852C231.542 120.852 232.016 120.733 232.488 120.494C232.965 120.256 233.36 119.895 233.673 119.412C233.991 118.929 234.147 118.315 234.141 117.571ZM239.666 127.909V109.909H242.155V112.031H242.368C242.516 111.759 242.729 111.443 243.007 111.085C243.286 110.727 243.672 110.415 244.166 110.148C244.661 109.875 245.314 109.739 246.126 109.739C247.183 109.739 248.126 110.006 248.956 110.54C249.786 111.074 250.436 111.844 250.908 112.849C251.385 113.855 251.624 115.065 251.624 116.48C251.624 117.895 251.388 119.108 250.916 120.119C250.445 121.125 249.797 121.901 248.973 122.446C248.149 122.986 247.209 123.256 246.152 123.256C245.357 123.256 244.706 123.122 244.2 122.855C243.7 122.588 243.308 122.276 243.024 121.918C242.74 121.56 242.521 121.241 242.368 120.963H242.215V127.909H239.666ZM242.163 116.455C242.163 117.375 242.297 118.182 242.564 118.875C242.831 119.568 243.217 120.111 243.723 120.503C244.229 120.889 244.848 121.082 245.581 121.082C246.342 121.082 246.979 120.881 247.49 120.477C248.001 120.068 248.388 119.514 248.649 118.815C248.916 118.116 249.05 117.33 249.05 116.455C249.05 115.591 248.919 114.815 248.658 114.128C248.402 113.44 248.016 112.898 247.499 112.5C246.987 112.102 246.348 111.903 245.581 111.903C244.842 111.903 244.217 112.094 243.706 112.474C243.2 112.855 242.817 113.386 242.555 114.068C242.294 114.75 242.163 115.545 242.163 116.455Z" fill="#0C1526"/>
<path d="M273 76H546V140C546 146.627 540.627 152 534 152H273V76Z" fill="#FFC2A3"/>
<path d="M273 76H546H273ZM547 140C547 147.18 541.18 153 534 153H273V151H534C540.075 151 545 146.075 545 140H547ZM273 152V76V152ZM547 76V140C547 147.18 541.18 153 534 153V151C540.075 151 545 146.075 545 140V76H547Z" fill="black" fill-opacity="0.2"/>
<path d="M304.438 110.131C304.347 109.324 303.972 108.699 303.312 108.256C302.653 107.807 301.824 107.582 300.824 107.582C300.108 107.582 299.489 107.696 298.966 107.923C298.443 108.145 298.037 108.452 297.747 108.844C297.463 109.23 297.321 109.67 297.321 110.165C297.321 110.58 297.418 110.937 297.611 111.239C297.81 111.54 298.068 111.793 298.386 111.997C298.71 112.196 299.057 112.364 299.426 112.5C299.795 112.631 300.151 112.739 300.491 112.824L302.196 113.267C302.753 113.403 303.324 113.588 303.909 113.821C304.494 114.054 305.037 114.361 305.537 114.741C306.037 115.122 306.44 115.594 306.747 116.156C307.06 116.719 307.216 117.392 307.216 118.176C307.216 119.165 306.96 120.043 306.449 120.81C305.943 121.577 305.207 122.182 304.241 122.625C303.281 123.068 302.119 123.29 300.756 123.29C299.449 123.29 298.318 123.082 297.364 122.668C296.409 122.253 295.662 121.665 295.122 120.903C294.582 120.136 294.284 119.227 294.227 118.176H296.869C296.92 118.807 297.125 119.332 297.483 119.753C297.847 120.168 298.31 120.477 298.872 120.682C299.44 120.881 300.062 120.98 300.739 120.98C301.483 120.98 302.145 120.864 302.724 120.631C303.31 120.392 303.77 120.062 304.105 119.642C304.44 119.216 304.608 118.719 304.608 118.151C304.608 117.634 304.46 117.21 304.165 116.881C303.875 116.551 303.48 116.278 302.98 116.062C302.486 115.847 301.926 115.656 301.301 115.491L299.239 114.929C297.841 114.548 296.733 113.989 295.915 113.25C295.102 112.511 294.696 111.534 294.696 110.318C294.696 109.312 294.969 108.435 295.514 107.685C296.06 106.935 296.798 106.352 297.73 105.938C298.662 105.517 299.713 105.307 300.884 105.307C302.065 105.307 303.108 105.514 304.011 105.929C304.92 106.344 305.636 106.915 306.159 107.642C306.682 108.364 306.955 109.193 306.977 110.131H304.438ZM315.813 109.909V111.955H308.663V109.909H315.813ZM310.58 106.773H313.129V119.156C313.129 119.651 313.202 120.023 313.35 120.273C313.498 120.517 313.688 120.685 313.921 120.776C314.16 120.861 314.418 120.903 314.697 120.903C314.901 120.903 315.08 120.889 315.234 120.861C315.387 120.832 315.506 120.81 315.592 120.793L316.052 122.898C315.904 122.955 315.694 123.011 315.421 123.068C315.148 123.131 314.807 123.165 314.398 123.17C313.728 123.182 313.103 123.062 312.523 122.812C311.944 122.562 311.475 122.176 311.117 121.653C310.759 121.131 310.58 120.474 310.58 119.685V106.773ZM319.787 127.909C319.406 127.909 319.06 127.878 318.747 127.815C318.435 127.759 318.202 127.696 318.048 127.628L318.662 125.54C319.128 125.665 319.543 125.719 319.906 125.702C320.27 125.685 320.591 125.548 320.869 125.293C321.153 125.037 321.403 124.619 321.619 124.04L321.935 123.17L317.145 109.909H319.872L323.187 120.068H323.324L326.639 109.909H329.375L323.98 124.747C323.73 125.429 323.412 126.006 323.025 126.477C322.639 126.955 322.179 127.313 321.645 127.551C321.111 127.79 320.491 127.909 319.787 127.909ZM333.862 105.545V123H331.314V105.545H333.862ZM342.476 123.264C341.187 123.264 340.076 122.989 339.144 122.438C338.218 121.881 337.502 121.099 336.996 120.094C336.496 119.082 336.246 117.898 336.246 116.54C336.246 115.199 336.496 114.017 336.996 112.994C337.502 111.972 338.207 111.173 339.11 110.599C340.019 110.026 341.082 109.739 342.297 109.739C343.036 109.739 343.752 109.861 344.445 110.105C345.138 110.349 345.761 110.733 346.312 111.256C346.863 111.778 347.297 112.457 347.616 113.293C347.934 114.122 348.093 115.131 348.093 116.318V117.222H337.687V115.312H345.596C345.596 114.642 345.459 114.048 345.187 113.531C344.914 113.009 344.53 112.597 344.036 112.295C343.547 111.994 342.974 111.844 342.314 111.844C341.599 111.844 340.974 112.02 340.439 112.372C339.911 112.719 339.502 113.173 339.212 113.736C338.928 114.293 338.786 114.898 338.786 115.551V117.043C338.786 117.918 338.939 118.662 339.246 119.276C339.559 119.889 339.993 120.358 340.55 120.682C341.107 121 341.758 121.159 342.502 121.159C342.985 121.159 343.425 121.091 343.823 120.955C344.221 120.812 344.564 120.602 344.854 120.324C345.144 120.045 345.366 119.702 345.519 119.293L347.931 119.727C347.738 120.437 347.391 121.06 346.891 121.594C346.397 122.122 345.775 122.534 345.025 122.83C344.28 123.119 343.431 123.264 342.476 123.264ZM368.377 111.06C368.212 110.543 367.991 110.08 367.712 109.67C367.439 109.256 367.113 108.903 366.732 108.614C366.351 108.318 365.917 108.094 365.428 107.94C364.945 107.787 364.414 107.71 363.834 107.71C362.851 107.71 361.965 107.963 361.175 108.469C360.385 108.974 359.76 109.716 359.3 110.693C358.846 111.665 358.618 112.855 358.618 114.264C358.618 115.679 358.849 116.875 359.309 117.852C359.769 118.83 360.4 119.571 361.201 120.077C362.002 120.582 362.914 120.835 363.937 120.835C364.885 120.835 365.712 120.642 366.417 120.256C367.127 119.869 367.675 119.324 368.062 118.619C368.454 117.909 368.65 117.074 368.65 116.114L369.331 116.241H364.337V114.068H371.198V116.054C371.198 117.52 370.885 118.793 370.26 119.872C369.641 120.946 368.783 121.776 367.687 122.361C366.596 122.946 365.346 123.239 363.937 123.239C362.357 123.239 360.971 122.875 359.777 122.148C358.59 121.42 357.664 120.389 356.999 119.054C356.334 117.713 356.002 116.122 356.002 114.281C356.002 112.889 356.195 111.639 356.581 110.531C356.968 109.423 357.51 108.483 358.209 107.71C358.914 106.932 359.741 106.338 360.689 105.929C361.644 105.514 362.687 105.307 363.817 105.307C364.76 105.307 365.638 105.446 366.451 105.724C367.269 106.003 367.996 106.398 368.633 106.909C369.275 107.42 369.806 108.028 370.226 108.733C370.647 109.432 370.931 110.207 371.079 111.06H368.377ZM382.173 117.571V109.909H384.73V123H382.224V120.733H382.088C381.787 121.432 381.304 122.014 380.639 122.48C379.98 122.94 379.159 123.17 378.176 123.17C377.335 123.17 376.591 122.986 375.943 122.616C375.301 122.241 374.795 121.688 374.426 120.955C374.062 120.222 373.88 119.315 373.88 118.236V109.909H376.429V117.929C376.429 118.821 376.676 119.531 377.17 120.06C377.665 120.588 378.307 120.852 379.096 120.852C379.574 120.852 380.048 120.733 380.52 120.494C380.997 120.256 381.392 119.895 381.704 119.412C382.022 118.929 382.179 118.315 382.173 117.571ZM387.698 123V109.909H390.246V123H387.698ZM388.985 107.889C388.542 107.889 388.161 107.741 387.843 107.446C387.53 107.145 387.374 106.787 387.374 106.372C387.374 105.952 387.53 105.594 387.843 105.298C388.161 104.997 388.542 104.847 388.985 104.847C389.428 104.847 389.806 104.997 390.118 105.298C390.437 105.594 390.596 105.952 390.596 106.372C390.596 106.787 390.437 107.145 390.118 107.446C389.806 107.741 389.428 107.889 388.985 107.889ZM398.119 123.256C397.062 123.256 396.119 122.986 395.289 122.446C394.466 121.901 393.818 121.125 393.346 120.119C392.88 119.108 392.647 117.895 392.647 116.48C392.647 115.065 392.883 113.855 393.355 112.849C393.832 111.844 394.485 111.074 395.315 110.54C396.145 110.006 397.085 109.739 398.136 109.739C398.949 109.739 399.602 109.875 400.096 110.148C400.596 110.415 400.983 110.727 401.255 111.085C401.534 111.443 401.75 111.759 401.903 112.031H402.057V105.545H404.605V123H402.116V120.963H401.903C401.75 121.241 401.528 121.56 401.238 121.918C400.954 122.276 400.562 122.588 400.062 122.855C399.562 123.122 398.914 123.256 398.119 123.256ZM398.682 121.082C399.414 121.082 400.034 120.889 400.539 120.503C401.051 120.111 401.437 119.568 401.699 118.875C401.966 118.182 402.099 117.375 402.099 116.455C402.099 115.545 401.968 114.75 401.707 114.068C401.446 113.386 401.062 112.855 400.557 112.474C400.051 112.094 399.426 111.903 398.682 111.903C397.914 111.903 397.275 112.102 396.764 112.5C396.253 112.898 395.866 113.44 395.605 114.128C395.349 114.815 395.221 115.591 395.221 116.455C395.221 117.33 395.352 118.116 395.613 118.815C395.875 119.514 396.261 120.068 396.772 120.477C397.289 120.881 397.926 121.082 398.682 121.082ZM413.428 123.264C412.138 123.264 411.027 122.989 410.096 122.438C409.169 121.881 408.453 121.099 407.948 120.094C407.448 119.082 407.198 117.898 407.198 116.54C407.198 115.199 407.448 114.017 407.948 112.994C408.453 111.972 409.158 111.173 410.061 110.599C410.971 110.026 412.033 109.739 413.249 109.739C413.988 109.739 414.703 109.861 415.397 110.105C416.09 110.349 416.712 110.733 417.263 111.256C417.814 111.778 418.249 112.457 418.567 113.293C418.885 114.122 419.044 115.131 419.044 116.318V117.222H408.638V115.312H416.547C416.547 114.642 416.411 114.048 416.138 113.531C415.865 113.009 415.482 112.597 414.988 112.295C414.499 111.994 413.925 111.844 413.266 111.844C412.55 111.844 411.925 112.02 411.391 112.372C410.863 112.719 410.453 113.173 410.164 113.736C409.88 114.293 409.738 114.898 409.738 115.551V117.043C409.738 117.918 409.891 118.662 410.198 119.276C410.51 119.889 410.945 120.358 411.502 120.682C412.059 121 412.709 121.159 413.453 121.159C413.936 121.159 414.377 121.091 414.775 120.955C415.172 120.812 415.516 120.602 415.806 120.324C416.096 120.045 416.317 119.702 416.471 119.293L418.882 119.727C418.689 120.437 418.343 121.06 417.843 121.594C417.348 122.122 416.726 122.534 415.976 122.83C415.232 123.119 414.382 123.264 413.428 123.264Z" fill="#0C1526"/>
<path d="M273 0H534C540.627 0 546 5.37258 546 12V76H273V0Z" fill="#FFC2A3"/>
<path d="M273 -1H534C541.18 -1 547 4.8203 547 12H545C545 5.92487 540.075 1 534 1H273V-1ZM547 77H273V75H545L547 77ZM273 76V0V76ZM534 -1C541.18 -1 547 4.8203 547 12V77L545 75V12C545 5.92487 540.075 1 534 1V-1Z" fill="black" fill-opacity="0.2"/>
<path d="M309.415 35.2216H306.756C306.653 34.6534 306.463 34.1534 306.185 33.7216C305.906 33.2898 305.565 32.9233 305.162 32.6222C304.759 32.321 304.307 32.0937 303.807 31.9403C303.313 31.7869 302.787 31.7102 302.23 31.7102C301.224 31.7102 300.324 31.9631 299.528 32.4688C298.739 32.9744 298.114 33.7159 297.653 34.6932C297.199 35.6705 296.972 36.8636 296.972 38.2727C296.972 39.6932 297.199 40.892 297.653 41.8693C298.114 42.8466 298.741 43.5852 299.537 44.0852C300.332 44.5852 301.227 44.8352 302.222 44.8352C302.773 44.8352 303.295 44.7614 303.79 44.6136C304.29 44.4602 304.741 44.2358 305.145 43.9403C305.548 43.6449 305.889 43.2841 306.168 42.858C306.452 42.4261 306.648 41.9318 306.756 41.375L309.415 41.3835C309.273 42.2415 308.997 43.0312 308.588 43.7528C308.185 44.4688 307.665 45.0881 307.028 45.6108C306.398 46.1278 305.676 46.5284 304.864 46.8125C304.051 47.0966 303.165 47.2386 302.205 47.2386C300.693 47.2386 299.347 46.8807 298.165 46.1648C296.983 45.4432 296.051 44.4119 295.369 43.071C294.693 41.7301 294.355 40.1307 294.355 38.2727C294.355 36.4091 294.696 34.8097 295.378 33.4744C296.06 32.1335 296.991 31.1051 298.173 30.3892C299.355 29.6676 300.699 29.3068 302.205 29.3068C303.131 29.3068 303.994 29.4403 304.795 29.7074C305.602 29.9687 306.327 30.3551 306.969 30.8665C307.611 31.3722 308.142 31.9915 308.562 32.7244C308.983 33.4517 309.267 34.2841 309.415 35.2216ZM317.42 47.2642C316.192 47.2642 315.121 46.983 314.207 46.4205C313.292 45.858 312.582 45.071 312.076 44.0597C311.57 43.0483 311.317 41.8665 311.317 40.5142C311.317 39.1562 311.57 37.9687 312.076 36.9517C312.582 35.9347 313.292 35.1449 314.207 34.5824C315.121 34.0199 316.192 33.7386 317.42 33.7386C318.647 33.7386 319.718 34.0199 320.633 34.5824C321.548 35.1449 322.258 35.9347 322.763 36.9517C323.269 37.9687 323.522 39.1562 323.522 40.5142C323.522 41.8665 323.269 43.0483 322.763 44.0597C322.258 45.071 321.548 45.858 320.633 46.4205C319.718 46.983 318.647 47.2642 317.42 47.2642ZM317.428 45.125C318.224 45.125 318.883 44.9148 319.406 44.4943C319.928 44.0739 320.315 43.5142 320.565 42.8153C320.82 42.1165 320.948 41.3466 320.948 40.5057C320.948 39.6705 320.82 38.9034 320.565 38.2045C320.315 37.5 319.928 36.9347 319.406 36.5085C318.883 36.0824 318.224 35.8693 317.428 35.8693C316.627 35.8693 315.962 36.0824 315.434 36.5085C314.911 36.9347 314.522 37.5 314.266 38.2045C314.016 38.9034 313.891 39.6705 313.891 40.5057C313.891 41.3466 314.016 42.1165 314.266 42.8153C314.522 43.5142 314.911 44.0739 315.434 44.4943C315.962 44.9148 316.627 45.125 317.428 45.125ZM328.459 29.5455V47H325.91V29.5455H328.459ZM336.945 47.2642C335.718 47.2642 334.647 46.983 333.732 46.4205C332.817 45.858 332.107 45.071 331.601 44.0597C331.096 43.0483 330.843 41.8665 330.843 40.5142C330.843 39.1562 331.096 37.9687 331.601 36.9517C332.107 35.9347 332.817 35.1449 333.732 34.5824C334.647 34.0199 335.718 33.7386 336.945 33.7386C338.172 33.7386 339.244 34.0199 340.158 34.5824C341.073 35.1449 341.783 35.9347 342.289 36.9517C342.795 37.9687 343.047 39.1562 343.047 40.5142C343.047 41.8665 342.795 43.0483 342.289 44.0597C341.783 45.071 341.073 45.858 340.158 46.4205C339.244 46.983 338.172 47.2642 336.945 47.2642ZM336.954 45.125C337.749 45.125 338.408 44.9148 338.931 44.4943C339.454 44.0739 339.84 43.5142 340.09 42.8153C340.346 42.1165 340.474 41.3466 340.474 40.5057C340.474 39.6705 340.346 38.9034 340.09 38.2045C339.84 37.5 339.454 36.9347 338.931 36.5085C338.408 36.0824 337.749 35.8693 336.954 35.8693C336.153 35.8693 335.488 36.0824 334.959 36.5085C334.437 36.9347 334.047 37.5 333.792 38.2045C333.542 38.9034 333.417 39.6705 333.417 40.5057C333.417 41.3466 333.542 42.1165 333.792 42.8153C334.047 43.5142 334.437 44.0739 334.959 44.4943C335.488 44.9148 336.153 45.125 336.954 45.125ZM345.436 47V33.9091H347.899V35.9886H348.035C348.274 35.2841 348.694 34.7301 349.297 34.3267C349.905 33.9176 350.592 33.7131 351.359 33.7131C351.518 33.7131 351.706 33.7187 351.922 33.7301C352.143 33.7415 352.317 33.7557 352.442 33.7727V36.2102C352.339 36.1818 352.158 36.1506 351.896 36.1165C351.635 36.0767 351.373 36.0568 351.112 36.0568C350.51 36.0568 349.973 36.1847 349.501 36.4403C349.035 36.6903 348.666 37.0398 348.393 37.4886C348.121 37.9318 347.984 38.4375 347.984 39.0057V47H345.436ZM369.811 34.1307C369.72 33.3239 369.345 32.6989 368.686 32.2557C368.027 31.8068 367.197 31.5824 366.197 31.5824C365.481 31.5824 364.862 31.696 364.339 31.9233C363.817 32.1449 363.41 32.4517 363.121 32.8438C362.836 33.2301 362.694 33.6705 362.694 34.1648C362.694 34.5795 362.791 34.9375 362.984 35.2386C363.183 35.5398 363.442 35.7926 363.76 35.9972C364.084 36.196 364.43 36.3636 364.8 36.5C365.169 36.6307 365.524 36.7386 365.865 36.8239L367.569 37.267C368.126 37.4034 368.697 37.5881 369.282 37.821C369.868 38.054 370.41 38.3608 370.91 38.7415C371.41 39.1222 371.814 39.5938 372.121 40.1562C372.433 40.7188 372.589 41.392 372.589 42.1761C372.589 43.1648 372.334 44.0426 371.822 44.8097C371.317 45.5767 370.581 46.1818 369.615 46.625C368.655 47.0682 367.493 47.2898 366.129 47.2898C364.822 47.2898 363.692 47.0824 362.737 46.6676C361.782 46.2528 361.035 45.6648 360.496 44.9034C359.956 44.1364 359.657 43.2273 359.601 42.1761H362.243C362.294 42.8068 362.498 43.3324 362.856 43.7528C363.22 44.1676 363.683 44.4773 364.246 44.6818C364.814 44.8807 365.436 44.9801 366.112 44.9801C366.856 44.9801 367.518 44.8636 368.098 44.6307C368.683 44.392 369.143 44.0625 369.478 43.642C369.814 43.2159 369.981 42.7187 369.981 42.1506C369.981 41.6335 369.834 41.2102 369.538 40.8807C369.248 40.5511 368.853 40.2784 368.353 40.0625C367.859 39.8466 367.3 39.6562 366.675 39.4915L364.612 38.929C363.214 38.5483 362.106 37.9886 361.288 37.25C360.476 36.5114 360.069 35.5341 360.069 34.3182C360.069 33.3125 360.342 32.4347 360.888 31.6847C361.433 30.9347 362.172 30.3523 363.103 29.9375C364.035 29.517 365.086 29.3068 366.257 29.3068C367.439 29.3068 368.481 29.5142 369.385 29.929C370.294 30.3438 371.01 30.9148 371.532 31.642C372.055 32.3636 372.328 33.1932 372.351 34.1307H369.811ZM380.59 47.2642C379.323 47.2642 378.232 46.9773 377.317 46.4034C376.408 45.8239 375.709 45.0256 375.221 44.0085C374.732 42.9915 374.488 41.8267 374.488 40.5142C374.488 39.1847 374.738 38.0114 375.238 36.9943C375.738 35.9716 376.442 35.1733 377.351 34.5994C378.26 34.0256 379.331 33.7386 380.564 33.7386C381.559 33.7386 382.445 33.9233 383.223 34.2926C384.002 34.6562 384.63 35.1676 385.107 35.8267C385.59 36.4858 385.877 37.2557 385.968 38.1364H383.488C383.351 37.5227 383.039 36.9943 382.55 36.5511C382.067 36.108 381.42 35.8864 380.607 35.8864C379.897 35.8864 379.275 36.0739 378.741 36.4489C378.212 36.8182 377.8 37.3466 377.505 38.0341C377.209 38.7159 377.062 39.5227 377.062 40.4545C377.062 41.4091 377.206 42.233 377.496 42.9261C377.786 43.6193 378.195 44.1562 378.723 44.5369C379.258 44.9176 379.885 45.108 380.607 45.108C381.09 45.108 381.527 45.0199 381.92 44.8438C382.317 44.6619 382.65 44.4034 382.917 44.0682C383.189 43.733 383.38 43.3295 383.488 42.858H385.968C385.877 43.7045 385.601 44.4602 385.141 45.125C384.681 45.7898 384.064 46.3125 383.292 46.6932C382.525 47.0739 381.624 47.2642 380.59 47.2642ZM390.785 39.2273V47H388.237V29.5455H390.751V36.0398H390.913C391.22 35.3352 391.689 34.7756 392.319 34.3608C392.95 33.946 393.774 33.7386 394.791 33.7386C395.689 33.7386 396.473 33.9233 397.143 34.2926C397.819 34.6619 398.342 35.2131 398.711 35.946C399.086 36.6733 399.274 37.5824 399.274 38.6733V47H396.726V38.9801C396.726 38.0199 396.478 37.2756 395.984 36.7472C395.49 36.2131 394.802 35.946 393.922 35.946C393.319 35.946 392.78 36.0739 392.302 36.3295C391.831 36.5852 391.459 36.9602 391.186 37.4545C390.919 37.9432 390.785 38.5341 390.785 39.2273ZM407.86 47.2642C406.571 47.2642 405.46 46.9886 404.528 46.4375C403.602 45.8807 402.886 45.0994 402.38 44.0938C401.88 43.0824 401.63 41.8977 401.63 40.5398C401.63 39.1989 401.88 38.017 402.38 36.9943C402.886 35.9716 403.591 35.1733 404.494 34.5994C405.403 34.0256 406.466 33.7386 407.682 33.7386C408.42 33.7386 409.136 33.8608 409.829 34.1051C410.522 34.3494 411.145 34.733 411.696 35.2557C412.247 35.7784 412.682 36.4574 413 37.2926C413.318 38.1222 413.477 39.1307 413.477 40.3182V41.2216H403.071V39.3125H410.98C410.98 38.642 410.843 38.0483 410.571 37.5312C410.298 37.0085 409.914 36.5966 409.42 36.2955C408.932 35.9943 408.358 35.8438 407.699 35.8438C406.983 35.8438 406.358 36.0199 405.824 36.3722C405.295 36.7187 404.886 37.1733 404.596 37.7358C404.312 38.2926 404.17 38.8977 404.17 39.5511V41.0426C404.17 41.9176 404.324 42.6619 404.63 43.2756C404.943 43.8892 405.378 44.358 405.934 44.6818C406.491 45 407.142 45.1591 407.886 45.1591C408.369 45.1591 408.809 45.0909 409.207 44.9545C409.605 44.8125 409.949 44.6023 410.238 44.3239C410.528 44.0455 410.75 43.7017 410.903 43.2926L413.315 43.7273C413.122 44.4375 412.775 45.0597 412.275 45.5938C411.781 46.1222 411.159 46.5341 410.409 46.8295C409.664 47.1193 408.815 47.2642 407.86 47.2642ZM415.848 47V33.9091H418.294V36.0398H418.456C418.729 35.3182 419.175 34.7557 419.794 34.3523C420.414 33.9432 421.155 33.7386 422.019 33.7386C422.894 33.7386 423.627 33.9432 424.218 34.3523C424.814 34.7614 425.255 35.3239 425.539 36.0398H425.675C425.988 35.3409 426.485 34.7841 427.167 34.3693C427.848 33.9489 428.661 33.7386 429.604 33.7386C430.792 33.7386 431.76 34.1108 432.51 34.8551C433.266 35.5994 433.644 36.7216 433.644 38.2216V47H431.096V38.4602C431.096 37.5739 430.854 36.9318 430.371 36.5341C429.888 36.1364 429.311 35.9375 428.641 35.9375C427.811 35.9375 427.167 36.1932 426.706 36.7045C426.246 37.2102 426.016 37.8608 426.016 38.6562V47H423.476V38.2983C423.476 37.5881 423.255 37.017 422.811 36.5852C422.368 36.1534 421.792 35.9375 421.081 35.9375C420.598 35.9375 420.152 36.0653 419.743 36.321C419.34 36.571 419.013 36.9205 418.763 37.3693C418.519 37.8182 418.397 38.3381 418.397 38.929V47H415.848ZM442.245 47.2642C440.956 47.2642 439.845 46.9886 438.913 46.4375C437.987 45.8807 437.271 45.0994 436.765 44.0938C436.265 43.0824 436.015 41.8977 436.015 40.5398C436.015 39.1989 436.265 38.017 436.765 36.9943C437.271 35.9716 437.975 35.1733 438.879 34.5994C439.788 34.0256 440.85 33.7386 442.066 33.7386C442.805 33.7386 443.521 33.8608 444.214 34.1051C444.907 34.3494 445.529 34.733 446.081 35.2557C446.632 35.7784 447.066 36.4574 447.385 37.2926C447.703 38.1222 447.862 39.1307 447.862 40.3182V41.2216H437.456V39.3125H445.365C445.365 38.642 445.228 38.0483 444.956 37.5312C444.683 37.0085 444.299 36.5966 443.805 36.2955C443.316 35.9943 442.743 35.8438 442.083 35.8438C441.368 35.8438 440.743 36.0199 440.208 36.3722C439.68 36.7187 439.271 37.1733 438.981 37.7358C438.697 38.2926 438.555 38.8977 438.555 39.5511V41.0426C438.555 41.9176 438.708 42.6619 439.015 43.2756C439.328 43.8892 439.762 44.358 440.319 44.6818C440.876 45 441.527 45.1591 442.271 45.1591C442.754 45.1591 443.194 45.0909 443.592 44.9545C443.99 44.8125 444.333 44.6023 444.623 44.3239C444.913 44.0455 445.135 43.7017 445.288 43.2926L447.7 43.7273C447.507 44.4375 447.16 45.0597 446.66 45.5938C446.166 46.1222 445.544 46.5341 444.794 46.8295C444.049 47.1193 443.2 47.2642 442.245 47.2642ZM460.043 37.1051L457.733 37.5142C457.637 37.2187 457.483 36.9375 457.273 36.6705C457.068 36.4034 456.79 36.1847 456.438 36.0142C456.086 35.8437 455.645 35.7585 455.117 35.7585C454.395 35.7585 453.793 35.9205 453.31 36.2443C452.827 36.5625 452.586 36.9744 452.586 37.4801C452.586 37.9176 452.747 38.2699 453.071 38.5369C453.395 38.804 453.918 39.0227 454.64 39.1932L456.719 39.6705C457.924 39.9489 458.821 40.3778 459.412 40.9574C460.003 41.5369 460.299 42.2898 460.299 43.2159C460.299 44 460.071 44.6989 459.617 45.3125C459.168 45.9205 458.54 46.3977 457.733 46.7443C456.932 47.0909 456.003 47.2642 454.946 47.2642C453.48 47.2642 452.284 46.9517 451.358 46.3267C450.432 45.696 449.864 44.8011 449.654 43.642L452.117 43.267C452.27 43.9091 452.586 44.3949 453.063 44.7244C453.54 45.0483 454.162 45.2102 454.929 45.2102C455.765 45.2102 456.432 45.0369 456.932 44.6903C457.432 44.3381 457.682 43.9091 457.682 43.4034C457.682 42.9943 457.529 42.6506 457.222 42.3722C456.921 42.0937 456.458 41.8835 455.833 41.7415L453.617 41.2557C452.395 40.9773 451.492 40.5341 450.907 39.9261C450.327 39.3182 450.037 38.5483 450.037 37.6165C450.037 36.8437 450.253 36.1676 450.685 35.5881C451.117 35.0085 451.713 34.5568 452.475 34.233C453.236 33.9034 454.108 33.7386 455.091 33.7386C456.506 33.7386 457.62 34.0455 458.432 34.6591C459.245 35.267 459.782 36.0824 460.043 37.1051Z" fill="#0C1526"/>
<path d="M0 12C0 5.37258 5.37258 0 12 0H273V76H0V12Z" fill="#FFC2A3"/>
<path d="M273 0H274V-1H273V0ZM273 76V77H274V76H273ZM0 76H-1V77H0V76ZM12 1H273V-1H12V1ZM272 0V76H274V0H272ZM273 75H0V77H273V75ZM1 76V12H-1V76H1ZM12 -1C4.8203 -1 -1 4.8203 -1 12H1C1 5.92487 5.92487 1 12 1V-1Z" fill="black" fill-opacity="0.2"/>
<path d="M33.142 29.5455H35.7841V41.0256C35.7841 42.2472 35.4972 43.3295 34.9233 44.2727C34.3494 45.2102 33.5426 45.9489 32.5028 46.4886C31.4631 47.0227 30.2443 47.2898 28.8466 47.2898C27.4545 47.2898 26.2386 47.0227 25.1989 46.4886C24.1591 45.9489 23.3523 45.2102 22.7784 44.2727C22.2045 43.3295 21.9176 42.2472 21.9176 41.0256V29.5455H24.5511V40.8125C24.5511 41.6023 24.7244 42.304 25.071 42.9176C25.4233 43.5312 25.9205 44.0142 26.5625 44.3665C27.2045 44.7131 27.9659 44.8864 28.8466 44.8864C29.733 44.8864 30.4972 44.7131 31.1392 44.3665C31.7869 44.0142 32.2813 43.5312 32.6222 42.9176C32.9688 42.304 33.142 41.6023 33.142 40.8125V29.5455ZM48.762 37.1051L46.4524 37.5142C46.3558 37.2187 46.2024 36.9375 45.9922 36.6705C45.7876 36.4034 45.5092 36.1847 45.1569 36.0142C44.8047 35.8437 44.3643 35.7585 43.8359 35.7585C43.1143 35.7585 42.512 35.9205 42.0291 36.2443C41.5461 36.5625 41.3047 36.9744 41.3047 37.4801C41.3047 37.9176 41.4666 38.2699 41.7904 38.5369C42.1143 38.804 42.637 39.0227 43.3586 39.1932L45.4382 39.6705C46.6427 39.9489 47.5405 40.3778 48.1314 40.9574C48.7223 41.5369 49.0177 42.2898 49.0177 43.2159C49.0177 44 48.7904 44.6989 48.3359 45.3125C47.887 45.9205 47.2592 46.3977 46.4524 46.7443C45.6512 47.0909 44.7223 47.2642 43.6654 47.2642C42.1995 47.2642 41.0035 46.9517 40.0774 46.3267C39.1512 45.696 38.5831 44.8011 38.3728 43.642L40.8359 43.267C40.9893 43.9091 41.3047 44.3949 41.7819 44.7244C42.2592 45.0483 42.8814 45.2102 43.6484 45.2102C44.4836 45.2102 45.1512 45.0369 45.6512 44.6903C46.1512 44.3381 46.4012 43.9091 46.4012 43.4034C46.4012 42.9943 46.2478 42.6506 45.941 42.3722C45.6399 42.0937 45.1768 41.8835 44.5518 41.7415L42.3359 41.2557C41.1143 40.9773 40.2109 40.5341 39.6257 39.9261C39.0461 39.3182 38.7564 38.5483 38.7564 37.6165C38.7564 36.8437 38.9723 36.1676 39.4041 35.5881C39.8359 35.0085 40.4325 34.5568 41.1939 34.233C41.9552 33.9034 42.8274 33.7386 43.8103 33.7386C45.2251 33.7386 46.3387 34.0455 47.1512 34.6591C47.9637 35.267 48.5007 36.0824 48.762 37.1051ZM57.0056 47.2642C55.7158 47.2642 54.605 46.9886 53.6732 46.4375C52.7471 45.8807 52.0312 45.0994 51.5255 44.0938C51.0255 43.0824 50.7755 41.8977 50.7755 40.5398C50.7755 39.1989 51.0255 38.017 51.5255 36.9943C52.0312 35.9716 52.7357 35.1733 53.6391 34.5994C54.5482 34.0256 55.6107 33.7386 56.8266 33.7386C57.5653 33.7386 58.2812 33.8608 58.9744 34.1051C59.6675 34.3494 60.2897 34.733 60.8408 35.2557C61.392 35.7784 61.8266 36.4574 62.1448 37.2926C62.463 38.1222 62.6221 39.1307 62.6221 40.3182V41.2216H52.2158V39.3125H60.1249C60.1249 38.642 59.9886 38.0483 59.7158 37.5312C59.4431 37.0085 59.0596 36.5966 58.5653 36.2955C58.0766 35.9943 57.5028 35.8438 56.8437 35.8438C56.1278 35.8438 55.5028 36.0199 54.9687 36.3722C54.4403 36.7187 54.0312 37.1733 53.7414 37.7358C53.4573 38.2926 53.3153 38.8977 53.3153 39.5511V41.0426C53.3153 41.9176 53.4687 42.6619 53.7755 43.2756C54.088 43.8892 54.5227 44.358 55.0795 44.6818C55.6363 45 56.2869 45.1591 57.0312 45.1591C57.5141 45.1591 57.9545 45.0909 58.3522 44.9545C58.7499 44.8125 59.0937 44.6023 59.3835 44.3239C59.6732 44.0455 59.8948 43.7017 60.0482 43.2926L62.4602 43.7273C62.267 44.4375 61.9204 45.0597 61.4204 45.5938C60.9261 46.1222 60.3039 46.5341 59.5539 46.8295C58.8096 47.1193 57.9602 47.2642 57.0056 47.2642ZM64.9935 47V33.9091H67.4566V35.9886H67.5929C67.8316 35.2841 68.252 34.7301 68.8543 34.3267C69.4623 33.9176 70.1498 33.7131 70.9168 33.7131C71.0759 33.7131 71.2634 33.7187 71.4793 33.7301C71.7009 33.7415 71.8742 33.7557 71.9992 33.7727V36.2102C71.8969 36.1818 71.7151 36.1506 71.4537 36.1165C71.1924 36.0767 70.931 36.0568 70.6696 36.0568C70.0674 36.0568 69.5304 36.1847 69.0588 36.4403C68.5929 36.6903 68.2236 37.0398 67.9509 37.4886C67.6782 37.9318 67.5418 38.4375 67.5418 39.0057V47H64.9935ZM79.8486 47V29.5455H90.6724V31.8125H82.4821V37.1307H89.8968V39.3892H82.4821V47H79.8486ZM95.7988 29.5455V47H93.2505V29.5455H95.7988ZM104.285 47.2642C103.058 47.2642 101.987 46.983 101.072 46.4205C100.157 45.858 99.4472 45.071 98.9415 44.0597C98.4358 43.0483 98.183 41.8665 98.183 40.5142C98.183 39.1562 98.4358 37.9687 98.9415 36.9517C99.4472 35.9347 100.157 35.1449 101.072 34.5824C101.987 34.0199 103.058 33.7386 104.285 33.7386C105.513 33.7386 106.584 34.0199 107.498 34.5824C108.413 35.1449 109.123 35.9347 109.629 36.9517C110.135 37.9687 110.388 39.1562 110.388 40.5142C110.388 41.8665 110.135 43.0483 109.629 44.0597C109.123 45.071 108.413 45.858 107.498 46.4205C106.584 46.983 105.513 47.2642 104.285 47.2642ZM104.294 45.125C105.089 45.125 105.748 44.9148 106.271 44.4943C106.794 44.0739 107.18 43.5142 107.43 42.8153C107.686 42.1165 107.814 41.3466 107.814 40.5057C107.814 39.6705 107.686 38.9034 107.43 38.2045C107.18 37.5 106.794 36.9347 106.271 36.5085C105.748 36.0824 105.089 35.8693 104.294 35.8693C103.493 35.8693 102.828 36.0824 102.299 36.5085C101.777 36.9347 101.388 37.5 101.132 38.2045C100.882 38.9034 100.757 39.6705 100.757 40.5057C100.757 41.3466 100.882 42.1165 101.132 42.8153C101.388 43.5142 101.777 44.0739 102.299 44.4943C102.828 44.9148 103.493 45.125 104.294 45.125ZM115.216 47L111.363 33.9091H113.997L116.562 43.5227H116.69L119.264 33.9091H121.897L124.454 43.4801H124.582L127.13 33.9091H129.764L125.92 47H123.321L120.662 37.5483H120.466L117.807 47H115.216ZM141.536 37.1051L139.226 37.5142C139.13 37.2187 138.976 36.9375 138.766 36.6705C138.561 36.4034 138.283 36.1847 137.931 36.0142C137.579 35.8437 137.138 35.7585 136.61 35.7585C135.888 35.7585 135.286 35.9205 134.803 36.2443C134.32 36.5625 134.079 36.9744 134.079 37.4801C134.079 37.9176 134.24 38.2699 134.564 38.5369C134.888 38.804 135.411 39.0227 136.133 39.1932L138.212 39.6705C139.417 39.9489 140.314 40.3778 140.905 40.9574C141.496 41.5369 141.792 42.2898 141.792 43.2159C141.792 44 141.564 44.6989 141.11 45.3125C140.661 45.9205 140.033 46.3977 139.226 46.7443C138.425 47.0909 137.496 47.2642 136.439 47.2642C134.973 47.2642 133.777 46.9517 132.851 46.3267C131.925 45.696 131.357 44.8011 131.147 43.642L133.61 43.267C133.763 43.9091 134.079 44.3949 134.556 44.7244C135.033 45.0483 135.655 45.2102 136.422 45.2102C137.258 45.2102 137.925 45.0369 138.425 44.6903C138.925 44.3381 139.175 43.9091 139.175 43.4034C139.175 42.9943 139.022 42.6506 138.715 42.3722C138.414 42.0937 137.951 41.8835 137.326 41.7415L135.11 41.2557C133.888 40.9773 132.985 40.5341 132.4 39.9261C131.82 39.3182 131.53 38.5483 131.53 37.6165C131.53 36.8437 131.746 36.1676 132.178 35.5881C132.61 35.0085 133.206 34.5568 133.968 34.233C134.729 33.9034 135.601 33.7386 136.584 33.7386C137.999 33.7386 139.113 34.0455 139.925 34.6591C140.738 35.267 141.275 36.0824 141.536 37.1051Z" fill="#0C1526"/>
</svg>
