<svg width="428" height="926" viewBox="0 0 428 926" fill="none" xmlns="http://www.w3.org/2000/svg">
<rect x="1.5" y="1.5" width="425" height="923" rx="33.5" fill="#FFFFFE"/>
<rect x="1.5" y="1.5" width="425" height="923" rx="33.5" stroke="#D9D9D9" stroke-width="3"/>
<path d="M63.6286 24.7231C66.1852 24.7231 68.4099 26.541 68.4099 30.8574V30.874C68.4099 34.9082 66.592 37.2988 63.5788 37.2988C61.3791 37.2988 59.7355 35.9956 59.3537 34.1611L59.3371 34.0698H61.4455L61.4704 34.1528C61.7858 34.9912 62.5246 35.5391 63.5788 35.5391C65.4797 35.5391 66.2849 33.6797 66.3762 31.3887C66.3762 31.2974 66.3845 31.2061 66.3845 31.1147H66.2184C65.7785 32.061 64.7326 32.8994 63.0891 32.8994C60.7897 32.8994 59.1794 31.2227 59.1794 28.9482V28.9316C59.1794 26.4995 61.0305 24.7231 63.6286 24.7231ZM63.6203 31.2559C64.9733 31.2559 66.0109 30.2764 66.0109 28.9233V28.9067C66.0109 27.5371 64.9733 26.4663 63.6452 26.4663C62.3254 26.4663 61.2712 27.5205 61.2712 28.8569V28.8735C61.2712 30.2598 62.259 31.2559 63.6203 31.2559ZM71.7704 29.2388C71.015 29.2388 70.4506 28.6577 70.4506 27.9272C70.4506 27.1885 71.015 26.6157 71.7704 26.6157C72.5341 26.6157 73.0902 27.1885 73.0902 27.9272C73.0902 28.6577 72.5341 29.2388 71.7704 29.2388ZM71.7704 35.3979C71.015 35.3979 70.4506 34.8252 70.4506 34.0864C70.4506 33.3477 71.015 32.7749 71.7704 32.7749C72.5341 32.7749 73.0902 33.3477 73.0902 34.0864C73.0902 34.8252 72.5341 35.3979 71.7704 35.3979ZM80.9415 37V34.7007H75.0812V32.9492C76.6334 30.2515 78.3351 27.4956 79.962 25.022H82.9918V32.9326H84.6022V34.7007H82.9918V37H80.9415ZM77.0733 32.9824H80.9747V26.7319H80.8502C79.6217 28.6079 78.2355 30.8242 77.0733 32.8579V32.9824ZM89.158 37V27.1304H89.0169L86.0369 29.2388V27.2217L89.1663 25.022H91.2996V37H89.158Z" fill="black"/>
<rect x="151.5" y="10" width="125" height="37" rx="18.5" fill="black"/>
<rect x="151.5" y="10" width="80" height="37" rx="18.5" fill="black"/>
<rect x="239.5" y="10" width="37" height="37" rx="18.5" fill="black"/>
<path d="M323.049 26C323.049 25.4477 323.497 25 324.049 25H325.049C325.602 25 326.049 25.4477 326.049 26V34C326.049 34.5523 325.602 35 325.049 35H324.049C323.497 35 323.049 34.5523 323.049 34V26Z" fill="black"/>
<path d="M328.049 24C328.049 23.4477 328.497 23 329.049 23H330.049C330.602 23 331.049 23.4477 331.049 24V34C331.049 34.5523 330.602 35 330.049 35H329.049C328.497 35 328.049 34.5523 328.049 34V24Z" fill="black"/>
<path d="M318.049 29.5C318.049 28.9477 318.497 28.5 319.049 28.5H320.049C320.602 28.5 321.049 28.9477 321.049 29.5V34C321.049 34.5523 320.602 35 320.049 35H319.049C318.497 35 318.049 34.5523 318.049 34V29.5Z" fill="black"/>
<path d="M313.049 32C313.049 31.4477 313.497 31 314.049 31H315.049C315.602 31 316.049 31.4477 316.049 32V34C316.049 34.5523 315.602 35 315.049 35H314.049C313.497 35 313.049 34.5523 313.049 34V32Z" fill="black"/>
<path fill-rule="evenodd" clip-rule="evenodd" d="M347.55 25.5875C350.016 25.5876 352.389 26.5551 354.176 28.2898C354.311 28.4237 354.526 28.4221 354.659 28.286L355.945 26.9605C356.012 26.8915 356.05 26.798 356.049 26.7008C356.049 26.6035 356.01 26.5105 355.942 26.4423C351.25 21.8526 343.848 21.8526 339.156 26.4423C339.089 26.5105 339.05 26.6034 339.049 26.7007C339.049 26.7979 339.086 26.8914 339.153 26.9605L340.44 28.286C340.573 28.4223 340.788 28.424 340.923 28.2898C342.71 26.5549 345.083 25.5875 347.55 25.5875ZM347.585 29.5894C348.94 29.5893 350.247 30.1035 351.252 31.032C351.388 31.1638 351.602 31.1609 351.734 31.0255L353.019 29.7C353.087 29.6304 353.125 29.5361 353.124 29.4381C353.123 29.3401 353.083 29.2466 353.014 29.1784C349.955 26.2739 345.218 26.2739 342.159 29.1784C342.09 29.2466 342.05 29.3401 342.049 29.4382C342.048 29.5362 342.086 29.6305 342.154 29.7L343.439 31.0255C343.571 31.1609 343.785 31.1638 343.921 31.032C344.925 30.1041 346.231 29.5899 347.585 29.5894ZM350.199 32.1767C350.201 32.275 350.163 32.3698 350.094 32.4386L347.871 34.7289C347.806 34.7962 347.717 34.834 347.624 34.834C347.532 34.834 347.443 34.7962 347.377 34.7289L345.154 32.4386C345.085 32.3697 345.047 32.2749 345.049 32.1766C345.051 32.0783 345.093 31.9853 345.165 31.9194C346.584 30.6935 348.664 30.6935 350.084 31.9194C350.155 31.9853 350.197 32.0784 350.199 32.1767Z" fill="black"/>
<path opacity="0.35" d="M364.549 27C364.549 25.067 366.116 23.5 368.049 23.5H385.049C386.982 23.5 388.549 25.067 388.549 27V32C388.549 33.933 386.982 35.5 385.049 35.5H368.049C366.116 35.5 364.549 33.933 364.549 32V27Z" stroke="black"/>
<path opacity="0.4" d="M390.049 28V32.2203C390.898 31.8629 391.451 31.0314 391.451 30.1102C391.451 29.1889 390.898 28.3574 390.049 28Z" fill="black"/>
<path d="M366.049 27C366.049 25.8954 366.945 25 368.049 25H385.049C386.154 25 387.049 25.8954 387.049 27V32C387.049 33.1046 386.154 34 385.049 34H368.049C366.945 34 366.049 33.1046 366.049 32V27Z" fill="black"/>
<rect x="1" y="61" width="427" height="63" fill="#697E68"/>
<path d="M38.572 102.391C38.8298 102.648 39.158 102.789 39.5447 102.789C40.3181 102.789 40.9392 102.18 40.9392 101.406C40.9392 101.02 40.7751 100.668 40.5056 100.398L32.3025 92.3828L40.5056 84.3906C40.7751 84.1211 40.9392 83.7578 40.9392 83.3828C40.9392 82.6094 40.3181 82 39.5447 82C39.158 82 38.8298 82.1406 38.572 82.3984L29.4548 91.3047C29.1267 91.6094 28.9744 91.9844 28.9626 92.3945C28.9626 92.8047 29.1267 93.1562 29.4548 93.4727L38.572 102.391Z" fill="white"/>
<path d="M166.832 101L172.832 84.0898H176.242L182.242 101H179.078L177.66 96.6289H171.402L169.996 101H166.832ZM174.438 87.2305L172.164 94.2969H176.91L174.637 87.2305H174.438ZM189.637 101.258C185.781 101.258 183.508 98.7617 183.508 94.5781V94.5547C183.508 90.418 185.77 87.9453 189.625 87.9453C192.918 87.9453 194.887 89.7734 195.215 92.4219V92.4688H192.461L192.449 92.4336C192.18 91.1914 191.23 90.3008 189.637 90.3008C187.645 90.3008 186.473 91.8711 186.473 94.5547V94.5781C186.473 97.2969 187.656 98.8906 189.637 98.8906C191.148 98.8906 192.074 98.1992 192.438 96.8516L192.461 96.8047L195.215 96.793L195.191 96.8867C194.77 99.5117 192.883 101.258 189.637 101.258ZM203.488 101.258C199.633 101.258 197.359 98.7617 197.359 94.5781V94.5547C197.359 90.418 199.621 87.9453 203.477 87.9453C206.77 87.9453 208.738 89.7734 209.066 92.4219V92.4688H206.312L206.301 92.4336C206.031 91.1914 205.082 90.3008 203.488 90.3008C201.496 90.3008 200.324 91.8711 200.324 94.5547V94.5781C200.324 97.2969 201.508 98.8906 203.488 98.8906C205 98.8906 205.926 98.1992 206.289 96.8516L206.312 96.8047L209.066 96.793L209.043 96.8867C208.621 99.5117 206.734 101.258 203.488 101.258ZM217.375 101.258C213.531 101.258 211.211 98.75 211.211 94.6016V94.5781C211.211 90.4648 213.566 87.9453 217.375 87.9453C221.195 87.9453 223.539 90.4531 223.539 94.5781V94.6016C223.539 98.75 221.207 101.258 217.375 101.258ZM217.375 98.8906C219.402 98.8906 220.551 97.3086 220.551 94.6133V94.5898C220.551 91.8945 219.391 90.3008 217.375 90.3008C215.348 90.3008 214.188 91.8945 214.188 94.5898V94.6133C214.188 97.3086 215.348 98.8906 217.375 98.8906ZM230.711 101.258C227.828 101.258 226.352 99.5234 226.352 96.4766V88.1914H229.27V95.8086C229.27 97.7891 230.008 98.7969 231.766 98.7969C233.652 98.7969 234.66 97.5781 234.66 95.6562V88.1914H237.578V101H234.66V99.0547H234.461C233.863 100.426 232.562 101.258 230.711 101.258ZM241.141 101V88.1914H244.059V90.1484H244.258C244.867 88.7773 246.098 87.9453 247.949 87.9453C250.809 87.9453 252.367 89.668 252.367 92.7148V101H249.449V93.3945C249.449 91.4023 248.641 90.3945 246.871 90.3945C245.137 90.3945 244.059 91.6133 244.059 93.5352V101H241.141ZM260.852 101.059C257.91 101.059 256.703 100.074 256.703 97.6016V90.4531H254.711V88.1914H256.703V85.0508H259.668V88.1914H262.375V90.4531H259.668V96.9102C259.668 98.1875 260.172 98.7266 261.391 98.7266C261.801 98.7266 262.023 98.7148 262.375 98.6797V100.93C261.953 101.012 261.414 101.059 260.852 101.059Z" fill="white"/>
<path d="M65.1953 167V157.422H61.7266V155.727H70.6875V157.422H67.2109V167H65.1953ZM72.6719 167V155.156H74.6172V159.766H74.75C75.1562 158.852 75.9766 158.297 77.2109 158.297C79.1172 158.297 80.1562 159.445 80.1562 161.477V167H78.2109V161.93C78.2109 160.602 77.6719 159.93 76.4922 159.93C75.3359 159.93 74.6172 160.742 74.6172 162.023V167H72.6719ZM86.1094 167.172C83.5703 167.172 82.0312 165.469 82.0312 162.75V162.742C82.0312 160.055 83.5859 158.297 86.0156 158.297C88.4453 158.297 89.9453 160 89.9453 162.578V163.219H83.9766C84 164.75 84.8281 165.641 86.1484 165.641C87.2031 165.641 87.8047 165.109 87.9922 164.719L88.0156 164.664H89.8672L89.8438 164.734C89.5703 165.836 88.4297 167.172 86.1094 167.172ZM86.0391 159.82C84.9531 159.82 84.1406 160.555 83.9922 161.914H88.0469C87.9141 160.516 87.125 159.82 86.0391 159.82ZM91.8906 167V158.461H93.8359V159.773H93.9688C94.2578 158.859 95.0391 158.32 96.1641 158.32C96.4609 158.32 96.7656 158.359 96.9531 158.414V160.156C96.6406 160.094 96.3203 160.047 95.9844 160.047C94.6875 160.047 93.8359 160.82 93.8359 162.039V167H91.8906ZM100.766 167.141C99.1406 167.141 97.9609 166.141 97.9609 164.586V164.57C97.9609 163.047 99.125 162.156 101.203 162.031L103.398 161.898V161.164C103.398 160.312 102.844 159.844 101.797 159.844C100.906 159.844 100.328 160.164 100.133 160.727L100.125 160.758H98.2891L98.2969 160.688C98.4844 159.25 99.8594 158.297 101.891 158.297C104.086 158.297 105.32 159.359 105.32 161.164V167H103.398V165.828H103.266C102.797 166.656 101.891 167.141 100.766 167.141ZM99.8828 164.492C99.8828 165.219 100.5 165.648 101.359 165.648C102.531 165.648 103.398 164.883 103.398 163.867V163.18L101.477 163.305C100.391 163.375 99.8828 163.773 99.8828 164.477V164.492ZM107.656 169.836V158.461H109.602V159.797H109.734C110.203 158.867 111.133 158.32 112.328 158.32C114.469 158.32 115.836 160.023 115.836 162.727V162.742C115.836 165.461 114.492 167.141 112.328 167.141C111.156 167.141 110.18 166.562 109.734 165.641H109.602V169.836H107.656ZM111.719 165.5C113.047 165.5 113.852 164.453 113.852 162.742V162.727C113.852 161.008 113.047 159.961 111.719 159.961C110.398 159.961 109.578 161.008 109.578 162.719V162.734C109.578 164.445 110.398 165.5 111.719 165.5ZM118.797 157.031C118.156 157.031 117.633 156.523 117.633 155.883C117.633 155.25 118.156 154.734 118.797 154.734C119.43 154.734 119.953 155.25 119.953 155.883C119.953 156.523 119.43 157.031 118.797 157.031ZM117.82 167V158.461H119.766V167H117.82ZM125.383 167.172C123.211 167.172 121.898 166.172 121.734 164.727V164.711H123.664L123.672 164.727C123.875 165.32 124.445 165.734 125.414 165.734C126.383 165.734 127.055 165.297 127.055 164.656V164.641C127.055 164.141 126.68 163.812 125.742 163.602L124.359 163.289C122.734 162.93 121.961 162.164 121.961 160.906V160.898C121.961 159.359 123.367 158.297 125.383 158.297C127.461 158.297 128.703 159.328 128.828 160.711V160.727H127L126.992 160.703C126.852 160.164 126.289 159.727 125.375 159.727C124.508 159.727 123.883 160.148 123.883 160.789V160.797C123.883 161.297 124.242 161.602 125.164 161.812L126.547 162.117C128.219 162.492 129.008 163.203 129.008 164.445V164.461C129.008 166.086 127.484 167.172 125.383 167.172ZM134.266 167.039C132.305 167.039 131.5 166.383 131.5 164.734V159.969H130.172V158.461H131.5V156.367H133.477V158.461H135.281V159.969H133.477V164.273C133.477 165.125 133.812 165.484 134.625 165.484C134.898 165.484 135.047 165.477 135.281 165.453V166.953C135 167.008 134.641 167.039 134.266 167.039ZM138.664 161.352C137.953 161.352 137.422 160.812 137.422 160.125C137.422 159.43 137.953 158.891 138.664 158.891C139.383 158.891 139.906 159.43 139.906 160.125C139.906 160.812 139.383 161.352 138.664 161.352ZM138.664 167.156C137.953 167.156 137.422 166.609 137.422 165.922C137.422 165.227 137.953 164.688 138.664 164.688C139.383 164.688 139.906 165.227 139.906 165.922C139.906 166.609 139.383 167.156 138.664 167.156ZM151.734 167.266C148.5 167.266 146.562 164.969 146.562 161.367V161.352C146.562 157.734 148.547 155.461 151.734 155.461C154.938 155.461 156.906 157.742 156.906 161.352V161.367C156.906 164.961 154.953 167.266 151.734 167.266ZM151.734 165.969C154.047 165.969 155.469 164.156 155.469 161.367V161.352C155.469 158.539 154.039 156.758 151.734 156.758C149.438 156.758 148 158.539 148 161.352V161.367C148 164.156 149.391 165.969 151.734 165.969ZM159.25 167V155.234H160.609V159.844H160.734C161.156 158.953 161.945 158.43 163.188 158.43C165.078 158.43 166.133 159.547 166.133 161.547V167H164.773V161.875C164.773 160.359 164.148 159.633 162.805 159.633C161.461 159.633 160.609 160.539 160.609 162.016V167H159.25ZM173.094 167V158.578H174.453V159.844H174.578C175 158.953 175.789 158.43 177.031 158.43C178.922 158.43 179.977 159.547 179.977 161.547V167H178.617V161.875C178.617 160.359 177.992 159.633 176.648 159.633C175.305 159.633 174.453 160.539 174.453 162.016V167H173.094ZM185.898 167.148C183.5 167.148 182.016 165.492 182.016 162.797V162.781C182.016 160.078 183.5 158.43 185.898 158.43C188.297 158.43 189.781 160.078 189.781 162.781V162.797C189.781 165.492 188.297 167.148 185.898 167.148ZM185.898 165.945C187.492 165.945 188.391 164.781 188.391 162.797V162.781C188.391 160.789 187.492 159.633 185.898 159.633C184.305 159.633 183.406 160.789 183.406 162.781V162.797C183.406 164.781 184.305 165.945 185.898 165.945ZM191.391 169.867L192.07 165.422H193.625L192.398 169.867H191.391ZM201.703 169.953C201.523 169.953 201.289 169.938 201.102 169.906V168.789C201.266 168.82 201.477 168.828 201.664 168.828C202.438 168.828 202.906 168.477 203.211 167.508L203.367 167.008L200.25 158.578H201.703L204.016 165.508H204.141L206.445 158.578H207.875L204.586 167.516C203.891 169.406 203.195 169.953 201.703 169.953ZM212.82 167.148C210.422 167.148 208.938 165.492 208.938 162.797V162.781C208.938 160.078 210.422 158.43 212.82 158.43C215.219 158.43 216.703 160.078 216.703 162.781V162.797C216.703 165.492 215.219 167.148 212.82 167.148ZM212.82 165.945C214.414 165.945 215.312 164.781 215.312 162.797V162.781C215.312 160.789 214.414 159.633 212.82 159.633C211.227 159.633 210.328 160.789 210.328 162.781V162.797C210.328 164.781 211.227 165.945 212.82 165.945ZM221.633 167.148C219.719 167.148 218.734 166.023 218.734 164.031V158.578H220.094V163.703C220.094 165.219 220.641 165.945 221.984 165.945C223.469 165.945 224.258 165.039 224.258 163.562V158.578H225.617V167H224.258V165.742H224.133C223.719 166.641 222.867 167.148 221.633 167.148ZM232.734 167V155.234H234.094V159.844H234.219C234.641 158.953 235.43 158.43 236.672 158.43C238.562 158.43 239.617 159.547 239.617 161.547V167H238.258V161.875C238.258 160.359 237.633 159.633 236.289 159.633C234.945 159.633 234.094 160.539 234.094 162.016V167H232.734ZM244.391 167.148C242.789 167.148 241.578 166.18 241.578 164.648V164.633C241.578 163.133 242.688 162.266 244.648 162.148L247.062 162V161.234C247.062 160.195 246.43 159.633 245.172 159.633C244.164 159.633 243.5 160.008 243.281 160.664L243.273 160.688H241.914L241.922 160.641C242.141 159.32 243.422 158.43 245.219 158.43C247.273 158.43 248.422 159.484 248.422 161.234V167H247.062V165.758H246.938C246.406 166.656 245.523 167.148 244.391 167.148ZM242.969 164.617C242.969 165.469 243.695 165.969 244.672 165.969C246.055 165.969 247.062 165.062 247.062 163.859V163.094L244.812 163.234C243.531 163.312 242.969 163.766 242.969 164.602V164.617ZM252.977 167L249.859 158.578H251.297L253.602 165.516H253.727L256.031 158.578H257.469L254.352 167H252.977ZM262.391 167.148C259.984 167.148 258.531 165.461 258.531 162.82V162.812C258.531 160.211 260.016 158.43 262.305 158.43C264.594 158.43 265.984 160.133 265.984 162.648V163.18H259.922C259.961 164.922 260.922 165.938 262.422 165.938C263.562 165.938 264.266 165.398 264.492 164.891L264.523 164.82H265.883L265.867 164.883C265.578 166.023 264.375 167.148 262.391 167.148ZM262.297 159.641C261.047 159.641 260.094 160.492 259.945 162.094H264.602C264.461 160.43 263.539 159.641 262.297 159.641ZM272.594 167V158.578H273.953V159.844H274.078C274.5 158.953 275.289 158.43 276.531 158.43C278.422 158.43 279.477 159.547 279.477 161.547V167H278.117V161.875C278.117 160.359 277.492 159.633 276.148 159.633C274.805 159.633 273.953 160.539 273.953 162.016V167H272.594ZM285.398 167.148C283 167.148 281.516 165.492 281.516 162.797V162.781C281.516 160.078 283 158.43 285.398 158.43C287.797 158.43 289.281 160.078 289.281 162.781V162.797C289.281 165.492 287.797 167.148 285.398 167.148ZM285.398 165.945C286.992 165.945 287.891 164.781 287.891 162.797V162.781C287.891 160.789 286.992 159.633 285.398 159.633C283.805 159.633 282.906 160.789 282.906 162.781V162.797C282.906 164.781 283.805 165.945 285.398 165.945ZM298.883 167.062C297.148 167.062 296.422 166.422 296.422 164.812V159.703H295.094V158.578H296.422V156.398H297.828V158.578H299.672V159.703H297.828V164.469C297.828 165.461 298.172 165.859 299.047 165.859C299.289 165.859 299.422 165.852 299.672 165.828V166.984C299.406 167.031 299.148 167.062 298.883 167.062ZM301.781 167V155.234H303.141V159.844H303.266C303.688 158.953 304.477 158.43 305.719 158.43C307.609 158.43 308.664 159.547 308.664 161.547V167H307.305V161.875C307.305 160.359 306.68 159.633 305.336 159.633C303.992 159.633 303.141 160.539 303.141 162.016V167H301.781ZM314.562 167.148C312.156 167.148 310.703 165.461 310.703 162.82V162.812C310.703 160.211 312.188 158.43 314.477 158.43C316.766 158.43 318.156 160.133 318.156 162.648V163.18H312.094C312.133 164.922 313.094 165.938 314.594 165.938C315.734 165.938 316.438 165.398 316.664 164.891L316.695 164.82H318.055L318.039 164.883C317.75 166.023 316.547 167.148 314.562 167.148ZM314.469 159.641C313.219 159.641 312.266 160.492 312.117 162.094H316.773C316.633 160.43 315.711 159.641 314.469 159.641ZM320.266 167V158.578H321.625V159.828H321.75C322.07 158.945 322.859 158.43 324 158.43C324.258 158.43 324.547 158.461 324.68 158.484V159.805C324.398 159.758 324.141 159.727 323.844 159.727C322.547 159.727 321.625 160.547 321.625 161.781V167H320.266ZM328.672 167.148C327.07 167.148 325.859 166.18 325.859 164.648V164.633C325.859 163.133 326.969 162.266 328.93 162.148L331.344 162V161.234C331.344 160.195 330.711 159.633 329.453 159.633C328.445 159.633 327.781 160.008 327.562 160.664L327.555 160.688H326.195L326.203 160.641C326.422 159.32 327.703 158.43 329.5 158.43C331.555 158.43 332.703 159.484 332.703 161.234V167H331.344V165.758H331.219C330.688 166.656 329.805 167.148 328.672 167.148ZM327.25 164.617C327.25 165.469 327.977 165.969 328.953 165.969C330.336 165.969 331.344 165.062 331.344 163.859V163.094L329.094 163.234C327.812 163.312 327.25 163.766 327.25 164.602V164.617ZM335.188 169.812V158.578H336.547V159.922H336.672C337.188 158.984 338.125 158.43 339.297 158.43C341.43 158.43 342.828 160.156 342.828 162.781V162.797C342.828 165.438 341.438 167.148 339.297 167.148C338.141 167.148 337.133 166.57 336.672 165.672H336.547V169.812H335.188ZM338.984 165.945C340.523 165.945 341.438 164.758 341.438 162.797V162.781C341.438 160.82 340.523 159.633 338.984 159.633C337.453 159.633 336.516 160.836 336.516 162.781V162.797C336.516 164.742 337.453 165.945 338.984 165.945ZM345.672 156.953C345.156 156.953 344.734 156.531 344.734 156.016C344.734 155.5 345.156 155.078 345.672 155.078C346.188 155.078 346.609 155.5 346.609 156.016C346.609 156.531 346.188 156.953 345.672 156.953ZM344.984 167V158.578H346.344V167H344.984ZM351.797 167.148C349.922 167.148 348.633 166.242 348.477 164.852H349.867C350.094 165.555 350.766 166.016 351.844 166.016C352.977 166.016 353.781 165.477 353.781 164.711V164.695C353.781 164.125 353.352 163.727 352.312 163.477L351.008 163.164C349.43 162.789 348.719 162.102 348.719 160.891V160.883C348.719 159.484 350.062 158.43 351.852 158.43C353.617 158.43 354.844 159.312 355.031 160.688H353.695C353.516 160.023 352.859 159.562 351.844 159.562C350.844 159.562 350.109 160.078 350.109 160.82V160.836C350.109 161.406 350.531 161.766 351.523 162.008L352.82 162.32C354.406 162.703 355.172 163.391 355.172 164.594V164.609C355.172 166.109 353.711 167.148 351.797 167.148ZM360.195 167.062C358.461 167.062 357.734 166.422 357.734 164.812V159.703H356.406V158.578H357.734V156.398H359.141V158.578H360.984V159.703H359.141V164.469C359.141 165.461 359.484 165.859 360.359 165.859C360.602 165.859 360.734 165.852 360.984 165.828V166.984C360.719 167.031 360.461 167.062 360.195 167.062ZM364.125 167.078C363.57 167.078 363.109 166.617 363.109 166.062C363.109 165.5 363.57 165.047 364.125 165.047C364.688 165.047 365.141 165.5 365.141 166.062C365.141 166.617 364.688 167.078 364.125 167.078ZM66.9766 186.266C63.9141 186.266 62 184 62 180.375V180.359C62 176.727 63.9062 174.461 66.9688 174.461C69.3438 174.461 71.1953 175.953 71.5312 178.117L71.5234 178.133H70.1094L70.1016 178.117C69.7266 176.672 68.5234 175.758 66.9688 175.758C64.8047 175.758 63.4453 177.539 63.4453 180.359V180.375C63.4453 183.195 64.8047 184.969 66.9766 184.969C68.5469 184.969 69.7422 184.164 70.0938 182.867L70.1094 182.852H71.5312V182.867C71.1562 184.93 69.375 186.266 66.9766 186.266ZM73.7969 186V174.234H75.1562V186H73.7969ZM78.4844 175.953C77.9688 175.953 77.5469 175.531 77.5469 175.016C77.5469 174.5 77.9688 174.078 78.4844 174.078C79 174.078 79.4219 174.5 79.4219 175.016C79.4219 175.531 79 175.953 78.4844 175.953ZM77.7969 186V177.578H79.1562V186H77.7969ZM85.1641 186.148C82.8047 186.148 81.2969 184.438 81.2969 181.766V181.75C81.2969 179.133 82.7969 177.43 85.1562 177.43C87.2031 177.43 88.4297 178.609 88.6797 180.109L88.6875 180.156H87.3359L87.3281 180.133C87.1172 179.305 86.3672 178.633 85.1562 178.633C83.6406 178.633 82.6875 179.852 82.6875 181.75V181.766C82.6875 183.703 83.6562 184.945 85.1562 184.945C86.2891 184.945 87.0078 184.445 87.3203 183.508L87.3359 183.461L88.6797 183.453L88.6641 183.539C88.3203 185.062 87.1875 186.148 85.1641 186.148ZM90.75 186V174.234H92.1094V181.258H92.2344L95.875 177.578H97.5234L93.8516 181.117L97.7656 186H96.0547L92.8984 182.039L92.1094 182.805V186H90.75ZM106.852 186.062C105.117 186.062 104.391 185.422 104.391 183.812V178.703H103.062V177.578H104.391V175.398H105.797V177.578H107.641V178.703H105.797V183.469C105.797 184.461 106.141 184.859 107.016 184.859C107.258 184.859 107.391 184.852 107.641 184.828V185.984C107.375 186.031 107.117 186.062 106.852 186.062ZM109.75 186V174.234H111.109V178.844H111.234C111.656 177.953 112.445 177.43 113.688 177.43C115.578 177.43 116.633 178.547 116.633 180.547V186H115.273V180.875C115.273 179.359 114.648 178.633 113.305 178.633C111.961 178.633 111.109 179.539 111.109 181.016V186H109.75ZM122.531 186.148C120.125 186.148 118.672 184.461 118.672 181.82V181.812C118.672 179.211 120.156 177.43 122.445 177.43C124.734 177.43 126.125 179.133 126.125 181.648V182.18H120.062C120.102 183.922 121.062 184.938 122.562 184.938C123.703 184.938 124.406 184.398 124.633 183.891L124.664 183.82H126.023L126.008 183.883C125.719 185.023 124.516 186.148 122.531 186.148ZM122.438 178.641C121.188 178.641 120.234 179.492 120.086 181.094H124.742C124.602 179.43 123.68 178.641 122.438 178.641ZM136.922 186.148C135.75 186.148 134.812 185.594 134.297 184.656H134.172V186H132.812V174.234H134.172V178.906H134.297C134.758 178.008 135.766 177.43 136.922 177.43C139.062 177.43 140.453 179.141 140.453 181.781V181.797C140.453 184.422 139.055 186.148 136.922 186.148ZM136.609 184.945C138.148 184.945 139.062 183.758 139.062 181.797V181.781C139.062 179.82 138.148 178.633 136.609 178.633C135.078 178.633 134.141 179.836 134.141 181.781V181.797C134.141 183.742 135.078 184.945 136.609 184.945ZM145.383 186.148C143.469 186.148 142.484 185.023 142.484 183.031V177.578H143.844V182.703C143.844 184.219 144.391 184.945 145.734 184.945C147.219 184.945 148.008 184.039 148.008 182.562V177.578H149.367V186H148.008V184.742H147.883C147.469 185.641 146.617 186.148 145.383 186.148ZM154.898 186.062C153.164 186.062 152.438 185.422 152.438 183.812V178.703H151.109V177.578H152.438V175.398H153.844V177.578H155.688V178.703H153.844V183.469C153.844 184.461 154.188 184.859 155.062 184.859C155.305 184.859 155.438 184.852 155.688 184.828V185.984C155.422 186.031 155.164 186.062 154.898 186.062ZM160.711 186.062C158.977 186.062 158.25 185.422 158.25 183.812V178.703H156.922V177.578H158.25V175.398H159.656V177.578H161.5V178.703H159.656V183.469C159.656 184.461 160 184.859 160.875 184.859C161.117 184.859 161.25 184.852 161.5 184.828V185.984C161.234 186.031 160.977 186.062 160.711 186.062ZM166.867 186.148C164.469 186.148 162.984 184.492 162.984 181.797V181.781C162.984 179.078 164.469 177.43 166.867 177.43C169.266 177.43 170.75 179.078 170.75 181.781V181.797C170.75 184.492 169.266 186.148 166.867 186.148ZM166.867 184.945C168.461 184.945 169.359 183.781 169.359 181.797V181.781C169.359 179.789 168.461 178.633 166.867 178.633C165.273 178.633 164.375 179.789 164.375 181.781V181.797C164.375 183.781 165.273 184.945 166.867 184.945ZM172.859 186V177.578H174.219V178.844H174.344C174.766 177.953 175.555 177.43 176.797 177.43C178.688 177.43 179.742 178.547 179.742 180.547V186H178.383V180.875C178.383 179.359 177.758 178.633 176.414 178.633C175.07 178.633 174.219 179.539 174.219 181.016V186H172.859ZM189.695 186.062C187.961 186.062 187.234 185.422 187.234 183.812V178.703H185.906V177.578H187.234V175.398H188.641V177.578H190.484V178.703H188.641V183.469C188.641 184.461 188.984 184.859 189.859 184.859C190.102 184.859 190.234 184.852 190.484 184.828V185.984C190.219 186.031 189.961 186.062 189.695 186.062ZM195.852 186.148C193.453 186.148 191.969 184.492 191.969 181.797V181.781C191.969 179.078 193.453 177.43 195.852 177.43C198.25 177.43 199.734 179.078 199.734 181.781V181.797C199.734 184.492 198.25 186.148 195.852 186.148ZM195.852 184.945C197.445 184.945 198.344 183.781 198.344 181.797V181.781C198.344 179.789 197.445 178.633 195.852 178.633C194.258 178.633 193.359 179.789 193.359 181.781V181.797C193.359 183.781 194.258 184.945 195.852 184.945ZM209.336 186.062C207.602 186.062 206.875 185.422 206.875 183.812V178.703H205.547V177.578H206.875V175.398H208.281V177.578H210.125V178.703H208.281V183.469C208.281 184.461 208.625 184.859 209.5 184.859C209.742 184.859 209.875 184.852 210.125 184.828V185.984C209.859 186.031 209.602 186.062 209.336 186.062ZM214.469 186.148C212.867 186.148 211.656 185.18 211.656 183.648V183.633C211.656 182.133 212.766 181.266 214.727 181.148L217.141 181V180.234C217.141 179.195 216.508 178.633 215.25 178.633C214.242 178.633 213.578 179.008 213.359 179.664L213.352 179.688H211.992L212 179.641C212.219 178.32 213.5 177.43 215.297 177.43C217.352 177.43 218.5 178.484 218.5 180.234V186H217.141V184.758H217.016C216.484 185.656 215.602 186.148 214.469 186.148ZM213.047 183.617C213.047 184.469 213.773 184.969 214.75 184.969C216.133 184.969 217.141 184.062 217.141 182.859V182.094L214.891 182.234C213.609 182.312 213.047 182.766 213.047 183.602V183.617ZM221.062 186V174.234H222.422V181.258H222.547L226.188 177.578H227.836L224.164 181.117L228.078 186H226.367L223.211 182.039L222.422 182.805V186H221.062ZM232.719 186.148C230.312 186.148 228.859 184.461 228.859 181.82V181.812C228.859 179.211 230.344 177.43 232.633 177.43C234.922 177.43 236.312 179.133 236.312 181.648V182.18H230.25C230.289 183.922 231.25 184.938 232.75 184.938C233.891 184.938 234.594 184.398 234.82 183.891L234.852 183.82H236.211L236.195 183.883C235.906 185.023 234.703 186.148 232.719 186.148ZM232.625 178.641C231.375 178.641 230.422 179.492 230.273 181.094H234.93C234.789 179.43 233.867 178.641 232.625 178.641ZM245.914 186.062C244.18 186.062 243.453 185.422 243.453 183.812V178.703H242.125V177.578H243.453V175.398H244.859V177.578H246.703V178.703H244.859V183.469C244.859 184.461 245.203 184.859 246.078 184.859C246.32 184.859 246.453 184.852 246.703 184.828V185.984C246.438 186.031 246.18 186.062 245.914 186.062ZM248.812 186V174.234H250.172V178.844H250.297C250.719 177.953 251.508 177.43 252.75 177.43C254.641 177.43 255.695 178.547 255.695 180.547V186H254.336V180.875C254.336 179.359 253.711 178.633 252.367 178.633C251.023 178.633 250.172 179.539 250.172 181.016V186H248.812ZM261.594 186.148C259.188 186.148 257.734 184.461 257.734 181.82V181.812C257.734 179.211 259.219 177.43 261.508 177.43C263.797 177.43 265.188 179.133 265.188 181.648V182.18H259.125C259.164 183.922 260.125 184.938 261.625 184.938C262.766 184.938 263.469 184.398 263.695 183.891L263.727 183.82H265.086L265.07 183.883C264.781 185.023 263.578 186.148 261.594 186.148ZM261.5 178.641C260.25 178.641 259.297 179.492 259.148 181.094H263.805C263.664 179.43 262.742 178.641 261.5 178.641ZM277.672 188.812V184.734H277.547C277.086 185.625 276.117 186.148 274.914 186.148C272.773 186.148 271.375 184.422 271.375 181.797V181.781C271.375 179.141 272.766 177.43 274.914 177.43C276.047 177.43 277.039 178.023 277.578 178.984H277.672V177.578H279.031V188.812H277.672ZM275.234 184.945C276.75 184.945 277.711 183.727 277.711 181.797V181.781C277.711 179.844 276.75 178.633 275.227 178.633C273.688 178.633 272.766 179.82 272.766 181.781V181.797C272.766 183.758 273.688 184.945 275.234 184.945ZM284.367 186.148C282.453 186.148 281.469 185.023 281.469 183.031V177.578H282.828V182.703C282.828 184.219 283.375 184.945 284.719 184.945C286.203 184.945 286.992 184.039 286.992 182.562V177.578H288.352V186H286.992V184.742H286.867C286.453 185.641 285.602 186.148 284.367 186.148ZM291.609 175.953C291.094 175.953 290.672 175.531 290.672 175.016C290.672 174.5 291.094 174.078 291.609 174.078C292.125 174.078 292.547 174.5 292.547 175.016C292.547 175.531 292.125 175.953 291.609 175.953ZM290.922 186V177.578H292.281V186H290.922ZM294.648 186V185.016L299.508 178.828V178.703H294.656V177.578H301.109V178.586L296.273 184.75V184.875H301.133V186H294.648ZM304.578 186.078C304.023 186.078 303.562 185.617 303.562 185.062C303.562 184.5 304.023 184.047 304.578 184.047C305.141 184.047 305.594 184.5 305.594 185.062C305.594 185.617 305.141 186.078 304.578 186.078Z" fill="black"/>
<g filter="url(#filter0_d_13_3766)">
<rect x="113" y="250" width="199" height="47" rx="15" fill="#FFFFFE"/>
<rect x="113.5" y="250.5" width="198" height="46" rx="14.5" stroke="#486247"/>
</g>
<path d="M198.996 282.308C195.305 282.308 193.072 279.732 193.072 275.663V275.646C193.072 271.567 195.357 269.01 198.996 269.01C202.644 269.01 204.911 271.576 204.911 275.646V275.663C204.911 278.071 204.12 279.961 202.714 281.095L204.384 283.371H202.354L201.281 281.912C200.604 282.176 199.831 282.308 198.996 282.308ZM198.996 280.567C199.409 280.567 199.805 280.506 200.165 280.392L198.53 278.177H200.561L201.571 279.548C202.424 278.695 202.898 277.342 202.898 275.663V275.646C202.898 272.648 201.396 270.75 198.996 270.75C196.597 270.75 195.085 272.648 195.085 275.646V275.663C195.085 278.634 196.553 280.567 198.996 280.567ZM210.545 282.185C208.392 282.185 207.275 280.893 207.275 278.634V272.455H209.183V278.186C209.183 279.768 209.763 280.55 211.16 280.55C212.689 280.55 213.507 279.592 213.507 278.054V272.455H215.405V282H213.507V280.559H213.357C212.9 281.587 211.934 282.185 210.545 282.185ZM219.149 270.75C218.49 270.75 217.954 270.214 217.954 269.563C217.954 268.904 218.49 268.368 219.149 268.368C219.8 268.368 220.345 268.904 220.345 269.563C220.345 270.214 219.8 270.75 219.149 270.75ZM218.191 282V272.455H220.09V282H218.191ZM222.647 282V280.761L227.921 274.107V273.958H222.683V272.455H230.171V273.765L225.012 280.348V280.497H230.224V282H222.647Z" fill="#272827"/>
<g filter="url(#filter1_d_13_3766)">
<rect x="50" y="346" width="328" height="47" rx="15" fill="#486247" fill-opacity="0.24" shape-rendering="crispEdges"/>
<rect x="50.5" y="346.5" width="327" height="46" rx="14.5" stroke="#486247" shape-rendering="crispEdges"/>
</g>
<path d="M186.553 378.308C184.206 378.308 182.835 376.875 182.729 374.854L182.721 374.748H184.663L184.672 374.827C184.751 375.794 185.357 376.55 186.535 376.55C187.836 376.55 188.539 375.768 188.539 374.326V365.317H190.508V374.344C190.508 376.84 189.04 378.308 186.553 378.308ZM197.416 378.185C194.612 378.185 192.898 376.312 192.898 373.236V373.219C192.898 370.151 194.621 368.271 197.416 368.271C200.202 368.271 201.925 370.143 201.925 373.219V373.236C201.925 376.312 200.211 378.185 197.416 378.185ZM197.416 376.594C199.051 376.594 199.982 375.346 199.982 373.236V373.219C199.982 371.101 199.051 369.861 197.416 369.861C195.772 369.861 194.85 371.101 194.85 373.219V373.236C194.85 375.354 195.772 376.594 197.416 376.594ZM207.383 378.185C205.229 378.185 204.113 376.893 204.113 374.634V368.455H206.021V374.186C206.021 375.768 206.601 376.55 207.998 376.55C209.527 376.55 210.345 375.592 210.345 374.054V368.455H212.243V378H210.345V376.559H210.195C209.738 377.587 208.771 378.185 207.383 378.185ZM214.994 378V368.455H216.901V369.896H217.042C217.385 368.886 218.272 368.288 219.547 368.288C219.854 368.288 220.188 368.332 220.382 368.376V370.134C220.039 370.063 219.714 370.02 219.354 370.02C217.895 370.02 216.901 370.916 216.901 372.296V378H214.994ZM222.342 378V368.455H224.249V369.905H224.39C224.855 368.886 225.77 368.271 227.158 368.271C229.294 368.271 230.472 369.545 230.472 371.821V378H228.573V372.27C228.573 370.688 227.914 369.905 226.517 369.905C225.119 369.905 224.249 370.863 224.249 372.401V378H222.342ZM235.754 378.158C233.935 378.158 232.59 377.051 232.59 375.319V375.302C232.59 373.597 233.873 372.604 236.149 372.463L238.733 372.313V371.47C238.733 370.424 238.074 369.844 236.782 369.844C235.728 369.844 235.033 370.23 234.805 370.907L234.796 370.942H232.959L232.968 370.881C233.196 369.316 234.699 368.271 236.87 368.271C239.27 368.271 240.623 369.466 240.623 371.47V378H238.733V376.646H238.584C238.021 377.613 237.02 378.158 235.754 378.158ZM234.488 375.24C234.488 376.119 235.235 376.638 236.264 376.638C237.688 376.638 238.733 375.706 238.733 374.476V373.658L236.404 373.808C235.086 373.887 234.488 374.361 234.488 375.223V375.24ZM243.4 378V364.711H245.308V378H243.4Z" fill="#272827"/>
<g filter="url(#filter2_d_13_3766)">
<rect x="50" y="449" width="328" height="47" rx="15" fill="#486247" fill-opacity="0.24" shape-rendering="crispEdges"/>
<rect x="50.5" y="449.5" width="327" height="46" rx="14.5" stroke="#486247" shape-rendering="crispEdges"/>
</g>
<path d="M184.615 481L189.194 468.317H191.321L195.9 481H193.826L192.684 477.572H187.832L186.681 481H184.615ZM190.179 470.541L188.359 475.99H192.156L190.328 470.541H190.179ZM197.887 481V471.455H199.794V472.896H199.935C200.277 471.886 201.165 471.288 202.439 471.288C202.747 471.288 203.081 471.332 203.274 471.376V473.134C202.932 473.063 202.606 473.02 202.246 473.02C200.787 473.02 199.794 473.916 199.794 475.296V481H197.887ZM208.891 481.062C206.79 481.062 205.929 480.323 205.929 478.486V472.958H204.435V471.455H205.929V469.047H207.871V471.455H209.919V472.958H207.871V478.029C207.871 479.058 208.258 479.479 209.198 479.479C209.488 479.479 209.655 479.471 209.919 479.444V480.965C209.611 481.018 209.26 481.062 208.891 481.062ZM213.136 469.75C212.477 469.75 211.94 469.214 211.94 468.563C211.94 467.904 212.477 467.368 213.136 467.368C213.786 467.368 214.331 467.904 214.331 468.563C214.331 469.214 213.786 469.75 213.136 469.75ZM212.178 481V471.455H214.076V481H212.178ZM220.87 481.185C218.084 481.185 216.379 479.286 216.379 476.201V476.184C216.379 473.16 218.075 471.271 220.861 471.271C223.261 471.271 224.693 472.624 224.957 474.479V474.522L223.129 474.531L223.12 474.505C222.909 473.564 222.136 472.861 220.87 472.861C219.279 472.861 218.321 474.127 218.321 476.184V476.201C218.321 478.311 219.297 479.594 220.87 479.594C222.065 479.594 222.804 479.049 223.111 478.021L223.129 477.977H224.957L224.939 478.056C224.597 479.91 223.234 481.185 220.87 481.185ZM227.207 481V467.711H229.114V481H227.207ZM235.961 481.185C233.166 481.185 231.479 479.277 231.479 476.254V476.245C231.479 473.266 233.201 471.271 235.864 471.271C238.527 471.271 240.162 473.195 240.162 476.061V476.729H233.395C233.43 478.557 234.432 479.62 236.005 479.62C237.227 479.62 237.956 479.014 238.185 478.521L238.22 478.451L240.057 478.442L240.039 478.521C239.723 479.778 238.404 481.185 235.961 481.185ZM235.873 472.835C234.572 472.835 233.588 473.723 233.421 475.366H238.272C238.123 473.661 237.165 472.835 235.873 472.835ZM245.901 481.185C243.599 481.185 242.14 480.104 241.955 478.504V478.495H243.862L243.871 478.504C244.108 479.225 244.803 479.708 245.937 479.708C247.114 479.708 247.932 479.172 247.932 478.39V478.372C247.932 477.774 247.483 477.37 246.376 477.115L244.855 476.764C243.054 476.351 242.219 475.533 242.219 474.136V474.127C242.219 472.466 243.766 471.271 245.928 471.271C248.107 471.271 249.505 472.36 249.672 473.916V473.925H247.853V473.907C247.668 473.239 246.991 472.738 245.919 472.738C244.873 472.738 244.117 473.257 244.117 474.021V474.039C244.117 474.637 244.557 475.006 245.629 475.261L247.141 475.604C248.978 476.034 249.856 476.816 249.856 478.196V478.214C249.856 479.98 248.169 481.185 245.901 481.185Z" fill="#272827"/>
<g filter="url(#filter3_d_13_3766)">
<rect x="50" y="552" width="328" height="47" rx="15" fill="#486247" fill-opacity="0.24" shape-rendering="crispEdges"/>
<rect x="50.5" y="552.5" width="327" height="46" rx="14.5" stroke="#486247" shape-rendering="crispEdges"/>
</g>
<path d="M180.615 584L185.194 571.317H187.321L191.9 584H189.826L188.684 580.572H183.832L182.681 584H180.615ZM186.179 573.541L184.359 578.99H188.156L186.328 573.541H186.179ZM196.84 584.158C194.44 584.158 192.885 582.233 192.885 579.236V579.219C192.885 576.195 194.414 574.288 196.84 574.288C198.149 574.288 199.266 574.938 199.775 575.967H199.925V570.711H201.823V584H199.925V582.497H199.775C199.222 583.543 198.176 584.158 196.84 584.158ZM197.385 582.532C198.976 582.532 199.951 581.275 199.951 579.236V579.219C199.951 577.18 198.967 575.923 197.385 575.923C195.785 575.923 194.827 577.171 194.827 579.219V579.236C194.827 581.284 195.785 582.532 197.385 582.532ZM208.143 584.158C205.743 584.158 204.188 582.233 204.188 579.236V579.219C204.188 576.195 205.717 574.288 208.143 574.288C209.452 574.288 210.568 574.938 211.078 575.967H211.228V570.711H213.126V584H211.228V582.497H211.078C210.524 583.543 209.479 584.158 208.143 584.158ZM208.688 582.532C210.278 582.532 211.254 581.275 211.254 579.236V579.219C211.254 577.18 210.27 575.923 208.688 575.923C207.088 575.923 206.13 577.171 206.13 579.219V579.236C206.13 581.284 207.088 582.532 208.688 582.532ZM215.965 584V574.455H217.872V575.896H218.013C218.355 574.886 219.243 574.288 220.518 574.288C220.825 574.288 221.159 574.332 221.353 574.376V576.134C221.01 576.063 220.685 576.02 220.324 576.02C218.865 576.02 217.872 576.916 217.872 578.296V584H215.965ZM226.934 584.185C224.139 584.185 222.451 582.277 222.451 579.254V579.245C222.451 576.266 224.174 574.271 226.837 574.271C229.5 574.271 231.135 576.195 231.135 579.061V579.729H224.367C224.402 581.557 225.404 582.62 226.978 582.62C228.199 582.62 228.929 582.014 229.157 581.521L229.192 581.451L231.029 581.442L231.012 581.521C230.695 582.778 229.377 584.185 226.934 584.185ZM226.846 575.835C225.545 575.835 224.561 576.723 224.394 578.366H229.245C229.096 576.661 228.138 575.835 226.846 575.835ZM236.874 584.185C234.571 584.185 233.112 583.104 232.928 581.504V581.495H234.835L234.844 581.504C235.081 582.225 235.775 582.708 236.909 582.708C238.087 582.708 238.904 582.172 238.904 581.39V581.372C238.904 580.774 238.456 580.37 237.349 580.115L235.828 579.764C234.026 579.351 233.191 578.533 233.191 577.136V577.127C233.191 575.466 234.738 574.271 236.9 574.271C239.08 574.271 240.478 575.36 240.645 576.916V576.925H238.825V576.907C238.641 576.239 237.964 575.738 236.892 575.738C235.846 575.738 235.09 576.257 235.09 577.021V577.039C235.09 577.637 235.529 578.006 236.602 578.261L238.113 578.604C239.95 579.034 240.829 579.816 240.829 581.196V581.214C240.829 582.98 239.142 584.185 236.874 584.185ZM246.401 584.185C244.099 584.185 242.64 583.104 242.455 581.504V581.495H244.362L244.371 581.504C244.608 582.225 245.303 582.708 246.437 582.708C247.614 582.708 248.432 582.172 248.432 581.39V581.372C248.432 580.774 247.983 580.37 246.876 580.115L245.355 579.764C243.554 579.351 242.719 578.533 242.719 577.136V577.127C242.719 575.466 244.266 574.271 246.428 574.271C248.607 574.271 250.005 575.36 250.172 576.916V576.925H248.353V576.907C248.168 576.239 247.491 575.738 246.419 575.738C245.373 575.738 244.617 576.257 244.617 577.021V577.039C244.617 577.637 245.057 578.006 246.129 578.261L247.641 578.604C249.478 579.034 250.356 579.816 250.356 581.196V581.214C250.356 582.98 248.669 584.185 246.401 584.185Z" fill="#272827"/>
<g filter="url(#filter4_d_13_3766)">
<path d="M50 670C50 661.716 56.7157 655 65 655H363C371.284 655 378 661.716 378 670V687C378 695.284 371.284 702 363 702H65C56.7157 702 50 695.284 50 687V670Z" fill="#486247" fill-opacity="0.24" shape-rendering="crispEdges"/>
<path d="M50.5 670C50.5 661.992 56.9919 655.5 65 655.5H363C371.008 655.5 377.5 661.992 377.5 670V687C377.5 695.008 371.008 701.5 363 701.5H65C56.9919 701.5 50.5 695.008 50.5 687V670Z" stroke="#486247" shape-rendering="crispEdges"/>
</g>
<path d="M184.591 687V674.317H186.56V679.679H193.072V674.317H195.032V687H193.072V681.384H186.56V687H184.591ZM202.037 687.185C199.233 687.185 197.52 685.312 197.52 682.236V682.219C197.52 679.151 199.242 677.271 202.037 677.271C204.823 677.271 206.546 679.143 206.546 682.219V682.236C206.546 685.312 204.832 687.185 202.037 687.185ZM202.037 685.594C203.672 685.594 204.604 684.346 204.604 682.236V682.219C204.604 680.101 203.672 678.861 202.037 678.861C200.394 678.861 199.471 680.101 199.471 682.219V682.236C199.471 684.354 200.394 685.594 202.037 685.594ZM212.426 687.062C210.325 687.062 209.464 686.323 209.464 684.486V678.958H207.97V677.455H209.464V675.047H211.406V677.455H213.454V678.958H211.406V684.029C211.406 685.058 211.793 685.479 212.733 685.479C213.023 685.479 213.19 685.471 213.454 685.444V686.965C213.146 687.018 212.795 687.062 212.426 687.062ZM215.766 687V673.711H217.673V687H215.766ZM221.505 675.75C220.846 675.75 220.31 675.214 220.31 674.563C220.31 673.904 220.846 673.368 221.505 673.368C222.155 673.368 222.7 673.904 222.7 674.563C222.7 675.214 222.155 675.75 221.505 675.75ZM220.547 687V677.455H222.445V687H220.547ZM225.223 687V677.455H227.13V678.905H227.271C227.736 677.886 228.65 677.271 230.039 677.271C232.175 677.271 233.353 678.545 233.353 680.821V687H231.454V681.27C231.454 679.688 230.795 678.905 229.397 678.905C228 678.905 227.13 679.863 227.13 681.401V687H225.223ZM240.023 687.185C237.229 687.185 235.541 685.277 235.541 682.254V682.245C235.541 679.266 237.264 677.271 239.927 677.271C242.59 677.271 244.225 679.195 244.225 682.061V682.729H237.457C237.492 684.557 238.494 685.62 240.067 685.62C241.289 685.62 242.019 685.014 242.247 684.521L242.282 684.451L244.119 684.442L244.102 684.521C243.785 685.778 242.467 687.185 240.023 687.185ZM239.936 678.835C238.635 678.835 237.65 679.723 237.483 681.366H242.335C242.186 679.661 241.228 678.835 239.936 678.835ZM249.964 687.185C247.661 687.185 246.202 686.104 246.018 684.504V684.495H247.925L247.934 684.504C248.171 685.225 248.865 685.708 249.999 685.708C251.177 685.708 251.994 685.172 251.994 684.39V684.372C251.994 683.774 251.546 683.37 250.438 683.115L248.918 682.764C247.116 682.351 246.281 681.533 246.281 680.136V680.127C246.281 678.466 247.828 677.271 249.99 677.271C252.17 677.271 253.567 678.36 253.734 679.916V679.925H251.915V679.907C251.73 679.239 251.054 678.738 249.981 678.738C248.936 678.738 248.18 679.257 248.18 680.021V680.039C248.18 680.637 248.619 681.006 249.691 681.261L251.203 681.604C253.04 682.034 253.919 682.816 253.919 684.196V684.214C253.919 685.98 252.231 687.185 249.964 687.185Z" fill="#272827"/>
<g filter="url(#filter5_d_13_3766)">
<rect x="14" y="858" width="400" height="38" rx="15" fill="white"/>
<rect x="14.5" y="858.5" width="399" height="37" rx="14.5" stroke="#486247"/>
</g>
<path fill-rule="evenodd" clip-rule="evenodd" d="M138.65 870.263L139.463 870.364C141.341 870.598 142.75 872.194 142.75 874.085V884.575C142.75 886.412 141.382 887.961 139.559 888.188C136.531 888.565 133.469 888.565 130.441 888.188C128.618 887.961 127.25 886.412 127.25 884.575V874.085C127.25 872.194 128.659 870.598 130.537 870.364L131.35 870.263C131.672 869.102 132.737 868.25 134 868.25H136C137.263 868.25 138.328 869.102 138.65 870.263ZM131.25 871.787L130.722 871.853C129.596 871.993 128.75 872.95 128.75 874.085V884.575C128.75 885.655 129.555 886.566 130.626 886.7C133.531 887.061 136.469 887.061 139.374 886.7C140.445 886.566 141.25 885.655 141.25 884.575V874.085C141.25 872.95 140.404 871.993 139.278 871.853L138.75 871.787V873C138.75 873.414 138.414 873.75 138 873.75H132C131.586 873.75 131.25 873.414 131.25 873V871.787ZM132.75 871C132.75 870.31 133.31 869.75 134 869.75H136C136.69 869.75 137.25 870.31 137.25 871V872.25H132.75V871Z" fill="#486247"/>
<path fill-rule="evenodd" clip-rule="evenodd" d="M287 868.25C287.414 868.25 287.75 868.586 287.75 869V870.668C290.578 870.416 293.422 870.416 296.25 870.668V869C296.25 868.586 296.586 868.25 297 868.25C297.414 868.25 297.75 868.586 297.75 869V870.816C299.243 871.028 300.423 872.208 300.622 873.715L300.709 874.368C301.073 877.114 301.041 879.898 300.615 882.636C300.404 883.992 299.303 885.033 297.937 885.168L296.744 885.286C293.589 885.597 290.411 885.597 287.256 885.286L286.063 885.168C284.697 885.033 283.596 883.992 283.385 882.636C282.959 879.898 282.927 877.114 283.291 874.368L283.378 873.715C283.577 872.208 284.757 871.028 286.25 870.816V869C286.25 868.586 286.586 868.25 287 868.25ZM287.445 872.203C290.474 871.904 293.526 871.904 296.555 872.203L297.46 872.292C298.327 872.378 299.021 873.049 299.135 873.912L299.222 874.565C299.252 874.793 299.279 875.021 299.304 875.25H284.696C284.721 875.021 284.748 874.793 284.778 874.565L284.865 873.912C284.979 873.049 285.673 872.378 286.54 872.292L287.445 872.203ZM284.577 876.75C284.479 878.638 284.575 880.533 284.867 882.405C284.973 883.085 285.525 883.608 286.21 883.675L287.403 883.793C290.46 884.095 293.54 884.095 296.597 883.793L297.79 883.675C298.475 883.608 299.027 883.085 299.133 882.405C299.425 880.533 299.521 878.638 299.423 876.75H284.577Z" fill="#486247"/>
<path d="M367 874.5C366.31 874.5 365.75 875.06 365.75 875.75C365.75 876.441 366.31 877 367 877C367.69 877 368.25 876.441 368.25 875.75C368.25 875.06 367.69 874.5 367 874.5Z" fill="#486247"/>
<path d="M371 874.5C370.31 874.5 369.75 875.06 369.75 875.75C369.75 876.441 370.31 877 371 877C371.69 877 372.25 876.441 372.25 875.75C372.25 875.06 371.69 874.5 371 874.5Z" fill="#486247"/>
<path d="M373.75 875.75C373.75 875.06 374.31 874.5 375 874.5C375.69 874.5 376.25 875.06 376.25 875.75C376.25 876.441 375.69 877 375 877C374.31 877 373.75 876.441 373.75 875.75Z" fill="#486247"/>
<path fill-rule="evenodd" clip-rule="evenodd" d="M375.101 869.593C372.407 869.363 369.698 869.35 367.002 869.553L366.809 869.568C364.237 869.762 362.25 871.904 362.25 874.483V883C362.25 883.264 362.389 883.509 362.615 883.644C362.842 883.779 363.123 883.786 363.355 883.661L367.266 881.559C367.448 881.461 367.651 881.41 367.858 881.41H376.834C377.966 881.41 378.936 880.601 379.139 879.487C379.55 877.23 379.583 874.92 379.235 872.652L379.133 871.984C378.946 870.767 377.951 869.836 376.724 869.732L375.101 869.593ZM367.115 871.049C369.731 870.852 372.359 870.865 374.973 871.088L376.597 871.226C377.133 871.272 377.569 871.679 377.65 872.211L377.753 872.879C378.075 874.983 378.045 877.125 377.663 879.218C377.59 879.619 377.241 879.91 376.834 879.91H367.858C367.403 879.91 366.956 880.023 366.556 880.238L363.75 881.746V874.483C363.75 872.689 365.133 871.198 366.921 871.064L367.115 871.049Z" fill="#486247"/>
<path fill-rule="evenodd" clip-rule="evenodd" d="M215.558 870.535C214.687 869.699 213.313 869.699 212.442 870.535L207.816 874.974C207.702 875.083 207.626 875.225 207.598 875.379C207.044 878.401 207.003 881.495 207.477 884.53L207.589 885.25H210.566V879.039C210.566 878.625 210.902 878.289 211.316 878.289H216.684C217.098 878.289 217.434 878.625 217.434 879.039V885.25H220.411L220.523 884.53C220.997 881.495 220.956 878.401 220.402 875.379C220.374 875.225 220.298 875.083 220.184 874.974L215.558 870.535ZM211.404 869.452C212.855 868.06 215.145 868.06 216.596 869.452L221.223 873.892C221.563 874.219 221.793 874.644 221.878 875.108C222.462 878.296 222.505 881.559 222.005 884.761L221.825 885.919C221.75 886.398 221.337 886.75 220.853 886.75H216.684C216.27 886.75 215.934 886.415 215.934 886V879.789H212.066V886C212.066 886.415 211.73 886.75 211.316 886.75H207.147C206.663 886.75 206.25 886.398 206.176 885.919L205.995 884.761C205.495 881.559 205.538 878.296 206.122 875.108C206.208 874.644 206.437 874.219 206.777 873.892L211.404 869.452Z" fill="#486247"/>
<rect x="39" y="861" width="35" height="32" rx="6" fill="#486247"/>
<path fill-rule="evenodd" clip-rule="evenodd" d="M52.75 873.5C52.75 871.153 54.6528 869.25 57 869.25C59.3472 869.25 61.25 871.153 61.25 873.5C61.25 875.847 59.3472 877.75 57 877.75C54.6528 877.75 52.75 875.847 52.75 873.5ZM57 870.75C55.4812 870.75 54.25 871.981 54.25 873.5C54.25 875.019 55.4812 876.25 57 876.25C58.5188 876.25 59.75 875.019 59.75 873.5C59.75 871.981 58.5188 870.75 57 870.75Z" fill="white"/>
<path fill-rule="evenodd" clip-rule="evenodd" d="M53 880.75C51.7574 880.75 50.75 881.757 50.75 883V884.188C50.75 884.206 50.7631 884.222 50.781 884.225C54.8997 884.897 59.1003 884.897 63.219 884.225C63.2369 884.222 63.25 884.206 63.25 884.188V883C63.25 881.757 62.2426 880.75 61 880.75H60.6591C60.6328 880.75 60.6066 880.754 60.5815 880.762L59.716 881.045C57.9512 881.621 56.0488 881.621 54.284 881.045L53.4185 880.762C53.3934 880.754 53.3672 880.75 53.3409 880.75H53ZM49.25 883C49.25 880.929 50.9289 879.25 53 879.25H53.3409C53.5254 879.25 53.7087 879.279 53.8841 879.336L54.7496 879.619C56.2119 880.097 57.7881 880.097 59.2504 879.619L60.1159 879.336C60.2913 879.279 60.4746 879.25 60.6591 879.25H61C63.0711 879.25 64.75 880.929 64.75 883V884.188C64.75 884.942 64.2041 885.584 63.4607 885.705C59.1819 886.404 54.8181 886.404 50.5393 885.705C49.7959 885.584 49.25 884.942 49.25 884.188V883Z" fill="white"/>
<defs>
<filter id="filter0_d_13_3766" x="104" y="243" width="217" height="65" filterUnits="userSpaceOnUse" color-interpolation-filters="sRGB">
<feFlood flood-opacity="0" result="BackgroundImageFix"/>
<feColorMatrix in="SourceAlpha" type="matrix" values="0 0 0 0 0 0 0 0 0 0 0 0 0 0 0 0 0 0 127 0" result="hardAlpha"/>
<feOffset dy="2"/>
<feGaussianBlur stdDeviation="4.5"/>
<feComposite in2="hardAlpha" operator="out"/>
<feColorMatrix type="matrix" values="0 0 0 0 0 0 0 0 0 0 0 0 0 0 0 0 0 0 0.25 0"/>
<feBlend mode="normal" in2="BackgroundImageFix" result="effect1_dropShadow_13_3766"/>
<feBlend mode="normal" in="SourceGraphic" in2="effect1_dropShadow_13_3766" result="shape"/>
</filter>
<filter id="filter1_d_13_3766" x="41" y="339" width="346" height="65" filterUnits="userSpaceOnUse" color-interpolation-filters="sRGB">
<feFlood flood-opacity="0" result="BackgroundImageFix"/>
<feColorMatrix in="SourceAlpha" type="matrix" values="0 0 0 0 0 0 0 0 0 0 0 0 0 0 0 0 0 0 127 0" result="hardAlpha"/>
<feOffset dy="2"/>
<feGaussianBlur stdDeviation="4.5"/>
<feComposite in2="hardAlpha" operator="out"/>
<feColorMatrix type="matrix" values="0 0 0 0 0 0 0 0 0 0 0 0 0 0 0 0 0 0 0.25 0"/>
<feBlend mode="normal" in2="BackgroundImageFix" result="effect1_dropShadow_13_3766"/>
<feBlend mode="normal" in="SourceGraphic" in2="effect1_dropShadow_13_3766" result="shape"/>
</filter>
<filter id="filter2_d_13_3766" x="41" y="442" width="346" height="65" filterUnits="userSpaceOnUse" color-interpolation-filters="sRGB">
<feFlood flood-opacity="0" result="BackgroundImageFix"/>
<feColorMatrix in="SourceAlpha" type="matrix" values="0 0 0 0 0 0 0 0 0 0 0 0 0 0 0 0 0 0 127 0" result="hardAlpha"/>
<feOffset dy="2"/>
<feGaussianBlur stdDeviation="4.5"/>
<feComposite in2="hardAlpha" operator="out"/>
<feColorMatrix type="matrix" values="0 0 0 0 0 0 0 0 0 0 0 0 0 0 0 0 0 0 0.25 0"/>
<feBlend mode="normal" in2="BackgroundImageFix" result="effect1_dropShadow_13_3766"/>
<feBlend mode="normal" in="SourceGraphic" in2="effect1_dropShadow_13_3766" result="shape"/>
</filter>
<filter id="filter3_d_13_3766" x="41" y="545" width="346" height="65" filterUnits="userSpaceOnUse" color-interpolation-filters="sRGB">
<feFlood flood-opacity="0" result="BackgroundImageFix"/>
<feColorMatrix in="SourceAlpha" type="matrix" values="0 0 0 0 0 0 0 0 0 0 0 0 0 0 0 0 0 0 127 0" result="hardAlpha"/>
<feOffset dy="2"/>
<feGaussianBlur stdDeviation="4.5"/>
<feComposite in2="hardAlpha" operator="out"/>
<feColorMatrix type="matrix" values="0 0 0 0 0 0 0 0 0 0 0 0 0 0 0 0 0 0 0.25 0"/>
<feBlend mode="normal" in2="BackgroundImageFix" result="effect1_dropShadow_13_3766"/>
<feBlend mode="normal" in="SourceGraphic" in2="effect1_dropShadow_13_3766" result="shape"/>
</filter>
<filter id="filter4_d_13_3766" x="41" y="648" width="346" height="65" filterUnits="userSpaceOnUse" color-interpolation-filters="sRGB">
<feFlood flood-opacity="0" result="BackgroundImageFix"/>
<feColorMatrix in="SourceAlpha" type="matrix" values="0 0 0 0 0 0 0 0 0 0 0 0 0 0 0 0 0 0 127 0" result="hardAlpha"/>
<feOffset dy="2"/>
<feGaussianBlur stdDeviation="4.5"/>
<feComposite in2="hardAlpha" operator="out"/>
<feColorMatrix type="matrix" values="0 0 0 0 0 0 0 0 0 0 0 0 0 0 0 0 0 0 0.25 0"/>
<feBlend mode="normal" in2="BackgroundImageFix" result="effect1_dropShadow_13_3766"/>
<feBlend mode="normal" in="SourceGraphic" in2="effect1_dropShadow_13_3766" result="shape"/>
</filter>
<filter id="filter5_d_13_3766" x="5" y="851" width="418" height="56" filterUnits="userSpaceOnUse" color-interpolation-filters="sRGB">
<feFlood flood-opacity="0" result="BackgroundImageFix"/>
<feColorMatrix in="SourceAlpha" type="matrix" values="0 0 0 0 0 0 0 0 0 0 0 0 0 0 0 0 0 0 127 0" result="hardAlpha"/>
<feOffset dy="2"/>
<feGaussianBlur stdDeviation="4.5"/>
<feComposite in2="hardAlpha" operator="out"/>
<feColorMatrix type="matrix" values="0 0 0 0 0 0 0 0 0 0 0 0 0 0 0 0 0 0 0.25 0"/>
<feBlend mode="normal" in2="BackgroundImageFix" result="effect1_dropShadow_13_3766"/>
<feBlend mode="normal" in="SourceGraphic" in2="effect1_dropShadow_13_3766" result="shape"/>
</filter>
</defs>
</svg>
