<svg width="428" height="926" viewBox="0 0 428 926" fill="none" xmlns="http://www.w3.org/2000/svg">
<g clip-path="url(#clip0_13_3853)">
<rect width="428" height="926" rx="35" fill="#FFFFFE"/>
<g filter="url(#filter0_d_13_3853)">
<rect x="50" y="185" width="346" height="328" rx="15" fill="white"/>
<rect x="50.5" y="185.5" width="345" height="327" rx="14.5" stroke="#486247"/>
<path d="M68.793 221.107C68.0732 221.107 67.6973 220.667 67.6973 219.808V207.776C67.6973 206.788 68.2236 206.208 69.0938 206.208C69.8564 206.208 70.2861 206.552 70.7373 207.712L74.626 217.122H74.7119L78.5898 207.701C79.041 206.541 79.4492 206.208 80.2441 206.208C81.1143 206.208 81.6191 206.777 81.6191 207.776V219.808C81.6191 220.656 81.2324 221.107 80.502 221.107C79.793 221.107 79.4277 220.667 79.4277 219.808V210.795H79.3311L76.0654 218.626C75.668 219.582 75.2812 219.883 74.6689 219.883C74.0459 219.883 73.6484 219.571 73.2617 218.626L69.9961 210.795H69.8994V219.808C69.8994 220.656 69.5127 221.107 68.793 221.107ZM91.0723 219.528C90.4492 220.581 89.3105 221.161 87.9033 221.161C85.6904 221.161 84.1973 219.765 84.1973 217.702C84.1973 215.607 85.7227 214.329 88.2578 214.318H91.0938V213.309C91.0938 212.03 90.3096 211.364 88.8594 211.364C87.957 211.364 87.334 211.687 86.6787 212.353C86.3887 212.632 86.1094 212.739 85.7012 212.739C85.1748 212.739 84.8311 212.385 84.8311 211.869C84.8311 211.214 85.2822 210.569 86.2383 210.054C86.9258 209.678 87.8281 209.474 89.0098 209.474C91.8779 209.474 93.4785 210.849 93.4785 213.319V219.818C93.4785 220.635 93.0596 221.107 92.3184 221.107C91.6631 221.107 91.2441 220.71 91.1904 220.033V219.528H91.0723ZM86.5928 217.584C86.5928 218.637 87.4199 219.346 88.6445 219.346C90.0303 219.346 91.0938 218.4 91.0938 217.176V215.951H88.5908C87.3232 215.951 86.5928 216.542 86.5928 217.584ZM95.5732 223.997C95.5732 223.503 95.9492 223.17 96.5186 223.17C96.7119 223.17 96.916 223.213 97.1953 223.213C97.8828 223.213 98.4844 222.654 98.7422 221.784C98.7637 221.752 98.9033 221.204 98.9033 221.15L95.4229 211.45C95.3262 211.16 95.2832 210.924 95.2832 210.73C95.2832 210.086 95.7881 209.603 96.4756 209.603C97.0986 209.603 97.5068 209.979 97.7217 210.763L100.192 218.884H100.289L102.781 210.763C102.996 209.979 103.394 209.603 104.006 209.603C104.661 209.603 105.155 210.075 105.155 210.72C105.155 210.913 105.102 211.139 104.994 211.45L101.396 221.634C100.536 224.083 99.3115 225.071 97.2598 225.071C96.626 225.071 96.1211 224.921 95.8418 224.642C95.6699 224.47 95.5732 224.255 95.5732 223.997ZM111.354 219.84C111.354 219.367 111.601 218.97 112.374 218.143L116.596 213.459C117.788 212.148 118.261 211.289 118.261 210.344C118.261 208.979 117.283 208.066 115.822 208.066C114.598 208.066 113.685 208.786 113.319 210.032C113.062 210.645 112.718 210.935 112.213 210.935C111.59 210.935 111.16 210.483 111.16 209.817C111.16 207.938 113.094 206.047 115.962 206.047C118.701 206.047 120.667 207.755 120.667 210.15C120.667 211.59 120.055 212.718 118.175 214.77L114.512 218.83V218.97H119.969C120.678 218.97 121.129 219.356 121.129 219.99C121.129 220.613 120.699 221 119.969 221H112.793C111.923 221 111.354 220.549 111.354 219.84ZM122.944 213.996V213.373C122.944 208.958 124.953 206.047 128.369 206.047C131.785 206.047 133.772 208.937 133.772 213.373V213.996C133.772 218.411 131.742 221.312 128.337 221.312C124.932 221.312 122.944 218.433 122.944 213.996ZM125.383 213.384V213.975C125.383 217.283 126.511 219.281 128.358 219.281C130.195 219.281 131.334 217.283 131.334 213.975V213.384C131.334 210.075 130.195 208.066 128.348 208.066C126.511 208.066 125.383 210.075 125.383 213.384ZM136.061 219.84C136.061 219.367 136.308 218.97 137.081 218.143L141.303 213.459C142.495 212.148 142.968 211.289 142.968 210.344C142.968 208.979 141.99 208.066 140.529 208.066C139.305 208.066 138.392 208.786 138.026 210.032C137.769 210.645 137.425 210.935 136.92 210.935C136.297 210.935 135.867 210.483 135.867 209.817C135.867 207.938 137.801 206.047 140.669 206.047C143.408 206.047 145.374 207.755 145.374 210.15C145.374 211.59 144.762 212.718 142.882 214.77L139.219 218.83V218.97H144.676C145.385 218.97 145.836 219.356 145.836 219.99C145.836 220.613 145.406 221 144.676 221H137.5C136.63 221 136.061 220.549 136.061 219.84ZM148.156 219.84C148.156 219.367 148.403 218.97 149.177 218.143L153.398 213.459C154.591 212.148 155.063 211.289 155.063 210.344C155.063 208.979 154.086 208.066 152.625 208.066C151.4 208.066 150.487 208.786 150.122 210.032C149.864 210.645 149.521 210.935 149.016 210.935C148.393 210.935 147.963 210.483 147.963 209.817C147.963 207.938 149.896 206.047 152.765 206.047C155.504 206.047 157.47 207.755 157.47 210.15C157.47 211.59 156.857 212.718 154.978 214.77L151.314 218.83V218.97H156.771C157.48 218.97 157.932 219.356 157.932 219.99C157.932 220.613 157.502 221 156.771 221H149.596C148.726 221 148.156 220.549 148.156 219.84Z" fill="#272827"/>
<path d="M333 204.5L325 212.5L333 220.5" stroke="#272827" stroke-width="2" stroke-linecap="round" stroke-linejoin="round"/>
<path d="M364 204.5L372 212.5L364 220.5" stroke="#272827" stroke-width="2" stroke-linecap="round" stroke-linejoin="round"/>
<rect width="313" height="18" transform="translate(66.5 240)" fill="white"/>
<path d="M70.0067 252.072C70.0067 251.73 70.2186 251.498 70.5262 251.498C70.8065 251.498 70.9979 251.642 71.2577 252.031C71.7362 252.776 72.454 253.132 73.4657 253.132C74.7509 253.132 75.5301 252.564 75.5301 251.607C75.5301 250.821 75.038 250.322 73.9921 250.042L72.4198 249.618C70.9227 249.215 70.1708 248.395 70.1708 247.157C70.1708 245.551 71.4628 244.471 73.3768 244.471C74.3475 244.471 75.2157 244.758 75.8036 245.277C76.2616 245.688 76.5145 246.166 76.5145 246.617C76.5145 246.945 76.3094 247.164 75.995 247.164C75.7216 247.164 75.5438 247.041 75.4276 246.768C75.12 246.009 74.3544 245.537 73.4042 245.537C72.1942 245.537 71.4149 246.139 71.4149 247.068C71.4149 247.766 71.8798 248.265 72.7548 248.497L74.3065 248.921C75.9813 249.372 76.7264 250.158 76.7264 251.478C76.7264 253.152 75.4413 254.198 73.3905 254.198C72.2899 254.198 71.3329 253.897 70.7518 253.371C70.2596 252.927 70.0067 252.482 70.0067 252.072ZM85.3301 250.767C85.3301 252.817 83.9082 254.198 81.7891 254.198C79.5537 254.198 78.2549 252.804 78.2549 250.739V245.257C78.2549 244.854 78.4805 244.601 78.8496 244.601C79.2188 244.601 79.4512 244.854 79.4512 245.257V250.739C79.4512 252.202 80.3604 253.125 81.7891 253.125C83.2246 253.125 84.1338 252.195 84.1338 250.739V245.257C84.1338 244.854 84.3594 244.601 84.7285 244.601C85.0977 244.601 85.3301 244.854 85.3301 245.257V250.767ZM88.5675 253.412C88.5675 253.815 88.3556 254.068 87.9933 254.068C87.6241 254.068 87.4191 253.815 87.4191 253.412V245.387C87.4191 244.881 87.6447 244.601 88.0958 244.601C88.4513 244.601 88.6632 244.867 88.9435 245.298L93.2159 251.956H93.2775V245.257C93.2775 244.854 93.4825 244.601 93.8517 244.601C94.214 244.601 94.4327 244.854 94.4327 245.257V253.289C94.4327 253.795 94.2072 254.068 93.7765 254.068C93.4279 254.068 93.2433 253.918 92.9357 253.439L88.6222 246.706H88.5675V253.412Z" fill="#949494"/>
<path d="M115.206 254.068C114.844 254.068 114.666 253.85 114.666 253.412V245.353C114.666 244.86 114.912 244.58 115.315 244.58C115.684 244.58 115.855 244.73 116.108 245.346L118.911 251.997H118.952L121.755 245.346C122.008 244.73 122.172 244.58 122.548 244.58C122.958 244.58 123.197 244.86 123.197 245.353V253.412C123.197 253.85 123.013 254.068 122.65 254.068C122.295 254.068 122.11 253.85 122.11 253.412V247.15H122.056L119.745 252.564C119.506 253.118 119.294 253.303 118.932 253.303C118.576 253.303 118.357 253.118 118.125 252.564L115.807 247.15H115.753V253.412C115.753 253.85 115.568 254.068 115.206 254.068ZM125.033 250.069V248.695C125.033 246.091 126.469 244.471 128.766 244.471C131.076 244.471 132.498 246.091 132.498 248.695V250.069C132.498 252.633 131.076 254.198 128.766 254.198C126.421 254.198 125.033 252.633 125.033 250.069ZM126.229 248.695V250.069C126.229 251.977 127.2 253.132 128.766 253.132C130.324 253.132 131.302 251.977 131.302 250.069V248.695C131.302 246.747 130.324 245.544 128.766 245.544C127.2 245.544 126.229 246.747 126.229 248.695ZM135.476 253.412C135.476 253.815 135.264 254.068 134.901 254.068C134.532 254.068 134.327 253.815 134.327 253.412V245.387C134.327 244.881 134.553 244.601 135.004 244.601C135.36 244.601 135.571 244.867 135.852 245.298L140.124 251.956H140.186V245.257C140.186 244.854 140.391 244.601 140.76 244.601C141.122 244.601 141.341 244.854 141.341 245.257V253.289C141.341 253.795 141.115 254.068 140.685 254.068C140.336 254.068 140.151 253.918 139.844 253.439L135.53 246.706H135.476V253.412Z" fill="#949494"/>
<path d="M165.136 254.068C164.766 254.068 164.541 253.815 164.541 253.412V245.735H162.251C161.875 245.735 161.636 245.537 161.636 245.209C161.636 244.881 161.875 244.669 162.251 244.669H168.034C168.403 244.669 168.642 244.881 168.642 245.209C168.642 245.537 168.403 245.735 168.034 245.735H165.737V253.412C165.737 253.815 165.505 254.068 165.136 254.068ZM176.979 250.767C176.979 252.817 175.558 254.198 173.438 254.198C171.203 254.198 169.904 252.804 169.904 250.739V245.257C169.904 244.854 170.13 244.601 170.499 244.601C170.868 244.601 171.101 244.854 171.101 245.257V250.739C171.101 252.202 172.01 253.125 173.438 253.125C174.874 253.125 175.783 252.195 175.783 250.739V245.257C175.783 244.854 176.009 244.601 176.378 244.601C176.747 244.601 176.979 244.854 176.979 245.257V250.767ZM179.041 252.988V245.681C179.041 244.956 179.356 244.669 180.142 244.669H184.107C184.476 244.669 184.715 244.874 184.715 245.202C184.715 245.53 184.476 245.735 184.107 245.735H180.231V248.716H183.867C184.236 248.716 184.469 248.914 184.469 249.242C184.469 249.57 184.236 249.762 183.867 249.762H180.231V252.934H184.107C184.476 252.934 184.715 253.146 184.715 253.474C184.715 253.802 184.476 254 184.1 254H180.142C179.356 254 179.041 253.713 179.041 252.988Z" fill="#949494"/>
<path d="M209.155 253.269L207.05 245.64C207.016 245.496 206.988 245.312 206.988 245.216C206.988 244.84 207.262 244.566 207.638 244.566C207.966 244.566 208.198 244.819 208.307 245.298L209.9 252.161H209.962L211.637 245.318C211.766 244.819 211.999 244.566 212.409 244.566C212.833 244.566 213.058 244.819 213.188 245.318L214.856 252.161H214.925L216.511 245.298C216.62 244.819 216.852 244.566 217.181 244.566C217.557 244.566 217.83 244.84 217.83 245.209C217.83 245.312 217.809 245.496 217.775 245.633L215.67 253.269C215.506 253.85 215.335 254.021 214.952 254.021C214.556 254.021 214.344 253.809 214.2 253.262L212.443 246.59H212.382L210.625 253.269C210.481 253.809 210.269 254.021 209.88 254.021C209.49 254.021 209.319 253.856 209.155 253.269ZM219.167 252.988V245.681C219.167 244.956 219.481 244.669 220.268 244.669H224.232C224.602 244.669 224.841 244.874 224.841 245.202C224.841 245.53 224.602 245.735 224.232 245.735H220.356V248.716H223.993C224.362 248.716 224.595 248.914 224.595 249.242C224.595 249.57 224.362 249.762 223.993 249.762H220.356V252.934H224.232C224.602 252.934 224.841 253.146 224.841 253.474C224.841 253.802 224.602 254 224.226 254H220.268C219.481 254 219.167 253.713 219.167 252.988ZM226.595 252.988V245.681C226.595 244.956 226.909 244.669 227.695 244.669H229.589C232.282 244.669 233.684 246.262 233.684 249.338C233.684 252.407 232.282 254 229.589 254H227.695C226.909 254 226.595 253.713 226.595 252.988ZM227.791 252.934H229.534C231.503 252.934 232.467 251.751 232.467 249.338C232.467 246.918 231.496 245.729 229.534 245.729H227.791V252.934Z" fill="#949494"/>
<path d="M258.356 254.068C257.987 254.068 257.762 253.815 257.762 253.412V245.735H255.472C255.096 245.735 254.856 245.537 254.856 245.209C254.856 244.881 255.096 244.669 255.472 244.669H261.255C261.624 244.669 261.863 244.881 261.863 245.209C261.863 245.537 261.624 245.735 261.255 245.735H258.958V253.412C258.958 253.815 258.725 254.068 258.356 254.068ZM269.462 254.068C269.093 254.068 268.867 253.815 268.867 253.412V249.707H264.171V253.412C264.171 253.815 263.938 254.068 263.569 254.068C263.2 254.068 262.975 253.815 262.975 253.412V245.257C262.975 244.854 263.2 244.601 263.569 244.601C263.938 244.601 264.171 244.854 264.171 245.257V248.641H268.867V245.257C268.867 244.854 269.093 244.601 269.462 244.601C269.831 244.601 270.063 244.854 270.063 245.257V253.412C270.063 253.815 269.831 254.068 269.462 254.068ZM279.187 250.767C279.187 252.817 277.765 254.198 275.646 254.198C273.41 254.198 272.111 252.804 272.111 250.739V245.257C272.111 244.854 272.337 244.601 272.706 244.601C273.075 244.601 273.308 244.854 273.308 245.257V250.739C273.308 252.202 274.217 253.125 275.646 253.125C277.081 253.125 277.99 252.195 277.99 250.739V245.257C277.99 244.854 278.216 244.601 278.585 244.601C278.954 244.601 279.187 244.854 279.187 245.257V250.767Z" fill="#949494"/>
<path d="M306.908 254.068C306.539 254.068 306.313 253.815 306.313 253.412V245.681C306.313 244.956 306.628 244.669 307.414 244.669H311.29C311.659 244.669 311.898 244.881 311.898 245.209C311.898 245.537 311.659 245.735 311.29 245.735H307.51V248.907H310.934C311.31 248.907 311.55 249.112 311.55 249.44C311.55 249.769 311.31 249.974 310.934 249.974H307.51V253.412C307.51 253.815 307.277 254.068 306.908 254.068ZM314.466 253.412C314.466 253.815 314.24 254.068 313.871 254.068C313.495 254.068 313.276 253.815 313.276 253.412V245.715C313.276 244.963 313.591 244.669 314.397 244.669H316.653C318.492 244.669 319.647 245.749 319.647 247.458C319.647 248.668 318.984 249.646 317.918 250.028L319.497 253.029C319.559 253.159 319.606 253.344 319.606 253.494C319.606 253.795 319.347 254.021 319.025 254.021C318.725 254.021 318.547 253.877 318.342 253.474L316.735 250.288H314.466V253.412ZM314.466 249.249H316.455C317.733 249.249 318.424 248.647 318.424 247.52C318.424 246.385 317.713 245.729 316.503 245.729H314.466V249.249ZM322.092 254.068C321.723 254.068 321.497 253.815 321.497 253.412V245.257C321.497 244.854 321.723 244.601 322.092 244.601C322.461 244.601 322.693 244.854 322.693 245.257V253.412C322.693 253.815 322.461 254.068 322.092 254.068Z" fill="#949494"/>
<path d="M350.839 252.072C350.839 251.73 351.051 251.498 351.358 251.498C351.639 251.498 351.83 251.642 352.09 252.031C352.568 252.776 353.286 253.132 354.298 253.132C355.583 253.132 356.362 252.564 356.362 251.607C356.362 250.821 355.87 250.322 354.824 250.042L353.252 249.618C351.755 249.215 351.003 248.395 351.003 247.157C351.003 245.551 352.295 244.471 354.209 244.471C355.18 244.471 356.048 244.758 356.636 245.277C357.094 245.688 357.347 246.166 357.347 246.617C357.347 246.945 357.141 247.164 356.827 247.164C356.554 247.164 356.376 247.041 356.26 246.768C355.952 246.009 355.186 245.537 354.236 245.537C353.026 245.537 352.247 246.139 352.247 247.068C352.247 247.766 352.712 248.265 353.587 248.497L355.139 248.921C356.813 249.372 357.558 250.158 357.558 251.478C357.558 253.152 356.273 254.198 354.223 254.198C353.122 254.198 352.165 253.897 351.584 253.371C351.092 252.927 350.839 252.482 350.839 252.072ZM358.998 254.089C358.656 254.089 358.431 253.891 358.431 253.576C358.431 253.439 358.465 253.31 358.52 253.146L361.329 245.291C361.5 244.812 361.739 244.594 362.177 244.594C362.614 244.594 362.854 244.812 363.024 245.291L365.834 253.146C365.889 253.296 365.923 253.439 365.923 253.569C365.923 253.891 365.697 254.089 365.349 254.089C365.021 254.089 364.836 253.932 364.706 253.528L363.92 251.197H360.427L359.641 253.528C359.511 253.938 359.326 254.089 358.998 254.089ZM360.748 250.233H363.599L362.197 246.077H362.149L360.748 250.233ZM369.174 254.068C368.805 254.068 368.579 253.815 368.579 253.412V245.735H366.289C365.913 245.735 365.674 245.537 365.674 245.209C365.674 244.881 365.913 244.669 366.289 244.669H372.072C372.442 244.669 372.681 244.881 372.681 245.209C372.681 245.537 372.442 245.735 372.072 245.735H369.776V253.412C369.776 253.815 369.543 254.068 369.174 254.068Z" fill="#949494"/>
<rect x="113" y="273" width="32" height="32" rx="3" fill="#DE6B5E" fill-opacity="0.44"/>
<path d="M129.803 296V283.773H129.764L126.033 286.371V284.604L129.783 281.908H131.502V296H129.803Z" fill="#020202"/>
<path d="M171.479 296V294.789L176.439 289.613C178.344 287.631 178.783 286.869 178.783 285.697V285.678C178.773 284.242 177.689 283.207 176.156 283.207C174.398 283.207 173.09 284.418 173.09 285.932V285.98H171.391V285.922C171.391 283.48 173.5 281.674 176.127 281.674C178.676 281.674 180.541 283.383 180.541 285.59V285.609C180.541 287.152 179.828 288.314 177.24 290.961L173.891 294.398V294.438H180.775V296H171.479Z" fill="#020202"/>
<path d="M222.971 296.234C220.061 296.234 218.176 294.613 217.99 292.387L217.98 292.27H219.67L219.68 292.367C219.826 293.754 221.096 294.711 222.971 294.711C224.816 294.711 226.076 293.676 226.076 292.182V292.162C226.076 290.434 224.836 289.467 222.863 289.467H221.096V287.982H222.785C224.465 287.982 225.637 286.947 225.637 285.541V285.521C225.637 284.047 224.67 283.197 222.951 283.197C221.291 283.197 220.109 284.076 219.963 285.502L219.953 285.6H218.264L218.273 285.502C218.498 283.207 220.314 281.674 222.951 281.674C225.637 281.674 227.404 283.168 227.404 285.307V285.326C227.404 287.064 226.174 288.256 224.416 288.627V288.666C226.467 288.842 227.863 290.121 227.863 292.123V292.143C227.863 294.496 225.793 296.234 222.971 296.234Z" fill="#020202"/>
<path d="M272.297 296V293.07H265.217V291.479L271.398 281.908H273.996V291.527H275.988V293.07H273.996V296H272.297ZM266.955 291.527H272.297V283.412H272.238L266.955 291.488V291.527Z" fill="#020202"/>
<path d="M317.137 296.234C314.441 296.234 312.518 294.555 312.312 292.26L312.303 292.152H314.031L314.041 292.23C314.217 293.627 315.467 294.691 317.156 294.691C319.07 294.691 320.398 293.363 320.398 291.469V291.449C320.389 289.594 319.051 288.266 317.186 288.266C316.229 288.266 315.408 288.549 314.783 289.115C314.529 289.35 314.305 289.623 314.119 289.945H312.566L313.289 281.908H321.355V283.471H314.734L314.256 288.207H314.295C314.959 287.26 316.131 286.752 317.498 286.752C320.203 286.752 322.156 288.715 322.156 291.42V291.439C322.146 294.262 320.066 296.234 317.137 296.234Z" fill="#020202"/>
<path d="M364.568 296.234C361.971 296.234 359.217 294.438 359.217 289.213V289.193C359.217 284.447 361.238 281.674 364.686 281.674C367.078 281.674 368.865 283.041 369.334 285.092L369.363 285.219H367.576L367.537 285.111C367.117 283.949 366.111 283.227 364.666 283.227C362.039 283.227 361.004 285.775 360.926 288.734C360.916 288.832 360.916 288.93 360.916 289.037H360.955C361.521 287.787 362.967 286.771 364.881 286.771C367.566 286.771 369.559 288.754 369.559 291.43V291.449C369.559 294.223 367.449 296.234 364.568 296.234ZM361.336 291.43C361.336 293.236 362.742 294.672 364.549 294.672C366.346 294.672 367.771 293.266 367.771 291.488V291.469C367.771 289.633 366.434 288.314 364.578 288.314C362.732 288.314 361.336 289.623 361.336 291.42V291.43Z" fill="#020202"/>
<path d="M78.9844 344L85.3613 331.51V331.471H77.7734V329.908H87.0996V331.539L80.8301 344H78.9844Z" fill="#020202"/>
<path d="M129 344.234C126.012 344.234 123.883 342.555 123.883 340.191V340.172C123.883 338.434 125.104 336.988 126.91 336.568V336.529C125.367 336.051 124.391 334.879 124.391 333.395V333.375C124.391 331.246 126.334 329.674 129 329.674C131.666 329.674 133.609 331.246 133.609 333.375V333.395C133.609 334.879 132.633 336.051 131.09 336.529V336.568C132.896 336.988 134.117 338.434 134.117 340.172V340.191C134.117 342.555 131.988 344.234 129 344.234ZM129 335.875C130.699 335.875 131.861 334.908 131.861 333.541V333.521C131.861 332.154 130.699 331.188 129 331.188C127.301 331.188 126.139 332.154 126.139 333.521V333.541C126.139 334.908 127.301 335.875 129 335.875ZM129 342.701C130.943 342.701 132.33 341.607 132.33 340.084V340.064C132.33 338.521 130.953 337.418 129 337.418C127.047 337.418 125.67 338.521 125.67 340.064V340.084C125.67 341.607 127.057 342.701 129 342.701Z" fill="#020202"/>
<path d="M176.432 329.674C179.029 329.674 181.783 331.471 181.783 336.695V336.715C181.783 341.461 179.762 344.234 176.314 344.234C173.922 344.234 172.135 342.867 171.666 340.816L171.637 340.689H173.424L173.463 340.797C173.883 341.959 174.889 342.682 176.334 342.682C178.961 342.682 179.996 340.133 180.074 337.174C180.084 337.076 180.084 336.979 180.084 336.871H180.045C179.479 338.121 178.033 339.137 176.119 339.137C173.434 339.137 171.441 337.154 171.441 334.479V334.459C171.441 331.686 173.551 329.674 176.432 329.674ZM176.422 337.594C178.268 337.594 179.664 336.285 179.664 334.488V334.479C179.664 332.672 178.258 331.236 176.451 331.236C174.654 331.236 173.229 332.643 173.229 334.42V334.439C173.229 336.275 174.566 337.594 176.422 337.594Z" fill="#020202"/>
<path d="M217.738 344V331.773H217.699L213.969 334.371V332.604L217.719 329.908H219.438V344H217.738ZM227.924 344.234C224.682 344.234 222.758 341.432 222.758 336.959V336.939C222.758 332.467 224.682 329.674 227.924 329.674C231.166 329.674 233.109 332.467 233.109 336.939V336.959C233.109 341.432 231.166 344.234 227.924 344.234ZM227.924 342.701C230.072 342.701 231.342 340.494 231.342 336.959V336.939C231.342 333.404 230.072 331.217 227.924 331.217C225.775 331.217 224.525 333.404 224.525 336.939V336.959C224.525 340.494 225.775 342.701 227.924 342.701Z" fill="#272827"/>
<mask id="path-26-inside-1_13_3853" fill="white">
<path d="M265.869 344V331.773H265.83L262.1 334.371V332.604L265.85 329.908H267.568V344H265.869ZM274.736 344V331.773H274.697L270.967 334.371V332.604L274.717 329.908H276.436V344H274.736Z"/>
</mask>
<path d="M265.869 344V331.773H265.83L262.1 334.371V332.604L265.85 329.908H267.568V344H265.869ZM274.736 344V331.773H274.697L270.967 334.371V332.604L274.717 329.908H276.436V344H274.736Z" fill="#020202"/>
<path d="M265.869 344H264.869V345H265.869V344ZM265.869 331.773H266.869V330.773H265.869V331.773ZM265.83 331.773V330.773H265.516L265.259 330.953L265.83 331.773ZM262.1 334.371H261.1V336.286L262.671 335.192L262.1 334.371ZM262.1 332.604L261.516 331.792L261.1 332.091V332.604H262.1ZM265.85 329.908V328.908H265.528L265.266 329.096L265.85 329.908ZM267.568 329.908H268.568V328.908H267.568V329.908ZM267.568 344V345H268.568V344H267.568ZM266.869 344V331.773H264.869V344H266.869ZM265.869 330.773H265.83V332.773H265.869V330.773ZM265.259 330.953L261.528 333.55L262.671 335.192L266.402 332.594L265.259 330.953ZM263.1 334.371V332.604H261.1V334.371H263.1ZM262.683 333.416L266.433 330.72L265.266 329.096L261.516 331.792L262.683 333.416ZM265.85 330.908H267.568V328.908H265.85V330.908ZM266.568 329.908V344H268.568V329.908H266.568ZM267.568 343H265.869V345H267.568V343ZM274.736 344H273.736V345H274.736V344ZM274.736 331.773H275.736V330.773H274.736V331.773ZM274.697 331.773V330.773H274.383L274.126 330.953L274.697 331.773ZM270.967 334.371H269.967V336.286L271.538 335.192L270.967 334.371ZM270.967 332.604L270.383 331.792L269.967 332.091V332.604H270.967ZM274.717 329.908V328.908H274.395L274.133 329.096L274.717 329.908ZM276.436 329.908H277.436V328.908H276.436V329.908ZM276.436 344V345H277.436V344H276.436ZM275.736 344V331.773H273.736V344H275.736ZM274.736 330.773H274.697V332.773H274.736V330.773ZM274.126 330.953L270.395 333.55L271.538 335.192L275.269 332.594L274.126 330.953ZM271.967 334.371V332.604H269.967V334.371H271.967ZM271.55 333.416L275.3 330.72L274.133 329.096L270.383 331.792L271.55 333.416ZM274.717 330.908H276.436V328.908H274.717V330.908ZM275.436 329.908V344H277.436V329.908H275.436ZM276.436 343H274.736V345H276.436V343Z" fill="#272827" mask="url(#path-26-inside-1_13_3853)"/>
<path d="M312.139 344V331.773H312.1L308.369 334.371V332.604L312.119 329.908H313.838V344H312.139ZM317.412 344V342.789L322.373 337.613C324.277 335.631 324.717 334.869 324.717 333.697V333.678C324.707 332.242 323.623 331.207 322.09 331.207C320.332 331.207 319.023 332.418 319.023 333.932V333.98H317.324V333.922C317.324 331.48 319.434 329.674 322.061 329.674C324.609 329.674 326.475 331.383 326.475 333.59V333.609C326.475 335.152 325.762 336.314 323.174 338.961L319.824 342.398V342.438H326.709V344H317.412Z" fill="#020202"/>
<path d="M358.885 344V331.773H358.846L355.115 334.371V332.604L358.865 329.908H360.584V344H358.885ZM368.904 344.234C365.994 344.234 364.109 342.613 363.924 340.387L363.914 340.27H365.604L365.613 340.367C365.76 341.754 367.029 342.711 368.904 342.711C370.75 342.711 372.01 341.676 372.01 340.182V340.162C372.01 338.434 370.77 337.467 368.797 337.467H367.029V335.982H368.719C370.398 335.982 371.57 334.947 371.57 333.541V333.521C371.57 332.047 370.604 331.197 368.885 331.197C367.225 331.197 366.043 332.076 365.896 333.502L365.887 333.6H364.197L364.207 333.502C364.432 331.207 366.248 329.674 368.885 329.674C371.57 329.674 373.338 331.168 373.338 333.307V333.326C373.338 335.064 372.107 336.256 370.35 336.627V336.666C372.4 336.842 373.797 338.121 373.797 340.123V340.143C373.797 342.496 371.727 344.234 368.904 344.234Z" fill="#020202"/>
<path d="M76.7578 392V379.773H76.7188L72.9883 382.371V380.604L76.7383 377.908H78.457V392H76.7578ZM88.7305 392V389.07H81.6504V387.479L87.832 377.908H90.4297V387.527H92.4219V389.07H90.4297V392H88.7305ZM83.3887 387.527H88.7305V379.412H88.6719L83.3887 387.488V387.527Z" fill="#020202"/>
<path d="M123.953 392V379.773H123.914L120.184 382.371V380.604L123.934 377.908H125.652V392H123.953ZM134.07 392.234C131.375 392.234 129.451 390.555 129.246 388.26L129.236 388.152H130.965L130.975 388.23C131.15 389.627 132.4 390.691 134.09 390.691C136.004 390.691 137.332 389.363 137.332 387.469V387.449C137.322 385.594 135.984 384.266 134.119 384.266C133.162 384.266 132.342 384.549 131.717 385.115C131.463 385.35 131.238 385.623 131.053 385.945H129.5L130.223 377.908H138.289V379.471H131.668L131.189 384.207H131.229C131.893 383.26 133.064 382.752 134.432 382.752C137.137 382.752 139.09 384.715 139.09 387.42V387.439C139.08 390.262 137 392.234 134.07 392.234Z" fill="#020202"/>
<path d="M170.131 392V379.773H170.092L166.361 382.371V380.604L170.111 377.908H171.83V392H170.131ZM180.502 392.234C177.904 392.234 175.15 390.438 175.15 385.213V385.193C175.15 380.447 177.172 377.674 180.619 377.674C183.012 377.674 184.799 379.041 185.268 381.092L185.297 381.219H183.51L183.471 381.111C183.051 379.949 182.045 379.227 180.6 379.227C177.973 379.227 176.938 381.775 176.859 384.734C176.85 384.832 176.85 384.93 176.85 385.037H176.889C177.455 383.787 178.9 382.771 180.814 382.771C183.5 382.771 185.492 384.754 185.492 387.43V387.449C185.492 390.223 183.383 392.234 180.502 392.234ZM177.27 387.43C177.27 389.236 178.676 390.672 180.482 390.672C182.279 390.672 183.705 389.266 183.705 387.488V387.469C183.705 385.633 182.367 384.314 180.512 384.314C178.666 384.314 177.27 385.623 177.27 387.42V387.43Z" fill="#020202"/>
<rect width="32" height="32" transform="translate(207 369)" fill="white"/>
<path d="M217.834 392V379.773H217.795L214.064 382.371V380.604L217.814 377.908H219.533V392H217.834ZM223.918 392L230.295 379.51V379.471H222.707V377.908H232.033V379.539L225.764 392H223.918Z" fill="#020202"/>
<path d="M264.807 392V379.773H264.768L261.037 382.371V380.604L264.787 377.908H266.506V392H264.807ZM274.934 392.234C271.945 392.234 269.816 390.555 269.816 388.191V388.172C269.816 386.434 271.037 384.988 272.844 384.568V384.529C271.301 384.051 270.324 382.879 270.324 381.395V381.375C270.324 379.246 272.268 377.674 274.934 377.674C277.6 377.674 279.543 379.246 279.543 381.375V381.395C279.543 382.879 278.566 384.051 277.023 384.529V384.568C278.83 384.988 280.051 386.434 280.051 388.172V388.191C280.051 390.555 277.922 392.234 274.934 392.234ZM274.934 383.875C276.633 383.875 277.795 382.908 277.795 381.541V381.521C277.795 380.154 276.633 379.188 274.934 379.188C273.234 379.188 272.072 380.154 272.072 381.521V381.541C272.072 382.908 273.234 383.875 274.934 383.875ZM274.934 390.701C276.877 390.701 278.264 389.607 278.264 388.084V388.064C278.264 386.521 276.887 385.418 274.934 385.418C272.98 385.418 271.604 386.521 271.604 388.064V388.084C271.604 389.607 272.99 390.701 274.934 390.701Z" fill="#020202"/>
<path d="M311.131 392V379.773H311.092L307.361 382.371V380.604L311.111 377.908H312.83V392H311.131ZM321.365 377.674C323.963 377.674 326.717 379.471 326.717 384.695V384.715C326.717 389.461 324.695 392.234 321.248 392.234C318.855 392.234 317.068 390.867 316.6 388.816L316.57 388.689H318.357L318.396 388.797C318.816 389.959 319.822 390.682 321.268 390.682C323.895 390.682 324.93 388.133 325.008 385.174C325.018 385.076 325.018 384.979 325.018 384.871H324.979C324.412 386.121 322.967 387.137 321.053 387.137C318.367 387.137 316.375 385.154 316.375 382.479V382.459C316.375 379.686 318.484 377.674 321.365 377.674ZM321.355 385.594C323.201 385.594 324.598 384.285 324.598 382.488V382.479C324.598 380.672 323.191 379.236 321.385 379.236C319.588 379.236 318.162 380.643 318.162 382.42V382.439C318.162 384.275 319.5 385.594 321.355 385.594Z" fill="#020202"/>
<path d="M353.414 392V390.789L358.375 385.613C360.279 383.631 360.719 382.869 360.719 381.697V381.678C360.709 380.242 359.625 379.207 358.092 379.207C356.334 379.207 355.025 380.418 355.025 381.932V381.98H353.326V381.922C353.326 379.48 355.436 377.674 358.062 377.674C360.611 377.674 362.477 379.383 362.477 381.59V381.609C362.477 383.152 361.764 384.314 359.176 386.961L355.826 390.398V390.438H362.711V392H353.414ZM369.654 392.234C366.412 392.234 364.488 389.432 364.488 384.959V384.939C364.488 380.467 366.412 377.674 369.654 377.674C372.896 377.674 374.84 380.467 374.84 384.939V384.959C374.84 389.432 372.896 392.234 369.654 392.234ZM369.654 390.701C371.803 390.701 373.072 388.494 373.072 384.959V384.939C373.072 381.404 371.803 379.217 369.654 379.217C367.506 379.217 366.256 381.404 366.256 384.939V384.959C366.256 388.494 367.506 390.701 369.654 390.701Z" fill="#020202"/>
<path d="M73.5449 440V438.789L78.5059 433.613C80.4102 431.631 80.8496 430.869 80.8496 429.697V429.678C80.8398 428.242 79.7559 427.207 78.2227 427.207C76.4648 427.207 75.1562 428.418 75.1562 429.932V429.98H73.457V429.922C73.457 427.48 75.5664 425.674 78.1934 425.674C80.7422 425.674 82.6074 427.383 82.6074 429.59V429.609C82.6074 431.152 81.8945 432.314 79.3066 434.961L75.957 438.398V438.438H82.8418V440H73.5449ZM88.4668 440V427.773H88.4277L84.6973 430.371V428.604L88.4473 425.908H90.166V440H88.4668Z" fill="#020202"/>
<path d="M119.314 440V438.789L124.275 433.613C126.18 431.631 126.619 430.869 126.619 429.697V429.678C126.609 428.242 125.525 427.207 123.992 427.207C122.234 427.207 120.926 428.418 120.926 429.932V429.98H119.227V429.922C119.227 427.48 121.336 425.674 123.963 425.674C126.512 425.674 128.377 427.383 128.377 429.59V429.609C128.377 431.152 127.664 432.314 125.076 434.961L121.727 438.398V438.438H128.611V440H119.314ZM130.643 440V438.789L135.604 433.613C137.508 431.631 137.947 430.869 137.947 429.697V429.678C137.938 428.242 136.854 427.207 135.32 427.207C133.562 427.207 132.254 428.418 132.254 429.932V429.98H130.555V429.922C130.555 427.48 132.664 425.674 135.291 425.674C137.84 425.674 139.705 427.383 139.705 429.59V429.609C139.705 431.152 138.992 432.314 136.404 434.961L133.055 438.398V438.438H139.939V440H130.643Z" fill="#020202"/>
<path d="M165.561 440V438.789L170.521 433.613C172.426 431.631 172.865 430.869 172.865 429.697V429.678C172.855 428.242 171.771 427.207 170.238 427.207C168.48 427.207 167.172 428.418 167.172 429.932V429.98H165.473V429.922C165.473 427.48 167.582 425.674 170.209 425.674C172.758 425.674 174.623 427.383 174.623 429.59V429.609C174.623 431.152 173.91 432.314 171.322 434.961L167.973 438.398V438.438H174.857V440H165.561ZM181.635 440.234C178.725 440.234 176.84 438.613 176.654 436.387L176.645 436.27H178.334L178.344 436.367C178.49 437.754 179.76 438.711 181.635 438.711C183.48 438.711 184.74 437.676 184.74 436.182V436.162C184.74 434.434 183.5 433.467 181.527 433.467H179.76V431.982H181.449C183.129 431.982 184.301 430.947 184.301 429.541V429.521C184.301 428.047 183.334 427.197 181.615 427.197C179.955 427.197 178.773 428.076 178.627 429.502L178.617 429.6H176.928L176.938 429.502C177.162 427.207 178.979 425.674 181.615 425.674C184.301 425.674 186.068 427.168 186.068 429.307V429.326C186.068 431.064 184.838 432.256 183.08 432.627V432.666C185.131 432.842 186.527 434.121 186.527 436.123V436.143C186.527 438.496 184.457 440.234 181.635 440.234Z" fill="#020202"/>
<path d="M213.178 440V438.789L218.139 433.613C220.043 431.631 220.482 430.869 220.482 429.697V429.678C220.473 428.242 219.389 427.207 217.855 427.207C216.098 427.207 214.789 428.418 214.789 429.932V429.98H213.09V429.922C213.09 427.48 215.199 425.674 217.826 425.674C220.375 425.674 222.24 427.383 222.24 429.59V429.609C222.24 431.152 221.527 432.314 218.939 434.961L215.59 438.398V438.438H222.475V440H213.178ZM230.717 440V437.07H223.637V435.479L229.818 425.908H232.416V435.527H234.408V437.07H232.416V440H230.717ZM225.375 435.527H230.717V427.412H230.658L225.375 435.488V435.527Z" fill="#020202"/>
<rect x="254" y="417" width="32" height="32" rx="3" fill="#486247" fill-opacity="0.25"/>
<path d="M259.629 440V438.789L264.59 433.613C266.494 431.631 266.934 430.869 266.934 429.697V429.678C266.924 428.242 265.84 427.207 264.307 427.207C262.549 427.207 261.24 428.418 261.24 429.932V429.98H259.541V429.922C259.541 427.48 261.65 425.674 264.277 425.674C266.826 425.674 268.691 427.383 268.691 429.59V429.609C268.691 431.152 267.979 432.314 265.391 434.961L262.041 438.398V438.438H268.926V440H259.629ZM275.801 440.234C273.105 440.234 271.182 438.555 270.977 436.26L270.967 436.152H272.695L272.705 436.23C272.881 437.627 274.131 438.691 275.82 438.691C277.734 438.691 279.062 437.363 279.062 435.469V435.449C279.053 433.594 277.715 432.266 275.85 432.266C274.893 432.266 274.072 432.549 273.447 433.115C273.193 433.35 272.969 433.623 272.783 433.945H271.23L271.953 425.908H280.02V427.471H273.398L272.92 432.207H272.959C273.623 431.26 274.795 430.752 276.162 430.752C278.867 430.752 280.82 432.715 280.82 435.42V435.439C280.811 438.262 278.73 440.234 275.801 440.234Z" fill="#020202"/>
<path d="M306.307 440V438.789L311.268 433.613C313.172 431.631 313.611 430.869 313.611 429.697V429.678C313.602 428.242 312.518 427.207 310.984 427.207C309.227 427.207 307.918 428.418 307.918 429.932V429.98H306.219V429.922C306.219 427.48 308.328 425.674 310.955 425.674C313.504 425.674 315.369 427.383 315.369 429.59V429.609C315.369 431.152 314.656 432.314 312.068 434.961L308.719 438.398V438.438H315.604V440H306.307ZM322.732 440.234C320.135 440.234 317.381 438.438 317.381 433.213V433.193C317.381 428.447 319.402 425.674 322.85 425.674C325.242 425.674 327.029 427.041 327.498 429.092L327.527 429.219H325.74L325.701 429.111C325.281 427.949 324.275 427.227 322.83 427.227C320.203 427.227 319.168 429.775 319.09 432.734C319.08 432.832 319.08 432.93 319.08 433.037H319.119C319.686 431.787 321.131 430.771 323.045 430.771C325.73 430.771 327.723 432.754 327.723 435.43V435.449C327.723 438.223 325.613 440.234 322.732 440.234ZM319.5 435.43C319.5 437.236 320.906 438.672 322.713 438.672C324.51 438.672 325.936 437.266 325.936 435.488V435.469C325.936 433.633 324.598 432.314 322.742 432.314C320.896 432.314 319.5 433.623 319.5 435.42V435.43Z" fill="#020202"/>
<path d="M354.51 440V438.789L359.471 433.613C361.375 431.631 361.814 430.869 361.814 429.697V429.678C361.805 428.242 360.721 427.207 359.188 427.207C357.43 427.207 356.121 428.418 356.121 429.932V429.98H354.422V429.922C354.422 427.48 356.531 425.674 359.158 425.674C361.707 425.674 363.572 427.383 363.572 429.59V429.609C363.572 431.152 362.859 432.314 360.271 434.961L356.922 438.398V438.438H363.807V440H354.51ZM366.648 440L373.025 427.51V427.471H365.438V425.908H374.764V427.539L368.494 440H366.648Z" fill="#020202"/>
<path d="M71.4824 488V486.789L76.4434 481.613C78.3477 479.631 78.7871 478.869 78.7871 477.697V477.678C78.7773 476.242 77.6934 475.207 76.1602 475.207C74.4023 475.207 73.0938 476.418 73.0938 477.932V477.98H71.3945V477.922C71.3945 475.48 73.5039 473.674 76.1309 473.674C78.6797 473.674 80.5449 475.383 80.5449 477.59V477.609C80.5449 479.152 79.832 480.314 77.2441 482.961L73.8945 486.398V486.438H80.7793V488H71.4824ZM87.6641 488.234C84.6758 488.234 82.5469 486.555 82.5469 484.191V484.172C82.5469 482.434 83.7676 480.988 85.5742 480.568V480.529C84.0312 480.051 83.0547 478.879 83.0547 477.395V477.375C83.0547 475.246 84.998 473.674 87.6641 473.674C90.3301 473.674 92.2734 475.246 92.2734 477.375V477.395C92.2734 478.879 91.2969 480.051 89.7539 480.529V480.568C91.5605 480.988 92.7812 482.434 92.7812 484.172V484.191C92.7812 486.555 90.6523 488.234 87.6641 488.234ZM87.6641 479.875C89.3633 479.875 90.5254 478.908 90.5254 477.541V477.521C90.5254 476.154 89.3633 475.188 87.6641 475.188C85.9648 475.188 84.8027 476.154 84.8027 477.521V477.541C84.8027 478.908 85.9648 479.875 87.6641 479.875ZM87.6641 486.701C89.6074 486.701 90.9941 485.607 90.9941 484.084V484.064C90.9941 482.521 89.6172 481.418 87.6641 481.418C85.7109 481.418 84.334 482.521 84.334 484.064V484.084C84.334 485.607 85.7207 486.701 87.6641 486.701Z" fill="#020202"/>
<path d="M118.307 488V486.789L123.268 481.613C125.172 479.631 125.611 478.869 125.611 477.697V477.678C125.602 476.242 124.518 475.207 122.984 475.207C121.227 475.207 119.918 476.418 119.918 477.932V477.98H118.219V477.922C118.219 475.48 120.328 473.674 122.955 473.674C125.504 473.674 127.369 475.383 127.369 477.59V477.609C127.369 479.152 126.656 480.314 124.068 482.961L120.719 486.398V486.438H127.604V488H118.307ZM134.596 473.674C137.193 473.674 139.947 475.471 139.947 480.695V480.715C139.947 485.461 137.926 488.234 134.479 488.234C132.086 488.234 130.299 486.867 129.83 484.816L129.801 484.689H131.588L131.627 484.797C132.047 485.959 133.053 486.682 134.498 486.682C137.125 486.682 138.16 484.133 138.238 481.174C138.248 481.076 138.248 480.979 138.248 480.871H138.209C137.643 482.121 136.197 483.137 134.283 483.137C131.598 483.137 129.605 481.154 129.605 478.479V478.459C129.605 475.686 131.715 473.674 134.596 473.674ZM134.586 481.594C136.432 481.594 137.828 480.285 137.828 478.488V478.479C137.828 476.672 136.422 475.236 134.615 475.236C132.818 475.236 131.393 476.643 131.393 478.42V478.439C131.393 480.275 132.73 481.594 134.586 481.594Z" fill="#020202"/>
<path d="M169.906 488.234C166.996 488.234 165.111 486.613 164.926 484.387L164.916 484.27H166.605L166.615 484.367C166.762 485.754 168.031 486.711 169.906 486.711C171.752 486.711 173.012 485.676 173.012 484.182V484.162C173.012 482.434 171.771 481.467 169.799 481.467H168.031V479.982H169.721C171.4 479.982 172.572 478.947 172.572 477.541V477.521C172.572 476.047 171.605 475.197 169.887 475.197C168.227 475.197 167.045 476.076 166.898 477.502L166.889 477.6H165.199L165.209 477.502C165.434 475.207 167.25 473.674 169.887 473.674C172.572 473.674 174.34 475.168 174.34 477.307V477.326C174.34 479.064 173.109 480.256 171.352 480.627V480.666C173.402 480.842 174.799 482.121 174.799 484.123V484.143C174.799 486.496 172.729 488.234 169.906 488.234ZM181.908 488.234C178.666 488.234 176.742 485.432 176.742 480.959V480.939C176.742 476.467 178.666 473.674 181.908 473.674C185.15 473.674 187.094 476.467 187.094 480.939V480.959C187.094 485.432 185.15 488.234 181.908 488.234ZM181.908 486.701C184.057 486.701 185.326 484.494 185.326 480.959V480.939C185.326 477.404 184.057 475.217 181.908 475.217C179.76 475.217 178.51 477.404 178.51 480.939V480.959C178.51 484.494 179.76 486.701 181.908 486.701Z" fill="#020202"/>
</g>
<g filter="url(#filter1_d_13_3853)">
<rect x="50" y="579" width="328" height="53" rx="15" fill="#FFFFFE"/>
<rect x="50.5" y="579.5" width="327" height="52" rx="14.5" stroke="#486247"/>
</g>
<g filter="url(#filter2_d_13_3853)">
<rect x="50" y="656" width="328" height="53" rx="15" fill="#FFFFFE"/>
<rect x="50.5" y="656.5" width="327" height="52" rx="14.5" stroke="#486247"/>
</g>
<path d="M179.227 613.273C176.68 613.273 175.047 611.984 174.891 610.086L174.883 609.984H176.602L176.609 610.07C176.703 611.094 177.789 611.75 179.297 611.75C180.734 611.75 181.758 611.031 181.758 609.984V609.977C181.758 609.109 181.148 608.547 179.656 608.227L178.422 607.961C176.133 607.477 175.148 606.414 175.148 604.75V604.742C175.156 602.797 176.844 601.453 179.234 601.453C181.625 601.453 183.188 602.805 183.312 604.555L183.32 604.664H181.625L181.609 604.562C181.461 603.641 180.578 602.969 179.211 602.977C177.891 602.977 176.914 603.594 176.914 604.656V604.664C176.914 605.5 177.508 606.047 178.969 606.359L180.195 606.633C182.562 607.141 183.531 608.094 183.531 609.766V609.773C183.531 611.93 181.852 613.273 179.227 613.273ZM188.883 613.164C186.399 613.164 184.899 611.469 184.899 608.781V608.773C184.899 606.125 186.43 604.352 188.797 604.352C191.164 604.352 192.618 606.062 192.618 608.609V609.203H186.602C186.633 610.828 187.524 611.773 188.922 611.773C190.008 611.773 190.657 611.234 190.86 610.797L190.891 610.734L192.524 610.727L192.508 610.797C192.227 611.914 191.055 613.164 188.883 613.164ZM188.805 605.742C187.649 605.742 186.774 606.531 186.625 607.992H190.938C190.805 606.477 189.953 605.742 188.805 605.742ZM194.391 613V601.188H196.087V613H194.391ZM201.853 613.164C199.368 613.164 197.868 611.469 197.868 608.781V608.773C197.868 606.125 199.399 604.352 201.767 604.352C204.134 604.352 205.587 606.062 205.587 608.609V609.203H199.571C199.603 610.828 200.493 611.773 201.892 611.773C202.978 611.773 203.626 611.234 203.829 610.797L203.86 610.734L205.493 610.727L205.478 610.797C205.196 611.914 204.024 613.164 201.853 613.164ZM201.774 605.742C200.618 605.742 199.743 606.531 199.595 607.992H203.907C203.774 606.477 202.923 605.742 201.774 605.742ZM210.853 613.164C208.376 613.164 206.861 611.477 206.861 608.734V608.719C206.861 606.031 208.368 604.352 210.845 604.352C212.978 604.352 214.251 605.555 214.486 607.203V607.242L212.861 607.25L212.853 607.227C212.665 606.391 211.978 605.766 210.853 605.766C209.439 605.766 208.587 606.891 208.587 608.719V608.734C208.587 610.609 209.454 611.75 210.853 611.75C211.915 611.75 212.572 611.266 212.845 610.352L212.861 610.312H214.486L214.47 610.383C214.165 612.031 212.954 613.164 210.853 613.164ZM219.416 613.055C217.548 613.055 216.783 612.398 216.783 610.766V605.852H215.455V604.516H216.783V602.375H218.509V604.516H220.33V605.852H218.509V610.359C218.509 611.273 218.853 611.648 219.689 611.648C219.947 611.648 220.095 611.641 220.33 611.617V612.969C220.056 613.016 219.744 613.055 219.416 613.055ZM226.237 613V601.727H230.307C233.651 601.727 235.612 603.789 235.612 607.328V607.344C235.612 610.922 233.666 613 230.307 613H226.237ZM227.987 611.492H230.112C232.471 611.492 233.83 609.984 233.83 607.367V607.352C233.83 604.758 232.447 603.234 230.112 603.234H227.987V611.492ZM239.768 613.141C238.151 613.141 236.956 612.156 236.956 610.617V610.602C236.956 609.086 238.096 608.203 240.12 608.078L242.417 607.945V607.195C242.417 606.266 241.831 605.75 240.682 605.75C239.745 605.75 239.127 606.094 238.924 606.695L238.917 606.727H237.284L237.292 606.672C237.495 605.281 238.831 604.352 240.76 604.352C242.893 604.352 244.096 605.414 244.096 607.195V613H242.417V611.797H242.284C241.784 612.656 240.893 613.141 239.768 613.141ZM238.643 610.547C238.643 611.328 239.307 611.789 240.221 611.789C241.487 611.789 242.417 610.961 242.417 609.867V609.141L240.346 609.273C239.174 609.344 238.643 609.766 238.643 610.531V610.547ZM246.714 615.984C246.503 615.984 246.253 615.969 246.034 615.945V614.609C246.198 614.633 246.409 614.641 246.604 614.641C247.393 614.641 247.87 614.305 248.12 613.445L248.245 613.008L245.167 604.516H246.995L249.12 611.297H249.268L251.386 604.516H253.167L250.011 613.328C249.292 615.352 248.433 615.984 246.714 615.984Z" fill="#486247"/>
<path d="M174.227 690.273C176.852 690.273 178.531 688.93 178.531 686.773V686.766C178.531 685.094 177.562 684.141 175.195 683.633L173.969 683.359C172.508 683.047 171.914 682.5 171.914 681.664V681.656C171.914 680.594 172.891 679.977 174.211 679.977C175.578 679.969 176.461 680.641 176.609 681.562L176.625 681.664H178.32L178.312 681.555C178.188 679.805 176.625 678.453 174.234 678.453C171.844 678.453 170.156 679.797 170.148 681.742V681.75C170.148 683.414 171.133 684.477 173.422 684.961L174.656 685.227C176.148 685.547 176.758 686.109 176.758 686.977V686.984C176.758 688.031 175.734 688.75 174.297 688.75C172.789 688.75 171.703 688.094 171.609 687.07L171.602 686.984H169.883L169.891 687.086C170.047 688.984 171.68 690.273 174.227 690.273ZM183.883 690.164C186.055 690.164 187.227 688.914 187.508 687.797L187.524 687.727L185.891 687.734L185.86 687.797C185.657 688.234 185.008 688.773 183.922 688.773C182.524 688.773 181.633 687.828 181.602 686.203H187.618V685.609C187.618 683.062 186.164 681.352 183.797 681.352C181.43 681.352 179.899 683.125 179.899 685.773V685.781C179.899 688.469 181.399 690.164 183.883 690.164ZM183.805 682.742C184.953 682.742 185.805 683.477 185.938 684.992H181.625C181.774 683.531 182.649 682.742 183.805 682.742ZM189.391 690H191.087V678.188H189.391V690ZM196.853 690.164C199.024 690.164 200.196 688.914 200.478 687.797L200.493 687.727L198.86 687.734L198.829 687.797C198.626 688.234 197.978 688.773 196.892 688.773C195.493 688.773 194.603 687.828 194.571 686.203H200.587V685.609C200.587 683.062 199.134 681.352 196.767 681.352C194.399 681.352 192.868 683.125 192.868 685.773V685.781C192.868 688.469 194.368 690.164 196.853 690.164ZM196.774 682.742C197.923 682.742 198.774 683.477 198.907 684.992H194.595C194.743 683.531 195.618 682.742 196.774 682.742ZM205.853 690.164C207.954 690.164 209.165 689.031 209.47 687.383L209.486 687.312H207.861L207.845 687.352C207.572 688.266 206.915 688.75 205.853 688.75C204.454 688.75 203.587 687.609 203.587 685.734V685.719C203.587 683.891 204.439 682.766 205.853 682.766C206.978 682.766 207.665 683.391 207.853 684.227L207.861 684.25L209.486 684.242V684.203C209.251 682.555 207.978 681.352 205.845 681.352C203.368 681.352 201.861 683.031 201.861 685.719V685.734C201.861 688.477 203.376 690.164 205.853 690.164ZM214.416 690.055C214.744 690.055 215.056 690.016 215.33 689.969V688.617C215.095 688.641 214.947 688.648 214.689 688.648C213.853 688.648 213.509 688.273 213.509 687.359V682.852H215.33V681.516H213.509V679.375H211.783V681.516H210.455V682.852H211.783V687.766C211.783 689.398 212.548 690.055 214.416 690.055ZM224.096 690H225.846V680.234H229.385V678.727H220.549V680.234H224.096V690ZM231.745 680C232.323 680 232.807 679.523 232.807 678.945C232.807 678.359 232.323 677.883 231.745 677.883C231.159 677.883 230.682 678.359 230.682 678.945C230.682 679.523 231.159 680 231.745 680ZM230.893 690H232.581V681.516H230.893V690ZM234.729 690H236.425V684.789C236.425 683.68 237.183 682.805 238.206 682.805C239.206 682.805 239.839 683.414 239.839 684.383V690H241.526V684.633C241.526 683.609 242.237 682.805 243.315 682.805C244.425 682.805 244.956 683.383 244.956 684.555V690H246.643V684.148C246.643 682.383 245.643 681.352 243.933 681.352C242.753 681.352 241.776 681.953 241.347 682.867H241.214C240.839 681.953 240.018 681.352 238.862 681.352C237.753 681.352 236.925 681.891 236.55 682.82H236.425V681.516H234.729V690ZM252.253 690.164C254.425 690.164 255.597 688.914 255.878 687.797L255.894 687.727L254.261 687.734L254.23 687.797C254.027 688.234 253.378 688.773 252.292 688.773C250.894 688.773 250.003 687.828 249.972 686.203H255.988V685.609C255.988 683.062 254.534 681.352 252.167 681.352C249.8 681.352 248.269 683.125 248.269 685.773V685.781C248.269 688.469 249.769 690.164 252.253 690.164ZM252.175 682.742C253.323 682.742 254.175 683.477 254.308 684.992H249.995C250.144 683.531 251.019 682.742 252.175 682.742Z" fill="#486247"/>
<g filter="url(#filter3_d_13_3853)">
<rect x="51" y="758" width="328" height="47" rx="15" fill="#486247"/>
</g>
<path d="M186.855 788.316C183.261 788.316 181.028 785.768 181.028 781.672V781.654C181.028 777.541 183.252 775.001 186.847 775.001C189.729 775.001 191.918 776.829 192.217 779.422V779.492H189.993L189.984 779.457C189.659 777.954 188.446 776.961 186.847 776.961C184.693 776.961 183.349 778.763 183.349 781.646V781.663C183.349 784.555 184.693 786.356 186.855 786.356C188.464 786.356 189.659 785.46 189.984 784.062L189.993 784.019H192.217V784.08C191.883 786.62 189.782 788.316 186.855 788.316ZM198.348 788.193C195.465 788.193 193.725 786.312 193.725 783.201V783.184C193.725 780.099 195.492 778.209 198.348 778.209C201.213 778.209 202.971 780.09 202.971 783.184V783.201C202.971 786.312 201.222 788.193 198.348 788.193ZM198.348 786.418C199.868 786.418 200.73 785.231 200.73 783.21V783.192C200.73 781.171 199.86 779.976 198.348 779.976C196.827 779.976 195.957 781.171 195.957 783.192V783.21C195.957 785.231 196.827 786.418 198.348 786.418ZM204.848 788V778.394H207.037V779.861H207.186C207.643 778.833 208.566 778.209 209.955 778.209C212.099 778.209 213.268 779.501 213.268 781.786V788H211.08V782.296C211.08 780.802 210.473 780.046 209.146 780.046C207.845 780.046 207.037 780.96 207.037 782.401V788H204.848ZM216.235 788V780.09H214.662V778.394H216.235V777.444C216.235 775.528 217.211 774.588 219.347 774.588C219.812 774.588 220.208 774.614 220.56 774.676V776.205C220.393 776.179 220.12 776.161 219.812 776.161C218.784 776.161 218.389 776.653 218.389 777.567V778.394H220.472V780.09H218.424V788H216.235ZM223.386 776.785C222.665 776.785 222.076 776.214 222.076 775.493C222.076 774.781 222.665 774.201 223.386 774.201C224.098 774.201 224.687 774.781 224.687 775.493C224.687 776.214 224.098 776.785 223.386 776.785ZM222.287 788V778.394H224.476V788H222.287ZM226.845 788V778.394H229.034V779.87H229.183C229.508 778.842 230.387 778.235 231.653 778.235C231.987 778.235 232.33 778.279 232.541 778.341V780.301C232.189 780.23 231.829 780.178 231.451 780.178C229.992 780.178 229.034 781.048 229.034 782.419V788H226.845ZM234.137 788V778.394H236.325V779.888H236.475C236.888 778.815 237.854 778.209 239.111 778.209C240.412 778.209 241.361 778.877 241.774 779.94H241.924C242.39 778.895 243.497 778.209 244.833 778.209C246.767 778.209 247.927 779.396 247.927 781.391V788H245.738V781.927C245.738 780.679 245.167 780.046 243.998 780.046C242.855 780.046 242.117 780.898 242.117 781.997V788H239.929V781.769C239.929 780.705 239.269 780.046 238.197 780.046C237.116 780.046 236.325 780.96 236.325 782.155V788H234.137Z" fill="#FFFFFE"/>
<path d="M63.6286 24.7231C66.1852 24.7231 68.4099 26.541 68.4099 30.8574V30.874C68.4099 34.9082 66.592 37.2988 63.5788 37.2988C61.3791 37.2988 59.7355 35.9956 59.3537 34.1611L59.3371 34.0698H61.4455L61.4704 34.1528C61.7858 34.9912 62.5246 35.5391 63.5788 35.5391C65.4797 35.5391 66.2849 33.6797 66.3762 31.3887C66.3762 31.2974 66.3845 31.2061 66.3845 31.1147H66.2184C65.7785 32.061 64.7326 32.8994 63.0891 32.8994C60.7897 32.8994 59.1794 31.2227 59.1794 28.9482V28.9316C59.1794 26.4995 61.0305 24.7231 63.6286 24.7231ZM63.6203 31.2559C64.9733 31.2559 66.0109 30.2764 66.0109 28.9233V28.9067C66.0109 27.5371 64.9733 26.4663 63.6452 26.4663C62.3254 26.4663 61.2712 27.5205 61.2712 28.8569V28.8735C61.2712 30.2598 62.259 31.2559 63.6203 31.2559ZM71.7704 29.2388C71.015 29.2388 70.4506 28.6577 70.4506 27.9272C70.4506 27.1885 71.015 26.6157 71.7704 26.6157C72.5341 26.6157 73.0902 27.1885 73.0902 27.9272C73.0902 28.6577 72.5341 29.2388 71.7704 29.2388ZM71.7704 35.3979C71.015 35.3979 70.4506 34.8252 70.4506 34.0864C70.4506 33.3477 71.015 32.7749 71.7704 32.7749C72.5341 32.7749 73.0902 33.3477 73.0902 34.0864C73.0902 34.8252 72.5341 35.3979 71.7704 35.3979ZM80.9415 37V34.7007H75.0812V32.9492C76.6334 30.2515 78.3351 27.4956 79.962 25.022H82.9918V32.9326H84.6022V34.7007H82.9918V37H80.9415ZM77.0733 32.9824H80.9747V26.7319H80.8502C79.6217 28.6079 78.2355 30.8242 77.0733 32.8579V32.9824ZM89.158 37V27.1304H89.0169L86.0369 29.2388V27.2217L89.1663 25.022H91.2996V37H89.158Z" fill="black"/>
<rect x="151.5" y="10" width="125" height="37" rx="18.5" fill="black"/>
<rect x="151.5" y="10" width="80" height="37" rx="18.5" fill="black"/>
<rect x="239.5" y="10" width="37" height="37" rx="18.5" fill="black"/>
<path d="M323.049 26C323.049 25.4477 323.497 25 324.049 25H325.049C325.602 25 326.049 25.4477 326.049 26V34C326.049 34.5523 325.602 35 325.049 35H324.049C323.497 35 323.049 34.5523 323.049 34V26Z" fill="black"/>
<path d="M328.049 24C328.049 23.4477 328.497 23 329.049 23H330.049C330.602 23 331.049 23.4477 331.049 24V34C331.049 34.5523 330.602 35 330.049 35H329.049C328.497 35 328.049 34.5523 328.049 34V24Z" fill="black"/>
<path d="M318.049 29.5C318.049 28.9477 318.497 28.5 319.049 28.5H320.049C320.602 28.5 321.049 28.9477 321.049 29.5V34C321.049 34.5523 320.602 35 320.049 35H319.049C318.497 35 318.049 34.5523 318.049 34V29.5Z" fill="black"/>
<path d="M313.049 32C313.049 31.4477 313.497 31 314.049 31H315.049C315.602 31 316.049 31.4477 316.049 32V34C316.049 34.5523 315.602 35 315.049 35H314.049C313.497 35 313.049 34.5523 313.049 34V32Z" fill="black"/>
<path fill-rule="evenodd" clip-rule="evenodd" d="M347.55 25.5875C350.016 25.5876 352.389 26.5551 354.176 28.2898C354.311 28.4237 354.526 28.4221 354.659 28.286L355.945 26.9605C356.012 26.8915 356.05 26.798 356.049 26.7008C356.049 26.6035 356.01 26.5105 355.942 26.4423C351.25 21.8526 343.848 21.8526 339.156 26.4423C339.089 26.5105 339.05 26.6034 339.049 26.7007C339.049 26.7979 339.086 26.8914 339.153 26.9605L340.44 28.286C340.573 28.4223 340.788 28.424 340.923 28.2898C342.71 26.5549 345.083 25.5875 347.55 25.5875ZM347.585 29.5894C348.94 29.5893 350.247 30.1035 351.252 31.032C351.388 31.1638 351.602 31.1609 351.734 31.0255L353.019 29.7C353.087 29.6304 353.125 29.5361 353.124 29.4381C353.123 29.3401 353.083 29.2466 353.014 29.1784C349.955 26.2739 345.218 26.2739 342.159 29.1784C342.09 29.2466 342.05 29.3401 342.049 29.4382C342.048 29.5362 342.086 29.6305 342.154 29.7L343.439 31.0255C343.571 31.1609 343.785 31.1638 343.921 31.032C344.925 30.1041 346.231 29.5899 347.585 29.5894ZM350.199 32.1767C350.201 32.275 350.163 32.3698 350.094 32.4386L347.871 34.7289C347.806 34.7962 347.717 34.834 347.624 34.834C347.532 34.834 347.443 34.7962 347.377 34.7289L345.154 32.4386C345.085 32.3697 345.047 32.2749 345.049 32.1766C345.051 32.0783 345.093 31.9853 345.165 31.9194C346.584 30.6935 348.664 30.6935 350.084 31.9194C350.155 31.9853 350.197 32.0784 350.199 32.1767Z" fill="black"/>
<path opacity="0.35" d="M364.549 27C364.549 25.067 366.116 23.5 368.049 23.5H385.049C386.982 23.5 388.549 25.067 388.549 27V32C388.549 33.933 386.982 35.5 385.049 35.5H368.049C366.116 35.5 364.549 33.933 364.549 32V27Z" stroke="black"/>
<path opacity="0.4" d="M390.049 28V32.2203C390.898 31.8629 391.451 31.0314 391.451 30.1102C391.451 29.1889 390.898 28.3574 390.049 28Z" fill="black"/>
<path d="M366.049 27C366.049 25.8954 366.945 25 368.049 25H385.049C386.154 25 387.049 25.8954 387.049 27V32C387.049 33.1046 386.154 34 385.049 34H368.049C366.945 34 366.049 33.1046 366.049 32V27Z" fill="black"/>
<rect y="59" width="428" height="63" fill="#697E68"/>
<path d="M174.141 99.4219C169.348 99.4219 166.371 96.0234 166.371 90.5625V90.5391C166.371 85.0547 169.336 81.668 174.129 81.668C177.973 81.668 180.891 84.1055 181.289 87.5625V87.6562H178.324L178.312 87.6094C177.879 85.6055 176.262 84.2812 174.129 84.2812C171.258 84.2812 169.465 86.6836 169.465 90.5273V90.5508C169.465 94.4062 171.258 96.8086 174.141 96.8086C176.285 96.8086 177.879 95.6133 178.312 93.75L178.324 93.6914H181.289V93.7734C180.844 97.1602 178.043 99.4219 174.141 99.4219ZM187.852 99.2109C185.414 99.2109 183.645 97.7109 183.645 95.3789V95.3555C183.645 93.0703 185.391 91.7344 188.508 91.5469L191.801 91.3477V90.2461C191.801 88.9688 190.969 88.2656 189.398 88.2656C188.062 88.2656 187.195 88.7461 186.902 89.5898L186.891 89.6367H184.137L184.148 89.5312C184.43 87.375 186.492 85.9453 189.539 85.9453C192.832 85.9453 194.684 87.5391 194.684 90.2461V99H191.801V97.2422H191.602C190.898 98.4844 189.539 99.2109 187.852 99.2109ZM186.527 95.2383C186.527 96.3281 187.453 96.9727 188.742 96.9727C190.5 96.9727 191.801 95.8242 191.801 94.3008V93.2695L188.918 93.457C187.289 93.5625 186.527 94.1602 186.527 95.2148V95.2383ZM198.305 99V81.2344H201.223V99H198.305ZM210.398 99.2578C206.59 99.2578 204.281 96.7031 204.281 92.625V92.6133C204.281 88.582 206.613 85.9453 210.258 85.9453C213.902 85.9453 216.152 88.5 216.152 92.3672V93.3281H207.199C207.234 95.625 208.477 96.9609 210.457 96.9609C212.039 96.9609 212.941 96.1641 213.223 95.5781L213.258 95.4961H216.035L216 95.6016C215.59 97.2539 213.879 99.2578 210.398 99.2578ZM210.293 88.2305C208.664 88.2305 207.445 89.332 207.223 91.3711H213.305C213.105 89.2734 211.922 88.2305 210.293 88.2305ZM219.07 99V86.1914H221.988V88.1484H222.188C222.797 86.7773 224.027 85.9453 225.879 85.9453C228.738 85.9453 230.297 87.668 230.297 90.7148V99H227.379V91.3945C227.379 89.4023 226.57 88.3945 224.801 88.3945C223.066 88.3945 221.988 89.6133 221.988 91.5352V99H219.07ZM238.359 99.2109C235.148 99.2109 233.109 96.668 233.109 92.6133V92.5898C233.109 88.5117 235.113 85.9805 238.359 85.9805C240.117 85.9805 241.582 86.8477 242.25 88.2305H242.449V81.2344H245.379V99H242.449V96.9961H242.25C241.547 98.3906 240.164 99.2109 238.359 99.2109ZM239.273 96.75C241.266 96.75 242.496 95.1797 242.496 92.6133V92.5898C242.496 90.0234 241.254 88.4414 239.273 88.4414C237.293 88.4414 236.074 90.0117 236.074 92.5898V92.6133C236.074 95.1914 237.281 96.75 239.273 96.75ZM252.539 99.2109C250.102 99.2109 248.332 97.7109 248.332 95.3789V95.3555C248.332 93.0703 250.078 91.7344 253.195 91.5469L256.488 91.3477V90.2461C256.488 88.9688 255.656 88.2656 254.086 88.2656C252.75 88.2656 251.883 88.7461 251.59 89.5898L251.578 89.6367H248.824L248.836 89.5312C249.117 87.375 251.18 85.9453 254.227 85.9453C257.52 85.9453 259.371 87.5391 259.371 90.2461V99H256.488V97.2422H256.289C255.586 98.4844 254.227 99.2109 252.539 99.2109ZM251.215 95.2383C251.215 96.3281 252.141 96.9727 253.43 96.9727C255.188 96.9727 256.488 95.8242 256.488 94.3008V93.2695L253.605 93.457C251.977 93.5625 251.215 94.1602 251.215 95.2148V95.2383ZM262.875 99V86.1914H265.793V88.1602H265.992C266.426 86.7891 267.598 85.9805 269.285 85.9805C269.73 85.9805 270.188 86.0391 270.469 86.1211V88.7344C270 88.6406 269.52 88.5703 269.016 88.5703C267.07 88.5703 265.793 89.7305 265.793 91.5586V99H262.875Z" fill="#FFFFFE"/>
<path d="M37.6094 100.716C37.8672 100.974 38.1953 101.114 38.582 101.114C39.3555 101.114 39.9766 100.505 39.9766 99.7314C39.9766 99.3447 39.8125 98.9932 39.543 98.7236L31.3398 90.708L39.543 82.7158C39.8125 82.4463 39.9766 82.083 39.9766 81.708C39.9766 80.9346 39.3555 80.3252 38.582 80.3252C38.1953 80.3252 37.8672 80.4658 37.6094 80.7236L28.4922 89.6299C28.1641 89.9346 28.0117 90.3096 28 90.7197C28 91.1299 28.1641 91.4814 28.4922 91.7979L37.6094 100.716Z" fill="white"/>
<g filter="url(#filter4_d_13_3853)">
<rect x="14" y="858" width="400" height="38" rx="15" fill="white"/>
<rect x="14.5" y="858.5" width="399" height="37" rx="14.5" stroke="#486247"/>
</g>
<path fill-rule="evenodd" clip-rule="evenodd" d="M52.75 873.5C52.75 871.153 54.6528 869.25 57 869.25C59.3472 869.25 61.25 871.153 61.25 873.5C61.25 875.847 59.3472 877.75 57 877.75C54.6528 877.75 52.75 875.847 52.75 873.5ZM57 870.75C55.4812 870.75 54.25 871.981 54.25 873.5C54.25 875.019 55.4812 876.25 57 876.25C58.5188 876.25 59.75 875.019 59.75 873.5C59.75 871.981 58.5188 870.75 57 870.75Z" fill="#486247"/>
<path fill-rule="evenodd" clip-rule="evenodd" d="M53 880.75C51.7574 880.75 50.75 881.757 50.75 883V884.188C50.75 884.206 50.7631 884.222 50.781 884.225C54.8997 884.897 59.1003 884.897 63.219 884.225C63.2369 884.222 63.25 884.206 63.25 884.188V883C63.25 881.757 62.2426 880.75 61 880.75H60.6591C60.6328 880.75 60.6066 880.754 60.5815 880.762L59.716 881.045C57.9512 881.621 56.0488 881.621 54.284 881.045L53.4185 880.762C53.3934 880.754 53.3672 880.75 53.3409 880.75H53ZM49.25 883C49.25 880.929 50.9289 879.25 53 879.25H53.3409C53.5254 879.25 53.7087 879.279 53.8841 879.336L54.7496 879.619C56.2119 880.097 57.7881 880.097 59.2504 879.619L60.1159 879.336C60.2913 879.279 60.4746 879.25 60.6591 879.25H61C63.0711 879.25 64.75 880.929 64.75 883V884.188C64.75 884.942 64.2041 885.584 63.4607 885.705C59.1819 886.404 54.8181 886.404 50.5393 885.705C49.7959 885.584 49.25 884.942 49.25 884.188V883Z" fill="#486247"/>
<path fill-rule="evenodd" clip-rule="evenodd" d="M138.65 870.263L139.463 870.364C141.341 870.598 142.75 872.194 142.75 874.085V884.575C142.75 886.412 141.382 887.961 139.559 888.188C136.531 888.565 133.469 888.565 130.441 888.188C128.618 887.961 127.25 886.412 127.25 884.575V874.085C127.25 872.194 128.659 870.598 130.537 870.364L131.35 870.263C131.672 869.102 132.737 868.25 134 868.25H136C137.263 868.25 138.328 869.102 138.65 870.263ZM131.25 871.787L130.722 871.853C129.596 871.993 128.75 872.95 128.75 874.085V884.575C128.75 885.655 129.555 886.566 130.626 886.7C133.531 887.061 136.469 887.061 139.374 886.7C140.445 886.566 141.25 885.655 141.25 884.575V874.085C141.25 872.95 140.404 871.993 139.278 871.853L138.75 871.787V873C138.75 873.414 138.414 873.75 138 873.75H132C131.586 873.75 131.25 873.414 131.25 873V871.787ZM132.75 871C132.75 870.31 133.31 869.75 134 869.75H136C136.69 869.75 137.25 870.31 137.25 871V872.25H132.75V871Z" fill="#486247"/>
<path d="M367 874.5C366.31 874.5 365.75 875.06 365.75 875.75C365.75 876.441 366.31 877 367 877C367.69 877 368.25 876.441 368.25 875.75C368.25 875.06 367.69 874.5 367 874.5Z" fill="#486247"/>
<path d="M371 874.5C370.31 874.5 369.75 875.06 369.75 875.75C369.75 876.441 370.31 877 371 877C371.69 877 372.25 876.441 372.25 875.75C372.25 875.06 371.69 874.5 371 874.5Z" fill="#486247"/>
<path d="M373.75 875.75C373.75 875.06 374.31 874.5 375 874.5C375.69 874.5 376.25 875.06 376.25 875.75C376.25 876.441 375.69 877 375 877C374.31 877 373.75 876.441 373.75 875.75Z" fill="#486247"/>
<path fill-rule="evenodd" clip-rule="evenodd" d="M375.101 869.593C372.407 869.363 369.698 869.35 367.002 869.553L366.809 869.568C364.237 869.762 362.25 871.904 362.25 874.483V883C362.25 883.264 362.389 883.509 362.615 883.644C362.842 883.779 363.123 883.786 363.355 883.661L367.266 881.559C367.448 881.461 367.651 881.41 367.858 881.41H376.834C377.966 881.41 378.936 880.601 379.139 879.487C379.55 877.23 379.583 874.92 379.235 872.652L379.133 871.984C378.946 870.767 377.951 869.836 376.724 869.732L375.101 869.593ZM367.115 871.049C369.731 870.852 372.359 870.865 374.973 871.088L376.597 871.226C377.133 871.272 377.569 871.679 377.65 872.211L377.753 872.879C378.075 874.983 378.045 877.125 377.663 879.218C377.59 879.619 377.241 879.91 376.834 879.91H367.858C367.403 879.91 366.956 880.023 366.556 880.238L363.75 881.746V874.483C363.75 872.689 365.133 871.198 366.921 871.064L367.115 871.049Z" fill="#486247"/>
<path fill-rule="evenodd" clip-rule="evenodd" d="M215.558 870.535C214.687 869.699 213.313 869.699 212.442 870.535L207.816 874.974C207.702 875.083 207.626 875.225 207.598 875.379C207.044 878.401 207.003 881.495 207.477 884.53L207.589 885.25H210.566V879.039C210.566 878.625 210.902 878.289 211.316 878.289H216.684C217.098 878.289 217.434 878.625 217.434 879.039V885.25H220.411L220.523 884.53C220.997 881.495 220.956 878.401 220.402 875.379C220.374 875.225 220.298 875.083 220.184 874.974L215.558 870.535ZM211.404 869.452C212.855 868.06 215.145 868.06 216.596 869.452L221.223 873.892C221.563 874.219 221.793 874.644 221.878 875.108C222.462 878.296 222.505 881.559 222.005 884.761L221.825 885.919C221.75 886.398 221.337 886.75 220.853 886.75H216.684C216.27 886.75 215.934 886.415 215.934 886V879.789H212.066V886C212.066 886.415 211.73 886.75 211.316 886.75H207.147C206.663 886.75 206.25 886.398 206.176 885.919L205.995 884.761C205.495 881.559 205.538 878.296 206.122 875.108C206.208 874.644 206.437 874.219 206.777 873.892L211.404 869.452Z" fill="#486247"/>
<rect x="275" y="861" width="35" height="32" rx="6" fill="#486247"/>
<path fill-rule="evenodd" clip-rule="evenodd" d="M286.96 868C287.374 868 287.71 868.336 287.71 868.75V870.418C290.538 870.166 293.383 870.166 296.21 870.418V868.75C296.21 868.336 296.546 868 296.96 868C297.374 868 297.71 868.336 297.71 868.75V870.566C299.203 870.778 300.383 871.958 300.583 873.465L300.669 874.118C301.033 876.864 301.002 879.648 300.576 882.386C300.365 883.742 299.263 884.783 297.897 884.918L296.704 885.036C293.549 885.347 290.371 885.347 287.216 885.036L286.023 884.918C284.657 884.783 283.556 883.742 283.345 882.386C282.919 879.648 282.887 876.864 283.251 874.118L283.338 873.465C283.538 871.958 284.717 870.778 286.21 870.566V868.75C286.21 868.336 286.546 868 286.96 868ZM287.405 871.953C290.435 871.654 293.486 871.654 296.515 871.953L297.42 872.042C298.287 872.128 298.981 872.799 299.096 873.662L299.182 874.315C299.212 874.543 299.24 874.771 299.264 875H284.656C284.681 874.771 284.708 874.543 284.738 874.315L284.825 873.662C284.939 872.799 285.633 872.128 286.5 872.042L287.405 871.953ZM284.537 876.5C284.439 878.388 284.536 880.283 284.827 882.155C284.933 882.835 285.485 883.358 286.17 883.425L287.363 883.543C290.421 883.845 293.5 883.845 296.557 883.543L297.75 883.425C298.435 883.358 298.988 882.835 299.094 882.155C299.385 880.283 299.482 878.388 299.383 876.5H284.537Z" fill="white"/>
</g>
<rect x="1.5" y="1.5" width="425" height="923" rx="33.5" stroke="#D9D9D9" stroke-width="3"/>
<defs>
<filter id="filter0_d_13_3853" x="-14" y="129" width="474" height="456" filterUnits="userSpaceOnUse" color-interpolation-filters="sRGB">
<feFlood flood-opacity="0" result="BackgroundImageFix"/>
<feColorMatrix in="SourceAlpha" type="matrix" values="0 0 0 0 0 0 0 0 0 0 0 0 0 0 0 0 0 0 127 0" result="hardAlpha"/>
<feOffset dy="8"/>
<feGaussianBlur stdDeviation="32"/>
<feColorMatrix type="matrix" values="0 0 0 0 0 0 0 0 0 0 0 0 0 0 0 0 0 0 0.08 0"/>
<feBlend mode="normal" in2="BackgroundImageFix" result="effect1_dropShadow_13_3853"/>
<feBlend mode="normal" in="SourceGraphic" in2="effect1_dropShadow_13_3853" result="shape"/>
</filter>
<filter id="filter1_d_13_3853" x="41" y="572" width="346" height="71" filterUnits="userSpaceOnUse" color-interpolation-filters="sRGB">
<feFlood flood-opacity="0" result="BackgroundImageFix"/>
<feColorMatrix in="SourceAlpha" type="matrix" values="0 0 0 0 0 0 0 0 0 0 0 0 0 0 0 0 0 0 127 0" result="hardAlpha"/>
<feOffset dy="2"/>
<feGaussianBlur stdDeviation="4.5"/>
<feComposite in2="hardAlpha" operator="out"/>
<feColorMatrix type="matrix" values="0 0 0 0 0 0 0 0 0 0 0 0 0 0 0 0 0 0 0.25 0"/>
<feBlend mode="normal" in2="BackgroundImageFix" result="effect1_dropShadow_13_3853"/>
<feBlend mode="normal" in="SourceGraphic" in2="effect1_dropShadow_13_3853" result="shape"/>
</filter>
<filter id="filter2_d_13_3853" x="41" y="649" width="346" height="71" filterUnits="userSpaceOnUse" color-interpolation-filters="sRGB">
<feFlood flood-opacity="0" result="BackgroundImageFix"/>
<feColorMatrix in="SourceAlpha" type="matrix" values="0 0 0 0 0 0 0 0 0 0 0 0 0 0 0 0 0 0 127 0" result="hardAlpha"/>
<feOffset dy="2"/>
<feGaussianBlur stdDeviation="4.5"/>
<feComposite in2="hardAlpha" operator="out"/>
<feColorMatrix type="matrix" values="0 0 0 0 0 0 0 0 0 0 0 0 0 0 0 0 0 0 0.25 0"/>
<feBlend mode="normal" in2="BackgroundImageFix" result="effect1_dropShadow_13_3853"/>
<feBlend mode="normal" in="SourceGraphic" in2="effect1_dropShadow_13_3853" result="shape"/>
</filter>
<filter id="filter3_d_13_3853" x="42" y="751" width="346" height="65" filterUnits="userSpaceOnUse" color-interpolation-filters="sRGB">
<feFlood flood-opacity="0" result="BackgroundImageFix"/>
<feColorMatrix in="SourceAlpha" type="matrix" values="0 0 0 0 0 0 0 0 0 0 0 0 0 0 0 0 0 0 127 0" result="hardAlpha"/>
<feOffset dy="2"/>
<feGaussianBlur stdDeviation="4.5"/>
<feComposite in2="hardAlpha" operator="out"/>
<feColorMatrix type="matrix" values="0 0 0 0 0 0 0 0 0 0 0 0 0 0 0 0 0 0 0.25 0"/>
<feBlend mode="normal" in2="BackgroundImageFix" result="effect1_dropShadow_13_3853"/>
<feBlend mode="normal" in="SourceGraphic" in2="effect1_dropShadow_13_3853" result="shape"/>
</filter>
<filter id="filter4_d_13_3853" x="5" y="851" width="418" height="56" filterUnits="userSpaceOnUse" color-interpolation-filters="sRGB">
<feFlood flood-opacity="0" result="BackgroundImageFix"/>
<feColorMatrix in="SourceAlpha" type="matrix" values="0 0 0 0 0 0 0 0 0 0 0 0 0 0 0 0 0 0 127 0" result="hardAlpha"/>
<feOffset dy="2"/>
<feGaussianBlur stdDeviation="4.5"/>
<feComposite in2="hardAlpha" operator="out"/>
<feColorMatrix type="matrix" values="0 0 0 0 0 0 0 0 0 0 0 0 0 0 0 0 0 0 0.25 0"/>
<feBlend mode="normal" in2="BackgroundImageFix" result="effect1_dropShadow_13_3853"/>
<feBlend mode="normal" in="SourceGraphic" in2="effect1_dropShadow_13_3853" result="shape"/>
</filter>
<clipPath id="clip0_13_3853">
<rect width="428" height="926" rx="35" fill="white"/>
</clipPath>
</defs>
</svg>
