<svg width="428" height="926" viewBox="0 0 428 926" fill="none" xmlns="http://www.w3.org/2000/svg">
<rect x="1.5" y="1.5" width="425" height="923" rx="33.5" fill="#FFFFFE"/>
<rect x="1.5" y="1.5" width="425" height="923" rx="33.5" stroke="#D9D9D9" stroke-width="3"/>
<circle cx="59.5" cy="155.5" r="17" fill="#FFFFFE" stroke="#627193"/>
<path d="M60.6193 147.455V162H58.858V149.301H58.7727L55.2216 151.659V149.869L58.858 147.455H60.6193Z" fill="#272827"/>
<g filter="url(#filter0_d_13_3797)">
<rect x="83" y="145" width="262" height="186" rx="15" fill="#FFFFFE"/>
<rect x="83.5" y="145.5" width="261" height="185" rx="14.5" stroke="#627193"/>
</g>
<path d="M80.4609 370.066C80.9531 370.066 81.3516 369.68 81.3516 369.188V362.672C81.6445 362.543 82.7461 362.121 84.4688 362.121C88.8047 362.121 91.5234 364.242 95.6484 364.242C97.4766 364.242 98.1562 364.043 99.0469 363.645C99.8555 363.281 100.383 362.672 100.383 361.594V349.699C100.383 349.066 99.8438 348.703 99.1641 348.703C98.5898 348.703 97.5117 349.195 95.4961 349.195C91.3711 349.195 88.6641 347.074 84.3164 347.074C82.4883 347.074 81.7969 347.273 80.9062 347.672C80.0977 348.035 79.5703 348.645 79.5703 349.711V369.188C79.5703 369.668 79.9805 370.066 80.4609 370.066ZM95.6484 362.473C91.7461 362.473 88.9805 360.352 84.4688 360.352C83.1797 360.352 82.0078 360.504 81.3516 360.773V349.77C81.5156 349.383 82.4883 348.844 84.3164 348.844C88.4414 348.844 91.1953 350.965 95.4961 350.965C96.7734 350.965 97.8281 350.812 98.6133 350.59V361.547C98.4492 361.934 97.4766 362.473 95.6484 362.473Z" fill="#627193"/>
<path d="M329.632 368.391C329.374 368.648 329.046 368.789 328.659 368.789C327.886 368.789 327.265 368.18 327.265 367.406C327.265 367.02 327.429 366.668 327.698 366.398L335.901 358.383L327.698 350.391C327.429 350.121 327.265 349.758 327.265 349.383C327.265 348.609 327.886 348 328.659 348C329.046 348 329.374 348.141 329.632 348.398L338.749 357.305C339.077 357.609 339.229 357.984 339.241 358.395C339.241 358.805 339.077 359.156 338.749 359.473L329.632 368.391Z" fill="#627193"/>
<g filter="url(#filter1_d_13_3797)">
<rect x="83" y="414" width="262" height="35" rx="15" fill="#FFFFFE"/>
<rect x="83.5" y="414.5" width="261" height="34" rx="14.5" stroke="#272827"/>
</g>
<g filter="url(#filter2_d_13_3797)">
<rect x="83" y="485" width="262" height="35" rx="15" fill="#FFFFFE"/>
<rect x="83.5" y="485.5" width="261" height="34" rx="14.5" stroke="#272827"/>
</g>
<g filter="url(#filter3_d_13_3797)">
<rect x="83" y="557" width="262" height="35" rx="15" fill="#FFFFFE"/>
<rect x="83.5" y="557.5" width="261" height="34" rx="14.5" stroke="#272827"/>
</g>
<path d="M93.5469 437L97.6172 425.727H99.5078L103.578 437H101.734L100.719 433.953H96.4062L95.3828 437H93.5469ZM98.4922 427.703L96.875 432.547H100.25L98.625 427.703H98.4922ZM106.648 437.117C106 437.117 105.5 436.617 105.5 435.984C105.5 435.344 106 434.844 106.648 434.844C107.297 434.844 107.789 435.344 107.789 435.984C107.789 436.617 107.297 437.117 106.648 437.117ZM117.281 437L114.242 425.727H116.062L118.133 434.492H118.242L120.594 425.727H122.219L124.586 434.492H124.695L126.758 425.727H128.578L125.531 437H123.883L121.461 428.57H121.352L118.938 437H117.281ZM133.25 437.164C130.758 437.164 129.234 435.5 129.234 432.766V432.75C129.234 430.023 130.766 428.352 133.25 428.352C135.727 428.352 137.258 430.016 137.258 432.75V432.766C137.258 435.5 135.734 437.164 133.25 437.164ZM133.25 435.75C134.703 435.75 135.531 434.641 135.531 432.766V432.75C135.531 430.867 134.703 429.766 133.25 429.766C131.789 429.766 130.969 430.867 130.969 432.75V432.766C130.969 434.648 131.789 435.75 133.25 435.75ZM139.281 437V428.516H140.977V429.82H141.102C141.477 428.891 142.305 428.352 143.414 428.352C144.57 428.352 145.391 428.953 145.766 429.867H145.898C146.328 428.953 147.305 428.352 148.484 428.352C150.195 428.352 151.195 429.383 151.195 431.148V437H149.508V431.555C149.508 430.383 148.977 429.805 147.867 429.805C146.789 429.805 146.078 430.609 146.078 431.633V437H144.391V431.383C144.391 430.414 143.758 429.805 142.758 429.805C141.734 429.805 140.977 430.68 140.977 431.789V437H139.281ZM157.125 437.164C154.641 437.164 153.141 435.469 153.141 432.781V432.773C153.141 430.125 154.672 428.352 157.039 428.352C159.406 428.352 160.859 430.062 160.859 432.609V433.203H154.844C154.875 434.828 155.766 435.773 157.164 435.773C158.25 435.773 158.898 435.234 159.102 434.797L159.133 434.734L160.766 434.727L160.75 434.797C160.469 435.914 159.297 437.164 157.125 437.164ZM157.047 429.742C155.891 429.742 155.016 430.531 154.867 431.992H159.18C159.047 430.477 158.195 429.742 157.047 429.742ZM162.875 437V428.516H164.57V429.805H164.695C165.109 428.898 165.922 428.352 167.156 428.352C169.055 428.352 170.102 429.484 170.102 431.508V437H168.414V431.906C168.414 430.5 167.828 429.805 166.586 429.805C165.344 429.805 164.57 430.656 164.57 432.023V437H162.875Z" fill="#272827"/>
<path d="M94.4141 508V496.727H98.9453C101.062 496.727 102.336 497.805 102.336 499.531V499.547C102.336 500.719 101.469 501.773 100.359 501.961V502.094C101.883 502.258 102.898 503.336 102.898 504.805V504.82C102.898 506.797 101.453 508 99.0469 508H94.4141ZM98.5391 498.156H96.1641V501.523H98.2422C99.7891 501.523 100.594 500.945 100.594 499.852V499.836C100.594 498.773 99.8359 498.156 98.5391 498.156ZM98.5938 502.859H96.1641V506.57H98.6953C100.273 506.57 101.109 505.922 101.109 504.711V504.695C101.109 503.484 100.242 502.859 98.5938 502.859ZM106.258 508.117C105.609 508.117 105.109 507.617 105.109 506.984C105.109 506.344 105.609 505.844 106.258 505.844C106.906 505.844 107.398 506.344 107.398 506.984C107.398 507.617 106.906 508.117 106.258 508.117ZM114.57 508V496.727H116.586L120.18 505.719H120.305L123.898 496.727H125.914V508H124.32V499.727H124.203L120.891 508H119.594L116.289 499.727H116.164V508H114.57ZM132.109 508.164C129.625 508.164 128.125 506.469 128.125 503.781V503.773C128.125 501.125 129.656 499.352 132.023 499.352C134.391 499.352 135.844 501.062 135.844 503.609V504.203H129.828C129.859 505.828 130.75 506.773 132.148 506.773C133.234 506.773 133.883 506.234 134.086 505.797L134.117 505.734L135.75 505.727L135.734 505.797C135.453 506.914 134.281 508.164 132.109 508.164ZM132.031 500.742C130.875 500.742 130 501.531 129.852 502.992H134.164C134.031 501.477 133.18 500.742 132.031 500.742ZM137.859 508V499.516H139.555V500.805H139.68C140.094 499.898 140.906 499.352 142.141 499.352C144.039 499.352 145.086 500.484 145.086 502.508V508H143.398V502.906C143.398 501.5 142.812 500.805 141.57 500.805C140.328 500.805 139.555 501.656 139.555 503.023V508H137.859Z" fill="#272827"/>
<path d="M99.0391 581.273C95.9062 581.273 93.9531 579.008 93.9531 575.375V575.359C93.9531 571.719 95.8984 569.453 99.0312 569.453C101.516 569.453 103.422 571.023 103.719 573.266L103.711 573.305H101.977V573.281C101.648 571.898 100.516 571 99.0312 571C97.0078 571 95.7422 572.68 95.7422 575.359V575.375C95.7422 578.047 97.0078 579.727 99.0391 579.727C100.531 579.727 101.648 578.93 101.969 577.656L101.984 577.625H103.719V577.672C103.391 579.836 101.555 581.273 99.0391 581.273Z" fill="#272827"/>
<path d="M107.133 581.117C106.484 581.117 105.984 580.617 105.984 579.984C105.984 579.344 106.484 578.844 107.133 578.844C107.781 578.844 108.273 579.344 108.273 579.984C108.273 580.617 107.781 581.117 107.133 581.117ZM115.445 581V569.727H117.023L122.82 577.93H122.938V569.727H124.641V581H123.062L117.273 572.812H117.148V581H115.445ZM130.875 581.164C128.383 581.164 126.859 579.5 126.859 576.766V576.75C126.859 574.023 128.391 572.352 130.875 572.352C133.352 572.352 134.883 574.016 134.883 576.75V576.766C134.883 579.5 133.359 581.164 130.875 581.164ZM130.875 579.75C132.328 579.75 133.156 578.641 133.156 576.766V576.75C133.156 574.867 132.328 573.766 130.875 573.766C129.414 573.766 128.594 574.867 128.594 576.75V576.766C128.594 578.648 129.414 579.75 130.875 579.75ZM141.477 581V569.727H145.867C148.078 569.727 149.609 571.211 149.609 573.422V573.438C149.609 575.641 148.078 577.148 145.867 577.148H143.227V581H141.477ZM145.43 571.203H143.227V575.68H145.43C146.945 575.68 147.828 574.859 147.828 573.445V573.43C147.828 572.023 146.945 571.203 145.43 571.203ZM151.672 581V572.516H153.367V573.797H153.492C153.797 572.898 154.586 572.367 155.719 572.367C155.992 572.367 156.289 572.406 156.461 572.445V574.008C156.156 573.945 155.867 573.906 155.547 573.906C154.25 573.906 153.367 574.703 153.367 575.93V581H151.672ZM161.422 581.164C158.938 581.164 157.438 579.469 157.438 576.781V576.773C157.438 574.125 158.969 572.352 161.336 572.352C163.703 572.352 165.156 574.062 165.156 576.609V577.203H159.141C159.172 578.828 160.062 579.773 161.461 579.773C162.547 579.773 163.195 579.234 163.398 578.797L163.43 578.734L165.062 578.727L165.047 578.797C164.766 579.914 163.594 581.164 161.422 581.164ZM161.344 573.742C160.188 573.742 159.312 574.531 159.164 575.992H163.477C163.344 574.477 162.492 573.742 161.344 573.742ZM167.773 581V573.852H166.375V572.516H167.773V571.625C167.773 569.938 168.633 569.109 170.398 569.109C170.781 569.109 171.109 569.141 171.398 569.188V570.43C171.242 570.406 171.016 570.391 170.75 570.391C169.812 570.391 169.445 570.844 169.445 571.703V572.516H171.328V573.852H169.461V581H167.773ZM173.234 581V572.516H174.93V573.797H175.055C175.359 572.898 176.148 572.367 177.281 572.367C177.555 572.367 177.852 572.406 178.023 572.445V574.008C177.719 573.945 177.43 573.906 177.109 573.906C175.812 573.906 174.93 574.703 174.93 575.93V581H173.234ZM182.984 581.164C180.5 581.164 179 579.469 179 576.781V576.773C179 574.125 180.531 572.352 182.898 572.352C185.266 572.352 186.719 574.062 186.719 576.609V577.203H180.703C180.734 578.828 181.625 579.773 183.023 579.773C184.109 579.773 184.758 579.234 184.961 578.797L184.992 578.734L186.625 578.727L186.609 578.797C186.328 579.914 185.156 581.164 182.984 581.164ZM182.906 573.742C181.75 573.742 180.875 574.531 180.727 575.992H185.039C184.906 574.477 184.055 573.742 182.906 573.742ZM188.734 581V572.516H190.43V573.805H190.555C190.969 572.898 191.781 572.352 193.016 572.352C194.914 572.352 195.961 573.484 195.961 575.508V581H194.273V575.906C194.273 574.5 193.688 573.805 192.445 573.805C191.203 573.805 190.43 574.656 190.43 576.023V581H188.734ZM201.898 581.164C199.422 581.164 197.906 579.477 197.906 576.734V576.719C197.906 574.031 199.414 572.352 201.891 572.352C204.023 572.352 205.297 573.555 205.531 575.203V575.242L203.906 575.25L203.898 575.227C203.711 574.391 203.023 573.766 201.898 573.766C200.484 573.766 199.633 574.891 199.633 576.719V576.734C199.633 578.609 200.5 579.75 201.898 579.75C202.961 579.75 203.617 579.266 203.891 578.352L203.906 578.312H205.531L205.516 578.383C205.211 580.031 204 581.164 201.898 581.164ZM211.016 581.164C208.531 581.164 207.031 579.469 207.031 576.781V576.773C207.031 574.125 208.562 572.352 210.93 572.352C213.297 572.352 214.75 574.062 214.75 576.609V577.203H208.734C208.766 578.828 209.656 579.773 211.055 579.773C212.141 579.773 212.789 579.234 212.992 578.797L213.023 578.734L214.656 578.727L214.641 578.797C214.359 579.914 213.188 581.164 211.016 581.164ZM210.938 573.742C209.781 573.742 208.906 574.531 208.758 575.992H213.07C212.938 574.477 212.086 573.742 210.938 573.742Z" fill="black"/>
<path d="M212.262 347.057C212.139 346.077 210.981 345.619 210.221 346.252L203.948 351.48C203.835 351.574 203.694 351.625 203.547 351.625H198.688C197.825 351.625 197.125 352.325 197.125 353.188V358.813C197.125 359.676 197.825 360.375 198.687 360.375H203.547C203.694 360.375 203.835 360.427 203.948 360.52L210.221 365.748C210.981 366.381 212.139 365.924 212.262 364.943L212.382 363.985C213.045 358.682 213.045 353.318 212.382 348.016L212.262 347.057Z" fill="#627193"/>
<path d="M218.885 348.432C219.377 348.27 219.907 348.537 220.07 349.028C220.795 351.222 221.188 353.566 221.188 356C221.188 358.434 220.795 360.779 220.07 362.972C219.907 363.464 219.377 363.731 218.885 363.568C218.394 363.405 218.127 362.875 218.29 362.384C218.953 360.377 219.313 358.232 219.313 356C219.313 353.769 218.953 351.623 218.29 349.617C218.127 349.125 218.394 348.595 218.885 348.432Z" fill="#627193"/>
<path d="M216.54 350.935C216.362 350.449 215.823 350.2 215.337 350.378C214.851 350.557 214.602 351.096 214.78 351.582C215.286 352.958 215.562 354.446 215.562 356C215.562 357.29 215.372 358.533 215.019 359.705C214.999 359.77 214.979 359.835 214.958 359.9C214.903 360.075 214.843 360.248 214.78 360.419C214.602 360.905 214.851 361.444 215.337 361.622C215.823 361.801 216.362 361.552 216.54 361.066C216.613 360.869 216.681 360.67 216.745 360.47C216.768 360.396 216.792 360.321 216.814 360.246C217.22 358.901 217.437 357.475 217.437 356C217.437 354.222 217.121 352.515 216.54 350.935Z" fill="#627193"/>
<rect y="59" width="428" height="63" fill="#627193"/>
<path d="M196.328 99.4102C191.406 99.4102 188.43 95.9766 188.43 90.5508V90.5273C188.43 85.0898 191.477 81.6797 196.328 81.6797C201.191 81.6797 204.215 85.1016 204.215 90.5273V90.5508C204.215 93.7617 203.16 96.2812 201.285 97.793L203.512 100.828H200.805L199.375 98.8828C198.473 99.2344 197.441 99.4102 196.328 99.4102ZM196.328 97.0898C196.879 97.0898 197.406 97.0078 197.887 96.8555L195.707 93.9023H198.414L199.762 95.7305C200.898 94.5938 201.531 92.7891 201.531 90.5508V90.5273C201.531 86.5312 199.527 84 196.328 84C193.129 84 191.113 86.5312 191.113 90.5273V90.5508C191.113 94.5117 193.07 97.0898 196.328 97.0898ZM211.727 99.2461C208.855 99.2461 207.367 97.5234 207.367 94.5117V86.2734H209.91V93.9141C209.91 96.0234 210.684 97.0664 212.547 97.0664C214.586 97.0664 215.676 95.7891 215.676 93.7383V86.2734H218.207V99H215.676V97.0781H215.477C214.867 98.4492 213.578 99.2461 211.727 99.2461ZM223.199 84C222.32 84 221.605 83.2852 221.605 82.418C221.605 81.5391 222.32 80.8242 223.199 80.8242C224.066 80.8242 224.793 81.5391 224.793 82.418C224.793 83.2852 224.066 84 223.199 84ZM221.922 99V86.2734H224.453V99H221.922ZM227.863 99V97.3477L234.895 88.4766V88.2773H227.91V86.2734H237.895V88.0195L231.016 96.7969V96.9961H237.965V99H227.863Z" fill="white"/>
<path d="M128.734 218L125.695 206.727H127.516L129.586 215.492H129.695L132.047 206.727H133.672L136.039 215.492H136.148L138.211 206.727H140.031L136.984 218H135.336L132.914 209.57H132.805L130.391 218H128.734ZM142.031 218V206.188H143.727V210.805H143.852C144.266 209.898 145.078 209.352 146.312 209.352C148.211 209.352 149.258 210.484 149.258 212.508V218H147.57V212.906C147.57 211.5 146.984 210.805 145.742 210.805C144.5 210.805 143.727 211.656 143.727 213.023V218H142.031ZM153.953 218.141C152.336 218.141 151.141 217.156 151.141 215.617V215.602C151.141 214.086 152.281 213.203 154.305 213.078L156.602 212.945V212.195C156.602 211.266 156.016 210.75 154.867 210.75C153.93 210.75 153.312 211.094 153.109 211.695L153.102 211.727H151.469L151.477 211.672C151.68 210.281 153.016 209.352 154.945 209.352C157.078 209.352 158.281 210.414 158.281 212.195V218H156.602V216.797H156.469C155.969 217.656 155.078 218.141 153.953 218.141ZM152.828 215.547C152.828 216.328 153.492 216.789 154.406 216.789C155.672 216.789 156.602 215.961 156.602 214.867V214.141L154.531 214.273C153.359 214.344 152.828 214.766 152.828 215.531V215.547ZM163.875 218.055C162.008 218.055 161.242 217.398 161.242 215.766V210.852H159.914V209.516H161.242V207.375H162.969V209.516H164.789V210.852H162.969V215.359C162.969 216.273 163.312 216.648 164.148 216.648C164.406 216.648 164.555 216.641 164.789 216.617V217.969C164.516 218.016 164.203 218.055 163.875 218.055ZM172.023 208C171.438 208 170.961 207.523 170.961 206.945C170.961 206.359 171.438 205.883 172.023 205.883C172.602 205.883 173.086 206.359 173.086 206.945C173.086 207.523 172.602 208 172.023 208ZM171.172 218V209.516H172.859V218H171.172ZM178.414 218.164C176.367 218.164 175.07 217.203 174.906 215.781V215.773H176.602L176.609 215.781C176.82 216.422 177.438 216.852 178.445 216.852C179.492 216.852 180.219 216.375 180.219 215.68V215.664C180.219 215.133 179.82 214.773 178.836 214.547L177.484 214.234C175.883 213.867 175.141 213.141 175.141 211.898V211.891C175.141 210.414 176.516 209.352 178.438 209.352C180.375 209.352 181.617 210.32 181.766 211.703V211.711H180.148V211.695C179.984 211.102 179.383 210.656 178.43 210.656C177.5 210.656 176.828 211.117 176.828 211.797V211.812C176.828 212.344 177.219 212.672 178.172 212.898L179.516 213.203C181.148 213.586 181.93 214.281 181.93 215.508V215.523C181.93 217.094 180.43 218.164 178.414 218.164ZM189.156 220.984C188.945 220.984 188.695 220.969 188.477 220.945V219.609C188.641 219.633 188.852 219.641 189.047 219.641C189.836 219.641 190.312 219.305 190.562 218.445L190.688 218.008L187.609 209.516H189.438L191.562 216.297H191.711L193.828 209.516H195.609L192.453 218.328C191.734 220.352 190.875 220.984 189.156 220.984ZM200.594 218.164C198.102 218.164 196.578 216.5 196.578 213.766V213.75C196.578 211.023 198.109 209.352 200.594 209.352C203.07 209.352 204.602 211.016 204.602 213.75V213.766C204.602 216.5 203.078 218.164 200.594 218.164ZM200.594 216.75C202.047 216.75 202.875 215.641 202.875 213.766V213.75C202.875 211.867 202.047 210.766 200.594 210.766C199.133 210.766 198.312 211.867 198.312 213.75V213.766C198.312 215.648 199.133 216.75 200.594 216.75ZM209.453 218.164C207.539 218.164 206.547 217.016 206.547 215.008V209.516H208.242V214.609C208.242 216.016 208.758 216.711 210 216.711C211.359 216.711 212.086 215.859 212.086 214.492V209.516H213.773V218H212.086V216.719H211.953C211.547 217.633 210.688 218.164 209.453 218.164ZM216.219 218V209.516H217.914V210.797H218.039C218.344 209.898 219.133 209.367 220.266 209.367C220.539 209.367 220.836 209.406 221.008 209.445V211.008C220.703 210.945 220.414 210.906 220.094 210.906C218.797 210.906 217.914 211.703 217.914 212.93V218H216.219ZM227 220.828V209.516H228.695V210.852H228.82C229.312 209.922 230.242 209.367 231.43 209.367C233.57 209.367 234.945 211.078 234.945 213.75V213.766C234.945 216.453 233.586 218.141 231.43 218.141C230.266 218.141 229.273 217.57 228.82 216.656H228.695V220.828H227ZM230.953 216.695C232.367 216.695 233.219 215.586 233.219 213.766V213.75C233.219 211.922 232.367 210.82 230.953 210.82C229.539 210.82 228.664 211.938 228.664 213.75V213.766C228.664 215.578 229.539 216.695 230.953 216.695ZM236.984 218V209.516H238.68V210.797H238.805C239.109 209.898 239.898 209.367 241.031 209.367C241.305 209.367 241.602 209.406 241.773 209.445V211.008C241.469 210.945 241.18 210.906 240.859 210.906C239.562 210.906 238.68 211.703 238.68 212.93V218H236.984ZM246.734 218.164C244.25 218.164 242.75 216.469 242.75 213.781V213.773C242.75 211.125 244.281 209.352 246.648 209.352C249.016 209.352 250.469 211.062 250.469 213.609V214.203H244.453C244.484 215.828 245.375 216.773 246.773 216.773C247.859 216.773 248.508 216.234 248.711 215.797L248.742 215.734L250.375 215.727L250.359 215.797C250.078 216.914 248.906 218.164 246.734 218.164ZM246.656 210.742C245.5 210.742 244.625 211.531 244.477 212.992H248.789C248.656 211.477 247.805 210.742 246.656 210.742ZM253.086 218V210.852H251.688V209.516H253.086V208.625C253.086 206.938 253.945 206.109 255.711 206.109C256.094 206.109 256.422 206.141 256.711 206.188V207.43C256.555 207.406 256.328 207.391 256.062 207.391C255.125 207.391 254.758 207.844 254.758 208.703V209.516H256.641V210.852H254.773V218H253.086ZM258.547 218V209.516H260.242V210.797H260.367C260.672 209.898 261.461 209.367 262.594 209.367C262.867 209.367 263.164 209.406 263.336 209.445V211.008C263.031 210.945 262.742 210.906 262.422 210.906C261.125 210.906 260.242 211.703 260.242 212.93V218H258.547ZM268.297 218.164C265.812 218.164 264.312 216.469 264.312 213.781V213.773C264.312 211.125 265.844 209.352 268.211 209.352C270.578 209.352 272.031 211.062 272.031 213.609V214.203H266.016C266.047 215.828 266.938 216.773 268.336 216.773C269.422 216.773 270.07 216.234 270.273 215.797L270.305 215.734L271.938 215.727L271.922 215.797C271.641 216.914 270.469 218.164 268.297 218.164ZM268.219 210.742C267.062 210.742 266.188 211.531 266.039 212.992H270.352C270.219 211.477 269.367 210.742 268.219 210.742ZM274.047 218V209.516H275.742V210.805H275.867C276.281 209.898 277.094 209.352 278.328 209.352C280.227 209.352 281.273 210.484 281.273 212.508V218H279.586V212.906C279.586 211.5 279 210.805 277.758 210.805C276.516 210.805 275.742 211.656 275.742 213.023V218H274.047ZM287.211 218.164C284.734 218.164 283.219 216.477 283.219 213.734V213.719C283.219 211.031 284.727 209.352 287.203 209.352C289.336 209.352 290.609 210.555 290.844 212.203V212.242L289.219 212.25L289.211 212.227C289.023 211.391 288.336 210.766 287.211 210.766C285.797 210.766 284.945 211.891 284.945 213.719V213.734C284.945 215.609 285.812 216.75 287.211 216.75C288.273 216.75 288.93 216.266 289.203 215.352L289.219 215.312H290.844L290.828 215.383C290.523 217.031 289.312 218.164 287.211 218.164ZM296.328 218.164C293.844 218.164 292.344 216.469 292.344 213.781V213.773C292.344 211.125 293.875 209.352 296.242 209.352C298.609 209.352 300.062 211.062 300.062 213.609V214.203H294.047C294.078 215.828 294.969 216.773 296.367 216.773C297.453 216.773 298.102 216.234 298.305 215.797L298.336 215.734L299.969 215.727L299.953 215.797C299.672 216.914 298.5 218.164 296.328 218.164ZM296.25 210.742C295.094 210.742 294.219 211.531 294.07 212.992H298.383C298.25 211.477 297.398 210.742 296.25 210.742ZM127.852 237L125.508 228.516H127.211L128.734 235.062H128.859L130.609 228.516H132.219L133.969 235.062H134.102L135.617 228.516H137.297L134.961 237H133.219L131.461 230.672H131.328L129.578 237H127.852ZM139.109 237V225.188H140.805V229.805H140.93C141.344 228.898 142.156 228.352 143.391 228.352C145.289 228.352 146.336 229.484 146.336 231.508V237H144.648V231.906C144.648 230.5 144.062 229.805 142.82 229.805C141.578 229.805 140.805 230.656 140.805 232.023V237H139.109ZM152.266 237.164C149.781 237.164 148.281 235.469 148.281 232.781V232.773C148.281 230.125 149.812 228.352 152.18 228.352C154.547 228.352 156 230.062 156 232.609V233.203H149.984C150.016 234.828 150.906 235.773 152.305 235.773C153.391 235.773 154.039 235.234 154.242 234.797L154.273 234.734L155.906 234.727L155.891 234.797C155.609 235.914 154.438 237.164 152.266 237.164ZM152.188 229.742C151.031 229.742 150.156 230.531 150.008 231.992H154.32C154.188 230.477 153.336 229.742 152.188 229.742ZM158.016 237V228.516H159.711V229.805H159.836C160.25 228.898 161.062 228.352 162.297 228.352C164.195 228.352 165.242 229.484 165.242 231.508V237H163.555V231.906C163.555 230.5 162.969 229.805 161.727 229.805C160.484 229.805 159.711 230.656 159.711 232.023V237H158.016ZM172.867 227C172.281 227 171.805 226.523 171.805 225.945C171.805 225.359 172.281 224.883 172.867 224.883C173.445 224.883 173.93 225.359 173.93 225.945C173.93 226.523 173.445 227 172.867 227ZM172.016 237V228.516H173.703V237H172.016ZM179.375 237.055C177.508 237.055 176.742 236.398 176.742 234.766V229.852H175.414V228.516H176.742V226.375H178.469V228.516H180.289V229.852H178.469V234.359C178.469 235.273 178.812 235.648 179.648 235.648C179.906 235.648 180.055 235.641 180.289 235.617V236.969C180.016 237.016 179.703 237.055 179.375 237.055ZM190.211 237.164C187.734 237.164 186.219 235.477 186.219 232.734V232.719C186.219 230.031 187.727 228.352 190.203 228.352C192.336 228.352 193.609 229.555 193.844 231.203V231.242L192.219 231.25L192.211 231.227C192.023 230.391 191.336 229.766 190.211 229.766C188.797 229.766 187.945 230.891 187.945 232.719V232.734C187.945 234.609 188.812 235.75 190.211 235.75C191.273 235.75 191.93 235.266 192.203 234.352L192.219 234.312H193.844L193.828 234.383C193.523 236.031 192.312 237.164 190.211 237.164ZM199.359 237.164C196.867 237.164 195.344 235.5 195.344 232.766V232.75C195.344 230.023 196.875 228.352 199.359 228.352C201.836 228.352 203.367 230.016 203.367 232.75V232.766C203.367 235.5 201.844 237.164 199.359 237.164ZM199.359 235.75C200.812 235.75 201.641 234.641 201.641 232.766V232.75C201.641 230.867 200.812 229.766 199.359 229.766C197.898 229.766 197.078 230.867 197.078 232.75V232.766C197.078 234.648 197.898 235.75 199.359 235.75ZM205.391 237V228.516H207.086V229.82H207.211C207.586 228.891 208.414 228.352 209.523 228.352C210.68 228.352 211.5 228.953 211.875 229.867H212.008C212.438 228.953 213.414 228.352 214.594 228.352C216.305 228.352 217.305 229.383 217.305 231.148V237H215.617V231.555C215.617 230.383 215.086 229.805 213.977 229.805C212.898 229.805 212.188 230.609 212.188 231.633V237H210.5V231.383C210.5 230.414 209.867 229.805 208.867 229.805C207.844 229.805 207.086 230.68 207.086 231.789V237H205.391ZM223.234 237.164C220.75 237.164 219.25 235.469 219.25 232.781V232.773C219.25 230.125 220.781 228.352 223.148 228.352C225.516 228.352 226.969 230.062 226.969 232.609V233.203H220.953C220.984 234.828 221.875 235.773 223.273 235.773C224.359 235.773 225.008 235.234 225.211 234.797L225.242 234.734L226.875 234.727L226.859 234.797C226.578 235.914 225.406 237.164 223.234 237.164ZM223.156 229.742C222 229.742 221.125 230.531 220.977 231.992H225.289C225.156 230.477 224.305 229.742 223.156 229.742ZM232.07 237.164C230.023 237.164 228.727 236.203 228.562 234.781V234.773H230.258L230.266 234.781C230.477 235.422 231.094 235.852 232.102 235.852C233.148 235.852 233.875 235.375 233.875 234.68V234.664C233.875 234.133 233.477 233.773 232.492 233.547L231.141 233.234C229.539 232.867 228.797 232.141 228.797 230.898V230.891C228.797 229.414 230.172 228.352 232.094 228.352C234.031 228.352 235.273 229.32 235.422 230.703V230.711H233.805V230.695C233.641 230.102 233.039 229.656 232.086 229.656C231.156 229.656 230.484 230.117 230.484 230.797V230.812C230.484 231.344 230.875 231.672 231.828 231.898L233.172 232.203C234.805 232.586 235.586 233.281 235.586 234.508V234.523C235.586 236.094 234.086 237.164 232.07 237.164ZM245.188 237.055C243.32 237.055 242.555 236.398 242.555 234.766V229.852H241.227V228.516H242.555V226.375H244.281V228.516H246.102V229.852H244.281V234.359C244.281 235.273 244.625 235.648 245.461 235.648C245.719 235.648 245.867 235.641 246.102 235.617V236.969C245.828 237.016 245.516 237.055 245.188 237.055ZM251.578 237.164C249.086 237.164 247.562 235.5 247.562 232.766V232.75C247.562 230.023 249.094 228.352 251.578 228.352C254.055 228.352 255.586 230.016 255.586 232.75V232.766C255.586 235.5 254.062 237.164 251.578 237.164ZM251.578 235.75C253.031 235.75 253.859 234.641 253.859 232.766V232.75C253.859 230.867 253.031 229.766 251.578 229.766C250.117 229.766 249.297 230.867 249.297 232.75V232.766C249.297 234.648 250.117 235.75 251.578 235.75ZM264.312 237.141C262.695 237.141 261.5 236.156 261.5 234.617V234.602C261.5 233.086 262.641 232.203 264.664 232.078L266.961 231.945V231.195C266.961 230.266 266.375 229.75 265.227 229.75C264.289 229.75 263.672 230.094 263.469 230.695L263.461 230.727H261.828L261.836 230.672C262.039 229.281 263.375 228.352 265.305 228.352C267.438 228.352 268.641 229.414 268.641 231.195V237H266.961V235.797H266.828C266.328 236.656 265.438 237.141 264.312 237.141ZM263.188 234.547C263.188 235.328 263.852 235.789 264.766 235.789C266.031 235.789 266.961 234.961 266.961 233.867V233.141L264.891 233.273C263.719 233.344 263.188 233.766 263.188 234.531V234.547ZM129.422 256.055C127.555 256.055 126.789 255.398 126.789 253.766V248.852H125.461V247.516H126.789V245.375H128.516V247.516H130.336V248.852H128.516V253.359C128.516 254.273 128.859 254.648 129.695 254.648C129.953 254.648 130.102 254.641 130.336 254.617V255.969C130.062 256.016 129.75 256.055 129.422 256.055ZM132.391 256V244.188H134.086V248.805H134.211C134.625 247.898 135.438 247.352 136.672 247.352C138.57 247.352 139.617 248.484 139.617 250.508V256H137.93V250.906C137.93 249.5 137.344 248.805 136.102 248.805C134.859 248.805 134.086 249.656 134.086 251.023V256H132.391ZM145.547 256.164C143.062 256.164 141.562 254.469 141.562 251.781V251.773C141.562 249.125 143.094 247.352 145.461 247.352C147.828 247.352 149.281 249.062 149.281 251.609V252.203H143.266C143.297 253.828 144.188 254.773 145.586 254.773C146.672 254.773 147.32 254.234 147.523 253.797L147.555 253.734L149.188 253.727L149.172 253.797C148.891 254.914 147.719 256.164 145.547 256.164ZM145.469 248.742C144.312 248.742 143.438 249.531 143.289 250.992H147.602C147.469 249.477 146.617 248.742 145.469 248.742ZM151.297 256V247.516H152.992V248.797H153.117C153.422 247.898 154.211 247.367 155.344 247.367C155.617 247.367 155.914 247.406 156.086 247.445V249.008C155.781 248.945 155.492 248.906 155.172 248.906C153.875 248.906 152.992 249.703 152.992 250.93V256H151.297ZM159.969 256.141C158.352 256.141 157.156 255.156 157.156 253.617V253.602C157.156 252.086 158.297 251.203 160.32 251.078L162.617 250.945V250.195C162.617 249.266 162.031 248.75 160.883 248.75C159.945 248.75 159.328 249.094 159.125 249.695L159.117 249.727H157.484L157.492 249.672C157.695 248.281 159.031 247.352 160.961 247.352C163.094 247.352 164.297 248.414 164.297 250.195V256H162.617V254.797H162.484C161.984 255.656 161.094 256.141 159.969 256.141ZM158.844 253.547C158.844 254.328 159.508 254.789 160.422 254.789C161.688 254.789 162.617 253.961 162.617 252.867V252.141L160.547 252.273C159.375 252.344 158.844 252.766 158.844 253.531V253.547ZM166.688 258.828V247.516H168.383V248.852H168.508C169 247.922 169.93 247.367 171.117 247.367C173.258 247.367 174.633 249.078 174.633 251.75V251.766C174.633 254.453 173.273 256.141 171.117 256.141C169.953 256.141 168.961 255.57 168.508 254.656H168.383V258.828H166.688ZM170.641 254.695C172.055 254.695 172.906 253.586 172.906 251.766V251.75C172.906 249.922 172.055 248.82 170.641 248.82C169.227 248.82 168.352 249.938 168.352 251.75V251.766C168.352 253.578 169.227 254.695 170.641 254.695ZM177.555 246C176.969 246 176.492 245.523 176.492 244.945C176.492 244.359 176.969 243.883 177.555 243.883C178.133 243.883 178.617 244.359 178.617 244.945C178.617 245.523 178.133 246 177.555 246ZM176.703 256V247.516H178.391V256H176.703ZM183.945 256.164C181.898 256.164 180.602 255.203 180.438 253.781V253.773H182.133L182.141 253.781C182.352 254.422 182.969 254.852 183.977 254.852C185.023 254.852 185.75 254.375 185.75 253.68V253.664C185.75 253.133 185.352 252.773 184.367 252.547L183.016 252.234C181.414 251.867 180.672 251.141 180.672 249.898V249.891C180.672 248.414 182.047 247.352 183.969 247.352C185.906 247.352 187.148 248.32 187.297 249.703V249.711H185.68V249.695C185.516 249.102 184.914 248.656 183.961 248.656C183.031 248.656 182.359 249.117 182.359 249.797V249.812C182.359 250.344 182.75 250.672 183.703 250.898L185.047 251.203C186.68 251.586 187.461 252.281 187.461 253.508V253.523C187.461 255.094 185.961 256.164 183.945 256.164ZM192.625 256.055C190.758 256.055 189.992 255.398 189.992 253.766V248.852H188.664V247.516H189.992V245.375H191.719V247.516H193.539V248.852H191.719V253.359C191.719 254.273 192.062 254.648 192.898 254.648C193.156 254.648 193.305 254.641 193.539 254.617V255.969C193.266 256.016 192.953 256.055 192.625 256.055ZM201.734 252.5L201.727 251.875C201.688 250.773 202.164 250.07 203.234 249.43C204.18 248.859 204.516 248.406 204.516 247.609V247.594C204.516 246.719 203.82 246.07 202.75 246.07C201.672 246.07 200.977 246.719 200.914 247.75H200.898L199.289 247.758V247.742C199.359 245.977 200.57 244.633 202.836 244.633C204.898 244.633 206.289 245.859 206.289 247.523V247.539C206.289 248.742 205.68 249.594 204.648 250.211C203.641 250.805 203.352 251.219 203.352 252.023V252.5H201.734ZM202.641 256.172C201.922 256.172 201.43 255.703 201.43 255.008C201.43 254.305 201.922 253.836 202.641 253.836C203.359 253.836 203.844 254.305 203.844 255.008C203.844 255.703 203.359 256.172 202.641 256.172Z" fill="#272827"/>
<path d="M63.6286 24.7231C66.1852 24.7231 68.4099 26.541 68.4099 30.8574V30.874C68.4099 34.9082 66.592 37.2988 63.5788 37.2988C61.3791 37.2988 59.7355 35.9956 59.3537 34.1611L59.3371 34.0698H61.4455L61.4704 34.1528C61.7858 34.9912 62.5246 35.5391 63.5788 35.5391C65.4797 35.5391 66.2849 33.6797 66.3762 31.3887C66.3762 31.2974 66.3845 31.2061 66.3845 31.1147H66.2184C65.7785 32.061 64.7326 32.8994 63.0891 32.8994C60.7897 32.8994 59.1794 31.2227 59.1794 28.9482V28.9316C59.1794 26.4995 61.0305 24.7231 63.6286 24.7231ZM63.6203 31.2559C64.9733 31.2559 66.0109 30.2764 66.0109 28.9233V28.9067C66.0109 27.5371 64.9733 26.4663 63.6452 26.4663C62.3254 26.4663 61.2712 27.5205 61.2712 28.8569V28.8735C61.2712 30.2598 62.259 31.2559 63.6203 31.2559ZM71.7704 29.2388C71.015 29.2388 70.4506 28.6577 70.4506 27.9272C70.4506 27.1885 71.015 26.6157 71.7704 26.6157C72.5341 26.6157 73.0902 27.1885 73.0902 27.9272C73.0902 28.6577 72.5341 29.2388 71.7704 29.2388ZM71.7704 35.3979C71.015 35.3979 70.4506 34.8252 70.4506 34.0864C70.4506 33.3477 71.015 32.7749 71.7704 32.7749C72.5341 32.7749 73.0902 33.3477 73.0902 34.0864C73.0902 34.8252 72.5341 35.3979 71.7704 35.3979ZM80.9415 37V34.7007H75.0812V32.9492C76.6334 30.2515 78.3351 27.4956 79.962 25.022H82.9918V32.9326H84.6022V34.7007H82.9918V37H80.9415ZM77.0733 32.9824H80.9747V26.7319H80.8502C79.6217 28.6079 78.2355 30.8242 77.0733 32.8579V32.9824ZM89.158 37V27.1304H89.0169L86.0369 29.2388V27.2217L89.1663 25.022H91.2996V37H89.158Z" fill="black"/>
<rect x="151.5" y="10" width="125" height="37" rx="18.5" fill="black"/>
<rect x="151.5" y="10" width="80" height="37" rx="18.5" fill="black"/>
<rect x="239.5" y="10" width="37" height="37" rx="18.5" fill="black"/>
<path d="M323.049 26C323.049 25.4477 323.497 25 324.049 25H325.049C325.602 25 326.049 25.4477 326.049 26V34C326.049 34.5523 325.602 35 325.049 35H324.049C323.497 35 323.049 34.5523 323.049 34V26Z" fill="black"/>
<path d="M328.049 24C328.049 23.4477 328.497 23 329.049 23H330.049C330.602 23 331.049 23.4477 331.049 24V34C331.049 34.5523 330.602 35 330.049 35H329.049C328.497 35 328.049 34.5523 328.049 34V24Z" fill="black"/>
<path d="M318.049 29.5C318.049 28.9477 318.497 28.5 319.049 28.5H320.049C320.602 28.5 321.049 28.9477 321.049 29.5V34C321.049 34.5523 320.602 35 320.049 35H319.049C318.497 35 318.049 34.5523 318.049 34V29.5Z" fill="black"/>
<path d="M313.049 32C313.049 31.4477 313.497 31 314.049 31H315.049C315.602 31 316.049 31.4477 316.049 32V34C316.049 34.5523 315.602 35 315.049 35H314.049C313.497 35 313.049 34.5523 313.049 34V32Z" fill="black"/>
<path fill-rule="evenodd" clip-rule="evenodd" d="M347.55 25.5875C350.016 25.5876 352.389 26.5551 354.176 28.2898C354.311 28.4237 354.526 28.4221 354.659 28.286L355.945 26.9605C356.012 26.8915 356.05 26.798 356.049 26.7008C356.049 26.6035 356.01 26.5105 355.942 26.4423C351.25 21.8526 343.848 21.8526 339.156 26.4423C339.089 26.5105 339.05 26.6034 339.049 26.7007C339.049 26.7979 339.086 26.8914 339.153 26.9605L340.44 28.286C340.573 28.4223 340.788 28.424 340.923 28.2898C342.71 26.5549 345.083 25.5875 347.55 25.5875ZM347.585 29.5894C348.94 29.5893 350.247 30.1035 351.252 31.032C351.388 31.1638 351.602 31.1609 351.734 31.0255L353.019 29.7C353.087 29.6304 353.125 29.5361 353.124 29.4381C353.123 29.3401 353.083 29.2466 353.014 29.1784C349.955 26.2739 345.218 26.2739 342.159 29.1784C342.09 29.2466 342.05 29.3401 342.049 29.4382C342.048 29.5362 342.086 29.6305 342.154 29.7L343.439 31.0255C343.571 31.1609 343.785 31.1638 343.921 31.032C344.925 30.1041 346.231 29.5899 347.585 29.5894ZM350.199 32.1767C350.201 32.275 350.163 32.3698 350.094 32.4386L347.871 34.7289C347.806 34.7962 347.717 34.834 347.624 34.834C347.532 34.834 347.443 34.7962 347.377 34.7289L345.154 32.4386C345.085 32.3697 345.047 32.2749 345.049 32.1766C345.051 32.0783 345.093 31.9853 345.165 31.9194C346.584 30.6935 348.664 30.6935 350.084 31.9194C350.155 31.9853 350.197 32.0784 350.199 32.1767Z" fill="black"/>
<path opacity="0.35" d="M364.549 27C364.549 25.067 366.116 23.5 368.049 23.5H385.049C386.982 23.5 388.549 25.067 388.549 27V32C388.549 33.933 386.982 35.5 385.049 35.5H368.049C366.116 35.5 364.549 33.933 364.549 32V27Z" stroke="black"/>
<path opacity="0.4" d="M390.049 28V32.2203C390.898 31.8629 391.451 31.0314 391.451 30.1102C391.451 29.1889 390.898 28.3574 390.049 28Z" fill="black"/>
<path d="M366.049 27C366.049 25.8954 366.945 25 368.049 25H385.049C386.154 25 387.049 25.8954 387.049 27V32C387.049 33.1046 386.154 34 385.049 34H368.049C366.945 34 366.049 33.1046 366.049 32V27Z" fill="black"/>
<g filter="url(#filter4_d_13_3797)">
<rect x="50" y="846" width="328" height="47" rx="15" fill="#627193"/>
</g>
<path d="M176.88 876.308C174.015 876.308 172.178 874.857 172.002 872.722L171.993 872.607H173.927L173.936 872.704C174.041 873.855 175.263 874.594 176.959 874.594C178.576 874.594 179.728 873.785 179.728 872.607V872.599C179.728 871.623 179.042 870.99 177.363 870.63L175.975 870.331C173.399 869.786 172.292 868.591 172.292 866.719V866.71C172.301 864.521 174.199 863.01 176.889 863.01C179.578 863.01 181.336 864.53 181.477 866.499L181.485 866.622H179.578L179.561 866.508C179.394 865.471 178.4 864.715 176.862 864.724C175.377 864.724 174.278 865.418 174.278 866.613V866.622C174.278 867.562 174.946 868.178 176.59 868.529L177.97 868.837C180.633 869.408 181.723 870.48 181.723 872.361V872.37C181.723 874.796 179.833 876.308 176.88 876.308ZM186.662 876.158C184.843 876.158 183.498 875.051 183.498 873.319V873.302C183.498 871.597 184.781 870.604 187.058 870.463L189.642 870.313V869.47C189.642 868.424 188.982 867.844 187.69 867.844C186.636 867.844 185.941 868.23 185.713 868.907L185.704 868.942H183.867L183.876 868.881C184.104 867.316 185.607 866.271 187.778 866.271C190.178 866.271 191.531 867.466 191.531 869.47V876H189.642V874.646H189.492C188.93 875.613 187.928 876.158 186.662 876.158ZM185.396 873.24C185.396 874.119 186.144 874.638 187.172 874.638C188.596 874.638 189.642 873.706 189.642 872.476V871.658L187.312 871.808C185.994 871.887 185.396 872.361 185.396 873.223V873.24ZM196.532 876L193.078 866.455H195.1L197.481 874.066H197.631L200.004 866.455H202.008L198.562 876H196.532ZM207.562 876.185C204.768 876.185 203.08 874.277 203.08 871.254V871.245C203.08 868.266 204.803 866.271 207.466 866.271C210.129 866.271 211.764 868.195 211.764 871.061V871.729H204.996C205.031 873.557 206.033 874.62 207.606 874.62C208.828 874.62 209.558 874.014 209.786 873.521L209.821 873.451L211.658 873.442L211.641 873.521C211.324 874.778 210.006 876.185 207.562 876.185ZM207.475 867.835C206.174 867.835 205.189 868.723 205.022 870.366H209.874C209.725 868.661 208.767 867.835 207.475 867.835ZM224.578 876.308C220.887 876.308 218.654 873.732 218.654 869.663V869.646C218.654 865.567 220.939 863.01 224.578 863.01C228.226 863.01 230.493 865.576 230.493 869.646V869.663C230.493 872.071 229.702 873.961 228.296 875.095L229.966 877.371H227.936L226.863 875.912C226.187 876.176 225.413 876.308 224.578 876.308ZM224.578 874.567C224.991 874.567 225.387 874.506 225.747 874.392L224.112 872.177H226.143L227.153 873.548C228.006 872.695 228.48 871.342 228.48 869.663V869.646C228.48 866.648 226.978 864.75 224.578 864.75C222.179 864.75 220.667 866.648 220.667 869.646V869.663C220.667 872.634 222.135 874.567 224.578 874.567ZM236.127 876.185C233.974 876.185 232.857 874.893 232.857 872.634V866.455H234.765V872.186C234.765 873.768 235.345 874.55 236.742 874.55C238.271 874.55 239.089 873.592 239.089 872.054V866.455H240.987V876H239.089V874.559H238.939C238.482 875.587 237.516 876.185 236.127 876.185ZM244.731 864.75C244.072 864.75 243.536 864.214 243.536 863.563C243.536 862.904 244.072 862.368 244.731 862.368C245.382 862.368 245.927 862.904 245.927 863.563C245.927 864.214 245.382 864.75 244.731 864.75ZM243.773 876V866.455H245.672V876H243.773ZM248.229 876V874.761L253.503 868.107V867.958H248.265V866.455H255.753V867.765L250.594 874.348V874.497H255.806V876H248.229Z" fill="#FFFFFE"/>
<path d="M37.6094 100.391C37.8672 100.648 38.1953 100.789 38.582 100.789C39.3555 100.789 39.9766 100.18 39.9766 99.4062C39.9766 99.0195 39.8125 98.668 39.543 98.3984L31.3398 90.3828L39.543 82.3906C39.8125 82.1211 39.9766 81.7578 39.9766 81.3828C39.9766 80.6094 39.3555 80 38.582 80C38.1953 80 37.8672 80.1406 37.6094 80.3984L28.4922 89.3047C28.1641 89.6094 28.0117 89.9844 28 90.3945C28 90.8047 28.1641 91.1562 28.4922 91.4727L37.6094 100.391Z" fill="white"/>
<defs>
<filter id="filter0_d_13_3797" x="74" y="138" width="280" height="204" filterUnits="userSpaceOnUse" color-interpolation-filters="sRGB">
<feFlood flood-opacity="0" result="BackgroundImageFix"/>
<feColorMatrix in="SourceAlpha" type="matrix" values="0 0 0 0 0 0 0 0 0 0 0 0 0 0 0 0 0 0 127 0" result="hardAlpha"/>
<feOffset dy="2"/>
<feGaussianBlur stdDeviation="4.5"/>
<feComposite in2="hardAlpha" operator="out"/>
<feColorMatrix type="matrix" values="0 0 0 0 0 0 0 0 0 0 0 0 0 0 0 0 0 0 0.25 0"/>
<feBlend mode="normal" in2="BackgroundImageFix" result="effect1_dropShadow_13_3797"/>
<feBlend mode="normal" in="SourceGraphic" in2="effect1_dropShadow_13_3797" result="shape"/>
</filter>
<filter id="filter1_d_13_3797" x="74" y="407" width="280" height="53" filterUnits="userSpaceOnUse" color-interpolation-filters="sRGB">
<feFlood flood-opacity="0" result="BackgroundImageFix"/>
<feColorMatrix in="SourceAlpha" type="matrix" values="0 0 0 0 0 0 0 0 0 0 0 0 0 0 0 0 0 0 127 0" result="hardAlpha"/>
<feOffset dy="2"/>
<feGaussianBlur stdDeviation="4.5"/>
<feComposite in2="hardAlpha" operator="out"/>
<feColorMatrix type="matrix" values="0 0 0 0 0 0 0 0 0 0 0 0 0 0 0 0 0 0 0.25 0"/>
<feBlend mode="normal" in2="BackgroundImageFix" result="effect1_dropShadow_13_3797"/>
<feBlend mode="normal" in="SourceGraphic" in2="effect1_dropShadow_13_3797" result="shape"/>
</filter>
<filter id="filter2_d_13_3797" x="74" y="478" width="280" height="53" filterUnits="userSpaceOnUse" color-interpolation-filters="sRGB">
<feFlood flood-opacity="0" result="BackgroundImageFix"/>
<feColorMatrix in="SourceAlpha" type="matrix" values="0 0 0 0 0 0 0 0 0 0 0 0 0 0 0 0 0 0 127 0" result="hardAlpha"/>
<feOffset dy="2"/>
<feGaussianBlur stdDeviation="4.5"/>
<feComposite in2="hardAlpha" operator="out"/>
<feColorMatrix type="matrix" values="0 0 0 0 0 0 0 0 0 0 0 0 0 0 0 0 0 0 0.25 0"/>
<feBlend mode="normal" in2="BackgroundImageFix" result="effect1_dropShadow_13_3797"/>
<feBlend mode="normal" in="SourceGraphic" in2="effect1_dropShadow_13_3797" result="shape"/>
</filter>
<filter id="filter3_d_13_3797" x="74" y="550" width="280" height="53" filterUnits="userSpaceOnUse" color-interpolation-filters="sRGB">
<feFlood flood-opacity="0" result="BackgroundImageFix"/>
<feColorMatrix in="SourceAlpha" type="matrix" values="0 0 0 0 0 0 0 0 0 0 0 0 0 0 0 0 0 0 127 0" result="hardAlpha"/>
<feOffset dy="2"/>
<feGaussianBlur stdDeviation="4.5"/>
<feComposite in2="hardAlpha" operator="out"/>
<feColorMatrix type="matrix" values="0 0 0 0 0 0 0 0 0 0 0 0 0 0 0 0 0 0 0.25 0"/>
<feBlend mode="normal" in2="BackgroundImageFix" result="effect1_dropShadow_13_3797"/>
<feBlend mode="normal" in="SourceGraphic" in2="effect1_dropShadow_13_3797" result="shape"/>
</filter>
<filter id="filter4_d_13_3797" x="41" y="839" width="346" height="65" filterUnits="userSpaceOnUse" color-interpolation-filters="sRGB">
<feFlood flood-opacity="0" result="BackgroundImageFix"/>
<feColorMatrix in="SourceAlpha" type="matrix" values="0 0 0 0 0 0 0 0 0 0 0 0 0 0 0 0 0 0 127 0" result="hardAlpha"/>
<feOffset dy="2"/>
<feGaussianBlur stdDeviation="4.5"/>
<feComposite in2="hardAlpha" operator="out"/>
<feColorMatrix type="matrix" values="0 0 0 0 0 0 0 0 0 0 0 0 0 0 0 0 0 0 0.25 0"/>
<feBlend mode="normal" in2="BackgroundImageFix" result="effect1_dropShadow_13_3797"/>
<feBlend mode="normal" in="SourceGraphic" in2="effect1_dropShadow_13_3797" result="shape"/>
</filter>
</defs>
</svg>
