<svg width="1246" height="624" viewBox="0 0 1246 624" fill="none" xmlns="http://www.w3.org/2000/svg">
<line x1="0.0012087" y1="1.5" x2="1241" y2="2.5" stroke="#4D6149" stroke-width="3"/>
<line y1="156.5" x2="1241" y2="156.5" stroke="#4D6149" stroke-width="3"/>
<line y1="311.5" x2="1242" y2="311.5" stroke="#4D6149" stroke-width="3"/>
<line y1="466.5" x2="1242" y2="466.5" stroke="#4D6149" stroke-width="3"/>
<line x1="0.00120676" y1="621.5" x2="1243" y2="622.5" stroke="#4D6149" stroke-width="3"/>
<line x1="1.5" y1="2" x2="1.5" y2="623" stroke="#4D6149" stroke-width="3"/>
<line x1="311.5" y1="2" x2="311.5" y2="623" stroke="#4D6149" stroke-width="3"/>
<line x1="621.5" y1="2" x2="621.5" y2="623" stroke="#4D6149" stroke-width="3"/>
<line x1="931.5" y1="3" x2="931.5" y2="624" stroke="#4D6149" stroke-width="3"/>
<line x1="1240.5" y1="1.99046" x2="1244.46" y2="623.991" stroke="#4D6149" stroke-width="3"/>
<path d="M77.9297 82.8281V79.7812C77.9297 73.7969 81.086 70.25 86.5704 70.25C89.2266 70.25 91.3985 71.0625 92.9141 72.5938C93.961 73.6406 94.6172 74.9688 94.6172 75.9062C94.6172 76.8281 94.0079 77.4062 93.1172 77.4062C92.4297 77.4062 91.9766 77.1406 91.4141 76.3125C90.1797 74.2812 88.7422 73.3438 86.7422 73.3438C83.3672 73.3438 81.461 75.7188 81.461 79.8906V82.7344C81.461 87 83.3516 89.3594 86.7422 89.3594C88.7735 89.3594 90.3204 88.4375 91.4766 86.4531C92.0391 85.6406 92.4454 85.3438 93.1016 85.3438C94.0391 85.3438 94.6172 85.9375 94.6172 86.8438C94.6172 87.8906 93.8829 89.2812 92.711 90.3281C91.2266 91.7031 89.1485 92.4531 86.5704 92.4531C81.0547 92.4531 77.9297 88.9375 77.9297 82.8281ZM104.6 75.1719C108.897 75.1719 111.975 77.9219 111.975 82.6094V84.8281C111.975 89.5938 108.897 92.3125 104.6 92.3125C100.287 92.3125 97.2092 89.5938 97.2092 84.8281V82.625C97.2092 77.9219 100.287 75.1719 104.6 75.1719ZM104.6 77.9844C102.24 77.9844 100.756 79.8438 100.756 82.7812V84.7031C100.756 87.6875 102.24 89.5156 104.6 89.5156C106.975 89.5156 108.412 87.6875 108.412 84.7031V82.7812C108.412 79.8438 106.975 77.9844 104.6 77.9844ZM138.442 90.2344C138.442 91.4688 137.801 92.1562 136.707 92.1562C135.614 92.1562 134.989 91.4688 134.989 90.2344V81.4219C134.989 79.3438 133.817 78.1562 131.848 78.1562C129.926 78.1562 128.551 79.6094 128.551 81.7188V90.2344C128.551 91.4688 127.942 92.1562 126.864 92.1562C125.77 92.1562 125.161 91.4688 125.161 90.2344V81.5156C125.161 79.4375 123.926 78.1562 121.989 78.1562C120.067 78.1562 118.739 79.5625 118.739 81.6875V90.2344C118.739 91.4688 118.098 92.1562 117.004 92.1562C115.895 92.1562 115.27 91.4688 115.27 90.2344V77.2344C115.27 76.0625 115.926 75.3438 116.989 75.3438C118.02 75.3438 118.645 76.0312 118.676 77.1719V78.1719H118.848C119.442 76.3438 121.114 75.2344 123.348 75.2344C125.661 75.2344 127.364 76.4062 127.911 78.3438H128.082C128.832 76.3906 130.676 75.2344 133.067 75.2344C136.457 75.2344 138.442 77.1562 138.442 80.4219V90.2344ZM145.878 96.0156C145.878 97.25 145.237 97.9375 144.128 97.9375C143.034 97.9375 142.409 97.25 142.409 96.0156V77.2656C142.409 76.0312 143.003 75.3438 144.081 75.3438C145.128 75.3438 145.737 75.9688 145.784 77.0938V78.1094H145.956C146.628 76.3281 148.487 75.2344 150.831 75.2344C154.69 75.2344 157.065 77.9688 157.065 82.4375V85.0156C157.065 89.5 154.659 92.2344 150.753 92.2344C148.487 92.2344 146.784 91.25 146.049 89.5156H145.878V96.0156ZM145.878 85.125C145.878 87.6719 147.456 89.375 149.768 89.375C152.159 89.375 153.534 87.6094 153.534 84.5469V82.9219C153.534 79.8281 152.159 78.0938 149.721 78.0938C147.331 78.0938 145.878 79.7656 145.878 82.5938V85.125ZM159.766 84.9375V82.5938C159.766 78.1875 162.688 75.1719 166.954 75.1719C171.032 75.1719 173.923 78.1094 173.923 82.1719C173.923 84 173.485 84.5625 172.11 84.5625H163.298V85.3438C163.298 87.8906 164.891 89.5156 167.501 89.5156C168.829 89.5156 169.813 89.1406 170.61 88.4219C171.423 87.7344 171.673 87.5625 172.22 87.5625C172.97 87.5625 173.485 88.1094 173.485 88.9062C173.485 89.5156 173.11 90.1719 172.47 90.6875C171.407 91.7031 169.47 92.3125 167.298 92.3125C162.641 92.3125 159.766 89.5312 159.766 84.9375ZM163.298 82.1406H170.563V82.0938C170.563 79.5781 169.173 77.9531 167.001 77.9531C164.766 77.9531 163.298 79.625 163.298 82.0938V82.1406ZM178.343 87.6094V78.3594H177.343C176.39 78.3594 175.812 77.8281 175.812 76.9688C175.812 76.0938 176.374 75.5781 177.343 75.5781H178.405V73.1562C178.405 71.9688 179.015 71.2812 180.093 71.2812C181.171 71.2812 181.796 71.9688 181.796 73.1562V75.5781H183.702C184.671 75.5781 185.218 76.0938 185.218 76.9688C185.218 77.8281 184.655 78.3594 183.702 78.3594H181.827V87.3594C181.827 88.9844 182.233 89.4844 183.608 89.4844C184.046 89.4844 184.343 89.4375 184.687 89.4375C185.343 89.4375 185.812 89.875 185.812 90.5625C185.812 91.0938 185.562 91.5469 185.046 91.8438C184.53 92.1406 183.78 92.2969 182.765 92.2969C179.64 92.2969 178.343 91 178.343 87.6094ZM188.263 71.3281C188.263 70.2031 189.154 69.3906 190.31 69.3906C191.513 69.3906 192.388 70.2031 192.388 71.3281C192.388 72.4688 191.513 73.2969 190.31 73.2969C189.154 73.2969 188.263 72.4688 188.263 71.3281ZM192.06 90.2344C192.06 91.5156 191.372 92.1562 190.326 92.1562C189.279 92.1562 188.591 91.5 188.591 90.2344V77.2656C188.591 75.9844 189.294 75.3438 190.326 75.3438C191.372 75.3438 192.06 76 192.06 77.2656V90.2344ZM197.246 87.6094V78.3594H196.246C195.292 78.3594 194.714 77.8281 194.714 76.9688C194.714 76.0938 195.277 75.5781 196.246 75.5781H197.308V73.1562C197.308 71.9688 197.917 71.2812 198.996 71.2812C200.074 71.2812 200.699 71.9688 200.699 73.1562V75.5781H202.605C203.574 75.5781 204.121 76.0938 204.121 76.9688C204.121 77.8281 203.558 78.3594 202.605 78.3594H200.73V87.3594C200.73 88.9844 201.136 89.4844 202.511 89.4844C202.949 89.4844 203.246 89.4375 203.589 89.4375C204.246 89.4375 204.714 89.875 204.714 90.5625C204.714 91.0938 204.464 91.5469 203.949 91.8438C203.433 92.1406 202.683 92.2969 201.667 92.2969C198.542 92.2969 197.246 91 197.246 87.6094ZM213.713 75.1719C218.009 75.1719 221.088 77.9219 221.088 82.6094V84.8281C221.088 89.5938 218.009 92.3125 213.713 92.3125C209.4 92.3125 206.322 89.5938 206.322 84.8281V82.625C206.322 77.9219 209.4 75.1719 213.713 75.1719ZM213.713 77.9844C211.353 77.9844 209.869 79.8438 209.869 82.7812V84.7031C209.869 87.6875 211.353 89.5156 213.713 89.5156C216.088 89.5156 217.525 87.6875 217.525 84.7031V82.7812C217.525 79.8438 216.088 77.9844 213.713 77.9844ZM227.867 90.2344C227.867 91.4531 227.227 92.1562 226.117 92.1562C225.008 92.1562 224.398 91.4531 224.398 90.2344V77.2656C224.398 76.0469 225.039 75.3438 226.133 75.3438C227.164 75.3438 227.758 75.9844 227.805 77.0938V77.5938H227.93C228.68 76.0312 229.93 75.2344 231.461 75.2344C232.008 75.2344 232.461 75.3594 232.773 75.6094C233.148 75.8594 233.352 76.2812 233.352 76.7969C233.352 77.3438 233.164 77.7344 232.789 77.9844C232.477 78.2031 232.023 78.2969 231.43 78.3125C229.07 78.3438 227.867 79.625 227.867 82.2188V90.2344Z" fill="#242323"/>
<path d="M95.178 238.031V234.641C95.178 228.719 98.2405 225.219 103.522 225.219C106.116 225.219 108.147 226.047 109.647 227.578C110.694 228.672 111.366 230.047 111.366 230.953C111.366 231.719 110.897 232.172 110.178 232.172C109.569 232.172 109.178 231.922 108.741 231.094C107.491 228.766 105.881 227.688 103.631 227.688C99.9593 227.688 97.9124 230.219 97.9124 234.656V238.016C97.9124 242.5 99.9593 245 103.631 245C105.912 245 107.631 243.938 108.803 241.656C109.241 240.875 109.569 240.578 110.147 240.578C110.928 240.578 111.366 241.062 111.366 241.797C111.366 242.75 110.662 244.141 109.6 245.203C108.131 246.672 106.084 247.453 103.522 247.453C98.2249 247.453 95.178 244.016 95.178 238.031ZM124.098 244.812C123.114 246.406 121.442 247.266 119.364 247.266C116.161 247.266 114.004 245.234 114.004 242.219C114.004 239.234 116.176 237.375 119.786 237.375H124.129V235.781C124.129 233.672 122.864 232.594 120.504 232.594C119.114 232.594 118.176 233.078 117.192 234.203C116.817 234.641 116.458 234.797 115.973 234.797C115.348 234.797 114.926 234.375 114.926 233.734C114.926 232.812 115.567 231.906 116.879 231.156C117.833 230.609 119.067 230.312 120.676 230.312C124.629 230.312 126.817 232.25 126.817 235.766V245.672C126.817 246.609 126.333 247.156 125.504 247.156C124.708 247.156 124.239 246.625 124.208 245.734V244.812H124.098ZM116.754 242.156C116.754 243.859 118.098 245.016 120.098 245.016C122.364 245.016 124.129 243.453 124.129 241.406V239.547H119.926C117.911 239.547 116.754 240.484 116.754 242.156ZM132.44 247.156C131.674 247.156 131.112 246.672 131.112 245.656V225.953C131.112 224.938 131.674 224.453 132.44 224.453C133.206 224.453 133.784 224.938 133.784 225.953V245.656C133.784 246.672 133.206 247.156 132.44 247.156ZM160.657 245.656C160.657 246.594 160.157 247.156 159.313 247.156C158.47 247.156 157.97 246.594 157.97 245.656V236.141C157.97 233.938 156.673 232.672 154.501 232.672C152.376 232.672 150.813 234.266 150.813 236.5V245.656C150.813 246.594 150.313 247.156 149.47 247.156C148.626 247.156 148.142 246.594 148.142 245.656V236.25C148.142 234.047 146.735 232.672 144.595 232.672C142.485 232.672 140.97 234.219 140.97 236.469V245.656C140.97 246.594 140.47 247.156 139.626 247.156C138.782 247.156 138.282 246.594 138.282 245.656V231.922C138.282 230.984 138.798 230.422 139.626 230.422C140.454 230.422 140.954 230.984 140.954 231.906V233.188H141.095C141.704 231.359 143.329 230.312 145.548 230.312C147.829 230.312 149.548 231.484 150.126 233.406H150.235C151.048 231.438 152.876 230.312 155.235 230.312C158.673 230.312 160.657 232.188 160.657 235.438V245.656ZM164.312 240.109V237.516C164.312 233.266 167.124 230.297 171.171 230.297C175.093 230.297 177.843 233.156 177.843 237.188C177.843 238.969 177.53 239.469 176.374 239.469H167.03V240.328C167.046 243.172 168.749 244.953 171.562 244.953C172.952 244.953 174.03 244.531 174.905 243.688C175.749 242.906 175.937 242.781 176.39 242.781C176.983 242.781 177.437 243.266 177.437 243.922C177.437 244.406 177.14 245 176.671 245.484C175.64 246.594 173.64 247.281 171.437 247.281C167.03 247.281 164.312 244.547 164.312 240.109ZM167.03 237.281H175.171V237.234C175.171 234.406 173.624 232.609 171.202 232.609C168.718 232.609 167.03 234.484 167.03 237.234V237.281ZM184.185 245.656C184.185 246.594 183.701 247.156 182.841 247.156C181.997 247.156 181.497 246.594 181.497 245.656V231.922C181.497 231 182.029 230.422 182.857 230.422C183.685 230.422 184.169 230.984 184.169 231.891V232.516H184.247C185.107 231.047 186.372 230.312 187.872 230.312C188.341 230.312 188.732 230.406 189.029 230.594C189.372 230.797 189.56 231.156 189.56 231.578C189.56 232.062 189.388 232.391 189.029 232.594C188.747 232.75 188.357 232.812 187.841 232.812C185.435 232.828 184.185 234.125 184.185 236.828V245.656ZM195.214 245.656C195.214 246.594 194.73 247.156 193.871 247.156C193.027 247.156 192.527 246.594 192.527 245.656V231.922C192.527 231 193.058 230.422 193.886 230.422C194.714 230.422 195.199 230.984 195.199 231.891V232.516H195.277C196.136 231.047 197.402 230.312 198.902 230.312C199.371 230.312 199.761 230.406 200.058 230.594C200.402 230.797 200.589 231.156 200.589 231.578C200.589 232.062 200.418 232.391 200.058 232.594C199.777 232.75 199.386 232.812 198.871 232.812C196.464 232.828 195.214 234.125 195.214 236.828V245.656ZM202.822 251.656C202.822 251.031 203.322 250.625 204.072 250.625C204.291 250.625 204.588 250.656 204.931 250.656C206.009 250.656 206.994 249.688 207.416 248.203C207.416 248.188 207.681 247.266 207.681 247.25L202.4 232.781C202.259 232.406 202.197 232.078 202.197 231.828C202.197 231.094 202.775 230.531 203.572 230.531C204.228 230.531 204.697 230.969 204.978 231.891L209.025 244.328H209.15L213.197 231.891C213.478 230.969 213.947 230.531 214.588 230.531C215.353 230.531 215.916 231.078 215.916 231.812C215.916 232.062 215.853 232.375 215.697 232.781L210.166 248.219C208.963 251.594 207.338 252.922 204.791 252.922C204.056 252.922 203.447 252.734 203.119 252.422C202.916 252.219 202.822 251.969 202.822 251.656Z" fill="#242323"/>
<path d="M95.4601 402.156C94.6164 402.156 94.1008 401.578 94.1008 400.656V383.109H88.8664C88.007 383.109 87.4601 382.656 87.4601 381.906C87.4601 381.156 88.007 380.672 88.8664 380.672H102.085C102.929 380.672 103.476 381.156 103.476 381.906C103.476 382.656 102.929 383.109 102.085 383.109H96.8351V400.656C96.8351 401.578 96.3039 402.156 95.4601 402.156ZM111.896 399.812C110.912 401.406 109.24 402.266 107.162 402.266C103.958 402.266 101.802 400.234 101.802 397.219C101.802 394.234 103.974 392.375 107.583 392.375H111.927V390.781C111.927 388.672 110.662 387.594 108.302 387.594C106.912 387.594 105.974 388.078 104.99 389.203C104.615 389.641 104.255 389.797 103.771 389.797C103.146 389.797 102.724 389.375 102.724 388.734C102.724 387.812 103.365 386.906 104.677 386.156C105.63 385.609 106.865 385.312 108.474 385.312C112.427 385.312 114.615 387.25 114.615 390.766V400.672C114.615 401.609 114.13 402.156 113.302 402.156C112.505 402.156 112.037 401.625 112.005 400.734V399.812H111.896ZM104.552 397.156C104.552 398.859 105.896 400.016 107.896 400.016C110.162 400.016 111.927 398.453 111.927 396.406V394.547H107.724C105.708 394.547 104.552 395.484 104.552 397.156ZM120.238 402.156C119.472 402.156 118.91 401.672 118.91 400.656V380.953C118.91 379.938 119.472 379.453 120.238 379.453C121.004 379.453 121.582 379.938 121.582 380.953V400.656C121.582 401.672 121.004 402.156 120.238 402.156ZM128.814 400.656C128.814 401.594 128.314 402.156 127.471 402.156C126.627 402.156 126.127 401.594 126.127 400.656V380.953C126.127 380 126.627 379.453 127.471 379.453C128.314 379.453 128.814 380 128.814 380.953V392.766H128.924L135.549 386.078C136.049 385.562 136.424 385.359 136.83 385.359C137.471 385.359 137.955 385.844 137.955 386.469C137.955 386.844 137.783 387.188 137.377 387.609L132.533 392.547L138.002 399.656C138.346 400.078 138.486 400.469 138.486 400.812C138.486 401.469 137.924 402.047 137.252 402.047C136.814 402.047 136.424 401.812 136.002 401.25L130.611 394.266L128.814 395.953V400.656ZM139.781 397.594C139.781 396.812 140.266 396.281 140.969 396.281C141.609 396.281 142.047 396.609 142.641 397.5C143.734 399.203 145.375 400.016 147.688 400.016C150.625 400.016 152.406 398.719 152.406 396.531C152.406 394.734 151.281 393.594 148.891 392.953L145.297 391.984C141.875 391.062 140.156 389.188 140.156 386.359C140.156 382.688 143.109 380.219 147.484 380.219C149.703 380.219 151.688 380.875 153.031 382.062C154.078 383 154.656 384.094 154.656 385.125C154.656 385.875 154.188 386.375 153.469 386.375C152.844 386.375 152.438 386.094 152.172 385.469C151.469 383.734 149.719 382.656 147.547 382.656C144.781 382.656 143 384.031 143 386.156C143 387.75 144.063 388.891 146.063 389.422L149.609 390.391C153.438 391.422 155.141 393.219 155.141 396.234C155.141 400.062 152.203 402.453 147.516 402.453C145 402.453 142.813 401.766 141.484 400.562C140.359 399.547 139.781 398.531 139.781 397.594ZM161.217 406.5C161.217 407.438 160.717 408 159.873 408C159.03 408 158.53 407.438 158.53 406.5V386.922C158.53 385.969 158.998 385.422 159.811 385.422C160.623 385.422 161.092 385.953 161.092 386.891V388.188H161.233C161.905 386.406 163.811 385.312 166.17 385.312C170.03 385.312 172.467 388.031 172.467 392.328V395.234C172.467 399.562 169.998 402.266 166.076 402.266C163.811 402.266 162.108 401.297 161.358 399.578H161.217V406.5ZM161.217 395.406C161.217 398.078 162.998 399.922 165.576 399.922C168.233 399.922 169.764 398 169.764 394.672V392.891C169.764 389.547 168.233 387.656 165.498 387.656C162.858 387.656 161.217 389.469 161.217 392.469V395.406ZM185.356 399.812C184.372 401.406 182.7 402.266 180.622 402.266C177.418 402.266 175.262 400.234 175.262 397.219C175.262 394.234 177.434 392.375 181.043 392.375H185.387V390.781C185.387 388.672 184.122 387.594 181.762 387.594C180.372 387.594 179.434 388.078 178.45 389.203C178.075 389.641 177.715 389.797 177.231 389.797C176.606 389.797 176.184 389.375 176.184 388.734C176.184 387.812 176.825 386.906 178.137 386.156C179.09 385.609 180.325 385.312 181.934 385.312C185.887 385.312 188.075 387.25 188.075 390.766V400.672C188.075 401.609 187.59 402.156 186.762 402.156C185.965 402.156 185.497 401.625 185.465 400.734V399.812H185.356ZM178.012 397.156C178.012 398.859 179.356 400.016 181.356 400.016C183.622 400.016 185.387 398.453 185.387 396.406V394.547H181.184C179.168 394.547 178.012 395.484 178.012 397.156ZM191.604 395.203V392.359C191.604 388.109 194.104 385.297 198.401 385.297C199.62 385.297 201.073 385.531 202.323 386.281C203.37 386.906 204.37 387.953 204.37 389.062C204.37 389.766 203.964 390.312 203.214 390.312C202.479 390.312 202.135 389.828 201.823 389.391C201.01 388.25 199.885 387.688 198.432 387.688C195.714 387.688 194.339 389.672 194.339 392.5V395.062C194.339 397.859 195.667 399.891 198.448 399.891C199.698 399.891 200.917 399.484 201.885 398.188C202.167 397.812 202.557 397.266 203.26 397.266C203.839 397.266 204.417 397.625 204.417 398.5C204.417 399.578 203.526 400.625 202.323 401.312C201.042 402.062 199.635 402.281 198.448 402.281C194.104 402.281 191.604 399.5 191.604 395.203ZM207.477 395.109V392.516C207.477 388.266 210.29 385.297 214.337 385.297C218.259 385.297 221.009 388.156 221.009 392.188C221.009 393.969 220.696 394.469 219.54 394.469H210.196V395.328C210.212 398.172 211.915 399.953 214.727 399.953C216.118 399.953 217.196 399.531 218.071 398.688C218.915 397.906 219.102 397.781 219.556 397.781C220.149 397.781 220.602 398.266 220.602 398.922C220.602 399.406 220.306 400 219.837 400.484C218.806 401.594 216.806 402.281 214.602 402.281C210.196 402.281 207.477 399.547 207.477 395.109ZM210.196 392.281H218.337V392.234C218.337 389.406 216.79 387.609 214.368 387.609C211.884 387.609 210.196 389.484 210.196 392.234V392.281Z" fill="#242323"/>
<path d="M85.8204 554.688V537.984C85.8204 536.328 86.5391 535.672 88.336 535.672H93.8204C97.461 535.672 99.7422 537.703 99.7422 540.922C99.7422 543.297 98.5391 544.953 96.336 545.641V545.75C99.2266 546.141 100.961 548.094 100.961 551.031C100.961 554.734 98.1329 557 93.5079 557H88.336C86.5391 557 85.8204 556.344 85.8204 554.688ZM88.5391 544.859H91.8047C95.3829 544.859 96.9922 543.766 96.9922 541.391C96.9922 539.281 95.6641 538.062 93.3829 538.062H88.5391V544.859ZM88.5391 554.609H92.2422C96.461 554.609 98.1641 553.562 98.1641 551.047C98.1641 548.609 96.5235 547.203 93.6797 547.203H88.5391V554.609ZM103.678 550.109V547.516C103.678 543.266 106.49 540.297 110.537 540.297C114.459 540.297 117.209 543.156 117.209 547.188C117.209 548.969 116.897 549.469 115.74 549.469H106.397V550.328C106.412 553.172 108.115 554.953 110.928 554.953C112.319 554.953 113.397 554.531 114.272 553.688C115.115 552.906 115.303 552.781 115.756 552.781C116.35 552.781 116.803 553.266 116.803 553.922C116.803 554.406 116.506 555 116.037 555.484C115.006 556.594 113.006 557.281 110.803 557.281C106.397 557.281 103.678 554.547 103.678 550.109ZM106.397 547.281H114.537V547.234C114.537 544.406 112.99 542.609 110.569 542.609C108.084 542.609 106.397 544.484 106.397 547.234V547.281ZM121.879 552.641V542.859H120.692C119.926 542.859 119.442 542.438 119.442 541.734C119.442 541.031 119.911 540.594 120.692 540.594H121.895V537.891C121.895 536.953 122.395 536.406 123.223 536.406C124.067 536.406 124.567 536.953 124.567 537.891V540.594H126.77C127.551 540.594 128.02 541.031 128.02 541.734C128.02 542.438 127.536 542.859 126.77 542.859H124.582V552.672C124.582 554.422 125.02 554.938 126.536 554.938C126.973 554.938 127.286 554.891 127.582 554.891C128.192 554.891 128.614 555.281 128.614 555.891C128.614 556.328 128.411 556.688 127.926 556.922C127.489 557.141 126.879 557.25 125.989 557.25C123.02 557.25 121.879 556.062 121.879 552.641ZM132.69 552.641V542.859H131.503C130.737 542.859 130.253 542.438 130.253 541.734C130.253 541.031 130.721 540.594 131.503 540.594H132.706V537.891C132.706 536.953 133.206 536.406 134.034 536.406C134.878 536.406 135.378 536.953 135.378 537.891V540.594H137.581C138.362 540.594 138.831 541.031 138.831 541.734C138.831 542.438 138.346 542.859 137.581 542.859H135.393V552.672C135.393 554.422 135.831 554.938 137.346 554.938C137.784 554.938 138.096 554.891 138.393 554.891C139.003 554.891 139.424 555.281 139.424 555.891C139.424 556.328 139.221 556.688 138.737 556.922C138.299 557.141 137.69 557.25 136.799 557.25C133.831 557.25 132.69 556.062 132.69 552.641ZM141.36 550.109V547.516C141.36 543.266 144.173 540.297 148.22 540.297C152.141 540.297 154.891 543.156 154.891 547.188C154.891 548.969 154.579 549.469 153.423 549.469H144.079V550.328C144.095 553.172 145.798 554.953 148.61 554.953C150.001 554.953 151.079 554.531 151.954 553.688C152.798 552.906 152.985 552.781 153.438 552.781C154.032 552.781 154.485 553.266 154.485 553.922C154.485 554.406 154.188 555 153.72 555.484C152.688 556.594 150.688 557.281 148.485 557.281C144.079 557.281 141.36 554.547 141.36 550.109ZM144.079 547.281H152.22V547.234C152.22 544.406 150.673 542.609 148.251 542.609C145.766 542.609 144.079 544.484 144.079 547.234V547.281ZM161.233 555.656C161.233 556.594 160.749 557.156 159.89 557.156C159.046 557.156 158.546 556.594 158.546 555.656V541.922C158.546 541 159.077 540.422 159.905 540.422C160.733 540.422 161.218 540.984 161.218 541.891V542.516H161.296C162.155 541.047 163.421 540.312 164.921 540.312C165.39 540.312 165.78 540.406 166.077 540.594C166.421 540.797 166.608 541.156 166.608 541.578C166.608 542.062 166.437 542.391 166.077 542.594C165.796 542.75 165.405 542.812 164.89 542.812C162.483 542.828 161.233 544.125 161.233 546.828V555.656ZM183.076 555.656C183.076 556.578 182.544 557.156 181.701 557.156C180.857 557.156 180.372 556.594 180.372 555.656V546.609C180.372 544.094 179.013 542.688 176.685 542.688C174.013 542.688 172.31 544.641 172.31 547.812V555.656C172.31 556.594 171.794 557.156 170.951 557.156C170.107 557.156 169.622 556.594 169.622 555.656V535.953C169.622 535 170.122 534.453 170.951 534.453C171.794 534.453 172.31 535 172.31 535.953V543.578H172.451C173.013 541.656 175.107 540.312 177.544 540.312C180.982 540.312 183.076 542.391 183.076 545.797V555.656ZM186.542 550.109V547.516C186.542 543.266 189.355 540.297 193.402 540.297C197.324 540.297 200.074 543.156 200.074 547.188C200.074 548.969 199.761 549.469 198.605 549.469H189.261V550.328C189.277 553.172 190.98 554.953 193.792 554.953C195.183 554.953 196.261 554.531 197.136 553.688C197.98 552.906 198.167 552.781 198.621 552.781C199.214 552.781 199.667 553.266 199.667 553.922C199.667 554.406 199.371 555 198.902 555.484C197.871 556.594 195.871 557.281 193.667 557.281C189.261 557.281 186.542 554.547 186.542 550.109ZM189.261 547.281H197.402V547.234C197.402 544.406 195.855 542.609 193.433 542.609C190.949 542.609 189.261 544.484 189.261 547.234V547.281ZM205.166 557.156C204.4 557.156 203.838 556.672 203.838 555.656V535.953C203.838 534.938 204.4 534.453 205.166 534.453C205.931 534.453 206.509 534.938 206.509 535.953V555.656C206.509 556.672 205.931 557.156 205.166 557.156ZM213.742 561.5C213.742 562.438 213.242 563 212.398 563C211.555 563 211.055 562.438 211.055 561.5V541.922C211.055 540.969 211.523 540.422 212.336 540.422C213.148 540.422 213.617 540.953 213.617 541.891V543.188H213.758C214.43 541.406 216.336 540.312 218.695 540.312C222.555 540.312 224.992 543.031 224.992 547.328V550.234C224.992 554.562 222.523 557.266 218.602 557.266C216.336 557.266 214.633 556.297 213.883 554.578H213.742V561.5ZM213.742 550.406C213.742 553.078 215.523 554.922 218.102 554.922C220.758 554.922 222.289 553 222.289 549.672V547.891C222.289 544.547 220.758 542.656 218.023 542.656C215.383 542.656 213.742 544.469 213.742 547.469V550.406Z" fill="#242323"/>
<path d="M712.304 86.6094C712.304 85.6719 712.929 85.0156 713.773 85.0156C714.444 85.0156 714.96 85.3281 715.632 86.1719C716.788 87.7031 718.398 88.4688 720.46 88.4688C723.163 88.4688 724.757 87.3438 724.757 85.3906C724.757 83.7969 723.694 82.7969 721.351 82.2031L717.976 81.3281C714.413 80.4531 712.632 78.5312 712.632 75.5625C712.632 71.75 715.663 69.25 720.241 69.25C722.648 69.25 724.788 69.9375 726.163 71.1875C727.163 72.0938 727.726 73.1406 727.726 74.1406C727.726 75.0156 727.132 75.6094 726.257 75.6094C725.601 75.6094 725.116 75.3281 724.726 74.7031C723.882 73.1406 722.304 72.2188 720.304 72.2188C717.851 72.2188 716.257 73.4219 716.257 75.2969C716.257 76.7344 717.273 77.7656 719.257 78.2656L722.616 79.1094C726.491 80.0781 728.273 81.9219 728.273 85C728.273 88.9688 725.163 91.4531 720.273 91.4531C717.616 91.4531 715.273 90.7188 713.898 89.4531C712.851 88.5 712.304 87.5156 712.304 86.6094ZM730.646 83.9375V81.5938C730.646 77.1875 733.568 74.1719 737.833 74.1719C741.911 74.1719 744.802 77.1094 744.802 81.1719C744.802 83 744.365 83.5625 742.99 83.5625H734.177V84.3438C734.177 86.8906 735.771 88.5156 738.38 88.5156C739.708 88.5156 740.693 88.1406 741.49 87.4219C742.302 86.7344 742.552 86.5625 743.099 86.5625C743.849 86.5625 744.365 87.1094 744.365 87.9062C744.365 88.5156 743.99 89.1719 743.349 89.6875C742.286 90.7031 740.349 91.3125 738.177 91.3125C733.521 91.3125 730.646 88.5312 730.646 83.9375ZM734.177 81.1406H741.443V81.0938C741.443 78.5781 740.052 76.9531 737.88 76.9531C735.646 76.9531 734.177 78.625 734.177 81.0938V81.1406ZM749.925 91.1562C748.894 91.1562 748.207 90.5156 748.207 89.2344V70.3594C748.207 69.0781 748.894 68.4375 749.925 68.4375C750.972 68.4375 751.675 69.0781 751.675 70.3594V89.2344C751.675 90.5156 750.972 91.1562 749.925 91.1562ZM760.392 89.2344C760.392 90.4531 759.752 91.1562 758.658 91.1562C757.564 91.1562 756.924 90.4531 756.924 89.2344V77.2969H755.799C754.846 77.2969 754.267 76.7812 754.267 75.9062C754.267 75.0312 754.83 74.5156 755.799 74.5156H756.924V73.0625C756.924 69.7344 758.564 68.2188 761.846 68.2188C762.783 68.2188 763.502 68.3906 763.971 68.7031C764.377 69 764.596 69.375 764.596 69.8281C764.596 70.5312 764.158 70.9844 763.486 70.9844C762.877 70.9844 762.705 70.8906 762.033 70.8906C760.908 70.8906 760.346 71.5156 760.346 72.9375V74.5156H762.377C763.346 74.5156 763.908 75.0312 763.908 75.9062C763.908 76.7656 763.346 77.2969 762.377 77.2969H760.392V89.2344ZM763.812 82.2344C763.812 81.3281 764.438 80.7031 765.578 80.7031H772.938C774.094 80.7031 774.703 81.3125 774.703 82.2344C774.703 83.1562 774.094 83.7969 772.938 83.7969H765.578C764.422 83.7969 763.812 83.1562 763.812 82.2344ZM776.608 81.8281V78.7812C776.608 72.7969 779.764 69.25 785.248 69.25C787.904 69.25 790.076 70.0625 791.592 71.5938C792.639 72.6406 793.295 73.9688 793.295 74.9062C793.295 75.8281 792.686 76.4062 791.795 76.4062C791.108 76.4062 790.654 76.1406 790.092 75.3125C788.858 73.2812 787.42 72.3438 785.42 72.3438C782.045 72.3438 780.139 74.7188 780.139 78.8906V81.7344C780.139 86 782.029 88.3594 785.42 88.3594C787.451 88.3594 788.998 87.4375 790.154 85.4531C790.717 84.6406 791.123 84.3438 791.779 84.3438C792.717 84.3438 793.295 84.9375 793.295 85.8438C793.295 86.8906 792.561 88.2812 791.389 89.3281C789.904 90.7031 787.826 91.4531 785.248 91.4531C779.733 91.4531 776.608 87.9375 776.608 81.8281ZM805.7 88.8594C804.793 90.3906 803.137 91.2344 801.09 91.2344C797.872 91.2344 795.7 89.2031 795.7 86.2031C795.7 83.1562 797.918 81.2969 801.606 81.2812H805.731V79.8125C805.731 77.9531 804.59 76.9844 802.481 76.9844C801.168 76.9844 800.262 77.4531 799.309 78.4219C798.887 78.8281 798.481 78.9844 797.887 78.9844C797.122 78.9844 796.622 78.4688 796.622 77.7188C796.622 76.7656 797.278 75.8281 798.668 75.0781C799.668 74.5312 800.981 74.2344 802.7 74.2344C806.872 74.2344 809.2 76.2344 809.2 79.8281V89.2812C809.2 90.4688 808.59 91.1562 807.512 91.1562C806.559 91.1562 805.95 90.5781 805.872 89.5938V88.8594H805.7ZM799.184 86.0312C799.184 87.5625 800.387 88.5938 802.168 88.5938C804.184 88.5938 805.731 87.2188 805.731 85.4375V83.6562H802.09C800.247 83.6562 799.184 84.5156 799.184 86.0312ZM816.464 89.2344C816.464 90.4531 815.823 91.1562 814.714 91.1562C813.604 91.1562 812.995 90.4531 812.995 89.2344V76.2656C812.995 75.0469 813.635 74.3438 814.729 74.3438C815.76 74.3438 816.354 74.9844 816.401 76.0938V76.5938H816.526C817.276 75.0312 818.526 74.2344 820.057 74.2344C820.604 74.2344 821.057 74.3594 821.37 74.6094C821.745 74.8594 821.948 75.2812 821.948 75.7969C821.948 76.3438 821.76 76.7344 821.385 76.9844C821.073 77.2031 820.62 77.2969 820.026 77.3125C817.667 77.3438 816.464 78.625 816.464 81.2188V89.2344ZM823.321 83.9375V81.5938C823.321 77.1875 826.243 74.1719 830.509 74.1719C834.587 74.1719 837.477 77.1094 837.477 81.1719C837.477 83 837.04 83.5625 835.665 83.5625H826.852V84.3438C826.852 86.8906 828.446 88.5156 831.055 88.5156C832.384 88.5156 833.368 88.1406 834.165 87.4219C834.977 86.7344 835.227 86.5625 835.774 86.5625C836.524 86.5625 837.04 87.1094 837.04 87.9062C837.04 88.5156 836.665 89.1719 836.024 89.6875C834.962 90.7031 833.024 91.3125 830.852 91.3125C826.196 91.3125 823.321 88.5312 823.321 83.9375ZM826.852 81.1406H834.118V81.0938C834.118 78.5781 832.727 76.9531 830.555 76.9531C828.321 76.9531 826.852 78.625 826.852 81.0938V81.1406Z" fill="#242323"/>
<path d="M372.156 74.1562C371.047 74.1562 370.391 73.4375 370.391 72.2188V55.4219C370.391 53.4375 371.188 52.6719 373.219 52.6719H378.516C382.797 52.6719 385.594 55.3906 385.594 59.5C385.594 63.7344 382.781 66.3438 378.422 66.3438H373.938V72.2188C373.938 73.4375 373.281 74.1562 372.156 74.1562ZM373.938 63.4531H376.891C380.609 63.4531 382.031 62.4375 382.031 59.5312C382.031 57.0469 380.625 55.6094 378.172 55.6094H373.938V63.4531ZM387.436 66.9375V64.5938C387.436 60.1875 390.358 57.1719 394.623 57.1719C398.701 57.1719 401.592 60.1094 401.592 64.1719C401.592 66 401.154 66.5625 399.779 66.5625H390.967V67.3438C390.967 69.8906 392.561 71.5156 395.17 71.5156C396.498 71.5156 397.483 71.1406 398.279 70.4219C399.092 69.7344 399.342 69.5625 399.889 69.5625C400.639 69.5625 401.154 70.1094 401.154 70.9062C401.154 71.5156 400.779 72.1719 400.139 72.6875C399.076 73.7031 397.139 74.3125 394.967 74.3125C390.311 74.3125 387.436 71.5312 387.436 66.9375ZM390.967 64.1406H398.233V64.0938C398.233 61.5781 396.842 59.9531 394.67 59.9531C392.436 59.9531 390.967 61.625 390.967 64.0938V64.1406ZM408.356 72.2344C408.356 73.4531 407.715 74.1562 406.606 74.1562C405.496 74.1562 404.887 73.4531 404.887 72.2344V59.2656C404.887 58.0469 405.528 57.3438 406.621 57.3438C407.653 57.3438 408.246 57.9844 408.293 59.0938V59.5938H408.418C409.168 58.0312 410.418 57.2344 411.95 57.2344C412.496 57.2344 412.95 57.3594 413.262 57.6094C413.637 57.8594 413.84 58.2812 413.84 58.7969C413.84 59.3438 413.653 59.7344 413.278 59.9844C412.965 60.2031 412.512 60.2969 411.918 60.3125C409.559 60.3438 408.356 61.625 408.356 64.2188V72.2344ZM415.089 70.6719C415.089 69.8281 415.635 69.2812 416.479 69.2812C416.964 69.2812 417.339 69.5 417.979 70.1094C419.089 71.1562 420.26 71.6562 421.76 71.6562C423.651 71.6562 424.823 70.8438 424.823 69.5156C424.823 68.4688 424.042 67.6875 422.557 67.3594L419.714 66.7031C416.729 66.0312 415.323 64.5625 415.323 62.1875C415.323 59.1562 417.823 57.1719 421.714 57.1719C423.323 57.1719 424.823 57.5469 425.995 58.25C427.104 58.8906 427.76 59.7969 427.76 60.6875C427.76 61.4844 427.214 61.9844 426.385 61.9844C425.901 61.9844 425.557 61.8281 424.839 61.2188C423.698 60.1875 422.792 59.8125 421.542 59.8125C419.76 59.8125 418.682 60.6406 418.682 61.9531C418.682 63.0156 419.385 63.6562 420.917 64.0156L423.917 64.7031C426.839 65.375 428.198 66.8125 428.198 69.2188C428.198 72.3594 425.682 74.3125 421.573 74.3125C419.839 74.3125 418.214 73.9375 416.995 73.2656C415.776 72.5938 415.089 71.6719 415.089 70.6719ZM438.071 57.1719C442.368 57.1719 445.446 59.9219 445.446 64.6094V66.8281C445.446 71.5938 442.368 74.3125 438.071 74.3125C433.759 74.3125 430.681 71.5938 430.681 66.8281V64.625C430.681 59.9219 433.759 57.1719 438.071 57.1719ZM438.071 59.9844C435.712 59.9844 434.227 61.8438 434.227 64.7812V66.7031C434.227 69.6875 435.712 71.5156 438.071 71.5156C440.446 71.5156 441.884 69.6875 441.884 66.7031V64.7812C441.884 61.8438 440.446 59.9844 438.071 59.9844ZM462.851 72.25C462.851 73.4688 462.21 74.1562 461.116 74.1562C460.007 74.1562 459.366 73.4531 459.366 72.2344V63.8125C459.366 61.4844 458.21 60.2031 456.116 60.2031C453.726 60.2031 452.21 61.9375 452.21 64.7969V72.2344C452.21 73.4531 451.569 74.1562 450.476 74.1562C449.366 74.1562 448.741 73.4531 448.741 72.2344V59.2188C448.741 58.0469 449.397 57.3438 450.46 57.3438C451.507 57.3438 452.116 57.9844 452.147 59.125V60.4531H452.319C452.991 58.4375 454.819 57.2344 457.288 57.2344C460.819 57.2344 462.851 59.2812 462.851 62.8438V72.25ZM475.771 71.8594C474.865 73.3906 473.208 74.2344 471.161 74.2344C467.943 74.2344 465.771 72.2031 465.771 69.2031C465.771 66.1562 467.99 64.2969 471.677 64.2812H475.802V62.8125C475.802 60.9531 474.661 59.9844 472.552 59.9844C471.24 59.9844 470.333 60.4531 469.38 61.4219C468.958 61.8281 468.552 61.9844 467.958 61.9844C467.193 61.9844 466.693 61.4688 466.693 60.7188C466.693 59.7656 467.349 58.8281 468.74 58.0781C469.74 57.5312 471.052 57.2344 472.771 57.2344C476.943 57.2344 479.271 59.2344 479.271 62.8281V72.2812C479.271 73.4688 478.661 74.1562 477.583 74.1562C476.63 74.1562 476.021 73.5781 475.943 72.5938V71.8594H475.771ZM469.255 69.0312C469.255 70.5625 470.458 71.5938 472.24 71.5938C474.255 71.5938 475.802 70.2188 475.802 68.4375V66.6562H472.161C470.318 66.6562 469.255 67.5156 469.255 69.0312ZM484.894 74.1562C483.863 74.1562 483.175 73.5156 483.175 72.2344V53.3594C483.175 52.0781 483.863 51.4375 484.894 51.4375C485.941 51.4375 486.644 52.0781 486.644 53.3594V72.2344C486.644 73.5156 485.941 74.1562 484.894 74.1562ZM490.58 53.3281C490.58 52.2031 491.47 51.3906 492.627 51.3906C493.83 51.3906 494.705 52.2031 494.705 53.3281C494.705 54.4688 493.83 55.2969 492.627 55.2969C491.47 55.2969 490.58 54.4688 490.58 53.3281ZM494.377 72.2344C494.377 73.5156 493.689 74.1562 492.642 74.1562C491.595 74.1562 490.908 73.5 490.908 72.2344V59.2656C490.908 57.9844 491.611 57.3438 492.642 57.3438C493.689 57.3438 494.377 58 494.377 59.2656V72.2344ZM497.891 72.3906C497.891 71.7188 498.172 71.1562 498.781 70.4062L506.219 60.5312V60.3438H499.344C498.328 60.3438 497.781 59.7188 497.781 58.8906C497.781 58.0625 498.328 57.4531 499.344 57.4531H508.437C509.656 57.4531 510.344 58.1094 510.344 59.0781C510.344 59.7656 510.078 60.3281 509.469 61.0938L502.078 70.9844V71.1562H509.141C510.141 71.1562 510.703 71.7656 510.703 72.5625C510.703 73.4219 510.141 74.0469 509.141 74.0469H499.828C498.578 74.0469 497.891 73.3594 497.891 72.3906ZM512.857 66.9375V64.5938C512.857 60.1875 515.779 57.1719 520.045 57.1719C524.123 57.1719 527.014 60.1094 527.014 64.1719C527.014 66 526.576 66.5625 525.201 66.5625H516.389V67.3438C516.389 69.8906 517.982 71.5156 520.592 71.5156C521.92 71.5156 522.904 71.1406 523.701 70.4219C524.514 69.7344 524.764 69.5625 525.311 69.5625C526.061 69.5625 526.576 70.1094 526.576 70.9062C526.576 71.5156 526.201 72.1719 525.561 72.6875C524.498 73.7031 522.561 74.3125 520.389 74.3125C515.732 74.3125 512.857 71.5312 512.857 66.9375ZM516.389 64.1406H523.654V64.0938C523.654 61.5781 522.264 59.9531 520.092 59.9531C517.857 59.9531 516.389 61.625 516.389 64.0938V64.1406ZM540.809 71.375C540.309 73.0625 538.309 74.2344 535.918 74.2344C532.09 74.2344 529.668 71.4844 529.668 67.1719V64.2969C529.668 59.9844 532.137 57.2344 535.981 57.2344C538.278 57.2344 540.074 58.25 540.715 59.9375H540.887V53.3594C540.887 52.1406 541.512 51.4375 542.621 51.4375C543.731 51.4375 544.356 52.1406 544.356 53.3594V72.2344C544.356 73.4688 543.762 74.1562 542.668 74.1562C541.653 74.1562 541.043 73.5156 540.981 72.3906V71.375H540.809ZM533.215 66.6562C533.215 69.6406 534.621 71.3906 537.012 71.3906C539.387 71.3906 540.887 69.6562 540.887 66.8906V64.3438C540.887 61.8438 539.262 60.0938 536.934 60.0938C534.59 60.0938 533.215 61.8594 533.215 64.8125V66.6562ZM376.281 109.156C375.188 109.156 374.516 108.438 374.516 107.25V90.7188H369.672C368.719 90.7188 368.047 90.0938 368.047 89.2031C368.047 88.2969 368.719 87.6719 369.672 87.6719H382.922C383.891 87.6719 384.531 88.2969 384.531 89.2031C384.531 90.1094 383.891 90.7188 382.922 90.7188H378.062V107.25C378.062 108.422 377.375 109.156 376.281 109.156ZM400.576 107.234C400.576 108.453 399.936 109.156 398.842 109.156C397.733 109.156 397.108 108.453 397.108 107.234V98.8438C397.108 96.5156 395.889 95.2031 393.764 95.2031C391.404 95.2031 389.873 96.9688 389.873 99.7969V107.234C389.873 108.453 389.233 109.156 388.139 109.156C387.029 109.156 386.404 108.453 386.404 107.234V88.3594C386.404 87.1406 387.045 86.4375 388.139 86.4375C389.233 86.4375 389.873 87.1406 389.873 88.3594V95.4531H390.045C390.608 93.5469 392.67 92.2344 395.061 92.2344C398.514 92.2344 400.576 94.3438 400.576 97.8594V107.234ZM403.684 101.938V99.5938C403.684 95.1875 406.606 92.1719 410.871 92.1719C414.95 92.1719 417.84 95.1094 417.84 99.1719C417.84 101 417.403 101.562 416.028 101.562H407.215V102.344C407.215 104.891 408.809 106.516 411.418 106.516C412.746 106.516 413.731 106.141 414.528 105.422C415.34 104.734 415.59 104.562 416.137 104.562C416.887 104.562 417.403 105.109 417.403 105.906C417.403 106.516 417.028 107.172 416.387 107.688C415.325 108.703 413.387 109.312 411.215 109.312C406.559 109.312 403.684 106.531 403.684 101.938ZM407.215 99.1406H414.481V99.0938C414.481 96.5781 413.09 94.9531 410.918 94.9531C408.684 94.9531 407.215 96.625 407.215 99.0938V99.1406ZM424.604 107.234C424.604 108.453 423.964 109.156 422.854 109.156C421.745 109.156 421.135 108.453 421.135 107.234V94.2656C421.135 93.0469 421.776 92.3438 422.87 92.3438C423.901 92.3438 424.495 92.9844 424.542 94.0938V94.5938H424.667C425.417 93.0312 426.667 92.2344 428.198 92.2344C428.745 92.2344 429.198 92.3594 429.51 92.6094C429.885 92.8594 430.089 93.2812 430.089 93.7969C430.089 94.3438 429.901 94.7344 429.526 94.9844C429.214 95.2031 428.76 95.2969 428.167 95.3125C425.807 95.3438 424.604 96.625 424.604 99.2188V107.234ZM441.243 106.859C440.337 108.391 438.681 109.234 436.634 109.234C433.415 109.234 431.243 107.203 431.243 104.203C431.243 101.156 433.462 99.2969 437.149 99.2812H441.274V97.8125C441.274 95.9531 440.134 94.9844 438.024 94.9844C436.712 94.9844 435.806 95.4531 434.852 96.4219C434.431 96.8281 434.024 96.9844 433.431 96.9844C432.665 96.9844 432.165 96.4688 432.165 95.7188C432.165 94.7656 432.821 93.8281 434.212 93.0781C435.212 92.5312 436.524 92.2344 438.243 92.2344C442.415 92.2344 444.743 94.2344 444.743 97.8281V107.281C444.743 108.469 444.134 109.156 443.056 109.156C442.102 109.156 441.493 108.578 441.415 107.594V106.859H441.243ZM434.727 104.031C434.727 105.562 435.931 106.594 437.712 106.594C439.727 106.594 441.274 105.219 441.274 103.438V101.656H437.634C435.79 101.656 434.727 102.516 434.727 104.031ZM452.038 113.016C452.038 114.25 451.397 114.938 450.288 114.938C449.194 114.938 448.569 114.25 448.569 113.016V94.2656C448.569 93.0312 449.163 92.3438 450.241 92.3438C451.288 92.3438 451.897 92.9688 451.944 94.0938V95.1094H452.116C452.788 93.3281 454.647 92.2344 456.991 92.2344C460.851 92.2344 463.226 94.9688 463.226 99.4375V102.016C463.226 106.5 460.819 109.234 456.913 109.234C454.647 109.234 452.944 108.25 452.21 106.516H452.038V113.016ZM452.038 102.125C452.038 104.672 453.616 106.375 455.929 106.375C458.319 106.375 459.694 104.609 459.694 101.547V99.9219C459.694 96.8281 458.319 95.0938 455.882 95.0938C453.491 95.0938 452.038 96.7656 452.038 99.5938V102.125ZM466.427 88.3281C466.427 87.2031 467.318 86.3906 468.474 86.3906C469.677 86.3906 470.552 87.2031 470.552 88.3281C470.552 89.4688 469.677 90.2969 468.474 90.2969C467.318 90.2969 466.427 89.4688 466.427 88.3281ZM470.224 107.234C470.224 108.516 469.536 109.156 468.49 109.156C467.443 109.156 466.755 108.5 466.755 107.234V94.2656C466.755 92.9844 467.458 92.3438 468.49 92.3438C469.536 92.3438 470.224 93 470.224 94.2656V107.234ZM473.519 105.672C473.519 104.828 474.066 104.281 474.91 104.281C475.394 104.281 475.769 104.5 476.41 105.109C477.519 106.156 478.691 106.656 480.191 106.656C482.081 106.656 483.253 105.844 483.253 104.516C483.253 103.469 482.472 102.688 480.988 102.359L478.144 101.703C475.16 101.031 473.753 99.5625 473.753 97.1875C473.753 94.1562 476.253 92.1719 480.144 92.1719C481.753 92.1719 483.253 92.5469 484.425 93.25C485.535 93.8906 486.191 94.7969 486.191 95.6875C486.191 96.4844 485.644 96.9844 484.816 96.9844C484.331 96.9844 483.988 96.8281 483.269 96.2188C482.128 95.1875 481.222 94.8125 479.972 94.8125C478.191 94.8125 477.113 95.6406 477.113 96.9531C477.113 98.0156 477.816 98.6562 479.347 99.0156L482.347 99.7031C485.269 100.375 486.628 101.812 486.628 104.219C486.628 107.359 484.113 109.312 480.003 109.312C478.269 109.312 476.644 108.938 475.425 108.266C474.206 107.594 473.519 106.672 473.519 105.672ZM490.845 104.609V95.3594H489.845C488.892 95.3594 488.314 94.8281 488.314 93.9688C488.314 93.0938 488.877 92.5781 489.845 92.5781H490.908V90.1562C490.908 88.9688 491.517 88.2812 492.595 88.2812C493.674 88.2812 494.299 88.9688 494.299 90.1562V92.5781H496.205C497.174 92.5781 497.72 93.0938 497.72 93.9688C497.72 94.8281 497.158 95.3594 496.205 95.3594H494.33V104.359C494.33 105.984 494.736 106.484 496.111 106.484C496.549 106.484 496.845 106.438 497.189 106.438C497.845 106.438 498.314 106.875 498.314 107.562C498.314 108.094 498.064 108.547 497.549 108.844C497.033 109.141 496.283 109.297 495.267 109.297C492.142 109.297 490.845 108 490.845 104.609Z" fill="#242323"/>
<path d="M1012.06 56.1562C1011.02 56.1562 1010.47 55.5156 1010.47 54.2656V36.7656C1010.47 35.3281 1011.23 34.4844 1012.5 34.4844C1013.61 34.4844 1014.23 34.9844 1014.89 36.6719L1020.55 50.3594H1020.67L1026.31 36.6562C1026.97 34.9688 1027.56 34.4844 1028.72 34.4844C1029.98 34.4844 1030.72 35.3125 1030.72 36.7656V54.2656C1030.72 55.5 1030.16 56.1562 1029.09 56.1562C1028.06 56.1562 1027.53 55.5156 1027.53 54.2656V41.1562H1027.39L1022.64 52.5469C1022.06 53.9375 1021.5 54.375 1020.61 54.375C1019.7 54.375 1019.12 53.9219 1018.56 52.5469L1013.81 41.1562H1013.67V54.2656C1013.67 55.5 1013.11 56.1562 1012.06 56.1562ZM1034.69 48.9375V46.5938C1034.69 42.1875 1037.61 39.1719 1041.88 39.1719C1045.95 39.1719 1048.84 42.1094 1048.84 46.1719C1048.84 48 1048.41 48.5625 1047.03 48.5625H1038.22V49.3438C1038.22 51.8906 1039.81 53.5156 1042.42 53.5156C1043.75 53.5156 1044.73 53.1406 1045.53 52.4219C1046.34 51.7344 1046.59 51.5625 1047.14 51.5625C1047.89 51.5625 1048.41 52.1094 1048.41 52.9062C1048.41 53.5156 1048.03 54.1719 1047.39 54.6875C1046.33 55.7031 1044.39 56.3125 1042.22 56.3125C1037.56 56.3125 1034.69 53.5312 1034.69 48.9375ZM1038.22 46.1406H1045.48V46.0938C1045.48 43.5781 1044.09 41.9531 1041.92 41.9531C1039.69 41.9531 1038.22 43.625 1038.22 46.0938V46.1406ZM1066.64 54.25C1066.64 55.4688 1066 56.1562 1064.91 56.1562C1063.8 56.1562 1063.16 55.4531 1063.16 54.2344V45.8125C1063.16 43.4844 1062 42.2031 1059.91 42.2031C1057.52 42.2031 1056 43.9375 1056 46.7969V54.2344C1056 55.4531 1055.36 56.1562 1054.27 56.1562C1053.16 56.1562 1052.53 55.4531 1052.53 54.2344V41.2188C1052.53 40.0469 1053.19 39.3438 1054.25 39.3438C1055.3 39.3438 1055.91 39.9844 1055.94 41.125V42.4531H1056.11C1056.78 40.4375 1058.61 39.2344 1061.08 39.2344C1064.61 39.2344 1066.64 41.2812 1066.64 44.8438V54.25ZM1071.92 51.6094V42.3594H1070.92C1069.97 42.3594 1069.39 41.8281 1069.39 40.9688C1069.39 40.0938 1069.95 39.5781 1070.92 39.5781H1071.98V37.1562C1071.98 35.9688 1072.59 35.2812 1073.67 35.2812C1074.75 35.2812 1075.38 35.9688 1075.38 37.1562V39.5781H1077.28C1078.25 39.5781 1078.8 40.0938 1078.8 40.9688C1078.8 41.8281 1078.23 42.3594 1077.28 42.3594H1075.41V51.3594C1075.41 52.9844 1075.81 53.4844 1077.19 53.4844C1077.62 53.4844 1077.92 53.4375 1078.27 53.4375C1078.92 53.4375 1079.39 53.875 1079.39 54.5625C1079.39 55.0938 1079.14 55.5469 1078.62 55.8438C1078.11 56.1406 1077.36 56.2969 1076.34 56.2969C1073.22 56.2969 1071.92 55 1071.92 51.6094ZM1091.22 53.8594C1090.31 55.3906 1088.66 56.2344 1086.61 56.2344C1083.39 56.2344 1081.22 54.2031 1081.22 51.2031C1081.22 48.1562 1083.44 46.2969 1087.12 46.2812H1091.25V44.8125C1091.25 42.9531 1090.11 41.9844 1088 41.9844C1086.69 41.9844 1085.78 42.4531 1084.83 43.4219C1084.41 43.8281 1084 43.9844 1083.41 43.9844C1082.64 43.9844 1082.14 43.4688 1082.14 42.7188C1082.14 41.7656 1082.8 40.8281 1084.19 40.0781C1085.19 39.5312 1086.5 39.2344 1088.22 39.2344C1092.39 39.2344 1094.72 41.2344 1094.72 44.8281V54.2812C1094.72 55.4688 1094.11 56.1562 1093.03 56.1562C1092.08 56.1562 1091.47 55.5781 1091.39 54.5938V53.8594H1091.22ZM1084.7 51.0312C1084.7 52.5625 1085.91 53.5938 1087.69 53.5938C1089.7 53.5938 1091.25 52.2188 1091.25 50.4375V48.6562H1087.61C1085.77 48.6562 1084.7 49.5156 1084.7 51.0312ZM1100.75 56.1562C1099.72 56.1562 1099.03 55.5156 1099.03 54.2344V35.3594C1099.03 34.0781 1099.72 33.4375 1100.75 33.4375C1101.8 33.4375 1102.5 34.0781 1102.5 35.3594V54.2344C1102.5 55.5156 1101.8 56.1562 1100.75 56.1562ZM1025.48 91.1562C1024.36 91.1562 1023.7 90.4375 1023.7 89.2188V81.5469H1013.94V89.2188C1013.94 90.4375 1013.28 91.1562 1012.17 91.1562C1011.05 91.1562 1010.39 90.4375 1010.39 89.2188V71.4531C1010.39 70.2344 1011.05 69.5156 1012.17 69.5156C1013.28 69.5156 1013.94 70.2344 1013.94 71.4531V78.5469H1023.7V71.4531C1023.7 70.2344 1024.36 69.5156 1025.48 69.5156C1026.59 69.5156 1027.25 70.2344 1027.25 71.4531V89.2188C1027.25 90.4375 1026.59 91.1562 1025.48 91.1562ZM1031.19 83.9375V81.5938C1031.19 77.1875 1034.11 74.1719 1038.38 74.1719C1042.45 74.1719 1045.34 77.1094 1045.34 81.1719C1045.34 83 1044.91 83.5625 1043.53 83.5625H1034.72V84.3438C1034.72 86.8906 1036.31 88.5156 1038.92 88.5156C1040.25 88.5156 1041.23 88.1406 1042.03 87.4219C1042.84 86.7344 1043.09 86.5625 1043.64 86.5625C1044.39 86.5625 1044.91 87.1094 1044.91 87.9062C1044.91 88.5156 1044.53 89.1719 1043.89 89.6875C1042.83 90.7031 1040.89 91.3125 1038.72 91.3125C1034.06 91.3125 1031.19 88.5312 1031.19 83.9375ZM1034.72 81.1406H1041.98V81.0938C1041.98 78.5781 1040.59 76.9531 1038.42 76.9531C1036.19 76.9531 1034.72 78.625 1034.72 81.0938V81.1406ZM1058.16 88.8594C1057.25 90.3906 1055.59 91.2344 1053.55 91.2344C1050.33 91.2344 1048.16 89.2031 1048.16 86.2031C1048.16 83.1562 1050.38 81.2969 1054.06 81.2812H1058.19V79.8125C1058.19 77.9531 1057.05 76.9844 1054.94 76.9844C1053.62 76.9844 1052.72 77.4531 1051.77 78.4219C1051.34 78.8281 1050.94 78.9844 1050.34 78.9844C1049.58 78.9844 1049.08 78.4688 1049.08 77.7188C1049.08 76.7656 1049.73 75.8281 1051.12 75.0781C1052.12 74.5312 1053.44 74.2344 1055.16 74.2344C1059.33 74.2344 1061.66 76.2344 1061.66 79.8281V89.2812C1061.66 90.4688 1061.05 91.1562 1059.97 91.1562C1059.02 91.1562 1058.41 90.5781 1058.33 89.5938V88.8594H1058.16ZM1051.64 86.0312C1051.64 87.5625 1052.84 88.5938 1054.62 88.5938C1056.64 88.5938 1058.19 87.2188 1058.19 85.4375V83.6562H1054.55C1052.7 83.6562 1051.64 84.5156 1051.64 86.0312ZM1067.69 91.1562C1066.66 91.1562 1065.97 90.5156 1065.97 89.2344V70.3594C1065.97 69.0781 1066.66 68.4375 1067.69 68.4375C1068.73 68.4375 1069.44 69.0781 1069.44 70.3594V89.2344C1069.44 90.5156 1068.73 91.1562 1067.69 91.1562ZM1075.08 86.6094V77.3594H1074.08C1073.12 77.3594 1072.55 76.8281 1072.55 75.9688C1072.55 75.0938 1073.11 74.5781 1074.08 74.5781H1075.14V72.1562C1075.14 70.9688 1075.75 70.2812 1076.83 70.2812C1077.91 70.2812 1078.53 70.9688 1078.53 72.1562V74.5781H1080.44C1081.41 74.5781 1081.95 75.0938 1081.95 75.9688C1081.95 76.8281 1081.39 77.3594 1080.44 77.3594H1078.56V86.3594C1078.56 87.9844 1078.97 88.4844 1080.34 88.4844C1080.78 88.4844 1081.08 88.4375 1081.42 88.4375C1082.08 88.4375 1082.55 88.875 1082.55 89.5625C1082.55 90.0938 1082.3 90.5469 1081.78 90.8438C1081.27 91.1406 1080.52 91.2969 1079.5 91.2969C1076.38 91.2969 1075.08 90 1075.08 86.6094ZM1099.77 89.2344C1099.77 90.4531 1099.12 91.1562 1098.03 91.1562C1096.92 91.1562 1096.3 90.4531 1096.3 89.2344V80.8438C1096.3 78.5156 1095.08 77.2031 1092.95 77.2031C1090.59 77.2031 1089.06 78.9688 1089.06 81.7969V89.2344C1089.06 90.4531 1088.42 91.1562 1087.33 91.1562C1086.22 91.1562 1085.59 90.4531 1085.59 89.2344V70.3594C1085.59 69.1406 1086.23 68.4375 1087.33 68.4375C1088.42 68.4375 1089.06 69.1406 1089.06 70.3594V77.4531H1089.23C1089.8 75.5469 1091.86 74.2344 1094.25 74.2344C1097.7 74.2344 1099.77 76.3438 1099.77 79.8594V89.2344ZM1010.39 123.469V107.203C1010.39 105.469 1011.23 104.672 1013.08 104.672H1022.34C1023.31 104.672 1023.95 105.266 1023.95 106.172C1023.95 107.078 1023.31 107.656 1022.34 107.656H1013.92V113.734H1021.86C1022.78 113.734 1023.39 114.297 1023.39 115.172C1023.39 116.047 1022.78 116.594 1021.86 116.594H1013.92V123.016H1022.31C1023.31 123.016 1023.95 123.594 1023.95 124.516C1023.95 125.422 1023.31 126 1022.31 126H1013.08C1011.23 126 1010.39 125.219 1010.39 123.469ZM1038.05 123.375C1037.55 125.062 1035.55 126.234 1033.16 126.234C1029.33 126.234 1026.91 123.484 1026.91 119.172V116.297C1026.91 111.984 1029.38 109.234 1033.22 109.234C1035.52 109.234 1037.31 110.25 1037.95 111.938H1038.12V105.359C1038.12 104.141 1038.75 103.438 1039.86 103.438C1040.97 103.438 1041.59 104.141 1041.59 105.359V124.234C1041.59 125.469 1041 126.156 1039.91 126.156C1038.89 126.156 1038.28 125.516 1038.22 124.391V123.375H1038.05ZM1030.45 118.656C1030.45 121.641 1031.86 123.391 1034.25 123.391C1036.62 123.391 1038.12 121.656 1038.12 118.891V116.344C1038.12 113.844 1036.5 112.094 1034.17 112.094C1031.83 112.094 1030.45 113.859 1030.45 116.812V118.656ZM1056.36 123.25C1055.84 124.703 1054.34 126.234 1051.36 126.234C1048.22 126.234 1045.91 124.641 1045.91 120.812V111.203C1045.91 109.922 1046.59 109.328 1047.64 109.328C1048.69 109.328 1049.38 109.922 1049.38 111.203V119.922C1049.38 122.422 1050.83 123.297 1052.58 123.297C1054.94 123.297 1056.48 121.719 1056.48 119.703V111.203C1056.48 109.922 1057.19 109.328 1058.23 109.328C1059.27 109.328 1059.97 109.922 1059.97 111.203V124.312C1059.97 125.547 1059.25 126.156 1058.25 126.156C1057.27 126.156 1056.58 125.594 1056.55 124.406V123.25H1056.36ZM1063.7 118.984V116.422C1063.7 112.094 1066.31 109.172 1070.88 109.172C1072.3 109.172 1073.86 109.484 1075.12 110.266C1076.16 110.922 1077.05 111.938 1077.05 113C1077.05 113.844 1076.53 114.5 1075.62 114.5C1074.86 114.5 1074.47 114.016 1074.09 113.594C1073.33 112.609 1072.33 112.094 1071 112.094C1068.5 112.094 1067.27 113.938 1067.27 116.609V118.797C1067.27 121.484 1068.41 123.406 1071.03 123.406C1072.22 123.406 1073.31 122.984 1074.19 121.875C1074.55 121.5 1074.97 120.984 1075.7 120.984C1076.47 120.984 1077.09 121.484 1077.09 122.453C1077.09 123.516 1076.25 124.562 1075.05 125.281C1073.77 126.047 1072.3 126.312 1070.89 126.312C1066.38 126.312 1063.7 123.516 1063.7 118.984ZM1089.97 123.859C1089.06 125.391 1087.41 126.234 1085.36 126.234C1082.14 126.234 1079.97 124.203 1079.97 121.203C1079.97 118.156 1082.19 116.297 1085.88 116.281H1090V114.812C1090 112.953 1088.86 111.984 1086.75 111.984C1085.44 111.984 1084.53 112.453 1083.58 113.422C1083.16 113.828 1082.75 113.984 1082.16 113.984C1081.39 113.984 1080.89 113.469 1080.89 112.719C1080.89 111.766 1081.55 110.828 1082.94 110.078C1083.94 109.531 1085.25 109.234 1086.97 109.234C1091.14 109.234 1093.47 111.234 1093.47 114.828V124.281C1093.47 125.469 1092.86 126.156 1091.78 126.156C1090.83 126.156 1090.22 125.578 1090.14 124.594V123.859H1089.97ZM1083.45 121.031C1083.45 122.562 1084.66 123.594 1086.44 123.594C1088.45 123.594 1090 122.219 1090 120.438V118.656H1086.36C1084.52 118.656 1083.45 119.516 1083.45 121.031ZM1098.73 121.609V112.359H1097.73C1096.78 112.359 1096.2 111.828 1096.2 110.969C1096.2 110.094 1096.77 109.578 1097.73 109.578H1098.8V107.156C1098.8 105.969 1099.41 105.281 1100.48 105.281C1101.56 105.281 1102.19 105.969 1102.19 107.156V109.578H1104.09C1105.06 109.578 1105.61 110.094 1105.61 110.969C1105.61 111.828 1105.05 112.359 1104.09 112.359H1102.22V121.359C1102.22 122.984 1102.62 123.484 1104 123.484C1104.44 123.484 1104.73 123.438 1105.08 123.438C1105.73 123.438 1106.2 123.875 1106.2 124.562C1106.2 125.094 1105.95 125.547 1105.44 125.844C1104.92 126.141 1104.17 126.297 1103.16 126.297C1100.03 126.297 1098.73 125 1098.73 121.609ZM1109.06 105.328C1109.06 104.203 1109.95 103.391 1111.11 103.391C1112.31 103.391 1113.19 104.203 1113.19 105.328C1113.19 106.469 1112.31 107.297 1111.11 107.297C1109.95 107.297 1109.06 106.469 1109.06 105.328ZM1112.86 124.234C1112.86 125.516 1112.17 126.156 1111.12 126.156C1110.08 126.156 1109.39 125.5 1109.39 124.234V111.266C1109.39 109.984 1110.09 109.344 1111.12 109.344C1112.17 109.344 1112.86 110 1112.86 111.266V124.234ZM1124.11 109.172C1128.41 109.172 1131.48 111.922 1131.48 116.609V118.828C1131.48 123.594 1128.41 126.312 1124.11 126.312C1119.8 126.312 1116.72 123.594 1116.72 118.828V116.625C1116.72 111.922 1119.8 109.172 1124.11 109.172ZM1124.11 111.984C1121.75 111.984 1120.27 113.844 1120.27 116.781V118.703C1120.27 121.688 1121.75 123.516 1124.11 123.516C1126.48 123.516 1127.92 121.688 1127.92 118.703V116.781C1127.92 113.844 1126.48 111.984 1124.11 111.984ZM1149.3 124.25C1149.3 125.469 1148.66 126.156 1147.56 126.156C1146.45 126.156 1145.81 125.453 1145.81 124.234V115.812C1145.81 113.484 1144.66 112.203 1142.56 112.203C1140.17 112.203 1138.66 113.938 1138.66 116.797V124.234C1138.66 125.453 1138.02 126.156 1136.92 126.156C1135.81 126.156 1135.19 125.453 1135.19 124.234V111.219C1135.19 110.047 1135.84 109.344 1136.91 109.344C1137.95 109.344 1138.56 109.984 1138.59 111.125V112.453H1138.77C1139.44 110.438 1141.27 109.234 1143.73 109.234C1147.27 109.234 1149.3 111.281 1149.3 114.844V124.25Z" fill="#242323"/>
<path d="M443.367 216.74C444.062 216.108 445.003 215.753 445.984 215.753C446.966 215.753 447.907 216.108 448.601 216.74L464.5 231.23L480.399 216.74C480.851 216.296 481.427 215.971 482.065 215.8C482.703 215.629 483.38 215.618 484.025 215.768C484.669 215.918 485.257 216.224 485.727 216.653C486.197 217.082 486.531 217.619 486.694 218.207C486.859 218.794 486.847 219.41 486.661 219.991C486.474 220.573 486.119 221.097 485.632 221.51L469.734 236L485.632 250.49C486.12 250.903 486.476 251.427 486.664 252.009C486.852 252.59 486.864 253.207 486.699 253.795C486.534 254.382 486.199 254.918 485.728 255.346C485.257 255.774 484.668 256.079 484.023 256.228C483.379 256.378 482.703 256.367 482.065 256.197C481.427 256.027 480.852 255.703 480.399 255.26L464.5 240.77L448.601 255.26C447.899 255.856 446.97 256.18 446.011 256.165C445.051 256.15 444.136 255.797 443.456 255.179C442.779 254.56 442.391 253.725 442.374 252.851C442.358 251.976 442.714 251.13 443.367 250.49L459.266 236L443.367 221.51C442.674 220.877 442.284 220.019 442.284 219.125C442.284 218.231 442.674 217.373 443.367 216.74Z" fill="#DEB4AA"/>
<path d="M753.367 216.74C754.062 216.108 755.003 215.753 755.984 215.753C756.966 215.753 757.907 216.108 758.601 216.74L774.5 231.23L790.399 216.74C790.851 216.296 791.427 215.971 792.065 215.8C792.703 215.629 793.38 215.618 794.025 215.768C794.669 215.918 795.257 216.224 795.727 216.653C796.197 217.082 796.531 217.619 796.694 218.207C796.859 218.794 796.847 219.41 796.661 219.991C796.474 220.573 796.119 221.097 795.632 221.51L779.734 236L795.632 250.49C796.12 250.903 796.476 251.427 796.664 252.009C796.852 252.59 796.864 253.207 796.699 253.795C796.534 254.382 796.199 254.918 795.728 255.346C795.257 255.774 794.668 256.079 794.023 256.228C793.379 256.378 792.703 256.367 792.065 256.197C791.427 256.027 790.852 255.703 790.399 255.26L774.5 240.77L758.601 255.26C757.899 255.856 756.97 256.18 756.011 256.165C755.051 256.15 754.136 255.797 753.456 255.179C752.779 254.56 752.391 253.725 752.374 252.851C752.358 251.976 752.714 251.13 753.367 250.49L769.266 236L753.367 221.51C752.674 220.877 752.284 220.019 752.284 219.125C752.284 218.231 752.674 217.373 753.367 216.74Z" fill="#DEB4AA"/>
<path d="M753.367 371.74C754.062 371.108 755.003 370.753 755.984 370.753C756.966 370.753 757.907 371.108 758.601 371.74L774.5 386.23L790.399 371.74C790.851 371.296 791.427 370.971 792.065 370.8C792.703 370.629 793.38 370.618 794.025 370.768C794.669 370.918 795.257 371.224 795.727 371.653C796.197 372.082 796.531 372.619 796.694 373.207C796.859 373.794 796.847 374.41 796.661 374.991C796.474 375.573 796.119 376.097 795.632 376.51L779.734 391L795.632 405.49C796.12 405.903 796.476 406.427 796.664 407.009C796.852 407.59 796.864 408.207 796.699 408.795C796.534 409.382 796.199 409.918 795.728 410.346C795.257 410.774 794.668 411.079 794.023 411.228C793.379 411.378 792.703 411.367 792.065 411.197C791.427 411.027 790.852 410.703 790.399 410.26L774.5 395.77L758.601 410.26C757.899 410.856 756.97 411.18 756.011 411.165C755.051 411.15 754.136 410.797 753.456 410.179C752.779 409.56 752.391 408.725 752.374 407.851C752.358 406.976 752.714 406.13 753.367 405.49L769.266 391L753.367 376.51C752.674 375.877 752.284 375.019 752.284 374.125C752.284 373.231 752.674 372.373 753.367 371.74Z" fill="#DEB4AA"/>
<path d="M753.367 526.74C754.062 526.108 755.003 525.753 755.984 525.753C756.966 525.753 757.907 526.108 758.601 526.74L774.5 541.23L790.399 526.74C790.851 526.296 791.427 525.971 792.065 525.8C792.703 525.629 793.38 525.618 794.025 525.768C794.669 525.918 795.257 526.224 795.727 526.653C796.197 527.082 796.531 527.619 796.694 528.207C796.859 528.794 796.847 529.41 796.661 529.991C796.474 530.572 796.119 531.097 795.632 531.51L779.734 546L795.632 560.49C796.12 560.902 796.476 561.427 796.664 562.009C796.852 562.59 796.864 563.207 796.699 563.795C796.534 564.382 796.199 564.918 795.728 565.346C795.257 565.774 794.668 566.079 794.023 566.227C793.379 566.378 792.703 566.367 792.065 566.197C791.427 566.027 790.852 565.703 790.399 565.26L774.5 550.77L758.601 565.26C757.899 565.856 756.97 566.18 756.011 566.165C755.051 566.15 754.136 565.796 753.456 565.179C752.779 564.56 752.391 563.725 752.374 562.851C752.358 561.976 752.714 561.13 753.367 560.49L769.266 546L753.367 531.51C752.674 530.877 752.284 530.019 752.284 529.125C752.284 528.231 752.674 527.373 753.367 526.74Z" fill="#DEB4AA"/>
<path d="M1129.09 360.665C1129.7 361.687 1130.03 363.05 1130 364.454C1129.97 365.857 1129.59 367.186 1128.94 368.149L1093.36 420.917C1092.64 421.992 1091.67 422.577 1090.68 422.548C1089.68 422.519 1088.73 421.878 1088.03 420.761L1076.01 401.558C1075.69 401.065 1075.44 400.478 1075.26 399.831C1075.09 399.183 1075 398.488 1075 397.785C1075 397.083 1075.09 396.387 1075.26 395.739C1075.43 395.091 1075.68 394.503 1076 394.01C1076.32 393.517 1076.7 393.128 1077.11 392.866C1077.53 392.605 1077.97 392.476 1078.42 392.486C1078.86 392.497 1079.3 392.647 1079.71 392.928C1080.12 393.209 1080.49 393.615 1080.8 394.123L1090.82 410.129L1124.33 360.439C1124.98 359.477 1125.85 358.96 1126.74 359.002C1127.63 359.045 1128.47 359.643 1129.09 360.665Z" fill="#869483"/>
<path d="M496.085 364.665C496.697 365.687 497.025 367.05 496.998 368.454C496.972 369.857 496.591 371.186 495.942 372.149L460.362 424.917C459.636 425.992 458.672 426.577 457.676 426.548C456.68 426.519 455.731 425.878 455.031 424.761L443.007 405.558C442.688 405.065 442.435 404.478 442.262 403.831C442.09 403.183 442 402.488 442 401.785C442 401.083 442.088 400.387 442.26 399.739C442.432 399.091 442.685 398.503 443.003 398.01C443.32 397.517 443.697 397.128 444.112 396.866C444.526 396.605 444.969 396.476 445.416 396.486C445.862 396.497 446.303 396.647 446.712 396.928C447.121 397.209 447.49 397.615 447.799 398.123L457.822 414.129L491.329 364.439C491.979 363.477 492.845 362.96 493.737 363.002C494.629 363.045 495.474 363.643 496.085 364.665Z" fill="#869483"/>
<path d="M1129.09 201.665C1129.7 202.687 1130.03 204.05 1130 205.454C1129.97 206.857 1129.59 208.186 1128.94 209.149L1093.36 261.917C1092.64 262.992 1091.67 263.577 1090.68 263.548C1089.68 263.519 1088.73 262.878 1088.03 261.761L1076.01 242.558C1075.69 242.065 1075.44 241.478 1075.26 240.831C1075.09 240.183 1075 239.488 1075 238.785C1075 238.083 1075.09 237.387 1075.26 236.739C1075.43 236.091 1075.68 235.503 1076 235.01C1076.32 234.517 1076.7 234.128 1077.11 233.866C1077.53 233.605 1077.97 233.476 1078.42 233.486C1078.86 233.497 1079.3 233.647 1079.71 233.928C1080.12 234.209 1080.49 234.615 1080.8 235.123L1090.82 251.129L1124.33 201.439C1124.98 200.477 1125.85 199.96 1126.74 200.002C1127.63 200.045 1128.47 200.643 1129.09 201.665Z" fill="#869483"/>
<path d="M496.085 519.665C496.697 520.687 497.025 522.05 496.998 523.454C496.972 524.857 496.591 526.186 495.942 527.149L460.362 579.917C459.636 580.992 458.672 581.577 457.676 581.548C456.68 581.519 455.731 580.878 455.031 579.761L443.007 560.558C442.688 560.065 442.435 559.478 442.262 558.831C442.09 558.183 442 557.488 442 556.785C442 556.083 442.088 555.387 442.26 554.739C442.432 554.091 442.685 553.503 443.003 553.01C443.32 552.517 443.697 552.128 444.112 551.866C444.526 551.605 444.969 551.476 445.416 551.486C445.862 551.497 446.303 551.647 446.712 551.928C447.121 552.209 447.49 552.615 447.799 553.123L457.822 569.129L491.329 519.439C491.979 518.477 492.845 517.96 493.737 518.002C494.629 518.045 495.474 518.643 496.085 519.665Z" fill="#869483"/>
<path d="M1129.09 503.665C1129.7 504.687 1130.03 506.05 1130 507.454C1129.97 508.857 1129.59 510.186 1128.94 511.149L1093.36 563.917C1092.64 564.992 1091.67 565.577 1090.68 565.548C1089.68 565.519 1088.73 564.878 1088.03 563.761L1076.01 544.558C1075.69 544.065 1075.44 543.478 1075.26 542.831C1075.09 542.183 1075 541.488 1075 540.785C1075 540.083 1075.09 539.387 1075.26 538.739C1075.43 538.091 1075.68 537.503 1076 537.01C1076.32 536.517 1076.7 536.128 1077.11 535.866C1077.53 535.605 1077.97 535.476 1078.42 535.486C1078.86 535.497 1079.3 535.647 1079.71 535.928C1080.12 536.209 1080.49 536.615 1080.8 537.123L1090.82 553.129L1124.33 503.439C1124.98 502.477 1125.85 501.96 1126.74 502.002C1127.63 502.045 1128.47 502.643 1129.09 503.665Z" fill="#869483"/>
</svg>
