<svg width="1512" height="180" viewBox="0 0 1512 180" fill="none" xmlns="http://www.w3.org/2000/svg">
<rect width="1512" height="180" fill="#8D9D8C"/>
<rect x="365.5" y="41.5" width="113" height="98" rx="3.5" fill="#FDFCFC" stroke="#486247" stroke-width="3"/>
<rect x="699.5" y="41.5" width="113" height="98" rx="3.5" fill="#FDFCFC" stroke="#486247" stroke-width="3"/>
<rect x="1033.5" y="41.5" width="113" height="98" rx="3.5" fill="#FDFCFC" stroke="#486247" stroke-width="3"/>
<path d="M375.967 98.0225V85.3149C375.967 83.9478 376.614 83.3374 378.055 83.3374H381.705C386.551 83.3374 389.102 86.2061 389.102 91.6748C389.102 97.1313 386.551 100 381.705 100H378.055C376.614 100 375.967 99.3896 375.967 98.0225ZM378.726 97.6562H381.436C384.708 97.6562 386.27 95.7153 386.27 91.6748C386.27 87.6221 384.695 85.6689 381.436 85.6689H378.726V97.6562ZM391.69 83.8501C391.69 82.9712 392.386 82.3364 393.289 82.3364C394.229 82.3364 394.913 82.9712 394.913 83.8501C394.913 84.7412 394.229 85.3882 393.289 85.3882C392.386 85.3882 391.69 84.7412 391.69 83.8501ZM394.656 98.6206C394.656 99.6216 394.119 100.122 393.301 100.122C392.483 100.122 391.946 99.6094 391.946 98.6206V88.4888C391.946 87.4878 392.496 86.9873 393.301 86.9873C394.119 86.9873 394.656 87.5 394.656 88.4888V98.6206ZM397.549 97.3999C397.549 96.7407 397.977 96.3135 398.636 96.3135C399.014 96.3135 399.307 96.4844 399.808 96.9604C400.674 97.7783 401.59 98.1689 402.762 98.1689C404.239 98.1689 405.154 97.5342 405.154 96.4966C405.154 95.6787 404.544 95.0684 403.384 94.812L401.163 94.2993C398.831 93.7744 397.732 92.627 397.732 90.7715C397.732 88.4033 399.686 86.853 402.725 86.853C403.982 86.853 405.154 87.146 406.07 87.6953C406.937 88.1958 407.449 88.9038 407.449 89.5996C407.449 90.2222 407.022 90.6128 406.375 90.6128C405.997 90.6128 405.728 90.4907 405.167 90.0146C404.275 89.209 403.567 88.916 402.591 88.916C401.199 88.916 400.357 89.563 400.357 90.5884C400.357 91.4185 400.906 91.9189 402.103 92.1997L404.446 92.7368C406.729 93.2617 407.791 94.3848 407.791 96.2646C407.791 98.7183 405.826 100.244 402.615 100.244C401.26 100.244 399.991 99.9512 399.039 99.4263C398.086 98.9014 397.549 98.1812 397.549 97.3999ZM410.086 94.519V92.5171C410.086 89.1357 412.125 86.853 415.689 86.853C416.8 86.853 418.021 87.0972 419.009 87.7075C419.815 88.2202 420.511 89.0137 420.511 89.8438C420.511 90.5029 420.108 91.0156 419.4 91.0156C418.802 91.0156 418.497 90.6372 418.204 90.3076C417.605 89.5386 416.824 89.1357 415.787 89.1357C413.833 89.1357 412.869 90.5762 412.869 92.6636V94.3726C412.869 96.4722 413.76 97.9736 415.811 97.9736C416.739 97.9736 417.593 97.644 418.277 96.7773C418.558 96.4844 418.887 96.0815 419.461 96.0815C420.059 96.0815 420.547 96.4722 420.547 97.229C420.547 98.0591 419.888 98.877 418.948 99.4385C417.947 100.037 416.8 100.244 415.701 100.244C412.173 100.244 410.086 98.0591 410.086 94.519ZM428.763 86.853C432.12 86.853 434.524 89.0015 434.524 92.6636V94.397C434.524 98.1201 432.12 100.244 428.763 100.244C425.394 100.244 422.989 98.1201 422.989 94.397V92.6758C422.989 89.0015 425.394 86.853 428.763 86.853ZM428.763 89.0503C426.919 89.0503 425.76 90.5029 425.76 92.7979V94.2993C425.76 96.6309 426.919 98.0591 428.763 98.0591C430.618 98.0591 431.741 96.6309 431.741 94.2993V92.7979C431.741 90.5029 430.618 89.0503 428.763 89.0503ZM439.261 97.644L436.307 89.1235C436.197 88.8184 436.148 88.562 436.148 88.3301C436.148 87.5854 436.722 87.0361 437.503 87.0361C438.248 87.0361 438.699 87.4512 438.919 88.3423L441.507 97.4976H441.617L444.424 88.3545C444.681 87.439 445.12 87.0361 445.816 87.0361C446.573 87.0361 447.122 87.5732 447.122 88.3179C447.122 88.5376 447.073 88.7939 446.939 89.1357L443.875 97.644C443.143 99.6826 442.715 100.122 441.592 100.122C440.396 100.122 439.944 99.6582 439.261 97.644ZM448.721 94.4824V92.6514C448.721 89.209 451.004 86.853 454.336 86.853C457.522 86.853 459.781 89.1479 459.781 92.3218C459.781 93.75 459.439 94.1895 458.365 94.1895H451.48V94.7998C451.48 96.7896 452.725 98.0591 454.764 98.0591C455.801 98.0591 456.57 97.7661 457.193 97.2046C457.828 96.6675 458.023 96.5332 458.45 96.5332C459.036 96.5332 459.439 96.9604 459.439 97.583C459.439 98.0591 459.146 98.5718 458.646 98.9746C457.815 99.7681 456.302 100.244 454.605 100.244C450.967 100.244 448.721 98.0713 448.721 94.4824ZM451.48 92.2974H457.156V92.2607C457.156 90.2954 456.07 89.0259 454.373 89.0259C452.627 89.0259 451.48 90.332 451.48 92.2607V92.2974ZM465.384 98.6206C465.384 99.5728 464.883 100.122 464.017 100.122C463.15 100.122 462.674 99.5728 462.674 98.6206V88.4888C462.674 87.5366 463.174 86.9873 464.029 86.9873C464.834 86.9873 465.298 87.4878 465.335 88.3545V88.7451H465.433C466.019 87.5244 466.995 86.9019 468.191 86.9019C468.619 86.9019 468.973 86.9995 469.217 87.1948C469.51 87.3901 469.668 87.7197 469.668 88.1226C469.668 88.5498 469.522 88.855 469.229 89.0503C468.985 89.2212 468.631 89.2944 468.167 89.3066C466.324 89.3311 465.384 90.332 465.384 92.3584V98.6206Z" fill="black"/>
<path d="M719.891 97.0225V84.3149C719.891 82.9478 720.538 82.3374 721.979 82.3374H725.628C730.475 82.3374 733.026 85.2061 733.026 90.6748C733.026 96.1313 730.475 99 725.628 99H721.979C720.538 99 719.891 98.3896 719.891 97.0225ZM722.65 96.6562H725.36C728.631 96.6562 730.194 94.7153 730.194 90.6748C730.194 86.6221 728.619 84.6689 725.36 84.6689H722.65V96.6562ZM735.223 93.4824V91.6514C735.223 88.209 737.506 85.853 740.838 85.853C744.024 85.853 746.283 88.1479 746.283 91.3218C746.283 92.75 745.941 93.1895 744.867 93.1895H737.982V93.7998C737.982 95.7896 739.227 97.0591 741.266 97.0591C742.303 97.0591 743.072 96.7661 743.695 96.2046C744.33 95.6675 744.525 95.5332 744.952 95.5332C745.538 95.5332 745.941 95.9604 745.941 96.583C745.941 97.0591 745.648 97.5718 745.147 97.9746C744.317 98.7681 742.804 99.2441 741.107 99.2441C737.469 99.2441 735.223 97.0713 735.223 93.4824ZM737.982 91.2974H743.658V91.2607C743.658 89.2954 742.572 88.0259 740.875 88.0259C739.129 88.0259 737.982 89.332 737.982 91.2607V91.2974ZM748.504 96.3999C748.504 95.7407 748.932 95.3135 749.591 95.3135C749.969 95.3135 750.262 95.4844 750.763 95.9604C751.629 96.7783 752.545 97.1689 753.717 97.1689C755.194 97.1689 756.109 96.5342 756.109 95.4966C756.109 94.6787 755.499 94.0684 754.339 93.812L752.118 93.2993C749.786 92.7744 748.688 91.627 748.688 89.7715C748.688 87.4033 750.641 85.853 753.68 85.853C754.938 85.853 756.109 86.146 757.025 86.6953C757.892 87.1958 758.404 87.9038 758.404 88.5996C758.404 89.2222 757.977 89.6128 757.33 89.6128C756.952 89.6128 756.683 89.4907 756.122 89.0146C755.23 88.209 754.522 87.916 753.546 87.916C752.154 87.916 751.312 88.563 751.312 89.5884C751.312 90.4185 751.861 90.9189 753.058 91.1997L755.401 91.7368C757.684 92.2617 758.746 93.3848 758.746 95.2646C758.746 97.7183 756.781 99.2441 753.57 99.2441C752.215 99.2441 750.946 98.9512 749.994 98.4263C749.042 97.9014 748.504 97.1812 748.504 96.3999ZM761.419 82.8501C761.419 81.9712 762.115 81.3364 763.019 81.3364C763.958 81.3364 764.642 81.9712 764.642 82.8501C764.642 83.7412 763.958 84.3882 763.019 84.3882C762.115 84.3882 761.419 83.7412 761.419 82.8501ZM764.386 97.6206C764.386 98.6216 763.849 99.1221 763.031 99.1221C762.213 99.1221 761.676 98.6094 761.676 97.6206V87.4888C761.676 86.4878 762.225 85.9873 763.031 85.9873C763.849 85.9873 764.386 86.5 764.386 87.4888V97.6206ZM776.068 96.7905C775.567 97.9258 774.249 98.8169 772.418 98.8169C769.586 98.8169 767.45 96.7417 767.45 93.2505V91.4805C767.45 87.9893 769.586 85.9019 772.394 85.9019C774.347 85.9019 775.689 86.9272 776.141 88.0503H776.275V87.3301C776.3 86.4146 776.812 85.9629 777.569 85.9629C778.387 85.9629 778.9 86.4756 778.9 87.4644V98.6338C778.9 102.137 776.581 103.846 773.114 103.846C771.576 103.846 770.27 103.541 769.342 102.992C768.524 102.516 767.95 101.808 767.95 101.075C767.95 100.428 768.39 99.9888 769.073 99.9888C769.586 99.9888 769.867 100.282 770.27 100.611C770.794 101.026 771.6 101.6 773.053 101.6C775.055 101.6 776.202 100.526 776.202 98.5483V96.7905H776.068ZM770.221 93.0063C770.221 95.2158 771.466 96.6685 773.297 96.6685C775.177 96.6685 776.202 95.1182 776.202 93.3237V91.5415C776.202 89.7104 775.152 88.1357 773.236 88.1357C771.393 88.1357 770.221 89.6006 770.221 91.8223V93.0063ZM793.414 97.6328C793.414 98.585 792.914 99.1221 792.059 99.1221C791.192 99.1221 790.692 98.5728 790.692 97.6206V91.041C790.692 89.2222 789.789 88.2212 788.153 88.2212C786.285 88.2212 785.101 89.5762 785.101 91.8101V97.6206C785.101 98.5728 784.601 99.1221 783.746 99.1221C782.879 99.1221 782.391 98.5728 782.391 97.6206V87.4521C782.391 86.5366 782.904 85.9873 783.734 85.9873C784.552 85.9873 785.028 86.4878 785.052 87.3789V88.4165H785.187C785.711 86.8418 787.14 85.9019 789.068 85.9019C791.827 85.9019 793.414 87.501 793.414 90.2842V97.6328Z" fill="black"/>
<path d="M1052.74 96.7529L1056.7 84.5459C1056.99 83.5693 1057.43 83.1665 1058.16 83.1665C1058.95 83.1665 1059.54 83.6792 1059.54 84.4238C1059.54 84.7046 1059.43 85.1929 1059.31 85.5713L1054.81 98.2178C1054.36 99.5483 1053.75 100.122 1052.66 100.122C1051.56 100.122 1050.93 99.5483 1050.47 98.2178L1045.98 85.5713C1045.83 85.1318 1045.75 84.7168 1045.75 84.436C1045.75 83.6914 1046.35 83.1665 1047.14 83.1665C1047.87 83.1665 1048.31 83.5938 1048.62 84.5459L1052.61 96.7529H1052.74ZM1067.97 98.3276C1067.26 99.5239 1065.96 100.183 1064.37 100.183C1061.85 100.183 1060.15 98.5962 1060.15 96.2524C1060.15 93.8721 1061.89 92.4194 1064.77 92.4072H1067.99V91.2598C1067.99 89.8071 1067.1 89.0503 1065.45 89.0503C1064.43 89.0503 1063.72 89.4165 1062.97 90.1733C1062.64 90.4907 1062.33 90.6128 1061.86 90.6128C1061.26 90.6128 1060.87 90.21 1060.87 89.624C1060.87 88.8794 1061.39 88.147 1062.47 87.561C1063.25 87.1338 1064.28 86.9019 1065.62 86.9019C1068.88 86.9019 1070.7 88.4644 1070.7 91.272V98.6572C1070.7 99.585 1070.22 100.122 1069.38 100.122C1068.64 100.122 1068.16 99.6704 1068.1 98.9014V98.3276H1067.97ZM1062.88 96.1182C1062.88 97.3145 1063.82 98.1201 1065.21 98.1201C1066.78 98.1201 1067.99 97.0459 1067.99 95.6543V94.2627H1065.15C1063.71 94.2627 1062.88 94.9341 1062.88 96.1182ZM1075.41 100.122C1074.61 100.122 1074.07 99.6216 1074.07 98.6206V83.8745C1074.07 82.8735 1074.61 82.373 1075.41 82.373C1076.23 82.373 1076.78 82.8735 1076.78 83.8745V98.6206C1076.78 99.6216 1076.23 100.122 1075.41 100.122ZM1080.17 83.8501C1080.17 82.9712 1080.87 82.3364 1081.77 82.3364C1082.71 82.3364 1083.4 82.9712 1083.4 83.8501C1083.4 84.7412 1082.71 85.3882 1081.77 85.3882C1080.87 85.3882 1080.17 84.7412 1080.17 83.8501ZM1083.14 98.6206C1083.14 99.6216 1082.6 100.122 1081.78 100.122C1080.97 100.122 1080.43 99.6094 1080.43 98.6206V88.4888C1080.43 87.4878 1080.98 86.9873 1081.78 86.9873C1082.6 86.9873 1083.14 87.5 1083.14 88.4888V98.6206ZM1094.91 97.9492C1094.52 99.2676 1092.95 100.183 1091.09 100.183C1088.1 100.183 1086.2 98.0347 1086.2 94.6655V92.4194C1086.2 89.0503 1088.13 86.9019 1091.14 86.9019C1092.93 86.9019 1094.33 87.6953 1094.83 89.0137H1094.97V83.8745C1094.97 82.9224 1095.46 82.373 1096.32 82.373C1097.19 82.373 1097.68 82.9224 1097.68 83.8745V98.6206C1097.68 99.585 1097.21 100.122 1096.36 100.122C1095.57 100.122 1095.09 99.6216 1095.04 98.7427V97.9492H1094.91ZM1088.97 94.2627C1088.97 96.5942 1090.07 97.9614 1091.94 97.9614C1093.8 97.9614 1094.97 96.6064 1094.97 94.4458V92.4561C1094.97 90.5029 1093.7 89.1357 1091.88 89.1357C1090.05 89.1357 1088.97 90.5151 1088.97 92.8223V94.2627ZM1108.32 98.3276C1107.61 99.5239 1106.32 100.183 1104.72 100.183C1102.21 100.183 1100.51 98.5962 1100.51 96.2524C1100.51 93.8721 1102.24 92.4194 1105.12 92.4072H1108.35V91.2598C1108.35 89.8071 1107.46 89.0503 1105.81 89.0503C1104.78 89.0503 1104.07 89.4165 1103.33 90.1733C1103 90.4907 1102.68 90.6128 1102.22 90.6128C1101.62 90.6128 1101.23 90.21 1101.23 89.624C1101.23 88.8794 1101.74 88.147 1102.83 87.561C1103.61 87.1338 1104.64 86.9019 1105.98 86.9019C1109.24 86.9019 1111.06 88.4644 1111.06 91.272V98.6572C1111.06 99.585 1110.58 100.122 1109.74 100.122C1108.99 100.122 1108.52 99.6704 1108.46 98.9014V98.3276H1108.32ZM1103.23 96.1182C1103.23 97.3145 1104.17 98.1201 1105.56 98.1201C1107.14 98.1201 1108.35 97.0459 1108.35 95.6543V94.2627H1105.5C1104.06 94.2627 1103.23 94.9341 1103.23 96.1182ZM1115.17 96.5698V89.3433H1114.39C1113.65 89.3433 1113.19 88.9282 1113.19 88.2568C1113.19 87.5732 1113.63 87.1704 1114.39 87.1704H1115.22V85.2783C1115.22 84.3506 1115.7 83.8135 1116.54 83.8135C1117.38 83.8135 1117.87 84.3506 1117.87 85.2783V87.1704H1119.36C1120.11 87.1704 1120.54 87.5732 1120.54 88.2568C1120.54 88.9282 1120.1 89.3433 1119.36 89.3433H1117.89V96.3745C1117.89 97.644 1118.21 98.0347 1119.28 98.0347C1119.63 98.0347 1119.86 97.998 1120.13 97.998C1120.64 97.998 1121.01 98.3398 1121.01 98.877C1121.01 99.292 1120.81 99.646 1120.41 99.8779C1120 100.11 1119.42 100.232 1118.63 100.232C1116.18 100.232 1115.17 99.2188 1115.17 96.5698ZM1122.6 94.4824V92.6514C1122.6 89.209 1124.89 86.853 1128.22 86.853C1131.41 86.853 1133.66 89.1479 1133.66 92.3218C1133.66 93.75 1133.32 94.1895 1132.25 94.1895H1125.36V94.7998C1125.36 96.7896 1126.61 98.0591 1128.65 98.0591C1129.69 98.0591 1130.45 97.7661 1131.08 97.2046C1131.71 96.6675 1131.91 96.5332 1132.33 96.5332C1132.92 96.5332 1133.32 96.9604 1133.32 97.583C1133.32 98.0591 1133.03 98.5718 1132.53 98.9746C1131.7 99.7681 1130.19 100.244 1128.49 100.244C1124.85 100.244 1122.6 98.0713 1122.6 94.4824ZM1125.36 92.2974H1131.04V92.2607C1131.04 90.2954 1129.95 89.0259 1128.26 89.0259C1126.51 89.0259 1125.36 90.332 1125.36 92.2607V92.2974Z" fill="black"/>
<path d="M567 89.5C566.172 89.5 565.5 90.1716 565.5 91C565.5 91.8284 566.172 92.5 567 92.5V89.5ZM628.061 92.0607C628.646 91.4749 628.646 90.5251 628.061 89.9393L618.515 80.3934C617.929 79.8076 616.979 79.8076 616.393 80.3934C615.808 80.9792 615.808 81.9289 616.393 82.5147L624.879 91L616.393 99.4853C615.808 100.071 615.808 101.021 616.393 101.607C616.979 102.192 617.929 102.192 618.515 101.607L628.061 92.0607ZM567 92.5H627V89.5H567V92.5Z" fill="black"/>
<path d="M898 74.5C897.172 74.5 896.5 75.1716 896.5 76C896.5 76.8284 897.172 77.5 898 77.5V74.5ZM959.061 77.0607C959.646 76.4749 959.646 75.5251 959.061 74.9393L949.515 65.3934C948.929 64.8076 947.979 64.8076 947.393 65.3934C946.808 65.9792 946.808 66.9289 947.393 67.5147L955.879 76L947.393 84.4853C946.808 85.0711 946.808 86.0208 947.393 86.6066C947.979 87.1924 948.929 87.1924 949.515 86.6066L959.061 77.0607ZM898 77.5H958V74.5H898V77.5Z" fill="black"/>
<path d="M958 106.5C958.828 106.5 959.5 105.828 959.5 105C959.5 104.172 958.828 103.5 958 103.5V106.5ZM896.939 103.939C896.354 104.525 896.354 105.475 896.939 106.061L906.485 115.607C907.071 116.192 908.021 116.192 908.607 115.607C909.192 115.021 909.192 114.071 908.607 113.485L900.121 105L908.607 96.5147C909.192 95.9289 909.192 94.9792 908.607 94.3934C908.021 93.8076 907.071 93.8076 906.485 94.3934L896.939 103.939ZM958 103.5L898 103.5V106.5L958 106.5V103.5Z" fill="black"/>
</svg>
