 <svg width="984" height="228" viewBox="0 0 984 228" fill="none" xmlns="http://www.w3.org/2000/svg">
<path d="M0 12C0 5.37258 5.37258 0 12 0H972C978.627 0 984 5.37258 984 12V216C984 222.627 978.627 228 972 228H12C5.37257 228 0 222.627 0 216V12Z" fill="black" fill-opacity="0.0980392"/>
<path d="M656 152H984V216C984 222.627 978.627 228 972 228H656V152Z" fill="#C2C8BF"/>
<path d="M656 152H984H656ZM985 216C985 223.18 979.18 229 972 229H656V227H972C978.075 227 983 222.075 983 216H985ZM656 228V152V228ZM985 152V216C985 223.18 979.18 229 972 229V227C978.075 227 983 222.075 983 216V152H985Z" fill="black" fill-opacity="0.2"/>
<path d="M690.18 193.469C690.18 196.996 687.684 199.34 683.898 199.34C679.949 199.34 677.617 196.984 677.617 193.434V184.316C677.617 183.426 678.109 182.887 678.941 182.887C679.762 182.887 680.277 183.426 680.277 184.316V193.27C680.277 195.59 681.672 197.02 683.898 197.02C686.113 197.02 687.52 195.578 687.52 193.27V184.316C687.52 183.426 688.012 182.887 688.844 182.887C689.664 182.887 690.18 183.426 690.18 184.316V193.469ZM692.349 196.504C692.349 195.871 692.759 195.461 693.392 195.461C693.755 195.461 694.036 195.625 694.517 196.082C695.349 196.867 696.228 197.242 697.353 197.242C698.771 197.242 699.649 196.633 699.649 195.637C699.649 194.852 699.064 194.266 697.95 194.02L695.817 193.527C693.579 193.023 692.524 191.922 692.524 190.141C692.524 187.867 694.399 186.379 697.317 186.379C698.524 186.379 699.649 186.66 700.528 187.188C701.36 187.668 701.853 188.348 701.853 189.016C701.853 189.613 701.442 189.988 700.821 189.988C700.458 189.988 700.2 189.871 699.661 189.414C698.806 188.641 698.126 188.359 697.189 188.359C695.853 188.359 695.044 188.98 695.044 189.965C695.044 190.762 695.571 191.242 696.72 191.512L698.97 192.027C701.161 192.531 702.181 193.609 702.181 195.414C702.181 197.77 700.294 199.234 697.212 199.234C695.911 199.234 694.692 198.953 693.778 198.449C692.864 197.945 692.349 197.254 692.349 196.504ZM711.252 197.395C710.572 198.543 709.33 199.176 707.795 199.176C705.381 199.176 703.752 197.652 703.752 195.402C703.752 193.117 705.416 191.723 708.182 191.711H711.275V190.609C711.275 189.215 710.42 188.488 708.838 188.488C707.854 188.488 707.174 188.84 706.459 189.566C706.143 189.871 705.838 189.988 705.393 189.988C704.818 189.988 704.443 189.602 704.443 189.039C704.443 188.324 704.936 187.621 705.979 187.059C706.729 186.648 707.713 186.426 709.002 186.426C712.131 186.426 713.877 187.926 713.877 190.621V197.711C713.877 198.602 713.42 199.117 712.611 199.117C711.897 199.117 711.44 198.684 711.381 197.945V197.395H711.252ZM706.365 195.273C706.365 196.422 707.268 197.195 708.604 197.195C710.115 197.195 711.275 196.164 711.275 194.828V193.492H708.545C707.162 193.492 706.365 194.137 706.365 195.273ZM722.902 199.176C721.167 199.176 719.808 198.414 719.269 197.137H719.14V197.805C719.14 198.648 718.659 199.117 717.874 199.117C717.066 199.117 716.609 198.602 716.609 197.676V183.52C716.609 182.605 717.089 182.078 717.909 182.078C718.73 182.078 719.21 182.605 719.21 183.52V188.559H719.339C719.737 187.281 721.191 186.426 722.96 186.426C725.843 186.426 727.636 188.488 727.636 191.828V193.762C727.636 197.125 725.831 199.176 722.902 199.176ZM719.21 193.809C719.21 195.707 720.429 197.031 722.175 197.031C723.956 197.031 724.976 195.719 724.976 193.434V192.262C724.976 189.941 723.933 188.57 722.128 188.57C720.335 188.57 719.21 189.895 719.21 192.004V193.809ZM729.934 183.496C729.934 182.652 730.602 182.043 731.469 182.043C732.371 182.043 733.028 182.652 733.028 183.496C733.028 184.352 732.371 184.973 731.469 184.973C730.602 184.973 729.934 184.352 729.934 183.496ZM732.781 197.676C732.781 198.637 732.266 199.117 731.481 199.117C730.696 199.117 730.18 198.625 730.18 197.676V187.949C730.18 186.988 730.707 186.508 731.481 186.508C732.266 186.508 732.781 187 732.781 187.949V197.676ZM737.118 199.117C736.345 199.117 735.829 198.637 735.829 197.676V183.52C735.829 182.559 736.345 182.078 737.118 182.078C737.904 182.078 738.431 182.559 738.431 183.52V197.676C738.431 198.637 737.904 199.117 737.118 199.117ZM741.233 183.496C741.233 182.652 741.901 182.043 742.768 182.043C743.67 182.043 744.326 182.652 744.326 183.496C744.326 184.352 743.67 184.973 742.768 184.973C741.901 184.973 741.233 184.352 741.233 183.496ZM744.08 197.676C744.08 198.637 743.565 199.117 742.78 199.117C741.994 199.117 741.479 198.625 741.479 197.676V187.949C741.479 186.988 742.006 186.508 742.78 186.508C743.565 186.508 744.08 187 744.08 187.949V197.676ZM747.82 195.707V188.77H747.07C746.355 188.77 745.921 188.371 745.921 187.727C745.921 187.07 746.343 186.684 747.07 186.684H747.867V184.867C747.867 183.977 748.324 183.461 749.132 183.461C749.941 183.461 750.41 183.977 750.41 184.867V186.684H751.839C752.566 186.684 752.976 187.07 752.976 187.727C752.976 188.371 752.554 188.77 751.839 188.77H750.433V195.52C750.433 196.738 750.738 197.113 751.769 197.113C752.097 197.113 752.32 197.078 752.578 197.078C753.07 197.078 753.421 197.406 753.421 197.922C753.421 198.32 753.234 198.66 752.847 198.883C752.46 199.105 751.898 199.223 751.136 199.223C748.792 199.223 747.82 198.25 747.82 195.707ZM754.934 202.27C754.934 201.73 755.344 201.367 755.965 201.367C756.176 201.367 756.399 201.414 756.704 201.414C757.454 201.414 758.11 200.805 758.391 199.855C758.414 199.82 758.567 199.223 758.567 199.164L754.77 188.582C754.664 188.266 754.618 188.008 754.618 187.797C754.618 187.094 755.168 186.566 755.918 186.566C756.598 186.566 757.043 186.977 757.278 187.832L759.973 196.691H760.079L762.797 187.832C763.032 186.977 763.465 186.566 764.133 186.566C764.848 186.566 765.387 187.082 765.387 187.785C765.387 187.996 765.329 188.242 765.211 188.582L761.286 199.691C760.348 202.363 759.012 203.441 756.774 203.441C756.082 203.441 755.532 203.277 755.227 202.973C755.039 202.785 754.934 202.551 754.934 202.27ZM775.924 199.117C775.104 199.117 774.6 198.578 774.6 197.688V185.289H770.967C770.253 185.289 769.749 184.82 769.749 184.152C769.749 183.473 770.253 183.004 770.967 183.004H780.905C781.631 183.004 782.112 183.473 782.112 184.152C782.112 184.832 781.631 185.289 780.905 185.289H777.26V197.688C777.26 198.566 776.745 199.117 775.924 199.117ZM780.859 193.703V191.945C780.859 188.641 783.05 186.379 786.25 186.379C789.308 186.379 791.476 188.582 791.476 191.629C791.476 193 791.148 193.422 790.117 193.422H783.507V194.008C783.507 195.918 784.703 197.137 786.66 197.137C787.656 197.137 788.394 196.855 788.992 196.316C789.601 195.801 789.789 195.672 790.199 195.672C790.761 195.672 791.148 196.082 791.148 196.68C791.148 197.137 790.867 197.629 790.386 198.016C789.589 198.777 788.136 199.234 786.507 199.234C783.015 199.234 780.859 197.148 780.859 193.703ZM783.507 191.605H788.957V191.57C788.957 189.684 787.914 188.465 786.285 188.465C784.609 188.465 783.507 189.719 783.507 191.57V191.605ZM793.153 196.504C793.153 195.871 793.563 195.461 794.196 195.461C794.559 195.461 794.84 195.625 795.321 196.082C796.153 196.867 797.032 197.242 798.157 197.242C799.575 197.242 800.454 196.633 800.454 195.637C800.454 194.852 799.868 194.266 798.755 194.02L796.622 193.527C794.383 193.023 793.329 191.922 793.329 190.141C793.329 187.867 795.204 186.379 798.122 186.379C799.329 186.379 800.454 186.66 801.333 187.188C802.165 187.668 802.657 188.348 802.657 189.016C802.657 189.613 802.247 189.988 801.626 189.988C801.262 189.988 801.005 189.871 800.465 189.414C799.61 188.641 798.93 188.359 797.993 188.359C796.657 188.359 795.848 188.98 795.848 189.965C795.848 190.762 796.376 191.242 797.524 191.512L799.774 192.027C801.965 192.531 802.985 193.609 802.985 195.414C802.985 197.77 801.098 199.234 798.016 199.234C796.715 199.234 795.497 198.953 794.583 198.449C793.669 197.945 793.153 197.254 793.153 196.504ZM805.998 195.707V188.77H805.248C804.533 188.77 804.099 188.371 804.099 187.727C804.099 187.07 804.521 186.684 805.248 186.684H806.045V184.867C806.045 183.977 806.502 183.461 807.31 183.461C808.119 183.461 808.588 183.977 808.588 184.867V186.684H810.017C810.744 186.684 811.154 187.07 811.154 187.727C811.154 188.371 810.732 188.77 810.017 188.77H808.611V195.52C808.611 196.738 808.916 197.113 809.947 197.113C810.275 197.113 810.498 197.078 810.756 197.078C811.248 197.078 811.599 197.406 811.599 197.922C811.599 198.32 811.412 198.66 811.025 198.883C810.638 199.105 810.076 199.223 809.314 199.223C806.97 199.223 805.998 198.25 805.998 195.707ZM813.288 183.496C813.288 182.652 813.956 182.043 814.823 182.043C815.725 182.043 816.382 182.652 816.382 183.496C816.382 184.352 815.725 184.973 814.823 184.973C813.956 184.973 813.288 184.352 813.288 183.496ZM816.136 197.676C816.136 198.637 815.62 199.117 814.835 199.117C814.05 199.117 813.534 198.625 813.534 197.676V187.949C813.534 186.988 814.061 186.508 814.835 186.508C815.62 186.508 816.136 187 816.136 187.949V197.676ZM829.672 197.688C829.672 198.602 829.191 199.117 828.371 199.117C827.539 199.117 827.058 198.59 827.058 197.676V191.359C827.058 189.613 826.191 188.652 824.621 188.652C822.828 188.652 821.691 189.953 821.691 192.098V197.676C821.691 198.59 821.211 199.117 820.39 199.117C819.558 199.117 819.09 198.59 819.09 197.676V187.914C819.09 187.035 819.582 186.508 820.379 186.508C821.164 186.508 821.621 186.988 821.644 187.844V188.84H821.773C822.277 187.328 823.648 186.426 825.5 186.426C828.148 186.426 829.672 187.961 829.672 190.633V197.688ZM840.173 196.879C839.692 197.969 838.427 198.824 836.669 198.824C833.95 198.824 831.899 196.832 831.899 193.48V191.781C831.899 188.43 833.95 186.426 836.645 186.426C838.52 186.426 839.809 187.41 840.243 188.488H840.372V187.797C840.395 186.918 840.888 186.484 841.614 186.484C842.399 186.484 842.891 186.977 842.891 187.926V198.648C842.891 202.012 840.665 203.652 837.337 203.652C835.86 203.652 834.606 203.359 833.716 202.832C832.931 202.375 832.38 201.695 832.38 200.992C832.38 200.371 832.802 199.949 833.458 199.949C833.95 199.949 834.22 200.23 834.606 200.547C835.11 200.945 835.884 201.496 837.278 201.496C839.2 201.496 840.302 200.465 840.302 198.566V196.879H840.173ZM834.559 193.246C834.559 195.367 835.755 196.762 837.513 196.762C839.317 196.762 840.302 195.273 840.302 193.551V191.84C840.302 190.082 839.294 188.57 837.454 188.57C835.684 188.57 834.559 189.977 834.559 192.109V193.246Z" fill="black" fill-opacity="0.8"/>
<path d="M328 152H656V228H328V152Z" fill="#C2C8BF"/>
<path d="M656 228V229H657V228H656ZM655 152V228H657V152H655ZM656 227H328V229H656V227Z" fill="black" fill-opacity="0.2"/>
<path d="M352.031 197.535L348.586 185.125C348.492 184.797 348.445 184.41 348.445 184.188C348.445 183.402 349.008 182.84 349.816 182.84C350.543 182.84 351.012 183.355 351.246 184.387L353.719 195.18H353.859L356.496 184.387C356.754 183.332 357.223 182.84 358.055 182.84C358.887 182.84 359.355 183.344 359.613 184.387L362.25 195.18H362.391L364.84 184.387C365.062 183.367 365.543 182.84 366.27 182.84C367.066 182.84 367.641 183.402 367.641 184.176C367.641 184.398 367.594 184.785 367.523 185.031L364.078 197.535C363.762 198.66 363.34 199.059 362.508 199.059C361.641 199.059 361.137 198.613 360.844 197.5L358.113 187.129H357.996L355.254 197.535C354.973 198.59 354.469 199.059 353.637 199.059C352.805 199.059 352.359 198.707 352.031 197.535ZM369.435 183.496C369.435 182.652 370.103 182.043 370.97 182.043C371.872 182.043 372.528 182.652 372.528 183.496C372.528 184.352 371.872 184.973 370.97 184.973C370.103 184.973 369.435 184.352 369.435 183.496ZM372.282 197.676C372.282 198.637 371.767 199.117 370.982 199.117C370.196 199.117 369.681 198.625 369.681 197.676V187.949C369.681 186.988 370.208 186.508 370.982 186.508C371.767 186.508 372.282 187 372.282 187.949V197.676ZM377.85 197.676C377.85 198.59 377.369 199.117 376.537 199.117C375.705 199.117 375.248 198.59 375.248 197.676V187.949C375.248 187.035 375.729 186.508 376.549 186.508C377.322 186.508 377.768 186.988 377.803 187.82V188.195H377.897C378.459 187.023 379.397 186.426 380.545 186.426C380.955 186.426 381.295 186.52 381.529 186.707C381.811 186.895 381.963 187.211 381.963 187.598C381.963 188.008 381.822 188.301 381.541 188.488C381.307 188.652 380.967 188.723 380.522 188.734C378.752 188.758 377.85 189.719 377.85 191.664V197.676ZM382.843 193.703V191.945C382.843 188.641 385.034 186.379 388.234 186.379C391.292 186.379 393.46 188.582 393.46 191.629C393.46 193 393.132 193.422 392.101 193.422H385.491V194.008C385.491 195.918 386.687 197.137 388.644 197.137C389.64 197.137 390.378 196.855 390.976 196.316C391.585 195.801 391.773 195.672 392.183 195.672C392.745 195.672 393.132 196.082 393.132 196.68C393.132 197.137 392.851 197.629 392.37 198.016C391.573 198.777 390.12 199.234 388.491 199.234C384.999 199.234 382.843 197.148 382.843 193.703ZM385.491 191.605H390.941V191.57C390.941 189.684 389.898 188.465 388.269 188.465C386.593 188.465 385.491 189.719 385.491 191.57V191.605ZM399.238 197.676C399.238 198.59 398.758 199.117 397.938 199.117C397.117 199.117 396.637 198.59 396.637 197.676V188.723H395.793C395.078 188.723 394.645 188.336 394.645 187.68C394.645 187.023 395.067 186.637 395.793 186.637H396.637V185.547C396.637 183.051 397.867 181.914 400.328 181.914C401.031 181.914 401.571 182.043 401.922 182.277C402.227 182.5 402.391 182.781 402.391 183.121C402.391 183.648 402.063 183.988 401.559 183.988C401.102 183.988 400.973 183.918 400.469 183.918C399.625 183.918 399.203 184.387 399.203 185.453V186.637H400.727C401.453 186.637 401.875 187.023 401.875 187.68C401.875 188.324 401.453 188.723 400.727 188.723H399.238V197.676ZM406.552 197.676C406.552 198.59 406.072 199.117 405.24 199.117C404.408 199.117 403.95 198.59 403.95 197.676V187.949C403.95 187.035 404.431 186.508 405.251 186.508C406.025 186.508 406.47 186.988 406.505 187.82V188.195H406.599C407.161 187.023 408.099 186.426 409.247 186.426C409.658 186.426 409.997 186.52 410.232 186.707C410.513 186.895 410.665 187.211 410.665 187.598C410.665 188.008 410.525 188.301 410.243 188.488C410.009 188.652 409.669 188.723 409.224 188.734C407.454 188.758 406.552 189.719 406.552 191.664V197.676ZM418.881 197.395C418.201 198.543 416.959 199.176 415.424 199.176C413.01 199.176 411.381 197.652 411.381 195.402C411.381 193.117 413.045 191.723 415.811 191.711H418.905V190.609C418.905 189.215 418.049 188.488 416.467 188.488C415.483 188.488 414.803 188.84 414.088 189.566C413.772 189.871 413.467 189.988 413.022 189.988C412.448 189.988 412.073 189.602 412.073 189.039C412.073 188.324 412.565 187.621 413.608 187.059C414.358 186.648 415.342 186.426 416.631 186.426C419.76 186.426 421.506 187.926 421.506 190.621V197.711C421.506 198.602 421.049 199.117 420.241 199.117C419.526 199.117 419.069 198.684 419.01 197.945V197.395H418.881ZM413.994 195.273C413.994 196.422 414.897 197.195 416.233 197.195C417.744 197.195 418.905 196.164 418.905 194.828V193.492H416.174C414.791 193.492 413.994 194.137 413.994 195.273ZM441.57 197.676C441.57 198.602 441.089 199.117 440.269 199.117C439.449 199.117 438.98 198.602 438.98 197.676V191.066C438.98 189.508 438.101 188.617 436.624 188.617C435.183 188.617 434.152 189.707 434.152 191.289V197.676C434.152 198.602 433.695 199.117 432.886 199.117C432.066 199.117 431.609 198.602 431.609 197.676V191.137C431.609 189.578 430.683 188.617 429.23 188.617C427.788 188.617 426.792 189.672 426.792 191.266V197.676C426.792 198.602 426.312 199.117 425.492 199.117C424.66 199.117 424.191 198.602 424.191 197.676V187.926C424.191 187.047 424.683 186.508 425.48 186.508C426.253 186.508 426.722 187.023 426.745 187.879V188.629H426.874C427.32 187.258 428.574 186.426 430.249 186.426C431.984 186.426 433.261 187.305 433.671 188.758H433.8C434.363 187.293 435.745 186.426 437.538 186.426C440.081 186.426 441.57 187.867 441.57 190.316V197.676ZM443.868 193.703V191.945C443.868 188.641 446.059 186.379 449.258 186.379C452.317 186.379 454.485 188.582 454.485 191.629C454.485 193 454.157 193.422 453.125 193.422H446.516V194.008C446.516 195.918 447.711 197.137 449.668 197.137C450.664 197.137 451.403 196.855 452 196.316C452.61 195.801 452.797 195.672 453.207 195.672C453.77 195.672 454.157 196.082 454.157 196.68C454.157 197.137 453.875 197.629 453.395 198.016C452.598 198.777 451.145 199.234 449.516 199.234C446.024 199.234 443.868 197.148 443.868 193.703ZM446.516 191.605H451.965V191.57C451.965 189.684 450.922 188.465 449.293 188.465C447.618 188.465 446.516 189.719 446.516 191.57V191.605ZM456.162 196.504C456.162 195.871 456.572 195.461 457.205 195.461C457.568 195.461 457.849 195.625 458.33 196.082C459.162 196.867 460.041 197.242 461.166 197.242C462.584 197.242 463.462 196.633 463.462 195.637C463.462 194.852 462.876 194.266 461.763 194.02L459.63 193.527C457.392 193.023 456.337 191.922 456.337 190.141C456.337 187.867 458.212 186.379 461.13 186.379C462.337 186.379 463.462 186.66 464.341 187.188C465.173 187.668 465.666 188.348 465.666 189.016C465.666 189.613 465.255 189.988 464.634 189.988C464.271 189.988 464.013 189.871 463.474 189.414C462.619 188.641 461.939 188.359 461.001 188.359C459.666 188.359 458.857 188.98 458.857 189.965C458.857 190.762 459.384 191.242 460.533 191.512L462.783 192.027C464.974 192.531 465.994 193.609 465.994 195.414C465.994 197.77 464.107 199.234 461.025 199.234C459.724 199.234 458.505 198.953 457.591 198.449C456.677 197.945 456.162 197.254 456.162 196.504Z" fill="black" fill-opacity="0.8"/>
<path d="M0 152H328V228H12C5.37259 228 0 222.627 0 216V152Z" fill="#C2C8BF"/>
<path d="M0 152H328H0ZM329 229H12C4.8203 229 -1 223.18 -1 216H1C1 222.075 5.92487 227 12 227H327L329 229ZM12 229C4.8203 229 -1 223.18 -1 216V152H1V216C1 222.075 5.92487 227 12 227V229ZM329 152V229L327 227V152H329Z" fill="black" fill-opacity="0.2"/>
<path d="M34.1797 193.469C34.1797 196.996 31.6836 199.34 27.8984 199.34C23.9492 199.34 21.6172 196.984 21.6172 193.434V184.316C21.6172 183.426 22.1094 182.887 22.9414 182.887C23.7617 182.887 24.2773 183.426 24.2773 184.316V193.27C24.2773 195.59 25.6719 197.02 27.8984 197.02C30.1133 197.02 31.5195 195.578 31.5195 193.27V184.316C31.5195 183.426 32.0117 182.887 32.8438 182.887C33.6641 182.887 34.1797 183.426 34.1797 184.316V193.469ZM36.3487 196.504C36.3487 195.871 36.7588 195.461 37.3917 195.461C37.7549 195.461 38.0362 195.625 38.5167 196.082C39.3487 196.867 40.2276 197.242 41.3526 197.242C42.7706 197.242 43.6495 196.633 43.6495 195.637C43.6495 194.852 43.0635 194.266 41.9502 194.02L39.8174 193.527C37.5792 193.023 36.5245 191.922 36.5245 190.141C36.5245 187.867 38.3995 186.379 41.3174 186.379C42.5245 186.379 43.6495 186.66 44.5284 187.188C45.3604 187.668 45.8526 188.348 45.8526 189.016C45.8526 189.613 45.4424 189.988 44.8213 189.988C44.4581 189.988 44.2002 189.871 43.6612 189.414C42.8057 188.641 42.126 188.359 41.1885 188.359C39.8526 188.359 39.044 188.98 39.044 189.965C39.044 190.762 39.5713 191.242 40.7198 191.512L42.9698 192.027C45.1612 192.531 46.1807 193.609 46.1807 195.414C46.1807 197.77 44.294 199.234 41.212 199.234C39.9112 199.234 38.6924 198.953 37.7784 198.449C36.8643 197.945 36.3487 197.254 36.3487 196.504ZM47.9161 193.703V191.945C47.9161 188.641 50.1075 186.379 53.3067 186.379C56.3653 186.379 58.5333 188.582 58.5333 191.629C58.5333 193 58.2052 193.422 57.1739 193.422H50.5646V194.008C50.5646 195.918 51.7599 197.137 53.7169 197.137C54.713 197.137 55.4513 196.855 56.0489 196.316C56.6583 195.801 56.8458 195.672 57.256 195.672C57.8185 195.672 58.2052 196.082 58.2052 196.68C58.2052 197.137 57.9239 197.629 57.4435 198.016C56.6466 198.777 55.1935 199.234 53.5646 199.234C50.0724 199.234 47.9161 197.148 47.9161 193.703ZM50.5646 191.605H56.0138V191.57C56.0138 189.684 54.9708 188.465 53.3419 188.465C51.6661 188.465 50.5646 189.719 50.5646 191.57V191.605ZM63.4562 197.676C63.4562 198.59 62.9757 199.117 62.1437 199.117C61.3117 199.117 60.8547 198.59 60.8547 197.676V187.949C60.8547 187.035 61.3351 186.508 62.1554 186.508C62.9289 186.508 63.3742 186.988 63.4093 187.82V188.195H63.5031C64.0656 187.023 65.0031 186.426 66.1515 186.426C66.5617 186.426 66.9015 186.52 67.1359 186.707C67.4172 186.895 67.5695 187.211 67.5695 187.598C67.5695 188.008 67.4289 188.301 67.1476 188.488C66.9132 188.652 66.5734 188.723 66.1281 188.734C64.3586 188.758 63.4562 189.719 63.4562 191.664V197.676ZM72.6575 196.504C72.6575 195.871 73.0677 195.461 73.7005 195.461C74.0638 195.461 74.345 195.625 74.8255 196.082C75.6575 196.867 76.5364 197.242 77.6614 197.242C79.0794 197.242 79.9583 196.633 79.9583 195.637C79.9583 194.852 79.3723 194.266 78.2591 194.02L76.1263 193.527C73.888 193.023 72.8333 191.922 72.8333 190.141C72.8333 187.867 74.7083 186.379 77.6263 186.379C78.8333 186.379 79.9583 186.66 80.8372 187.188C81.6692 187.668 82.1614 188.348 82.1614 189.016C82.1614 189.613 81.7513 189.988 81.1302 189.988C80.7669 189.988 80.5091 189.871 79.97 189.414C79.1145 188.641 78.4348 188.359 77.4973 188.359C76.1614 188.359 75.3528 188.98 75.3528 189.965C75.3528 190.762 75.8802 191.242 77.0286 191.512L79.2786 192.027C81.47 192.531 82.4895 193.609 82.4895 195.414C82.4895 197.77 80.6028 199.234 77.5208 199.234C76.22 199.234 75.0013 198.953 74.0872 198.449C73.1731 197.945 72.6575 197.254 72.6575 196.504ZM85.5023 195.707V188.77H84.7523C84.0374 188.77 83.6038 188.371 83.6038 187.727C83.6038 187.07 84.0257 186.684 84.7523 186.684H85.5492V184.867C85.5492 183.977 86.0062 183.461 86.8148 183.461C87.6234 183.461 88.0921 183.977 88.0921 184.867V186.684H89.5218C90.2484 186.684 90.6585 187.07 90.6585 187.727C90.6585 188.371 90.2367 188.77 89.5218 188.77H88.1156V195.52C88.1156 196.738 88.4202 197.113 89.4515 197.113C89.7796 197.113 90.0023 197.078 90.2601 197.078C90.7523 197.078 91.1038 197.406 91.1038 197.922C91.1038 198.32 90.9163 198.66 90.5296 198.883C90.1429 199.105 89.5804 199.223 88.8187 199.223C86.4749 199.223 85.5023 198.25 85.5023 195.707ZM97.7025 186.379C100.925 186.379 103.234 188.441 103.234 191.957V193.621C103.234 197.195 100.925 199.234 97.7025 199.234C94.4682 199.234 92.1596 197.195 92.1596 193.621V191.969C92.1596 188.441 94.4682 186.379 97.7025 186.379ZM97.7025 188.488C95.933 188.488 94.8197 189.883 94.8197 192.086V193.527C94.8197 195.766 95.933 197.137 97.7025 197.137C99.4838 197.137 100.562 195.766 100.562 193.527V192.086C100.562 189.883 99.4838 188.488 97.7025 188.488ZM108.168 197.676C108.168 198.59 107.688 199.117 106.856 199.117C106.024 199.117 105.567 198.59 105.567 197.676V187.949C105.567 187.035 106.047 186.508 106.868 186.508C107.641 186.508 108.086 186.988 108.122 187.82V188.195H108.215C108.778 187.023 109.715 186.426 110.864 186.426C111.274 186.426 111.614 186.52 111.848 186.707C112.129 186.895 112.282 187.211 112.282 187.598C112.282 188.008 112.141 188.301 111.86 188.488C111.625 188.652 111.286 188.723 110.84 188.734C109.071 188.758 108.168 189.719 108.168 191.664V197.676ZM113.935 183.496C113.935 182.652 114.603 182.043 115.47 182.043C116.373 182.043 117.029 182.652 117.029 183.496C117.029 184.352 116.373 184.973 115.47 184.973C114.603 184.973 113.935 184.352 113.935 183.496ZM116.783 197.676C116.783 198.637 116.267 199.117 115.482 199.117C114.697 199.117 114.181 198.625 114.181 197.676V187.949C114.181 186.988 114.709 186.508 115.482 186.508C116.267 186.508 116.783 187 116.783 187.949V197.676ZM119.245 193.703V191.945C119.245 188.641 121.436 186.379 124.635 186.379C127.694 186.379 129.862 188.582 129.862 191.629C129.862 193 129.534 193.422 128.503 193.422H121.893V194.008C121.893 195.918 123.088 197.137 125.045 197.137C126.042 197.137 126.78 196.855 127.378 196.316C127.987 195.801 128.174 195.672 128.585 195.672C129.147 195.672 129.534 196.082 129.534 196.68C129.534 197.137 129.253 197.629 128.772 198.016C127.975 198.777 126.522 199.234 124.893 199.234C121.401 199.234 119.245 197.148 119.245 193.703ZM121.893 191.605H127.342V191.57C127.342 189.684 126.299 188.465 124.67 188.465C122.995 188.465 121.893 189.719 121.893 191.57V191.605ZM131.539 196.504C131.539 195.871 131.949 195.461 132.582 195.461C132.945 195.461 133.226 195.625 133.707 196.082C134.539 196.867 135.418 197.242 136.543 197.242C137.961 197.242 138.839 196.633 138.839 195.637C138.839 194.852 138.254 194.266 137.14 194.02L135.007 193.527C132.769 193.023 131.714 191.922 131.714 190.141C131.714 187.867 133.589 186.379 136.507 186.379C137.714 186.379 138.839 186.66 139.718 187.188C140.55 187.668 141.043 188.348 141.043 189.016C141.043 189.613 140.632 189.988 140.011 189.988C139.648 189.988 139.39 189.871 138.851 189.414C137.996 188.641 137.316 188.359 136.379 188.359C135.043 188.359 134.234 188.98 134.234 189.965C134.234 190.762 134.761 191.242 135.91 191.512L138.16 192.027C140.351 192.531 141.371 193.609 141.371 195.414C141.371 197.77 139.484 199.234 136.402 199.234C135.101 199.234 133.882 198.953 132.968 198.449C132.054 197.945 131.539 197.254 131.539 196.504Z" fill="black" fill-opacity="0.8"/>
<path d="M0 76H328V152H0V76Z" fill="#C2C8BF"/>
<path d="M328 152V153H329V152H328ZM0 152H-1V153H0V152ZM327 76V152H329V76H327ZM328 151H0V153H328V151ZM1 152V76H-1V152H1Z" fill="black" fill-opacity="0.2"/>
<path d="M23.1289 123.117C22.2969 123.117 21.793 122.578 21.793 121.664V108.34C21.793 107.426 22.2852 106.887 23.1289 106.887C23.9609 106.887 24.4531 107.426 24.4531 108.34V121.664C24.4531 122.578 23.9609 123.117 23.1289 123.117ZM38.0245 121.688C38.0245 122.602 37.544 123.117 36.7237 123.117C35.8917 123.117 35.4112 122.59 35.4112 121.676V115.359C35.4112 113.613 34.544 112.652 32.9737 112.652C31.1807 112.652 30.044 113.953 30.044 116.098V121.676C30.044 122.59 29.5635 123.117 28.7432 123.117C27.9112 123.117 27.4424 122.59 27.4424 121.676V111.914C27.4424 111.035 27.9346 110.508 28.7315 110.508C29.5167 110.508 29.9737 110.988 29.9971 111.844V112.84H30.126C30.6299 111.328 32.001 110.426 33.8526 110.426C36.501 110.426 38.0245 111.961 38.0245 114.633V121.688ZM41.5294 119.707V112.77H40.7794C40.0646 112.77 39.631 112.371 39.631 111.727C39.631 111.07 40.0528 110.684 40.7794 110.684H41.5763V108.867C41.5763 107.977 42.0333 107.461 42.8419 107.461C43.6505 107.461 44.1192 107.977 44.1192 108.867V110.684H45.5489C46.2755 110.684 46.6857 111.07 46.6857 111.727C46.6857 112.371 46.2638 112.77 45.5489 112.77H44.1427V119.52C44.1427 120.738 44.4474 121.113 45.4786 121.113C45.8067 121.113 46.0294 121.078 46.2872 121.078C46.7794 121.078 47.131 121.406 47.131 121.922C47.131 122.32 46.9435 122.66 46.5567 122.883C46.17 123.105 45.6075 123.223 44.8458 123.223C42.5021 123.223 41.5294 122.25 41.5294 119.707ZM48.2101 117.703V115.945C48.2101 112.641 50.4015 110.379 53.6007 110.379C56.6593 110.379 58.8273 112.582 58.8273 115.629C58.8273 117 58.4992 117.422 57.4679 117.422H50.8586V118.008C50.8586 119.918 52.0539 121.137 54.0109 121.137C55.007 121.137 55.7453 120.855 56.3429 120.316C56.9523 119.801 57.1398 119.672 57.55 119.672C58.1125 119.672 58.4992 120.082 58.4992 120.68C58.4992 121.137 58.2179 121.629 57.7375 122.016C56.9406 122.777 55.4875 123.234 53.8586 123.234C50.3664 123.234 48.2101 121.148 48.2101 117.703ZM50.8586 115.605H56.3078V115.57C56.3078 113.684 55.2648 112.465 53.6359 112.465C51.9601 112.465 50.8586 113.719 50.8586 115.57V115.605ZM63.7502 121.676C63.7502 122.59 63.2697 123.117 62.4377 123.117C61.6057 123.117 61.1487 122.59 61.1487 121.676V111.949C61.1487 111.035 61.6291 110.508 62.4494 110.508C63.2229 110.508 63.6682 110.988 63.7033 111.82V112.195H63.7971C64.3596 111.023 65.2971 110.426 66.4455 110.426C66.8557 110.426 67.1955 110.52 67.4299 110.707C67.7112 110.895 67.8635 111.211 67.8635 111.598C67.8635 112.008 67.7229 112.301 67.4416 112.488C67.2072 112.652 66.8674 112.723 66.4221 112.734C64.6526 112.758 63.7502 113.719 63.7502 115.664V121.676ZM71.7552 120.738L68.9192 112.559C68.8138 112.266 68.7669 112.02 68.7669 111.797C68.7669 111.082 69.3177 110.555 70.0677 110.555C70.7825 110.555 71.2161 110.953 71.427 111.809L73.9114 120.598H74.0169L76.7122 111.82C76.9583 110.941 77.3802 110.555 78.0481 110.555C78.7747 110.555 79.302 111.07 79.302 111.785C79.302 111.996 79.2552 112.242 79.1263 112.57L76.1848 120.738C75.4817 122.695 75.0716 123.117 73.9934 123.117C72.845 123.117 72.4114 122.672 71.7552 120.738ZM80.8499 107.496C80.8499 106.652 81.5179 106.043 82.3851 106.043C83.2874 106.043 83.9437 106.652 83.9437 107.496C83.9437 108.352 83.2874 108.973 82.3851 108.973C81.5179 108.973 80.8499 108.352 80.8499 107.496ZM83.6976 121.676C83.6976 122.637 83.182 123.117 82.3968 123.117C81.6117 123.117 81.096 122.625 81.096 121.676V111.949C81.096 110.988 81.6234 110.508 82.3968 110.508C83.182 110.508 83.6976 111 83.6976 111.949V121.676ZM86.1596 117.703V115.945C86.1596 112.641 88.351 110.379 91.5502 110.379C94.6088 110.379 96.7767 112.582 96.7767 115.629C96.7767 117 96.4486 117.422 95.4174 117.422H88.808V118.008C88.808 119.918 90.0033 121.137 91.9603 121.137C92.9564 121.137 93.6947 120.855 94.2924 120.316C94.9017 119.801 95.0892 119.672 95.4994 119.672C96.0619 119.672 96.4486 120.082 96.4486 120.68C96.4486 121.137 96.1674 121.629 95.6869 122.016C94.89 122.777 93.4369 123.234 91.808 123.234C88.3158 123.234 86.1596 121.148 86.1596 117.703ZM88.808 115.605H94.2572V115.57C94.2572 113.684 93.2142 112.465 91.5853 112.465C89.9096 112.465 88.808 113.719 88.808 115.57V115.605ZM100.551 120.914L98.2426 112.547C98.1723 112.23 98.1372 112.02 98.1372 111.844C98.1372 111.082 98.6762 110.555 99.4731 110.555C100.153 110.555 100.622 111.023 100.786 111.902L102.52 120.117H102.637L104.664 112.453C105.051 110.977 105.45 110.555 106.364 110.555C107.266 110.555 107.676 110.977 108.075 112.453L110.149 120.117H110.266L112.082 111.879C112.258 111.035 112.715 110.555 113.348 110.555C114.11 110.555 114.614 111.047 114.614 111.75C114.614 111.926 114.579 112.148 114.485 112.465L112.2 120.914C111.743 122.637 111.274 123.117 110.348 123.117C109.364 123.117 108.883 122.648 108.414 120.914L106.411 113.836H106.317L104.36 120.914C103.903 122.648 103.469 123.117 102.473 123.117C101.477 123.117 101.008 122.613 100.551 120.914ZM115.834 120.504C115.834 119.871 116.244 119.461 116.876 119.461C117.24 119.461 117.521 119.625 118.001 120.082C118.834 120.867 119.712 121.242 120.837 121.242C122.255 121.242 123.134 120.633 123.134 119.637C123.134 118.852 122.548 118.266 121.435 118.02L119.302 117.527C117.064 117.023 116.009 115.922 116.009 114.141C116.009 111.867 117.884 110.379 120.802 110.379C122.009 110.379 123.134 110.66 124.013 111.188C124.845 111.668 125.337 112.348 125.337 113.016C125.337 113.613 124.927 113.988 124.306 113.988C123.943 113.988 123.685 113.871 123.146 113.414C122.291 112.641 121.611 112.359 120.673 112.359C119.337 112.359 118.529 112.98 118.529 113.965C118.529 114.762 119.056 115.242 120.205 115.512L122.455 116.027C124.646 116.531 125.666 117.609 125.666 119.414C125.666 121.77 123.779 123.234 120.697 123.234C119.396 123.234 118.177 122.953 117.263 122.449C116.349 121.945 115.834 121.254 115.834 120.504Z" fill="black" fill-opacity="0.8"/>
<path d="M656 0H972C978.627 0 984 5.37258 984 12V76H656V0Z" fill="#C2C8BF"/>
<path d="M656 -1H972C979.18 -1 985 4.8203 985 12H983C983 5.92487 978.075 1 972 1H656V-1ZM985 77H656V75H983L985 77ZM656 76V0V76ZM972 -1C979.18 -1 985 4.8203 985 12V77L983 75V12C983 5.92487 978.075 1 972 1V-1Z" fill="black" fill-opacity="0.2"/>
<path d="M689.113 47.1172C688.27 47.1172 687.777 46.5781 687.777 45.6641V39.9102H680.453V45.6641C680.453 46.5781 679.961 47.1172 679.129 47.1172C678.285 47.1172 677.793 46.5781 677.793 45.6641V32.3398C677.793 31.4258 678.285 30.8867 679.129 30.8867C679.961 30.8867 680.453 31.4258 680.453 32.3398V37.6602H687.777V32.3398C687.777 31.4258 688.27 30.8867 689.113 30.8867C689.945 30.8867 690.438 31.4258 690.438 32.3398V45.6641C690.438 46.5781 689.945 47.1172 689.113 47.1172ZM693.31 31.4961C693.31 30.6523 693.978 30.043 694.845 30.043C695.747 30.043 696.403 30.6523 696.403 31.4961C696.403 32.3516 695.747 32.9727 694.845 32.9727C693.978 32.9727 693.31 32.3516 693.31 31.4961ZM696.157 45.6758C696.157 46.6367 695.642 47.1172 694.856 47.1172C694.071 47.1172 693.556 46.625 693.556 45.6758V35.9492C693.556 34.9883 694.083 34.5078 694.856 34.5078C695.642 34.5078 696.157 35 696.157 35.9492V45.6758ZM706.916 44.8789C706.436 45.9688 705.17 46.8242 703.412 46.8242C700.693 46.8242 698.643 44.832 698.643 41.4805V39.7812C698.643 36.4297 700.693 34.4258 703.389 34.4258C705.264 34.4258 706.553 35.4102 706.986 36.4883H707.115V35.7969C707.139 34.918 707.631 34.4844 708.358 34.4844C709.143 34.4844 709.635 34.9766 709.635 35.9258V46.6484C709.635 50.0117 707.408 51.6523 704.08 51.6523C702.604 51.6523 701.35 51.3594 700.459 50.832C699.674 50.375 699.123 49.6953 699.123 48.9922C699.123 48.3711 699.545 47.9492 700.201 47.9492C700.693 47.9492 700.963 48.2305 701.35 48.5469C701.854 48.9453 702.627 49.4961 704.022 49.4961C705.943 49.4961 707.045 48.4648 707.045 46.5664V44.8789H706.916ZM701.303 41.2461C701.303 43.3672 702.498 44.7617 704.256 44.7617C706.061 44.7617 707.045 43.2734 707.045 41.5508V39.8398C707.045 38.082 706.037 36.5703 704.197 36.5703C702.428 36.5703 701.303 37.9766 701.303 40.1094V41.2461ZM723.183 45.6758C723.183 46.5898 722.702 47.1172 721.882 47.1172C721.05 47.1172 720.581 46.5898 720.581 45.6758V39.3828C720.581 37.6367 719.667 36.6523 718.073 36.6523C716.304 36.6523 715.155 37.9766 715.155 40.0977V45.6758C715.155 46.5898 714.675 47.1172 713.855 47.1172C713.023 47.1172 712.554 46.5898 712.554 45.6758V31.5195C712.554 30.6055 713.034 30.0781 713.855 30.0781C714.675 30.0781 715.155 30.6055 715.155 31.5195V36.8398H715.284C715.706 35.4102 717.253 34.4258 719.046 34.4258C721.636 34.4258 723.183 36.0078 723.183 38.6445V45.6758ZM731.658 47.1172C730.814 47.1172 730.31 46.5781 730.31 45.6641V32.9023C730.31 31.6016 730.943 31.0039 732.325 31.0039H739.134C739.861 31.0039 740.353 31.4609 740.353 32.1406C740.353 32.8203 739.861 33.2539 739.134 33.2539H732.97V38.1641H738.536C739.275 38.1641 739.743 38.6094 739.743 39.2773C739.743 39.957 739.263 40.3906 738.536 40.3906H732.97V45.6641C732.97 46.5781 732.49 47.1172 731.658 47.1172ZM741.912 31.4961C741.912 30.6523 742.58 30.043 743.448 30.043C744.35 30.043 745.006 30.6523 745.006 31.4961C745.006 32.3516 744.35 32.9727 743.448 32.9727C742.58 32.9727 741.912 32.3516 741.912 31.4961ZM744.76 45.6758C744.76 46.6367 744.244 47.1172 743.459 47.1172C742.674 47.1172 742.159 46.625 742.159 45.6758V35.9492C742.159 34.9883 742.686 34.5078 743.459 34.5078C744.244 34.5078 744.76 35 744.76 35.9492V45.6758ZM755.601 45.0312C755.226 46.2969 753.726 47.1758 751.933 47.1758C749.062 47.1758 747.245 45.1133 747.245 41.8789V39.7227C747.245 36.4883 749.097 34.4258 751.98 34.4258C753.703 34.4258 755.05 35.1875 755.531 36.4531H755.66V31.5195C755.66 30.6055 756.128 30.0781 756.96 30.0781C757.792 30.0781 758.261 30.6055 758.261 31.5195V45.6758C758.261 46.6016 757.816 47.1172 756.995 47.1172C756.234 47.1172 755.777 46.6367 755.73 45.793V45.0312H755.601ZM749.906 41.4922C749.906 43.7305 750.96 45.043 752.753 45.043C754.535 45.043 755.66 43.7422 755.66 41.668V39.7578C755.66 37.8828 754.441 36.5703 752.695 36.5703C750.937 36.5703 749.906 37.8945 749.906 40.1094V41.4922ZM760.688 41.7031V39.9453C760.688 36.6406 762.879 34.3789 766.079 34.3789C769.137 34.3789 771.305 36.582 771.305 39.6289C771.305 41 770.977 41.4219 769.946 41.4219H763.336V42.0078C763.336 43.918 764.532 45.1367 766.489 45.1367C767.485 45.1367 768.223 44.8555 768.821 44.3164C769.43 43.8008 769.618 43.6719 770.028 43.6719C770.59 43.6719 770.977 44.082 770.977 44.6797C770.977 45.1367 770.696 45.6289 770.215 46.0156C769.418 46.7773 767.965 47.2344 766.336 47.2344C762.844 47.2344 760.688 45.1484 760.688 41.7031ZM763.336 39.6055H768.786V39.5703C768.786 37.6836 767.743 36.4648 766.114 36.4648C764.438 36.4648 763.336 37.7188 763.336 39.5703V39.6055ZM774.998 47.1172C774.224 47.1172 773.709 46.6367 773.709 45.6758V31.5195C773.709 30.5586 774.224 30.0781 774.998 30.0781C775.783 30.0781 776.31 30.5586 776.31 31.5195V45.6758C776.31 46.6367 775.783 47.1172 774.998 47.1172ZM779.112 31.4961C779.112 30.6523 779.78 30.043 780.647 30.043C781.549 30.043 782.206 30.6523 782.206 31.4961C782.206 32.3516 781.549 32.9727 780.647 32.9727C779.78 32.9727 779.112 32.3516 779.112 31.4961ZM781.96 45.6758C781.96 46.6367 781.444 47.1172 780.659 47.1172C779.874 47.1172 779.358 46.625 779.358 45.6758V35.9492C779.358 34.9883 779.885 34.5078 780.659 34.5078C781.444 34.5078 781.96 35 781.96 35.9492V45.6758ZM785.699 43.707V36.7695H784.949C784.234 36.7695 783.8 36.3711 783.8 35.7266C783.8 35.0703 784.222 34.6836 784.949 34.6836H785.746V32.8672C785.746 31.9766 786.203 31.4609 787.011 31.4609C787.82 31.4609 788.289 31.9766 788.289 32.8672V34.6836H789.718C790.445 34.6836 790.855 35.0703 790.855 35.7266C790.855 36.3711 790.433 36.7695 789.718 36.7695H788.312V43.5195C788.312 44.7383 788.617 45.1133 789.648 45.1133C789.976 45.1133 790.199 45.0781 790.457 45.0781C790.949 45.0781 791.3 45.4062 791.3 45.9219C791.3 46.3203 791.113 46.6602 790.726 46.8828C790.339 47.1055 789.777 47.2227 789.015 47.2227C786.672 47.2227 785.699 46.25 785.699 43.707ZM792.813 50.2695C792.813 49.7305 793.223 49.3672 793.844 49.3672C794.055 49.3672 794.278 49.4141 794.583 49.4141C795.333 49.4141 795.989 48.8047 796.27 47.8555C796.294 47.8203 796.446 47.2227 796.446 47.1641L792.649 36.582C792.544 36.2656 792.497 36.0078 792.497 35.7969C792.497 35.0938 793.048 34.5664 793.798 34.5664C794.477 34.5664 794.923 34.9766 795.157 35.832L797.852 44.6914H797.958L800.676 35.832C800.911 34.9766 801.344 34.5664 802.012 34.5664C802.727 34.5664 803.266 35.082 803.266 35.7852C803.266 35.9961 803.208 36.2422 803.09 36.582L799.165 47.6914C798.227 50.3633 796.891 51.4414 794.653 51.4414C793.962 51.4414 793.411 51.2773 793.106 50.9727C792.919 50.7852 792.813 50.5508 792.813 50.2695ZM810.639 47.1172C809.854 47.1172 809.444 46.6367 809.444 45.6992V32.5742C809.444 31.4961 810.018 30.8633 810.968 30.8633C811.8 30.8633 812.268 31.2383 812.761 32.5039L817.003 42.7695H817.096L821.327 32.4922C821.819 31.2266 822.264 30.8633 823.132 30.8633C824.081 30.8633 824.632 31.4844 824.632 32.5742V45.6992C824.632 46.625 824.21 47.1172 823.413 47.1172C822.639 47.1172 822.241 46.6367 822.241 45.6992V35.8672H822.136L818.573 44.4102C818.139 45.4531 817.718 45.7812 817.05 45.7812C816.37 45.7812 815.936 45.4414 815.514 44.4102L811.952 35.8672H811.846V45.6992C811.846 46.625 811.425 47.1172 810.639 47.1172ZM832.672 34.3789C835.894 34.3789 838.203 36.4414 838.203 39.957V41.6211C838.203 45.1953 835.894 47.2344 832.672 47.2344C829.437 47.2344 827.129 45.1953 827.129 41.6211V39.9688C827.129 36.4414 829.437 34.3789 832.672 34.3789ZM832.672 36.4883C830.902 36.4883 829.789 37.8828 829.789 40.0859V41.5273C829.789 43.7656 830.902 45.1367 832.672 45.1367C834.453 45.1367 835.531 43.7656 835.531 41.5273V40.0859C835.531 37.8828 834.453 36.4883 832.672 36.4883ZM840.044 41.7383V39.8164C840.044 36.5703 842.001 34.3789 845.423 34.3789C846.489 34.3789 847.661 34.6133 848.61 35.1992C849.384 35.6914 850.052 36.4531 850.052 37.25C850.052 37.8828 849.665 38.375 848.985 38.375C848.411 38.375 848.118 38.0117 847.837 37.6953C847.263 36.957 846.513 36.5703 845.516 36.5703C843.641 36.5703 842.716 37.9531 842.716 39.957V41.5977C842.716 43.6133 843.571 45.0547 845.54 45.0547C846.431 45.0547 847.251 44.7383 847.907 43.9062C848.177 43.625 848.493 43.2383 849.044 43.2383C849.618 43.2383 850.087 43.6133 850.087 44.3398C850.087 45.1367 849.454 45.9219 848.552 46.4609C847.591 47.0352 846.489 47.2344 845.434 47.2344C842.048 47.2344 840.044 45.1367 840.044 41.7383ZM855.139 45.6758C855.139 46.5898 854.67 47.1172 853.85 47.1172C853.018 47.1172 852.537 46.5898 852.537 45.6758V31.5195C852.537 30.6055 853.006 30.0781 853.838 30.0781C854.658 30.0781 855.139 30.6055 855.139 31.5195V39.7344H855.268L859.873 35.0469C860.295 34.6133 860.635 34.4375 861.033 34.4375C861.666 34.4375 862.123 34.8945 862.123 35.5273C862.123 35.8789 861.982 36.1836 861.643 36.5352L858.279 39.9453L862.064 44.7969C862.369 45.1719 862.521 45.5352 862.521 45.8633C862.521 46.5078 861.982 47.0586 861.326 47.0586C860.893 47.0586 860.529 46.8477 860.154 46.3672L856.346 41.4688L855.139 42.6172V45.6758ZM871.687 44.9375C871.3 46.0273 870.175 47.1758 867.937 47.1758C865.581 47.1758 863.847 45.9805 863.847 43.1094V35.9023C863.847 34.9414 864.362 34.4961 865.147 34.4961C865.933 34.4961 866.448 34.9414 866.448 35.9023V42.4414C866.448 44.3164 867.538 44.9727 868.851 44.9727C870.62 44.9727 871.78 43.7891 871.78 42.2773V35.9023C871.78 34.9414 872.308 34.4961 873.093 34.4961C873.866 34.4961 874.394 34.9414 874.394 35.9023V45.7344C874.394 46.6602 873.855 47.1172 873.105 47.1172C872.366 47.1172 871.851 46.6953 871.827 45.8047V44.9375H871.687ZM879.856 50.0117C879.856 50.9375 879.375 51.4531 878.543 51.4531C877.723 51.4531 877.254 50.9375 877.254 50.0117V35.9492C877.254 35.0234 877.699 34.5078 878.508 34.5078C879.293 34.5078 879.75 34.9766 879.785 35.8203V36.582H879.914C880.418 35.2461 881.813 34.4258 883.57 34.4258C886.465 34.4258 888.246 36.4766 888.246 39.8281V41.7617C888.246 45.125 886.441 47.1758 883.512 47.1758C881.813 47.1758 880.535 46.4375 879.984 45.1367H879.856V50.0117ZM879.856 41.8438C879.856 43.7539 881.039 45.0312 882.773 45.0312C884.566 45.0312 885.598 43.707 885.598 41.4102V40.1914C885.598 37.8711 884.566 36.5703 882.738 36.5703C880.945 36.5703 879.856 37.8242 879.856 39.9453V41.8438ZM889.982 44.5039C889.982 43.8711 890.392 43.4609 891.025 43.4609C891.388 43.4609 891.669 43.625 892.15 44.082C892.982 44.8672 893.86 45.2422 894.985 45.2422C896.403 45.2422 897.282 44.6328 897.282 43.6367C897.282 42.8516 896.696 42.2656 895.583 42.0195L893.45 41.5273C891.212 41.0234 890.157 39.9219 890.157 38.1406C890.157 35.8672 892.032 34.3789 894.95 34.3789C896.157 34.3789 897.282 34.6602 898.161 35.1875C898.993 35.668 899.485 36.3477 899.485 37.0156C899.485 37.6133 899.075 37.9883 898.454 37.9883C898.091 37.9883 897.833 37.8711 897.294 37.4141C896.439 36.6406 895.759 36.3594 894.821 36.3594C893.485 36.3594 892.677 36.9805 892.677 37.9648C892.677 38.7617 893.204 39.2422 894.353 39.5117L896.603 40.0273C898.794 40.5312 899.814 41.6094 899.814 43.4141C899.814 45.7695 897.927 47.2344 894.845 47.2344C893.544 47.2344 892.325 46.9531 891.411 46.4492C890.497 45.9453 889.982 45.2539 889.982 44.5039Z" fill="black" fill-opacity="0.8"/>
<path d="M328 0H656V76H328V0Z" fill="#C2C8BF"/>
<path d="M656 0H657V-1H656V0ZM656 76V77H657V76H656ZM328 1H656V-1H328V1ZM655 0V76H657V0H655ZM656 75H328V77H656V75Z" fill="black" fill-opacity="0.2"/>
<path d="M355.277 43.8828L359.074 32.1641C359.355 31.2266 359.777 30.8398 360.48 30.8398C361.23 30.8398 361.805 31.332 361.805 32.0469C361.805 32.3164 361.699 32.7852 361.582 33.1484L357.258 45.2891C356.824 46.5664 356.238 47.1172 355.195 47.1172C354.141 47.1172 353.531 46.5664 353.098 45.2891L348.785 33.1484C348.645 32.7266 348.562 32.3281 348.562 32.0586C348.562 31.3438 349.137 30.8398 349.898 30.8398C350.602 30.8398 351.023 31.25 351.316 32.1641L355.148 43.8828H355.277ZM363.646 31.4961C363.646 30.6523 364.314 30.043 365.181 30.043C366.083 30.043 366.739 30.6523 366.739 31.4961C366.739 32.3516 366.083 32.9727 365.181 32.9727C364.314 32.9727 363.646 32.3516 363.646 31.4961ZM366.493 45.6758C366.493 46.6367 365.978 47.1172 365.192 47.1172C364.407 47.1172 363.892 46.625 363.892 45.6758V35.9492C363.892 34.9883 364.419 34.5078 365.192 34.5078C365.978 34.5078 366.493 35 366.493 35.9492V45.6758ZM368.815 44.5039C368.815 43.8711 369.225 43.4609 369.858 43.4609C370.221 43.4609 370.502 43.625 370.983 44.082C371.815 44.8672 372.693 45.2422 373.818 45.2422C375.236 45.2422 376.115 44.6328 376.115 43.6367C376.115 42.8516 375.529 42.2656 374.416 42.0195L372.283 41.5273C370.045 41.0234 368.99 39.9219 368.99 38.1406C368.99 35.8672 370.865 34.3789 373.783 34.3789C374.99 34.3789 376.115 34.6602 376.994 35.1875C377.826 35.668 378.318 36.3477 378.318 37.0156C378.318 37.6133 377.908 37.9883 377.287 37.9883C376.924 37.9883 376.666 37.8711 376.127 37.4141C375.272 36.6406 374.592 36.3594 373.654 36.3594C372.318 36.3594 371.51 36.9805 371.51 37.9648C371.51 38.7617 372.037 39.2422 373.186 39.5117L375.436 40.0273C377.627 40.5312 378.647 41.6094 378.647 43.4141C378.647 45.7695 376.76 47.2344 373.678 47.2344C372.377 47.2344 371.158 46.9531 370.244 46.4492C369.33 45.9453 368.815 45.2539 368.815 44.5039ZM388.573 44.9375C388.187 46.0273 387.062 47.1758 384.823 47.1758C382.468 47.1758 380.734 45.9805 380.734 43.1094V35.9023C380.734 34.9414 381.249 34.4961 382.034 34.4961C382.819 34.4961 383.335 34.9414 383.335 35.9023V42.4414C383.335 44.3164 384.425 44.9727 385.737 44.9727C387.507 44.9727 388.667 43.7891 388.667 42.2773V35.9023C388.667 34.9414 389.194 34.4961 389.98 34.4961C390.753 34.4961 391.28 34.9414 391.28 35.9023V45.7344C391.28 46.6602 390.741 47.1172 389.991 47.1172C389.253 47.1172 388.737 46.6953 388.714 45.8047V44.9375H388.573ZM400.949 45.3945C400.27 46.543 399.028 47.1758 397.492 47.1758C395.078 47.1758 393.449 45.6523 393.449 43.4023C393.449 41.1172 395.113 39.7227 397.879 39.7109H400.973V38.6094C400.973 37.2148 400.117 36.4883 398.535 36.4883C397.551 36.4883 396.871 36.8398 396.156 37.5664C395.84 37.8711 395.535 37.9883 395.09 37.9883C394.516 37.9883 394.141 37.6016 394.141 37.0391C394.141 36.3242 394.633 35.6211 395.676 35.0586C396.426 34.6484 397.41 34.4258 398.699 34.4258C401.828 34.4258 403.574 35.9258 403.574 38.6211V45.7109C403.574 46.6016 403.117 47.1172 402.309 47.1172C401.594 47.1172 401.137 46.6836 401.078 45.9453V45.3945H400.949ZM396.063 43.2734C396.063 44.4219 396.965 45.1953 398.301 45.1953C399.813 45.1953 400.973 44.1641 400.973 42.8281V41.4922H398.242C396.86 41.4922 396.063 42.1367 396.063 43.2734ZM407.642 47.1172C406.868 47.1172 406.353 46.6367 406.353 45.6758V31.5195C406.353 30.5586 406.868 30.0781 407.642 30.0781C408.427 30.0781 408.954 30.5586 408.954 31.5195V45.6758C408.954 46.6367 408.427 47.1172 407.642 47.1172ZM424.062 45.0312C423.687 46.2969 422.187 47.1758 420.394 47.1758C417.523 47.1758 415.706 45.1133 415.706 41.8789V39.7227C415.706 36.4883 417.558 34.4258 420.441 34.4258C422.163 34.4258 423.511 35.1875 423.992 36.4531H424.12V31.5195C424.12 30.6055 424.589 30.0781 425.421 30.0781C426.253 30.0781 426.722 30.6055 426.722 31.5195V45.6758C426.722 46.6016 426.277 47.1172 425.456 47.1172C424.695 47.1172 424.238 46.6367 424.191 45.793V45.0312H424.062ZM418.367 41.4922C418.367 43.7305 419.421 45.043 421.214 45.043C422.995 45.043 424.12 43.7422 424.12 41.668V39.7578C424.12 37.8828 422.902 36.5703 421.156 36.5703C419.398 36.5703 418.367 37.8945 418.367 40.1094V41.4922ZM429.149 41.7031V39.9453C429.149 36.6406 431.34 34.3789 434.539 34.3789C437.598 34.3789 439.766 36.582 439.766 39.6289C439.766 41 439.438 41.4219 438.407 41.4219H431.797V42.0078C431.797 43.918 432.993 45.1367 434.95 45.1367C435.946 45.1367 436.684 44.8555 437.282 44.3164C437.891 43.8008 438.079 43.6719 438.489 43.6719C439.051 43.6719 439.438 44.082 439.438 44.6797C439.438 45.1367 439.157 45.6289 438.676 46.0156C437.879 46.7773 436.426 47.2344 434.797 47.2344C431.305 47.2344 429.149 45.1484 429.149 41.7031ZM431.797 39.6055H437.247V39.5703C437.247 37.6836 436.204 36.4648 434.575 36.4648C432.899 36.4648 431.797 37.7188 431.797 39.5703V39.6055ZM441.443 44.5039C441.443 43.8711 441.853 43.4609 442.486 43.4609C442.849 43.4609 443.13 43.625 443.611 44.082C444.443 44.8672 445.322 45.2422 446.447 45.2422C447.865 45.2422 448.744 44.6328 448.744 43.6367C448.744 42.8516 448.158 42.2656 447.044 42.0195L444.912 41.5273C442.673 41.0234 441.619 39.9219 441.619 38.1406C441.619 35.8672 443.494 34.3789 446.412 34.3789C447.619 34.3789 448.744 34.6602 449.623 35.1875C450.455 35.668 450.947 36.3477 450.947 37.0156C450.947 37.6133 450.537 37.9883 449.916 37.9883C449.552 37.9883 449.294 37.8711 448.755 37.4141C447.9 36.6406 447.22 36.3594 446.283 36.3594C444.947 36.3594 444.138 36.9805 444.138 37.9648C444.138 38.7617 444.666 39.2422 445.814 39.5117L448.064 40.0273C450.255 40.5312 451.275 41.6094 451.275 43.4141C451.275 45.7695 449.388 47.2344 446.306 47.2344C445.005 47.2344 443.787 46.9531 442.873 46.4492C441.959 45.9453 441.443 45.2539 441.443 44.5039ZM453.385 31.4961C453.385 30.6523 454.053 30.043 454.92 30.043C455.823 30.043 456.479 30.6523 456.479 31.4961C456.479 32.3516 455.823 32.9727 454.92 32.9727C454.053 32.9727 453.385 32.3516 453.385 31.4961ZM456.233 45.6758C456.233 46.6367 455.717 47.1172 454.932 47.1172C454.147 47.1172 453.631 46.625 453.631 45.6758V35.9492C453.631 34.9883 454.159 34.5078 454.932 34.5078C455.717 34.5078 456.233 35 456.233 35.9492V45.6758ZM466.992 44.8789C466.511 45.9688 465.246 46.8242 463.488 46.8242C460.769 46.8242 458.718 44.832 458.718 41.4805V39.7812C458.718 36.4297 460.769 34.4258 463.464 34.4258C465.339 34.4258 466.629 35.4102 467.062 36.4883H467.191V35.7969C467.214 34.918 467.707 34.4844 468.433 34.4844C469.218 34.4844 469.711 34.9766 469.711 35.9258V46.6484C469.711 50.0117 467.484 51.6523 464.156 51.6523C462.679 51.6523 461.425 51.3594 460.535 50.832C459.75 50.375 459.199 49.6953 459.199 48.9922C459.199 48.3711 459.621 47.9492 460.277 47.9492C460.769 47.9492 461.039 48.2305 461.425 48.5469C461.929 48.9453 462.703 49.4961 464.097 49.4961C466.019 49.4961 467.121 48.4648 467.121 46.5664V44.8789H466.992ZM461.379 41.2461C461.379 43.3672 462.574 44.7617 464.332 44.7617C466.136 44.7617 467.121 43.2734 467.121 41.5508V39.8398C467.121 38.082 466.113 36.5703 464.273 36.5703C462.504 36.5703 461.379 37.9766 461.379 40.1094V41.2461ZM483.188 45.6875C483.188 46.6016 482.708 47.1172 481.887 47.1172C481.055 47.1172 480.575 46.5898 480.575 45.6758V39.3594C480.575 37.6133 479.708 36.6523 478.137 36.6523C476.344 36.6523 475.208 37.9531 475.208 40.0977V45.6758C475.208 46.5898 474.727 47.1172 473.907 47.1172C473.075 47.1172 472.606 46.5898 472.606 45.6758V35.9141C472.606 35.0352 473.098 34.5078 473.895 34.5078C474.68 34.5078 475.137 34.9883 475.161 35.8438V36.8398H475.29C475.794 35.3281 477.165 34.4258 479.016 34.4258C481.665 34.4258 483.188 35.9609 483.188 38.6328V45.6875Z" fill="black" fill-opacity="0.8"/>
<path d="M328 76H656V152H328V76Z" fill="#C2C8BF"/>
<path d="M656 152V153H657V152H656ZM655 76V152H657V76H655ZM656 151H328V153H656V151Z" fill="black" fill-opacity="0.2"/>
<path d="M349.793 121.102V108.902C349.793 107.602 350.426 107.004 351.809 107.004H356.168C358.992 107.004 360.762 108.527 360.762 110.941C360.762 112.734 359.789 114.012 358.113 114.457V114.574C360.27 114.82 361.629 116.309 361.629 118.5C361.629 121.266 359.473 123 356.051 123H351.809C350.426 123 349.793 122.414 349.793 121.102ZM352.441 113.766H354.691C357.07 113.766 358.125 112.969 358.125 111.387C358.125 109.969 357.199 109.113 355.617 109.113H352.441V113.766ZM352.441 120.891H354.984C357.785 120.891 358.922 120.094 358.922 118.406C358.922 116.754 357.809 115.77 355.828 115.77H352.441V120.891ZM366.353 121.676C366.353 122.59 365.872 123.117 365.04 123.117C364.208 123.117 363.751 122.59 363.751 121.676V111.949C363.751 111.035 364.231 110.508 365.052 110.508C365.825 110.508 366.271 110.988 366.306 111.82V112.195H366.399C366.962 111.023 367.899 110.426 369.048 110.426C369.458 110.426 369.798 110.52 370.032 110.707C370.314 110.895 370.466 111.211 370.466 111.598C370.466 112.008 370.325 112.301 370.044 112.488C369.81 112.652 369.47 112.723 369.024 112.734C367.255 112.758 366.353 113.719 366.353 115.664V121.676ZM378.682 121.395C378.002 122.543 376.76 123.176 375.225 123.176C372.811 123.176 371.182 121.652 371.182 119.402C371.182 117.117 372.846 115.723 375.611 115.711H378.705V114.609C378.705 113.215 377.85 112.488 376.268 112.488C375.283 112.488 374.604 112.84 373.889 113.566C373.572 113.871 373.268 113.988 372.822 113.988C372.248 113.988 371.873 113.602 371.873 113.039C371.873 112.324 372.365 111.621 373.408 111.059C374.158 110.648 375.143 110.426 376.432 110.426C379.561 110.426 381.307 111.926 381.307 114.621V121.711C381.307 122.602 380.85 123.117 380.041 123.117C379.326 123.117 378.869 122.684 378.811 121.945V121.395H378.682ZM373.795 119.273C373.795 120.422 374.697 121.195 376.033 121.195C377.545 121.195 378.705 120.164 378.705 118.828V117.492H375.975C374.592 117.492 373.795 118.137 373.795 119.273ZM394.573 121.688C394.573 122.602 394.093 123.117 393.273 123.117C392.441 123.117 391.96 122.59 391.96 121.676V115.359C391.96 113.613 391.093 112.652 389.523 112.652C387.73 112.652 386.593 113.953 386.593 116.098V121.676C386.593 122.59 386.112 123.117 385.292 123.117C384.46 123.117 383.991 122.59 383.991 121.676V111.914C383.991 111.035 384.484 110.508 385.28 110.508C386.066 110.508 386.523 110.988 386.546 111.844V112.84H386.675C387.179 111.328 388.55 110.426 390.402 110.426C393.05 110.426 394.573 111.961 394.573 114.633V121.688ZM405.156 121.031C404.781 122.297 403.281 123.176 401.488 123.176C398.617 123.176 396.801 121.113 396.801 117.879V115.723C396.801 112.488 398.653 110.426 401.535 110.426C403.258 110.426 404.606 111.188 405.086 112.453H405.215V107.52C405.215 106.605 405.684 106.078 406.516 106.078C407.348 106.078 407.817 106.605 407.817 107.52V121.676C407.817 122.602 407.371 123.117 406.551 123.117C405.789 123.117 405.332 122.637 405.285 121.793V121.031H405.156ZM399.461 117.492C399.461 119.73 400.516 121.043 402.309 121.043C404.09 121.043 405.215 119.742 405.215 117.668V115.758C405.215 113.883 403.996 112.57 402.25 112.57C400.492 112.57 399.461 113.895 399.461 116.109V117.492ZM410.618 107.496C410.618 106.652 411.286 106.043 412.154 106.043C413.056 106.043 413.712 106.652 413.712 107.496C413.712 108.352 413.056 108.973 412.154 108.973C411.286 108.973 410.618 108.352 410.618 107.496ZM413.466 121.676C413.466 122.637 412.95 123.117 412.165 123.117C411.38 123.117 410.865 122.625 410.865 121.676V111.949C410.865 110.988 411.392 110.508 412.165 110.508C412.95 110.508 413.466 111 413.466 111.949V121.676ZM427.002 121.688C427.002 122.602 426.522 123.117 425.701 123.117C424.869 123.117 424.389 122.59 424.389 121.676V115.359C424.389 113.613 423.522 112.652 421.951 112.652C420.159 112.652 419.022 113.953 419.022 116.098V121.676C419.022 122.59 418.541 123.117 417.721 123.117C416.889 123.117 416.42 122.59 416.42 121.676V111.914C416.42 111.035 416.912 110.508 417.709 110.508C418.494 110.508 418.951 110.988 418.975 111.844V112.84H419.104C419.608 111.328 420.979 110.426 422.83 110.426C425.479 110.426 427.002 111.961 427.002 114.633V121.688ZM437.503 120.879C437.023 121.969 435.757 122.824 433.999 122.824C431.281 122.824 429.23 120.832 429.23 117.48V115.781C429.23 112.43 431.281 110.426 433.976 110.426C435.851 110.426 437.14 111.41 437.574 112.488H437.703V111.797C437.726 110.918 438.218 110.484 438.945 110.484C439.73 110.484 440.222 110.977 440.222 111.926V122.648C440.222 126.012 437.995 127.652 434.667 127.652C433.191 127.652 431.937 127.359 431.046 126.832C430.261 126.375 429.71 125.695 429.71 124.992C429.71 124.371 430.132 123.949 430.788 123.949C431.281 123.949 431.55 124.23 431.937 124.547C432.441 124.945 433.214 125.496 434.609 125.496C436.531 125.496 437.632 124.465 437.632 122.566V120.879H437.503ZM431.89 117.246C431.89 119.367 433.085 120.762 434.843 120.762C436.648 120.762 437.632 119.273 437.632 117.551V115.84C437.632 114.082 436.624 112.57 434.785 112.57C433.015 112.57 431.89 113.977 431.89 116.109V117.246Z" fill="black" fill-opacity="0.8"/>
<path d="M656 76H984V152H656V76Z" fill="#C2C8BF"/>
<path d="M984 152V153H985V152H984ZM983 76V152H985V76H983ZM984 151H656V153H984V151Z" fill="black" fill-opacity="0.2"/>
<path d="M679.117 123.117C678.285 123.117 677.793 122.578 677.793 121.664V109.066C677.793 107.578 678.391 107.004 679.914 107.004H683.887C687.098 107.004 689.195 109.043 689.195 112.125C689.195 115.301 687.086 117.258 683.816 117.258H680.453V121.664C680.453 122.578 679.961 123.117 679.117 123.117ZM680.453 115.09H682.668C685.457 115.09 686.523 114.328 686.523 112.148C686.523 110.285 685.469 109.207 683.629 109.207H680.453V115.09ZM693.767 121.676C693.767 122.59 693.286 123.117 692.454 123.117C691.622 123.117 691.165 122.59 691.165 121.676V111.949C691.165 111.035 691.646 110.508 692.466 110.508C693.239 110.508 693.685 110.988 693.72 111.82V112.195H693.814C694.376 111.023 695.314 110.426 696.462 110.426C696.872 110.426 697.212 110.52 697.446 110.707C697.728 110.895 697.88 111.211 697.88 111.598C697.88 112.008 697.739 112.301 697.458 112.488C697.224 112.652 696.884 112.723 696.439 112.734C694.669 112.758 693.767 113.719 693.767 115.664V121.676ZM704.279 110.379C707.502 110.379 709.811 112.441 709.811 115.957V117.621C709.811 121.195 707.502 123.234 704.279 123.234C701.045 123.234 698.736 121.195 698.736 117.621V115.969C698.736 112.441 701.045 110.379 704.279 110.379ZM704.279 112.488C702.51 112.488 701.397 113.883 701.397 116.086V117.527C701.397 119.766 702.51 121.137 704.279 121.137C706.061 121.137 707.139 119.766 707.139 117.527V116.086C707.139 113.883 706.061 112.488 704.279 112.488ZM712.987 119.707V112.77H712.237C711.523 112.77 711.089 112.371 711.089 111.727C711.089 111.07 711.511 110.684 712.237 110.684H713.034V108.867C713.034 107.977 713.491 107.461 714.3 107.461C715.109 107.461 715.577 107.977 715.577 108.867V110.684H717.007C717.734 110.684 718.144 111.07 718.144 111.727C718.144 112.371 717.722 112.77 717.007 112.77H715.601V119.52C715.601 120.738 715.905 121.113 716.937 121.113C717.265 121.113 717.487 121.078 717.745 121.078C718.237 121.078 718.589 121.406 718.589 121.922C718.589 122.32 718.402 122.66 718.015 122.883C717.628 123.105 717.066 123.223 716.304 123.223C713.96 123.223 712.987 122.25 712.987 119.707ZM725.188 110.379C728.41 110.379 730.719 112.441 730.719 115.957V117.621C730.719 121.195 728.41 123.234 725.188 123.234C721.953 123.234 719.645 121.195 719.645 117.621V115.969C719.645 112.441 721.953 110.379 725.188 110.379ZM725.188 112.488C723.418 112.488 722.305 113.883 722.305 116.086V117.527C722.305 119.766 723.418 121.137 725.188 121.137C726.969 121.137 728.047 119.766 728.047 117.527V116.086C728.047 113.883 726.969 112.488 725.188 112.488ZM733.896 119.707V112.77H733.146C732.431 112.77 731.997 112.371 731.997 111.727C731.997 111.07 732.419 110.684 733.146 110.684H733.943V108.867C733.943 107.977 734.4 107.461 735.208 107.461C736.017 107.461 736.486 107.977 736.486 108.867V110.684H737.915C738.642 110.684 739.052 111.07 739.052 111.727C739.052 112.371 738.63 112.77 737.915 112.77H736.509V119.52C736.509 120.738 736.814 121.113 737.845 121.113C738.173 121.113 738.396 121.078 738.654 121.078C739.146 121.078 739.497 121.406 739.497 121.922C739.497 122.32 739.31 122.66 738.923 122.883C738.536 123.105 737.974 123.223 737.212 123.223C734.868 123.223 733.896 122.25 733.896 119.707ZM741.01 126.27C741.01 125.73 741.42 125.367 742.041 125.367C742.252 125.367 742.475 125.414 742.78 125.414C743.53 125.414 744.186 124.805 744.467 123.855C744.491 123.82 744.643 123.223 744.643 123.164L740.846 112.582C740.741 112.266 740.694 112.008 740.694 111.797C740.694 111.094 741.244 110.566 741.994 110.566C742.674 110.566 743.119 110.977 743.354 111.832L746.049 120.691H746.155L748.873 111.832C749.108 110.977 749.541 110.566 750.209 110.566C750.924 110.566 751.463 111.082 751.463 111.785C751.463 111.996 751.405 112.242 751.287 112.582L747.362 123.691C746.424 126.363 745.088 127.441 742.85 127.441C742.159 127.441 741.608 127.277 741.303 126.973C741.116 126.785 741.01 126.551 741.01 126.27ZM756.093 126.012C756.093 126.938 755.613 127.453 754.781 127.453C753.96 127.453 753.492 126.938 753.492 126.012V111.949C753.492 111.023 753.937 110.508 754.745 110.508C755.531 110.508 755.988 110.977 756.023 111.82V112.582H756.152C756.656 111.246 758.05 110.426 759.808 110.426C762.703 110.426 764.484 112.477 764.484 115.828V117.762C764.484 121.125 762.679 123.176 759.749 123.176C758.05 123.176 756.773 122.438 756.222 121.137H756.093V126.012ZM756.093 117.844C756.093 119.754 757.277 121.031 759.011 121.031C760.804 121.031 761.835 119.707 761.835 117.41V116.191C761.835 113.871 760.804 112.57 758.976 112.57C757.183 112.57 756.093 113.824 756.093 115.945V117.844ZM766.735 107.496C766.735 106.652 767.403 106.043 768.27 106.043C769.172 106.043 769.829 106.652 769.829 107.496C769.829 108.352 769.172 108.973 768.27 108.973C767.403 108.973 766.735 108.352 766.735 107.496ZM769.582 121.676C769.582 122.637 769.067 123.117 768.282 123.117C767.497 123.117 766.981 122.625 766.981 121.676V111.949C766.981 110.988 767.508 110.508 768.282 110.508C769.067 110.508 769.582 111 769.582 111.949V121.676ZM783.119 121.688C783.119 122.602 782.638 123.117 781.818 123.117C780.986 123.117 780.505 122.59 780.505 121.676V115.359C780.505 113.613 779.638 112.652 778.068 112.652C776.275 112.652 775.138 113.953 775.138 116.098V121.676C775.138 122.59 774.658 123.117 773.837 123.117C773.005 123.117 772.537 122.59 772.537 121.676V111.914C772.537 111.035 773.029 110.508 773.826 110.508C774.611 110.508 775.068 110.988 775.091 111.844V112.84H775.22C775.724 111.328 777.095 110.426 778.947 110.426C781.595 110.426 783.119 111.961 783.119 114.633V121.688ZM793.62 120.879C793.139 121.969 791.874 122.824 790.116 122.824C787.397 122.824 785.346 120.832 785.346 117.48V115.781C785.346 112.43 787.397 110.426 790.092 110.426C791.967 110.426 793.256 111.41 793.69 112.488H793.819V111.797C793.842 110.918 794.335 110.484 795.061 110.484C795.846 110.484 796.338 110.977 796.338 111.926V122.648C796.338 126.012 794.112 127.652 790.784 127.652C789.307 127.652 788.053 127.359 787.163 126.832C786.378 126.375 785.827 125.695 785.827 124.992C785.827 124.371 786.249 123.949 786.905 123.949C787.397 123.949 787.667 124.23 788.053 124.547C788.557 124.945 789.331 125.496 790.725 125.496C792.647 125.496 793.749 124.465 793.749 122.566V120.879H793.62ZM788.006 117.246C788.006 119.367 789.202 120.762 790.96 120.762C792.764 120.762 793.749 119.273 793.749 117.551V115.84C793.749 114.082 792.741 112.57 790.901 112.57C789.131 112.57 788.006 113.977 788.006 116.109V117.246Z" fill="black" fill-opacity="0.8"/>
<path d="M0 12C0 5.37258 5.37258 0 12 0H328V76H0V12Z" fill="#C2C8BF"/>
<path d="M-1 12C-1 4.8203 4.8203 -1 12 -1H329L327 1H12C5.92487 1 1 5.92487 1 12H-1ZM329 77H-1L1 75H327L329 77ZM-1 77V12C-1 4.8203 4.8203 -1 12 -1V1C5.92487 1 1 5.92487 1 12V75L-1 77ZM329 -1V77L327 75V1L329 -1Z" fill="black" fill-opacity="0.2"/>
<path d="M21.1953 40.1211V37.8359C21.1953 33.3477 23.5625 30.6875 27.6758 30.6875C29.668 30.6875 31.2969 31.2969 32.4336 32.4453C33.2188 33.2305 33.7109 34.2266 33.7109 34.9297C33.7109 35.6211 33.2539 36.0547 32.5859 36.0547C32.0703 36.0547 31.7305 35.8555 31.3086 35.2344C30.3828 33.7109 29.3047 33.0078 27.8047 33.0078C25.2734 33.0078 23.8438 34.7891 23.8438 37.918V40.0508C23.8438 43.25 25.2617 45.0195 27.8047 45.0195C29.3281 45.0195 30.4883 44.3281 31.3555 42.8398C31.7773 42.2305 32.082 42.0078 32.5742 42.0078C33.2773 42.0078 33.7109 42.4531 33.7109 43.1328C33.7109 43.918 33.1602 44.9609 32.2812 45.7461C31.168 46.7773 29.6094 47.3398 27.6758 47.3398C23.5391 47.3398 21.1953 44.7031 21.1953 40.1211ZM41.0479 34.3789C44.2706 34.3789 46.5792 36.4414 46.5792 39.957V41.6211C46.5792 45.1953 44.2706 47.2344 41.0479 47.2344C37.8135 47.2344 35.5049 45.1953 35.5049 41.6211V39.9688C35.5049 36.4414 37.8135 34.3789 41.0479 34.3789ZM41.0479 36.4883C39.2784 36.4883 38.1651 37.8828 38.1651 40.0859V41.5273C38.1651 43.7656 39.2784 45.1367 41.0479 45.1367C42.8292 45.1367 43.9073 43.7656 43.9073 41.5273V40.0859C43.9073 37.8828 42.8292 36.4883 41.0479 36.4883ZM66.2794 45.6758C66.2794 46.6016 65.7989 47.1172 64.9786 47.1172C64.1583 47.1172 63.6896 46.6016 63.6896 45.6758V39.0664C63.6896 37.5078 62.8107 36.6172 61.3341 36.6172C59.8927 36.6172 58.8614 37.707 58.8614 39.2891V45.6758C58.8614 46.6016 58.4044 47.1172 57.5958 47.1172C56.7755 47.1172 56.3185 46.6016 56.3185 45.6758V39.1367C56.3185 37.5781 55.3927 36.6172 53.9396 36.6172C52.4982 36.6172 51.5021 37.6719 51.5021 39.2656V45.6758C51.5021 46.6016 51.0216 47.1172 50.2013 47.1172C49.3692 47.1172 48.9005 46.6016 48.9005 45.6758V35.9258C48.9005 35.0469 49.3927 34.5078 50.1896 34.5078C50.963 34.5078 51.4317 35.0234 51.4552 35.8789V36.6289H51.5841C52.0294 35.2578 53.2833 34.4258 54.9591 34.4258C56.6935 34.4258 57.9708 35.3047 58.381 36.7578H58.5099C59.0724 35.293 60.4552 34.4258 62.2482 34.4258C64.7911 34.4258 66.2794 35.8672 66.2794 38.3164V45.6758ZM71.7062 50.0117C71.7062 50.9375 71.2257 51.4531 70.3937 51.4531C69.5734 51.4531 69.1047 50.9375 69.1047 50.0117V35.9492C69.1047 35.0234 69.55 34.5078 70.3586 34.5078C71.1437 34.5078 71.6007 34.9766 71.6359 35.8203V36.582H71.7648C72.2687 35.2461 73.6632 34.4258 75.4211 34.4258C78.3156 34.4258 80.0968 36.4766 80.0968 39.8281V41.7617C80.0968 45.125 78.2922 47.1758 75.3625 47.1758C73.6632 47.1758 72.3859 46.4375 71.8351 45.1367H71.7062V50.0117ZM71.7062 41.8438C71.7062 43.7539 72.8898 45.0312 74.6242 45.0312C76.4172 45.0312 77.4484 43.707 77.4484 41.4102V40.1914C77.4484 37.8711 76.4172 36.5703 74.589 36.5703C72.7961 36.5703 71.7062 37.8242 71.7062 39.9453V41.8438ZM81.9729 41.7031V39.9453C81.9729 36.6406 84.1643 34.3789 87.3635 34.3789C90.4221 34.3789 92.5901 36.582 92.5901 39.6289C92.5901 41 92.2619 41.4219 91.2307 41.4219H84.6213V42.0078C84.6213 43.918 85.8166 45.1367 87.7737 45.1367C88.7697 45.1367 89.508 44.8555 90.1057 44.3164C90.7151 43.8008 90.9026 43.6719 91.3127 43.6719C91.8752 43.6719 92.2619 44.082 92.2619 44.6797C92.2619 45.1367 91.9807 45.6289 91.5002 46.0156C90.7033 46.7773 89.2502 47.2344 87.6213 47.2344C84.1291 47.2344 81.9729 45.1484 81.9729 41.7031ZM84.6213 39.6055H90.0705V39.5703C90.0705 37.6836 89.0276 36.4648 87.3987 36.4648C85.7229 36.4648 84.6213 37.7188 84.6213 39.5703V39.6055ZM95.7552 43.707V36.7695H95.0052C94.2903 36.7695 93.8567 36.3711 93.8567 35.7266C93.8567 35.0703 94.2786 34.6836 95.0052 34.6836H95.802V32.8672C95.802 31.9766 96.2591 31.4609 97.0677 31.4609C97.8763 31.4609 98.345 31.9766 98.345 32.8672V34.6836H99.7747C100.501 34.6836 100.911 35.0703 100.911 35.7266C100.911 36.3711 100.49 36.7695 99.7747 36.7695H98.3684V43.5195C98.3684 44.7383 98.6731 45.1133 99.7044 45.1133C100.033 45.1133 100.255 45.0781 100.513 45.0781C101.005 45.0781 101.357 45.4062 101.357 45.9219C101.357 46.3203 101.169 46.6602 100.783 46.8828C100.396 47.1055 99.8333 47.2227 99.0716 47.2227C96.7278 47.2227 95.7552 46.25 95.7552 43.707ZM103.045 31.4961C103.045 30.6523 103.713 30.043 104.58 30.043C105.483 30.043 106.139 30.6523 106.139 31.4961C106.139 32.3516 105.483 32.9727 104.58 32.9727C103.713 32.9727 103.045 32.3516 103.045 31.4961ZM105.893 45.6758C105.893 46.6367 105.377 47.1172 104.592 47.1172C103.807 47.1172 103.291 46.625 103.291 45.6758V35.9492C103.291 34.9883 103.819 34.5078 104.592 34.5078C105.377 34.5078 105.893 35 105.893 35.9492V45.6758ZM109.632 43.707V36.7695H108.882C108.167 36.7695 107.734 36.3711 107.734 35.7266C107.734 35.0703 108.156 34.6836 108.882 34.6836H109.679V32.8672C109.679 31.9766 110.136 31.4609 110.945 31.4609C111.753 31.4609 112.222 31.9766 112.222 32.8672V34.6836H113.652C114.378 34.6836 114.788 35.0703 114.788 35.7266C114.788 36.3711 114.367 36.7695 113.652 36.7695H112.245V43.5195C112.245 44.7383 112.55 45.1133 113.581 45.1133C113.91 45.1133 114.132 45.0781 114.39 45.0781C114.882 45.0781 115.234 45.4062 115.234 45.9219C115.234 46.3203 115.046 46.6602 114.66 46.8828C114.273 47.1055 113.71 47.2227 112.949 47.2227C110.605 47.2227 109.632 46.25 109.632 43.707ZM116.922 31.4961C116.922 30.6523 117.59 30.043 118.457 30.043C119.36 30.043 120.016 30.6523 120.016 31.4961C120.016 32.3516 119.36 32.9727 118.457 32.9727C117.59 32.9727 116.922 32.3516 116.922 31.4961ZM119.77 45.6758C119.77 46.6367 119.254 47.1172 118.469 47.1172C117.684 47.1172 117.168 46.625 117.168 45.6758V35.9492C117.168 34.9883 117.696 34.5078 118.469 34.5078C119.254 34.5078 119.77 35 119.77 35.9492V45.6758ZM124.775 44.7383L121.939 36.5586C121.834 36.2656 121.787 36.0195 121.787 35.7969C121.787 35.082 122.337 34.5547 123.087 34.5547C123.802 34.5547 124.236 34.9531 124.447 35.8086L126.931 44.5977H127.037L129.732 35.8203C129.978 34.9414 130.4 34.5547 131.068 34.5547C131.794 34.5547 132.322 35.0703 132.322 35.7852C132.322 35.9961 132.275 36.2422 132.146 36.5703L129.205 44.7383C128.501 46.6953 128.091 47.1172 127.013 47.1172C125.865 47.1172 125.431 46.6719 124.775 44.7383ZM133.401 41.7031V39.9453C133.401 36.6406 135.592 34.3789 138.792 34.3789C141.85 34.3789 144.018 36.582 144.018 39.6289C144.018 41 143.69 41.4219 142.659 41.4219H136.049V42.0078C136.049 43.918 137.245 45.1367 139.202 45.1367C140.198 45.1367 140.936 44.8555 141.534 44.3164C142.143 43.8008 142.331 43.6719 142.741 43.6719C143.303 43.6719 143.69 44.082 143.69 44.6797C143.69 45.1367 143.409 45.6289 142.928 46.0156C142.131 46.7773 140.678 47.2344 139.049 47.2344C135.557 47.2344 133.401 45.1484 133.401 41.7031ZM136.049 39.6055H141.499V39.5703C141.499 37.6836 140.456 36.4648 138.827 36.4648C137.151 36.4648 136.049 37.7188 136.049 39.5703V39.6055ZM157.473 45.3945C156.794 46.543 155.551 47.1758 154.016 47.1758C151.602 47.1758 149.973 45.6523 149.973 43.4023C149.973 41.1172 151.637 39.7227 154.403 39.7109H157.497V38.6094C157.497 37.2148 156.641 36.4883 155.059 36.4883C154.075 36.4883 153.395 36.8398 152.68 37.5664C152.364 37.8711 152.059 37.9883 151.614 37.9883C151.04 37.9883 150.665 37.6016 150.665 37.0391C150.665 36.3242 151.157 35.6211 152.2 35.0586C152.95 34.6484 153.934 34.4258 155.223 34.4258C158.352 34.4258 160.098 35.9258 160.098 38.6211V45.7109C160.098 46.6016 159.641 47.1172 158.833 47.1172C158.118 47.1172 157.661 46.6836 157.602 45.9453V45.3945H157.473ZM152.587 43.2734C152.587 44.4219 153.489 45.1953 154.825 45.1953C156.337 45.1953 157.497 44.1641 157.497 42.8281V41.4922H154.766C153.383 41.4922 152.587 42.1367 152.587 43.2734ZM173.365 45.6875C173.365 46.6016 172.885 47.1172 172.064 47.1172C171.232 47.1172 170.752 46.5898 170.752 45.6758V39.3594C170.752 37.6133 169.885 36.6523 168.314 36.6523C166.521 36.6523 165.385 37.9531 165.385 40.0977V45.6758C165.385 46.5898 164.904 47.1172 164.084 47.1172C163.252 47.1172 162.783 46.5898 162.783 45.6758V35.9141C162.783 35.0352 163.275 34.5078 164.072 34.5078C164.857 34.5078 165.314 34.9883 165.338 35.8438V36.8398H165.467C165.97 35.3281 167.342 34.4258 169.193 34.4258C171.842 34.4258 173.365 35.9609 173.365 38.6328V45.6875ZM182.905 45.3945C182.225 46.543 180.983 47.1758 179.448 47.1758C177.034 47.1758 175.405 45.6523 175.405 43.4023C175.405 41.1172 177.069 39.7227 179.835 39.7109H182.928V38.6094C182.928 37.2148 182.073 36.4883 180.491 36.4883C179.507 36.4883 178.827 36.8398 178.112 37.5664C177.796 37.8711 177.491 37.9883 177.046 37.9883C176.471 37.9883 176.096 37.6016 176.096 37.0391C176.096 36.3242 176.589 35.6211 177.632 35.0586C178.382 34.6484 179.366 34.4258 180.655 34.4258C183.784 34.4258 185.53 35.9258 185.53 38.6211V45.7109C185.53 46.6016 185.073 47.1172 184.264 47.1172C183.55 47.1172 183.093 46.6836 183.034 45.9453V45.3945H182.905ZM178.018 43.2734C178.018 44.4219 178.921 45.1953 180.257 45.1953C181.768 45.1953 182.928 44.1641 182.928 42.8281V41.4922H180.198C178.815 41.4922 178.018 42.1367 178.018 43.2734ZM189.598 47.1172C188.824 47.1172 188.308 46.6367 188.308 45.6758V31.5195C188.308 30.5586 188.824 30.0781 189.598 30.0781C190.383 30.0781 190.91 30.5586 190.91 31.5195V45.6758C190.91 46.6367 190.383 47.1172 189.598 47.1172ZM193.278 50.2695C193.278 49.7305 193.688 49.3672 194.309 49.3672C194.52 49.3672 194.743 49.4141 195.048 49.4141C195.798 49.4141 196.454 48.8047 196.735 47.8555C196.759 47.8203 196.911 47.2227 196.911 47.1641L193.114 36.582C193.009 36.2656 192.962 36.0078 192.962 35.7969C192.962 35.0938 193.513 34.5664 194.263 34.5664C194.942 34.5664 195.388 34.9766 195.622 35.832L198.317 44.6914H198.423L201.141 35.832C201.376 34.9766 201.809 34.5664 202.477 34.5664C203.192 34.5664 203.731 35.082 203.731 35.7852C203.731 35.9961 203.673 36.2422 203.556 36.582L199.63 47.6914C198.692 50.3633 197.356 51.4414 195.118 51.4414C194.427 51.4414 193.876 51.2773 193.571 50.9727C193.384 50.7852 193.278 50.5508 193.278 50.2695ZM204.764 44.5039C204.764 43.8711 205.174 43.4609 205.807 43.4609C206.17 43.4609 206.451 43.625 206.932 44.082C207.764 44.8672 208.643 45.2422 209.768 45.2422C211.186 45.2422 212.064 44.6328 212.064 43.6367C212.064 42.8516 211.478 42.2656 210.365 42.0195L208.232 41.5273C205.994 41.0234 204.939 39.9219 204.939 38.1406C204.939 35.8672 206.814 34.3789 209.732 34.3789C210.939 34.3789 212.064 34.6602 212.943 35.1875C213.775 35.668 214.268 36.3477 214.268 37.0156C214.268 37.6133 213.857 37.9883 213.236 37.9883C212.873 37.9883 212.615 37.8711 212.076 37.4141C211.221 36.6406 210.541 36.3594 209.603 36.3594C208.268 36.3594 207.459 36.9805 207.459 37.9648C207.459 38.7617 207.986 39.2422 209.135 39.5117L211.385 40.0273C213.576 40.5312 214.596 41.6094 214.596 43.4141C214.596 45.7695 212.709 47.2344 209.627 47.2344C208.326 47.2344 207.107 46.9531 206.193 46.4492C205.279 45.9453 204.764 45.2539 204.764 44.5039ZM216.706 31.4961C216.706 30.6523 217.374 30.043 218.241 30.043C219.144 30.043 219.8 30.6523 219.8 31.4961C219.8 32.3516 219.144 32.9727 218.241 32.9727C217.374 32.9727 216.706 32.3516 216.706 31.4961ZM219.554 45.6758C219.554 46.6367 219.038 47.1172 218.253 47.1172C217.468 47.1172 216.952 46.625 216.952 45.6758V35.9492C216.952 34.9883 217.48 34.5078 218.253 34.5078C219.038 34.5078 219.554 35 219.554 35.9492V45.6758ZM221.875 44.5039C221.875 43.8711 222.285 43.4609 222.918 43.4609C223.281 43.4609 223.563 43.625 224.043 44.082C224.875 44.8672 225.754 45.2422 226.879 45.2422C228.297 45.2422 229.176 44.6328 229.176 43.6367C229.176 42.8516 228.59 42.2656 227.477 42.0195L225.344 41.5273C223.106 41.0234 222.051 39.9219 222.051 38.1406C222.051 35.8672 223.926 34.3789 226.844 34.3789C228.051 34.3789 229.176 34.6602 230.055 35.1875C230.887 35.668 231.379 36.3477 231.379 37.0156C231.379 37.6133 230.969 37.9883 230.348 37.9883C229.984 37.9883 229.727 37.8711 229.188 37.4141C228.332 36.6406 227.652 36.3594 226.715 36.3594C225.379 36.3594 224.57 36.9805 224.57 37.9648C224.57 38.7617 225.098 39.2422 226.246 39.5117L228.496 40.0273C230.688 40.5312 231.707 41.6094 231.707 43.4141C231.707 45.7695 229.82 47.2344 226.738 47.2344C225.438 47.2344 224.219 46.9531 223.305 46.4492C222.391 45.9453 221.875 45.2539 221.875 44.5039Z" fill="black" fill-opacity="0.8"/>
</svg>