<svg width="1512" height="180" viewBox="0 0 1512 180" fill="none" xmlns="http://www.w3.org/2000/svg">
<rect width="1512" height="180" fill="#BDDCE5"/>
<rect x="365.5" y="40.5" width="113" height="98" rx="3.5" fill="#FDFCFC" stroke="#5E6D72" stroke-width="3"/>
<rect x="699.5" y="40.5" width="113" height="98" rx="3.5" fill="#FDFCFC" stroke="#5E6D72" stroke-width="3"/>
<rect x="1033.5" y="40.5" width="113" height="98" rx="3.5" fill="#FDFCFC" stroke="#5E6D72" stroke-width="3"/>
<path d="M375.967 97.0225V84.3149C375.967 82.9478 376.614 82.3374 378.055 82.3374H381.705C386.551 82.3374 389.102 85.2061 389.102 90.6748C389.102 96.1313 386.551 99 381.705 99H378.055C376.614 99 375.967 98.3896 375.967 97.0225ZM378.726 96.6562H381.436C384.708 96.6562 386.27 94.7153 386.27 90.6748C386.27 86.6221 384.695 84.6689 381.436 84.6689H378.726V96.6562ZM391.69 82.8501C391.69 81.9712 392.386 81.3364 393.289 81.3364C394.229 81.3364 394.913 81.9712 394.913 82.8501C394.913 83.7412 394.229 84.3882 393.289 84.3882C392.386 84.3882 391.69 83.7412 391.69 82.8501ZM394.656 97.6206C394.656 98.6216 394.119 99.1221 393.301 99.1221C392.483 99.1221 391.946 98.6094 391.946 97.6206V87.4888C391.946 86.4878 392.496 85.9873 393.301 85.9873C394.119 85.9873 394.656 86.5 394.656 87.4888V97.6206ZM397.549 96.3999C397.549 95.7407 397.977 95.3135 398.636 95.3135C399.014 95.3135 399.307 95.4844 399.808 95.9604C400.674 96.7783 401.59 97.1689 402.762 97.1689C404.239 97.1689 405.154 96.5342 405.154 95.4966C405.154 94.6787 404.544 94.0684 403.384 93.812L401.163 93.2993C398.831 92.7744 397.732 91.627 397.732 89.7715C397.732 87.4033 399.686 85.853 402.725 85.853C403.982 85.853 405.154 86.146 406.07 86.6953C406.937 87.1958 407.449 87.9038 407.449 88.5996C407.449 89.2222 407.022 89.6128 406.375 89.6128C405.997 89.6128 405.728 89.4907 405.167 89.0146C404.275 88.209 403.567 87.916 402.591 87.916C401.199 87.916 400.357 88.563 400.357 89.5884C400.357 90.4185 400.906 90.9189 402.103 91.1997L404.446 91.7368C406.729 92.2617 407.791 93.3848 407.791 95.2646C407.791 97.7183 405.826 99.2441 402.615 99.2441C401.26 99.2441 399.991 98.9512 399.039 98.4263C398.086 97.9014 397.549 97.1812 397.549 96.3999ZM410.086 93.519V91.5171C410.086 88.1357 412.125 85.853 415.689 85.853C416.8 85.853 418.021 86.0972 419.009 86.7075C419.815 87.2202 420.511 88.0137 420.511 88.8438C420.511 89.5029 420.108 90.0156 419.4 90.0156C418.802 90.0156 418.497 89.6372 418.204 89.3076C417.605 88.5386 416.824 88.1357 415.787 88.1357C413.833 88.1357 412.869 89.5762 412.869 91.6636V93.3726C412.869 95.4722 413.76 96.9736 415.811 96.9736C416.739 96.9736 417.593 96.644 418.277 95.7773C418.558 95.4844 418.887 95.0815 419.461 95.0815C420.059 95.0815 420.547 95.4722 420.547 96.229C420.547 97.0591 419.888 97.877 418.948 98.4385C417.947 99.0366 416.8 99.2441 415.701 99.2441C412.173 99.2441 410.086 97.0591 410.086 93.519ZM428.763 85.853C432.12 85.853 434.524 88.0015 434.524 91.6636V93.397C434.524 97.1201 432.12 99.2441 428.763 99.2441C425.394 99.2441 422.989 97.1201 422.989 93.397V91.6758C422.989 88.0015 425.394 85.853 428.763 85.853ZM428.763 88.0503C426.919 88.0503 425.76 89.5029 425.76 91.7979V93.2993C425.76 95.6309 426.919 97.0591 428.763 97.0591C430.618 97.0591 431.741 95.6309 431.741 93.2993V91.7979C431.741 89.5029 430.618 88.0503 428.763 88.0503ZM439.261 96.644L436.307 88.1235C436.197 87.8184 436.148 87.562 436.148 87.3301C436.148 86.5854 436.722 86.0361 437.503 86.0361C438.248 86.0361 438.699 86.4512 438.919 87.3423L441.507 96.4976H441.617L444.424 87.3545C444.681 86.439 445.12 86.0361 445.816 86.0361C446.573 86.0361 447.122 86.5732 447.122 87.3179C447.122 87.5376 447.073 87.7939 446.939 88.1357L443.875 96.644C443.143 98.6826 442.715 99.1221 441.592 99.1221C440.396 99.1221 439.944 98.6582 439.261 96.644ZM448.721 93.4824V91.6514C448.721 88.209 451.004 85.853 454.336 85.853C457.522 85.853 459.781 88.1479 459.781 91.3218C459.781 92.75 459.439 93.1895 458.365 93.1895H451.48V93.7998C451.48 95.7896 452.725 97.0591 454.764 97.0591C455.801 97.0591 456.57 96.7661 457.193 96.2046C457.828 95.6675 458.023 95.5332 458.45 95.5332C459.036 95.5332 459.439 95.9604 459.439 96.583C459.439 97.0591 459.146 97.5718 458.646 97.9746C457.815 98.7681 456.302 99.2441 454.605 99.2441C450.967 99.2441 448.721 97.0713 448.721 93.4824ZM451.48 91.2974H457.156V91.2607C457.156 89.2954 456.07 88.0259 454.373 88.0259C452.627 88.0259 451.48 89.332 451.48 91.2607V91.2974ZM465.384 97.6206C465.384 98.5728 464.883 99.1221 464.017 99.1221C463.15 99.1221 462.674 98.5728 462.674 97.6206V87.4888C462.674 86.5366 463.174 85.9873 464.029 85.9873C464.834 85.9873 465.298 86.4878 465.335 87.3545V87.7451H465.433C466.019 86.5244 466.995 85.9019 468.191 85.9019C468.619 85.9019 468.973 85.9995 469.217 86.1948C469.51 86.3901 469.668 86.7197 469.668 87.1226C469.668 87.5498 469.522 87.855 469.229 88.0503C468.985 88.2212 468.631 88.2944 468.167 88.3066C466.324 88.3311 465.384 89.332 465.384 91.3584V97.6206Z" fill="black"/>
<path d="M719.891 96.0225V83.3149C719.891 81.9478 720.538 81.3374 721.979 81.3374H725.628C730.475 81.3374 733.026 84.2061 733.026 89.6748C733.026 95.1313 730.475 98 725.628 98H721.979C720.538 98 719.891 97.3896 719.891 96.0225ZM722.65 95.6562H725.36C728.631 95.6562 730.194 93.7153 730.194 89.6748C730.194 85.6221 728.619 83.6689 725.36 83.6689H722.65V95.6562ZM735.223 92.4824V90.6514C735.223 87.209 737.506 84.853 740.838 84.853C744.024 84.853 746.283 87.1479 746.283 90.3218C746.283 91.75 745.941 92.1895 744.867 92.1895H737.982V92.7998C737.982 94.7896 739.227 96.0591 741.266 96.0591C742.303 96.0591 743.072 95.7661 743.695 95.2046C744.33 94.6675 744.525 94.5332 744.952 94.5332C745.538 94.5332 745.941 94.9604 745.941 95.583C745.941 96.0591 745.648 96.5718 745.147 96.9746C744.317 97.7681 742.804 98.2441 741.107 98.2441C737.469 98.2441 735.223 96.0713 735.223 92.4824ZM737.982 90.2974H743.658V90.2607C743.658 88.2954 742.572 87.0259 740.875 87.0259C739.129 87.0259 737.982 88.332 737.982 90.2607V90.2974ZM748.504 95.3999C748.504 94.7407 748.932 94.3135 749.591 94.3135C749.969 94.3135 750.262 94.4844 750.763 94.9604C751.629 95.7783 752.545 96.1689 753.717 96.1689C755.194 96.1689 756.109 95.5342 756.109 94.4966C756.109 93.6787 755.499 93.0684 754.339 92.812L752.118 92.2993C749.786 91.7744 748.688 90.627 748.688 88.7715C748.688 86.4033 750.641 84.853 753.68 84.853C754.938 84.853 756.109 85.146 757.025 85.6953C757.892 86.1958 758.404 86.9038 758.404 87.5996C758.404 88.2222 757.977 88.6128 757.33 88.6128C756.952 88.6128 756.683 88.4907 756.122 88.0146C755.23 87.209 754.522 86.916 753.546 86.916C752.154 86.916 751.312 87.563 751.312 88.5884C751.312 89.4185 751.861 89.9189 753.058 90.1997L755.401 90.7368C757.684 91.2617 758.746 92.3848 758.746 94.2646C758.746 96.7183 756.781 98.2441 753.57 98.2441C752.215 98.2441 750.946 97.9512 749.994 97.4263C749.042 96.9014 748.504 96.1812 748.504 95.3999ZM761.419 81.8501C761.419 80.9712 762.115 80.3364 763.019 80.3364C763.958 80.3364 764.642 80.9712 764.642 81.8501C764.642 82.7412 763.958 83.3882 763.019 83.3882C762.115 83.3882 761.419 82.7412 761.419 81.8501ZM764.386 96.6206C764.386 97.6216 763.849 98.1221 763.031 98.1221C762.213 98.1221 761.676 97.6094 761.676 96.6206V86.4888C761.676 85.4878 762.225 84.9873 763.031 84.9873C763.849 84.9873 764.386 85.5 764.386 86.4888V96.6206ZM776.068 95.7905C775.567 96.9258 774.249 97.8169 772.418 97.8169C769.586 97.8169 767.45 95.7417 767.45 92.2505V90.4805C767.45 86.9893 769.586 84.9019 772.394 84.9019C774.347 84.9019 775.689 85.9272 776.141 87.0503H776.275V86.3301C776.3 85.4146 776.812 84.9629 777.569 84.9629C778.387 84.9629 778.9 85.4756 778.9 86.4644V97.6338C778.9 101.137 776.581 102.846 773.114 102.846C771.576 102.846 770.27 102.541 769.342 101.992C768.524 101.516 767.95 100.808 767.95 100.075C767.95 99.4282 768.39 98.9888 769.073 98.9888C769.586 98.9888 769.867 99.2817 770.27 99.6113C770.794 100.026 771.6 100.6 773.053 100.6C775.055 100.6 776.202 99.5259 776.202 97.5483V95.7905H776.068ZM770.221 92.0063C770.221 94.2158 771.466 95.6685 773.297 95.6685C775.177 95.6685 776.202 94.1182 776.202 92.3237V90.5415C776.202 88.7104 775.152 87.1357 773.236 87.1357C771.393 87.1357 770.221 88.6006 770.221 90.8223V92.0063ZM793.414 96.6328C793.414 97.585 792.914 98.1221 792.059 98.1221C791.192 98.1221 790.692 97.5728 790.692 96.6206V90.041C790.692 88.2222 789.789 87.2212 788.153 87.2212C786.285 87.2212 785.101 88.5762 785.101 90.8101V96.6206C785.101 97.5728 784.601 98.1221 783.746 98.1221C782.879 98.1221 782.391 97.5728 782.391 96.6206V86.4521C782.391 85.5366 782.904 84.9873 783.734 84.9873C784.552 84.9873 785.028 85.4878 785.052 86.3789V87.4165H785.187C785.711 85.8418 787.14 84.9019 789.068 84.9019C791.827 84.9019 793.414 86.501 793.414 89.2842V96.6328Z" fill="black"/>
<path d="M1052.74 95.7529L1056.7 83.5459C1056.99 82.5693 1057.43 82.1665 1058.16 82.1665C1058.95 82.1665 1059.54 82.6792 1059.54 83.4238C1059.54 83.7046 1059.43 84.1929 1059.31 84.5713L1054.81 97.2178C1054.36 98.5483 1053.75 99.1221 1052.66 99.1221C1051.56 99.1221 1050.93 98.5483 1050.47 97.2178L1045.98 84.5713C1045.83 84.1318 1045.75 83.7168 1045.75 83.436C1045.75 82.6914 1046.35 82.1665 1047.14 82.1665C1047.87 82.1665 1048.31 82.5938 1048.62 83.5459L1052.61 95.7529H1052.74ZM1067.97 97.3276C1067.26 98.5239 1065.96 99.1831 1064.37 99.1831C1061.85 99.1831 1060.15 97.5962 1060.15 95.2524C1060.15 92.8721 1061.89 91.4194 1064.77 91.4072H1067.99V90.2598C1067.99 88.8071 1067.1 88.0503 1065.45 88.0503C1064.43 88.0503 1063.72 88.4165 1062.97 89.1733C1062.64 89.4907 1062.33 89.6128 1061.86 89.6128C1061.26 89.6128 1060.87 89.21 1060.87 88.624C1060.87 87.8794 1061.39 87.147 1062.47 86.561C1063.25 86.1338 1064.28 85.9019 1065.62 85.9019C1068.88 85.9019 1070.7 87.4644 1070.7 90.272V97.6572C1070.7 98.585 1070.22 99.1221 1069.38 99.1221C1068.64 99.1221 1068.16 98.6704 1068.1 97.9014V97.3276H1067.97ZM1062.88 95.1182C1062.88 96.3145 1063.82 97.1201 1065.21 97.1201C1066.78 97.1201 1067.99 96.0459 1067.99 94.6543V93.2627H1065.15C1063.71 93.2627 1062.88 93.9341 1062.88 95.1182ZM1075.41 99.1221C1074.61 99.1221 1074.07 98.6216 1074.07 97.6206V82.8745C1074.07 81.8735 1074.61 81.373 1075.41 81.373C1076.23 81.373 1076.78 81.8735 1076.78 82.8745V97.6206C1076.78 98.6216 1076.23 99.1221 1075.41 99.1221ZM1080.17 82.8501C1080.17 81.9712 1080.87 81.3364 1081.77 81.3364C1082.71 81.3364 1083.4 81.9712 1083.4 82.8501C1083.4 83.7412 1082.71 84.3882 1081.77 84.3882C1080.87 84.3882 1080.17 83.7412 1080.17 82.8501ZM1083.14 97.6206C1083.14 98.6216 1082.6 99.1221 1081.78 99.1221C1080.97 99.1221 1080.43 98.6094 1080.43 97.6206V87.4888C1080.43 86.4878 1080.98 85.9873 1081.78 85.9873C1082.6 85.9873 1083.14 86.5 1083.14 87.4888V97.6206ZM1094.91 96.9492C1094.52 98.2676 1092.95 99.1831 1091.09 99.1831C1088.1 99.1831 1086.2 97.0347 1086.2 93.6655V91.4194C1086.2 88.0503 1088.13 85.9019 1091.14 85.9019C1092.93 85.9019 1094.33 86.6953 1094.83 88.0137H1094.97V82.8745C1094.97 81.9224 1095.46 81.373 1096.32 81.373C1097.19 81.373 1097.68 81.9224 1097.68 82.8745V97.6206C1097.68 98.585 1097.21 99.1221 1096.36 99.1221C1095.57 99.1221 1095.09 98.6216 1095.04 97.7427V96.9492H1094.91ZM1088.97 93.2627C1088.97 95.5942 1090.07 96.9614 1091.94 96.9614C1093.8 96.9614 1094.97 95.6064 1094.97 93.4458V91.4561C1094.97 89.5029 1093.7 88.1357 1091.88 88.1357C1090.05 88.1357 1088.97 89.5151 1088.97 91.8223V93.2627ZM1108.32 97.3276C1107.61 98.5239 1106.32 99.1831 1104.72 99.1831C1102.21 99.1831 1100.51 97.5962 1100.51 95.2524C1100.51 92.8721 1102.24 91.4194 1105.12 91.4072H1108.35V90.2598C1108.35 88.8071 1107.46 88.0503 1105.81 88.0503C1104.78 88.0503 1104.07 88.4165 1103.33 89.1733C1103 89.4907 1102.68 89.6128 1102.22 89.6128C1101.62 89.6128 1101.23 89.21 1101.23 88.624C1101.23 87.8794 1101.74 87.147 1102.83 86.561C1103.61 86.1338 1104.64 85.9019 1105.98 85.9019C1109.24 85.9019 1111.06 87.4644 1111.06 90.272V97.6572C1111.06 98.585 1110.58 99.1221 1109.74 99.1221C1108.99 99.1221 1108.52 98.6704 1108.46 97.9014V97.3276H1108.32ZM1103.23 95.1182C1103.23 96.3145 1104.17 97.1201 1105.56 97.1201C1107.14 97.1201 1108.35 96.0459 1108.35 94.6543V93.2627H1105.5C1104.06 93.2627 1103.23 93.9341 1103.23 95.1182ZM1115.17 95.5698V88.3433H1114.39C1113.65 88.3433 1113.19 87.9282 1113.19 87.2568C1113.19 86.5732 1113.63 86.1704 1114.39 86.1704H1115.22V84.2783C1115.22 83.3506 1115.7 82.8135 1116.54 82.8135C1117.38 82.8135 1117.87 83.3506 1117.87 84.2783V86.1704H1119.36C1120.11 86.1704 1120.54 86.5732 1120.54 87.2568C1120.54 87.9282 1120.1 88.3433 1119.36 88.3433H1117.89V95.3745C1117.89 96.644 1118.21 97.0347 1119.28 97.0347C1119.63 97.0347 1119.86 96.998 1120.13 96.998C1120.64 96.998 1121.01 97.3398 1121.01 97.877C1121.01 98.292 1120.81 98.646 1120.41 98.8779C1120 99.1099 1119.42 99.2319 1118.63 99.2319C1116.18 99.2319 1115.17 98.2188 1115.17 95.5698ZM1122.6 93.4824V91.6514C1122.6 88.209 1124.89 85.853 1128.22 85.853C1131.41 85.853 1133.66 88.1479 1133.66 91.3218C1133.66 92.75 1133.32 93.1895 1132.25 93.1895H1125.36V93.7998C1125.36 95.7896 1126.61 97.0591 1128.65 97.0591C1129.69 97.0591 1130.45 96.7661 1131.08 96.2046C1131.71 95.6675 1131.91 95.5332 1132.33 95.5332C1132.92 95.5332 1133.32 95.9604 1133.32 96.583C1133.32 97.0591 1133.03 97.5718 1132.53 97.9746C1131.7 98.7681 1130.19 99.2441 1128.49 99.2441C1124.85 99.2441 1122.6 97.0713 1122.6 93.4824ZM1125.36 91.2974H1131.04V91.2607C1131.04 89.2954 1129.95 88.0259 1128.26 88.0259C1126.51 88.0259 1125.36 89.332 1125.36 91.2607V91.2974Z" fill="black"/>
<path d="M567 88.5C566.172 88.5 565.5 89.1716 565.5 90C565.5 90.8284 566.172 91.5 567 91.5V88.5ZM628.061 91.0607C628.646 90.4749 628.646 89.5251 628.061 88.9393L618.515 79.3934C617.929 78.8076 616.979 78.8076 616.393 79.3934C615.808 79.9792 615.808 80.9289 616.393 81.5147L624.879 90L616.393 98.4853C615.808 99.0711 615.808 100.021 616.393 100.607C616.979 101.192 617.929 101.192 618.515 100.607L628.061 91.0607ZM567 91.5H627V88.5H567V91.5Z" fill="black"/>
<path d="M898 73.5C897.172 73.5 896.5 74.1716 896.5 75C896.5 75.8284 897.172 76.5 898 76.5V73.5ZM959.061 76.0607C959.646 75.4749 959.646 74.5251 959.061 73.9393L949.515 64.3934C948.929 63.8076 947.979 63.8076 947.393 64.3934C946.808 64.9792 946.808 65.9289 947.393 66.5147L955.879 75L947.393 83.4853C946.808 84.0711 946.808 85.0208 947.393 85.6066C947.979 86.1924 948.929 86.1924 949.515 85.6066L959.061 76.0607ZM898 76.5H958V73.5H898V76.5Z" fill="black"/>
<path d="M958 105.5C958.828 105.5 959.5 104.828 959.5 104C959.5 103.172 958.828 102.5 958 102.5V105.5ZM896.939 102.939C896.354 103.525 896.354 104.475 896.939 105.061L906.485 114.607C907.071 115.192 908.021 115.192 908.607 114.607C909.192 114.021 909.192 113.071 908.607 112.485L900.121 104L908.607 95.5147C909.192 94.9289 909.192 93.9792 908.607 93.3934C908.021 92.8076 907.071 92.8076 906.485 93.3934L896.939 102.939ZM958 102.5L898 102.5V105.5L958 105.5V102.5Z" fill="black"/>
</svg>
