<svg width="514" height="152" viewBox="0 0 514 152" fill="none" xmlns="http://www.w3.org/2000/svg">
<path d="M0 12C0 5.37258 5.37258 0 12 0H502C508.627 0 514 5.37258 514 12V140C514 146.627 508.627 152 502 152H12C5.37258 152 0 146.627 0 140V12Z" fill="black" fill-opacity="0.0980392"/>
<path d="M257 76H514V140C514 146.627 508.627 152 502 152H257V76Z" fill="#F5DFD9"/>
<path d="M257 76H514H257ZM515 140C515 147.18 509.18 153 502 153H257V151H502C508.075 151 513 146.075 513 140H515ZM257 152V76V152ZM515 76V140C515 147.18 509.18 153 502 153V151C508.075 151 513 146.075 513 140V76H515Z" fill="black" fill-opacity="0.2"/>
<path d="M279.941 123.117C279.309 123.117 278.922 122.684 278.922 121.992V108.773C278.922 107.496 279.449 107.004 280.832 107.004H284.734C287.793 107.004 289.832 108.996 289.832 111.973C289.832 114.973 287.793 116.93 284.711 116.93H280.961V121.992C280.961 122.684 280.574 123.117 279.941 123.117ZM280.973 115.137H283.41C286.586 115.137 287.734 114.305 287.734 111.973C287.734 109.969 286.598 108.809 284.617 108.809H280.973V115.137ZM294.256 121.992C294.256 122.695 293.892 123.117 293.248 123.117C292.615 123.117 292.24 122.695 292.24 121.992V111.691C292.24 111 292.638 110.566 293.259 110.566C293.881 110.566 294.244 110.988 294.244 111.668V112.137H294.302C294.947 111.035 295.896 110.484 297.021 110.484C297.373 110.484 297.666 110.555 297.888 110.695C298.146 110.848 298.287 111.117 298.287 111.434C298.287 111.797 298.158 112.043 297.888 112.195C297.677 112.312 297.384 112.359 296.998 112.359C295.193 112.371 294.256 113.344 294.256 115.371V121.992ZM304.89 110.473C307.913 110.473 310.175 112.453 310.175 115.898V117.773C310.175 121.23 307.913 123.211 304.89 123.211C301.855 123.211 299.593 121.23 299.593 117.773V115.898C299.593 112.453 301.855 110.473 304.89 110.473ZM304.89 112.23C302.898 112.23 301.632 113.754 301.632 116.074V117.598C301.632 119.977 302.898 121.465 304.89 121.465C306.882 121.465 308.124 119.977 308.124 117.598V116.074C308.124 113.754 306.882 112.23 304.89 112.23ZM313.778 119.73V112.395H312.888C312.313 112.395 311.95 112.078 311.95 111.551C311.95 111.023 312.302 110.695 312.888 110.695H313.79V108.668C313.79 107.965 314.165 107.555 314.786 107.555C315.419 107.555 315.794 107.965 315.794 108.668V110.695H317.446C318.032 110.695 318.384 111.023 318.384 111.551C318.384 112.078 318.021 112.395 317.446 112.395H315.806V119.754C315.806 121.066 316.134 121.453 317.271 121.453C317.599 121.453 317.833 121.418 318.056 121.418C318.513 121.418 318.829 121.711 318.829 122.168C318.829 122.496 318.677 122.766 318.313 122.941C317.985 123.105 317.528 123.188 316.86 123.188C314.634 123.188 313.778 122.297 313.778 119.73ZM325.62 110.473C328.643 110.473 330.905 112.453 330.905 115.898V117.773C330.905 121.23 328.643 123.211 325.62 123.211C322.585 123.211 320.323 121.23 320.323 117.773V115.898C320.323 112.453 322.585 110.473 325.62 110.473ZM325.62 112.23C323.628 112.23 322.362 113.754 322.362 116.074V117.598C322.362 119.977 323.628 121.465 325.62 121.465C327.612 121.465 328.854 119.977 328.854 117.598V116.074C328.854 113.754 327.612 112.23 325.62 112.23ZM334.508 119.73V112.395H333.618C333.043 112.395 332.68 112.078 332.68 111.551C332.68 111.023 333.032 110.695 333.618 110.695H334.52V108.668C334.52 107.965 334.895 107.555 335.516 107.555C336.149 107.555 336.524 107.965 336.524 108.668V110.695H338.176C338.762 110.695 339.114 111.023 339.114 111.551C339.114 112.078 338.75 112.395 338.176 112.395H336.535V119.754C336.535 121.066 336.864 121.453 338 121.453C338.328 121.453 338.563 121.418 338.785 121.418C339.243 121.418 339.559 121.711 339.559 122.168C339.559 122.496 339.407 122.766 339.043 122.941C338.715 123.105 338.258 123.188 337.59 123.188C335.364 123.188 334.508 122.297 334.508 119.73ZM341.627 126.492C341.627 126.023 342.002 125.719 342.564 125.719C342.729 125.719 342.951 125.742 343.209 125.742C344.018 125.742 344.756 125.016 345.072 123.902C345.072 123.891 345.271 123.199 345.271 123.188L341.311 112.336C341.205 112.055 341.158 111.809 341.158 111.621C341.158 111.07 341.592 110.648 342.189 110.648C342.682 110.648 343.033 110.977 343.244 111.668L346.279 120.996H346.373L349.408 111.668C349.619 110.977 349.971 110.648 350.451 110.648C351.025 110.648 351.447 111.059 351.447 111.609C351.447 111.797 351.4 112.031 351.283 112.336L347.135 123.914C346.232 126.445 345.014 127.441 343.104 127.441C342.553 127.441 342.096 127.301 341.85 127.066C341.697 126.914 341.627 126.727 341.627 126.492ZM355.847 126.375C355.847 127.078 355.472 127.5 354.84 127.5C354.207 127.5 353.832 127.078 353.832 126.375V111.691C353.832 110.977 354.183 110.566 354.793 110.566C355.402 110.566 355.754 110.965 355.754 111.668V112.641H355.859C356.363 111.305 357.793 110.484 359.562 110.484C362.457 110.484 364.285 112.523 364.285 115.746V117.926C364.285 121.172 362.433 123.199 359.492 123.199C357.793 123.199 356.515 122.473 355.953 121.184H355.847V126.375ZM355.847 118.055C355.847 120.059 357.183 121.441 359.117 121.441C361.109 121.441 362.257 120 362.257 117.504V116.168C362.257 113.66 361.109 112.242 359.058 112.242C357.078 112.242 355.847 113.602 355.847 115.852V118.055ZM366.634 117.832V115.887C366.634 112.699 368.743 110.473 371.779 110.473C374.72 110.473 376.783 112.617 376.783 115.641C376.783 116.977 376.548 117.352 375.681 117.352H368.673V117.996C368.685 120.129 369.962 121.465 372.072 121.465C373.115 121.465 373.923 121.148 374.579 120.516C375.212 119.93 375.353 119.836 375.693 119.836C376.138 119.836 376.478 120.199 376.478 120.691C376.478 121.055 376.255 121.5 375.904 121.863C375.13 122.695 373.63 123.211 371.978 123.211C368.673 123.211 366.634 121.16 366.634 117.832ZM368.673 115.711H374.779V115.676C374.779 113.555 373.618 112.207 371.802 112.207C369.939 112.207 368.673 113.613 368.673 115.676V115.711ZM378.862 120.492C378.862 119.93 379.202 119.59 379.741 119.59C380.069 119.59 380.315 119.754 380.726 120.258C381.476 121.125 382.437 121.559 383.69 121.559C385.272 121.559 386.269 120.844 386.269 119.707C386.269 118.84 385.636 118.184 384.558 117.926L382.214 117.387C380.069 116.895 379.038 115.816 379.038 114.082C379.038 111.891 380.796 110.473 383.538 110.473C384.769 110.473 385.905 110.789 386.772 111.363C387.511 111.855 387.968 112.523 387.968 113.133C387.968 113.648 387.628 113.965 387.112 113.965C386.749 113.965 386.562 113.848 386.069 113.344C385.249 112.465 384.534 112.125 383.456 112.125C381.944 112.125 381.019 112.816 381.019 113.953C381.019 114.844 381.593 115.383 382.823 115.688L385.108 116.238C387.253 116.754 388.249 117.797 388.249 119.543C388.249 121.793 386.468 123.211 383.585 123.211C382.331 123.211 381.147 122.918 380.233 122.402C379.354 121.898 378.862 121.207 378.862 120.492Z" fill="#242424"/>
<path d="M0 76H257V152H12C5.37258 152 0 146.627 0 140V76Z" fill="#F5DFD9"/>
<path d="M0 76H257H0ZM258 153H12C4.8203 153 -1 147.18 -1 140H1C1 146.075 5.92487 151 12 151H256L258 153ZM12 153C4.8203 153 -1 147.18 -1 140V76H1V140C1 146.075 5.92487 151 12 151V153ZM258 76V153L256 151V76H258Z" fill="black" fill-opacity="0.2"/>
<path d="M33.8633 117.457C33.8633 120.973 31.4258 123.34 27.793 123.34C23.9609 123.34 21.7344 120.949 21.7344 117.41V108.012C21.7344 107.32 22.1211 106.887 22.7539 106.887C23.3867 106.887 23.7852 107.32 23.7852 108.012V117.41C23.7852 119.918 25.3438 121.5 27.793 121.5C30.2539 121.5 31.8125 119.906 31.8125 117.41V108.012C31.8125 107.32 32.1992 106.887 32.832 106.887C33.4648 106.887 33.8633 107.32 33.8633 108.012V117.457ZM36.4352 120.492C36.4352 119.93 36.7751 119.59 37.3141 119.59C37.6423 119.59 37.8883 119.754 38.2985 120.258C39.0485 121.125 40.0094 121.559 41.2633 121.559C42.8454 121.559 43.8415 120.844 43.8415 119.707C43.8415 118.84 43.2087 118.184 42.1305 117.926L39.7868 117.387C37.6423 116.895 36.611 115.816 36.611 114.082C36.611 111.891 38.3688 110.473 41.111 110.473C42.3415 110.473 43.4782 110.789 44.3454 111.363C45.0837 111.855 45.5407 112.523 45.5407 113.133C45.5407 113.648 45.2008 113.965 44.6852 113.965C44.3219 113.965 44.1344 113.848 43.6423 113.344C42.8219 112.465 42.1071 112.125 41.029 112.125C39.5173 112.125 38.5915 112.816 38.5915 113.953C38.5915 114.844 39.1657 115.383 40.3962 115.688L42.6813 116.238C44.8258 116.754 45.8219 117.797 45.8219 119.543C45.8219 121.793 44.0407 123.211 41.1579 123.211C39.904 123.211 38.7204 122.918 37.8063 122.402C36.9274 121.898 36.4352 121.207 36.4352 120.492ZM55.3665 121.359C54.6283 122.555 53.3743 123.199 51.8158 123.199C49.4134 123.199 47.7962 121.676 47.7962 119.414C47.7962 117.176 49.4251 115.781 52.1322 115.781H55.39V114.586C55.39 113.004 54.4408 112.195 52.6712 112.195C51.6283 112.195 50.9251 112.559 50.1868 113.402C49.9056 113.73 49.6361 113.848 49.2728 113.848C48.804 113.848 48.4876 113.531 48.4876 113.051C48.4876 112.359 48.9681 111.68 49.9525 111.117C50.6673 110.707 51.5931 110.484 52.8001 110.484C55.765 110.484 57.4056 111.938 57.4056 114.574V122.004C57.4056 122.707 57.0423 123.117 56.4212 123.117C55.8236 123.117 55.472 122.719 55.4486 122.051V121.359H55.3665ZM49.8587 119.367C49.8587 120.645 50.8665 121.512 52.3665 121.512C54.0658 121.512 55.39 120.34 55.39 118.805V117.41H52.2376C50.7259 117.41 49.8587 118.113 49.8587 119.367ZM66.3174 123.199C64.583 123.199 63.2119 122.438 62.6611 121.184H62.5557V122.016C62.5557 122.719 62.2041 123.117 61.583 123.117C60.9736 123.117 60.6221 122.707 60.6221 121.992V107.215C60.6221 106.512 60.9971 106.09 61.6299 106.09C62.2627 106.09 62.6377 106.512 62.6377 107.215V112.629H62.7432C63.1182 111.352 64.5947 110.484 66.3877 110.484C69.2822 110.484 71.1103 112.512 71.1103 115.746V117.926C71.1103 121.172 69.2588 123.199 66.3174 123.199ZM62.6377 118.008C62.6377 120 64.0205 121.441 65.9541 121.441C67.9346 121.441 69.0596 120.012 69.0596 117.527V116.25C69.0596 113.73 67.9111 112.242 65.9072 112.242C63.9033 112.242 62.6377 113.672 62.6377 115.934V118.008ZM73.8698 107.602C73.8698 106.863 74.444 106.336 75.1471 106.336C75.9088 106.336 76.4713 106.863 76.4713 107.602C76.4713 108.34 75.9088 108.891 75.1471 108.891C74.444 108.891 73.8698 108.34 73.8698 107.602ZM76.1667 121.992C76.1667 122.754 75.7331 123.117 75.1588 123.117C74.5846 123.117 74.151 122.742 74.151 121.992V111.691C74.151 110.93 74.5963 110.566 75.1706 110.566C75.7448 110.566 76.1667 110.941 76.1667 111.691V121.992ZM80.7073 123.117C80.1331 123.117 79.7113 122.754 79.7113 121.992V107.215C79.7113 106.453 80.1331 106.09 80.7073 106.09C81.2816 106.09 81.7152 106.453 81.7152 107.215V121.992C81.7152 122.754 81.2816 123.117 80.7073 123.117ZM84.9668 107.602C84.9668 106.863 85.541 106.336 86.2441 106.336C87.0058 106.336 87.5683 106.863 87.5683 107.602C87.5683 108.34 87.0058 108.891 86.2441 108.891C85.541 108.891 84.9668 108.34 84.9668 107.602ZM87.2637 121.992C87.2637 122.754 86.8301 123.117 86.2558 123.117C85.6816 123.117 85.248 122.742 85.248 121.992V111.691C85.248 110.93 85.6933 110.566 86.2676 110.566C86.8418 110.566 87.2637 110.941 87.2637 111.691V121.992ZM91.4645 119.73V112.395H90.5739C89.9997 112.395 89.6364 112.078 89.6364 111.551C89.6364 111.023 89.9879 110.695 90.5739 110.695H91.4762V108.668C91.4762 107.965 91.8512 107.555 92.4723 107.555C93.1051 107.555 93.4801 107.965 93.4801 108.668V110.695H95.1325C95.7184 110.695 96.07 111.023 96.07 111.551C96.07 112.078 95.7067 112.395 95.1325 112.395H93.4918V119.754C93.4918 121.066 93.82 121.453 94.9567 121.453C95.2848 121.453 95.5192 121.418 95.7418 121.418C96.1989 121.418 96.5153 121.711 96.5153 122.168C96.5153 122.496 96.3629 122.766 95.9997 122.941C95.6715 123.105 95.2145 123.188 94.5465 123.188C92.32 123.188 91.4645 122.297 91.4645 119.73ZM98.5833 126.492C98.5833 126.023 98.9583 125.719 99.5208 125.719C99.6849 125.719 99.9075 125.742 100.165 125.742C100.974 125.742 101.712 125.016 102.029 123.902C102.029 123.891 102.228 123.199 102.228 123.188L98.2669 112.336C98.1614 112.055 98.1146 111.809 98.1146 111.621C98.1146 111.07 98.5482 110.648 99.1458 110.648C99.638 110.648 99.9896 110.977 100.201 111.668L103.236 120.996H103.329L106.365 111.668C106.576 110.977 106.927 110.648 107.408 110.648C107.982 110.648 108.404 111.059 108.404 111.609C108.404 111.797 108.357 112.031 108.24 112.336L104.091 123.914C103.189 126.445 101.97 127.441 100.06 127.441C99.5091 127.441 99.0521 127.301 98.806 127.066C98.6536 126.914 98.5833 126.727 98.5833 126.492ZM119.255 123.117C118.622 123.117 118.235 122.684 118.235 121.992V108.832H114.309C113.665 108.832 113.255 108.492 113.255 107.93C113.255 107.367 113.665 107.004 114.309 107.004H124.223C124.856 107.004 125.266 107.367 125.266 107.93C125.266 108.492 124.856 108.832 124.223 108.832H120.286V121.992C120.286 122.684 119.887 123.117 119.255 123.117ZM124.147 117.832V115.887C124.147 112.699 126.256 110.473 129.291 110.473C132.233 110.473 134.295 112.617 134.295 115.641C134.295 116.977 134.061 117.352 133.194 117.352H126.186V117.996C126.198 120.129 127.475 121.465 129.584 121.465C130.627 121.465 131.436 121.148 132.092 120.516C132.725 119.93 132.866 119.836 133.205 119.836C133.651 119.836 133.991 120.199 133.991 120.691C133.991 121.055 133.768 121.5 133.416 121.863C132.643 122.695 131.143 123.211 129.491 123.211C126.186 123.211 124.147 121.16 124.147 117.832ZM126.186 115.711H132.291V115.676C132.291 113.555 131.131 112.207 129.315 112.207C127.451 112.207 126.186 113.613 126.186 115.676V115.711ZM136.375 120.492C136.375 119.93 136.715 119.59 137.254 119.59C137.582 119.59 137.828 119.754 138.238 120.258C138.988 121.125 139.949 121.559 141.203 121.559C142.785 121.559 143.781 120.844 143.781 119.707C143.781 118.84 143.148 118.184 142.07 117.926L139.727 117.387C137.582 116.895 136.551 115.816 136.551 114.082C136.551 111.891 138.309 110.473 141.051 110.473C142.281 110.473 143.418 110.789 144.285 111.363C145.023 111.855 145.48 112.523 145.48 113.133C145.48 113.648 145.141 113.965 144.625 113.965C144.262 113.965 144.074 113.848 143.582 113.344C142.762 112.465 142.047 112.125 140.969 112.125C139.457 112.125 138.531 112.816 138.531 113.953C138.531 114.844 139.105 115.383 140.336 115.688L142.621 116.238C144.766 116.754 145.762 117.797 145.762 119.543C145.762 121.793 143.98 123.211 141.098 123.211C139.844 123.211 138.66 122.918 137.746 122.402C136.867 121.898 136.375 121.207 136.375 120.492ZM149.177 119.73V112.395H148.287C147.713 112.395 147.349 112.078 147.349 111.551C147.349 111.023 147.701 110.695 148.287 110.695H149.189V108.668C149.189 107.965 149.564 107.555 150.185 107.555C150.818 107.555 151.193 107.965 151.193 108.668V110.695H152.845C153.431 110.695 153.783 111.023 153.783 111.551C153.783 112.078 153.42 112.395 152.845 112.395H151.205V119.754C151.205 121.066 151.533 121.453 152.67 121.453C152.998 121.453 153.232 121.418 153.455 121.418C153.912 121.418 154.228 121.711 154.228 122.168C154.228 122.496 154.076 122.766 153.713 122.941C153.384 123.105 152.927 123.188 152.259 123.188C150.033 123.188 149.177 122.297 149.177 119.73ZM156.308 107.602C156.308 106.863 156.882 106.336 157.585 106.336C158.347 106.336 158.909 106.863 158.909 107.602C158.909 108.34 158.347 108.891 157.585 108.891C156.882 108.891 156.308 108.34 156.308 107.602ZM158.605 121.992C158.605 122.754 158.171 123.117 157.597 123.117C157.023 123.117 156.589 122.742 156.589 121.992V111.691C156.589 110.93 157.034 110.566 157.609 110.566C158.183 110.566 158.605 110.941 158.605 111.691V121.992ZM172.11 121.992C172.11 122.695 171.724 123.117 171.091 123.117C170.458 123.117 170.083 122.695 170.083 121.992V115.184C170.083 113.273 169.122 112.266 167.388 112.266C165.36 112.266 164.083 113.707 164.083 116.109V121.992C164.083 122.695 163.708 123.117 163.075 123.117C162.442 123.117 162.067 122.695 162.067 121.992V111.691C162.067 110.988 162.454 110.566 163.075 110.566C163.696 110.566 164.071 110.977 164.071 111.668V112.934H164.177C164.692 111.375 166.028 110.484 167.915 110.484C170.575 110.484 172.11 111.984 172.11 114.574V121.992ZM183.143 120.949C182.663 122.004 181.421 122.883 179.639 122.883C176.967 122.883 174.799 120.938 174.799 117.738V115.652C174.799 112.453 176.967 110.484 179.616 110.484C181.538 110.484 182.815 111.516 183.249 112.535H183.342V111.668C183.342 110.918 183.729 110.566 184.292 110.566C184.866 110.566 185.264 110.93 185.264 111.691V122.648C185.264 126.035 183.096 127.629 180.026 127.629C178.667 127.629 177.46 127.324 176.581 126.785C175.831 126.328 175.256 125.66 175.256 125.004C175.256 124.5 175.596 124.137 176.112 124.137C176.604 124.137 176.839 124.453 177.214 124.805C177.682 125.238 178.479 125.859 179.944 125.859C181.983 125.859 183.26 124.676 183.26 122.695V120.949H183.143ZM176.839 117.34C176.839 119.613 178.198 121.137 180.143 121.137C182.171 121.137 183.249 119.484 183.249 117.727V115.723C183.249 113.918 182.135 112.242 180.073 112.242C178.116 112.242 176.839 113.789 176.839 116.062V117.34Z" fill="#242424"/>
<path d="M257 0H502C508.627 0 514 5.37258 514 12V76H257V0Z" fill="#F5DFD9"/>
<path d="M257 -1H502C509.18 -1 515 4.8203 515 12H513C513 5.92487 508.075 1 502 1H257V-1ZM515 77H257V75H513L515 77ZM257 76V0V76ZM502 -1C509.18 -1 515 4.8203 515 12V77L513 75V12C513 5.92487 508.075 1 502 1V-1Z" fill="black" fill-opacity="0.2"/>
<path d="M290.043 47.1172C289.41 47.1172 289.023 46.6836 289.023 45.9922V39.6406H280.973V45.9922C280.973 46.6836 280.574 47.1172 279.941 47.1172C279.309 47.1172 278.922 46.6836 278.922 45.9922V32.0117C278.922 31.3203 279.309 30.8867 279.941 30.8867C280.574 30.8867 280.973 31.3203 280.973 32.0117V37.8125H289.023V32.0117C289.023 31.3203 289.41 30.8867 290.043 30.8867C290.676 30.8867 291.074 31.3203 291.074 32.0117V45.9922C291.074 46.6836 290.676 47.1172 290.043 47.1172ZM294.349 31.6016C294.349 30.8633 294.924 30.3359 295.627 30.3359C296.388 30.3359 296.951 30.8633 296.951 31.6016C296.951 32.3398 296.388 32.8906 295.627 32.8906C294.924 32.8906 294.349 32.3398 294.349 31.6016ZM296.646 45.9922C296.646 46.7539 296.213 47.1172 295.638 47.1172C295.064 47.1172 294.631 46.7422 294.631 45.9922V35.6914C294.631 34.9297 295.076 34.5664 295.65 34.5664C296.224 34.5664 296.646 34.9414 296.646 35.6914V45.9922ZM307.972 44.9492C307.492 46.0039 306.249 46.8828 304.468 46.8828C301.796 46.8828 299.628 44.9375 299.628 41.7383V39.6523C299.628 36.4531 301.796 34.4844 304.445 34.4844C306.367 34.4844 307.644 35.5156 308.077 36.5352H308.171V35.668C308.171 34.918 308.558 34.5664 309.12 34.5664C309.695 34.5664 310.093 34.9297 310.093 35.6914V46.6484C310.093 50.0352 307.925 51.6289 304.855 51.6289C303.495 51.6289 302.288 51.3242 301.41 50.7852C300.66 50.3281 300.085 49.6602 300.085 49.0039C300.085 48.5 300.425 48.1367 300.941 48.1367C301.433 48.1367 301.667 48.4531 302.042 48.8047C302.511 49.2383 303.308 49.8594 304.773 49.8594C306.812 49.8594 308.089 48.6758 308.089 46.6953V44.9492H307.972ZM301.667 41.3398C301.667 43.6133 303.027 45.1367 304.972 45.1367C306.999 45.1367 308.077 43.4844 308.077 41.7266V39.7227C308.077 37.918 306.964 36.2422 304.902 36.2422C302.945 36.2422 301.667 37.7891 301.667 40.0625V41.3398ZM323.634 45.9922C323.634 46.6836 323.235 47.1172 322.603 47.1172C321.97 47.1172 321.606 46.6953 321.606 45.9922V39.207C321.606 37.3203 320.587 36.2656 318.841 36.2656C316.837 36.2656 315.56 37.7305 315.56 40.1094V45.9922C315.56 46.6953 315.173 47.1172 314.54 47.1172C313.907 47.1172 313.544 46.6953 313.544 45.9922V31.2148C313.544 30.5 313.919 30.0898 314.54 30.0898C315.173 30.0898 315.56 30.5 315.56 31.2148V36.9336H315.665C316.087 35.4922 317.657 34.4844 319.485 34.4844C322.063 34.4844 323.634 36.043 323.634 38.5977V45.9922ZM332.457 47.1172C331.825 47.1172 331.438 46.6836 331.438 45.9922V32.7383C331.438 31.4961 331.977 31.0039 333.325 31.0039H339.969C340.602 31.0039 341.012 31.3672 341.012 31.9297C341.012 32.4922 340.602 32.832 339.969 32.832H333.489V38.2695H339.36C340.004 38.2695 340.414 38.6211 340.414 39.1836C340.414 39.7461 340.004 40.0977 339.36 40.0977H333.489V45.9922C333.489 46.6836 333.09 47.1172 332.457 47.1172ZM342.951 31.6016C342.951 30.8633 343.525 30.3359 344.229 30.3359C344.99 30.3359 345.553 30.8633 345.553 31.6016C345.553 32.3398 344.99 32.8906 344.229 32.8906C343.525 32.8906 342.951 32.3398 342.951 31.6016ZM345.248 45.9922C345.248 46.7539 344.814 47.1172 344.24 47.1172C343.666 47.1172 343.232 46.7422 343.232 45.9922V35.6914C343.232 34.9297 343.678 34.5664 344.252 34.5664C344.826 34.5664 345.248 34.9414 345.248 35.6914V45.9922ZM356.679 45.0547C356.328 46.2969 354.781 47.1992 352.965 47.1992C350.082 47.1992 348.218 45.1719 348.218 42.0781V39.6172C348.218 36.5117 350.129 34.4844 353.023 34.4844C354.746 34.4844 356.105 35.2461 356.597 36.5H356.691V31.2148C356.691 30.5 357.066 30.0898 357.699 30.0898C358.332 30.0898 358.707 30.5 358.707 31.2148V45.9922C358.707 46.707 358.367 47.1172 357.746 47.1172C357.136 47.1172 356.797 46.7188 356.785 46.0156V45.0547H356.679ZM350.269 41.6211C350.269 44.0234 351.441 45.4414 353.445 45.4414C355.425 45.4414 356.691 44.0469 356.691 41.832V39.6172C356.691 37.6602 355.297 36.2422 353.375 36.2422C351.418 36.2422 350.269 37.6836 350.269 40.0625V41.6211ZM361.618 41.832V39.8867C361.618 36.6992 363.728 34.4727 366.763 34.4727C369.704 34.4727 371.767 36.6172 371.767 39.6406C371.767 40.9766 371.533 41.3516 370.665 41.3516H363.658V41.9961C363.669 44.1289 364.947 45.4648 367.056 45.4648C368.099 45.4648 368.908 45.1484 369.564 44.5156C370.197 43.9297 370.337 43.8359 370.677 43.8359C371.122 43.8359 371.462 44.1992 371.462 44.6914C371.462 45.0547 371.24 45.5 370.888 45.8633C370.115 46.6953 368.615 47.2109 366.962 47.2109C363.658 47.2109 361.618 45.1602 361.618 41.832ZM363.658 39.7109H369.763V39.6758C369.763 37.5547 368.603 36.207 366.786 36.207C364.923 36.207 363.658 37.6133 363.658 39.6758V39.7109ZM375.628 47.1172C375.054 47.1172 374.632 46.7539 374.632 45.9922V31.2148C374.632 30.4531 375.054 30.0898 375.628 30.0898C376.202 30.0898 376.636 30.4531 376.636 31.2148V45.9922C376.636 46.7539 376.202 47.1172 375.628 47.1172ZM379.887 31.6016C379.887 30.8633 380.462 30.3359 381.165 30.3359C381.926 30.3359 382.489 30.8633 382.489 31.6016C382.489 32.3398 381.926 32.8906 381.165 32.8906C380.462 32.8906 379.887 32.3398 379.887 31.6016ZM382.184 45.9922C382.184 46.7539 381.751 47.1172 381.176 47.1172C380.602 47.1172 380.169 46.7422 380.169 45.9922V35.6914C380.169 34.9297 380.614 34.5664 381.188 34.5664C381.762 34.5664 382.184 34.9414 382.184 35.6914V45.9922ZM386.385 43.7305V36.3945H385.494C384.92 36.3945 384.557 36.0781 384.557 35.5508C384.557 35.0234 384.909 34.6953 385.494 34.6953H386.397V32.668C386.397 31.9648 386.772 31.5547 387.393 31.5547C388.026 31.5547 388.401 31.9648 388.401 32.668V34.6953H390.053C390.639 34.6953 390.991 35.0234 390.991 35.5508C390.991 36.0781 390.627 36.3945 390.053 36.3945H388.412V43.7539C388.412 45.0664 388.741 45.4531 389.877 45.4531C390.205 45.4531 390.44 45.418 390.662 45.418C391.119 45.418 391.436 45.7109 391.436 46.168C391.436 46.4961 391.284 46.7656 390.92 46.9414C390.592 47.1055 390.135 47.1875 389.467 47.1875C387.241 47.1875 386.385 46.2969 386.385 43.7305ZM393.504 50.4922C393.504 50.0234 393.879 49.7188 394.441 49.7188C394.605 49.7188 394.828 49.7422 395.086 49.7422C395.895 49.7422 396.633 49.0156 396.949 47.9023C396.949 47.8906 397.148 47.1992 397.148 47.1875L393.187 36.3359C393.082 36.0547 393.035 35.8086 393.035 35.6211C393.035 35.0703 393.469 34.6484 394.066 34.6484C394.559 34.6484 394.91 34.9766 395.121 35.668L398.156 44.9961H398.25L401.285 35.668C401.496 34.9766 401.848 34.6484 402.328 34.6484C402.902 34.6484 403.324 35.0586 403.324 35.6094C403.324 35.7969 403.277 36.0312 403.16 36.3359L399.012 47.9141C398.109 50.4453 396.891 51.4414 394.98 51.4414C394.43 51.4414 393.973 51.3008 393.727 51.0664C393.574 50.9141 393.504 50.7266 393.504 50.4922ZM411.011 47.1172C410.378 47.1172 409.992 46.6836 409.992 45.9922V32.7383C409.992 31.4961 410.531 31.0039 411.878 31.0039H418.523C419.156 31.0039 419.566 31.3672 419.566 31.9297C419.566 32.4922 419.156 32.832 418.523 32.832H412.042V38.2695H417.913C418.558 38.2695 418.968 38.6211 418.968 39.1836C418.968 39.7461 418.558 40.0977 417.913 40.0977H412.042V45.9922C412.042 46.6836 411.644 47.1172 411.011 47.1172ZM423.685 45.9922C423.685 46.6953 423.321 47.1172 422.677 47.1172C422.044 47.1172 421.669 46.6953 421.669 45.9922V35.6914C421.669 35 422.067 34.5664 422.688 34.5664C423.31 34.5664 423.673 34.9883 423.673 35.668V36.1367H423.731C424.376 35.0352 425.325 34.4844 426.45 34.4844C426.802 34.4844 427.095 34.5547 427.317 34.6953C427.575 34.8477 427.716 35.1172 427.716 35.4336C427.716 35.7969 427.587 36.043 427.317 36.1953C427.106 36.3125 426.813 36.3594 426.427 36.3594C424.622 36.3711 423.685 37.3438 423.685 39.3711V45.9922ZM436.381 45.3594C435.643 46.5547 434.389 47.1992 432.831 47.1992C430.428 47.1992 428.811 45.6758 428.811 43.4141C428.811 41.1758 430.44 39.7812 433.147 39.7812H436.405V38.5859C436.405 37.0039 435.456 36.1953 433.686 36.1953C432.643 36.1953 431.94 36.5586 431.202 37.4023C430.921 37.7305 430.651 37.8477 430.288 37.8477C429.819 37.8477 429.503 37.5312 429.503 37.0508C429.503 36.3594 429.983 35.6797 430.967 35.1172C431.682 34.707 432.608 34.4844 433.815 34.4844C436.78 34.4844 438.421 35.9375 438.421 38.5742V46.0039C438.421 46.707 438.057 47.1172 437.436 47.1172C436.839 47.1172 436.487 46.7188 436.464 46.0508V45.3594H436.381ZM430.874 43.3672C430.874 44.6445 431.881 45.5117 433.381 45.5117C435.081 45.5117 436.405 44.3398 436.405 42.8047V41.4102H433.253C431.741 41.4102 430.874 42.1133 430.874 43.3672ZM458.383 45.9922C458.383 46.6953 458.008 47.1172 457.375 47.1172C456.742 47.1172 456.367 46.6953 456.367 45.9922V38.8555C456.367 37.2031 455.395 36.2539 453.766 36.2539C452.172 36.2539 451 37.4492 451 39.125V45.9922C451 46.6953 450.625 47.1172 449.992 47.1172C449.36 47.1172 448.996 46.6953 448.996 45.9922V38.9375C448.996 37.2852 447.942 36.2539 446.336 36.2539C444.754 36.2539 443.617 37.4141 443.617 39.1016V45.9922C443.617 46.6953 443.242 47.1172 442.61 47.1172C441.977 47.1172 441.602 46.6953 441.602 45.9922V35.6914C441.602 34.9883 441.989 34.5664 442.61 34.5664C443.231 34.5664 443.606 34.9883 443.606 35.6797V36.6406H443.711C444.168 35.2695 445.387 34.4844 447.051 34.4844C448.762 34.4844 450.051 35.3633 450.485 36.8047H450.567C451.176 35.3281 452.547 34.4844 454.317 34.4844C456.895 34.4844 458.383 35.8906 458.383 38.3281V45.9922ZM461.166 41.832V39.8867C461.166 36.6992 463.275 34.4727 466.311 34.4727C469.252 34.4727 471.314 36.6172 471.314 39.6406C471.314 40.9766 471.08 41.3516 470.213 41.3516H463.205V41.9961C463.217 44.1289 464.494 45.4648 466.603 45.4648C467.646 45.4648 468.455 45.1484 469.111 44.5156C469.744 43.9297 469.885 43.8359 470.225 43.8359C470.67 43.8359 471.01 44.1992 471.01 44.6914C471.01 45.0547 470.787 45.5 470.436 45.8633C469.662 46.6953 468.162 47.2109 466.51 47.2109C463.205 47.2109 461.166 45.1602 461.166 41.832ZM463.205 39.7109H469.311V39.6758C469.311 37.5547 468.15 36.207 466.334 36.207C464.471 36.207 463.205 37.6133 463.205 39.6758V39.7109ZM473.394 44.4922C473.394 43.9297 473.734 43.5898 474.273 43.5898C474.601 43.5898 474.847 43.7539 475.257 44.2578C476.007 45.125 476.968 45.5586 478.222 45.5586C479.804 45.5586 480.8 44.8438 480.8 43.707C480.8 42.8398 480.168 42.1836 479.089 41.9258L476.746 41.3867C474.601 40.8945 473.57 39.8164 473.57 38.082C473.57 35.8906 475.328 34.4727 478.07 34.4727C479.3 34.4727 480.437 34.7891 481.304 35.3633C482.043 35.8555 482.5 36.5234 482.5 37.1328C482.5 37.6484 482.16 37.9648 481.644 37.9648C481.281 37.9648 481.093 37.8477 480.601 37.3438C479.781 36.4648 479.066 36.125 477.988 36.125C476.476 36.125 475.55 36.8164 475.55 37.9531C475.55 38.8438 476.125 39.3828 477.355 39.6875L479.64 40.2383C481.785 40.7539 482.781 41.7969 482.781 43.543C482.781 45.793 481 47.2109 478.117 47.2109C476.863 47.2109 475.679 46.918 474.765 46.4023C473.886 45.8984 473.394 45.207 473.394 44.4922Z" fill="#242424"/>
<path d="M0 12C0 5.37258 5.37258 0 12 0H257V76H0V12Z" fill="#F5DFD9"/>
<path d="M257 0H258V-1H257V0ZM257 76V77H258V76H257ZM0 76H-1V77H0V76ZM12 1H257V-1H12V1ZM256 0V76H258V0H256ZM257 75H0V77H257V75ZM1 76V12H-1V76H1ZM12 -1C4.8203 -1 -1 4.8203 -1 12H1C1 5.92487 5.92487 1 12 1V-1Z" fill="black" fill-opacity="0.2"/>
<path d="M33.8633 41.457C33.8633 44.9727 31.4258 47.3398 27.793 47.3398C23.9609 47.3398 21.7344 44.9492 21.7344 41.4102V32.0117C21.7344 31.3203 22.1211 30.8867 22.7539 30.8867C23.3867 30.8867 23.7852 31.3203 23.7852 32.0117V41.4102C23.7852 43.918 25.3438 45.5 27.793 45.5C30.2539 45.5 31.8125 43.9062 31.8125 41.4102V32.0117C31.8125 31.3203 32.1992 30.8867 32.832 30.8867C33.4648 30.8867 33.8633 31.3203 33.8633 32.0117V41.457ZM36.4352 44.4922C36.4352 43.9297 36.7751 43.5898 37.3141 43.5898C37.6423 43.5898 37.8883 43.7539 38.2985 44.2578C39.0485 45.125 40.0094 45.5586 41.2633 45.5586C42.8454 45.5586 43.8415 44.8438 43.8415 43.707C43.8415 42.8398 43.2087 42.1836 42.1305 41.9258L39.7868 41.3867C37.6423 40.8945 36.611 39.8164 36.611 38.082C36.611 35.8906 38.3688 34.4727 41.111 34.4727C42.3415 34.4727 43.4782 34.7891 44.3454 35.3633C45.0837 35.8555 45.5407 36.5234 45.5407 37.1328C45.5407 37.6484 45.2008 37.9648 44.6852 37.9648C44.3219 37.9648 44.1344 37.8477 43.6423 37.3438C42.8219 36.4648 42.1071 36.125 41.029 36.125C39.5173 36.125 38.5915 36.8164 38.5915 37.9531C38.5915 38.8438 39.1657 39.3828 40.3962 39.6875L42.6813 40.2383C44.8258 40.7539 45.8219 41.7969 45.8219 43.543C45.8219 45.793 44.0407 47.2109 41.1579 47.2109C39.904 47.2109 38.7204 46.918 37.8063 46.4023C36.9274 45.8984 36.4352 45.207 36.4352 44.4922ZM48.0072 41.832V39.8867C48.0072 36.6992 50.1165 34.4727 53.1517 34.4727C56.0931 34.4727 58.1556 36.6172 58.1556 39.6406C58.1556 40.9766 57.9212 41.3516 57.054 41.3516H50.0462V41.9961C50.0579 44.1289 51.3353 45.4648 53.4447 45.4648C54.4876 45.4648 55.2962 45.1484 55.9525 44.5156C56.5853 43.9297 56.7259 43.8359 57.0658 43.8359C57.5111 43.8359 57.8509 44.1992 57.8509 44.6914C57.8509 45.0547 57.6283 45.5 57.2767 45.8633C56.5033 46.6953 55.0033 47.2109 53.3509 47.2109C50.0462 47.2109 48.0072 45.1602 48.0072 41.832ZM50.0462 39.7109H56.1517V39.6758C56.1517 37.5547 54.9915 36.207 53.1751 36.207C51.3118 36.207 50.0462 37.6133 50.0462 39.6758V39.7109ZM62.9541 45.9922C62.9541 46.6953 62.5908 47.1172 61.9463 47.1172C61.3135 47.1172 60.9385 46.6953 60.9385 45.9922V35.6914C60.9385 35 61.3369 34.5664 61.958 34.5664C62.5791 34.5664 62.9424 34.9883 62.9424 35.668V36.1367H63.001C63.6455 35.0352 64.5947 34.4844 65.7197 34.4844C66.0713 34.4844 66.3643 34.5547 66.5869 34.6953C66.8447 34.8477 66.9853 35.1172 66.9853 35.4336C66.9853 35.7969 66.8564 36.043 66.5869 36.1953C66.376 36.3125 66.083 36.3594 65.6963 36.3594C63.8916 36.3711 62.9541 37.3438 62.9541 39.3711V45.9922ZM74.4964 47.1172C73.8636 47.1172 73.4769 46.6836 73.4769 45.9922V32.7383C73.4769 31.4961 74.0159 31.0039 75.3636 31.0039H82.0081C82.6409 31.0039 83.0511 31.3672 83.0511 31.9297C83.0511 32.4922 82.6409 32.832 82.0081 32.832H75.5277V38.2695H81.3988C82.0433 38.2695 82.4534 38.6211 82.4534 39.1836C82.4534 39.7461 82.0433 40.0977 81.3988 40.0977H75.5277V45.9922C75.5277 46.6836 75.1292 47.1172 74.4964 47.1172ZM86.2324 47.1172C85.6582 47.1172 85.2363 46.7539 85.2363 45.9922V31.2148C85.2363 30.4531 85.6582 30.0898 86.2324 30.0898C86.8066 30.0898 87.2402 30.4531 87.2402 31.2148V45.9922C87.2402 46.7539 86.8066 47.1172 86.2324 47.1172ZM95.4606 34.4727C98.484 34.4727 100.746 36.4531 100.746 39.8984V41.7734C100.746 45.2305 98.484 47.2109 95.4606 47.2109C92.4254 47.2109 90.1637 45.2305 90.1637 41.7734V39.8984C90.1637 36.4531 92.4254 34.4727 95.4606 34.4727ZM95.4606 36.2305C93.4684 36.2305 92.2028 37.7539 92.2028 40.0742V41.5977C92.2028 43.9766 93.4684 45.4648 95.4606 45.4648C97.4528 45.4648 98.695 43.9766 98.695 41.5977V40.0742C98.695 37.7539 97.4528 36.2305 95.4606 36.2305ZM105.122 45.2188L102.638 36.3242C102.579 36.0664 102.544 35.8555 102.544 35.6797C102.544 35.0586 102.978 34.625 103.611 34.625C104.126 34.625 104.513 35.0352 104.689 35.7734L106.646 44.5039H106.728L108.966 36.4531C109.376 34.9414 109.646 34.625 110.419 34.625C111.193 34.625 111.451 34.9297 111.884 36.4531L114.169 44.5039H114.263L116.29 35.7266C116.466 35.0117 116.818 34.625 117.31 34.625C117.884 34.625 118.271 35.0117 118.271 35.5742C118.271 35.7266 118.236 35.8906 118.154 36.1836L115.751 45.2188C115.329 46.7773 115.025 47.1172 114.286 47.1172C113.525 47.1172 113.173 46.7773 112.728 45.2188L110.454 37.4844H110.396L108.181 45.2188C107.736 46.7773 107.454 47.1172 106.681 47.1172C105.861 47.1172 105.556 46.7773 105.122 45.2188ZM119.823 44.4922C119.823 43.9297 120.163 43.5898 120.702 43.5898C121.03 43.5898 121.276 43.7539 121.687 44.2578C122.437 45.125 123.397 45.5586 124.651 45.5586C126.233 45.5586 127.229 44.8438 127.229 43.707C127.229 42.8398 126.597 42.1836 125.519 41.9258L123.175 41.3867C121.03 40.8945 119.999 39.8164 119.999 38.082C119.999 35.8906 121.757 34.4727 124.499 34.4727C125.729 34.4727 126.866 34.7891 127.733 35.3633C128.472 35.8555 128.929 36.5234 128.929 37.1328C128.929 37.6484 128.589 37.9648 128.073 37.9648C127.71 37.9648 127.522 37.8477 127.03 37.3438C126.21 36.4648 125.495 36.125 124.417 36.125C122.905 36.125 121.979 36.8164 121.979 37.9531C121.979 38.8438 122.554 39.3828 123.784 39.6875L126.069 40.2383C128.214 40.7539 129.21 41.7969 129.21 43.543C129.21 45.793 127.429 47.2109 124.546 47.2109C123.292 47.2109 122.108 46.918 121.194 46.4023C120.315 45.8984 119.823 45.207 119.823 44.4922Z" fill="#242424"/>
</svg>
